<?xml version="1.0" encoding="UTF-8" standalone="no"?>
<svg
   xmlns:dc="http://purl.org/dc/elements/1.1/"
   xmlns:cc="http://creativecommons.org/ns#"
   xmlns:rdf="http://www.w3.org/1999/02/22-rdf-syntax-ns#"
   xmlns:svg="http://www.w3.org/2000/svg"
   xmlns="http://www.w3.org/2000/svg"
   xmlns:sodipodi="http://sodipodi.sourceforge.net/DTD/sodipodi-0.dtd"
   xmlns:inkscape="http://www.inkscape.org/namespaces/inkscape"
   viewBox="0 0 512 512"
   width="512"
   height="512"
   version="1.1"
   id="svg125"
   sodipodi:docname="alligator.svg"
   inkscape:version="1.0.2 (e86c870879, 2021-01-15, custom)">
  <metadata
     id="metadata131">
    <rdf:RDF>
      <cc:Work
         rdf:about="">
        <dc:format>image/svg+xml</dc:format>
        <dc:type
           rdf:resource="http://purl.org/dc/dcmitype/StillImage" />
        <dc:title></dc:title>
      </cc:Work>
    </rdf:RDF>
  </metadata>
  <defs
     id="defs129" />
  <sodipodi:namedview
     pagecolor="#ffffff"
     bordercolor="#666666"
     borderopacity="1"
     objecttolerance="10"
     gridtolerance="10"
     guidetolerance="10"
     inkscape:pageopacity="0"
     inkscape:pageshadow="2"
     inkscape:window-width="1366"
     inkscape:window-height="715"
     id="namedview127"
     showgrid="false"
     inkscape:zoom="0.28232752"
     inkscape:cx="1356.2423"
     inkscape:cy="914.15492"
     inkscape:window-x="-8"
     inkscape:window-y="-8"
     inkscape:window-maximized="1"
     inkscape:current-layer="svg125" />
  <style
     id="style2">
		tspan { white-space:pre }
		.shp0 { fill: #e7d5b8 } 
		.shp1 { fill: #15120f } 
	</style>
  <path
     id="Path 31"
     style="fill:#333333;fill-opacity:1;stroke-width:0.619296"
     d="m 229.99879,56.000085 -1.90748,0.873331 c -1.05281,0.483051 -2.79893,2.216275 -3.8827,3.851216 -1.08377,1.634942 -2.40301,4.502778 -2.93561,6.379244 -0.5326,1.876467 -1.95083,5.499349 -3.14607,8.050848 -1.59778,3.393742 -2.01847,4.892439 -1.56638,5.573664 0.33442,0.514016 1.27521,1.436829 2.08649,2.062318 0.81128,0.619296 2.86787,1.275378 4.57094,1.461167 l 3.09648,0.32897 c 1.67829,-9.945894 2.60123,-15.340395 3.14002,-18.405911 0.5326,-3.065515 0.87969,-6.608445 0.76203,-7.871809 z m -38.21008,22.324877 c -0.0867,0.03716 -0.6253,0.198423 -1.19505,0.353247 -0.56975,0.154824 -1.44954,1.034596 -1.94498,1.944961 -0.49543,0.910365 -1.36797,3.461803 -1.93772,5.678882 -0.56975,2.21708 -1.29515,4.37223 -1.61718,4.799544 -0.40255,0.538788 -0.15449,1.058872 0.81161,1.709133 0.76793,0.514016 2.44003,0.928944 3.71578,0.928944 2.27282,-0.0062 2.33441,-0.068 2.90416,-2.947725 0.32203,-1.616362 0.72531,-4.929039 0.8987,-7.350486 0.25393,-3.486636 0.12919,-4.496089 -0.583,-4.799544 -0.49544,-0.216753 -0.96562,-0.360306 -1.05232,-0.316956 z m 62.70372,1.158765 c -0.51402,0.01858 -1.51096,0.513582 -2.22315,1.101914 -0.71219,0.588331 -1.61061,1.907741 -1.99457,2.929579 -0.39016,1.021839 -1.13313,3.951109 -1.65953,6.502608 -0.5264,2.557693 -1.51066,5.548892 -2.1857,6.657432 -1.16427,1.907432 -1.17076,2.055877 -0.14273,2.89812 0.59453,0.48924 2.06226,1.06537 3.25131,1.28213 1.69068,0.30965 2.34744,0.15501 2.97912,-0.73059 0.44589,-0.619291 1.83931,-3.201446 3.09648,-5.74056 1.88885,-3.821056 2.28489,-5.27058 2.28489,-8.447569 0,-2.978813 -0.27868,-4.130766 -1.23859,-5.158797 -0.68122,-0.730769 -1.65352,-1.312846 -2.16753,-1.294267 z m -40.71872,8.068993 c -1.54824,0.01858 -1.95088,0.557367 -4.43425,6.038136 -1.4987,3.313234 -3.2695,7.698154 -3.93834,9.741834 -0.95991,2.91689 -1.3071,6.30443 -1.63533,15.79205 -0.38396,11.12875 -0.5381,12.31774 -1.93771,15.12315 -0.83605,1.67829 -2.29198,3.69719 -3.22712,4.48989 -0.93513,0.7927 -1.98174,1.44302 -2.32236,1.44302 -0.34061,0 -1.3129,-0.69361 -2.16753,-1.54824 -0.84844,-0.84843 -1.8575,-2.73109 -2.23528,-4.18024 -0.37777,-1.44916 -0.54594,-4.71904 -0.37254,-7.27673 0.17959,-2.5515 0.79342,-7.5678 1.36317,-11.14733 0.57595,-3.57953 0.94729,-8.47822 0.83581,-10.88729 -0.13005,-2.73728 -0.55727,-4.79322 -1.1394,-5.474448 -0.51402,-0.600717 -2.04368,-1.74016 -3.40613,-2.532859 -1.36245,-0.798892 -3.72255,-1.634756 -5.23983,-1.863895 l -2.75538,-0.414929 c -2.08703,4.650913 -3.14632,7.394081 -3.70368,9.097151 -0.56356,1.70306 -1.25732,5.1897 -1.54219,7.7412 -0.30346,2.66297 -0.28484,7.41916 0.0496,11.14733 0.31584,3.57953 1.52337,10.40417 2.68765,15.17275 l 2.11916,8.67014 c -2.14277,1.65971 -3.74113,2.13626 -4.93018,2.13007 -1.87647,-0.0124 -2.61943,-0.52553 -5.53012,-3.85735 -1.8517,-2.11799 -4.08117,-4.39192 -4.95438,-5.06076 -0.8732,-0.66884 -2.90527,-1.36245 -4.50925,-1.54824 -2.07464,-0.23533 -2.89201,-0.60016 -2.84246,-1.26281 0.0434,-0.51401 0.0316,-1.69687 -0.0242,-2.632 -0.0619,-1.00946 -1.0711,-2.77445 -2.48929,-4.33508 -1.49869,-1.65971 -3.33799,-2.91688 -4.95437,-3.40612 l -2.56427,-0.77412 c -0.0124,2.6382 0.43931,4.93578 0.99669,6.81225 0.55736,1.87647 1.90733,4.79955 2.99729,6.50261 1.46773,2.27901 2.08161,4.07497 2.34171,6.81226 0.18579,2.04367 1.07149,5.31975 1.95707,7.27672 1.28195,2.82399 3.40574,5.31976 10.28613,12.07627 4.76238,4.68188 8.68287,8.93025 8.70764,9.44427 0.0248,0.51401 0.16706,1.83311 0.31569,2.94165 0.14863,1.10854 0.65651,2.78064 1.13336,3.71578 0.47067,0.93514 1.38103,2.1619 2.01272,2.71307 0.63168,0.55737 2.26018,1.57234 3.62264,2.24737 1.36245,0.68122 5.19589,1.8276 8.51532,2.55218 3.31942,0.72458 8.75684,1.90724 12.07627,2.63801 3.31942,0.73077 7.01662,1.78333 8.20567,2.3345 1.18905,0.55118 2.86734,1.45547 3.71577,2.00664 1.39342,0.89798 2.24186,0.91613 8.3605,0.17297 3.74674,-0.45208 7.36962,-0.83567 8.05085,-0.84187 1.01564,-0.0124 1.38698,-0.71888 2.0744,-3.90206 0.46447,-2.13657 1.40633,-4.99741 2.09375,-6.35986 0.68742,-1.36245 2.47017,-3.93872 3.95648,-5.72849 1.80834,-2.16134 3.17752,-3.25142 4.10646,-3.24523 0.76793,0 2.92927,-0.29144 4.79955,-0.65683 3.08409,-0.60071 3.59229,-0.93495 5.35109,-3.56695 1.06519,-1.59779 2.273,-4.16136 2.67554,-5.69103 0.40874,-1.52966 0.57545,-3.41232 0.38347,-4.18024 -0.22914,-0.8794 -1.09622,-1.62256 -2.37197,-2.01272 -1.10854,-0.3468 -3.40612,-0.65001 -5.10919,-0.68097 -1.70306,-0.0372 -3.93253,0.26617 -4.95437,0.67491 -1.02183,0.40254 -3.74054,1.82067 -6.03813,3.15215 -2.29759,1.33768 -4.45893,2.42758 -4.79955,2.42758 -0.34061,0 -1.05904,-1.04661 -1.59783,-2.32236 -0.91036,-2.15515 -0.89798,-2.50208 0.15483,-4.79348 0.62548,-1.36245 3.32513,-5.40026 6.00668,-8.97979 2.68156,-3.57953 5.5801,-7.90209 6.44092,-9.60515 0.86082,-1.70307 2.33541,-5.74707 3.27668,-8.9798 0.94133,-3.23272 2.04306,-8.39146 2.45179,-11.45697 0.40874,-3.06552 0.55105,-6.96708 0.31572,-8.67015 -0.23533,-1.70306 -0.64933,-3.5114 -0.91563,-4.02542 -0.2663,-0.51402 -1.28807,-1.30647 -2.27278,-1.76475 -0.97849,-0.45827 -2.55203,-0.66884 -3.48717,-0.46447 -0.93513,0.20437 -2.40287,1.13926 -3.2513,2.0744 -0.85463,0.93513 -2.66297,4.35365 -4.02543,7.58637 -1.35625,3.23273 -4.44069,9.22751 -6.84975,13.31487 -2.41525,4.08735 -4.76795,8.82496 -5.23861,10.52803 -0.46447,1.70306 -0.93495,3.76557 -1.04023,4.58304 -0.17959,1.43057 -0.28546,1.39341 -3.22711,-1.2386 -3.02217,-2.71251 -3.02874,-2.73753 -2.25462,-4.89268 0.4335,-1.18905 1.0095,-6.90515 1.28818,-12.69557 0.4397,-9.36995 0.74354,-11.37647 2.7191,-18.26923 1.2262,-4.25456 2.23512,-8.998373 2.24131,-10.528034 0.0124,-1.851695 -0.40239,-3.356584 -1.24463,-4.489896 -0.90417,-1.226206 -2.12375,-1.876467 -4.35322,-2.32236 -1.70306,-0.340613 -3.86441,-0.613413 -4.79954,-0.60722 z M 270.06797,152.17 c -0.56356,-0.0495 -1.85814,0.16814 -2.87998,0.47779 -1.02183,0.30965 -2.76206,1.25011 -3.8706,2.09855 -1.10854,0.84224 -2.76187,2.86145 -3.67224,4.47781 -0.94133,1.66591 -1.67829,3.95675 -1.70306,5.28824 -0.0248,1.44915 0.30946,2.57032 0.88541,2.92951 0.51401,0.32204 1.83311,0.59515 2.94165,0.59515 1.48012,0.0124 2.35339,-0.44001 3.30091,-1.69099 0.706,-0.93514 2.58866,-4.28541 4.18025,-7.43762 1.59159,-3.15222 2.65697,-5.93905 2.3659,-6.19296 -0.28488,-0.25391 -0.98468,-0.49593 -1.54824,-0.54548 z m -58.92626,54.89477 c -0.37777,0 -0.61944,2.7311 -0.61325,6.96708 0.006,3.83344 0.42112,14.21284 0.92894,23.06877 0.50163,8.85593 1.07791,20.28195 1.27609,25.39114 0.19817,5.10919 0.61339,9.84681 0.91685,10.52803 0.30345,0.68122 0.97844,3.74674 1.49864,6.81226 0.52021,3.06551 0.94104,7.80312 0.94104,10.52804 0,2.72489 -0.28472,6.7627 -0.62534,8.97978 -0.34061,2.21709 -1.0781,5.2826 -1.62928,6.81225 -0.55117,1.52968 -1.59188,3.4181 -2.31026,4.1984 -0.76174,0.81748 -2.02457,1.39961 -3.01544,1.39341 -1.18286,-0.0124 -2.50196,-0.84124 -4.33507,-2.7239 -1.44916,-1.48631 -3.51726,-4.20502 -4.60723,-6.03814 -1.14569,-1.9384 -3.03518,-7.0853 -4.51529,-12.31216 -1.39342,-4.93579 -3.33148,-10.6519 -4.29758,-12.69557 -0.95991,-2.04368 -2.30397,-4.27315 -2.9852,-4.95437 -0.88559,-0.89178 -1.79005,-4.00685 -3.23921,-11.14733 -1.10234,-5.4498 -2.67452,-12.20632 -3.49201,-15.01793 -0.81127,-2.8116 -2.0073,-6.1558 -2.65135,-7.43155 -0.65026,-1.27575 -1.69069,-2.82343 -2.32236,-3.43034 -0.63168,-0.60691 -1.82045,-1.02803 -2.64411,-0.92894 -0.97849,0.11766 -1.86964,0.916 -2.60661,2.34657 -0.6131,1.18905 -1.43734,4.26076 -1.83369,6.81226 -0.45209,2.88591 -0.56961,7.22718 -0.3157,11.45697 0.22295,3.74674 0.82391,9.73533 1.33173,13.31487 0.50782,3.57953 1.33676,8.31095 1.84458,10.52803 0.50782,2.21708 1.19568,7.6483 1.5301,12.07627 0.33442,4.42797 0.9048,10.00163 1.26399,12.38593 0.35919,2.38428 1.08382,6.28584 1.59783,8.67013 0.52021,2.38429 1.90076,6.77511 3.06504,9.75391 1.16427,2.97883 2.39072,6.6017 2.72514,8.05085 0.32823,1.44916 0.60691,4.23599 0.6193,6.19296 0.0124,3.05932 -0.2112,3.75913 -1.57365,4.95437 -0.87321,0.76793 -2.33474,1.56738 -3.2513,1.78413 -0.91656,0.21675 -2.50162,0.43289 -3.52346,0.48862 -1.73402,0.0867 -1.9575,-0.16758 -3.33234,-3.80284 -0.81128,-2.13658 -2.44554,-5.83952 -3.64079,-8.22382 -1.18905,-2.38429 -3.38203,-6.21773 -4.87453,-8.51532 -1.48632,-2.29759 -3.88865,-5.42547 -5.3378,-6.94894 -1.44916,-1.52346 -3.04694,-2.7805 -3.56095,-2.7929 -0.7989,-0.0186 -0.86659,0.93558 -0.48262,6.6393 0.24152,3.66622 1.15765,10.70749 2.03086,15.64328 0.8732,4.93579 1.85169,11.3517 2.16753,14.24381 0.32203,2.89211 1.2144,6.93612 1.98852,8.9798 0.8794,2.32236 2.5754,4.99153 4.52618,7.1219 1.71545,1.87646 4.71271,5.42503 6.66349,7.89602 1.98794,2.52053 4.70089,5.14629 6.17481,5.98853 2.19851,1.25098 3.0093,2.30378 4.92292,6.34778 1.26337,2.66917 3.43758,8.75072 4.831,13.5193 1.39341,4.76858 3.64165,12.15678 4.99791,16.41134 1.35626,4.26076 3.52926,10.39179 4.82978,13.62451 1.30052,3.23273 3.49941,7.69166 4.88664,9.90874 1.38103,2.21708 3.86465,5.30124 5.51197,6.86186 1.64733,1.56063 4.18015,3.44329 5.6293,4.18025 1.44916,0.74315 4.37223,1.51665 6.50261,1.72722 2.13038,0.21056 6.65743,0.0814 10.06356,-0.29634 3.40613,-0.37158 7.86506,-1.12179 9.90874,-1.66677 2.04367,-0.53879 5.25163,-1.72059 7.1219,-2.62476 1.87028,-0.90418 4.73142,-2.70112 6.34779,-3.98307 1.61636,-1.28813 4.22347,-4.08072 5.7841,-6.2111 1.56682,-2.13038 3.77163,-5.82137 4.89875,-8.20567 1.12712,-2.38429 2.90413,-6.84323 3.93835,-9.90874 1.04042,-3.06552 3.17705,-10.58996 4.74387,-16.72099 1.57301,-6.13103 3.85289,-13.79792 5.0729,-17.03064 1.21382,-3.23273 3.31256,-7.97034 4.67501,-10.52803 1.35626,-2.5515 4.01954,-6.87419 5.92078,-9.59909 1.90123,-2.7249 4.9421,-7.18384 6.75664,-9.90874 1.82073,-2.7249 3.88305,-6.48403 4.58904,-8.36049 0.706,-1.87647 1.5784,-5.21448 1.94379,-7.43156 0.36538,-2.21708 0.65695,-5.69752 0.65076,-7.7412 -0.006,-2.69393 -1.06519,-7.36962 -3.8706,-17.03064 -2.118,-7.32627 -4.04426,-15.06796 -4.27339,-17.21692 -0.36539,-3.38755 -0.57558,-3.8706 -1.616,-3.71577 -0.71219,0.11147 -1.75904,1.32578 -2.57032,2.97311 -0.75554,1.52966 -2.67586,8.08181 -4.26125,14.55346 -1.57921,6.47164 -3.60431,13.85984 -4.4899,16.41134 -0.8794,2.55769 -2.14264,5.62321 -2.7929,6.81227 -0.65645,1.18903 -2.07439,3.49282 -3.15816,5.10919 -1.08377,1.61636 -2.38411,2.94164 -2.89812,2.94164 -0.51402,0 -2.45861,0.82423 -4.33507,1.83368 -1.87647,1.00945 -3.89538,1.8455 -4.4899,1.85789 -0.59452,0.0124 -1.08377,-0.11203 -1.08377,-0.28544 0,-0.1734 1.08414,-3.02834 2.40943,-6.34777 1.3253,-3.31943 3.43623,-9.10366 4.68102,-12.8504 1.24478,-3.74673 3.05331,-10.01402 4.01941,-13.93416 0.95991,-3.92014 2.09341,-9.63006 2.52072,-12.69557 0.45209,-3.25749 0.64388,-8.66395 0.47048,-13.00522 -0.16721,-4.08735 -0.77994,-9.23988 -1.35588,-11.45697 -0.57595,-2.21708 -1.5732,-5.69753 -2.21108,-7.7412 -0.64406,-2.04368 -1.90675,-6.36637 -2.81711,-9.59908 -0.90417,-3.23274 -2.42244,-7.41298 -3.36377,-9.28945 -0.94752,-1.87647 -2.10462,-3.75293 -2.56909,-4.18025 -0.47066,-0.42112 -1.90179,-1.0528 -3.17754,-1.39341 -1.7588,-0.47067 -2.38467,-0.43351 -2.56426,0.15482 -0.13625,0.42731 -0.84156,7.04759 -1.57852,14.70829 -0.73077,7.66688 -1.79615,15.60625 -2.3659,17.64993 -0.84844,3.05312 -1.03466,6.86799 -1.06562,21.36571 -0.031,15.95925 -0.14833,17.97816 -1.25067,21.05606 -0.71219,1.98175 -2.19863,4.37842 -3.5549,5.72849 -1.28195,1.27575 -2.74334,2.32236 -3.25736,2.32236 -0.51401,0 -1.80253,-0.76793 -2.87392,-1.70306 -1.06519,-0.93514 -2.66205,-2.96024 -3.54764,-4.4899 -1.38103,-2.38429 -1.64777,-3.67862 -1.83975,-8.97979 -0.12386,-3.41852 0.22309,-9.80346 0.76807,-14.24381 0.54498,-4.42797 0.99063,-10.62712 0.99063,-13.77934 0,-3.1522 -0.4022,-7.61113 -0.89144,-9.90873 -0.49544,-2.29759 -1.34421,-5.43741 -1.89539,-6.96708 -0.54498,-1.52966 -1.40585,-5.57367 -1.90748,-8.97978 -0.49544,-3.40614 -1.34343,-8.42244 -1.87603,-11.14734 -0.53878,-2.7249 -1.77796,-7.87745 -2.76264,-11.45698 -0.98468,-3.57953 -2.50162,-8.31095 -3.36863,-10.52803 -0.87321,-2.21708 -2.44661,-5.55508 -3.49322,-7.43155 -1.0528,-1.87646 -2.85418,-4.58898 -4.00607,-6.03813 -1.15189,-1.44916 -2.9298,-3.04694 -3.95164,-3.56096 -1.02184,-0.51401 -2.13657,-0.92894 -2.47718,-0.92894 z m 36.02077,0.55761 v 0.6193 h 93.38428 v 103.02448 h 0.6193 V 207.62238 Z m 100.01025,108.81464 v 7.91299 h 0.95675 v -4.24075 c 0.26104,-0.20003 0.53409,-0.3647 0.8189,-0.49352 0.28475,-0.1288 0.5578,-0.19353 0.81889,-0.19353 0.25416,0 0.45989,0.0353 0.6193,0.10647 0.15928,0.0679 0.28172,0.17333 0.36644,0.31571 0.0814,0.12881 0.13761,0.30897 0.16814,0.53948 0.0303,0.22714 0.046,0.47065 0.046,0.73176 v 3.23438 h 0.95557 v -3.68679 c 0,-0.69503 -0.16052,-1.22712 -0.48261,-1.59661 -0.32204,-0.36952 -0.79072,-0.55396 -1.40432,-0.55396 -0.33572,0 -0.66215,0.0691 -0.9809,0.20803 -0.31863,0.13897 -0.62704,0.33195 -0.92536,0.57941 v -2.86307 z m -21.69474,0.19477 c -0.84707,0 -1.47033,0.32166 -1.86996,0.96523 -0.39957,0.64023 -0.59992,1.63321 -0.59992,2.97795 0,1.33458 0.19706,2.32341 0.59026,2.96705 0.39641,0.64363 1.02289,0.96523 1.87962,0.96523 0.84398,0 1.46556,-0.31602 1.8652,-0.9495 0.40279,-0.63676 0.60356,-1.63414 0.60356,-2.9925 0,-1.31768 -0.19749,-2.30211 -0.5939,-2.9525 -0.39319,-0.65385 -1.01813,-0.98096 -1.87486,-0.98096 z m 6.76996,0.0956 v 0.99181 h 1.0777 v -0.99181 z m -13.14313,0.0316 c -0.013,0.22022 -0.0624,0.39647 -0.14876,0.52857 -0.0831,0.12863 -0.19762,0.23583 -0.3447,0.32049 -0.11822,0.0677 -0.29243,0.12002 -0.52256,0.1573 -0.23019,0.0334 -0.44571,0.0508 -0.6471,0.0508 v 0.69064 h 1.48655 v 5.07172 h -1.48655 v 0.77172 h 3.86453 v -0.77179 h -1.45752 v -6.81833 z m 6.37317,0.7112 c 0.30364,0 0.55093,0.0663 0.74272,0.19836 0.19496,0.1321 0.34891,0.3294 0.46082,0.59025 0.11507,0.26413 0.19149,0.58468 0.22982,0.96406 0.0421,0.37944 0.0629,0.82769 0.0629,1.34257 0,0.5217 -0.0217,0.96759 -0.0629,1.34022 -0.039,0.36916 -0.11308,0.69194 -0.22499,0.96641 -0.10869,0.26748 -0.26258,0.46664 -0.46082,0.59874 -0.19817,0.13216 -0.44707,0.19842 -0.74755,0.19842 -0.31968,0 -0.57663,-0.0691 -0.77164,-0.20808 -0.1918,-0.13879 -0.34086,-0.34055 -0.44639,-0.60475 -0.115,-0.28109 -0.18981,-0.59873 -0.22493,-0.95439 -0.0353,-0.35566 -0.0533,-0.7984 -0.0533,-1.32684 0,-0.48101 0.0197,-0.92263 0.0581,-1.32573 0.0415,-0.4031 0.11631,-0.73028 0.22499,-0.9809 0.11507,-0.26754 0.26952,-0.46788 0.46447,-0.59998 0.19824,-0.13209 0.44825,-0.19836 0.74867,-0.19836 z m 12.54074,1.04265 c -0.33516,1.8e-4 -0.66264,0.0692 -0.9809,0.20802 -0.31869,0.13897 -0.62704,0.33194 -0.92535,0.57941 v -0.63019 h -0.95551 v 5.68012 h 0.95551 v -4.24076 c 0.26103,-0.20003 0.53414,-0.3647 0.81889,-0.49351 0.28476,-0.12881 0.55787,-0.19353 0.8189,-0.19353 0.25428,0 0.46119,0.0353 0.62047,0.10645 0.15935,0.0679 0.28061,0.17335 0.36526,0.31572 0.0814,0.12882 0.13761,0.30897 0.16814,0.53947 0.0303,0.22716 0.046,0.47067 0.046,0.73176 v 3.2344 h 0.95551 v -3.6868 c 0,-0.69503 -0.16052,-1.22713 -0.48262,-1.5966 -0.32185,-0.36929 -0.7901,-0.55371 -1.40308,-0.55396 z m 18.10475,0 c -0.82725,0 -1.49566,0.27187 -2.00423,0.81765 -0.50516,0.54585 -0.75721,1.28455 -0.75721,2.21349 0,0.9391 0.26463,1.66411 0.7935,2.17602 0.52888,0.50857 1.26498,0.76322 2.20742,0.76322 0.36948,0 0.72161,-0.0458 1.0572,-0.13785 0.3356,-0.0915 0.66488,-0.20549 0.98698,-0.34111 v -1.04265 h -0.0508 c -0.16609,0.14919 -0.44626,0.30247 -0.83945,0.45841 -0.38985,0.15253 -0.77827,0.22864 -1.16477,0.22864 -0.29151,0 -0.55911,-0.0409 -0.80317,-0.12219 -0.24078,-0.0814 -0.44905,-0.20375 -0.62536,-0.3665 -0.18307,-0.16609 -0.32792,-0.3774 -0.43302,-0.63502 -0.10509,-0.26104 -0.15724,-0.56647 -0.15724,-0.91563 h 4.18508 v -0.51891 c 0,-0.82384 -0.20833,-1.45869 -0.62536,-1.90626 -0.41363,-0.4475 -1.00332,-0.67131 -1.76958,-0.67131 z m 5.78175,0.0204 c -0.36272,0 -0.69089,0.0464 -0.9858,0.14151 -0.29156,0.0915 -0.53222,0.21682 -0.72216,0.37616 -0.19662,0.16275 -0.34433,0.34842 -0.44267,0.5552 -0.0949,0.20679 -0.14275,0.42645 -0.14275,0.66042 0,0.37294 0.10411,0.68829 0.31089,0.94591 0.21019,0.25429 0.56356,0.44713 1.06197,0.57935 0.17972,0.0471 0.3782,0.0923 0.59514,0.1331 0.22035,0.0403 0.39907,0.0759 0.53458,0.1064 0.36631,0.0813 0.61267,0.17989 0.74148,0.29514 0.12888,0.11532 0.19353,0.28426 0.19353,0.50802 0,0.29163 -0.11822,0.50547 -0.3556,0.64109 -0.23731,0.13556 -0.56659,0.2032 -0.98703,0.2032 -0.33901,0 -0.6925,-0.0661 -1.06197,-0.19837 -0.3696,-0.13557 -0.70575,-0.31597 -1.0076,-0.54312 h -0.0508 v 1.07287 c 0.23731,0.11866 0.53012,0.22852 0.87934,0.3302 0.35256,0.0983 0.73956,0.14758 1.16,0.14758 0.74241,0 1.32796,-0.16615 1.75509,-0.49835 0.43053,-0.33231 0.64586,-0.75726 0.64586,-1.27605 0,-0.41357 -0.12082,-0.74583 -0.36161,-0.99669 -0.24072,-0.24748 -0.58275,-0.42323 -1.02691,-0.52492 -0.14572,-0.0341 -0.32872,-0.0706 -0.54919,-0.11129 -0.21694,-0.0402 -0.41394,-0.0815 -0.59026,-0.12218 -0.31868,-0.0746 -0.5495,-0.17161 -0.69187,-0.29027 -0.14579,-0.11865 -0.21892,-0.29473 -0.21892,-0.52863 0,-0.26444 0.12101,-0.46286 0.36166,-0.59508 0.24073,-0.13556 0.53495,-0.20319 0.88417,-0.20319 0.33566,0 0.67894,0.0623 1.02816,0.18746 0.34916,0.12206 0.64487,0.27274 0.889,0.4524 h 0.0508 v -1.02209 c -0.2305,-0.11866 -0.51928,-0.21743 -0.8685,-0.29875 -0.34581,-0.0848 -0.68896,-0.12702 -1.02809,-0.12702 z m -17.77819,0.006 c -0.83742,0 -1.5117,0.26462 -2.02355,0.79344 -0.50869,0.52894 -0.76329,1.25798 -0.76329,2.18692 0,0.49835 0.0676,0.9334 0.20326,1.30628 0.13569,0.37294 0.32705,0.68234 0.57452,0.92653 0.24406,0.24406 0.53817,0.42589 0.88058,0.54795 0.34247,0.11866 0.71826,0.17774 1.12848,0.1778 0.32209,0 0.62598,-0.0421 0.9108,-0.12702 0.28815,-0.0847 0.59093,-0.203 0.90962,-0.3556 v -1.0523 h -0.0508 c -0.0713,0.0576 -0.16826,0.12794 -0.29032,0.20926 -0.12206,0.078 -0.25292,0.15129 -0.39189,0.22251 -0.15941,0.0814 -0.33832,0.14758 -0.53829,0.19842 -0.20004,0.0508 -0.39703,0.0762 -0.59025,0.0762 -0.55601,0 -0.98815,-0.18301 -1.29662,-0.54913 -0.30519,-0.36948 -0.45847,-0.89606 -0.45847,-1.58088 0,-0.70519 0.15619,-1.23872 0.46813,-1.6015 0.31528,-0.36613 0.74451,-0.55037 1.28696,-0.55037 0.2949,0 0.59632,0.0607 0.90479,0.18269 0.31194,0.12207 0.61428,0.29776 0.90596,0.52492 h 0.0508 v -1.06321 c -0.26104,-0.13222 -0.54957,-0.24344 -0.86485,-0.33504 -0.31194,-0.0915 -0.63013,-0.13785 -0.95557,-0.13785 z m -11.81865,0.13178 v 5.68012 h 0.95681 v -5.68012 z m 23.76431,0.6302 c 0.5085,0 0.8859,0.13785 1.13337,0.41245 0.251,0.2746 0.37895,0.66308 0.38223,1.16483 h -3.25496 c 0.0403,-0.4475 0.21236,-0.82205 0.51408,-1.12371 0.30513,-0.30178 0.71331,-0.45357 1.22528,-0.45357 z m -15.49206,13.06089 v 123.0185 h -93.17383 v 0.6193 h 93.79312 V 332.36212 Z" />
</svg>
