<?xml version="1.0" encoding="UTF-8" standalone="no"?>
<svg
   xmlns:dc="http://purl.org/dc/elements/1.1/"
   xmlns:cc="http://creativecommons.org/ns#"
   xmlns:rdf="http://www.w3.org/1999/02/22-rdf-syntax-ns#"
   xmlns:svg="http://www.w3.org/2000/svg"
   xmlns="http://www.w3.org/2000/svg"
   xmlns:sodipodi="http://sodipodi.sourceforge.net/DTD/sodipodi-0.dtd"
   xmlns:inkscape="http://www.inkscape.org/namespaces/inkscape"
   viewBox="0 0 512 512"
   width="512"
   height="512"
   version="1.1"
   id="svg125"
   sodipodi:docname="armadillo.svg"
   inkscape:version="1.0.2 (e86c870879, 2021-01-15, custom)">
  <sodipodi:namedview
     pagecolor="#ffffff"
     bordercolor="#666666"
     borderopacity="1"
     objecttolerance="10"
     gridtolerance="10"
     guidetolerance="10"
     inkscape:pageopacity="0"
     inkscape:pageshadow="2"
     inkscape:window-width="1366"
     inkscape:window-height="715"
     id="namedview7008"
     showgrid="false"
     inkscape:zoom="1"
     inkscape:cx="1282.5538"
     inkscape:cy="5207.9297"
     inkscape:window-x="-8"
     inkscape:window-y="-8"
     inkscape:window-maximized="1"
     inkscape:current-layer="svg125"
     inkscape:document-rotation="0" />
  <metadata
     id="metadata131">
    <rdf:RDF>
      <cc:Work
         rdf:about="">
        <dc:format>image/svg+xml</dc:format>
        <dc:type
           rdf:resource="http://purl.org/dc/dcmitype/StillImage" />
        <dc:title></dc:title>
      </cc:Work>
    </rdf:RDF>
  </metadata>
  <defs
     id="defs129" />
  <style
     id="style2">
		tspan { white-space:pre }
		.shp0 { fill: #e7d5b8 } 
		.shp1 { fill: #15120f } 
	</style>
  <g
     id="g16292"
     transform="matrix(2.0990931,0,0,2.0990931,-1945.7347,-10659.139)">
    <g
       aria-label="inches"
       id="text2538-7-9-6-4-9-4-2-5-7-8-6-57"
       style="font-style:normal;font-weight:normal;font-size:16.366px;line-height:1.25;font-family:sans-serif;fill:#333333;fill-opacity:1;stroke:none;stroke-width:0.409151">
      <path
         d="m 1095.9344,5209.7191 h -1.6941 v -1.5583 h 1.6941 z m -0.096,10.4205 h -1.5023 v -8.9261 h 1.5023 z"
         style="white-space:pre;fill:#333333;fill-opacity:1;stroke-width:0.409151"
         id="path3067" />
      <path
         d="m 1106.275,5220.1396 h -1.5023 v -5.0824 q 0,-0.6153 -0.072,-1.1507 -0.072,-0.5434 -0.2638,-0.8471 -0.1997,-0.3356 -0.5753,-0.4954 -0.3756,-0.1678 -0.975,-0.1678 -0.6153,0 -1.2865,0.3036 -0.6713,0.3037 -1.2866,0.7752 v 6.6646 h -1.5024 v -8.9261 h 1.5024 v 0.9909 q 0.7032,-0.5834 1.4544,-0.911 0.7512,-0.3277 1.5423,-0.3277 1.4464,0 2.2056,0.8711 0.7591,0.871 0.7591,2.5092 z"
         style="white-space:pre;fill:#333333;fill-opacity:1;stroke-width:0.409151"
         id="path3069" />
      <path
         d="m 1115.7686,5219.5803 q -0.7512,0.3596 -1.4304,0.5593 -0.6713,0.1998 -1.4305,0.1998 -0.9669,0 -1.774,-0.2797 -0.8071,-0.2876 -1.3825,-0.863 -0.5834,-0.5754 -0.903,-1.4544 -0.3197,-0.879 -0.3197,-2.0538 0,-2.1895 1.1987,-3.4362 1.2067,-1.2466 3.1805,-1.2466 0.7672,0 1.5024,0.2158 0.7432,0.2157 1.3585,0.5274 v 1.6701 h -0.08 q -0.6873,-0.5354 -1.4225,-0.8231 -0.7272,-0.2876 -1.4224,-0.2876 -1.2786,0 -2.0218,0.863 -0.7352,0.8551 -0.7352,2.5172 0,1.6143 0.7192,2.4853 0.7272,0.8631 2.0378,0.8631 0.4555,0 0.927,-0.1199 0.4715,-0.1199 0.847,-0.3117 0.3277,-0.1678 0.6154,-0.3516 0.2877,-0.1918 0.4555,-0.3276 h 0.08 z"
         style="white-space:pre;fill:#333333;fill-opacity:1;stroke-width:0.409151"
         id="path3071" />
      <path
         d="m 1125.1583,5220.1396 h -1.5024 v -5.0824 q 0,-0.6153 -0.072,-1.1507 -0.072,-0.5434 -0.2637,-0.8471 -0.1998,-0.3356 -0.5754,-0.4954 -0.3756,-0.1678 -0.9749,-0.1678 -0.6153,0 -1.2866,0.3036 -0.6713,0.3037 -1.2866,0.7752 v 6.6646 h -1.5023 v -12.4343 h 1.5023 v 4.4991 q 0.7032,-0.5834 1.4544,-0.911 0.7512,-0.3277 1.5423,-0.3277 1.4464,0 2.2056,0.8711 0.7592,0.871 0.7592,2.5092 z"
         style="white-space:pre;fill:#333333;fill-opacity:1;stroke-width:0.409151"
         id="path3073" />
      <path
         d="m 1135.5229,5215.8324 h -6.5768 q 0,0.8231 0.2477,1.4384 0.2477,0.6073 0.6793,0.9989 0.4155,0.3836 0.9829,0.5754 0.5754,0.1918 1.2626,0.1918 0.911,0 1.83,-0.3596 0.927,-0.3676 1.3185,-0.7193 h 0.08 v 1.6382 q -0.7591,0.3197 -1.5502,0.5355 -0.7912,0.2157 -1.6622,0.2157 -2.2216,0 -3.4682,-1.1987 -1.2466,-1.2066 -1.2466,-3.4202 0,-2.1896 1.1907,-3.4762 1.1986,-1.2866 3.1485,-1.2866 1.806,0 2.7809,1.0549 0.983,1.0548 0.983,2.9967 z m -1.4624,-1.1507 q -0.01,-1.1827 -0.5994,-1.83 -0.5833,-0.6473 -1.782,-0.6473 -1.2067,0 -1.9259,0.7112 -0.7112,0.7112 -0.8071,1.7661 z"
         style="white-space:pre;fill:#333333;fill-opacity:1;stroke-width:0.409151"
         id="path3075" />
      <path
         d="m 1144.1773,5217.5665 q 0,1.2226 -1.0148,2.0058 -1.0069,0.7831 -2.757,0.7831 -0.9909,0 -1.822,-0.2317 -0.8231,-0.2398 -1.3825,-0.5195 v -1.6861 h 0.08 q 0.7112,0.5354 1.5823,0.8551 0.871,0.3116 1.6701,0.3116 0.991,0 1.5503,-0.3196 0.5594,-0.3197 0.5594,-1.0069 0,-0.5275 -0.3036,-0.7992 -0.3037,-0.2717 -1.1668,-0.4634 -0.3196,-0.072 -0.839,-0.1679 -0.5115,-0.096 -0.935,-0.2077 -1.1747,-0.3117 -1.6702,-0.911 -0.4874,-0.6074 -0.4874,-1.4864 0,-0.5514 0.2237,-1.0389 0.2318,-0.4874 0.6953,-0.871 0.4475,-0.3756 1.1347,-0.5913 0.6952,-0.2238 1.5503,-0.2238 0.7991,0 1.6142,0.1998 0.8231,0.1918 1.3665,0.4715 v 1.6062 h -0.08 q -0.5754,-0.4235 -1.3985,-0.7112 -0.823,-0.2957 -1.6142,-0.2957 -0.8231,0 -1.3904,0.3197 -0.5674,0.3116 -0.5674,0.9349 0,0.5514 0.3436,0.8311 0.3356,0.2797 1.0868,0.4555 0.4155,0.096 0.927,0.1918 0.5194,0.096 0.863,0.1758 1.0469,0.2397 1.6143,0.8231 0.5673,0.5914 0.5673,1.5663 z"
         style="white-space:pre;fill:#333333;fill-opacity:1;stroke-width:0.409151"
         id="path3077" />
    </g>
    <text
       xml:space="preserve"
       style="font-style:normal;font-weight:normal;font-size:19.0998px;line-height:1.25;font-family:sans-serif;fill:#333333;fill-opacity:1;stroke:none;stroke-width:0.477494"
       x="1076.1135"
       y="5220.188"
       id="text3525-31-0"><tspan
         id="tspan3523-61-9"
         x="1076.1135"
         y="5220.188"
         style="fill:#333333;fill-opacity:1;stroke-width:0.477494">2</tspan></text>
    <path
       id="Path 1"
       style="fill:#333333;fill-opacity:1"
       d="m 973.76562,5140.9453 c -0.58,0 -2.15976,1.13 -3.50976,2.5 -1.62,1.66 -2.20117,3.0301 -1.70117,4.0801 0.46,0.98 1.7,1.45 3.25,1.25 2.11,-0.28 2.54,-0.9201 2.75,-4.0801 0.14,-2.1 -0.20906,-3.75 -0.78907,-3.75 z m 10.9629,1.1582 c -0.98725,-0.011 -1.89454,0.41 -2.11329,1.0313 -0.25,0.72 -0.3089,2.3205 -0.1289,3.5605 0.22,1.52 1.20836,2.4399 3.06836,2.8399 1.55,0.34 3.19,0.1007 3.75,-0.5293 0.68,-0.77 0.5007,-2.0116 -0.5293,-3.8516 -0.85,-1.49 -2.46914,-2.8495 -3.61914,-3.0195 -0.1425,-0.02 -0.2867,-0.03 -0.42773,-0.031 z m -13.85352,7.8418 c -1.36,0 -2.43031,1.28 -3.57031,4.25 -0.9,2.34 -1.63867,5.38 -1.63867,6.75 -0.01,1.38 0.30921,4.52 0.69921,7 0.43,2.78 0.27032,5.36 -0.42968,6.75 -0.78,1.55 -1.75086,2.1 -3.13086,1.75 -1.1,-0.27 -2.69906,0.06 -3.53907,0.75 -0.85,0.69 -1.52999,2.71 -1.5,4.5 0.03,2.3 0.76907,3.76 2.53907,5 1.64,1.15 2.92,3.4688 3.75,6.7988 0.69,2.77 2.12164,5.92 3.18164,7 1.46,1.48 3.64,2.0406 9,2.3106 l 7.06836,0.3613 c 9.89,-8.31 13.15086,-11.5107 13.63086,-12.4707 0.48,-0.96 0.63914,-2.65 0.36914,-3.75 -0.35,-1.4 -1.32,-1.9905 -3.25,-1.9805 -2.42,0.01 -2.84,-0.46 -3.5,-4 -0.41,-2.21 -0.44836,-9.5295 -0.0684,-16.2695 0.49,-8.94 0.35,-12.45 -0.5,-13 -0.65,-0.41 -2.08164,-0.53 -3.18164,-0.25 -1.1,0.28 -2.67,2.07 -3.5,4 -0.83,1.93 -1.5,5.07 -1.5,7 0,1.93 -0.45,3.5 -1,3.5 -0.55,0 -1.45,-0.9 -2,-2 -0.55,-1.1 -1,-3.57 -1,-5.5 0,-2.4 -0.79,-4.29 -2.5,-6 -1.37,-1.37 -3.36969,-2.5 -4.42969,-2.5 z m -15.14844,18.0293 c -0.32,-0.02 -0.96187,0.2706 -1.42187,0.6406 -0.46,0.36 -0.75992,1.71 -0.66992,3 0.09,1.28 0.95992,2.7195 1.91992,3.1895 0.96,0.48 2.31,0.71 3,0.5 0.69,-0.2 1.26125,-1.1494 1.28125,-2.1094 0.02,-0.96 -0.77,-2.5307 -1.75,-3.4707 -0.98,-0.95 -2.03938,-1.74 -2.35938,-1.75 z m 84.69334,8.6328 c -0.086,0.01 -0.1714,0.039 -0.2539,0.098 -0.58,0.41 -1.6208,1.8702 -2.3008,3.2402 -1.08,2.18 -0.9701,2.76 0.8399,4.5 1.67,1.61 2.3298,1.7502 3.3398,0.7402 0.95,-0.95 1.0107,-2.2202 0.2207,-5.2402 -0.56,-2.17 -1.2417,-3.3834 -1.8457,-3.3379 z m -39.9433,4.3379 c -0.19,0 -0.71191,0.2999 -1.17191,0.6699 -0.46,0.36 -0.76946,1.6 -0.68946,2.75 0.07,1.14 0.48016,2.4201 0.91016,2.8301 0.43,0.42 1.58051,-0.03 2.56051,-1 0.98,-0.96 1.8803,-2.2606 1.9903,-2.8906 0.11,-0.63 -0.581,-1.42 -1.541,-1.75 -0.95,-0.34 -1.8786,-0.6094 -2.0586,-0.6094 z m 38.2988,4.9805 c -0.28,0.01 -1.2599,0.5795 -2.1699,1.2695 -0.9,0.69 -2.2996,3.5 -3.0996,6.25 -0.8,2.75 -2.1801,6.69 -3.0801,8.75 -0.89,2.06 -2.2911,3.75 -3.1211,3.75 -0.83,0 -1.5,-0.89 -1.5,-2 0,-1.1 -0.45,-2.9 -1,-4 -0.55,-1.1 -1.9,-2 -3,-2 -1.1,0 -2.9,0.45 -4,1 -1.11,0.56 -2.2694,2.44 -2.6094,4.25 -0.47,2.51 0.2098,4.96 3.0098,10.75 2,4.13 3.6213,8.74 3.6113,10.25 -0.01,2.53 -0.2117,2.67 -2.5117,1.75 -1.37,-0.55 -2.95,-1 -3.5,-1 -0.55,0 -1.9,0.9 -3,2 -1.1,1.1 -2,3.13 -2,4.5 0,1.38 0.67,3.85 1.5,5.5 0.83,1.65 2.85,3.67 4.5,4.5 1.79,0.89 4.31,3.7899 6.25,7.1699 1.79,3.11 4.49,6.71 6,8 1.84,1.56 3.99,2.3208 6.5,2.3008 2.06,-0.02 5.1,-0.8819 6.75,-1.9219 1.65,-1.03 4.3915,-3.6087 6.1015,-5.7187 1.7001,-2.1 4.07,-5.7401 5.25,-8.0801 1.1801,-2.34 2.1485,-5.15 2.1485,-6.25 0,-1.33 -0.83,-2.17 -2.5,-2.5 -1.85,-0.37 -2.3482,-0.96 -1.9082,-2.25 0.33,-0.96 1.9098,-5.8 3.5097,-10.75 1.6101,-4.95 3.1495,-10.58 3.4395,-12.5 0.29,-1.92 0.091,-4.17 -0.4395,-5 -0.81,-1.25 -1.3912,-1.29 -3.5312,-0.25 -1.41,0.69 -4.1503,2.6 -6.0703,4.25 l -3.5,3 c -0.11,-8.91 -0.509,-13.98 -0.959,-17 -0.53,-3.58 -1.4597,-5.9395 -2.6797,-6.7695 -1.02,-0.69 -2.1006,-1.26 -2.3906,-1.25 z m -23.9707,1.0195 c -0.55,0 -1,2.02 -1,4.5 0,3.67 0.3308,4.5 1.8008,4.5 0.99,0 2.3495,-0.56 3.0195,-1.25 0.67,-0.69 1.2107,-1.7 1.2207,-2.25 0,-0.55 -0.9095,-2.01 -2.0195,-3.25 -1.11,-1.24 -2.4715,-2.25 -3.0215,-2.25 z m 46.1113,9 c -1.04,0 -2.39,0.67 -3,1.5 -0.82,1.1 -0.8105,2.1 0.02,3.75 l 1.1407,2.25 c 2.96,-3.87 3.7995,-5.56 3.7695,-6.25 -0.02,-0.69 -0.8897,-1.25 -1.9297,-1.25 z m -51.541,20.6797 c 0,0 0.4375,4.8125 -0.875,5.4375 -1.3125,0.625 0.625,2.6875 1.5625,2.6875 0.9375,0 2.5,-0.875 2.625,-1.9375 0.125,-1.0625 0.3125,-5.5 -3.3125,-6.1875 z m 50.7734,13.8496 c -0.8785,-0.022 -1.6816,0.4141 -1.875,1.1875 -0.221,0.8839 -0.087,3.0938 0.6641,3.0938 0.7513,0 1.1047,-1.3256 1.0605,-1.7676 -0.044,-0.4419 0.3561,-1.1216 0.6622,-1.2813 0.3657,-0.1908 0.162,-1.1048 -0.1329,-1.1933 -0.127,-0.022 -0.2534,-0.036 -0.3789,-0.039 z" />
    <path
       style="color:#000000;font-style:normal;font-variant:normal;font-weight:normal;font-stretch:normal;font-size:medium;line-height:normal;font-family:sans-serif;font-variant-ligatures:normal;font-variant-position:normal;font-variant-caps:normal;font-variant-numeric:normal;font-variant-alternates:normal;font-variant-east-asian:normal;font-feature-settings:normal;font-variation-settings:normal;text-indent:0;text-align:start;text-decoration:none;text-decoration-line:none;text-decoration-style:solid;text-decoration-color:#000000;letter-spacing:normal;word-spacing:normal;text-transform:none;writing-mode:lr-tb;direction:ltr;text-orientation:mixed;dominant-baseline:auto;baseline-shift:baseline;text-anchor:start;white-space:normal;shape-padding:0;shape-margin:0;inline-size:0;clip-rule:nonzero;display:inline;overflow:visible;visibility:visible;opacity:1;isolation:auto;mix-blend-mode:normal;color-interpolation:sRGB;color-interpolation-filters:linearRGB;solid-color:#000000;solid-opacity:1;vector-effect:none;fill:#333333;fill-opacity:1;fill-rule:nonzero;stroke:none;stroke-linecap:butt;stroke-linejoin:miter;stroke-miterlimit:4;stroke-dasharray:none;stroke-dashoffset:0;stroke-opacity:1;color-rendering:auto;image-rendering:auto;shape-rendering:auto;text-rendering:auto;enable-background:accumulate;stop-color:#000000;stop-opacity:1"
       d="m 1048.4961,5177.0137 v 1 h 57.4883 v 21.5801 h 1 v -22.5801 z"
       id="path16268" />
    <path
       style="color:#000000;font-style:normal;font-variant:normal;font-weight:normal;font-stretch:normal;font-size:medium;line-height:normal;font-family:sans-serif;font-variant-ligatures:normal;font-variant-position:normal;font-variant-caps:normal;font-variant-numeric:normal;font-variant-alternates:normal;font-variant-east-asian:normal;font-feature-settings:normal;font-variation-settings:normal;text-indent:0;text-align:start;text-decoration:none;text-decoration-line:none;text-decoration-style:solid;text-decoration-color:#000000;letter-spacing:normal;word-spacing:normal;text-transform:none;writing-mode:lr-tb;direction:ltr;text-orientation:mixed;dominant-baseline:auto;baseline-shift:baseline;text-anchor:start;white-space:normal;shape-padding:0;shape-margin:0;inline-size:0;clip-rule:nonzero;display:inline;overflow:visible;visibility:visible;opacity:1;isolation:auto;mix-blend-mode:normal;color-interpolation:sRGB;color-interpolation-filters:linearRGB;solid-color:#000000;solid-opacity:1;vector-effect:none;fill:#333333;fill-opacity:1;fill-rule:nonzero;stroke:none;stroke-linecap:butt;stroke-linejoin:miter;stroke-miterlimit:4;stroke-dasharray:none;stroke-dashoffset:0;stroke-opacity:1;color-rendering:auto;image-rendering:auto;shape-rendering:auto;text-rendering:auto;enable-background:accumulate;stop-color:#000000;stop-opacity:1"
       d="m 1105.9941,5234.4961 v 22.5312 h -53.5253 v 1 h 54.5253 v -23.5312 z"
       id="path16274" />
  </g>
</svg>
