<?xml version="1.0" encoding="UTF-8" standalone="no"?>
<svg
   xmlns:dc="http://purl.org/dc/elements/1.1/"
   xmlns:cc="http://creativecommons.org/ns#"
   xmlns:rdf="http://www.w3.org/1999/02/22-rdf-syntax-ns#"
   xmlns:svg="http://www.w3.org/2000/svg"
   xmlns="http://www.w3.org/2000/svg"
   xmlns:sodipodi="http://sodipodi.sourceforge.net/DTD/sodipodi-0.dtd"
   xmlns:inkscape="http://www.inkscape.org/namespaces/inkscape"
   viewBox="0 0 512 512"
   width="512"
   height="512"
   version="1.1"
   id="svg125"
   sodipodi:docname="bald-eagle.svg"
   inkscape:version="1.0.2 (e86c870879, 2021-01-15, custom)">
  <metadata
     id="metadata131">
    <rdf:RDF>
      <cc:Work
         rdf:about="">
        <dc:format>image/svg+xml</dc:format>
        <dc:type
           rdf:resource="http://purl.org/dc/dcmitype/StillImage" />
        <dc:title></dc:title>
      </cc:Work>
    </rdf:RDF>
  </metadata>
  <defs
     id="defs129" />
  <sodipodi:namedview
     pagecolor="#ffffff"
     bordercolor="#666666"
     borderopacity="1"
     objecttolerance="10"
     gridtolerance="10"
     guidetolerance="10"
     inkscape:pageopacity="0"
     inkscape:pageshadow="2"
     inkscape:window-width="1366"
     inkscape:window-height="715"
     id="namedview127"
     showgrid="false"
     inkscape:zoom="0.35355339"
     inkscape:cx="415.94258"
     inkscape:cy="262.28442"
     inkscape:window-x="-8"
     inkscape:window-y="-8"
     inkscape:window-maximized="1"
     inkscape:current-layer="svg125"
     inkscape:document-rotation="0" />
  <style
     id="style2">
		tspan { white-space:pre }
		.shp0 { fill: #e7d5b8 } 
		.shp1 { fill: #15120f } 
	</style>
  <path
     id="Path 23"
     style="opacity:1;fill:#333333;fill-opacity:1;stroke-width:1.70505"
     d="m 191.89402,65.066894 c -2.67302,-0.14698 -7.58281,11.51573 -7.58281,11.51573 l 10.56665,2.12466 c 0,0 0.0182,-11.49984 -2.48099,-13.44724 -0.15618,-0.12174 -0.32465,-0.18336 -0.50285,-0.19315 z m 35.79603,3.96956 v 1.70505 H 392.89326 V 227.93565 h 1.70504 V 69.036454 Z m -41.98682,50.545356 c -1.87556,-0.017 -5.89947,1.51829 -8.95151,3.3768 -3.05203,1.87555 -6.24075,4.75708 -7.09327,6.39393 -0.85253,1.63685 -2.53918,9.12201 -3.74978,16.62422 -1.21058,7.50221 -2.04578,18.61913 -1.85823,24.7232 0.20461,6.10408 0.35673,25.08127 0.33968,42.19996 0,24.22874 -0.56266,32.24246 -2.55757,36.23228 -1.39814,2.81333 -2.93268,5.11514 -3.4101,5.11514 -0.47741,0 -10.29902,-9.39482 -21.85925,-20.88684 -16.43667,-16.35142 -22.26793,-23.4271 -26.85451,-32.54911 -3.59766,-7.17825 -7.8086,-12.89137 -10.96294,-14.86923 -2.81333,-1.7562 -6.83724,-3.2228 -8.9515,-3.2569 -2.21656,-0.0341 -5.33614,1.9279 -7.4163,4.63893 -2.86448,3.76816 -3.46125,6.56496 -2.98383,14.18653 0.44331,7.093 1.78963,11.08282 5.28498,15.7717 2.57463,3.4442 7.75797,8.20075 11.50908,10.53667 3.75111,2.35297 8.30306,6.75199 10.11041,9.80403 1.80735,3.05204 5.08104,7.9791 7.24646,10.96293 2.18246,2.96679 8.16771,7.91088 13.334,10.96294 5.1663,3.052 11.18446,7.14468 13.38397,9.07138 2.19951,1.94376 5.45616,6.41151 7.24646,9.92391 2.26771,4.48428 3.24025,9.97454 3.24025,18.32928 0,9.03675 0.83428,13.28232 3.46006,17.47674 3.20549,5.14925 3.30779,6.30749 1.27878,16.24792 -1.90965,9.37777 -1.80655,12.1229 0.81923,22.16563 1.6539,6.30868 3.00008,16.83002 3.01713,23.39446 0.017,8.26949 1.05753,14.1519 3.39344,19.1818 1.85851,3.98981 4.91134,8.01372 6.7869,8.9515 1.87555,0.93778 4.94464,1.70505 6.82019,1.70505 1.87555,0 5.55979,-2.11426 8.18556,-4.68888 l 4.7888,-4.68889 3.2236,-100.15494 c 7.92848,-7.00775 15.22609,-12.46351 21.31311,-16.64088 6.08702,-4.17737 13.75974,-10.35097 17.05048,-13.72697 3.29075,-3.376 6.92211,-8.37099 8.11564,-11.11612 1.17649,-2.74512 4.62068,-6.34225 7.67272,-7.97909 3.17139,-1.7221 8.71386,-7.87733 13.02763,-14.49292 4.12622,-6.32573 9.24163,-13.41873 11.35589,-15.7717 2.13132,-2.33591 4.02179,-5.79716 4.20934,-7.67271 0.18756,-1.87556 0.25549,-4.75709 0.15312,-6.39394 -0.11936,-1.63684 -2.1128,-4.89348 -4.46576,-7.24645 -2.72808,-2.72808 -6.17375,-4.26262 -9.60089,-4.26262 -4.04097,0 -7.0585,1.7562 -12.37825,7.24645 -3.87047,3.98982 -15.27578,16.26617 -25.35262,27.28078 -10.05972,11.01461 -19.07982,20.03432 -20.01759,20.03432 -0.93778,0 -3.22335,-3.25664 -5.08185,-7.24646 -1.8585,-3.98981 -3.88524,-12.22519 -4.49906,-18.32927 -0.68202,-6.71789 -0.29013,-15.44774 1.00571,-22.16563 1.688,-8.7128 1.70305,-12.90722 0.0832,-19.60806 -1.68799,-7.0248 -1.56717,-10.91231 0.64939,-22.16563 1.48339,-7.50221 2.71036,-16.33436 2.72741,-19.60806 0.017,-3.27369 -1.27826,-7.87732 -2.86395,-10.23029 -1.60275,-2.33591 -3.7166,-4.82609 -4.70553,-5.5081 -0.98892,-0.69907 -3.34283,-1.26174 -5.21838,-1.27879 z m 117.97803,34.39069 c -3.52955,0.0215 -11.69557,5.97766 -11.69557,5.97766 l 7.93248,7.29642 c 0,0 7.4504,-12.31698 4.40581,-13.19415 -0.19028,-0.0549 -0.40742,-0.0813 -0.64272,-0.08 z M 57.63809,165.27511 c -0.81164,-0.0587 -1.38041,0.13726 -1.55185,0.706 -0.91443,3.03358 5.74455,12.40823 5.74455,12.40823 l 7.39631,-7.84256 c 0,0 -8.07187,-5.01714 -11.58901,-5.27167 z m 261.31202,74.29282 v 12.19511 c 0.62545,-0.1272 1.3659,-0.25244 2.22454,-0.37965 0.86929,-0.1272 1.77122,-0.19315 2.70411,-0.19315 0.97529,0 1.85303,0.0868 2.6375,0.25642 0.79507,0.15908 1.47016,0.4397 2.02141,0.84254 0.49825,0.33923 0.88328,0.7902 1.1589,1.35205 0.28623,0.56185 0.42959,1.24844 0.42959,2.06471 0,0.83747 -0.11919,1.57518 -0.36299,2.21123 -0.23322,0.63606 -0.58589,1.1826 -1.05232,1.63845 -0.55126,0.53004 -1.18128,0.90028 -1.89155,1.11227 -0.69967,0.21202 -1.42527,0.31971 -2.17793,0.31969 -1.12369,0 -2.2673,-0.19115 -3.4334,-0.57277 -1.16612,-0.39225 -2.18449,-0.86409 -3.05378,-1.41533 h -0.22312 v 3.35349 c 0.82688,0.38162 1.83922,0.70737 3.03712,0.97241 1.19791,0.27562 2.44315,0.41294 3.73646,0.41294 1.38871,0 2.60704,-0.1972 3.65653,-0.58945 1.06009,-0.40284 1.97414,-0.97629 2.7374,-1.71837 0.69965,-0.68906 1.24893,-1.53717 1.65177,-2.54425 0.40283,-1.00709 0.60609,-2.06117 0.60609,-3.16367 0,-1.38871 -0.23291,-2.54443 -0.69934,-3.4667 -0.46644,-0.92228 -1.12339,-1.6748 -1.97146,-2.25786 -0.80567,-0.55124 -1.69279,-0.93355 -2.65748,-1.14557 -0.9647,-0.22263 -2.08742,-0.33302 -3.37014,-0.33303 -0.34983,0 -0.76511,0.0119 -1.24215,0.0332 -0.47704,0.0211 -0.94284,0.0508 -1.39867,0.0933 v -6.29736 h 11.17939 v -2.78069 z m 35.13333,0.88917 c -1.96118,0 -3.67825,0.33724 -5.15179,1.01569 -1.47352,0.66787 -2.67703,1.60278 -3.60991,2.80068 -0.98588,1.26152 -1.70544,2.70395 -2.16127,4.3259 -0.44524,1.62194 -0.66937,3.48239 -0.66937,5.58137 0,2.04598 0.245,3.7927 0.73264,5.24502 0.49824,1.45233 1.20298,2.62013 2.11466,3.50001 0.73146,0.71027 1.57352,1.24472 2.52759,1.60515 0.9541,0.36043 2.01421,0.54282 3.18033,0.54282 2.3004,0 4.2416,-0.75856 5.82114,-2.27452 1.59014,-1.52653 2.3844,-3.49465 2.3844,-5.90106 0,-1.40992 -0.23894,-2.60737 -0.716,-3.59325 -0.46643,-0.98589 -1.16511,-1.80102 -2.09799,-2.44768 -0.80569,-0.56185 -1.59722,-0.93539 -2.37109,-1.11561 -0.76327,-0.19082 -1.64706,-0.28306 -2.65415,-0.28306 -1.1343,0 -2.13787,0.13998 -3.00714,0.42626 -0.85868,0.27562 -1.73037,0.68485 -2.62085,1.22551 0.22261,-2.42762 1.01084,-4.35067 2.36775,-5.7712 1.35693,-1.43113 3.17562,-2.14795 5.45483,-2.14797 0.62544,0 1.23459,0.0747 1.82827,0.22312 0.60425,0.13777 1.05522,0.28723 1.35203,0.44625 h 0.15977 v -3.03712 c -0.43464,-0.13777 -0.86474,-0.23339 -1.28878,-0.2864 -0.42403,-0.053 -0.94971,-0.08 -1.57516,-0.08 z m 56.75946,1.54187 v 21.2032 h 2.56424 V 251.8363 c 0.69943,-0.53593 1.42821,-0.97691 2.19124,-1.32208 0.76303,-0.34517 1.49516,-0.51618 2.19459,-0.51618 0.68127,0 1.23483,0.0956 1.66175,0.28639 0.42693,0.18168 0.75532,0.46436 0.9824,0.84588 0.21804,0.34517 0.36785,0.82425 0.44957,1.44196 0.0817,0.6086 0.12328,1.26204 0.12328,1.96147 v 8.66843 h 2.56089 v -9.88062 c 0,-1.86213 -0.43248,-3.28583 -1.29542,-4.27594 -0.86295,-0.9901 -2.11564,-1.48525 -3.75977,-1.48526 -0.89928,0 -1.77697,0.18372 -2.63084,0.55615 -0.85385,0.37242 -1.6783,0.89208 -2.47764,1.55519 v -7.67272 z m -39.98873,0.77592 v 2.65749 h 2.88727 v -2.65749 z m 15.46534,4.78546 c -0.89928,0 -1.77698,0.18372 -2.63084,0.55615 -0.85385,0.37242 -1.68162,0.89208 -2.48098,1.55519 v -1.69173 h -2.5609 v 15.22221 h 2.5609 V 251.8363 c 0.69944,-0.53593 1.43156,-0.97691 2.19458,-1.32208 0.76303,-0.34517 1.49514,-0.51618 2.19459,-0.51618 0.68127,0 1.23481,0.0956 1.66176,0.28639 0.42692,0.18168 0.7553,0.46436 0.98239,0.84588 0.21803,0.34517 0.36785,0.82425 0.44957,1.44196 0.0817,0.6086 0.11987,1.26204 0.11987,1.96147 v 8.66843 h 2.56424 v -9.88062 c 0,-1.86213 -0.43249,-3.28583 -1.29545,-4.27594 -0.86292,-0.9901 -2.11562,-1.48525 -3.75975,-1.48526 z m 48.50396,0 c -2.21639,0 -4.00571,0.72879 -5.36824,2.19126 -1.35346,1.46245 -2.02807,3.43881 -2.02807,5.9277 0,2.51617 0.70761,4.45952 2.12464,5.83115 1.41705,1.36254 3.38914,2.04471 5.9144,2.04471 0.99011,0 1.93469,-0.12106 2.83396,-0.36631 0.89928,-0.24526 1.78123,-0.55246 2.64418,-0.9158 v -2.79069 h -0.13658 c -0.4451,0.39968 -1.19418,0.80766 -2.24787,1.2255 -1.04461,0.40877 -2.08484,0.61276 -3.12037,0.61276 -0.78119,0 -1.5006,-0.10844 -2.15462,-0.32636 -0.64495,-0.21799 -1.20274,-0.54638 -1.67507,-0.9824 -0.49051,-0.4451 -0.87732,-1.01136 -1.15891,-1.70172 -0.28159,-0.69945 -0.42293,-1.51872 -0.42293,-2.45433 h 11.21603 v -1.38868 c 0,-2.20732 -0.56114,-3.90945 -1.67842,-5.1085 -1.1082,-1.19902 -2.68927,-1.79828 -4.74217,-1.79829 z m 15.49197,0.0534 c -0.97195,0 -1.85056,0.12857 -2.64083,0.38296 -0.78119,0.24525 -1.42614,0.57878 -1.93482,1.00572 -0.52686,0.43602 -0.92213,0.93116 -1.18556,1.48525 -0.25432,0.55411 -0.38297,1.14489 -0.38297,1.77165 0,0.99919 0.27845,1.84392 0.83254,2.53426 0.5632,0.68127 1.51202,1.20094 2.84731,1.5552 0.48142,0.12719 1.01379,0.24399 1.59514,0.35299 0.59045,0.10913 1.06532,0.20468 1.42865,0.2864 0.98105,0.21801 1.64627,0.48041 1.99144,0.78925 0.34519,0.30885 0.51619,0.76253 0.51619,1.36204 0,0.78119 -0.31658,1.35502 -0.95244,1.71837 -0.63585,0.36334 -1.51778,0.54616 -2.64416,0.54616 -0.90834,0 -1.85717,-0.17857 -2.84729,-0.53283 -0.99011,-0.36334 -1.88901,-0.85002 -2.69744,-1.45862 h -0.13657 v 2.87393 c 0.63586,0.31792 1.42216,0.61331 2.35776,0.88584 0.94469,0.26342 1.97736,0.39629 3.10373,0.39629 1.9893,0 3.55765,-0.44521 4.7022,-1.33541 1.15362,-0.89017 1.73168,-2.03029 1.73168,-3.42009 0,-1.1082 -0.32413,-1.99861 -0.96908,-2.67079 -0.64492,-0.66309 -1.56077,-1.12949 -2.75072,-1.40201 -0.39059,-0.0909 -0.88149,-0.19071 -1.47194,-0.29971 -0.58135,-0.10895 -1.10949,-0.21736 -1.58182,-0.32635 -0.85387,-0.19986 -1.47008,-0.46133 -1.85158,-0.77927 -0.39059,-0.31793 -0.58611,-0.78855 -0.58611,-1.41531 0,-0.70854 0.3208,-1.2409 0.96576,-1.59516 0.64491,-0.36335 1.43546,-0.54615 2.37107,-0.54615 0.89928,0 1.81845,0.17017 2.75406,0.50618 0.93561,0.32701 1.73039,0.73077 2.38439,1.21219 h 0.13658 v -2.7374 c -0.61769,-0.31793 -1.39552,-0.58791 -2.33113,-0.80591 -0.92652,-0.22708 -1.84568,-0.33967 -2.75404,-0.33967 z m -47.63147,0.0136 c -2.24364,0 -4.05323,0.7076 -5.42485,2.12465 -1.36254,1.41703 -2.04473,3.37219 -2.04473,5.8611 0,1.33528 0.18282,2.50081 0.54616,3.50002 0.36333,0.9992 0.87542,1.82695 1.53853,2.48097 0.65403,0.65402 1.44033,1.14492 2.35776,1.47195 0.91746,0.31791 1.92802,0.4762 3.02713,0.4762 0.86296,0 1.67466,-0.11253 2.43769,-0.33968 0.7721,-0.22707 1.58384,-0.54699 2.43769,-0.95574 v -2.82067 h -0.13657 c -0.19075,0.15448 -0.44893,0.34146 -0.77594,0.55946 -0.32701,0.20892 -0.67658,0.40869 -1.04899,0.59945 -0.42695,0.21801 -0.90938,0.39656 -1.44531,0.53283 -0.53593,0.13623 -1.06072,0.20314 -1.5785,0.20314 -1.48971,0 -2.64676,-0.49092 -3.47337,-1.47194 -0.81752,-0.99012 -1.22883,-2.4011 -1.22883,-4.23599 0,-1.8894 0.41977,-3.32065 1.25548,-4.29259 0.84477,-0.98104 1.99336,-1.47194 3.44672,-1.47194 0.79028,0 1.59775,0.16249 2.42436,0.48954 0.8357,0.32701 1.64319,0.79673 2.42438,1.40533 h 0.13657 v -2.84729 c -0.69944,-0.35428 -1.4697,-0.6539 -2.31447,-0.89916 -0.83569,-0.24525 -1.68888,-0.36964 -2.56091,-0.36964 z m -31.66661,0.353 v 15.22221 h 2.5609 v -15.22221 z m 63.67291,1.69173 c 1.36254,0 2.37402,0.3665 3.03712,1.10228 0.67218,0.73577 1.01326,1.776 1.02236,3.12038 h -8.72173 c 0.10895,-1.19904 0.56693,-2.20205 1.37536,-3.01049 0.81754,-0.80843 1.91526,-1.21217 3.28689,-1.21217 z m -84.02692,2.39439 c 0.64665,0 1.26791,0.0505 1.86155,0.15652 0.59367,0.10605 1.13417,0.33013 1.62181,0.66937 0.66785,0.47704 1.14574,1.03841 1.43197,1.68506 0.29683,0.64666 0.44624,1.46179 0.44624,2.44768 0,1.75975 -0.4422,3.11267 -1.32207,4.05614 -0.87989,0.93289 -2.0861,1.39867 -3.62323,1.39867 -0.66787,0 -1.28912,-0.10435 -1.86157,-0.31635 -0.56185,-0.22263 -1.08753,-0.56925 -1.57518,-1.03568 -0.60425,-0.56187 -1.08214,-1.32315 -1.43197,-2.28784 -0.33923,-0.97528 -0.50619,-2.30128 -0.50619,-3.97622 0,-0.32863 0.003,-0.60055 0.0136,-0.81256 0.0102,-0.22263 0.0288,-0.44947 0.05,-0.68268 0.81627,-0.44526 1.61054,-0.77372 2.38441,-0.98574 0.77387,-0.21203 1.60987,-0.31637 2.51095,-0.31637 z m -15.9249,0.71265 v 2.8806 h 5.78451 v -2.8806 z m 58.11818,31.25661 v 161.1937 H 211.06582 v 1.70505 H 394.56168 V 284.03573 Z m -211.02306,148.79546 -10.77644,0.06 c 0,0 2.9382,14.09333 5.76453,12.66131 2.82634,-1.43202 5.01191,-12.72126 5.01191,-12.72126 z"
     sodipodi:nodetypes="cccsccccccccscsscccsccccccccscsccscccccsscccssccccscssccssccccsccsssccsssssccscccscccscccscccccsccsssccsscccccscccsccsscscccscccsccccsssccccsscccsccssssccccccccssccccccsscccsccssssscscssccccscccccscssscccsccccsssscccccscscccccscscccccsscssccsccccccsscscscccccscccccsccccscsccscscccsccsccccccccccccccccscc" />
</svg>
