<?xml version="1.0" encoding="UTF-8" standalone="no"?>
<svg
   xmlns:dc="http://purl.org/dc/elements/1.1/"
   xmlns:cc="http://creativecommons.org/ns#"
   xmlns:rdf="http://www.w3.org/1999/02/22-rdf-syntax-ns#"
   xmlns:svg="http://www.w3.org/2000/svg"
   xmlns="http://www.w3.org/2000/svg"
   xmlns:sodipodi="http://sodipodi.sourceforge.net/DTD/sodipodi-0.dtd"
   xmlns:inkscape="http://www.inkscape.org/namespaces/inkscape"
   viewBox="0 0 512 512"
   width="512"
   height="512"
   version="1.1"
   id="svg125"
   sodipodi:docname="black-bear.svg"
   inkscape:version="1.0.2 (e86c870879, 2021-01-15, custom)">
  <sodipodi:namedview
     pagecolor="#ffffff"
     bordercolor="#666666"
     borderopacity="1"
     objecttolerance="10"
     gridtolerance="10"
     guidetolerance="10"
     inkscape:pageopacity="0"
     inkscape:pageshadow="2"
     inkscape:window-width="1366"
     inkscape:window-height="715"
     id="namedview3602"
     showgrid="false"
     inkscape:zoom="0.13378906"
     inkscape:cx="1423.0491"
     inkscape:cy="3156.4503"
     inkscape:window-x="-8"
     inkscape:window-y="-8"
     inkscape:window-maximized="1"
     inkscape:current-layer="svg125" />
  <metadata
     id="metadata131">
    <rdf:RDF>
      <cc:Work
         rdf:about="">
        <dc:format>image/svg+xml</dc:format>
        <dc:type
           rdf:resource="http://purl.org/dc/dcmitype/StillImage" />
        <dc:title></dc:title>
      </cc:Work>
    </rdf:RDF>
  </metadata>
  <defs
     id="defs129" />
  <style
     id="style2">
		tspan { white-space:pre }
		.shp0 { fill: #e7d5b8 } 
		.shp1 { fill: #15120f } 
	</style>
  <g
     id="g5713"
     transform="matrix(0.90347158,0,0,0.90347158,3.1304345,-3003.7605)">
    <path
       id="Path 81"
       fill-rule="evenodd"
       class="shp1"
       d="m 124.83,3436.99 c 1.47,0 3.77,0.79 5.11,1.75 1.34,0.97 3.03,3.22 3.75,5.01 0.72,1.79 1.32,5.16 1.33,7.5 0.01,2.69 -1.01,6.25 -2.75,9.7 -1.53,3 -3.89,6.28 -5.27,7.29 -1.37,1.01 -3.93,1.93 -5.68,2.05 -2.22,0.15 -3.94,-0.54 -5.75,-2.29 -1.42,-1.37 -2.97,-4.3 -3.45,-6.5 -0.49,-2.26 -0.48,-6.07 0.01,-8.75 0.48,-2.61 1.48,-5.99 2.24,-7.5 0.75,-1.51 2.81,-3.99 4.58,-5.5 1.77,-1.51 4.42,-2.75 5.88,-2.76 z m 38.92,2.09 c 0.69,-0.04 2.15,0.37 3.25,0.92 1.1,0.55 2.73,2.46 3.62,4.25 0.88,1.79 1.64,5.5 1.67,8.25 0.04,3.34 -0.75,6.66 -2.37,10 -1.62,3.35 -3.57,5.63 -5.92,6.9 -2.33,1.27 -4.42,1.68 -6.25,1.25 -1.51,-0.36 -3.54,-1.88 -4.5,-3.37 -0.96,-1.5 -1.99,-4.54 -2.29,-6.75 -0.3,-2.22 -0.16,-5.83 0.3,-8.03 0.46,-2.2 2,-5.67 3.4,-7.7 1.41,-2.04 3.75,-4.14 5.2,-4.67 1.45,-0.54 3.2,-1.01 3.89,-1.05 z m -77.25,4.94 c 2.28,-0.02 5.05,0.72 6.44,1.72 1.34,0.97 3.03,3.22 3.75,5.01 0.72,1.79 1.3,6.06 1.29,9.5 -0.02,3.86 -0.72,7.78 -1.84,10.25 -1,2.2 -3.46,5.46 -5.48,7.25 -2.83,2.51 -4.57,3.25 -7.66,3.25 -2.75,0 -4.86,-0.73 -6.75,-2.34 -1.62,-1.38 -3.33,-4.37 -4.15,-7.25 -0.91,-3.16 -1.17,-6.69 -0.74,-9.91 0.36,-2.75 1.72,-6.8 3.01,-9 1.29,-2.2 3.64,-5 5.24,-6.22 1.84,-1.41 4.34,-2.23 6.89,-2.26 z m 105.54,9.98 c 1.08,0 2.7,0.34 3.6,0.75 0.9,0.41 2.25,1.99 3,3.5 0.75,1.51 1.37,5.56 1.39,9 0.02,4.59 -0.57,7.42 -2.25,10.67 -1.25,2.44 -3.4,5.26 -4.78,6.29 -1.37,1.02 -3.62,1.86 -5,1.85 -1.37,0 -3.51,-1.03 -4.74,-2.28 -1.43,-1.46 -2.47,-4.08 -2.88,-7.28 -0.41,-3.27 -0.1,-6.9 0.91,-10.5 1.1,-3.91 2.59,-6.44 5.16,-8.75 1.99,-1.79 4.51,-3.25 5.59,-3.25 z m -59.79,25.09 c 5.36,-0.05 12.79,0.56 16.5,1.36 3.71,0.8 9.22,2.31 12.25,3.35 3.03,1.05 8.43,3.37 12,5.15 3.57,1.78 9.83,5.55 13.9,8.39 4.07,2.84 9.47,7.42 12,10.19 2.53,2.77 5.36,6.59 6.29,8.5 0.93,1.91 1.99,5.27 2.37,7.47 0.37,2.2 0.4,6.14 0.06,8.75 -0.44,3.38 -1.56,5.8 -3.87,8.41 -1.79,2.01 -4.71,4.26 -6.5,5 -1.79,0.74 -6.74,1.61 -11,1.94 -4.98,0.39 -14.98,-0.15 -28,-1.5 -11.14,-1.15 -23.51,-2.09 -27.5,-2.08 -5.12,0.02 -8.57,0.62 -11.75,2.06 -2.47,1.13 -8.33,4.66 -13,7.85 -4.67,3.2 -10.97,7.07 -14,8.62 -3.92,2.01 -6.94,2.81 -10.5,2.78 -2.75,-0.02 -6.35,-0.75 -8,-1.62 -1.65,-0.87 -4.32,-2.85 -5.94,-4.39 -1.62,-1.55 -4.32,-5.75 -6,-9.32 -2.96,-6.29 -3.06,-6.95 -3.04,-20.5 0.01,-11.99 0.31,-14.65 2.07,-18.5 1.13,-2.47 3.6,-6.27 5.48,-8.43 1.89,-2.16 6.13,-5.66 9.43,-7.78 3.3,-2.12 9.15,-5.17 13,-6.77 3.85,-1.59 9.92,-3.66 13.5,-4.59 3.58,-0.93 9.65,-2.27 13.5,-2.97 3.85,-0.7 11.39,-1.32 16.75,-1.37 z m 85.25,-0.01 c 0.55,-0.03 2.07,0.28 3.38,0.68 1.32,0.41 3,1.98 3.75,3.49 0.76,1.51 1.37,4.44 1.36,6.5 0,2.06 -0.45,5.44 -1,7.5 -0.54,2.06 -2.23,5.11 -3.74,6.77 -1.51,1.66 -4.1,3.42 -5.75,3.91 -1.99,0.59 -3.84,0.49 -5.5,-0.3 -1.55,-0.73 -3.07,-2.79 -4,-5.4 -1.27,-3.58 -1.3,-4.93 -0.2,-8.97 0.72,-2.62 2.43,-6.39 3.8,-8.38 1.37,-1.99 3.48,-4.09 4.7,-4.68 1.21,-0.59 2.65,-1.09 3.2,-1.12 z m 106.25,63.91 c 2.06,0 4.85,0.79 6.19,1.75 1.35,0.97 3.25,3.56 4.23,5.76 1.07,2.4 1.79,6.4 1.79,10 0,3.7 -0.71,7.53 -1.84,10 -1.01,2.2 -2.69,4.8 -3.73,5.78 -1.04,0.99 -3.46,1.87 -5.39,1.98 -1.93,0.11 -4.62,-0.51 -6,-1.36 -1.37,-0.86 -3.4,-3.32 -4.5,-5.48 -1.45,-2.84 -1.99,-5.84 -1.96,-10.92 0.02,-4.62 0.61,-8.1 1.75,-10.25 0.94,-1.79 2.61,-4.15 3.71,-5.25 1.28,-1.28 3.34,-2 5.75,-2.01 z m -36.1,6.01 c 2.26,0 4.41,0.93 6.6,2.85 2.15,1.89 3.89,4.85 5.14,8.75 1.44,4.47 1.74,7.35 1.24,11.9 -0.42,3.91 -1.61,7.55 -3.39,10.45 -1.76,2.86 -4,4.97 -6.24,5.88 -3.18,1.3 -3.87,1.25 -7.5,-0.55 -2.88,-1.43 -4.7,-3.34 -6.5,-6.85 -2.05,-4 -2.48,-6.23 -2.42,-12.4 0.07,-5.62 0.64,-8.61 2.25,-11.78 1.2,-2.34 3.36,-5.15 4.82,-6.25 1.46,-1.1 4.16,-2 6,-2 z m 68.6,9.02 c 0.96,-0.01 3.1,0.66 4.75,1.48 2.14,1.07 3.48,2.86 4.67,6.25 1.09,3.1 1.47,6.31 1.11,9.25 -0.31,2.47 -1.51,6.41 -2.67,8.75 -1.16,2.34 -3.35,5.17 -4.86,6.28 -1.51,1.12 -4.21,2.02 -6,2 -1.88,-0.02 -4.09,-0.87 -5.25,-2.03 -1.1,-1.1 -2.49,-3.24 -3.09,-4.75 -0.59,-1.51 -1.11,-5.22 -1.15,-8.25 -0.04,-3.55 0.67,-7.09 2,-10 1.15,-2.5 3.55,-5.49 5.4,-6.73 1.84,-1.23 4.13,-2.24 5.09,-2.25 z M 253.83,3567 c 2.02,0.01 5.02,0.82 6.67,1.81 1.65,1 3.88,3.58 4.96,5.75 1.25,2.5 2.11,6.69 2.37,11.44 0.33,6.26 0.01,8.39 -1.97,12.91 -1.3,2.97 -3.48,6.25 -4.86,7.28 -1.56,1.17 -4.1,1.87 -6.75,1.84 -3.41,-0.02 -4.92,-0.67 -7.63,-3.28 -2.3,-2.21 -3.94,-5.17 -5.12,-9.25 -1.24,-4.27 -1.53,-7.44 -1.03,-11 0.39,-2.75 1.45,-6.76 2.37,-8.92 0.91,-2.15 2.94,-4.96 4.49,-6.25 1.84,-1.5 4.13,-2.33 6.5,-2.33 z m 130.82,16 c 2.24,0 4.18,0.83 5.85,2.5 1.38,1.38 2.89,4.35 3.38,6.61 0.48,2.26 0.66,5.98 0.4,8.25 -0.27,2.28 -1.33,6.05 -2.38,8.39 -1.09,2.44 -3.28,5.1 -5.15,6.25 -1.79,1.09 -4.04,1.99 -5,2 -0.96,0 -2.76,-0.46 -4,-1.02 -1.24,-0.56 -3.13,-2.48 -4.21,-4.25 -1.43,-2.37 -1.93,-4.97 -1.89,-9.73 0.04,-4.57 0.69,-7.76 2.2,-10.75 1.18,-2.34 3.34,-5.15 4.8,-6.25 1.46,-1.1 4.16,-2 6,-2 z m -68.65,9.08 c 4.68,-0.03 10.75,0.54 13.5,1.26 2.75,0.73 7.7,2.55 11,4.06 3.3,1.51 8.93,4.92 12.5,7.57 3.57,2.65 8.56,7.01 11.09,9.68 2.52,2.67 6.46,7.78 8.76,11.35 2.29,3.57 4.61,8.64 5.16,11.25 0.54,2.61 0.99,8.24 0.98,12.5 0,4.26 -0.68,12.25 -1.51,17.75 -0.83,5.5 -2.83,14.95 -4.44,21 -1.62,6.05 -5,16.85 -7.51,24 -2.52,7.15 -7.68,19.3 -11.48,27 -3.79,7.7 -9.98,18.72 -13.75,24.5 -3.76,5.78 -10.66,14.47 -15.32,19.33 -5.93,6.18 -10.28,9.73 -14.48,11.82 -4.47,2.23 -7.4,2.99 -11.5,2.99 -4.12,0 -7.07,-0.77 -11.75,-3.07 -3.44,-1.69 -7.36,-4.53 -8.72,-6.32 -1.36,-1.79 -3.45,-5.72 -4.65,-8.75 -2.03,-5.11 -2.24,-7.89 -2.93,-39 -0.42,-18.99 -1.27,-36.1 -1.95,-39.5 -0.67,-3.3 -2.06,-8.14 -3.1,-10.75 -1.05,-2.61 -4.06,-8.24 -6.7,-12.5 -2.64,-4.26 -5.98,-10.45 -7.42,-13.75 -1.45,-3.3 -3.15,-8.93 -3.78,-12.5 -0.86,-4.89 -0.86,-8.11 0,-13 0.66,-3.71 2.73,-9.47 4.82,-13.41 2.22,-4.17 5.66,-8.67 8.68,-11.35 2.75,-2.43 8.82,-6.58 13.5,-9.21 4.68,-2.63 11.43,-5.94 15,-7.35 3.57,-1.41 8.98,-3.24 12,-4.06 3.02,-0.82 9.32,-1.51 14,-1.54 z"
       style="fill:#333333;fill-opacity:1"
       sodipodi:nodetypes="ccsccccccccscsscccccccsccsccscccssccsccsssccccccccssscsssscscscccccccscscccscssssccccsccccscscccsccsccccscscccccccccssscccsccsccccscccccccccccccsscccccscccssscssccccsccccccsssccccscccccssss" />
    <g
       aria-label="inches"
       id="text2538-7-9-6-4-9-4-2-5-7-8-6-7"
       style="font-style:normal;font-weight:normal;font-size:16.366px;line-height:1.25;font-family:sans-serif;fill:#333333;fill-opacity:1;stroke:none;stroke-width:0.409151">
      <path
         d="m 453.01197,3653.6742 h -1.69414 v -1.5583 h 1.69414 z m -0.0959,10.4205 h -1.50235 v -8.9262 h 1.50235 z"
         style="white-space:pre;fill:#333333;fill-opacity:1;stroke-width:0.409151"
         id="path3132" />
      <path
         d="m 463.3526,3664.0947 h -1.50235 v -5.0824 q 0,-0.6153 -0.0719,-1.1507 -0.0719,-0.5434 -0.26371,-0.8471 -0.19978,-0.3356 -0.57537,-0.4954 -0.37559,-0.1679 -0.97493,-0.1679 -0.61532,0 -1.28658,0.3037 -0.67126,0.3037 -1.28659,0.7752 v 6.6646 h -1.50234 v -8.9262 h 1.50234 v 0.991 q 0.70323,-0.5834 1.4544,-0.911 0.75118,-0.3277 1.54231,-0.3277 1.44641,0 2.20557,0.8711 0.75917,0.871 0.75917,2.5092 z"
         style="white-space:pre;fill:#333333;fill-opacity:1;stroke-width:0.409151"
         id="path3134" />
      <path
         d="m 472.84616,3663.5353 q -0.75118,0.3596 -1.43043,0.5594 -0.67126,0.1998 -1.43043,0.1998 -0.96693,0 -1.77405,-0.2797 -0.80711,-0.2877 -1.38248,-0.863 -0.58335,-0.5754 -0.903,-1.4544 -0.31965,-0.8791 -0.31965,-2.0538 0,-2.1896 1.19868,-3.4362 1.20667,-1.2466 3.1805,-1.2466 0.76716,0 1.50235,0.2157 0.74318,0.2158 1.35851,0.5275 v 1.6701 h -0.0799 q -0.68724,-0.5354 -1.42243,-0.8231 -0.7272,-0.2877 -1.42244,-0.2877 -1.27859,0 -2.02177,0.8631 -0.73519,0.8551 -0.73519,2.5172 0,1.6142 0.7192,2.4853 0.7272,0.863 2.03776,0.863 0.4555,0 0.92698,-0.1198 0.47148,-0.1199 0.84707,-0.3117 0.32764,-0.1678 0.61532,-0.3516 0.28769,-0.1918 0.4555,-0.3276 h 0.0799 z"
         style="white-space:pre;fill:#333333;fill-opacity:1;stroke-width:0.409151"
         id="path3136" />
      <path
         d="m 482.23583,3664.0947 h -1.50235 v -5.0824 q 0,-0.6153 -0.0719,-1.1507 -0.0719,-0.5434 -0.26371,-0.8471 -0.19978,-0.3356 -0.57537,-0.4954 -0.37558,-0.1679 -0.97493,-0.1679 -0.61532,0 -1.28658,0.3037 -0.67126,0.3037 -1.28659,0.7752 v 6.6646 h -1.50234 v -12.4343 h 1.50234 v 4.4991 q 0.70323,-0.5834 1.4544,-0.911 0.75118,-0.3277 1.54231,-0.3277 1.44641,0 2.20557,0.8711 0.75917,0.871 0.75917,2.5092 z"
         style="white-space:pre;fill:#333333;fill-opacity:1;stroke-width:0.409151"
         id="path3138" />
      <path
         d="m 492.60043,3659.7875 h -6.57677 q 0,0.8231 0.24773,1.4384 0.24773,0.6073 0.67925,0.9989 0.41555,0.3836 0.98292,0.5754 0.57537,0.1917 1.26261,0.1917 0.911,0 1.82999,-0.3596 0.92698,-0.3676 1.31855,-0.7192 h 0.0799 v 1.6382 q -0.75916,0.3197 -1.55029,0.5354 -0.79113,0.2158 -1.66218,0.2158 -2.22155,0 -3.46818,-1.1987 -1.24663,-1.2067 -1.24663,-3.4202 0,-2.1896 1.19069,-3.4762 1.19868,-1.2866 3.14854,-1.2866 1.80601,0 2.78094,1.0549 0.98292,1.0548 0.98292,2.9967 z m -1.46239,-1.1508 q -0.008,-1.1827 -0.59934,-1.83 -0.58336,-0.6472 -1.78204,-0.6472 -1.20668,0 -1.92589,0.7112 -0.71121,0.7112 -0.80711,1.766 z"
         style="white-space:pre;fill:#333333;fill-opacity:1;stroke-width:0.409151"
         id="path3140" />
      <path
         d="m 501.25491,3661.5216 q 0,1.2226 -1.01488,2.0058 -1.00689,0.7831 -2.75697,0.7831 -0.99091,0 -1.822,-0.2318 -0.82309,-0.2397 -1.38248,-0.5194 v -1.6861 h 0.0799 q 0.71121,0.5354 1.58226,0.855 0.87104,0.3117 1.67016,0.3117 0.99091,0 1.55029,-0.3197 0.55939,-0.3196 0.55939,-1.0069 0,-0.5274 -0.30367,-0.7991 -0.30366,-0.2717 -1.16671,-0.4635 -0.31965,-0.072 -0.83908,-0.1678 -0.51144,-0.096 -0.93497,-0.2078 -1.17471,-0.3116 -1.67017,-0.911 -0.48746,-0.6073 -0.48746,-1.4863 0,-0.5514 0.22375,-1.0389 0.23175,-0.4874 0.69524,-0.871 0.44751,-0.3756 1.13475,-0.5914 0.69524,-0.2237 1.5503,-0.2237 0.79912,0 1.61422,0.1998 0.8231,0.1918 1.3665,0.4714 v 1.6063 h -0.0799 q -0.57537,-0.4236 -1.39847,-0.7112 -0.82309,-0.2957 -1.61422,-0.2957 -0.8231,0 -1.39047,0.3196 -0.56738,0.3117 -0.56738,0.935 0,0.5514 0.34363,0.8311 0.33563,0.2797 1.0868,0.4555 0.41554,0.096 0.92698,0.1918 0.51943,0.096 0.86305,0.1758 1.04685,0.2397 1.61423,0.8231 0.56737,0.5913 0.56737,1.5663 z"
         style="white-space:pre;fill:#333333;fill-opacity:1;stroke-width:0.409151"
         id="path3142" />
    </g>
    <g
       aria-label="7"
       id="text3525-146"
       style="font-style:normal;font-weight:normal;font-size:19.0998px;line-height:1.25;font-family:sans-serif;fill:#333333;fill-opacity:1;stroke:none;stroke-width:0.477494">
      <path
         d="m 444.37009,3653.3865 -6.28578,11.8069 h -1.99578 l 6.6868,-12.2545 h -7.90851 v -1.6321 h 9.50327 z"
         style="white-space:pre;fill:#333333;fill-opacity:1;stroke-width:0.477494"
         id="path5696" />
    </g>
    <path
       id="path5663"
       style="fill:#333333;fill-opacity:1;stroke:none;stroke-width:1px;stroke-linecap:butt;stroke-linejoin:miter;stroke-opacity:1"
       d="m 172.51367,3417.9375 c 0,0 -7.18424,10.4043 -5.03711,13.625 2.14713,3.2207 4.29297,-3.0137 4.29297,-3.0137 0,0 -0.53588,-4.8306 0.74414,-10.6113 z m -78.041014,3.0547 c 0,0 -3.714672,4.6661 -4.912109,8.7539 -1.197436,4.0878 -2.271853,6.4825 -0.166016,6.1934 2.105836,-0.289 5.078623,-2.1473 4.417969,-3.2207 -0.660655,-1.0737 -1.444736,-1.8573 -1.238281,-2.7657 0.206454,-0.9084 1.361655,-4.584 1.898437,-8.9609 z m 37.988284,0.248 c 0,0 -7.43179,7.1432 -5.94532,9.7032 1.48647,2.5601 3.75702,1.5289 4.16993,0.7031 0.41291,-0.8258 -1.28014,-6.0708 1.77539,-10.4063 z m 68.04687,16.2696 c 0,0 -7.05989,9.042 -5.98633,10.9414 1.07357,1.8994 5.65658,2.0227 6.19336,0.9492 0.53678,-1.0736 -0.20703,-11.8906 -0.20703,-11.8906 z m 26.09766,23.5761 c -0.86711,3.8814 -6.73047,10.5293 -6.73047,10.5293 0,0 4.33412,3.7162 5.7793,3.2207 1.44518,-0.4955 0.95117,-13.75 0.95117,-13.75 z m 94.73828,56.7539 c 0,0 -2.56928,12.6705 -1.69336,14.5391 0.87591,1.8686 4.61332,4.0307 5.19727,2.1621 0.58394,-1.8687 -1.46012,-15.1245 -3.50391,-16.7012 z m -34.91992,10.2774 c 0,0 -3.38684,13.8398 -2.27735,15.5332 1.10949,1.6935 6.36528,1.1666 6.94922,-0.3516 0.58394,-1.5183 -4.67187,-15.1816 -4.67187,-15.1816 z m 72.05859,9.9844 c -0.11679,7.4744 -2.56936,9.3439 -2.86133,11.0957 -0.29197,1.7518 1.28458,3.4448 3.97071,2.7441 2.68613,-0.7007 -1.10938,-13.8398 -1.10938,-13.8398 z m -109.02344,5.08 c 0,0 -3.56177,16.001 -1.63476,17.4024 1.92701,1.4015 6.54081,-1.6351 6.48242,-3.4453 -0.0584,-1.8102 -5.13963,-8.76 -4.84766,-13.9571 z m 136.87696,18.4532 c -0.58395,8.1167 -2.39517,9.8105 -3.1543,11.5039 -1.16238,2.5929 1.28632,5.6633 3.91406,4.3203 2.62774,-1.3431 -0.75976,-15.8242 -0.75976,-15.8242 z" />
    <path
       style="color:#000000;font-style:normal;font-variant:normal;font-weight:normal;font-stretch:normal;font-size:medium;line-height:normal;font-family:sans-serif;font-variant-ligatures:normal;font-variant-position:normal;font-variant-caps:normal;font-variant-numeric:normal;font-variant-alternates:normal;font-variant-east-asian:normal;font-feature-settings:normal;font-variation-settings:normal;text-indent:0;text-align:start;text-decoration:none;text-decoration-line:none;text-decoration-style:solid;text-decoration-color:#000000;letter-spacing:normal;word-spacing:normal;text-transform:none;writing-mode:lr-tb;direction:ltr;text-orientation:mixed;dominant-baseline:auto;baseline-shift:baseline;text-anchor:start;white-space:normal;shape-padding:0;shape-margin:0;inline-size:0;clip-rule:nonzero;display:inline;overflow:visible;visibility:visible;opacity:1;isolation:auto;mix-blend-mode:normal;color-interpolation:sRGB;color-interpolation-filters:linearRGB;solid-color:#000000;solid-opacity:1;vector-effect:none;fill:#333333;fill-opacity:1;fill-rule:nonzero;stroke:none;stroke-linecap:butt;stroke-linejoin:miter;stroke-miterlimit:4;stroke-dasharray:none;stroke-dashoffset:0;stroke-opacity:1;color-rendering:auto;image-rendering:auto;shape-rendering:auto;text-rendering:auto;enable-background:accumulate;stop-color:#000000;stop-opacity:1"
       d="m 349.51758,3517.0176 v 1 h 117.45703 v 126.1328 h 1 v -127.1328 z"
       id="path5683" />
    <path
       style="color:#000000;font-style:normal;font-variant:normal;font-weight:normal;font-stretch:normal;font-size:medium;line-height:normal;font-family:sans-serif;font-variant-ligatures:normal;font-variant-position:normal;font-variant-caps:normal;font-variant-numeric:normal;font-variant-alternates:normal;font-variant-east-asian:normal;font-feature-settings:normal;font-variation-settings:normal;text-indent:0;text-align:start;text-decoration:none;text-decoration-line:none;text-decoration-style:solid;text-decoration-color:#000000;letter-spacing:normal;word-spacing:normal;text-transform:none;writing-mode:lr-tb;direction:ltr;text-orientation:mixed;dominant-baseline:auto;baseline-shift:baseline;text-anchor:start;white-space:normal;shape-padding:0;shape-margin:0;inline-size:0;clip-rule:nonzero;display:inline;overflow:visible;visibility:visible;opacity:1;isolation:auto;mix-blend-mode:normal;color-interpolation:sRGB;color-interpolation-filters:linearRGB;solid-color:#000000;solid-opacity:1;vector-effect:none;fill:#333333;fill-opacity:1;fill-rule:nonzero;stroke:none;stroke-linecap:butt;stroke-linejoin:miter;stroke-miterlimit:4;stroke-dasharray:none;stroke-dashoffset:0;stroke-opacity:1;color-rendering:auto;image-rendering:auto;shape-rendering:auto;text-rendering:auto;enable-background:accumulate;stop-color:#000000;stop-opacity:1"
       d="m 466.97461,3677.8691 v 119.1153 H 393.5625 v 1 h 74.41211 v -120.1153 z"
       id="path5689" />
  </g>
</svg>
