<?xml version="1.0" encoding="UTF-8" standalone="no"?>
<svg
   xmlns:dc="http://purl.org/dc/elements/1.1/"
   xmlns:cc="http://creativecommons.org/ns#"
   xmlns:rdf="http://www.w3.org/1999/02/22-rdf-syntax-ns#"
   xmlns:svg="http://www.w3.org/2000/svg"
   xmlns="http://www.w3.org/2000/svg"
   xmlns:sodipodi="http://sodipodi.sourceforge.net/DTD/sodipodi-0.dtd"
   xmlns:inkscape="http://www.inkscape.org/namespaces/inkscape"
   version="1.1"
   id="svg10"
   width="512"
   height="512"
   viewBox="0 0 512 512"
   sodipodi:docname="blue-heron.svg"
   inkscape:version="1.0.2 (e86c870879, 2021-01-15, custom)">
  <metadata
     id="metadata16">
    <rdf:RDF>
      <cc:Work
         rdf:about="">
        <dc:format>image/svg+xml</dc:format>
        <dc:type
           rdf:resource="http://purl.org/dc/dcmitype/StillImage" />
        <dc:title></dc:title>
      </cc:Work>
    </rdf:RDF>
  </metadata>
  <defs
     id="defs14" />
  <sodipodi:namedview
     pagecolor="#ffffff"
     bordercolor="#666666"
     borderopacity="1"
     objecttolerance="10"
     gridtolerance="10"
     guidetolerance="10"
     inkscape:pageopacity="0"
     inkscape:pageshadow="2"
     inkscape:window-width="1366"
     inkscape:window-height="715"
     id="namedview12"
     showgrid="false"
     inkscape:zoom="0.78542805"
     inkscape:cx="244.67561"
     inkscape:cy="262.16713"
     inkscape:window-x="-8"
     inkscape:window-y="-8"
     inkscape:window-maximized="1"
     inkscape:current-layer="g18" />
  <g
     inkscape:groupmode="layer"
     inkscape:label="Image"
     id="g18">
    <path
       id="path22"
       style="fill:#333333;fill-opacity:1;stroke:none;stroke-width:1.65977px;stroke-linecap:butt;stroke-linejoin:miter;stroke-opacity:1"
       d="M 175.60938 55.998047 L 175.60938 57.658203 L 372.89648 57.658203 L 372.89648 227.4707 L 374.55469 227.4707 L 374.55469 55.998047 L 175.60938 55.998047 z M 141.11523 63.324219 C 140.90001 63.323542 140.67686 63.334074 140.44922 63.357422 C 140.44922 63.357422 141.95984 64.458524 142.59961 65.597656 C 143.23939 66.736789 141.75788 70.64274 143.8125 70.175781 C 145.86711 69.708821 146.89505 71.387677 146.52148 68.585938 C 146.17127 65.959306 144.34359 63.33437 141.11523 63.324219 z M 147.57617 75.496094 C 147.41933 75.48258 147.26307 75.48327 147.10547 75.498047 C 146.94281 75.512987 146.77867 75.545157 146.61523 75.591797 C 141.38532 77.086054 142.13281 87.171875 142.13281 87.171875 C 142.13281 87.171875 166.41158 211.57027 166.78516 224.27148 C 167.15871 236.97268 166.78516 248.55078 166.78516 248.55078 L 149.22852 226.88672 C 149.22852 226.88672 101.04031 135.36311 91.701172 136.85742 C 82.362051 138.35167 90.951172 158.89844 90.951172 158.89844 L 118.22461 204.09766 L 146.98828 248.17773 C 146.98828 248.17773 169.40132 281.05409 170.14844 325.13477 C 170.89557 369.21546 169.77539 412.17578 169.77539 412.17578 C 169.77539 412.17578 166.78611 443.17915 173.13672 437.94922 C 173.13672 437.94922 181.72976 439.07166 181.54297 419.08594 C 181.3562 399.10021 183.53516 335.77344 183.53516 335.77344 C 183.53516 335.77344 181.42374 279.24511 205.19727 252.83008 C 228.97081 226.41504 252.74414 202.11328 252.74414 202.11328 L 258.55273 195.77344 C 258.55273 195.77344 286.55217 161.96245 284.70312 150.33984 C 282.85408 138.71722 248.25391 183.35742 248.25391 183.35742 L 217.875 220.07617 C 217.875 220.07617 203.61151 239.62299 195.95117 237.50977 C 188.2908 235.39657 180.89451 217.69727 180.89453 217.69727 C 180.89453 217.69727 164.17119 108.46661 160.43555 98.753906 C 156.92973 89.63878 152.43838 75.915034 147.57617 75.496094 z M 81.830078 127.73242 C 81.5561 127.72942 81.32159 127.75007 81.146484 127.79688 C 79.745616 128.17045 87.313018 132.09498 86.939453 135.45703 C 86.939453 135.45703 89.644502 134.61352 88.617188 131.625 C 87.718306 129.01004 83.747891 127.75539 81.830078 127.73242 z M 292.49805 140.96094 C 292.49805 140.96094 286.61939 142.74432 287.01562 144.52734 C 287.41186 146.31035 289.78959 148.159 290.58203 146.9043 C 291.37449 145.64958 293.15844 143.5364 292.49805 140.96094 z M 387.92578 239.97852 L 387.92578 260.2168 L 390.37109 260.2168 L 390.37109 249.36914 C 391.03874 248.85757 391.7365 248.43691 392.46484 248.10742 C 393.19318 247.77793 393.89095 247.61328 394.55859 247.61328 C 395.2089 247.61328 395.737 247.70463 396.14453 247.88672 C 396.55206 248.06013 396.86526 248.32918 397.08203 248.69336 C 397.29013 249.02284 397.43173 249.48265 397.50977 250.07227 C 397.58781 250.65321 397.62695 251.27766 397.62695 251.94531 L 397.62695 260.2168 L 400.07227 260.2168 L 400.07227 250.78711 C 400.07227 249.0096 399.66161 247.64824 398.83789 246.70312 C 398.01417 245.75802 396.81746 245.28516 395.24805 245.28516 C 394.38965 245.28516 393.55333 245.46286 392.73828 245.81836 C 391.92323 246.17386 391.13412 246.66977 390.37109 247.30273 L 390.37109 239.97852 L 387.92578 239.97852 z M 332.44141 240.48633 C 330.83731 240.48633 329.4318 240.76343 328.22656 241.31836 C 327.02134 241.86461 326.03842 242.62762 325.27539 243.60742 C 324.469 244.63924 323.8787 245.81986 323.50586 247.14648 C 323.14169 248.47311 322.95898 249.99412 322.95898 251.71094 C 322.95898 253.38439 323.15975 254.81601 323.55859 256.00391 C 323.96612 257.1918 324.54142 258.14556 325.28711 258.86523 C 325.8854 259.44617 326.5751 259.88293 327.35547 260.17773 C 328.13584 260.47253 329.00325 260.62109 329.95703 260.62109 C 331.83858 260.62109 333.42485 259.99968 334.7168 258.75977 C 336.0174 257.51117 336.66797 255.90381 336.66797 253.93555 C 336.66797 252.78233 336.47221 251.80247 336.08203 250.99609 C 335.70052 250.18971 335.12826 249.5211 334.36523 248.99219 C 333.70626 248.53264 333.0607 248.22944 332.42773 248.08203 C 331.80344 247.92596 331.07959 247.84766 330.25586 247.84766 C 329.32809 247.84766 328.50788 247.96511 327.79688 248.19922 C 327.09455 248.42465 326.38068 248.75896 325.65234 249.20117 C 325.83442 247.21557 326.47998 245.64235 327.58984 244.48047 C 328.6997 243.30992 330.18657 242.72461 332.05078 242.72461 C 332.56235 242.72461 333.06132 242.78486 333.54688 242.90625 C 334.04111 243.01897 334.40956 243.13947 334.65234 243.26953 L 334.78125 243.26953 L 334.78125 240.78516 C 334.42575 240.67248 334.07535 240.59418 333.72852 240.55078 C 333.38168 240.50745 332.95297 240.48633 332.44141 240.48633 z M 349.75195 240.7207 L 349.75195 243.25781 L 352.50977 243.25781 L 352.50977 240.7207 L 349.75195 240.7207 z M 364.51367 245.28516 C 363.65527 245.28516 362.81896 245.46286 362.00391 245.81836 C 361.18885 246.17386 360.39974 246.66977 359.63672 247.30273 L 359.63672 245.68945 L 357.19141 245.68945 L 357.19141 260.2168 L 359.63672 260.2168 L 359.63672 249.36914 C 360.30437 248.85757 361.00213 248.43691 361.73047 248.10742 C 362.45882 247.77793 363.15657 247.61328 363.82422 247.61328 C 364.47453 247.61328 365.00458 247.70463 365.41211 247.88672 C 365.81964 248.06013 366.13089 248.32918 366.34766 248.69336 C 366.55576 249.02284 366.69931 249.48265 366.77734 250.07227 C 366.85538 250.65321 366.89453 251.27766 366.89453 251.94531 L 366.89453 260.2168 L 369.33984 260.2168 L 369.33984 250.78711 C 369.33984 249.0096 368.92724 247.64824 368.10352 246.70312 C 367.2798 245.75802 366.08308 245.28516 364.51367 245.28516 z M 410.81641 245.28516 C 408.70074 245.28516 406.99202 245.98487 405.69141 247.38086 C 404.39947 248.77685 403.75391 250.66132 403.75391 253.03711 C 403.75391 255.43891 404.43056 257.29423 405.7832 258.60352 C 407.13584 259.90413 409.01726 260.55469 411.42773 260.55469 C 412.37285 260.55469 413.27441 260.43724 414.13281 260.20312 C 414.99122 259.96901 415.83253 259.67886 416.65625 259.33203 L 416.65625 256.66602 L 416.52539 256.66602 C 416.10052 257.04753 415.38472 257.43708 414.37891 257.83594 C 413.38177 258.22612 412.38886 258.42188 411.40039 258.42188 C 410.65471 258.42188 409.97 258.31747 409.3457 258.10938 C 408.73008 257.90127 408.19697 257.59002 407.74609 257.17383 C 407.27787 256.74896 406.90942 256.20585 406.64062 255.54688 C 406.37183 254.87923 406.23828 254.10012 406.23828 253.20703 L 416.94141 253.20703 L 416.94141 251.88086 C 416.94141 249.77387 416.4083 248.1465 415.3418 247.00195 C 414.28396 245.85742 412.77599 245.28516 410.81641 245.28516 z M 425.60352 245.33789 C 424.67574 245.33789 423.83443 245.46034 423.08008 245.70312 C 422.33439 245.93724 421.71993 246.25654 421.23438 246.66406 C 420.73147 247.08026 420.35302 247.55311 420.10156 248.08203 C 419.85878 248.61094 419.73828 249.17516 419.73828 249.77344 C 419.73828 250.72722 420.00234 251.53243 420.53125 252.19141 C 421.06884 252.84171 421.9754 253.33762 423.25 253.67578 C 423.70955 253.79717 424.21655 253.90963 424.77148 254.01367 C 425.33508 254.11772 425.78989 254.20907 426.13672 254.28711 C 427.07316 254.4952 427.70566 254.7462 428.03516 255.04102 C 428.36464 255.33582 428.53125 255.76952 428.53125 256.3418 C 428.53125 257.08748 428.22609 257.63364 427.61914 257.98047 C 427.01219 258.3273 426.17088 258.5 425.0957 258.5 C 424.22863 258.5 423.32402 258.33035 422.37891 257.99219 C 421.43379 257.64535 420.57443 257.1825 419.80273 256.60156 L 419.67383 256.60156 L 419.67383 259.3457 C 420.28078 259.64918 421.03074 259.93129 421.92383 260.19141 C 422.82559 260.44286 423.8135 260.56836 424.88867 260.56836 C 426.78757 260.56836 428.28249 260.1427 429.375 259.29297 C 430.47619 258.44324 431.02734 257.35592 431.02734 256.0293 C 431.02734 254.97146 430.71914 254.1221 430.10352 253.48047 C 429.4879 252.8475 428.61244 252.40075 427.47656 252.14062 C 427.10372 252.05391 426.63587 251.95756 426.07227 251.85352 C 425.51734 251.74947 425.01338 251.64506 424.5625 251.54102 C 423.74745 251.35026 423.1591 251.10425 422.79492 250.80078 C 422.42208 250.4973 422.23438 250.04555 422.23438 249.44727 C 422.23438 248.77095 422.54258 248.26394 423.1582 247.92578 C 423.77382 247.57895 424.52879 247.40625 425.42188 247.40625 C 426.28028 247.40625 427.15574 247.5659 428.04883 247.88672 C 428.94192 248.19887 429.69993 248.58537 430.32422 249.04492 L 430.45508 249.04492 L 430.45508 246.42969 C 429.86546 246.12621 429.12356 245.87216 428.23047 245.66406 C 427.34606 245.4473 426.47059 245.33789 425.60352 245.33789 z M 380.13477 245.35156 C 377.99309 245.35156 376.26826 246.02822 374.95898 247.38086 C 373.65837 248.7335 373.00781 250.59687 373.00781 252.97266 C 373.00781 254.24726 373.18051 255.36067 373.52734 256.31445 C 373.87417 257.26823 374.36313 258.05735 374.99609 258.68164 C 375.62039 259.30594 376.3723 259.77575 377.24805 260.08789 C 378.12379 260.39137 379.08561 260.54297 380.13477 260.54297 C 380.95849 260.54297 381.73454 260.43357 382.46289 260.2168 C 383.1999 260.00003 383.97596 259.69682 384.79102 259.30664 L 384.79102 256.61523 L 384.66016 256.61523 C 384.47807 256.76263 384.23207 256.94034 383.91992 257.14844 C 383.60777 257.34786 383.27347 257.53862 382.91797 257.7207 C 382.51044 257.9288 382.05063 258.0965 381.53906 258.22656 C 381.02748 258.35662 380.52548 258.42188 380.03125 258.42188 C 378.60925 258.42188 377.50193 257.95402 376.71289 257.01758 C 375.93252 256.07246 375.54297 254.72415 375.54297 252.97266 C 375.54297 251.16914 375.94253 249.80277 376.74023 248.875 C 377.54661 247.93856 378.64393 247.4707 380.03125 247.4707 C 380.7856 247.4707 381.55666 247.62731 382.3457 247.93945 C 383.14342 248.25161 383.91447 248.69836 384.66016 249.2793 L 384.79102 249.2793 L 384.79102 246.56055 C 384.12336 246.22239 383.38645 245.93724 382.58008 245.70312 C 381.78236 245.46901 380.96716 245.35156 380.13477 245.35156 z M 349.9082 245.68945 L 349.9082 260.2168 L 352.35352 260.2168 L 352.35352 245.68945 L 349.9082 245.68945 z M 410.68555 247.30273 C 411.98616 247.30273 412.95298 247.65314 413.58594 248.35547 C 414.22758 249.0578 414.55383 250.05071 414.5625 251.33398 L 406.23828 251.33398 C 406.34233 250.18944 406.77908 249.23068 407.55078 248.45898 C 408.33115 247.68728 409.37626 247.30273 410.68555 247.30273 z M 329.64453 249.98047 C 330.17344 249.98047 330.68045 250.02462 331.16602 250.11133 C 331.65158 250.19803 332.09333 250.38074 332.49219 250.6582 C 333.03844 251.04838 333.42995 251.50819 333.66406 252.03711 C 333.90684 252.56602 334.02734 253.23268 334.02734 254.03906 C 334.02734 255.47841 333.66693 256.58377 332.94727 257.35547 C 332.22759 258.1185 331.23968 258.5 329.98242 258.5 C 329.43616 258.5 328.92916 258.41365 328.46094 258.24023 C 328.00139 258.05815 327.57269 257.77605 327.17383 257.39453 C 326.67959 256.93498 326.29004 256.31052 326.00391 255.52148 C 325.72645 254.72378 325.58594 253.63951 325.58594 252.26953 C 325.58594 252.00074 325.59094 251.78084 325.59961 251.60742 C 325.60828 251.42534 325.62134 251.23764 325.63867 251.04688 C 326.30633 250.6827 326.95688 250.4156 327.58984 250.24219 C 328.2228 250.06877 328.90751 249.98047 329.64453 249.98047 z M 373.42383 281.88672 L 373.42383 453.8125 L 191.98633 454.33984 L 191.99023 456 L 375.08398 455.46875 L 375.08398 281.88672 L 373.42383 281.88672 z M 175.32227 443.36133 C 174.69022 443.24232 174.1582 444.80078 174.1582 444.80078 C 174.03969 444.85158 174.52911 448.46257 174.29102 451.14062 C 173.98464 454.58621 176.047 452.73984 176.07422 452.72656 C 176.07422 452.72656 177.13153 448.23511 176.20703 444.86719 C 175.9181 443.81472 175.60957 443.41542 175.32227 443.36133 z " />
  </g>
</svg>
