<?xml version="1.0" encoding="UTF-8" standalone="no"?>
<svg
   xmlns:dc="http://purl.org/dc/elements/1.1/"
   xmlns:cc="http://creativecommons.org/ns#"
   xmlns:rdf="http://www.w3.org/1999/02/22-rdf-syntax-ns#"
   xmlns:svg="http://www.w3.org/2000/svg"
   xmlns="http://www.w3.org/2000/svg"
   xmlns:sodipodi="http://sodipodi.sourceforge.net/DTD/sodipodi-0.dtd"
   xmlns:inkscape="http://www.inkscape.org/namespaces/inkscape"
   viewBox="0 0 512 512"
   width="512"
   height="512"
   version="1.1"
   id="svg125"
   sodipodi:docname="bobcat.svg"
   inkscape:version="1.0.2 (e86c870879, 2021-01-15, custom)">
  <sodipodi:namedview
     pagecolor="#ffffff"
     bordercolor="#666666"
     borderopacity="1"
     objecttolerance="10"
     gridtolerance="10"
     guidetolerance="10"
     inkscape:pageopacity="0"
     inkscape:pageshadow="2"
     inkscape:window-width="1366"
     inkscape:window-height="715"
     id="namedview1969"
     showgrid="false"
     inkscape:zoom="0.094603154"
     inkscape:cx="-1407.2608"
     inkscape:cy="2392.9271"
     inkscape:window-x="-8"
     inkscape:window-y="-8"
     inkscape:window-maximized="1"
     inkscape:current-layer="svg125" />
  <metadata
     id="metadata131">
    <rdf:RDF>
      <cc:Work
         rdf:about="">
        <dc:format>image/svg+xml</dc:format>
        <dc:type
           rdf:resource="http://purl.org/dc/dcmitype/StillImage" />
        <dc:title></dc:title>
      </cc:Work>
    </rdf:RDF>
  </metadata>
  <defs
     id="defs129" />
  <style
     id="style2">
		tspan { white-space:pre }
		.shp0 { fill: #e7d5b8 } 
		.shp1 { fill: #15120f } 
	</style>
  <g
     id="g2772"
     style="font-style:normal;font-weight:normal;font-size:19.0998px;line-height:1.25;font-family:sans-serif;fill:#333333;fill-opacity:1;stroke:none;stroke-width:0.477494"
     transform="matrix(2.196281,0,0,2.196281,-868.65576,-4084.8894)">
    <path
       id="Path 45"
       fill-rule="evenodd"
       class="shp1"
       d="m 477.67,1934.99 c 2.11,0 4.93,0.79 6.27,1.75 1.34,0.97 3.03,3.22 3.75,5.01 0.72,1.79 1.3,4.71 1.29,6.5 -0.01,1.79 -0.91,5.16 -2,7.5 -1.45,3.1 -2.99,4.68 -5.73,5.84 -2.29,0.97 -5.02,1.36 -7,1 -1.82,-0.33 -3.88,-1.58 -4.67,-2.84 -0.79,-1.24 -1.54,-4.05 -1.68,-6.25 -0.14,-2.2 -0.14,-5.95 0,-8.33 0.19,-3.19 1,-5.09 3.1,-7.25 2.16,-2.22 3.77,-2.92 6.67,-2.93 z m -23.92,1.1 c 1.24,-0.05 3.38,1.04 4.75,2.41 1.38,1.38 2.78,4.19 3.13,6.25 0.34,2.06 0.46,6.83 0.25,10.58 -0.33,5.87 -0.74,7.12 -2.88,8.8 -1.37,1.07 -3.74,1.94 -5.25,1.91 -1.51,-0.02 -4.32,-0.71 -6.25,-1.54 -2.41,-1.03 -4.01,-2.67 -5.12,-5.25 -1.11,-2.58 -1.48,-5.63 -1.19,-9.75 0.24,-3.49 1.18,-7.14 2.23,-8.72 1,-1.5 3.22,-3.15 4.95,-3.66 1.72,-0.52 4.14,-0.98 5.38,-1.03 z"
       style="fill:#333333;fill-opacity:1" />
    <path
       id="Path 47"
       style="fill:#333333;fill-opacity:1"
       d="m 515.15234,1934.916 v 1 h 51.23828 v 25.6602 h 1 V 1934.916 Z M 431.25,1960.0605 c -0.96,0.04 -2.72039,0.4688 -3.90039,0.9688 -1.19,0.49 -3.1,2.3814 -4.25,4.1914 -1.41,2.2 -2.08984,4.9193 -2.08984,8.2793 0,2.75 0.45,6.69 1,8.75 0.54,2.06 2.00023,4.4298 3.24023,5.2598 1.24,0.83 3.6,1.5097 5.25,1.5097 1.65,0 4.09945,-0.7997 5.43945,-1.7597 1.35,-0.97 3.25047,-3.5598 4.23047,-5.7598 0.98,-2.2 1.79078,-6.03 1.80078,-8.5 0.02,-2.77 -0.7407,-5.75 -1.9707,-7.75 -1.1,-1.79 -3.12,-3.7 -4.5,-4.25 -1.37,-0.55 -3.29,-0.9695 -4.25,-0.9395 z m 66.37109,2.3907 c -1.04576,-0.032 -3.15,0.3286 -5.03125,0.8886 -3.11,0.92 -4.16992,1.8702 -5.16992,4.6602 -0.7,1.92 -1.29984,5.41 -1.33984,7.75 -0.05,2.34 0.59992,5.83 1.41992,7.75 0.82,1.92 2.4,3.95 3.5,4.5 1.1,0.55 3.69,0.9905 5.75,0.9805 2.06,0 4.24938,-0.34 4.85938,-0.75 0.61,-0.4 1.84999,-2.1905 2.75,-3.9805 0.92,-1.83 1.70124,-5.98 1.78124,-9.5 0.08,-3.44 -0.13999,-7.26 -0.5,-8.5 -0.38999,-1.39 -1.69062,-2.4798 -3.39062,-2.8398 -1.51,-0.33 -3.43,-0.74 -4.25,-0.92 -0.1025,-0.021 -0.22951,-0.034 -0.37891,-0.039 z m -40.17773,11.2949 c -1.045,-0.031 -1.95852,0.2034 -3.10352,0.6934 -2.04,0.87 -3.56922,2.8806 -5.44922,7.1406 -1.87,4.24 -4.13999,7.22 -8,10.5 -2.95999,2.52 -6.22976,6.34 -7.25976,8.5 -1.25,2.62 -1.65094,4.9099 -1.21094,6.9199 0.36,1.65 1.64914,4.0193 2.86914,5.2793 1.54,1.58 3.35094,2.26 5.96094,2.25 2.06,-0.02 5.66,-0.5402 8,-1.1602 3.84,-1.02 4.79,-0.8682 9.75,1.5118 3.02,1.46 5.95,2.6484 6.5,2.6484 0.55,0.01 3.48,-0.7495 6.5,-1.6895 4.66,-1.44 6.18,-1.5107 10,-0.4707 3.42,0.93 5.22,0.9518 7.5,0.092 1.65,-0.63 3.5507,-1.8907 4.2207,-2.8007 0.67,-0.91 1.21852,-3.0102 1.22852,-4.6602 0,-1.65 -0.84844,-4.8 -1.89844,-7 -1.05,-2.2 -3.55101,-5.8 -5.54101,-8 -2,-2.2 -4.07938,-5.8 -4.60938,-8 -0.53,-2.2 -1.39969,-5.01 -1.92969,-6.25 -0.54,-1.24 -1.9807,-2.9603 -3.2207,-3.8203 -1.88,-1.32 -3.06,-1.389 -7.25,-0.459 -3.99,0.89 -5.84016,0.8197 -9.16016,-0.3203 -1.675,-0.575 -2.85148,-0.8731 -3.89648,-0.9043 z m 109.06445,21.6992 v 19.5879 h -50.41992 v 1 h 51.41992 v -20.5879 z"
       sodipodi:nodetypes="ccccccccccscsscsccccscccssccsccccsscccccccccccccscscscccssccccccc" />
    <g
       aria-label="inches"
       id="text2538-7-9-6"
       style="font-style:normal;font-weight:normal;font-size:16.366px;line-height:1.25;font-family:sans-serif;fill:#333333;fill-opacity:1;stroke:none;stroke-width:0.409151">
      <path
         d="m 554.89289,1971.5539 h -1.69414 v -1.5582 h 1.69414 z m -0.0959,10.4206 h -1.50235 v -8.9262 h 1.50235 z"
         style="white-space:pre;fill:#333333;fill-opacity:1;stroke-width:0.409151"
         id="path3327" />
      <path
         d="m 565.23352,1981.9745 h -1.50235 v -5.0824 q 0,-0.6153 -0.0719,-1.1508 -0.0719,-0.5434 -0.26371,-0.847 -0.19978,-0.3357 -0.57537,-0.4955 -0.37558,-0.1678 -0.97493,-0.1678 -0.61532,0 -1.28658,0.3037 -0.67126,0.3036 -1.28659,0.7751 v 6.6647 h -1.50234 v -8.9262 h 1.50234 v 0.9909 q 0.70323,-0.5833 1.45441,-0.911 0.75117,-0.3276 1.5423,-0.3276 1.44641,0 2.20557,0.871 0.75917,0.8711 0.75917,2.5093 z"
         style="white-space:pre;fill:#333333;fill-opacity:1;stroke-width:0.409151"
         id="path3329" />
      <path
         d="m 574.72708,1981.4151 q -0.75118,0.3596 -1.43043,0.5594 -0.67126,0.1998 -1.43043,0.1998 -0.96693,0 -1.77405,-0.2797 -0.80711,-0.2877 -1.38248,-0.8631 -0.58335,-0.5753 -0.903,-1.4544 -0.31965,-0.879 -0.31965,-2.0537 0,-2.1896 1.19868,-3.4362 1.20667,-1.2467 3.1805,-1.2467 0.76716,0 1.50235,0.2158 0.74318,0.2158 1.35851,0.5274 v 1.6702 h -0.0799 q -0.68724,-0.5354 -1.42243,-0.8231 -0.7272,-0.2877 -1.42244,-0.2877 -1.27859,0 -2.02177,0.8631 -0.73519,0.855 -0.73519,2.5172 0,1.6142 0.7192,2.4852 0.7272,0.8631 2.03776,0.8631 0.4555,0 0.92698,-0.1199 0.47149,-0.1198 0.84707,-0.3116 0.32764,-0.1678 0.61533,-0.3516 0.28768,-0.1918 0.45549,-0.3277 h 0.0799 z"
         style="white-space:pre;fill:#333333;fill-opacity:1;stroke-width:0.409151"
         id="path3331" />
      <path
         d="m 584.11675,1981.9745 h -1.50235 v -5.0824 q 0,-0.6153 -0.0719,-1.1508 -0.0719,-0.5434 -0.26371,-0.847 -0.19978,-0.3357 -0.57537,-0.4955 -0.37558,-0.1678 -0.97493,-0.1678 -0.61532,0 -1.28658,0.3037 -0.67126,0.3036 -1.28659,0.7751 v 6.6647 h -1.50234 v -12.4343 h 1.50234 v 4.499 q 0.70323,-0.5833 1.45441,-0.911 0.75117,-0.3276 1.5423,-0.3276 1.44641,0 2.20557,0.871 0.75917,0.8711 0.75917,2.5093 z"
         style="white-space:pre;fill:#333333;fill-opacity:1;stroke-width:0.409151"
         id="path3333" />
      <path
         d="m 594.48135,1977.6672 h -6.57677 q 0,0.8231 0.24773,1.4384 0.24773,0.6074 0.67925,0.9989 0.41555,0.3836 0.98292,0.5754 0.57537,0.1918 1.26261,0.1918 0.911,0 1.82999,-0.3596 0.92698,-0.3676 1.31855,-0.7192 h 0.0799 v 1.6382 q -0.75916,0.3196 -1.55029,0.5354 -0.79113,0.2158 -1.66217,0.2158 -2.22156,0 -3.46819,-1.1987 -1.24663,-1.2067 -1.24663,-3.4203 0,-2.1896 1.19069,-3.4761 1.19868,-1.2866 3.14854,-1.2866 1.80601,0 2.78094,1.0548 0.98292,1.0549 0.98292,2.9967 z m -1.46239,-1.1507 q -0.008,-1.1827 -0.59934,-1.83 -0.58336,-0.6473 -1.78204,-0.6473 -1.20668,0 -1.92589,0.7112 -0.71121,0.7113 -0.80711,1.7661 z"
         style="white-space:pre;fill:#333333;fill-opacity:1;stroke-width:0.409151"
         id="path3335" />
      <path
         d="m 603.13583,1979.4013 q 0,1.2227 -1.01488,2.0058 -1.00689,0.7831 -2.75697,0.7831 -0.99091,0 -1.822,-0.2317 -0.82309,-0.2397 -1.38248,-0.5194 v -1.6862 h 0.0799 q 0.71121,0.5354 1.58226,0.8551 0.87104,0.3116 1.67016,0.3116 0.99091,0 1.55029,-0.3196 0.55939,-0.3196 0.55939,-1.0069 0,-0.5274 -0.30367,-0.7991 -0.30366,-0.2717 -1.16671,-0.4635 -0.31965,-0.072 -0.83908,-0.1678 -0.51144,-0.096 -0.93497,-0.2078 -1.17471,-0.3116 -1.67017,-0.911 -0.48746,-0.6073 -0.48746,-1.4864 0,-0.5513 0.22375,-1.0388 0.23175,-0.4875 0.69524,-0.8711 0.44751,-0.3755 1.13475,-0.5913 0.69524,-0.2238 1.5503,-0.2238 0.79912,0 1.61422,0.1998 0.8231,0.1918 1.3665,0.4715 v 1.6062 h -0.0799 q -0.57537,-0.4235 -1.39847,-0.7112 -0.82309,-0.2957 -1.61422,-0.2957 -0.82309,0 -1.39047,0.3197 -0.56738,0.3117 -0.56738,0.935 0,0.5514 0.34363,0.8311 0.33563,0.2796 1.0868,0.4554 0.41554,0.096 0.92698,0.1918 0.51943,0.096 0.86305,0.1758 1.04685,0.2398 1.61423,0.8231 0.56737,0.5914 0.56737,1.5663 z"
         style="white-space:pre;fill:#333333;fill-opacity:1;stroke-width:0.409151"
         id="path3337" />
    </g>
    <path
       d="m 545.24715,1982.7274 h -9.40068 v -1.9491 q 0.97924,-0.8394 1.95847,-1.6787 0.98857,-0.8394 1.83724,-1.6694 1.79061,-1.7346 2.45276,-2.7512 0.66215,-1.0259 0.66215,-2.2103 0,-1.0818 -0.71811,-1.688 -0.70878,-0.6155 -1.98645,-0.6155 -0.84867,0 -1.83724,0.2984 -0.98856,0.2985 -1.9305,0.914 h -0.0933 v -1.9585 q 0.66215,-0.3264 1.76263,-0.5969 1.1098,-0.2704 2.145,-0.2704 2.13567,0 3.34806,1.0352 1.21239,1.0258 1.21239,2.7885 0,0.7927 -0.20517,1.4828 -0.19585,0.6808 -0.58755,1.2963 -0.36371,0.5783 -0.858,1.1378 -0.48495,0.5596 -1.18441,1.2404 -0.99789,0.9792 -2.06106,1.9025 -1.06317,0.914 -1.98645,1.6974 h 7.47018 z"
       style="white-space:pre;fill:#333333;fill-opacity:1;stroke-width:0.477494"
       id="path2737" />
  </g>
</svg>
