<?xml version="1.0" encoding="UTF-8" standalone="no"?>
<svg
   xmlns:dc="http://purl.org/dc/elements/1.1/"
   xmlns:cc="http://creativecommons.org/ns#"
   xmlns:rdf="http://www.w3.org/1999/02/22-rdf-syntax-ns#"
   xmlns:svg="http://www.w3.org/2000/svg"
   xmlns="http://www.w3.org/2000/svg"
   xmlns:sodipodi="http://sodipodi.sourceforge.net/DTD/sodipodi-0.dtd"
   xmlns:inkscape="http://www.inkscape.org/namespaces/inkscape"
   viewBox="0 0 512 512"
   width="512"
   height="512"
   version="1.1"
   id="svg125"
   sodipodi:docname="buffalo.svg"
   inkscape:version="1.0.2 (e86c870879, 2021-01-15, custom)">
  <sodipodi:namedview
     pagecolor="#ffffff"
     bordercolor="#666666"
     borderopacity="1"
     objecttolerance="10"
     gridtolerance="10"
     guidetolerance="10"
     inkscape:pageopacity="0"
     inkscape:pageshadow="2"
     inkscape:window-width="1366"
     inkscape:window-height="715"
     id="namedview3602"
     showgrid="false"
     inkscape:zoom="0.094603154"
     inkscape:cx="231.90239"
     inkscape:cy="3077.5093"
     inkscape:window-x="-8"
     inkscape:window-y="-8"
     inkscape:window-maximized="1"
     inkscape:current-layer="svg125" />
  <metadata
     id="metadata131">
    <rdf:RDF>
      <cc:Work
         rdf:about="">
        <dc:format>image/svg+xml</dc:format>
        <dc:type
           rdf:resource="http://purl.org/dc/dcmitype/StillImage" />
        <dc:title></dc:title>
      </cc:Work>
    </rdf:RDF>
  </metadata>
  <defs
     id="defs129" />
  <style
     id="style2">
		tspan { white-space:pre }
		.shp0 { fill: #e7d5b8 } 
		.shp1 { fill: #15120f } 
	</style>
  <g
     id="g5285"
     transform="matrix(1.2314918,0,0,1.2314918,15.804294,-3517.2105)">
    <path
       id="Path 73"
       class="shp1"
       d="m 135,2946.32 c -3.57,1.26 -10.55,4.44 -15.5,7.07 -4.95,2.63 -12.37,7.16 -16.5,10.07 -4.12,2.9 -10.76,8.26 -14.75,11.91 -3.99,3.65 -10.47,10.12 -14.41,14.38 -3.94,4.26 -11.76,14.72 -17.39,23.25 -5.63,8.53 -12.05,19.32 -14.28,24 -2.23,4.68 -5.28,12.55 -6.78,17.5 -2.38,7.82 -2.74,10.71 -2.75,22 -0.01,10.69 0.46,14.87 2.6,23.5 1.44,5.78 4.04,14.78 5.78,20 1.73,5.22 6.02,15.35 9.52,22.5 3.51,7.15 8.75,16.1 11.67,19.9 2.91,3.79 7.54,8.42 10.29,10.28 3.19,2.16 7.71,4 12.5,5.09 4.61,1.04 11.73,1.7 18.5,1.69 9.58,0 11.7,-0.32 16.4,-2.48 2.97,-1.36 6.99,-4.28 8.94,-6.48 1.95,-2.2 4.92,-6.93 6.6,-10.5 l 3.06,-6.5 c -0.78,-25.57 -0.96,-43.57 -0.92,-56.5 0.06,-16.23 0.61,-27.21 1.77,-35.5 0.93,-6.6 3.06,-20.78 4.74,-31.5 1.67,-10.72 4.38,-26.93 6.03,-36 1.65,-9.07 3.91,-20.1 5.03,-24.5 1.32,-5.2 1.92,-10.22 1.69,-14.33 -0.29,-5.43 -0.73,-6.68 -3.09,-8.75 -2.1,-1.84 -3.88,-2.41 -7.5,-2.4 -2.61,0.01 -7.68,1.05 -11.25,2.3 z m 39.46,-1.31 c -1.13,0.49 -2.82,2.26 -3.75,3.94 -1.5,2.67 -1.8,8.05 -2.41,42.8 -0.38,21.86 -0.67,43.35 -0.65,47.75 0.03,4.4 0.21,17.22 0.41,28.5 0.35,19.89 0.29,20.75 -2.29,29 -1.45,4.68 -3.59,12.1 -4.75,16.5 -1.16,4.4 -3,12.28 -4.09,17.5 -1.09,5.22 -2.26,14 -2.6,19.5 -0.47,7.65 -0.23,11.29 0.99,15.5 1.14,3.95 2.8,6.68 5.89,9.7 2.36,2.31 6.54,5.21 9.29,6.43 3.57,1.6 7.57,2.36 14,2.66 4.96,0.24 11.69,-0.12 15,-0.79 3.3,-0.66 8.47,-2.14 11.5,-3.28 4.18,-1.58 7.44,-4.01 13.58,-10.15 4.45,-4.44 10.44,-11.67 13.32,-16.07 2.89,-4.4 7.68,-12.95 10.65,-19 2.97,-6.05 6.95,-15.72 8.83,-21.5 1.89,-5.78 3.98,-14.32 4.66,-19 0.77,-5.29 0.99,-12.09 0.58,-18 -0.37,-5.22 -1.36,-13.55 -2.21,-18.5 -0.85,-4.95 -2.45,-12.37 -3.55,-16.5 -1.11,-4.12 -3.12,-10.65 -4.47,-14.5 -1.35,-3.85 -3.87,-10.15 -5.61,-14 -1.74,-3.85 -5.48,-10.6 -8.31,-15 -2.95,-4.58 -10.88,-13.95 -18.56,-21.92 -7.38,-7.66 -16.78,-16.8 -20.91,-20.31 -4.12,-3.52 -10.2,-7.73 -13.5,-9.35 -3.3,-1.63 -6.68,-2.92 -7.5,-2.88 -0.82,0.05 -2.42,0.49 -3.54,0.97 z"
       style="fill:#333333;fill-opacity:1"
       sodipodi:nodetypes="cscsssscsccccccccscccccscccccccccccsscccccccccscccscsscccccc" />
    <g
       aria-label="inches"
       id="text2538-7-9-6-4-9-4-2-5-7-8-6"
       style="font-style:normal;font-weight:normal;font-size:16.366px;line-height:1.25;font-family:sans-serif;fill:#333333;fill-opacity:1;stroke:none;stroke-width:0.409151">
      <path
         d="m 309.20622,3059.7855 h -1.69414 v -1.5583 h 1.69414 z m -0.0959,10.4206 h -1.50235 v -8.9262 h 1.50235 z"
         style="white-space:pre;fill:#333333;fill-opacity:1;stroke-width:0.409151"
         id="path3158" />
      <path
         d="m 319.54684,3070.2061 h -1.50235 v -5.0825 q 0,-0.6153 -0.0719,-1.1507 -0.0719,-0.5434 -0.26371,-0.8471 -0.19978,-0.3356 -0.57536,-0.4954 -0.37559,-0.1678 -0.97493,-0.1678 -0.61532,0 -1.28659,0.3036 -0.67126,0.3037 -1.28658,0.7752 v 6.6647 h -1.50235 v -8.9262 h 1.50235 v 0.9909 q 0.70323,-0.5834 1.4544,-0.911 0.75117,-0.3277 1.5423,-0.3277 1.44641,0 2.20558,0.8711 0.75916,0.871 0.75916,2.5092 z"
         style="white-space:pre;fill:#333333;fill-opacity:1;stroke-width:0.409151"
         id="path3160" />
      <path
         d="m 329.0404,3069.6467 q -0.75117,0.3596 -1.43043,0.5594 -0.67126,0.1997 -1.43042,0.1997 -0.96694,0 -1.77405,-0.2797 -0.80711,-0.2876 -1.38248,-0.863 -0.58336,-0.5754 -0.90301,-1.4544 -0.31965,-0.879 -0.31965,-2.0537 0,-2.1896 1.19869,-3.4363 1.20667,-1.2466 3.1805,-1.2466 0.76715,0 1.50234,0.2158 0.74319,0.2157 1.35851,0.5274 v 1.6701 h -0.0799 q -0.68725,-0.5354 -1.42244,-0.823 -0.7272,-0.2877 -1.42243,-0.2877 -1.2786,0 -2.02178,0.863 -0.73519,0.8551 -0.73519,2.5173 0,1.6142 0.71921,2.4852 0.7272,0.8631 2.03776,0.8631 0.4555,0 0.92698,-0.1199 0.47148,-0.1199 0.84707,-0.3117 0.32764,-0.1678 0.61532,-0.3516 0.28768,-0.1918 0.4555,-0.3276 h 0.0799 z"
         style="white-space:pre;fill:#333333;fill-opacity:1;stroke-width:0.409151"
         id="path3162" />
      <path
         d="m 338.43007,3070.2061 h -1.50235 v -5.0825 q 0,-0.6153 -0.0719,-1.1507 -0.0719,-0.5434 -0.26371,-0.8471 -0.19978,-0.3356 -0.57536,-0.4954 -0.37559,-0.1678 -0.97493,-0.1678 -0.61532,0 -1.28659,0.3036 -0.67126,0.3037 -1.28658,0.7752 v 6.6647 h -1.50235 v -12.4344 h 1.50235 v 4.4991 q 0.70323,-0.5834 1.4544,-0.911 0.75117,-0.3277 1.5423,-0.3277 1.44641,0 2.20558,0.8711 0.75916,0.871 0.75916,2.5092 z"
         style="white-space:pre;fill:#333333;fill-opacity:1;stroke-width:0.409151"
         id="path3164" />
      <path
         d="m 348.79467,3065.8988 h -6.57676 q 0,0.8231 0.24772,1.4384 0.24773,0.6073 0.67926,0.9989 0.41554,0.3836 0.98292,0.5754 0.57536,0.1918 1.26261,0.1918 0.91099,0 1.82998,-0.3596 0.92698,-0.3676 1.31855,-0.7192 h 0.0799 v 1.6382 q -0.75917,0.3196 -1.5503,0.5354 -0.79113,0.2157 -1.66217,0.2157 -2.22156,0 -3.46819,-1.1987 -1.24662,-1.2066 -1.24662,-3.4202 0,-2.1896 1.19069,-3.4762 1.19868,-1.2866 3.14853,-1.2866 1.80602,0 2.78094,1.0549 0.98292,1.0548 0.98292,2.9967 z m -1.46239,-1.1507 q -0.008,-1.1827 -0.59934,-1.83 -0.58336,-0.6473 -1.78204,-0.6473 -1.20667,0 -1.92588,0.7112 -0.71122,0.7112 -0.80711,1.7661 z"
         style="white-space:pre;fill:#333333;fill-opacity:1;stroke-width:0.409151"
         id="path3166" />
      <path
         d="m 357.44916,3067.6329 q 0,1.2226 -1.01489,2.0058 -1.00689,0.7831 -2.75697,0.7831 -0.99091,0 -1.82199,-0.2317 -0.8231,-0.2398 -1.38248,-0.5195 v -1.6861 h 0.0799 q 0.71122,0.5354 1.58226,0.8551 0.87104,0.3116 1.67016,0.3116 0.99091,0 1.5503,-0.3196 0.55938,-0.3197 0.55938,-1.0069 0,-0.5274 -0.30366,-0.7991 -0.30367,-0.2717 -1.16672,-0.4635 -0.31965,-0.072 -0.83908,-0.1679 -0.51143,-0.096 -0.93497,-0.2077 -1.17471,-0.3117 -1.67016,-0.911 -0.48747,-0.6074 -0.48747,-1.4864 0,-0.5514 0.22376,-1.0388 0.23174,-0.4875 0.69523,-0.8711 0.44751,-0.3756 1.13476,-0.5913 0.69523,-0.2238 1.55029,-0.2238 0.79912,0 1.61423,0.1998 0.82309,0.1918 1.36649,0.4715 v 1.6062 h -0.0799 q -0.57537,-0.4235 -1.39846,-0.7112 -0.8231,-0.2957 -1.61423,-0.2957 -0.82309,0 -1.39047,0.3197 -0.56737,0.3116 -0.56737,0.9349 0,0.5514 0.34362,0.8311 0.33563,0.2797 1.0868,0.4555 0.41555,0.096 0.92698,0.1918 0.51943,0.096 0.86306,0.1758 1.04684,0.2397 1.61422,0.8231 0.56738,0.5914 0.56738,1.5663 z"
         style="white-space:pre;fill:#333333;fill-opacity:1;stroke-width:0.409151"
         id="path3168" />
    </g>
    <text
       xml:space="preserve"
       style="font-style:normal;font-weight:normal;font-size:19.0998px;line-height:1.25;font-family:sans-serif;fill:#333333;fill-opacity:1;stroke:none;stroke-width:0.477494"
       x="289.0556"
       y="3070.6934"
       id="text3525-401"><tspan
         id="tspan3523-94"
         x="289.0556"
         y="3070.6934"
         style="fill:#333333;fill-opacity:1;stroke-width:0.477494">6</tspan></text>
    <path
       style="fill:none;stroke:#333333;stroke-width:1px;stroke-linecap:butt;stroke-linejoin:miter;stroke-opacity:1"
       d="m 205.4842,2943.5049 h 118.00485 v 106.0247"
       id="path5264" />
    <path
       style="color:#000000;font-style:normal;font-variant:normal;font-weight:normal;font-stretch:normal;font-size:medium;line-height:normal;font-family:sans-serif;font-variant-ligatures:normal;font-variant-position:normal;font-variant-caps:normal;font-variant-numeric:normal;font-variant-alternates:normal;font-variant-east-asian:normal;font-feature-settings:normal;font-variation-settings:normal;text-indent:0;text-align:start;text-decoration:none;text-decoration-line:none;text-decoration-style:solid;text-decoration-color:#000000;letter-spacing:normal;word-spacing:normal;text-transform:none;writing-mode:lr-tb;direction:ltr;text-orientation:mixed;dominant-baseline:auto;baseline-shift:baseline;text-anchor:start;white-space:normal;shape-padding:0;shape-margin:0;inline-size:0;clip-rule:nonzero;display:inline;overflow:visible;visibility:visible;opacity:1;isolation:auto;mix-blend-mode:normal;color-interpolation:sRGB;color-interpolation-filters:linearRGB;solid-color:#000000;solid-opacity:1;vector-effect:none;fill:#333333;fill-opacity:1;fill-rule:nonzero;stroke:none;stroke-linecap:butt;stroke-linejoin:miter;stroke-miterlimit:4;stroke-dasharray:none;stroke-dashoffset:0;stroke-opacity:1;color-rendering:auto;image-rendering:auto;shape-rendering:auto;text-rendering:auto;enable-background:accumulate;stop-color:#000000;stop-opacity:1"
       d="m 322.99414,3083.8535 v 99.1348 h -73.50586 v 1 h 74.50586 v -100.1348 z"
       id="path5266" />
  </g>
</svg>
