<?xml version="1.0" encoding="UTF-8" standalone="no"?>
<svg
   xmlns:dc="http://purl.org/dc/elements/1.1/"
   xmlns:cc="http://creativecommons.org/ns#"
   xmlns:rdf="http://www.w3.org/1999/02/22-rdf-syntax-ns#"
   xmlns:svg="http://www.w3.org/2000/svg"
   xmlns="http://www.w3.org/2000/svg"
   xmlns:sodipodi="http://sodipodi.sourceforge.net/DTD/sodipodi-0.dtd"
   xmlns:inkscape="http://www.inkscape.org/namespaces/inkscape"
   viewBox="0 0 512 512"
   width="512"
   height="512"
   version="1.1"
   id="svg125"
   sodipodi:docname="canadian-lynx.svg"
   inkscape:version="1.0.2 (e86c870879, 2021-01-15, custom)">
  <sodipodi:namedview
     pagecolor="#ffffff"
     bordercolor="#666666"
     borderopacity="1"
     objecttolerance="10"
     gridtolerance="10"
     guidetolerance="10"
     inkscape:pageopacity="0"
     inkscape:pageshadow="2"
     inkscape:window-width="1366"
     inkscape:window-height="715"
     id="namedview1969"
     showgrid="false"
     inkscape:zoom="0.066894531"
     inkscape:cx="1593.3759"
     inkscape:cy="3487.4197"
     inkscape:window-x="-8"
     inkscape:window-y="-8"
     inkscape:window-maximized="1"
     inkscape:current-layer="svg125" />
  <metadata
     id="metadata131">
    <rdf:RDF>
      <cc:Work
         rdf:about="">
        <dc:format>image/svg+xml</dc:format>
        <dc:type
           rdf:resource="http://purl.org/dc/dcmitype/StillImage" />
        <dc:title></dc:title>
      </cc:Work>
    </rdf:RDF>
  </metadata>
  <defs
     id="defs129" />
  <style
     id="style2">
		tspan { white-space:pre }
		.shp0 { fill: #e7d5b8 } 
		.shp1 { fill: #15120f } 
	</style>
  <g
     id="g2951"
     transform="matrix(1.4336394,0,0,1.4336394,-90.259885,-2892.9099)">
    <path
       id="Path 51"
       class="shp1"
       d="m 157.33,2121.42 c -2.69,0.59 -6.79,2.32 -9.11,3.83 -2.32,1.51 -4.74,3.99 -5.38,5.5 -0.64,1.51 -1.47,5.45 -1.85,8.75 -0.37,3.3 -0.27,9.15 0.23,13 0.52,3.96 1.92,8.74 3.21,11 1.26,2.2 3.81,4.77 5.68,5.71 1.86,0.94 5.42,2 7.89,2.35 2.47,0.36 6.3,0.17 8.5,-0.41 2.2,-0.58 5.55,-2.09 7.44,-3.35 1.9,-1.27 4.27,-3.65 5.28,-5.3 1.3,-2.12 1.85,-5.06 1.9,-10 0.04,-5.12 -0.69,-9.29 -2.74,-15.5 -1.75,-5.28 -3.96,-9.75 -5.85,-11.8 -1.79,-1.95 -4.52,-3.62 -6.67,-4.08 -2.09,-0.45 -5.73,-0.32 -8.53,0.3 z m 59.78,1.94 c -1.87,0.77 -4.68,3.14 -6.24,5.27 -1.56,2.13 -4.96,8.15 -7.55,13.37 -3.4,6.84 -4.83,11.04 -5.14,15 -0.29,3.83 0.07,6.41 1.19,8.5 0.88,1.65 2.85,3.95 4.37,5.12 1.52,1.16 4.33,2.58 6.26,3.15 1.93,0.57 5.07,0.7 7,0.29 1.93,-0.41 4.96,-1.49 6.75,-2.4 1.79,-0.91 4.79,-3.57 6.68,-5.91 1.88,-2.34 4.89,-7.4 6.69,-11.25 2.59,-5.57 3.24,-8.22 3.18,-13 -0.04,-3.8 -0.84,-7.74 -2.19,-10.75 -1.16,-2.61 -3.12,-5.43 -4.36,-6.26 -1.24,-0.83 -4.72,-1.74 -7.75,-2.02 -3.54,-0.33 -6.71,-0.01 -8.89,0.89 z M 112,2175.59 c -1.92,0.83 -4.53,2.73 -5.79,4.21 -1.27,1.49 -2.73,4.27 -3.25,6.2 -0.52,1.93 -0.94,5.53 -0.94,8 0.01,2.47 0.7,7.65 1.53,11.5 0.84,3.85 2.52,8.74 3.73,10.86 1.28,2.21 3.82,4.66 5.97,5.75 2.32,1.17 5.85,1.89 9.25,1.89 4.8,0 5.95,-0.41 9.08,-3.25 2.38,-2.16 4.05,-4.92 5.01,-8.25 0.79,-2.75 1.43,-8.26 1.42,-12.25 -0.01,-5.23 -0.57,-8.36 -2.01,-11.25 -1.1,-2.2 -3.46,-5.65 -5.25,-7.66 -1.79,-2.02 -5.05,-4.48 -7.25,-5.48 -2.2,-1 -4.9,-1.81 -6,-1.8 -1.1,0.01 -3.58,0.7 -5.5,1.53 z m 135.97,10.34 c -1.39,0.41 -4.32,1.67 -6.5,2.79 -2.18,1.13 -5.49,3.56 -7.35,5.41 -1.85,1.85 -4.43,5.62 -5.72,8.37 -1.29,2.75 -2.64,7.03 -3,9.5 -0.37,2.53 -0.17,6.14 0.47,8.25 0.9,2.97 2.01,4.16 5.38,5.73 2.34,1.09 5.82,2 7.75,2.02 2.04,0.03 6.43,-1.38 10.5,-3.37 4.41,-2.15 8.14,-4.84 10.08,-7.27 1.7,-2.12 3.78,-5.66 4.63,-7.86 0.85,-2.2 1.88,-6.25 2.28,-9 0.54,-3.69 0.31,-5.92 -0.86,-8.5 -0.88,-1.93 -2.95,-4.29 -4.61,-5.25 -1.66,-0.96 -4.71,-1.71 -6.77,-1.66 -2.06,0.04 -4.89,0.42 -6.28,0.84 z m -74.72,5.64 c -2.89,0.78 -6.49,2.06 -8,2.84 -1.51,0.77 -5.87,4.03 -9.69,7.25 -3.81,3.21 -8.99,8.84 -11.5,12.51 -2.51,3.67 -5.37,8.85 -6.35,11.5 -0.99,2.66 -2.07,7.53 -2.4,10.83 -0.52,5.15 -0.23,6.81 2.04,11.75 1.46,3.16 4.79,8.02 7.4,10.81 2.92,3.11 6.1,5.41 8.25,5.99 1.93,0.52 5.3,0.96 7.5,0.98 2.2,0.02 6.25,1.14 9,2.49 3.8,1.87 6.61,2.46 11.75,2.47 4.59,0.01 7.95,-0.59 10.5,-1.85 2.06,-1.03 6.68,-2.81 10.25,-3.98 4.67,-1.51 7.84,-3.38 11.25,-6.63 2.61,-2.49 5.88,-6.89 7.26,-9.78 1.75,-3.67 2.54,-7.06 2.61,-11.25 0.06,-3.9 -0.86,-9.16 -2.62,-15 -1.49,-4.95 -3.61,-10.8 -4.71,-13 -1.1,-2.2 -3.64,-5.73 -5.65,-7.84 -2,-2.11 -5.67,-4.87 -8.14,-6.15 -2.47,-1.27 -7.99,-3.03 -12.25,-3.91 -4.26,-0.88 -8.54,-1.57 -9.5,-1.53 -0.96,0.03 -4.11,0.71 -7,1.5 z"
       style="fill:#333333;fill-opacity:1"
       sodipodi:nodetypes="csscccccsccccccccsccccsssccccsccscsccccssccccssscccsccscccsccscccccscccccsccccccccsccscc" />
    <g
       aria-label="inches"
       id="text2538-7-9-6-4-9"
       style="font-style:normal;font-weight:normal;font-size:16.366px;line-height:1.25;font-family:sans-serif;fill:#333333;fill-opacity:1;stroke:none;stroke-width:0.409151">
      <path
         d="m 332.78724,2189.8234 h -1.69414 v -1.5583 h 1.69414 z m -0.0959,10.4205 H 331.189 v -8.9262 h 1.50235 z"
         style="white-space:pre;fill:#333333;fill-opacity:1;stroke-width:0.409151"
         id="path3340" />
      <path
         d="m 343.12787,2200.2439 h -1.50235 v -5.0824 q 0,-0.6153 -0.0719,-1.1507 -0.0719,-0.5435 -0.26371,-0.8471 -0.19978,-0.3356 -0.57537,-0.4955 -0.37559,-0.1678 -0.97493,-0.1678 -0.61532,0 -1.28658,0.3037 -0.67126,0.3036 -1.28659,0.7751 v 6.6647 h -1.50234 v -8.9262 h 1.50234 v 0.9909 q 0.70323,-0.5833 1.4544,-0.911 0.75118,-0.3276 1.54231,-0.3276 1.44641,0 2.20557,0.871 0.75917,0.8711 0.75917,2.5093 z"
         style="white-space:pre;fill:#333333;fill-opacity:1;stroke-width:0.409151"
         id="path3342" />
      <path
         d="m 352.62142,2199.6845 q -0.75117,0.3596 -1.43042,0.5594 -0.67126,0.1998 -1.43043,0.1998 -0.96694,0 -1.77405,-0.2797 -0.80711,-0.2877 -1.38248,-0.8631 -0.58336,-0.5753 -0.903,-1.4544 -0.31965,-0.879 -0.31965,-2.0537 0,-2.1896 1.19868,-3.4362 1.20667,-1.2467 3.1805,-1.2467 0.76716,0 1.50235,0.2158 0.74318,0.2158 1.3585,0.5274 v 1.6702 h -0.0799 q -0.68724,-0.5354 -1.42243,-0.8231 -0.7272,-0.2877 -1.42244,-0.2877 -1.27859,0 -2.02177,0.8631 -0.7352,0.855 -0.7352,2.5172 0,1.6142 0.71921,2.4853 0.7272,0.863 2.03776,0.863 0.4555,0 0.92698,-0.1199 0.47148,-0.1198 0.84707,-0.3116 0.32764,-0.1678 0.61532,-0.3516 0.28769,-0.1918 0.4555,-0.3277 h 0.0799 z"
         style="white-space:pre;fill:#333333;fill-opacity:1;stroke-width:0.409151"
         id="path3344" />
      <path
         d="m 362.0111,2200.2439 h -1.50235 v -5.0824 q 0,-0.6153 -0.0719,-1.1507 -0.0719,-0.5435 -0.26371,-0.8471 -0.19978,-0.3356 -0.57537,-0.4955 -0.37559,-0.1678 -0.97493,-0.1678 -0.61532,0 -1.28658,0.3037 -0.67126,0.3036 -1.28659,0.7751 v 6.6647 h -1.50234 v -12.4343 h 1.50234 v 4.499 q 0.70323,-0.5833 1.4544,-0.911 0.75118,-0.3276 1.54231,-0.3276 1.44641,0 2.20557,0.871 0.75917,0.8711 0.75917,2.5093 z"
         style="white-space:pre;fill:#333333;fill-opacity:1;stroke-width:0.409151"
         id="path3346" />
      <path
         d="m 372.3757,2195.9366 h -6.57677 q 0,0.8231 0.24773,1.4385 0.24773,0.6073 0.67925,0.9989 0.41554,0.3835 0.98292,0.5753 0.57537,0.1918 1.26261,0.1918 0.911,0 1.82999,-0.3596 0.92698,-0.3676 1.31855,-0.7192 h 0.0799 v 1.6382 q -0.75916,0.3196 -1.55029,0.5354 -0.79113,0.2158 -1.66218,0.2158 -2.22155,0 -3.46818,-1.1987 -1.24663,-1.2067 -1.24663,-3.4203 0,-2.1895 1.19069,-3.4761 1.19868,-1.2866 3.14854,-1.2866 1.80601,0 2.78094,1.0548 0.98292,1.0549 0.98292,2.9967 z m -1.46239,-1.1507 q -0.008,-1.1827 -0.59935,-1.83 -0.58335,-0.6473 -1.78204,-0.6473 -1.20667,0 -1.92588,0.7112 -0.71122,0.7113 -0.80711,1.7661 z"
         style="white-space:pre;fill:#333333;fill-opacity:1;stroke-width:0.409151"
         id="path3348" />
      <path
         d="m 381.03018,2197.6707 q 0,1.2227 -1.01488,2.0058 -1.0069,0.7832 -2.75697,0.7832 -0.99091,0 -1.822,-0.2318 -0.82309,-0.2397 -1.38248,-0.5194 v -1.6862 h 0.0799 q 0.71121,0.5355 1.58225,0.8551 0.87105,0.3117 1.67017,0.3117 0.99091,0 1.55029,-0.3197 0.55939,-0.3196 0.55939,-1.0069 0,-0.5274 -0.30367,-0.7991 -0.30366,-0.2717 -1.16672,-0.4635 -0.31964,-0.072 -0.83907,-0.1678 -0.51144,-0.096 -0.93497,-0.2078 -1.17471,-0.3116 -1.67017,-0.911 -0.48746,-0.6073 -0.48746,-1.4863 0,-0.5514 0.22375,-1.0389 0.23175,-0.4875 0.69524,-0.871 0.44751,-0.3756 1.13475,-0.5914 0.69524,-0.2237 1.5503,-0.2237 0.79912,0 1.61422,0.1997 0.82309,0.1918 1.3665,0.4715 v 1.6062 h -0.0799 q -0.57536,-0.4235 -1.39846,-0.7112 -0.82309,-0.2956 -1.61422,-0.2956 -0.8231,0 -1.39047,0.3196 -0.56738,0.3117 -0.56738,0.935 0,0.5514 0.34362,0.8311 0.33563,0.2797 1.08681,0.4555 0.41554,0.096 0.92698,0.1917 0.51943,0.096 0.86305,0.1759 1.04685,0.2397 1.61422,0.823 0.56738,0.5914 0.56738,1.5663 z"
         style="white-space:pre;fill:#333333;fill-opacity:1;stroke-width:0.409151"
         id="path3350" />
    </g>
    <path
       d="m 303.73607,2193.6003 q 0.44765,0.401 0.73676,1.0072 0.28911,0.6062 0.28911,1.5668 0,0.9513 -0.34507,1.744 -0.34506,0.7927 -0.96991,1.3802 -0.69946,0.6529 -1.65072,0.97 -0.94193,0.3077 -2.07038,0.3077 -1.15644,0 -2.27557,-0.2798 -1.11912,-0.2704 -1.83723,-0.5968 v -1.9492 h 0.13989 q 0.79271,0.5223 1.86521,0.8673 1.0725,0.3451 2.07039,0.3451 0.58754,0 1.2497,-0.1958 0.66215,-0.1959 1.07249,-0.5783 0.429,-0.4103 0.63418,-0.9046 0.2145,-0.4943 0.2145,-1.2497 0,-0.7461 -0.24248,-1.231 -0.23315,-0.4943 -0.65283,-0.7741 -0.41967,-0.2891 -1.01654,-0.3917 -0.59687,-0.1119 -1.287,-0.1119 h -0.83934 v -1.5481 h 0.65282 q 1.41757,0 2.25691,-0.5876 0.84867,-0.5968 0.84867,-1.7346 0,-0.5036 -0.21449,-0.8767 -0.2145,-0.3823 -0.59687,-0.6248 -0.40102,-0.2425 -0.858,-0.3358 -0.45698,-0.093 -1.0352,-0.093 -0.88597,0 -1.88386,0.3171 -0.99789,0.3171 -1.88387,0.8953 h -0.0933 v -1.9492 q 0.66215,-0.3264 1.76263,-0.5968 1.1098,-0.2798 2.14499,-0.2798 1.01655,0 1.79061,0.1865 0.77406,0.1865 1.39891,0.5969 0.67148,0.4476 1.01654,1.0818 0.34507,0.6342 0.34507,1.4828 0,1.1565 -0.8207,2.0238 -0.81137,0.858 -1.92117,1.0818 v 0.1306 q 0.44765,0.075 1.02587,0.3171 0.57822,0.2331 0.97924,0.5875 z"
       style="font-style:normal;font-weight:normal;font-size:19.0998px;line-height:1.25;font-family:sans-serif;white-space:pre;fill:#333333;fill-opacity:1;stroke:none;stroke-width:0.477494"
       id="path2931" />
    <text
       xml:space="preserve"
       style="font-style:normal;font-weight:normal;font-size:10.7039px;line-height:1.25;font-family:sans-serif;fill:#333333;fill-opacity:1;stroke:none;stroke-width:0.267597"
       x="309.43622"
       y="2192.6985"
       id="text3525-5"><tspan
         id="tspan3523-2"
         x="309.43622"
         y="2192.6985"
         style="fill:#333333;fill-opacity:1;stroke-width:0.267597">3</tspan></text>
    <path
       style="fill:none;stroke:#333333;stroke-width:1px;stroke-linecap:butt;stroke-linejoin:miter;stroke-opacity:1"
       d="m 320.54034,2187.4348 -6.45235,12.9931"
       id="path3671" />
    <text
       xml:space="preserve"
       style="font-style:normal;font-weight:normal;font-size:11.1369px;line-height:1.25;font-family:sans-serif;fill:#333333;fill-opacity:1;stroke:none;stroke-width:0.278422"
       x="317.78076"
       y="2201.5374"
       id="text3525-63"><tspan
         id="tspan3523-85"
         x="317.78076"
         y="2201.5374"
         style="fill:#333333;fill-opacity:1;stroke-width:0.278422">4</tspan></text>
    <path
       id="path2918"
       style="color:#000000;font-style:normal;font-variant:normal;font-weight:normal;font-stretch:normal;font-size:medium;line-height:normal;font-family:sans-serif;font-variant-ligatures:normal;font-variant-position:normal;font-variant-caps:normal;font-variant-numeric:normal;font-variant-alternates:normal;font-variant-east-asian:normal;font-feature-settings:normal;font-variation-settings:normal;text-indent:0;text-align:start;text-decoration:none;text-decoration-line:none;text-decoration-style:solid;text-decoration-color:#000000;letter-spacing:normal;word-spacing:normal;text-transform:none;writing-mode:lr-tb;direction:ltr;text-orientation:mixed;dominant-baseline:auto;baseline-shift:baseline;text-anchor:start;white-space:normal;shape-padding:0;shape-margin:0;inline-size:0;clip-rule:nonzero;display:inline;overflow:visible;visibility:visible;opacity:1;isolation:auto;mix-blend-mode:normal;color-interpolation:sRGB;color-interpolation-filters:linearRGB;solid-color:#000000;solid-opacity:1;vector-effect:none;fill:#333333;fill-opacity:1;fill-rule:nonzero;stroke:none;stroke-linecap:butt;stroke-linejoin:miter;stroke-miterlimit:4;stroke-dasharray:none;stroke-dashoffset:0;stroke-opacity:1;color-rendering:auto;image-rendering:auto;shape-rendering:auto;text-rendering:auto;enable-background:accumulate;stop-color:#000000;stop-opacity:1"
       d="m 254.48242,2120.9883 v 1 h 70.52149 v 57.6133 h 1 v -58.6133 z m 69.99805,92.0176 v 58.0312 h -69.76758 v 1 h 70.76758 v -59.0312 z" />
  </g>
</svg>
