<?xml version="1.0" encoding="UTF-8" standalone="no"?>
<svg
   xmlns:dc="http://purl.org/dc/elements/1.1/"
   xmlns:cc="http://creativecommons.org/ns#"
   xmlns:rdf="http://www.w3.org/1999/02/22-rdf-syntax-ns#"
   xmlns:svg="http://www.w3.org/2000/svg"
   xmlns="http://www.w3.org/2000/svg"
   xmlns:sodipodi="http://sodipodi.sourceforge.net/DTD/sodipodi-0.dtd"
   xmlns:inkscape="http://www.inkscape.org/namespaces/inkscape"
   viewBox="0 0 512 512"
   width="512"
   height="512"
   version="1.1"
   id="svg125"
   sodipodi:docname="cougar.svg"
   inkscape:version="1.0.2 (e86c870879, 2021-01-15, custom)">
  <sodipodi:namedview
     pagecolor="#ffffff"
     bordercolor="#666666"
     borderopacity="1"
     objecttolerance="10"
     gridtolerance="10"
     guidetolerance="10"
     inkscape:pageopacity="0"
     inkscape:pageshadow="2"
     inkscape:window-width="1366"
     inkscape:window-height="715"
     id="namedview1969"
     showgrid="false"
     inkscape:zoom="0.26757813"
     inkscape:cx="379.61465"
     inkscape:cy="2039.0788"
     inkscape:window-x="-8"
     inkscape:window-y="-8"
     inkscape:window-maximized="1"
     inkscape:current-layer="svg125" />
  <metadata
     id="metadata131">
    <rdf:RDF>
      <cc:Work
         rdf:about="">
        <dc:format>image/svg+xml</dc:format>
        <dc:type
           rdf:resource="http://purl.org/dc/dcmitype/StillImage" />
        <dc:title></dc:title>
      </cc:Work>
    </rdf:RDF>
  </metadata>
  <defs
     id="defs129" />
  <style
     id="style2">
		tspan { white-space:pre }
		.shp0 { fill: #e7d5b8 } 
		.shp1 { fill: #15120f } 
	</style>
  <g
     id="g3055"
     transform="matrix(1.4858915,0,0,1.4858915,-659.19444,-3007.8085)">
    <path
       id="Path 51"
       class="shp1"
       d="m 530.49,2127.41 c -1.66,0.74 -4.47,3.54 -6.25,6.22 -2.23,3.35 -3.43,6.59 -3.87,10.37 -0.35,3.03 -0.36,8.2 -0.02,11.5 0.33,3.3 1.29,7.01 2.13,8.25 0.84,1.24 2.76,3.01 4.27,3.94 1.51,0.94 5.45,1.87 8.75,2.07 4.6,0.28 6.7,-0.07 9,-1.51 1.65,-1.03 3.79,-3.53 4.75,-5.56 1.1,-2.33 1.74,-6 1.72,-9.94 -0.02,-3.44 -0.81,-8.52 -1.75,-11.3 -0.95,-2.77 -2.84,-6.68 -4.22,-8.68 -1.37,-2 -3.17,-4.05 -4,-4.56 -0.83,-0.51 -2.85,-1.21 -4.5,-1.54 -1.71,-0.35 -4.29,-0.04 -6.01,0.74 z m 46.55,5.24 c -1.86,1.57 -4.2,4.65 -5.19,6.85 -1.31,2.91 -1.81,6.46 -1.81,13 0,6.51 0.5,10.11 1.8,13 0.99,2.2 3.12,5.03 4.73,6.28 2.29,1.79 4.18,2.28 8.68,2.25 3.16,-0.01 7.1,-0.71 8.75,-1.53 1.65,-0.82 3.62,-2.96 4.39,-4.75 0.76,-1.79 1.69,-5.05 2.06,-7.25 0.4,-2.44 0.05,-6.73 -0.91,-11 -0.87,-3.85 -2.47,-8.46 -3.56,-10.25 -1.09,-1.79 -3.44,-4.37 -5.23,-5.74 -1.79,-1.36 -4.84,-2.76 -6.79,-3.09 -2.94,-0.51 -4.11,-0.14 -6.92,2.23 z m 47.98,42.08 c -1.91,0.97 -4.52,3.34 -5.79,5.27 -1.27,1.93 -3.2,5.86 -4.27,8.75 -1.08,2.89 -1.95,7.39 -1.94,10 0.01,3.05 0.82,6.18 2.26,8.75 1.28,2.27 3.75,4.75 5.74,5.75 1.91,0.96 5.28,1.75 7.48,1.74 2.2,0 5.35,-0.8 7,-1.79 2.03,-1.22 3.57,-3.39 4.76,-6.75 1.14,-3.2 1.75,-7.77 1.73,-12.95 -0.02,-5.82 -0.57,-9.16 -2.01,-12.25 -1.09,-2.34 -2.99,-4.89 -4.23,-5.68 -1.24,-0.79 -3.37,-1.7 -4.75,-2.03 -1.49,-0.35 -3.9,0.13 -5.98,1.19 z m -136.69,2.6 c -1.55,1.29 -3.56,4.1 -4.45,6.25 -0.89,2.16 -1.93,6.39 -2.31,9.42 -0.54,4.3 -0.24,6.75 1.37,11.25 1.52,4.23 2.92,6.28 5.31,7.75 1.98,1.21 5.01,1.99 7.75,1.99 2.48,0.01 6.07,-0.78 8,-1.74 2.55,-1.27 3.86,-2.84 4.84,-5.75 0.81,-2.43 1.16,-6.56 0.9,-10.5 -0.29,-4.21 -1.32,-8.26 -2.94,-11.5 -1.38,-2.75 -3.81,-6.03 -5.4,-7.28 -1.86,-1.47 -4.22,-2.28 -6.57,-2.25 -2.32,0.02 -4.7,0.88 -6.5,2.36 z m 63.01,13.64 c -1.56,0.32 -4.08,1.36 -5.59,2.31 -1.51,0.95 -3.77,3.41 -5.02,5.47 -1.25,2.06 -2.79,4.88 -3.42,6.25 -0.63,1.38 -2.72,5.88 -4.65,10 -1.92,4.13 -5.7,9.97 -8.4,13 -3.98,4.47 -5.03,6.44 -5.61,10.5 -0.41,2.88 -0.26,6.48 0.35,8.5 0.58,1.93 2.85,5.86 5.03,8.75 2.18,2.89 5.43,6.15 7.22,7.25 1.9,1.17 5.01,1.99 7.5,2 2.34,0 5.49,-0.62 7,-1.38 1.51,-0.76 4.21,-3.01 6,-5 L 555,2255 c 6.93,4.12 10.16,5.1 13,5.18 2.48,0.07 6.85,-0.5 9.73,-1.27 l 5.23,-1.41 c 5.07,4.96 8.23,7.1 10.29,7.95 2.06,0.85 5.1,1.55 6.75,1.55 1.65,0 4.66,-0.79 6.68,-1.75 2.02,-0.96 5.4,-3.44 7.5,-5.5 2.1,-2.06 4.51,-5.44 5.34,-7.5 0.84,-2.06 1.53,-6.45 1.53,-9.75 0.01,-5.97 -0.04,-6.06 -8.27,-17.01 -4.55,-6.06 -10.76,-15.7 -13.78,-21.43 -4.85,-9.17 -5.98,-10.62 -9.5,-12.17 -2.36,-1.04 -5.23,-1.55 -7,-1.24 -1.65,0.29 -5.48,1.45 -8.5,2.58 l -5.5,2.07 c -7.75,-3.18 -10.97,-4.29 -12.16,-4.51 -1.18,-0.23 -3.43,-0.15 -5,0.18 z"
       style="fill:#333333;fill-opacity:1"
       sodipodi:nodetypes="ccccscccccccsccccssccscccsccccscccsccccssccccccccccccccccsscccccsccsccsccsssscccccccccc" />
    <g
       aria-label="inches"
       id="text2538-7-9-6-4-9-4"
       style="font-style:normal;font-weight:normal;font-size:16.366px;line-height:1.25;font-family:sans-serif;fill:#333333;fill-opacity:1;stroke:none;stroke-width:0.409151">
      <path
         d="m 702.27918,2189.6168 h -1.69413 v -1.5583 h 1.69413 z m -0.0959,10.4206 h -1.50235 v -8.9262 h 1.50235 z"
         style="white-space:pre;fill:#333333;fill-opacity:1;stroke-width:0.409151"
         id="path3314" />
      <path
         d="m 712.61981,2200.0374 h -1.50235 v -5.0825 q 0,-0.6153 -0.0719,-1.1507 -0.0719,-0.5434 -0.26371,-0.8471 -0.19978,-0.3356 -0.57537,-0.4954 -0.37558,-0.1678 -0.97492,-0.1678 -0.61533,0 -1.28659,0.3036 -0.67126,0.3037 -1.28658,0.7752 v 6.6647 h -1.50235 v -8.9262 h 1.50235 v 0.9909 q 0.70322,-0.5834 1.4544,-0.911 0.75117,-0.3277 1.5423,-0.3277 1.44641,0 2.20557,0.8711 0.75917,0.871 0.75917,2.5092 z"
         style="white-space:pre;fill:#333333;fill-opacity:1;stroke-width:0.409151"
         id="path3316" />
      <path
         d="m 722.11337,2199.478 q -0.75118,0.3596 -1.43043,0.5594 -0.67126,0.1997 -1.43043,0.1997 -0.96693,0 -1.77404,-0.2797 -0.80712,-0.2876 -1.38248,-0.863 -0.58336,-0.5754 -0.90301,-1.4544 -0.31965,-0.879 -0.31965,-2.0538 0,-2.1895 1.19868,-3.4362 1.20668,-1.2466 3.1805,-1.2466 0.76716,0 1.50235,0.2158 0.74318,0.2157 1.35851,0.5274 v 1.6701 h -0.0799 q -0.68725,-0.5354 -1.42244,-0.823 -0.7272,-0.2877 -1.42244,-0.2877 -1.27859,0 -2.02177,0.863 -0.73519,0.8551 -0.73519,2.5172 0,1.6143 0.71921,2.4853 0.7272,0.8631 2.03775,0.8631 0.4555,0 0.92699,-0.1199 0.47148,-0.1199 0.84706,-0.3117 0.32764,-0.1678 0.61533,-0.3516 0.28768,-0.1918 0.4555,-0.3276 h 0.0799 z"
         style="white-space:pre;fill:#333333;fill-opacity:1;stroke-width:0.409151"
         id="path3318" />
      <path
         d="m 731.50304,2200.0374 h -1.50235 v -5.0825 q 0,-0.6153 -0.0719,-1.1507 -0.0719,-0.5434 -0.26371,-0.8471 -0.19978,-0.3356 -0.57537,-0.4954 -0.37558,-0.1678 -0.97492,-0.1678 -0.61533,0 -1.28659,0.3036 -0.67126,0.3037 -1.28658,0.7752 v 6.6647 h -1.50235 v -12.4344 h 1.50235 v 4.4991 q 0.70322,-0.5834 1.4544,-0.911 0.75117,-0.3277 1.5423,-0.3277 1.44641,0 2.20557,0.8711 0.75917,0.871 0.75917,2.5092 z"
         style="white-space:pre;fill:#333333;fill-opacity:1;stroke-width:0.409151"
         id="path3320" />
      <path
         d="m 741.86764,2195.7301 h -6.57677 q 0,0.8231 0.24773,1.4384 0.24773,0.6073 0.67925,0.9989 0.41555,0.3836 0.98292,0.5754 0.57537,0.1918 1.26261,0.1918 0.911,0 1.82999,-0.3596 0.92698,-0.3676 1.31855,-0.7192 h 0.0799 v 1.6382 q -0.75916,0.3196 -1.55029,0.5354 -0.79113,0.2157 -1.66217,0.2157 -2.22156,0 -3.46819,-1.1987 -1.24663,-1.2066 -1.24663,-3.4202 0,-2.1896 1.19069,-3.4762 1.19868,-1.2866 3.14854,-1.2866 1.80601,0 2.78094,1.0549 0.98292,1.0548 0.98292,2.9967 z m -1.46239,-1.1507 q -0.008,-1.1827 -0.59934,-1.83 -0.58336,-0.6473 -1.78204,-0.6473 -1.20667,0 -1.92588,0.7112 -0.71122,0.7112 -0.80712,1.7661 z"
         style="white-space:pre;fill:#333333;fill-opacity:1;stroke-width:0.409151"
         id="path3322" />
      <path
         d="m 750.52212,2197.4642 q 0,1.2226 -1.01488,2.0058 -1.00689,0.7831 -2.75697,0.7831 -0.99091,0 -1.82199,-0.2317 -0.8231,-0.2398 -1.38248,-0.5195 v -1.6861 h 0.0799 q 0.71122,0.5354 1.58226,0.8551 0.87104,0.3116 1.67016,0.3116 0.99091,0 1.5503,-0.3196 0.55938,-0.3197 0.55938,-1.0069 0,-0.5274 -0.30367,-0.7991 -0.30366,-0.2717 -1.16671,-0.4635 -0.31965,-0.072 -0.83908,-0.1679 -0.51144,-0.096 -0.93497,-0.2077 -1.17471,-0.3117 -1.67016,-0.911 -0.48747,-0.6074 -0.48747,-1.4864 0,-0.5514 0.22376,-1.0388 0.23174,-0.4875 0.69523,-0.8711 0.44751,-0.3756 1.13475,-0.5913 0.69524,-0.2238 1.5503,-0.2238 0.79912,0 1.61422,0.1998 0.8231,0.1918 1.3665,0.4715 v 1.6062 h -0.0799 q -0.57537,-0.4235 -1.39846,-0.7112 -0.8231,-0.2957 -1.61423,-0.2957 -0.82309,0 -1.39047,0.3197 -0.56738,0.3116 -0.56738,0.9349 0,0.5514 0.34363,0.8311 0.33563,0.2797 1.0868,0.4555 0.41554,0.096 0.92698,0.1918 0.51943,0.096 0.86305,0.1758 1.04685,0.2397 1.61423,0.8231 0.56737,0.5914 0.56737,1.5663 z"
         style="white-space:pre;fill:#333333;fill-opacity:1;stroke-width:0.409151"
         id="path3324" />
    </g>
    <text
       xml:space="preserve"
       style="font-style:normal;font-weight:normal;font-size:19.0998px;line-height:1.25;font-family:sans-serif;fill:#333333;fill-opacity:1;stroke:none;stroke-width:0.477494"
       x="663.6806"
       y="2200.3184"
       id="text3525-41"><tspan
         id="tspan3523-64"
         x="663.6806"
         y="2200.3184"
         style="fill:#333333;fill-opacity:1;stroke-width:0.477494">3</tspan></text>
    <text
       xml:space="preserve"
       style="font-style:normal;font-weight:normal;font-size:10.5322px;line-height:1.25;font-family:sans-serif;fill:#333333;fill-opacity:1;stroke:none;stroke-width:0.263304"
       x="678.479"
       y="2192.8625"
       id="text3525-3"><tspan
         id="tspan3523-03"
         x="678.479"
         y="2192.8625"
         style="fill:#333333;fill-opacity:1;stroke-width:0.263304">1</tspan></text>
    <path
       style="fill:none;stroke:#333333;stroke-width:1px;stroke-linecap:butt;stroke-linejoin:miter;stroke-opacity:1"
       d="m 689.60589,2187.479 -6.27557,12.9931"
       id="path3709" />
    <text
       xml:space="preserve"
       style="font-style:normal;font-weight:normal;font-size:10.2871px;line-height:1.25;font-family:sans-serif;fill:#333333;fill-opacity:1;stroke:none;stroke-width:0.257175"
       x="687.74976"
       y="2201.0073"
       id="text3525-20"><tspan
         id="tspan3523-9"
         x="687.74976"
         y="2201.0073"
         style="fill:#333333;fill-opacity:1;stroke-width:0.257175">2</tspan></text>
    <path
       style="fill:none;stroke:#333333;stroke-width:1px;stroke-linecap:butt;stroke-linejoin:miter;stroke-opacity:1"
       d="m 712.48175,2179.5475 v -52.9832 h -83.9635"
       id="path3033" />
    <path
       style="fill:none;stroke:#333333;stroke-width:1px;stroke-linecap:butt;stroke-linejoin:miter;stroke-opacity:1"
       d="m 712.49525,2212.821 v 53.6679 h -83.9989"
       id="path3035" />
  </g>
</svg>
