<?xml version="1.0" encoding="UTF-8" standalone="no"?>
<svg
   xmlns:dc="http://purl.org/dc/elements/1.1/"
   xmlns:cc="http://creativecommons.org/ns#"
   xmlns:rdf="http://www.w3.org/1999/02/22-rdf-syntax-ns#"
   xmlns:svg="http://www.w3.org/2000/svg"
   xmlns="http://www.w3.org/2000/svg"
   xmlns:sodipodi="http://sodipodi.sourceforge.net/DTD/sodipodi-0.dtd"
   xmlns:inkscape="http://www.inkscape.org/namespaces/inkscape"
   viewBox="0 0 512 512"
   width="512"
   height="512"
   version="1.1"
   id="svg125"
   sodipodi:docname="coyote.svg"
   inkscape:version="1.0.2 (e86c870879, 2021-01-15, custom)">
  <sodipodi:namedview
     pagecolor="#ffffff"
     bordercolor="#666666"
     borderopacity="1"
     objecttolerance="10"
     gridtolerance="10"
     guidetolerance="10"
     inkscape:pageopacity="0"
     inkscape:pageshadow="2"
     inkscape:window-width="1366"
     inkscape:window-height="715"
     id="namedview3602"
     showgrid="false"
     inkscape:zoom="0.26757813"
     inkscape:cx="510.27591"
     inkscape:cy="677.09081"
     inkscape:window-x="-8"
     inkscape:window-y="-8"
     inkscape:window-maximized="1"
     inkscape:current-layer="svg125" />
  <metadata
     id="metadata131">
    <rdf:RDF>
      <cc:Work
         rdf:about="">
        <dc:format>image/svg+xml</dc:format>
        <dc:type
           rdf:resource="http://purl.org/dc/dcmitype/StillImage" />
        <dc:title></dc:title>
      </cc:Work>
    </rdf:RDF>
  </metadata>
  <defs
     id="defs129" />
  <style
     id="style2">
		tspan { white-space:pre }
		.shp0 { fill: #e7d5b8 } 
		.shp1 { fill: #15120f } 
	</style>
  <g
     id="g4528"
     transform="matrix(1.8927787,0,0,1.8927787,-1136.5768,-4576.6178)">
    <g
       id="g4491">
      <g
         aria-label="inches"
         id="text2538-7-9-6-4-9-4-2-5-7"
         style="font-style:normal;font-weight:normal;font-size:16.366px;line-height:1.25;font-family:sans-serif;fill:#333333;fill-opacity:1;stroke:none;stroke-width:0.409151">
        <path
           d="m 793.15327,2545.8075 h -1.69414 v -1.5583 h 1.69414 z m -0.0959,10.4205 h -1.50234 v -8.9262 h 1.50234 z"
           style="white-space:pre;fill:#333333;fill-opacity:1;stroke-width:0.409151"
           id="path3275" />
        <path
           d="m 803.49389,2556.228 h -1.50234 v -5.0824 q 0,-0.6153 -0.0719,-1.1507 -0.0719,-0.5434 -0.26371,-0.8471 -0.19978,-0.3356 -0.57537,-0.4954 -0.37559,-0.1679 -0.97493,-0.1679 -0.61532,0 -1.28658,0.3037 -0.67127,0.3037 -1.28659,0.7752 v 6.6646 h -1.50235 v -8.9262 h 1.50235 v 0.991 q 0.70323,-0.5834 1.4544,-0.911 0.75117,-0.3277 1.5423,-0.3277 1.44641,0 2.20558,0.8711 0.75916,0.871 0.75916,2.5092 z"
           style="white-space:pre;fill:#333333;fill-opacity:1;stroke-width:0.409151"
           id="path3277" />
        <path
           d="m 812.98745,2555.6686 q -0.75117,0.3596 -1.43042,0.5594 -0.67127,0.1998 -1.43043,0.1998 -0.96694,0 -1.77405,-0.2797 -0.80711,-0.2877 -1.38248,-0.863 -0.58336,-0.5754 -0.90301,-1.4544 -0.31964,-0.8791 -0.31964,-2.0538 0,-2.1896 1.19868,-3.4362 1.20667,-1.2466 3.1805,-1.2466 0.76716,0 1.50235,0.2157 0.74318,0.2158 1.3585,0.5275 v 1.6701 h -0.0799 q -0.68724,-0.5354 -1.42244,-0.8231 -0.7272,-0.2877 -1.42243,-0.2877 -1.27859,0 -2.02178,0.8631 -0.73519,0.8551 -0.73519,2.5172 0,1.6142 0.71921,2.4853 0.7272,0.863 2.03776,0.863 0.4555,0 0.92698,-0.1198 0.47148,-0.1199 0.84707,-0.3117 0.32764,-0.1678 0.61532,-0.3516 0.28768,-0.1918 0.4555,-0.3276 h 0.0799 z"
           style="white-space:pre;fill:#333333;fill-opacity:1;stroke-width:0.409151"
           id="path3279" />
        <path
           d="m 822.37712,2556.228 h -1.50234 v -5.0824 q 0,-0.6153 -0.0719,-1.1507 -0.0719,-0.5434 -0.26371,-0.8471 -0.19978,-0.3356 -0.57537,-0.4954 -0.37559,-0.1679 -0.97493,-0.1679 -0.61532,0 -1.28658,0.3037 -0.67127,0.3037 -1.28659,0.7752 v 6.6646 h -1.50235 v -12.4343 h 1.50235 v 4.4991 q 0.70323,-0.5834 1.4544,-0.911 0.75118,-0.3277 1.5423,-0.3277 1.44641,0 2.20558,0.8711 0.75916,0.871 0.75916,2.5092 z"
           style="white-space:pre;fill:#333333;fill-opacity:1;stroke-width:0.409151"
           id="path3281" />
        <path
           d="m 832.74172,2551.9208 h -6.57676 q 0,0.8231 0.24773,1.4384 0.24772,0.6073 0.67925,0.9989 0.41554,0.3836 0.98292,0.5754 0.57536,0.1917 1.26261,0.1917 0.911,0 1.82999,-0.3596 0.92698,-0.3676 1.31855,-0.7192 h 0.0799 v 1.6382 q -0.75917,0.3197 -1.5503,0.5354 -0.79113,0.2158 -1.66217,0.2158 -2.22156,0 -3.46818,-1.1987 -1.24663,-1.2067 -1.24663,-3.4202 0,-2.1896 1.19069,-3.4762 1.19868,-1.2866 3.14853,-1.2866 1.80602,0 2.78095,1.0549 0.98291,1.0548 0.98291,2.9967 z m -1.46239,-1.1508 q -0.008,-1.1827 -0.59934,-1.83 -0.58336,-0.6472 -1.78204,-0.6472 -1.20667,0 -1.92588,0.7112 -0.71122,0.7112 -0.80711,1.766 z"
           style="white-space:pre;fill:#333333;fill-opacity:1;stroke-width:0.409151"
           id="path3283" />
        <path
           d="m 841.39621,2553.6549 q 0,1.2226 -1.01489,2.0058 -1.00689,0.7831 -2.75696,0.7831 -0.99091,0 -1.822,-0.2318 -0.82309,-0.2397 -1.38248,-0.5194 v -1.6861 h 0.0799 q 0.71122,0.5354 1.58226,0.855 0.87104,0.3117 1.67017,0.3117 0.99091,0 1.55029,-0.3197 0.55939,-0.3196 0.55939,-1.0069 0,-0.5274 -0.30367,-0.7991 -0.30367,-0.2717 -1.16672,-0.4635 -0.31965,-0.072 -0.83907,-0.1678 -0.51144,-0.096 -0.93498,-0.2078 -1.1747,-0.3116 -1.67016,-0.9109 -0.48746,-0.6074 -0.48746,-1.4864 0,-0.5514 0.22375,-1.0389 0.23175,-0.4874 0.69524,-0.871 0.4475,-0.3756 1.13475,-0.5914 0.69523,-0.2237 1.55029,-0.2237 0.79912,0 1.61423,0.1998 0.82309,0.1918 1.36649,0.4714 v 1.6063 h -0.0799 q -0.57536,-0.4236 -1.39846,-0.7112 -0.82309,-0.2957 -1.61422,-0.2957 -0.8231,0 -1.39047,0.3196 -0.56738,0.3117 -0.56738,0.935 0,0.5514 0.34362,0.8311 0.33563,0.2797 1.08681,0.4555 0.41554,0.096 0.92698,0.1918 0.51943,0.096 0.86305,0.1758 1.04685,0.2397 1.61422,0.8231 0.56738,0.5913 0.56738,1.5663 z"
           style="white-space:pre;fill:#333333;fill-opacity:1;stroke-width:0.409151"
           id="path3285" />
      </g>
      <text
         xml:space="preserve"
         style="font-style:normal;font-weight:normal;font-size:19.0998px;line-height:1.25;font-family:sans-serif;fill:#333333;fill-opacity:1;stroke:none;stroke-width:0.477494"
         x="754.89178"
         y="2556.6821"
         id="text3525-0"><tspan
           id="tspan3523-32"
           x="754.89178"
           y="2556.6821"
           style="fill:#333333;fill-opacity:1;stroke-width:0.477494">3</tspan></text>
      <text
         xml:space="preserve"
         style="font-style:normal;font-weight:normal;font-size:10.9212px;line-height:1.25;font-family:sans-serif;fill:#333333;fill-opacity:1;stroke:none;stroke-width:0.27303"
         x="769.23438"
         y="2548.8152"
         id="text3525-94"><tspan
           id="tspan3523-26"
           x="769.23438"
           y="2548.8152"
           style="fill:#333333;fill-opacity:1;stroke-width:0.27303">1</tspan></text>
      <text
         xml:space="preserve"
         style="font-style:normal;font-weight:normal;font-size:9.21519px;line-height:1.25;font-family:sans-serif;fill:#333333;fill-opacity:1;stroke:none;stroke-width:0.230379"
         x="779.00525"
         y="2556.9028"
         id="text3525-14"><tspan
           id="tspan3523-36"
           x="779.00525"
           y="2556.9028"
           style="fill:#333333;fill-opacity:1;stroke-width:0.230379">2</tspan></text>
      <path
         style="fill:none;stroke:#333333;stroke-width:1px;stroke-linecap:butt;stroke-linejoin:miter;stroke-opacity:1"
         d="m 780.73428,2543.4631 -6.40816,12.9489"
         id="path3825" />
      <g
         id="g4469">
        <path
           id="Path 61"
           class="shp1"
           d="m 656.65,2495 c -1.46,1.1 -3.88,4.59 -5.38,7.75 -2.21,4.66 -2.74,7.18 -2.75,13.25 -0.01,4.63 0.63,9.22 1.67,12 0.92,2.47 3.29,5.96 5.25,7.75 2.49,2.27 4.54,3.25 6.81,3.25 1.79,-0.01 4.6,-0.82 6.25,-1.81 1.65,-0.99 3.96,-3.35 5.14,-5.24 1.18,-1.9 2.43,-4.8 2.77,-6.45 0.34,-1.65 0.84,-4.12 1.1,-5.5 0.26,-1.37 -0.01,-5.2 -0.61,-8.5 -0.6,-3.3 -1.89,-7.57 -2.86,-9.5 -0.97,-1.93 -3.18,-4.74 -4.9,-6.25 -2.09,-1.83 -4.26,-2.75 -6.49,-2.75 -1.84,0 -4.54,0.9 -6,2 z m 29.41,3.74 c -1.34,0.97 -2.99,3.11 -3.67,4.76 -0.67,1.65 -1.55,6.82 -1.94,11.5 -0.39,4.68 -0.37,11.2 0.05,14.5 0.64,4.97 1.39,6.66 4.39,9.83 3.11,3.3 4.23,3.83 8.11,3.88 2.48,0.03 5.85,-0.7 7.5,-1.63 1.65,-0.93 4.13,-3.32 5.5,-5.31 2.26,-3.28 2.5,-4.59 2.5,-13.7 0,-7 -0.51,-11.44 -1.69,-14.57 -0.92,-2.47 -3.29,-5.96 -5.25,-7.75 -2.96,-2.71 -4.35,-3.25 -8.31,-3.26 -2.95,0 -5.67,0.66 -7.19,1.75 z m -51.27,40.01 c -1.31,1.51 -2.98,4.55 -3.72,6.75 -0.92,2.73 -1.2,7.02 -0.87,13.5 0.28,5.63 1.1,10.72 2.01,12.5 0.84,1.65 2.93,4.24 4.66,5.75 2.05,1.8 4.25,2.75 6.38,2.74 1.79,-0.01 5.5,-1.04 8.25,-2.31 3.13,-1.44 5.82,-3.59 7.18,-5.74 1.2,-1.89 2.61,-5.47 3.13,-7.94 0.82,-3.92 0.64,-5.05 -1.43,-8.75 -1.31,-2.34 -3.84,-5.93 -5.63,-7.99 -1.79,-2.06 -4.83,-5.41 -6.75,-7.46 -2.77,-2.94 -4.26,-3.72 -7.17,-3.76 -2.79,-0.03 -4.23,0.62 -6.04,2.71 z m 76.8,2 c -2.5,2.06 -5.97,4.88 -7.72,6.25 -1.75,1.38 -4.45,4.75 -6.01,7.5 -1.88,3.31 -2.84,6.44 -2.85,9.25 -0.01,2.34 0.85,5.94 1.89,8 1.05,2.06 3.12,4.88 4.6,6.25 1.96,1.82 4.08,2.6 7.84,2.88 4.7,0.35 5.5,0.09 8.98,-3 2.38,-2.11 4.55,-5.35 5.75,-8.63 1.19,-3.24 1.93,-7.84 1.94,-12 0.01,-3.94 -0.72,-8.8 -1.75,-11.67 -0.97,-2.71 -2.88,-5.76 -4.26,-6.79 -1.37,-1.02 -2.81,-1.84 -3.18,-1.82 -0.38,0.01 -2.73,1.72 -5.23,3.78 z m -39.49,30.46 c -1.32,0.71 -4.7,4.62 -7.5,8.69 -3.83,5.54 -6.72,8.44 -11.6,11.6 -3.58,2.32 -7.52,5.29 -8.77,6.61 -1.58,1.66 -2.34,3.79 -2.5,6.99 -0.13,2.53 0.33,5.68 1.02,7 0.69,1.32 2.94,3.4 5,4.62 2.06,1.22 5.21,2.23 7,2.25 1.79,0.02 5.16,-0.9 7.5,-2.05 3.52,-1.71 4.77,-1.88 7.25,-0.98 1.65,0.6 5.25,1.1 8,1.12 4.12,0.02 5.57,0.54 8.25,2.98 1.8,1.64 4.92,3.24 7,3.59 2.06,0.34 5.55,0.37 7.75,0.07 2.91,-0.41 4.75,-1.47 6.76,-3.88 2.22,-2.66 2.76,-4.31 2.74,-8.32 -0.01,-3.22 -0.91,-6.87 -2.51,-10.25 -1.37,-2.89 -4.69,-7.39 -7.38,-10 -3.71,-3.6 -5.27,-6.08 -6.47,-10.25 -0.88,-3.04 -2.75,-6.62 -4.2,-8 -2.11,-2.02 -3.8,-2.56 -8.78,-2.79 -3.68,-0.17 -7.13,0.23 -8.56,1 z"
           style="fill:#333333;fill-opacity:1"
           sodipodi:nodetypes="scccccscscsscssccscccscsccccccccccccccscccscccccsccscccscccccssscccccccccsccsc" />
        <path
           style="fill:#333333;fill-opacity:1;stroke:none;stroke-width:1px;stroke-linecap:butt;stroke-linejoin:miter;stroke-opacity:1"
           d="m 714.16059,2522.511 -0.11679,8.2919 3.62043,0.1168 c 0,0 -1.28467,-5.1387 -3.50364,-8.4087 z"
           id="path4455" />
        <path
           style="fill:#333333;fill-opacity:1;stroke:none;stroke-width:1px;stroke-linecap:butt;stroke-linejoin:miter;stroke-opacity:1"
           d="m 641.0511,2521.6934 c 0,0 0.72652,7.1795 -1.0511,7.3577 -0.14598,0.015 2.68613,1.0511 2.68613,1.0511 0,0 1.16789,-3.854 -1.63503,-8.4088 z"
           id="path4457"
           sodipodi:nodetypes="cscc" />
        <path
           style="fill:#333333;fill-opacity:1;stroke:none;stroke-width:1px;stroke-linecap:butt;stroke-linejoin:miter;stroke-opacity:1"
           d="m 667.51073,2482.4148 c 0,0 -0.30467,4.3066 -0.75743,3.8538 -0.25366,-0.2408 -0.54054,0.6616 -0.46841,1.3079 0.1258,1.1272 0.30017,1.4693 1.59832,0.9637 0.28159,-2.5177 -0.37248,-6.1254 -0.37248,-6.1254 z"
           id="path4459"
           sodipodi:nodetypes="ccscc" />
        <path
           style="fill:#333333;fill-opacity:1;stroke:none;stroke-width:1px;stroke-linecap:butt;stroke-linejoin:miter;stroke-opacity:1"
           d="m 688.37956,2484.2044 c 0,0 0.0584,6.6277 0.93431,7.416 0.87591,0.7884 2.65693,-1.5182 2.54015,-2.1897 -0.11679,-0.6716 -3.47446,-5.2263 -3.47446,-5.2263 z"
           id="path4461" />
      </g>
    </g>
    <path
       style="color:#000000;font-style:normal;font-variant:normal;font-weight:normal;font-stretch:normal;font-size:medium;line-height:normal;font-family:sans-serif;font-variant-ligatures:normal;font-variant-position:normal;font-variant-caps:normal;font-variant-numeric:normal;font-variant-alternates:normal;font-variant-east-asian:normal;font-feature-settings:normal;font-variation-settings:normal;text-indent:0;text-align:start;text-decoration:none;text-decoration-line:none;text-decoration-style:solid;text-decoration-color:#000000;letter-spacing:normal;word-spacing:normal;text-transform:none;writing-mode:lr-tb;direction:ltr;text-orientation:mixed;dominant-baseline:auto;baseline-shift:baseline;text-anchor:start;white-space:normal;shape-padding:0;shape-margin:0;inline-size:0;clip-rule:nonzero;display:inline;overflow:visible;visibility:visible;opacity:1;isolation:auto;mix-blend-mode:normal;color-interpolation:sRGB;color-interpolation-filters:linearRGB;solid-color:#000000;solid-opacity:1;vector-effect:none;fill:#333333;fill-opacity:1;fill-rule:nonzero;stroke:none;stroke-linecap:butt;stroke-linejoin:miter;stroke-miterlimit:4;stroke-dasharray:none;stroke-dashoffset:0;stroke-opacity:1;color-rendering:auto;image-rendering:auto;shape-rendering:auto;text-rendering:auto;enable-background:accumulate;stop-color:#000000;stop-opacity:1"
       d="m 720.51172,2483.0176 v 1 h 82.49219 v 51.4863 h 1 v -52.4863 z"
       id="path4493" />
    <path
       style="color:#000000;font-style:normal;font-variant:normal;font-weight:normal;font-stretch:normal;font-size:medium;line-height:normal;font-family:sans-serif;font-variant-ligatures:normal;font-variant-position:normal;font-variant-caps:normal;font-variant-numeric:normal;font-variant-alternates:normal;font-variant-east-asian:normal;font-feature-settings:normal;font-variation-settings:normal;text-indent:0;text-align:start;text-decoration:none;text-decoration-line:none;text-decoration-style:solid;text-decoration-color:#000000;letter-spacing:normal;word-spacing:normal;text-transform:none;writing-mode:lr-tb;direction:ltr;text-orientation:mixed;dominant-baseline:auto;baseline-shift:baseline;text-anchor:start;white-space:normal;shape-padding:0;shape-margin:0;inline-size:0;clip-rule:nonzero;display:inline;overflow:visible;visibility:visible;opacity:1;isolation:auto;mix-blend-mode:normal;color-interpolation:sRGB;color-interpolation-filters:linearRGB;solid-color:#000000;solid-opacity:1;vector-effect:none;fill:#333333;fill-opacity:1;fill-rule:nonzero;stroke:none;stroke-linecap:butt;stroke-linejoin:miter;stroke-miterlimit:4;stroke-dasharray:none;stroke-dashoffset:0;stroke-opacity:1;color-rendering:auto;image-rendering:auto;shape-rendering:auto;text-rendering:auto;enable-background:accumulate;stop-color:#000000;stop-opacity:1"
       d="m 803.00391,2568.5176 v 54.4414 h -82.58008 v 1 h 83.58008 v -55.4414 z"
       id="path4495" />
  </g>
</svg>
