<?xml version="1.0" encoding="UTF-8" standalone="no"?>
<svg
   xmlns:dc="http://purl.org/dc/elements/1.1/"
   xmlns:cc="http://creativecommons.org/ns#"
   xmlns:rdf="http://www.w3.org/1999/02/22-rdf-syntax-ns#"
   xmlns:svg="http://www.w3.org/2000/svg"
   xmlns="http://www.w3.org/2000/svg"
   xmlns:sodipodi="http://sodipodi.sourceforge.net/DTD/sodipodi-0.dtd"
   xmlns:inkscape="http://www.inkscape.org/namespaces/inkscape"
   version="1.1"
   id="svg10"
   width="512"
   height="512"
   viewBox="0 0 512 512"
   sodipodi:docname="crow.svg"
   inkscape:version="1.0.2 (e86c870879, 2021-01-15, custom)">
  <metadata
     id="metadata16">
    <rdf:RDF>
      <cc:Work
         rdf:about="">
        <dc:format>image/svg+xml</dc:format>
        <dc:type
           rdf:resource="http://purl.org/dc/dcmitype/StillImage" />
        <dc:title></dc:title>
      </cc:Work>
    </rdf:RDF>
  </metadata>
  <defs
     id="defs14" />
  <sodipodi:namedview
     pagecolor="#ffffff"
     bordercolor="#666666"
     borderopacity="1"
     objecttolerance="10"
     gridtolerance="10"
     guidetolerance="10"
     inkscape:pageopacity="0"
     inkscape:pageshadow="2"
     inkscape:window-width="1366"
     inkscape:window-height="715"
     id="namedview12"
     showgrid="false"
     inkscape:zoom="0.39271403"
     inkscape:cx="813.88129"
     inkscape:cy="530.00872"
     inkscape:window-x="-8"
     inkscape:window-y="-8"
     inkscape:window-maximized="1"
     inkscape:current-layer="g18"
     inkscape:document-rotation="0" />
  <g
     inkscape:groupmode="layer"
     inkscape:label="Image"
     id="g18">
    <path
       id="path1204"
       style="fill:#333333;fill-opacity:1;stroke:none;stroke-width:2.66212px;stroke-linecap:butt;stroke-linejoin:miter;stroke-opacity:1"
       d="m 209.98293,94.629885 v 2.6621 H 358.68801 V 221.33495 h 2.6621 V 94.629885 Z m -57.61524,0.74414 -5.61523,7.095695 -0.10352,15.35548 c 0,0 3.17703,2.54186 6.56641,0.52929 3.38938,-2.01245 2.64648,-14.18946 2.64648,-14.18946 z m -0.95117,34.736315 c -7.78914,0.2996 -8.69067,13.78227 -8.99023,16.47852 -0.2996,2.69624 -0.89889,10.18522 -1.49805,14.97852 -0.59917,4.79333 0.90039,71.90111 0.90039,75.49609 0,3.59497 -0.59766,10.48242 -0.59766,10.48242 -0.19966,2.29549 -0.86863,5.15343 -3.46875,2.67188 -2.60011,-2.48154 -8.83481,-12.22415 -18.97265,-24.67188 -16.73508,-20.54813 -27.535163,-37.70507 -27.535163,-37.70507 0,0 -11.65014,-16.31494 -14.93359,-18.9629 0,0 -1.37951,-0.81856 -3.3125,-0.88476 -1.93301,-0.0663 -4.42025,0.62194 -6.64453,3.64062 -4.44858,6.03733 -2.1211,8.89649 -2.1211,8.89649 0,0 14.9387,31.24779 37.181643,59.8457 22.2428,28.59792 25.83985,27.96289 25.83985,27.96289 0,0 6.35463,5.08032 12.07422,0.41992 4.18021,-3.4061 3.15709,-9.15606 2.30273,-12.02148 0.42799,0.2561 0.81662,0.56948 1.08789,1.00977 1.69643,2.75358 13.3457,2.11523 13.3457,2.11523 0,0 -0.84785,8.04981 6.56641,8.26172 7.41429,0.2119 11.86523,-4.65821 11.86523,-4.65821 l 16.73243,-24.78515 c 0,0 42.3669,-60.58807 44.27343,-63.76563 1.90653,-3.17753 -0.63476,-6.77539 -0.63476,-6.77539 0,0 -4.86993,-1.69605 -6.98828,-1.06055 -2.11835,0.63551 -3.81641,2.11524 -3.81641,2.11524 l -8.46875,10.38476 -2.96875,3.81055 -6.56836,7.83984 -12.70703,13.13477 -18.00586,22.24219 c 0,0 -8.02106,8.12386 -9.95703,11.01367 -1.93592,2.88981 -0.19705,10.82608 -2.59375,5.43359 -2.39667,-5.39246 -0.90039,-14.98047 -0.90039,-14.98046 l -0.89844,-58.7168 1.19531,-25.76367 c 0,0 -2.99409,-13.78199 -10.7832,-13.48243 z m 94.26563,15.25586 c 0,0 -9.43015,6.35369 -10.70118,9.53125 -1.271,3.17755 -1.26873,7.83981 2.22657,6.46289 3.49528,-1.37693 4.87109,-4.98242 4.87109,-4.98242 z m -189.234383,0.62305 c 0,0 -0.89935,4.79623 -0.15039,6.59375 0.74896,1.79748 5.54297,10.18555 5.54297,10.18555 0,0 1.34643,2.99311 2.99414,0.29687 1.64769,-2.69623 0.15232,-7.04101 0.15234,-7.04101 z m 238.068363,93.39844 c -1.73218,0 -3.52971,0.23303 -5.38672,0.70117 -1.84141,0.45256 -3.31784,0.95186 -4.42578,1.49805 v 4.89257 h 0.23438 c 1.48248,-0.96752 3.06267,-1.7155 4.73242,-2.24609 1.66974,-0.53058 3.2421,-0.79492 4.72461,-0.79492 0.96752,0 1.83693,0.0784 2.60156,0.23437 0.76464,0.15605 1.48132,0.43606 2.15234,0.8418 0.63981,0.40573 1.13719,0.93051 1.4961,1.57031 0.35893,0.62421 0.54101,1.35652 0.54101,2.19922 0,1.90381 -0.71081,3.35285 -2.13086,4.35157 -1.40448,0.98311 -3.29011,1.47656 -5.66211,1.47656 h -1.64453 v 3.88476 h 2.11133 c 1.15478,0 2.22978,0.092 3.22852,0.2793 0.9987,0.17166 1.85244,0.50061 2.55468,0.98438 0.70224,0.46816 1.24662,1.11629 1.63672,1.94335 0.40576,0.81147 0.60938,1.84143 0.60938,3.08985 0,1.264 -0.18209,2.30769 -0.54102,3.13476 -0.34331,0.82706 -0.87396,1.58487 -1.5918,2.27149 -0.68661,0.63981 -1.58538,1.12346 -2.69335,1.45117 -1.10795,0.3277 -2.15165,0.49414 -3.13477,0.49414 -1.66976,0 -3.40072,-0.29175 -5.19531,-0.86914 -1.79458,-0.57738 -3.35718,-1.30384 -4.6836,-2.17773 h -0.34765 v 4.89257 c 1.20158,0.54616 2.7387,1.04354 4.61133,1.4961 1.87261,0.46816 3.77396,0.70312 5.70898,0.70312 1.88821,0 3.62309,-0.25454 5.19922,-0.76953 1.59171,-0.53053 2.9683,-1.34122 4.13867,-2.43359 1.04555,-0.98312 1.86207,-2.14233 2.43945,-3.46875 0.57739,-1.32643 0.86133,-2.77937 0.86133,-4.3711 0,-1.60731 -0.23889,-2.92316 -0.72265,-3.9375 -0.48376,-1.01432 -1.10057,-1.85438 -1.84961,-2.52539 -0.67104,-0.59301 -1.49342,-1.0884 -2.46094,-1.47851 -0.96749,-0.40581 -1.82323,-0.67015 -2.57227,-0.79492 V 255.583 c 1.85699,-0.37451 3.46268,-1.27721 4.82032,-2.71289 1.37324,-1.45128 2.0625,-3.14507 2.0625,-5.08008 0,-1.42005 -0.28981,-2.6615 -0.86719,-3.72265 -0.57739,-1.06115 -1.42917,-1.96581 -2.55274,-2.71485 -1.04555,-0.68664 -2.21453,-1.18398 -3.50976,-1.49609 -1.29522,-0.31208 -2.79126,-0.46875 -4.49219,-0.46875 z m 92.6387,0.80078 v 32.32422 h 3.9101 v -17.32422 c 1.0664,-0.81711 2.1784,-1.49128 3.3418,-2.01758 1.1634,-0.52628 2.2773,-0.78515 3.3438,-0.78515 1.0386,0 1.8862,0.14075 2.5371,0.43164 0.6509,0.27699 1.146,0.70736 1.4922,1.28906 0.3324,0.52627 0.5629,1.2633 0.6875,2.20508 0.1246,0.9279 0.1855,1.92381 0.1855,2.99023 v 13.21094 h 3.9063 v -15.0625 c 0,-2.83914 -0.655,-5.00995 -1.9707,-6.51953 -1.3157,-1.50958 -3.2296,-2.26758 -5.7364,-2.26758 -1.3711,0 -2.706,0.28568 -4.0078,0.85351 -1.3019,0.56783 -2.5606,1.36008 -3.7793,2.3711 v -11.69922 z m -60.96878,1.18555 v 4.05078 h 4.40235 v -4.05078 z m 23.57813,7.28906 c -1.37109,0 -2.71182,0.28568 -4.01367,0.85351 -1.30183,0.56783 -2.56053,1.36011 -3.7793,2.3711 v -2.58008 h -3.9043 v 23.20508 h 3.9043 v -17.32422 c 1.06639,-0.81711 2.18431,-1.49128 3.34765,-2.01758 1.16337,-0.52628 2.27733,-0.78515 3.34375,-0.78515 1.0387,0 1.88034,0.14075 2.53125,0.43164 0.65092,0.27699 1.15182,0.70736 1.49805,1.28906 0.33239,0.52627 0.56286,1.2633 0.6875,2.20508 0.12459,0.9279 0.18555,1.92381 0.18555,2.99023 v 13.21094 h 3.90625 v -15.0625 c 0,-2.83914 -0.66086,-5.00995 -1.97656,-6.51953 -1.3157,-1.50958 -3.22371,-2.26758 -5.73047,-2.26758 z m 73.95315,0 c -3.3793,0 -6.1081,1.11985 -8.1856,3.34961 -2.0635,2.22976 -3.0918,5.24041 -3.0918,9.03515 0,3.83627 1.0778,6.80133 3.2383,8.89258 2.1606,2.07744 5.1654,3.11328 9.0156,3.11328 1.5096,0 2.9493,-0.18651 4.3203,-0.56054 1.3711,-0.37392 2.7136,-0.84056 4.0293,-1.39453 v -4.25782 h -0.207 c -0.6786,0.60938 -1.8193,1.23403 -3.4258,1.8711 -1.5927,0.62322 -3.179,0.93554 -4.7578,0.93554 -1.1911,0 -2.284,-0.1656 -3.2812,-0.49804 -0.9833,-0.33239 -1.8385,-0.83327 -2.5586,-1.49805 -0.7479,-0.6786 -1.3324,-1.54117 -1.7617,-2.59375 -0.4294,-1.06639 -0.6446,-2.31178 -0.6446,-3.73828 h 17.0957 v -2.12109 c 0,-3.36542 -0.8492,-5.96094 -2.5527,-7.78907 -1.6896,-1.82813 -4.1024,-2.74609 -7.2324,-2.74609 z m 23.6211,0.084 c -1.4819,0 -2.8244,0.19416 -4.0293,0.58203 -1.191,0.37395 -2.1736,0.88813 -2.9493,1.53907 -0.8033,0.66476 -1.4069,1.41693 -1.8085,2.26172 -0.3878,0.84483 -0.5821,1.74753 -0.5821,2.70312 0,1.52345 0.4228,2.81073 1.2676,3.86328 0.8587,1.03868 2.3059,1.8251 4.3418,2.36524 0.734,0.19381 1.5472,0.37484 2.4336,0.54101 0.9002,0.16612 1.6237,0.31286 2.1777,0.4375 1.4957,0.33239 2.5051,0.73616 3.0313,1.20703 0.5263,0.47088 0.791,1.16016 0.791,2.07422 0,1.19106 -0.4817,2.06515 -1.4512,2.61914 -0.9694,0.55396 -2.3177,0.83203 -4.0351,0.83203 -1.3849,0 -2.8322,-0.2704 -4.3418,-0.81053 -1.5096,-0.55396 -2.8788,-1.29673 -4.1114,-2.22461 h -0.2089 v 4.3828 c 0.9694,0.48473 2.1711,0.93608 3.5976,1.35156 1.4403,0.40163 3.0209,0.60352 4.7383,0.60352 3.033,0 5.4191,-0.68181 7.1641,-2.03906 1.7589,-1.35722 2.6367,-3.09002 2.6367,-5.20898 0,-1.68962 -0.4894,-3.05133 -1.4727,-4.07618 -0.9833,-1.01102 -2.381,-1.72119 -4.1953,-2.13671 -0.5955,-0.13843 -1.3459,-0.29277 -2.2461,-0.45898 -0.8864,-0.16612 -1.688,-0.33186 -2.4082,-0.49806 -1.3018,-0.30471 -2.2464,-0.70079 -2.8281,-1.18555 -0.5955,-0.48472 -0.8945,-1.20258 -0.8945,-2.1582 0,-1.08025 0.4931,-1.89345 1.4765,-2.43359 0.9833,-0.55399 2.1888,-0.82618 3.6153,-0.82618 1.3711,0 2.7689,0.25114 4.1953,0.76368 1.4265,0.4986 2.6415,1.11757 3.6386,1.85156 h 0.209 v -4.17578 c -0.9417,-0.48472 -2.1301,-0.89418 -3.5566,-1.22657 -1.4126,-0.34623 -2.8104,-0.51953 -4.1953,-0.51953 z m -72.627,0.0195 c -3.4208,0 -6.17632,1.08558 -8.26757,3.2461 -2.07744,2.16052 -3.11328,5.13693 -3.11328,8.93164 0,2.03591 0.27219,3.81642 0.82617,5.33984 0.55396,1.52345 1.33859,2.78215 2.34961,3.7793 0.99715,0.99718 2.19497,1.74363 3.59377,2.24219 1.3988,0.48475 2.9355,0.72851 4.6113,0.72851 1.3157,0 2.5555,-0.17517 3.7188,-0.52148 1.1772,-0.34624 2.415,-0.82602 3.7168,-1.44922 v -4.30664 h -0.2032 c -0.2908,0.23533 -0.687,0.52115 -1.1855,0.85351 -0.4986,0.31855 -1.0337,0.62321 -1.6016,0.91407 -0.6509,0.33237 -1.3821,0.60475 -2.1992,0.8125 -0.8172,0.20765 -1.6226,0.31054 -2.4121,0.31054 -2.2713,0 -4.0385,-0.75036 -5.29883,-2.24609 -1.24646,-1.50958 -1.86524,-3.65941 -1.86524,-6.45703 0,-2.88062 0.63406,-5.06499 1.90821,-6.54688 1.28796,-1.49574 3.03996,-2.24023 5.25586,-2.24023 1.2049,0 2.437,0.24571 3.6973,0.74414 1.2742,0.49859 2.5101,1.21465 3.7011,2.14258 h 0.2032 v -4.3418 c -1.0664,-0.54014 -2.2433,-0.99913 -3.5313,-1.37305 -1.2741,-0.37392 -2.5747,-0.5625 -3.9043,-0.5625 z m -48.27733,0.54102 v 23.20508 h 3.90625 V 249.3076 Z m 97.07423,2.58008 c 2.0774,0 3.6218,0.55787 4.6328,1.67969 1.0249,1.12182 1.5467,2.70614 1.5605,4.75586 h -13.2949 c 0.1661,-1.82813 0.867,-3.35724 2.0996,-4.58985 1.2465,-1.23261 2.9107,-1.8457 5.002,-1.8457 z m -283.72462,30.15429 c -0.13811,0.004 -0.28644,0.0244 -0.44531,0.0645 -2.54203,0.63553 -2.75,6.35351 -2.75,6.35351 0,0 0.84264,34.95454 8.46875,52.11329 0,0 5.29711,34.95357 13.98242,36.2246 8.68529,1.27103 11.65039,-2.12109 11.65039,-2.12109 0,0 2.75555,-2.32723 1.9082,-15.88477 -0.84735,-13.55751 -4.6582,-22.45507 -4.6582,-22.45507 l -1.27344,-12.5 -2.33008,-6.98828 -0.84765,-9.32227 0.63476,-17.37109 c 0,0 1.69627,-8.04883 -6.35351,-8.04883 -8.04979,0 -6.56723,4.87379 -11.43946,4.23828 -4.26322,-0.55606 -4.47165,-3.86979 -6.16015,-4.26367 -0.1206,-0.0281 -0.24861,-0.0426 -0.38672,-0.0391 z m 218.9043,27.4961 V 414.708 H 210.72707 v 2.66211 H 361.35011 V 309.53808 Z m -190.43165,79.01562 c -2.75388,0.21191 -3.17773,4.13086 -3.17773,4.13086 l 0.21094,10.80274 c 0,0 2.33069,2.22537 2.64844,4.34375 0.31777,2.11835 3.17685,1.48187 3.38867,-0.21289 0.21191,-1.69467 1.06085,-7.41249 0.53125,-15.14453 0,0 -0.84772,-4.13175 -3.60157,-3.91993 z" />
  </g>
</svg>
