<?xml version="1.0" encoding="UTF-8" standalone="no"?>
<svg
   xmlns:dc="http://purl.org/dc/elements/1.1/"
   xmlns:cc="http://creativecommons.org/ns#"
   xmlns:rdf="http://www.w3.org/1999/02/22-rdf-syntax-ns#"
   xmlns:svg="http://www.w3.org/2000/svg"
   xmlns="http://www.w3.org/2000/svg"
   xmlns:sodipodi="http://sodipodi.sourceforge.net/DTD/sodipodi-0.dtd"
   xmlns:inkscape="http://www.inkscape.org/namespaces/inkscape"
   viewBox="0 0 512 512"
   width="512"
   height="512"
   version="1.1"
   id="svg125"
   sodipodi:docname="domestic-dog.svg"
   inkscape:version="1.0.2 (e86c870879, 2021-01-15, custom)">
  <sodipodi:namedview
     pagecolor="#ffffff"
     bordercolor="#666666"
     borderopacity="1"
     objecttolerance="10"
     gridtolerance="10"
     guidetolerance="10"
     inkscape:pageopacity="0"
     inkscape:pageshadow="2"
     inkscape:window-width="1366"
     inkscape:window-height="715"
     id="namedview3602"
     showgrid="false"
     inkscape:zoom="0.37841261"
     inkscape:cx="145.79428"
     inkscape:cy="323.89728"
     inkscape:window-x="-8"
     inkscape:window-y="-8"
     inkscape:window-maximized="1"
     inkscape:current-layer="svg125" />
  <metadata
     id="metadata131">
    <rdf:RDF>
      <cc:Work
         rdf:about="">
        <dc:format>image/svg+xml</dc:format>
        <dc:type
           rdf:resource="http://purl.org/dc/dcmitype/StillImage" />
        <dc:title></dc:title>
      </cc:Work>
    </rdf:RDF>
  </metadata>
  <defs
     id="defs129" />
  <style
     id="style2">
		tspan { white-space:pre }
		.shp0 { fill: #e7d5b8 } 
		.shp1 { fill: #15120f } 
	</style>
  <g
     id="g4453"
     transform="matrix(1.9259669,0,0,1.9259669,75.136383,-726.99388)">
    <path
       id="Path 61"
       class="shp1"
       d="m 22.17458,462.3955 c -1.56,0.96 -3.96,4.16 -5.42,7.22 -2.36,4.95 -2.58,6.35 -2.16,14 0.3,5.57 1.07,9.54 2.21,11.5 0.96,1.65 2.74,3.62 3.96,4.37 1.21,0.75 4,1.37 6.2,1.37 2.2,0.01 5.33,-0.61 6.95,-1.37 1.62,-0.75 3.86,-2.94 4.98,-4.87 1.62,-2.81 2.02,-5.27 2.02,-12.5 0,-4.95 -0.52,-10.57 -1.16,-12.5 -0.64,-1.93 -2.54,-4.74 -4.23,-6.25 -2.21,-1.98 -4.1,-2.74 -6.81,-2.72 -2.06,0.01 -5.01,0.8 -6.54,1.75 z m 32.79,3.78 c -2.2,1.41 -4.96,3.99 -6.13,5.75 -1.18,1.75 -2.64,6 -3.25,9.44 -0.62,3.44 -0.83,7.94 -0.47,10 0.36,2.06 1.37,4.78 2.25,6.04 0.88,1.27 2.95,2.74 4.6,3.27 1.65,0.54 4.51,0.97 6.35,0.96 2.43,-0.02 4.24,-0.91 6.59,-3.27 1.78,-1.79 4.21,-5.84 5.4,-9 1.19,-3.16 2.16,-7.21 2.15,-9 0,-1.79 -0.45,-4.94 -1,-7 -0.54,-2.06 -2.11,-5.1 -3.49,-6.75 -1.84,-2.21 -3.36,-3 -5.75,-3 -1.79,0 -5.05,1.15 -7.25,2.56 z m -58.61,27.52 c -0.88,0.57 -2.65,2.92 -3.94,5.22 -1.81,3.27 -2.34,5.76 -2.35,11.2 -0.02,4.75 0.49,7.8 1.58,9.5 0.88,1.38 4.02,5.08 6.96,8.24 3.43,3.67 6.17,5.74 7.61,5.75 1.42,0.01 4.19,-1.99 7.5,-5.39 2.89,-2.97 6.32,-7.36 7.64,-9.75 1.59,-2.91 2.18,-5.18 1.77,-6.85 -0.34,-1.37 -2.99,-5.02 -5.89,-8.11 -2.9,-3.08 -7.07,-6.8 -9.27,-8.25 -2.2,-1.46 -5.35,-2.63 -7,-2.61 -1.65,0.01 -3.72,0.49 -4.61,1.05 z m 84.61,2.05 c -1.65,1.17 -4.24,3.87 -5.75,6 -1.51,2.13 -5.06,5.56 -7.88,7.62 -2.83,2.06 -5.53,4.54 -6,5.5 -0.48,0.96 -0.87,2.76 -0.87,4 0.01,1.24 0.82,3.6 1.81,5.25 1,1.65 3.47,3.79 5.5,4.75 2.03,0.96 5.49,1.75 7.69,1.75 2.2,0 5.69,-0.86 7.75,-1.9 2.06,-1.05 4.73,-2.96 5.93,-4.25 1.2,-1.29 2.69,-3.7 3.31,-5.35 0.61,-1.65 1.14,-6.15 1.18,-10 0.03,-3.85 -0.5,-8.12 -1.18,-9.5 -0.69,-1.37 -1.98,-3.3 -2.87,-4.28 -0.89,-0.98 -2.52,-1.77 -3.62,-1.76 -1.1,0.02 -3.35,0.99 -5,2.17 z m -43.21,24.87 c -2.08,0.97 -5.41,3.5 -7.4,5.63 -1.98,2.13 -5.1,6.12 -6.94,8.87 -1.83,2.75 -4.26,5.66 -5.39,6.46 -1.13,0.8 -3.3,2.71 -4.81,4.25 -2.29,2.32 -2.75,3.68 -2.78,8.04 -0.02,3.82 0.6,6.2 2.27,8.75 1.26,1.93 4.08,4.36 6.27,5.4 3.29,1.57 4.69,1.73 7.99,0.9 3.05,-0.77 4.83,-0.67 7.5,0.42 2.26,0.93 5.18,1.23 8.25,0.86 3.34,-0.41 5.71,-0.1 8,1.04 1.79,0.89 5.27,1.6 7.75,1.57 2.48,-0.04 5.63,-0.49 7,-1.02 1.38,-0.53 3.49,-2.02 4.69,-3.31 1.21,-1.3 2.9,-4.05 3.75,-6.11 0.86,-2.06 1.58,-5.44 1.6,-7.5 0.04,-3.32 -0.86,-4.73 -7.79,-12.25 -4.31,-4.68 -9.5,-11.09 -11.54,-14.25 -2.04,-3.16 -4.72,-6.27 -5.96,-6.91 -1.24,-0.65 -3.69,-1.49 -5.46,-1.88 -2.21,-0.49 -4.38,-0.17 -7,1.04 z"
       style="fill:#333333;fill-opacity:1"
       sodipodi:nodetypes="ccccccccsscccsccsccccscccssccccccccccccccsccccsscscccscccccsccccccccccccccsccc" />
    <g
       aria-label="inches"
       id="text2538-7-9-6-4-9-4-2-5"
       style="font-style:normal;font-weight:normal;font-size:16.366px;line-height:1.25;font-family:sans-serif;fill:#333333;fill-opacity:1;stroke:none;stroke-width:0.409151"
       transform="translate(-331.53542,-2051.3845)">
      <path
         d="m 481.04438,2558.7535 h -1.69414 v -1.5583 h 1.69414 z m -0.0959,10.4206 h -1.50235 v -8.9262 h 1.50235 z"
         style="white-space:pre;fill:#333333;fill-opacity:1;stroke-width:0.409151"
         id="path3262" />
      <path
         d="m 491.38501,2569.1741 h -1.50235 v -5.0824 q 0,-0.6154 -0.0719,-1.1508 -0.0719,-0.5434 -0.26371,-0.847 -0.19978,-0.3357 -0.57537,-0.4955 -0.37559,-0.1678 -0.97493,-0.1678 -0.61532,0 -1.28658,0.3037 -0.67126,0.3036 -1.28659,0.7751 v 6.6647 h -1.50234 v -8.9262 h 1.50234 v 0.9909 q 0.70323,-0.5834 1.4544,-0.911 0.75118,-0.3276 1.54231,-0.3276 1.44641,0 2.20557,0.871 0.75917,0.871 0.75917,2.5092 z"
         style="white-space:pre;fill:#333333;fill-opacity:1;stroke-width:0.409151"
         id="path3264" />
      <path
         d="m 500.87857,2568.6147 q -0.75118,0.3596 -1.43043,0.5594 -0.67126,0.1998 -1.43043,0.1998 -0.96693,0 -1.77405,-0.2797 -0.80711,-0.2877 -1.38248,-0.8631 -0.58335,-0.5754 -0.903,-1.4544 -0.31965,-0.879 -0.31965,-2.0537 0,-2.1896 1.19868,-3.4363 1.20667,-1.2466 3.1805,-1.2466 0.76716,0 1.50235,0.2158 0.74318,0.2157 1.35851,0.5274 v 1.6702 h -0.0799 q -0.68724,-0.5354 -1.42243,-0.8231 -0.7272,-0.2877 -1.42244,-0.2877 -1.27859,0 -2.02177,0.863 -0.7352,0.8551 -0.7352,2.5173 0,1.6142 0.71921,2.4852 0.7272,0.8631 2.03776,0.8631 0.4555,0 0.92698,-0.1199 0.47148,-0.1199 0.84707,-0.3116 0.32764,-0.1679 0.61532,-0.3517 0.28769,-0.1917 0.4555,-0.3276 h 0.0799 z"
         style="white-space:pre;fill:#333333;fill-opacity:1;stroke-width:0.409151"
         id="path3266" />
      <path
         d="m 510.26824,2569.1741 h -1.50235 v -5.0824 q 0,-0.6154 -0.0719,-1.1508 -0.0719,-0.5434 -0.26371,-0.847 -0.19978,-0.3357 -0.57537,-0.4955 -0.37559,-0.1678 -0.97493,-0.1678 -0.61532,0 -1.28658,0.3037 -0.67126,0.3036 -1.28659,0.7751 v 6.6647 h -1.50234 v -12.4344 h 1.50234 v 4.4991 q 0.70323,-0.5834 1.4544,-0.911 0.75118,-0.3276 1.54231,-0.3276 1.44641,0 2.20557,0.871 0.75917,0.871 0.75917,2.5092 z"
         style="white-space:pre;fill:#333333;fill-opacity:1;stroke-width:0.409151"
         id="path3268" />
      <path
         d="m 520.63284,2564.8668 h -6.57677 q 0,0.8231 0.24773,1.4384 0.24773,0.6074 0.67925,0.9989 0.41554,0.3836 0.98292,0.5754 0.57537,0.1918 1.26261,0.1918 0.911,0 1.82999,-0.3596 0.92698,-0.3676 1.31855,-0.7192 h 0.0799 v 1.6382 q -0.75916,0.3196 -1.55029,0.5354 -0.79113,0.2157 -1.66218,0.2157 -2.22155,0 -3.46818,-1.1986 -1.24663,-1.2067 -1.24663,-3.4203 0,-2.1896 1.19069,-3.4762 1.19868,-1.2865 3.14854,-1.2865 1.80601,0 2.78094,1.0548 0.98292,1.0548 0.98292,2.9967 z m -1.46239,-1.1507 q -0.008,-1.1827 -0.59934,-1.83 -0.58336,-0.6473 -1.78204,-0.6473 -1.20668,0 -1.92589,0.7112 -0.71121,0.7112 -0.80711,1.7661 z"
         style="white-space:pre;fill:#333333;fill-opacity:1;stroke-width:0.409151"
         id="path3270" />
      <path
         d="m 529.28732,2566.6009 q 0,1.2227 -1.01488,2.0058 -1.0069,0.7831 -2.75697,0.7831 -0.99091,0 -1.822,-0.2317 -0.82309,-0.2397 -1.38248,-0.5194 v -1.6862 h 0.0799 q 0.71121,0.5354 1.58226,0.8551 0.87104,0.3116 1.67016,0.3116 0.99091,0 1.55029,-0.3196 0.55939,-0.3197 0.55939,-1.0069 0,-0.5274 -0.30367,-0.7991 -0.30366,-0.2717 -1.16671,-0.4635 -0.31965,-0.072 -0.83908,-0.1678 -0.51144,-0.096 -0.93497,-0.2078 -1.17471,-0.3117 -1.67017,-0.911 -0.48746,-0.6073 -0.48746,-1.4864 0,-0.5514 0.22375,-1.0388 0.23175,-0.4875 0.69524,-0.8711 0.44751,-0.3756 1.13475,-0.5913 0.69524,-0.2238 1.5503,-0.2238 0.79912,0 1.61422,0.1998 0.8231,0.1918 1.3665,0.4715 v 1.6062 h -0.0799 q -0.57537,-0.4235 -1.39847,-0.7112 -0.82309,-0.2957 -1.61422,-0.2957 -0.8231,0 -1.39047,0.3197 -0.56738,0.3116 -0.56738,0.9349 0,0.5514 0.34362,0.8311 0.33564,0.2797 1.08681,0.4555 0.41554,0.096 0.92698,0.1918 0.51943,0.096 0.86305,0.1758 1.04685,0.2398 1.61423,0.8231 0.56737,0.5914 0.56737,1.5663 z"
         style="white-space:pre;fill:#333333;fill-opacity:1;stroke-width:0.409151"
         id="path3272" />
    </g>
    <text
       xml:space="preserve"
       style="font-style:normal;font-weight:normal;font-size:19.0998px;line-height:1.25;font-family:sans-serif;fill:#333333;fill-opacity:1;stroke:none;stroke-width:0.477494"
       x="129.77019"
       y="518.30884"
       id="text3525-82"><tspan
         id="tspan3523-3"
         x="129.77019"
         y="518.30884"
         style="fill:#333333;fill-opacity:1;stroke-width:0.477494">3</tspan></text>
    <path
       style="fill:#333333;fill-opacity:1;stroke:none;stroke-width:1px;stroke-linecap:butt;stroke-linejoin:miter;stroke-opacity:1"
       d="m -2.03398,479.3352 c 0,0 -5.03749,9.6621 -0.24775,10.075 4.78975,0.4129 0.24775,-10.075 0.24775,-10.075 z"
       id="path4316" />
    <path
       style="fill:#333333;fill-opacity:1;stroke:none;stroke-width:0.955276px;stroke-linecap:butt;stroke-linejoin:miter;stroke-opacity:1"
       d="m 85.36272,482.5383 c 0,0 -5.8805,8.2787 -1.15106,9.1249 4.72944,0.8462 1.15106,-9.1249 1.15106,-9.1249 z"
       id="path4316-9" />
    <path
       style="fill:#333333;fill-opacity:1;stroke:none;stroke-width:1px;stroke-linecap:butt;stroke-linejoin:miter;stroke-opacity:1"
       d="m 57.90537,450.7452 c 0,0 -2.97522,10.4824 1.79883,9.9162 4.77406,-0.5662 -1.79883,-9.9162 -1.79883,-9.9162 z"
       id="path4316-8" />
    <path
       style="fill:#333333;fill-opacity:1;stroke:none;stroke-width:1px;stroke-linecap:butt;stroke-linejoin:miter;stroke-opacity:1"
       d="m 30.97553,447.9732 c 0,0 -3.09489,6.5401 -2.33577,7.8248 0.75912,1.2846 5.34118,1.1781 5.72263,0.2043 0.52216,-1.3329 -3.38686,-8.0291 -3.38686,-8.0291 z"
       id="path4347"
       sodipodi:nodetypes="cssc" />
    <path
       style="fill:none;stroke:#333333;stroke-width:1px;stroke-linecap:butt;stroke-linejoin:miter;stroke-opacity:1"
       d="m 73.92444,451.0973 h 90.02919 v 46.0438"
       id="path4349" />
    <path
       style="fill:none;stroke:#333333;stroke-width:1px;stroke-linecap:butt;stroke-linejoin:miter;stroke-opacity:1"
       d="m 163.95363,531.1703 v 39.9708 H 90.07571"
       id="path4351" />
  </g>
</svg>
