<?xml version="1.0" encoding="UTF-8" standalone="no"?>
<svg
   xmlns:dc="http://purl.org/dc/elements/1.1/"
   xmlns:cc="http://creativecommons.org/ns#"
   xmlns:rdf="http://www.w3.org/1999/02/22-rdf-syntax-ns#"
   xmlns:svg="http://www.w3.org/2000/svg"
   xmlns="http://www.w3.org/2000/svg"
   xmlns:sodipodi="http://sodipodi.sourceforge.net/DTD/sodipodi-0.dtd"
   xmlns:inkscape="http://www.inkscape.org/namespaces/inkscape"
   viewBox="0 0 512 512"
   width="512"
   height="512"
   version="1.1"
   id="svg125"
   sodipodi:docname="domestic-cat.svg"
   inkscape:version="1.0.2 (e86c870879, 2021-01-15, custom)">
  <sodipodi:namedview
     pagecolor="#ffffff"
     bordercolor="#666666"
     borderopacity="1"
     objecttolerance="10"
     gridtolerance="10"
     guidetolerance="10"
     inkscape:pageopacity="0"
     inkscape:pageshadow="2"
     inkscape:window-width="1366"
     inkscape:window-height="715"
     id="namedview1969"
     showgrid="false"
     inkscape:zoom="0.033447266"
     inkscape:cx="-718.71659"
     inkscape:cy="2058.4931"
     inkscape:window-x="-8"
     inkscape:window-y="-8"
     inkscape:window-maximized="1"
     inkscape:current-layer="svg125" />
  <metadata
     id="metadata131">
    <rdf:RDF>
      <cc:Work
         rdf:about="">
        <dc:format>image/svg+xml</dc:format>
        <dc:type
           rdf:resource="http://purl.org/dc/dcmitype/StillImage" />
        <dc:title></dc:title>
      </cc:Work>
    </rdf:RDF>
  </metadata>
  <defs
     id="defs129" />
  <style
     id="style2">
		tspan { white-space:pre }
		.shp0 { fill: #e7d5b8 } 
		.shp1 { fill: #15120f } 
	</style>
  <g
     id="g2860"
     transform="matrix(3.8988062,0,0,3.8988062,-3039.7295,-7444.0851)">
    <path
       id="Path 47"
       class="shp1"
       d="m 816.18,1958.75 c -1.16,2.06 -2.13,4.76 -2.15,6 -0.02,1.24 0.64,2.92 1.47,3.75 0.83,0.83 2.85,1.5 4.5,1.5 1.78,0 3.2,-0.61 3.5,-1.5 0.27,-0.83 0.5,-3.08 0.5,-5 0,-1.92 -0.45,-4.62 -1,-6 -0.56,-1.41 -1.81,-2.5 -2.85,-2.5 -1.1,0 -2.71,1.53 -3.97,3.75 z m -11.28,1.62 c -1.23,1.85 -2.17,4.44 -2.09,5.75 0.09,1.31 0.73,3.2 1.42,4.2 0.91,1.29 2.27,1.72 4.77,1.5 3.38,-0.31 3.51,-0.47 3.81,-4.82 0.17,-2.47 -0.17,-5.74 -0.75,-7.25 -0.65,-1.69 -1.81,-2.75 -2.99,-2.75 -1.09,0 -2.92,1.48 -4.17,3.37 z m 22.18,6.83 c -1.18,1.26 -2.56,3.88 -3.06,5.8 -0.57,2.16 -0.55,4.17 0.03,5.25 0.52,0.96 1.96,2.02 3.2,2.35 1.24,0.33 3.26,0.11 4.5,-0.5 1.81,-0.89 2.25,-1.93 2.24,-5.35 -0.01,-2.34 -0.58,-5.34 -1.25,-6.67 -0.68,-1.33 -1.75,-2.59 -2.37,-2.8 -0.62,-0.22 -2.1,0.65 -3.29,1.92 z m -29.28,1.53 c -0.85,0.97 -2.05,2.78 -2.67,4.02 -0.62,1.24 -1.12,3.49 -1.11,5 0,1.51 0.34,3.24 0.75,3.85 0.4,0.6 1.86,1.37 3.23,1.71 1.38,0.33 3.06,0.29 3.75,-0.1 0.68,-0.39 1.5,-2.29 1.82,-4.21 0.32,-1.92 -0.02,-5.27 -0.75,-7.42 -0.72,-2.16 -1.8,-4.08 -2.39,-4.28 -0.59,-0.19 -1.77,0.45 -2.63,1.43 z m 19.25,7.2 c -0.8,0.49 -2.86,0.65 -4.58,0.36 -2.94,-0.5 -3.21,-0.28 -4.47,3.65 -0.74,2.3 -2.17,4.6 -3.17,5.12 -1.01,0.52 -2.28,1.84 -2.83,2.94 -0.67,1.33 -0.67,2.83 0,4.5 0.98,2.46 1.18,2.5 11.75,2.4 5.91,-0.06 11.54,-0.28 12.5,-0.5 1.13,-0.26 1.96,-1.72 2.36,-4.15 0.53,-3.31 0.24,-4.07 -2.5,-6.5 -1.71,-1.51 -3.1,-3.31 -3.08,-4 0.02,-0.69 -0.77,-2.03 -1.75,-2.97 -0.98,-0.95 -2.01,-1.73 -2.28,-1.74 -0.27,0 -1.15,0.39 -1.95,0.89 z"
       style="fill:#333333;fill-opacity:1"
       sodipodi:nodetypes="cssscscscccccscsccccsscccccsccccscccccccccccccsccc" />
    <g
       aria-label="inch"
       id="text2538-7-9-6-4"
       style="font-style:normal;font-weight:normal;font-size:16.366px;line-height:1.25;font-family:sans-serif;fill:#333333;fill-opacity:1;stroke:none;stroke-width:0.409151">
      <path
         d="m 867.39149,1969.837 h -1.69414 v -1.5583 h 1.69414 z m -0.0959,10.4206 h -1.50234 v -8.9262 h 1.50234 z"
         style="white-space:pre;fill:#333333;fill-opacity:1;stroke-width:0.409151"
         id="path3353" />
      <path
         d="m 877.73211,1980.2576 h -1.50234 v -5.0824 q 0,-0.6154 -0.0719,-1.1508 -0.0719,-0.5434 -0.26371,-0.847 -0.19978,-0.3357 -0.57537,-0.4955 -0.37559,-0.1678 -0.97493,-0.1678 -0.61532,0 -1.28658,0.3037 -0.67127,0.3036 -1.28659,0.7751 v 6.6647 h -1.50235 v -8.9262 h 1.50235 v 0.9909 q 0.70323,-0.5834 1.4544,-0.911 0.75118,-0.3276 1.5423,-0.3276 1.44641,0 2.20558,0.871 0.75916,0.871 0.75916,2.5092 z"
         style="white-space:pre;fill:#333333;fill-opacity:1;stroke-width:0.409151"
         id="path3355" />
      <path
         d="m 887.22567,1979.6982 q -0.75117,0.3596 -1.43042,0.5594 -0.67127,0.1997 -1.43043,0.1997 -0.96694,0 -1.77405,-0.2796 -0.80711,-0.2877 -1.38248,-0.8631 -0.58336,-0.5754 -0.90301,-1.4544 -0.31964,-0.879 -0.31964,-2.0537 0,-2.1896 1.19868,-3.4363 1.20667,-1.2466 3.1805,-1.2466 0.76716,0 1.50235,0.2158 0.74318,0.2157 1.3585,0.5274 v 1.6702 h -0.0799 q -0.68724,-0.5355 -1.42243,-0.8231 -0.72721,-0.2877 -1.42244,-0.2877 -1.27859,0 -2.02178,0.863 -0.73519,0.8551 -0.73519,2.5173 0,1.6142 0.71921,2.4852 0.7272,0.8631 2.03776,0.8631 0.4555,0 0.92698,-0.1199 0.47148,-0.1199 0.84707,-0.3116 0.32764,-0.1679 0.61532,-0.3517 0.28769,-0.1917 0.4555,-0.3276 h 0.0799 z"
         style="white-space:pre;fill:#333333;fill-opacity:1;stroke-width:0.409151"
         id="path3357" />
      <path
         d="M 896.61534,1980.2576 H 895.113 v -5.0824 q 0,-0.6154 -0.0719,-1.1508 -0.0719,-0.5434 -0.26371,-0.847 -0.19978,-0.3357 -0.57537,-0.4955 -0.37559,-0.1678 -0.97493,-0.1678 -0.61532,0 -1.28658,0.3037 -0.67127,0.3036 -1.28659,0.7751 v 6.6647 h -1.50235 v -12.4344 h 1.50235 v 4.4991 q 0.70323,-0.5834 1.4544,-0.911 0.75118,-0.3276 1.54231,-0.3276 1.4464,0 2.20557,0.871 0.75916,0.871 0.75916,2.5092 z"
         style="white-space:pre;fill:#333333;fill-opacity:1;stroke-width:0.409151"
         id="path3359" />
    </g>
    <path
       d="m 857.41128,1980.5225 h -7.51681 v -1.4176 h 2.89108 v -9.3074 h -2.89108 v -1.2684 q 0.58754,0 1.25902,-0.093 0.67147,-0.1026 1.01654,-0.2891 0.429,-0.2332 0.67148,-0.5876 0.2518,-0.3637 0.28911,-0.9699 h 1.44554 v 12.5156 h 2.83512 z"
       style="font-style:normal;font-weight:normal;font-size:19.0998px;line-height:1.25;font-family:sans-serif;white-space:pre;fill:#333333;fill-opacity:1;stroke:none;stroke-width:0.477494"
       id="path2846" />
    <path
       style="color:#000000;font-style:normal;font-variant:normal;font-weight:normal;font-stretch:normal;font-size:medium;line-height:normal;font-family:sans-serif;font-variant-ligatures:normal;font-variant-position:normal;font-variant-caps:normal;font-variant-numeric:normal;font-variant-alternates:normal;font-variant-east-asian:normal;font-feature-settings:normal;font-variation-settings:normal;text-indent:0;text-align:start;text-decoration:none;text-decoration-line:none;text-decoration-style:solid;text-decoration-color:#000000;letter-spacing:normal;word-spacing:normal;text-transform:none;writing-mode:lr-tb;direction:ltr;text-orientation:mixed;dominant-baseline:auto;baseline-shift:baseline;text-anchor:start;white-space:normal;shape-padding:0;shape-margin:0;inline-size:0;clip-rule:nonzero;display:inline;overflow:visible;visibility:visible;opacity:1;isolation:auto;mix-blend-mode:normal;color-interpolation:sRGB;color-interpolation-filters:linearRGB;solid-color:#000000;solid-opacity:1;vector-effect:none;fill:#333333;fill-opacity:1;fill-rule:nonzero;stroke:none;stroke-linecap:butt;stroke-linejoin:miter;stroke-miterlimit:4;stroke-dasharray:none;stroke-dashoffset:0;stroke-opacity:1;color-rendering:auto;image-rendering:auto;shape-rendering:auto;text-rendering:auto;enable-background:accumulate;stop-color:#000000;stop-opacity:1"
       d="m 842.25195,1954.459 v 1 h 29.80664 v 4.289 h 1 v -5.289 z"
       id="path2834" />
    <path
       style="color:#000000;font-style:normal;font-variant:normal;font-weight:normal;font-stretch:normal;font-size:medium;line-height:normal;font-family:sans-serif;font-variant-ligatures:normal;font-variant-position:normal;font-variant-caps:normal;font-variant-numeric:normal;font-variant-alternates:normal;font-variant-east-asian:normal;font-feature-settings:normal;font-variation-settings:normal;text-indent:0;text-align:start;text-decoration:none;text-decoration-line:none;text-decoration-style:solid;text-decoration-color:#000000;letter-spacing:normal;word-spacing:normal;text-transform:none;writing-mode:lr-tb;direction:ltr;text-orientation:mixed;dominant-baseline:auto;baseline-shift:baseline;text-anchor:start;white-space:normal;shape-padding:0;shape-margin:0;inline-size:0;clip-rule:nonzero;display:inline;overflow:visible;visibility:visible;opacity:1;isolation:auto;mix-blend-mode:normal;color-interpolation:sRGB;color-interpolation-filters:linearRGB;solid-color:#000000;solid-opacity:1;vector-effect:none;fill:#333333;fill-opacity:1;fill-rule:nonzero;stroke:none;stroke-linecap:butt;stroke-linejoin:miter;stroke-miterlimit:4;stroke-dasharray:none;stroke-dashoffset:0;stroke-opacity:1;color-rendering:auto;image-rendering:auto;shape-rendering:auto;text-rendering:auto;enable-background:accumulate;stop-color:#000000;stop-opacity:1"
       d="m 872.14258,1992.3691 v 2.1426 h -29.8086 v 1 h 30.8086 v -3.1426 z"
       id="path2836" />
  </g>
</svg>
