<?xml version="1.0" encoding="UTF-8" standalone="no"?>
<svg
   xmlns:dc="http://purl.org/dc/elements/1.1/"
   xmlns:cc="http://creativecommons.org/ns#"
   xmlns:rdf="http://www.w3.org/1999/02/22-rdf-syntax-ns#"
   xmlns:svg="http://www.w3.org/2000/svg"
   xmlns="http://www.w3.org/2000/svg"
   xmlns:sodipodi="http://sodipodi.sourceforge.net/DTD/sodipodi-0.dtd"
   xmlns:inkscape="http://www.inkscape.org/namespaces/inkscape"
   viewBox="0 0 512 512"
   width="512"
   height="512"
   version="1.1"
   id="svg125"
   sodipodi:docname="goose.svg"
   inkscape:version="1.0.2 (e86c870879, 2021-01-15, custom)">
  <metadata
     id="metadata131">
    <rdf:RDF>
      <cc:Work
         rdf:about="">
        <dc:format>image/svg+xml</dc:format>
        <dc:type
           rdf:resource="http://purl.org/dc/dcmitype/StillImage" />
        <dc:title></dc:title>
      </cc:Work>
    </rdf:RDF>
  </metadata>
  <defs
     id="defs129" />
  <sodipodi:namedview
     pagecolor="#ffffff"
     bordercolor="#666666"
     borderopacity="1"
     objecttolerance="10"
     gridtolerance="10"
     guidetolerance="10"
     inkscape:pageopacity="0"
     inkscape:pageshadow="2"
     inkscape:window-width="1366"
     inkscape:window-height="715"
     id="namedview127"
     showgrid="false"
     inkscape:zoom="0.25"
     inkscape:cx="792.32765"
     inkscape:cy="878.84452"
     inkscape:window-x="-8"
     inkscape:window-y="-8"
     inkscape:window-maximized="1"
     inkscape:current-layer="svg125"
     inkscape:document-rotation="0" />
  <style
     id="style2">
		tspan { white-space:pre }
		.shp0 { fill: #e7d5b8 } 
		.shp1 { fill: #15120f } 
	</style>
  <g
     id="g1567"
     transform="matrix(1.5237063,0,0,1.5237063,-715.23961,-931.08618)">
    <path
       id="Path 23"
       style="fill:#333333;fill-opacity:1"
       d="m 596.13086,698.14648 c -1.4819,-0.009 -2.59531,0.63422 -3.60156,2.04297 -1.2,1.7 -1.47883,3.51055 -1.04883,6.81055 0.32,2.48 0.80961,6.3 1.09961,8.5 0.28,2.2 -0.0808,7.15 -0.80078,11 l -1.3086,7 c -16.25,13.65 -24.5707,19.85031 -28.9707,22.57031 -4.4,2.73 -12.73,6.94891 -18.5,9.37891 -5.77,2.43 -11.62,4.68 -13,5 -2.31,0.55 -2.88,-0.11899 -7.5,-8.95899 -2.75,-5.25 -5.23,-9.53023 -5.5,-9.49023 -0.27,0.03 -1.17,-2.03984 -2,-4.58984 -0.83,-2.56 -1.95,-5.06055 -2.5,-5.56055 -0.55,-0.5 -2.12,-0.78891 -3.5,-0.62891 -2.06,0.23 -2.55055,0.8893 -2.81055,3.7793 -0.17,1.92 0.42032,5.3 1.32032,7.5 0.89,2.2 2.64062,6.02 3.89062,8.5 1.24,2.48 7.58031,13.27 14.07031,24 6.5,10.73 14.73883,24 18.29883,29.5 3.57,5.5 9.24133,13.10064 12.61133,16.89062 3.36,3.79 7.91914,8.13016 10.11914,9.66016 2.2,1.52 7.6,4.27867 12,6.13867 4.4,1.86 9.58,4.59985 11.5,6.08985 2.41,1.87 5.22,2.92156 9,3.35156 4.39,0.5 6.3,0.21914 9.5,-1.38086 2.2,-1.11 6.92977,-4.65086 10.50977,-7.88086 3.58,-3.23 7.62976,-6.76914 9.00976,-7.86914 1.38,-1.1 4.97024,-5.00945 7.99024,-8.68945 3.02,-3.68 8.19023,-10.31977 11.49023,-14.75977 3.3,-4.43 6.34,-8.06078 6.75,-8.05078 0.41,0 2.73039,-3.26 5.15039,-7.25 2.42,-3.99 5.96891,-10.62 7.87891,-14.75 1.92,-4.12 4.05023,-9.08 4.74023,-11 0.69,-1.92 1.44016,-5.3 1.66016,-7.5 0.26,-2.46 -0.0789,-4.49906 -0.87891,-5.28906 -0.72,-0.72 -2.31078,-1.28 -3.55078,-1.25 -1.85,0.03 -2.52047,0.97906 -3.73047,5.28906 -0.82,2.89 -2.05,6.06078 -2.75,7.05078 -1.19,1.7 -1.75953,1.53992 -9.26953,-2.58008 -4.4,-2.42 -12.27,-6.59148 -17.5,-9.27148 -7.6,-3.9 -11,-6.41914 -17,-12.61914 -4.12,-4.26 -8.29,-7.77102 -9.25,-7.79102 -0.96,-0.02 -1.75,0.41094 -1.75,0.96094 0,0.55 -0.67,1 -1.5,1 -0.83,0 -1.5,0.67 -1.5,1.5 0,0.83 -0.45,1.73 -1,2 -0.6,0.3 -0.9,-1.09023 -0.75,-3.49023 0.15,-2.4 0.75,-4 1.5,-4 0.69,-0.01 1.09992,-0.56977 0.91992,-1.25977 -0.19,-0.69 -0.81992,-1.25 -1.41992,-1.25 -0.6,0 -1.45992,-0.30969 -1.91992,-0.67969 -0.46,-0.38 0.17992,-0.94 1.41992,-1.25 1.24,-0.32 2.26906,-0.91031 2.28906,-1.32031 0.03,-0.41 -0.53,-1.31023 -1.25,-1.99023 -0.71,-0.69 -1.51906,-1.05055 -1.78906,-0.81055 -0.27,0.24 -0.98961,-3.69977 -1.59961,-8.75977 -0.88,-7.36 -0.83,-9.92945 0.25,-12.93945 1.2,-3.33 1.14883,-4.12 -0.45117,-7 -1.19,-2.16 -2.68016,-3.35055 -4.41016,-3.56055 -0.2275,-0.0275 -0.4465,-0.0417 -0.6582,-0.043 z M 584.48047,759 c 0.29,0 0.2993,0.9 0.0293,2 -0.28,1.1 -0.0598,2 0.49023,2 0.55,0 1.00953,-0.79 1.01953,-1.75 0.01,-1.48 0.15016,-1.52 0.91016,-0.25 0.56,0.94 1.49047,1.22 2.48047,0.75 1.07,-0.5 1.80953,-0.17 2.26953,1 0.4,1.03 0.2,1.85 -0.5,2 -0.65,0.14 -1.17969,0.7 -1.17969,1.25 0,0.55 0.45,0.77 1,0.5 0.65,-0.33 1,9.33 1,28 0,23.33 -0.27,29.04 -1.5,31.5 -0.83,1.65 -2.51,3.28086 -3.75,3.63086 -1.34,0.38 -2.35,0.17 -2.5,-0.5 -0.14,-0.62 -0.92,-0.90086 -1.75,-0.63086 -0.83,0.27 -2.62,-0.17 -4,-1 -1.37,-0.83 -2.5,-2.17 -2.5,-3 0,-0.92 -0.47094,-1.21 -1.21094,-0.75 -0.88,0.54 -1.02,0.13 -0.5,-1.5 0.41,-1.31 0.29094,-2.25 -0.28906,-2.25 -0.55,0 -1,0.45 -1,1 0,0.55 -0.67,0.77 -1.5,0.5 -0.83,-0.27 -1.4907,-1.29 -1.4707,-2.25 0.01,-0.96 -0.21,-1.41 -0.5,-1 -0.29,0.41 -1.1993,0.08 -2.0293,-0.75 -0.83,-0.83 -1.50953,-2.29 -1.51953,-3.25 -0.01,-1.48 -0.14992,-1.52 -0.91992,-0.25 -0.8,1.33 -1.08149,1.33 -2.52149,0 -0.89,-0.83 -1.47812,-2.17 -1.32812,-3 0.16,-0.83 0.73906,-1.77914 1.28906,-2.11914 0.56,-0.35 0.22,-0.9 -0.75,-1.25 -1.33,-0.48 -1.7593,-0.0909 -1.7793,1.61914 -0.03,2.19 -0.0604,2.19 -1.15039,0.25 -0.62,-1.1 -1.21984,-2.67 -1.33984,-3.5 -0.11,-0.83 -0.93985,-1.39 -1.83985,-1.25 -0.9,0.14 -1.64062,-0.2 -1.64062,-0.75 0,-0.55 0.79,-1.03055 1.75,-1.06055 1.26,-0.05 1.05,-0.37015 -0.75,-1.16015 -1.37,-0.6 -2.84,-1.01946 -3.25,-0.93946 C 551.34,800.92984 551,800.55 551,800 c 0,-0.55 1.13,-1 2.5,-1 1.38,0 2.73,-0.45 3,-1 0.29,-0.59 -0.84,-0.9 -2.75,-0.75 -1.79,0.14 -3.55922,0.7 -3.94922,1.25 -0.4,0.58 -0.93,0.27 -1.25,-0.75 -0.3,-0.96 0.11922,-2.42 0.94922,-3.25 0.83,-0.83 1.50953,-2.29 1.51953,-3.25 0.01,-1.47 0.15109,-1.51 0.87109,-0.25 0.73001,1.29 0.93852,1.25 1.47852,-0.25 0.47,-1.32 -0.41914,-2.36094 -3.61914,-4.21094 -2.34,-1.35 -3.69,-2.48 -3,-2.5 0.69,-0.02 2.15,0.41094 3.25,0.96094 1.33,0.67 2,0.67 2,0 0,-0.55 0.79,-1.04914 1.75,-1.11914 1.32,-0.08 1.38,-0.21125 0.25,-0.53125 -0.83,-0.22 -2.06,-1.51891 -2.75,-2.87891 C 550.5,778.9907 550.4,778 551,778 c 0.55,0 1.34,0.71961 1.75,1.59961 0.65,1.38 0.95,1.40992 2.25,0.16992 0.83,-0.79 2.17,-1.20922 3,-0.94922 1.19,0.37 1.1393,0.0801 -0.2207,-1.41992 -0.95,-1.05 -1.74,-2.24039 -1.75,-2.65039 -0.02,-0.41 0.4207,-0.52 0.9707,-0.25 0.55,0.27 1.18992,-0.06 1.41992,-0.75 0.23,-0.69 0.46,-0.24 0.5,1 0.04,1.24 0.53008,2.48 1.08008,2.75 0.55,0.27 1.23,-0.4 1.5,-1.5 0.31,-1.23 1.08,-1.81 2,-1.5 0.83,0.27 1.5,0.27 1.5,0 0,-0.27 -0.67,-1.17 -1.5,-2 -0.83,-0.83 -1.27023,-1.84 -0.99023,-2.25 0.28,-0.41 1.41,0.26 2.5,1.5 1.32,1.49 2.92023,2.17 4.74023,2 2.02,-0.18 2.82,-0.85 3,-2.5 0.14,-1.24 0.7,-2.25 1.25,-2.25 0.55,0 0.89953,-0.86945 0.76953,-1.93945 -0.13,-1.07 0.21953,-2.22055 0.76953,-2.56055 0.55,-0.34 1.10047,-0.14055 1.23047,0.43945 0.13,0.58 0.90047,1.06055 1.73047,1.06055 0.83,0 1.5,-0.45 1.5,-1 0,-0.55 -0.56,-1.17086 -1.25,-1.38086 -0.69,-0.2 -7e-4,-0.77 1.5293,-1.25 1.52,-0.48 2.9707,-1.42914 3.2207,-2.11914 0.25,-0.69 0.69047,-1.25 0.98047,-1.25 z m 22.42969,0.20312 c 0.43515,-0.0184 0.98039,-6.2e-4 1.65039,0.0469 2.3,0.17 3.61922,0.84 3.94922,2 0.27,0.96 1.39023,2.2 2.49023,2.75 1.1,0.55 2.00953,1.79 2.01953,2.75 0.01,1.24 0.22,1.3807 0.75,0.4707 0.55,-0.97 1.45047,-1.03047 3.73047,-0.23047 2.36,0.82 3.37,0.7193 4.75,-0.4707 1.25,-1.09 2.25,-1.23883 3.5,-0.54883 1.67,0.92 1.67,0.97 0,1 -0.96,0.02 -1.75,0.4793 -1.75,1.0293 0,0.55 0.9,1.23 2,1.5 1.1,0.27 2,0.95 2,1.5 0,0.55 0.45,1 1,1 0.55,0 1.23,-1.12 1.5,-2.5 0.27,-1.37 0.95,-2.5 1.5,-2.5 0.55,0 0.77,0.45 0.5,1 -0.27,0.55 0.17,1.23 1,1.5 0.83,0.27 1.50953,1.51 1.51953,2.75 0.01,1.8 0.20141,1.95 0.94141,0.75 0.81,-1.29 1.00828,-1.26 1.48828,0.25 0.32,1.03 -0.26016,2.47 -1.41016,3.5 -1.08,0.96 -1.98,2.31 -2,3 -0.02,0.69 0.75094,1.24047 1.71094,1.23047 1.48,-0.01 1.52,-0.15039 0.25,-0.90039 -1.23,-0.72 -1.09,-0.99047 0.75,-1.48047 1.4,-0.37 2.47938,-1.63961 2.85938,-3.34961 0.5,-2.22 0.79984,-2.46 1.58984,-1.25 0.74,1.13 0.83062,0.95 0.39062,-0.75 -0.33,-1.24 -0.13984,-2.48 0.41016,-2.75 0.55,-0.27 1,0.17 1,1 0,0.83 0.47078,1.5 1.05078,1.5 0.57,0 -0.1,1.13 -1.5,2.5 -1.4,1.38 -2.55078,3.63 -2.55078,5 0,1.51 0.7,2.72078 1.75,3.05078 1.46,0.45 1.62,1.2 1,4.5 -0.56,2.95 -0.37,4.32922 0.75,5.44922 0.83,0.83 1.5,1.73 1.5,2 0,0.27 -1.12,0.73 -2.5,1 -1.37,0.27 -2.5,0.95 -2.5,1.5 0,0.55 0.79,1.25078 1.75,1.55078 1.51,0.48 1.54,0.67828 0.25,1.48828 -0.83,0.51 -1.84,0.94141 -2.25,0.94141 -0.41,0.01 -0.73094,-0.54047 -0.71094,-1.23047 0.03,-0.69 -0.69937,-1.92 -1.60937,-2.75 -1.48,-1.33 -1.63969,-1.33 -1.42969,0 0.13,0.83 0.17914,2.06 0.11914,2.75 -0.07,0.69 -0.78914,1.02 -1.61914,0.75 -0.83,-0.27 -1.5,-0.27 -1.5,0 0,0.27 0.45,1.63 1,3 0.94,2.34 0.82,2.48086 -1.75,2.13086 -1.51,-0.2 -2.19,-0.2 -1.5,0 0.69,0.2 1.25,1.03914 1.25,1.86914 0,0.83 -0.45,1.5 -1,1.5 -0.55,0 -0.77,0.45 -0.5,1 0.27,0.55 -0.4,1 -1.5,1 -1.1,0 -2.00953,0.34 -2.01953,0.75 -0.01,0.41 0.56,1.38039 1.25,2.15039 1.05,1.15 0.96953,1.28 -0.48047,0.75 C 630.79,815.29039 630,815.45 630,816 c 0,0.55 -0.67,1.67 -1.5,2.5 -1.33,1.33 -1.5,1.28 -1.5,-0.5 0,-1.1 -0.34,-1.99023 -0.75,-1.99023 -0.41,0.01 -0.64,1.13 -0.5,2.5 0.14,1.37 -0.2,2.49023 -0.75,2.49023 -0.55,0 -0.89,0.79 -0.75,1.75 0.17,1.17 -0.5,1.83 -2,2 -1.24,0.14 -2.02,0.7 -1.75,1.25 0.27,0.55 -0.4,1.23 -1.5,1.5 -1.1,0.27 -2,0.95 -2,1.5 0,0.55 -0.67,0.77 -1.5,0.5 -0.89,-0.3 -1.5,0.11 -1.5,1 0,0.93 -0.94,1.5 -2.5,1.5 -1.59,0 -2.92062,-0.82 -3.64062,-2.25 -0.68,-1.34 -1.49977,-11.98 -2.00977,-26.25 -0.48,-13.2 -0.97938,-27.74984 -1.10938,-32.33984 -0.13,-4.58 0.0998,-8.52 0.50977,-8.75 0.41,-0.22 0.55078,-1.08016 0.30078,-1.91016 -0.2625,-0.8625 0.0539,-1.24156 1.35938,-1.29688 z"
       sodipodi:nodetypes="cccccccsccccsccccccccssccsssccscsccccccccsssscsccsccccscccsscsscccccscscccscsccssscsscccccscccsscccssccccsccccscscccscccccssssccssscccssssssccsssccsccccccsssscsssccccsccccccssscsccsscscccccccssccssssssccssscssccssscsscccccsc" />
    <g
       aria-label="inches"
       id="text2538-7"
       style="font-style:normal;font-weight:normal;font-size:16.366px;line-height:1.25;font-family:sans-serif;fill:#333333;fill-opacity:1;stroke:none;stroke-width:0.409151">
      <path
         d="m 720.43513,771.40411 h -1.69414 v -1.55829 h 1.69414 z m -0.0959,10.42054 h -1.50234 v -8.92619 h 1.50234 z"
         style="white-space:pre;fill:#333333;fill-opacity:1;stroke-width:0.409151"
         id="path3434" />
      <path
         d="m 730.77575,781.82465 h -1.50234 v -5.08241 q 0,-0.61533 -0.0719,-1.15074 -0.0719,-0.5434 -0.26371,-0.84707 -0.19978,-0.33563 -0.57537,-0.49545 -0.37559,-0.16782 -0.97493,-0.16782 -0.61532,0 -1.28658,0.30367 -0.67127,0.30366 -1.28659,0.77515 v 6.66467 h -1.50235 v -8.92619 h 1.50235 v 0.99091 q 0.70323,-0.58335 1.4544,-0.91099 0.75118,-0.32764 1.54231,-0.32764 1.4464,0 2.20557,0.87104 0.75916,0.87104 0.75916,2.50924 z"
         style="white-space:pre;fill:#333333;fill-opacity:1;stroke-width:0.409151"
         id="path3436" />
      <path
         d="m 740.26931,781.26526 q -0.75117,0.35961 -1.43042,0.55939 -0.67127,0.19978 -1.43043,0.19978 -0.96694,0 -1.77405,-0.2797 -0.80711,-0.28768 -1.38248,-0.86305 -0.58336,-0.57536 -0.90301,-1.4544 -0.31964,-0.87903 -0.31964,-2.05374 0,-2.18959 1.19868,-3.43622 1.20667,-1.24663 3.1805,-1.24663 0.76716,0 1.50235,0.21577 0.74318,0.21576 1.3585,0.52741 v 1.67017 h -0.0799 q -0.68724,-0.53541 -1.42243,-0.8231 -0.7272,-0.28768 -1.42244,-0.28768 -1.27859,0 -2.02178,0.86305 -0.73519,0.85506 -0.73519,2.51723 0,1.61423 0.71921,2.48527 0.7272,0.86305 2.03776,0.86305 0.4555,0 0.92698,-0.11987 0.47148,-0.11987 0.84707,-0.31166 0.32764,-0.16781 0.61532,-0.35161 0.28769,-0.19179 0.4555,-0.32764 h 0.0799 z"
         style="white-space:pre;fill:#333333;fill-opacity:1;stroke-width:0.409151"
         id="path3438" />
      <path
         d="m 749.65898,781.82465 h -1.50234 v -5.08241 q 0,-0.61533 -0.0719,-1.15074 -0.0719,-0.5434 -0.26371,-0.84707 -0.19978,-0.33563 -0.57537,-0.49545 -0.37559,-0.16782 -0.97493,-0.16782 -0.61532,0 -1.28658,0.30367 -0.67127,0.30366 -1.28659,0.77515 v 6.66467 h -1.50235 v -12.43433 h 1.50235 v 4.49905 q 0.70323,-0.58335 1.4544,-0.91099 0.75118,-0.32764 1.54231,-0.32764 1.4464,0 2.20557,0.87104 0.75916,0.87104 0.75916,2.50924 z"
         style="white-space:pre;fill:#333333;fill-opacity:1;stroke-width:0.409151"
         id="path3440" />
      <path
         d="m 760.02358,777.51738 h -6.57676 q 0,0.8231 0.24773,1.43842 0.24772,0.60733 0.67925,0.9989 0.41554,0.38358 0.98292,0.57537 0.57537,0.19179 1.26261,0.19179 0.911,0 1.82999,-0.35961 0.92698,-0.36759 1.31855,-0.7192 h 0.0799 v 1.63819 q -0.75917,0.31965 -1.5503,0.53541 -0.79113,0.21577 -1.66217,0.21577 -2.22155,0 -3.46818,-1.19868 -1.24663,-1.20668 -1.24663,-3.42024 0,-2.18959 1.19069,-3.47618 1.19868,-1.28658 3.14853,-1.28658 1.80602,0 2.78095,1.05484 0.98291,1.05484 0.98291,2.9967 z m -1.46239,-1.15073 q -0.008,-1.1827 -0.59934,-1.82999 -0.58336,-0.64729 -1.78204,-0.64729 -1.20667,0 -1.92588,0.71122 -0.71122,0.71122 -0.80711,1.76606 z"
         style="white-space:pre;fill:#333333;fill-opacity:1;stroke-width:0.409151"
         id="path3442" />
      <path
         d="m 768.67807,779.25148 q 0,1.22265 -1.01489,2.00579 -1.00689,0.78314 -2.75696,0.78314 -0.99091,0 -1.822,-0.23175 -0.82309,-0.23973 -1.38248,-0.51943 v -1.68614 h 0.0799 q 0.71122,0.53541 1.58226,0.85506 0.87105,0.31166 1.67017,0.31166 0.99091,0 1.55029,-0.31965 0.55939,-0.31965 0.55939,-1.00689 0,-0.52742 -0.30367,-0.79913 -0.30367,-0.2717 -1.16672,-0.46349 -0.31965,-0.0719 -0.83907,-0.16781 -0.51144,-0.0959 -0.93498,-0.20777 -1.1747,-0.31166 -1.67016,-0.911 -0.48746,-0.60733 -0.48746,-1.48637 0,-0.55139 0.22375,-1.03885 0.23175,-0.48747 0.69524,-0.87105 0.4475,-0.37558 1.13475,-0.59134 0.69523,-0.22376 1.55029,-0.22376 0.79912,0 1.61423,0.19978 0.82309,0.19179 1.36649,0.47148 v 1.60624 h -0.0799 q -0.57536,-0.42354 -1.39846,-0.71122 -0.82309,-0.29568 -1.61422,-0.29568 -0.8231,0 -1.39047,0.31965 -0.56738,0.31166 -0.56738,0.93497 0,0.5514 0.34362,0.83109 0.33563,0.27969 1.08681,0.4555 0.41554,0.0959 0.92698,0.19179 0.51943,0.0959 0.86305,0.1758 1.04685,0.23974 1.61422,0.8231 0.56738,0.59135 0.56738,1.56628 z"
         style="white-space:pre;fill:#333333;fill-opacity:1;stroke-width:0.409151"
         id="path3444" />
    </g>
    <path
       d="m 711.29562,779.25418 h -2.06106 v 3.90762 h -1.79061 v -3.90762 h -6.64949 v -2.145 l 6.7241,-7.8339 h 1.716 v 8.48673 h 2.06106 z m -3.85167,-1.49217 v -6.26712 l -5.38114,6.26712 z"
       style="font-style:normal;font-weight:normal;font-size:19.0998px;line-height:1.25;font-family:sans-serif;white-space:pre;fill:#333333;fill-opacity:1;stroke:none;stroke-width:0.477494"
       id="path1552" />
    <path
       id="path1539"
       style="color:#000000;font-style:normal;font-variant:normal;font-weight:normal;font-stretch:normal;font-size:medium;line-height:normal;font-family:sans-serif;font-variant-ligatures:normal;font-variant-position:normal;font-variant-caps:normal;font-variant-numeric:normal;font-variant-alternates:normal;font-variant-east-asian:normal;font-feature-settings:normal;font-variation-settings:normal;text-indent:0;text-align:start;text-decoration:none;text-decoration-line:none;text-decoration-style:solid;text-decoration-color:#000000;letter-spacing:normal;word-spacing:normal;text-transform:none;writing-mode:lr-tb;direction:ltr;text-orientation:mixed;dominant-baseline:auto;baseline-shift:baseline;text-anchor:start;white-space:normal;shape-padding:0;shape-margin:0;inline-size:0;clip-rule:nonzero;display:inline;overflow:visible;visibility:visible;opacity:1;isolation:auto;mix-blend-mode:normal;color-interpolation:sRGB;color-interpolation-filters:linearRGB;solid-color:#000000;solid-opacity:1;vector-effect:none;fill:#333333;fill-opacity:1;fill-rule:nonzero;stroke:none;stroke-linecap:butt;stroke-linejoin:miter;stroke-miterlimit:4;stroke-dasharray:none;stroke-dashoffset:0;stroke-opacity:1;color-rendering:auto;image-rendering:auto;shape-rendering:auto;text-rendering:auto;enable-background:accumulate;stop-color:#000000;stop-opacity:1"
       d="m 648.4375,699 v 1 h 82.54297 v 62.12891 h 1 V 699 Z m 82.55273,96.46289 v 63.54688 h -82.50781 v 1 h 83.50781 v -64.54688 z" />
  </g>
</svg>
