<?xml version="1.0" encoding="UTF-8" standalone="no"?>
<svg
   xmlns:dc="http://purl.org/dc/elements/1.1/"
   xmlns:cc="http://creativecommons.org/ns#"
   xmlns:rdf="http://www.w3.org/1999/02/22-rdf-syntax-ns#"
   xmlns:svg="http://www.w3.org/2000/svg"
   xmlns="http://www.w3.org/2000/svg"
   xmlns:sodipodi="http://sodipodi.sourceforge.net/DTD/sodipodi-0.dtd"
   xmlns:inkscape="http://www.inkscape.org/namespaces/inkscape"
   viewBox="0 0 512 512"
   width="512"
   height="512"
   version="1.1"
   id="svg125"
   sodipodi:docname="gray-wolf.svg"
   inkscape:version="1.0.2 (e86c870879, 2021-01-15, custom)">
  <sodipodi:namedview
     pagecolor="#ffffff"
     bordercolor="#666666"
     borderopacity="1"
     objecttolerance="10"
     gridtolerance="10"
     guidetolerance="10"
     inkscape:pageopacity="0"
     inkscape:pageshadow="2"
     inkscape:window-width="1366"
     inkscape:window-height="715"
     id="namedview3602"
     showgrid="false"
     inkscape:zoom="0.37841261"
     inkscape:cx="930.63754"
     inkscape:cy="2155.5824"
     inkscape:window-x="-8"
     inkscape:window-y="-8"
     inkscape:window-maximized="1"
     inkscape:current-layer="svg125" />
  <metadata
     id="metadata131">
    <rdf:RDF>
      <cc:Work
         rdf:about="">
        <dc:format>image/svg+xml</dc:format>
        <dc:type
           rdf:resource="http://purl.org/dc/dcmitype/StillImage" />
        <dc:title></dc:title>
      </cc:Work>
    </rdf:RDF>
  </metadata>
  <defs
     id="defs129" />
  <style
     id="style2">
		tspan { white-space:pre }
		.shp0 { fill: #e7d5b8 } 
		.shp1 { fill: #15120f } 
	</style>
  <g
     id="g4675"
     transform="matrix(1.6712699,0,0,1.6712699,-1455.9966,-3973.1713)">
    <path
       id="Path 59"
       class="shp1"
       d="m 997.04,2461.4 c -1.91,0.66 -4.23,2.3 -5.15,3.65 -0.93,1.35 -2.45,4.7 -3.38,7.45 -1.09,3.21 -1.73,8.4 -1.78,14.5 -0.05,5.22 0.42,11.07 1.04,13 0.62,1.93 2.95,5.19 5.18,7.25 2.23,2.06 5.51,4.02 7.3,4.35 1.79,0.33 4.71,0.33 6.5,0 2.15,-0.4 4.52,-2.07 7,-4.93 2.06,-2.38 4.55,-6.77 5.52,-9.75 0.97,-2.98 1.77,-7.89 1.76,-10.92 -0.01,-3.03 -0.69,-7.86 -1.52,-10.75 -0.83,-2.89 -2.75,-6.66 -4.26,-8.38 -1.51,-1.73 -3.99,-3.75 -5.5,-4.5 -1.51,-0.76 -4.21,-1.55 -6,-1.77 -1.79,-0.23 -4.81,0.13 -6.71,0.8 z m -46.82,5.22 c -1.85,1.79 -3.63,5.15 -4.72,8.88 -1.3,4.44 -1.63,8.21 -1.28,14.5 0.28,5.1 1.34,10.9 2.64,14.5 1.26,3.48 3.64,7.47 5.67,9.5 3.21,3.21 3.99,3.5 9.41,3.5 4.43,0 6.62,-0.52 8.74,-2.09 1.55,-1.15 3.45,-3.4 4.22,-5 0.77,-1.6 1.62,-5.61 1.88,-8.91 0.29,-3.62 -0.21,-9.37 -1.25,-14.5 -0.94,-4.68 -2.8,-10.64 -4.12,-13.25 -1.33,-2.61 -3.76,-5.65 -5.41,-6.75 -1.65,-1.1 -5.21,-2.28 -7.91,-2.63 -4.47,-0.58 -5.16,-0.38 -7.87,2.25 z"
       style="fill:#333333;fill-opacity:1" />
    <path
       id="Path 61"
       class="shp1"
       d="m 1041.43,2487.15 c -1.54,0.83 -1.75,2.29 -1.58,11.15 l 0.19,10.2 c 3.04,-3.87 4.65,-7.25 5.55,-10 0.97,-2.98 1.39,-6.32 1.02,-8.25 -0.33,-1.79 -1.24,-3.43 -2.01,-3.65 -0.77,-0.21 -2.19,0.03 -3.17,0.55 z m -133.29,8.6 c -0.5,0.96 -1.23,3.55 -1.62,5.75 -0.55,3.05 -0.2,5.19 1.44,9 1.8,4.17 2.32,4.71 3.1,3.25 0.52,-0.96 1.21,-4.56 1.54,-8 0.35,-3.68 0.14,-7.38 -0.5,-9 -0.61,-1.51 -1.54,-2.75 -2.07,-2.75 -0.54,0 -1.38,0.79 -1.89,1.75 z m 128.91,15.5 c -2.45,1.24 -6.07,4.28 -8.05,6.75 -1.97,2.47 -4.46,6.97 -5.53,10 -1.3,3.68 -1.94,8.15 -1.94,13.5 -0.01,6.06 0.47,8.92 1.98,11.79 1.09,2.09 2.66,4.05 3.49,4.37 0.83,0.31 2.85,0.91 4.5,1.33 1.65,0.42 5.25,0.36 8,-0.14 3.2,-0.58 6.02,-1.89 7.84,-3.63 1.56,-1.5 3.81,-4.52 5,-6.72 1.82,-3.37 2.15,-5.59 2.1,-14 -0.04,-7.68 -0.56,-11.39 -2.24,-16 -1.2,-3.3 -3.2,-6.81 -4.44,-7.79 -1.24,-0.99 -3.16,-1.78 -4.26,-1.75 -1.1,0.02 -4,1.05 -6.45,2.29 z m -126.64,7.82 c -1.15,0.5 -2.89,2.59 -3.87,4.66 -1.07,2.26 -1.81,6.18 -1.84,9.77 -0.03,3.71 0.83,8.67 2.26,13 1.28,3.85 3.32,9.03 4.54,11.5 1.22,2.47 3.64,5.74 5.36,7.25 2.31,2.02 4.2,2.75 7.14,2.75 2.2,0 5.24,-0.61 6.75,-1.36 1.51,-0.75 4.45,-3.34 6.53,-5.75 2.08,-2.42 4.51,-6.42 5.39,-8.89 1.5,-4.23 1.49,-4.77 -0.28,-8.96 -1.34,-3.17 -4.64,-6.96 -11.39,-13.07 -5.23,-4.73 -10.4,-9.07 -11.5,-9.65 -1.1,-0.57 -3.12,-1.29 -4.5,-1.59 -1.37,-0.31 -3.44,-0.15 -4.59,0.34 z m 66.68,43.34 c -1.87,0.73 -4.52,2.85 -5.89,4.71 -1.37,1.86 -4.43,7.43 -6.8,12.38 -3.28,6.85 -6.12,10.91 -11.88,17 -4.17,4.4 -8.3,9.35 -9.2,11 -0.89,1.65 -1.66,5.27 -1.72,8.05 -0.06,3.25 0.52,6 1.65,7.75 0.96,1.48 3.21,3.62 5,4.75 2.56,1.62 4.53,1.99 9.25,1.73 4.79,-0.26 6.96,-0.98 10.75,-3.55 3.72,-2.53 5.78,-3.23 9.5,-3.21 2.61,0.01 6.21,-0.44 8,-1 2.61,-0.82 3.81,-0.67 6.1,0.73 1.56,0.96 5.05,3.22 7.75,5.01 3.37,2.25 6.07,3.26 8.65,3.25 2.06,0 5.44,-0.71 7.5,-1.57 2.06,-0.85 4.81,-2.54 6.1,-3.75 1.29,-1.2 3.2,-3.88 4.25,-5.94 1.04,-2.06 1.9,-5.32 1.9,-7.25 0,-2.63 -1,-4.68 -4.01,-8.25 -2.21,-2.61 -6.29,-7.45 -9.06,-10.75 -2.77,-3.3 -7.83,-10.68 -11.24,-16.41 -3.4,-5.72 -7.43,-11.68 -8.94,-13.25 -2.41,-2.49 -3.47,-2.84 -8.5,-2.8 -3.16,0.02 -7.28,0.64 -9.16,1.37 z"
       style="fill:#333333;fill-opacity:1"
       sodipodi:nodetypes="cccccccccccccscscscccscccccccscsccscssccccccccsscccccccccccccccscscccc" />
    <g
       aria-label="inches"
       id="text2538-7-9-6-4-9-4-2-5-7-8"
       style="font-style:normal;font-weight:normal;font-size:16.366px;line-height:1.25;font-family:sans-serif;fill:#333333;fill-opacity:1;stroke:none;stroke-width:0.409151">
      <path
         d="m 1095.7952,2526.5487 h -1.6941 v -1.5583 h 1.6941 z m -0.096,10.4205 h -1.5023 v -8.9261 h 1.5023 z"
         style="white-space:pre;fill:#333333;fill-opacity:1;stroke-width:0.409151"
         id="path3288" />
      <path
         d="m 1106.1359,2536.9692 h -1.5024 v -5.0824 q 0,-0.6153 -0.072,-1.1507 -0.072,-0.5434 -0.2637,-0.8471 -0.1998,-0.3356 -0.5754,-0.4954 -0.3756,-0.1678 -0.9749,-0.1678 -0.6153,0 -1.2866,0.3036 -0.6713,0.3037 -1.2866,0.7752 v 6.6646 h -1.5023 v -8.9261 h 1.5023 v 0.9909 q 0.7032,-0.5834 1.4544,-0.911 0.7512,-0.3277 1.5423,-0.3277 1.4464,0 2.2056,0.8711 0.7592,0.871 0.7592,2.5092 z"
         style="white-space:pre;fill:#333333;fill-opacity:1;stroke-width:0.409151"
         id="path3290" />
      <path
         d="m 1115.6294,2536.4099 q -0.7512,0.3596 -1.4304,0.5593 -0.6713,0.1998 -1.4304,0.1998 -0.967,0 -1.7741,-0.2797 -0.8071,-0.2877 -1.3825,-0.863 -0.5833,-0.5754 -0.903,-1.4544 -0.3196,-0.8791 -0.3196,-2.0538 0,-2.1896 1.1987,-3.4362 1.2066,-1.2466 3.1805,-1.2466 0.7671,0 1.5023,0.2157 0.7432,0.2158 1.3585,0.5275 v 1.6701 h -0.08 q -0.6872,-0.5354 -1.4224,-0.8231 -0.7272,-0.2876 -1.4225,-0.2876 -1.2786,0 -2.0217,0.863 -0.7352,0.8551 -0.7352,2.5172 0,1.6143 0.7192,2.4853 0.7272,0.8631 2.0377,0.8631 0.4555,0 0.927,-0.1199 0.4715,-0.1199 0.8471,-0.3117 0.3276,-0.1678 0.6153,-0.3516 0.2877,-0.1918 0.4555,-0.3276 h 0.08 z"
         style="white-space:pre;fill:#333333;fill-opacity:1;stroke-width:0.409151"
         id="path3292" />
      <path
         d="m 1125.0191,2536.9692 h -1.5024 v -5.0824 q 0,-0.6153 -0.072,-1.1507 -0.072,-0.5434 -0.2637,-0.8471 -0.1998,-0.3356 -0.5754,-0.4954 -0.3755,-0.1678 -0.9749,-0.1678 -0.6153,0 -1.2866,0.3036 -0.6712,0.3037 -1.2866,0.7752 v 6.6646 h -1.5023 v -12.4343 h 1.5023 v 4.4991 q 0.7033,-0.5834 1.4544,-0.911 0.7512,-0.3277 1.5424,-0.3277 1.4464,0 2.2055,0.8711 0.7592,0.871 0.7592,2.5092 z"
         style="white-space:pre;fill:#333333;fill-opacity:1;stroke-width:0.409151"
         id="path3294" />
      <path
         d="m 1135.3837,2532.662 h -6.5768 q 0,0.8231 0.2478,1.4384 0.2477,0.6073 0.6792,0.9989 0.4155,0.3836 0.9829,0.5754 0.5754,0.1918 1.2626,0.1918 0.911,0 1.83,-0.3597 0.927,-0.3675 1.3186,-0.7192 h 0.08 v 1.6382 q -0.7592,0.3197 -1.5503,0.5354 -0.7911,0.2158 -1.6622,0.2158 -2.2215,0 -3.4682,-1.1987 -1.2466,-1.2066 -1.2466,-3.4202 0,-2.1896 1.1907,-3.4762 1.1987,-1.2866 3.1485,-1.2866 1.806,0 2.781,1.0549 0.9829,1.0548 0.9829,2.9967 z m -1.4624,-1.1508 q -0.01,-1.1827 -0.5993,-1.8299 -0.5834,-0.6473 -1.7821,-0.6473 -1.2067,0 -1.9259,0.7112 -0.7112,0.7112 -0.8071,1.766 z"
         style="white-space:pre;fill:#333333;fill-opacity:1;stroke-width:0.409151"
         id="path3296" />
      <path
         d="m 1144.0382,2534.3961 q 0,1.2226 -1.0149,2.0058 -1.0069,0.7831 -2.757,0.7831 -0.9909,0 -1.822,-0.2317 -0.8231,-0.2398 -1.3825,-0.5195 v -1.6861 h 0.08 q 0.7112,0.5354 1.5822,0.855 0.8711,0.3117 1.6702,0.3117 0.9909,0 1.5503,-0.3196 0.5594,-0.3197 0.5594,-1.0069 0,-0.5275 -0.3037,-0.7992 -0.3037,-0.2717 -1.1667,-0.4635 -0.3197,-0.072 -0.8391,-0.1678 -0.5114,-0.096 -0.935,-0.2077 -1.1747,-0.3117 -1.6701,-0.911 -0.4875,-0.6074 -0.4875,-1.4864 0,-0.5514 0.2238,-1.0389 0.2317,-0.4874 0.6952,-0.871 0.4475,-0.3756 1.1347,-0.5914 0.6953,-0.2237 1.5503,-0.2237 0.7992,0 1.6143,0.1998 0.8231,0.1918 1.3665,0.4715 v 1.6062 h -0.08 q -0.5754,-0.4235 -1.3985,-0.7112 -0.8231,-0.2957 -1.6142,-0.2957 -0.8231,0 -1.3905,0.3196 -0.5674,0.3117 -0.5674,0.935 0,0.5514 0.3436,0.8311 0.3357,0.2797 1.0868,0.4555 0.4156,0.096 0.927,0.1918 0.5195,0.096 0.8631,0.1758 1.0468,0.2397 1.6142,0.8231 0.5674,0.5913 0.5674,1.5663 z"
         style="white-space:pre;fill:#333333;fill-opacity:1;stroke-width:0.409151"
         id="path3298" />
    </g>
    <g
       aria-label="5"
       id="text3525-98"
       style="font-style:normal;font-weight:normal;font-size:19.0998px;line-height:1.25;font-family:sans-serif;fill:#333333;fill-opacity:1;stroke:none;stroke-width:0.477494">
      <path
         d="m 1086.2209,2533.2196 q 0,0.9699 -0.3544,1.8559 -0.3543,0.886 -0.9699,1.4922 -0.6714,0.6528 -1.6041,1.0072 -0.9232,0.3451 -2.145,0.3451 -1.1377,0 -2.1916,-0.2425 -1.0538,-0.2332 -1.7813,-0.5689 v -1.9678 h 0.1306 q 0.7647,0.485 1.7906,0.83 1.0259,0.3358 2.0144,0.3358 0.6622,0 1.2777,-0.1866 0.6249,-0.1865 1.1098,-0.6528 0.4104,-0.401 0.6155,-0.9606 0.2145,-0.5595 0.2145,-1.2963 0,-0.7181 -0.2518,-1.2124 -0.2424,-0.4943 -0.6808,-0.7927 -0.4849,-0.3544 -1.1844,-0.4943 -0.6901,-0.1492 -1.5481,-0.1492 -0.8207,0 -1.5854,0.1119 -0.7555,0.1119 -1.3057,0.2238 v -7.1531 h 8.3562 v 1.6321 h -6.5563 v 3.6931 q 0.4011,-0.037 0.8207,-0.056 0.4197,-0.019 0.7275,-0.019 1.1284,0 1.9771,0.1959 0.8487,0.1865 1.5575,0.6714 0.746,0.513 1.1564,1.3243 0.4103,0.8114 0.4103,2.0331 z"
         style="white-space:pre;fill:#333333;fill-opacity:1;stroke-width:0.477494"
         id="path4757" />
    </g>
    <path
       style="fill:#333333;fill-opacity:1;stroke:none;stroke-width:1px;stroke-linecap:butt;stroke-linejoin:miter;stroke-opacity:1"
       d="m 965.48905,2438.8905 c 0,0 -6.7737,3.6205 -3.50365,22.6569 0.63886,3.7191 8.29197,-18.1021 3.50365,-22.6569 z"
       id="path4642"
       sodipodi:nodetypes="csc" />
    <path
       style="fill:#333333;fill-opacity:1;stroke:none;stroke-width:1px;stroke-linecap:butt;stroke-linejoin:miter;stroke-opacity:1"
       d="m 999.70803,2432.9343 c -2.68613,0.2336 -3.27007,12.6131 -2.45255,14.7153 0.81751,2.1022 2.21897,3.1533 2.45255,6.5402 0.23358,3.3868 0.93427,6.8905 2.10217,3.9708 0.6823,-1.7058 -0.3831,-9.1977 0.1138,-16.9167 0.327,-5.0782 -0.7108,-9.135 -2.21597,-8.3096 z"
       id="path4644"
       sodipodi:nodetypes="cssssc" />
    <path
       style="color:#000000;font-style:normal;font-variant:normal;font-weight:normal;font-stretch:normal;font-size:medium;line-height:normal;font-family:sans-serif;font-variant-ligatures:normal;font-variant-position:normal;font-variant-caps:normal;font-variant-numeric:normal;font-variant-alternates:normal;font-variant-east-asian:normal;font-feature-settings:normal;font-variation-settings:normal;text-indent:0;text-align:start;text-decoration:none;text-decoration-line:none;text-decoration-style:solid;text-decoration-color:#000000;letter-spacing:normal;word-spacing:normal;text-transform:none;writing-mode:lr-tb;direction:ltr;text-orientation:mixed;dominant-baseline:auto;baseline-shift:baseline;text-anchor:start;white-space:normal;shape-padding:0;shape-margin:0;inline-size:0;clip-rule:nonzero;display:inline;overflow:visible;visibility:visible;opacity:1;isolation:auto;mix-blend-mode:normal;color-interpolation:sRGB;color-interpolation-filters:linearRGB;solid-color:#000000;solid-opacity:1;vector-effect:none;fill:#333333;fill-opacity:1;fill-rule:nonzero;stroke:none;stroke-linecap:butt;stroke-linejoin:miter;stroke-miterlimit:4;stroke-dasharray:none;stroke-dashoffset:0;stroke-opacity:1;color-rendering:auto;image-rendering:auto;shape-rendering:auto;text-rendering:auto;enable-background:accumulate;stop-color:#000000;stop-opacity:1"
       d="m 1036.541,2429.9668 v 1 h 73.4551 v 85.3262 h 1 v -86.3262 z"
       id="path4646" />
    <path
       style="color:#000000;font-style:normal;font-variant:normal;font-weight:normal;font-stretch:normal;font-size:medium;line-height:normal;font-family:sans-serif;font-variant-ligatures:normal;font-variant-position:normal;font-variant-caps:normal;font-variant-numeric:normal;font-variant-alternates:normal;font-variant-east-asian:normal;font-feature-settings:normal;font-variation-settings:normal;text-indent:0;text-align:start;text-decoration:none;text-decoration-line:none;text-decoration-style:solid;text-decoration-color:#000000;letter-spacing:normal;word-spacing:normal;text-transform:none;writing-mode:lr-tb;direction:ltr;text-orientation:mixed;dominant-baseline:auto;baseline-shift:baseline;text-anchor:start;white-space:normal;shape-padding:0;shape-margin:0;inline-size:0;clip-rule:nonzero;display:inline;overflow:visible;visibility:visible;opacity:1;isolation:auto;mix-blend-mode:normal;color-interpolation:sRGB;color-interpolation-filters:linearRGB;solid-color:#000000;solid-opacity:1;vector-effect:none;fill:#333333;fill-opacity:1;fill-rule:nonzero;stroke:none;stroke-linecap:butt;stroke-linejoin:miter;stroke-miterlimit:4;stroke-dasharray:none;stroke-dashoffset:0;stroke-opacity:1;color-rendering:auto;image-rendering:auto;shape-rendering:auto;text-rendering:auto;enable-background:accumulate;stop-color:#000000;stop-opacity:1"
       d="m 1110.0117,2551.4023 v 78.6582 h -73.5058 v 1 h 74.5058 v -79.6582 z"
       id="path4648" />
  </g>
</svg>
