<?xml version="1.0" encoding="UTF-8" standalone="no"?>
<svg
   xmlns:dc="http://purl.org/dc/elements/1.1/"
   xmlns:cc="http://creativecommons.org/ns#"
   xmlns:rdf="http://www.w3.org/1999/02/22-rdf-syntax-ns#"
   xmlns:svg="http://www.w3.org/2000/svg"
   xmlns="http://www.w3.org/2000/svg"
   xmlns:sodipodi="http://sodipodi.sourceforge.net/DTD/sodipodi-0.dtd"
   xmlns:inkscape="http://www.inkscape.org/namespaces/inkscape"
   viewBox="0 0 512 512"
   width="512"
   height="512"
   version="1.1"
   id="svg125"
   sodipodi:docname="grizzly-bear.svg"
   inkscape:version="1.0.2 (e86c870879, 2021-01-15, custom)">
  <sodipodi:namedview
     pagecolor="#ffffff"
     bordercolor="#666666"
     borderopacity="1"
     objecttolerance="10"
     gridtolerance="10"
     guidetolerance="10"
     inkscape:pageopacity="0"
     inkscape:pageshadow="2"
     inkscape:window-width="1366"
     inkscape:window-height="715"
     id="namedview3602"
     showgrid="false"
     inkscape:zoom="0.38576043"
     inkscape:cx="906.23842"
     inkscape:cy="3687.0792"
     inkscape:window-x="-8"
     inkscape:window-y="-8"
     inkscape:window-maximized="1"
     inkscape:current-layer="svg125" />
  <metadata
     id="metadata131">
    <rdf:RDF>
      <cc:Work
         rdf:about="">
        <dc:format>image/svg+xml</dc:format>
        <dc:type
           rdf:resource="http://purl.org/dc/dcmitype/StillImage" />
        <dc:title></dc:title>
      </cc:Work>
    </rdf:RDF>
  </metadata>
  <defs
     id="defs129" />
  <style
     id="style2">
		tspan { white-space:pre }
		.shp0 { fill: #e7d5b8 } 
		.shp1 { fill: #15120f } 
	</style>
  <g
     id="g5891"
     transform="matrix(0.66366879,0,0,0.66366879,-322.41978,-2098.3824)">
    <path
       id="Path 77"
       style="fill:#333333;fill-opacity:1"
       d="m 783.09961,3295.9609 c -1.06,0.03 -1.24953,0.9491 -0.76953,3.7891 0.34,2.06 1.06937,5.78 1.60937,8.25 0.53,2.47 0.98977,7.65 1.00977,11.5 0.02,3.85 -0.42828,9.93 -0.98828,13.5 -0.57,3.57 -1.73156,8.75 -2.60156,11.5 -0.86001,2.75 -1.29852,5.9 -0.97852,7 0.33,1.1 2.05937,2.9892 3.85937,4.1992 2.39,1.62 3.72977,1.95 5.00977,1.25 0.96,-0.52 2.20953,-2.6392 2.76953,-4.6992 0.56,-2.06 1.30086,-7.12 1.63086,-11.25 0.36,-4.39 0.0894,-10.61 -0.64062,-15 -0.69,-4.12 -2.33016,-11.32 -3.66016,-16 -1.32,-4.68 -2.94891,-9.7591 -3.62891,-11.2891 -0.67,-1.53 -1.85109,-2.77 -2.62109,-2.75 z M 708.80078,3296 c -0.67,0 -3.96984,2.81 -7.33984,6.25 -3.37,3.44 -7.29117,8.5 -8.70117,11.25 -1.41,2.75 -4.41969,10.63 -6.67969,17.5 -2.27,6.88 -4.13039,14.3 -4.15039,16.5 -0.01,2.42 0.59125,4.49 1.53125,5.25 0.84,0.69 2.54906,1.0603 3.78906,0.8203 1.84,-0.36 2.67055,-1.85 4.56055,-8.25 1.27,-4.3 4.15039,-12.5403 6.40039,-18.3203 2.24,-5.78 5.80968,-14.21 7.92968,-18.75 C 708.27063,3303.71 710,3299.1 710,3298 c 0,-1.1 -0.53922,-2 -1.19922,-2 z m 41.73828,1 c -0.81,0 -2.94,1.3006 -4.75,2.8906 -1.81,1.59 -5.3589,6.43 -7.8789,10.75 -2.52,4.32 -5.52016,10.1094 -6.66016,12.8594 -1.14,2.75 -2.79016,8.49 -3.66016,12.75 -0.97,4.72 -1.29984,8.9804 -0.83984,10.9004 0.41,1.73 1.65,3.75 2.75,4.5 1.1,0.75 2.79,1.3594 3.75,1.3594 0.96,-0.01 2.37086,-1.0198 3.13086,-2.2598 0.75,-1.24 1.90836,-5.18 2.56836,-8.75 0.67,-3.57 2.97086,-12.91 5.13086,-20.75 2.16,-7.84 4.81992,-16.05 5.91992,-18.25 1.1,-2.2 2,-4.45 2,-5 0,-0.55 -0.66094,-1 -1.46094,-1 z m -90.88867,10 c -0.74,0 -3.48031,2.14 -6.07031,4.75 -2.6,2.61 -7.29922,8.57 -10.44922,13.25 -3.15,4.68 -7.23031,12.1 -9.07031,16.5 -2.27,5.42 -3.38117,9.7291 -3.45117,13.3691 -0.08,3.75 0.34062,5.6709 1.39062,6.3809 0.83,0.56 2.74,0.7309 4.25,0.3809 1.51,-0.34 3.4107,-1.6409 4.2207,-2.8809 0.81,-1.24 2.43938,-6.75 3.60938,-12.25 1.17,-5.5 3.12937,-12.47 4.35937,-15.5 1.24,-3.03 4.57969,-9.1 7.42969,-13.5 2.86,-4.4 5.18016,-8.56 5.16016,-9.25 -0.02,-0.69 -0.63891,-1.25 -1.37891,-1.25 z m -50.14062,19 c -0.82,0 -4.35008,2.81 -7.83008,6.25 -3.49,3.44 -8.29969,9.63 -10.67969,13.75 -2.39,4.13 -5.61039,11.1 -7.15039,15.5 -1.55,4.4 -2.83914,9.35 -2.86914,11 -0.04,1.65 0.63047,3.56 1.48047,4.25 0.84,0.69 2.66906,1.03 4.03906,0.75 1.87,-0.37 2.86922,-1.57 3.94922,-4.75 0.8,-2.34 2.65133,-8.3 4.11133,-13.25 1.47,-4.95 4.05953,-11.93 5.76953,-15.5 1.7,-3.57 4.29023,-7.85 5.74023,-9.5 1.45,-1.65 3.1493,-4.01 3.7793,-5.25 0.63,-1.24 1.15039,-2.47 1.15039,-2.75 0,-0.28 -0.67023,-0.5 -1.49023,-0.5 z m 124.20507,30.5723 c -1.50515,0.025 -3.56484,0.4032 -5.21484,0.9882 -2.2,0.79 -5.72031,3.1197 -7.82031,5.1797 -2.11,2.07 -5.33969,6.4598 -7.17969,9.7598 -1.84,3.3 -4.27992,8.81 -5.41992,12.25 -1.15,3.44 -2.08008,8.39 -2.08008,11 -0.01,2.75 0.78914,6.23 1.86914,8.25 1.14,2.12 3.60172,4.3895 6.26172,5.7695 2.72,1.42 6.06914,2.2605 8.86914,2.2305 2.86,-0.03 5.96,-0.9006 8.5,-2.3906 2.2,-1.29 5.68023,-4.7685 7.74023,-7.7285 2.06,-2.96 4.68961,-8.0809 5.84961,-11.3809 1.69,-4.8 2.04047,-7.7 1.73047,-14.5 -0.27,-6.1 -0.93961,-9.4604 -2.34961,-11.9004 -1.08,-1.86 -3.0907,-4.1804 -4.4707,-5.1504 -1.37,-0.96 -3.62,-1.9893 -5,-2.2793 -0.3425,-0.075 -0.78344,-0.1061 -1.28516,-0.098 z M 684,3359.0195 c -2.48,0.01 -6.3,0.8401 -8.5,1.8301 -2.2,0.99 -5.28914,3.3505 -6.86914,5.2305 -1.58,1.88 -3.66109,4.9899 -4.62109,6.9199 -0.96,1.93 -2.30977,5.97 -3.00977,9 -0.7,3.03 -1.26,8.2 -1.25,11.5 0.02,3.69 0.7707,7.73 1.9707,10.5 1.07,2.47 3.59938,5.96 5.60938,7.75 2.02,1.79 5.57992,3.7401 7.91992,4.3301 2.34,0.6 5.6,0.839 7.25,0.539 1.65,-0.3 4.24,-1.46 5.75,-2.58 1.51,-1.12 4.29922,-5.2991 6.19922,-9.2891 1.9,-3.99 4.15,-9.95 5,-13.25 0.86,-3.3 1.56984,-8.7 1.58984,-12 0.02,-4.64 -0.60976,-7.2206 -2.75976,-11.3906 -1.87,-3.62 -3.9293,-5.99 -6.2793,-7.25 -1.96,-1.05 -5.48,-1.8599 -8,-1.8399 z m 260.41406,5.336 c -0.335,0.072 -0.59336,0.4901 -0.94336,1.2851 -0.44,1.02 -0.22023,12.4294 0.50977,25.3594 0.72,12.93 1.05047,23.95 0.73047,24.5 -0.33,0.55 -0.73039,5.8491 -0.90039,11.7891 -0.25,8.74 -0.0306,10.9704 1.18945,11.7304 0.83,0.52 2.96,0.961 4.75,0.961 1.79,0.01 3.99063,-0.3205 4.89062,-0.7305 0.90001,-0.41 2.25,-1.99 3,-3.5 0.75,-1.51 1.35938,-5.79 1.35938,-9.5 0,-3.71 -0.67953,-12.6 -1.51953,-19.75 -0.84,-7.15 -2.37016,-16.6 -3.41016,-21 -1.04,-4.4 -2.99031,-10.47 -4.32031,-13.5 -1.34,-3.03 -3.10945,-6.1094 -3.93945,-6.8594 -0.65,-0.585 -1.06149,-0.8576 -1.39649,-0.7851 z m -306.35351,2.1484 c -1.60453,-0.015 -3.60102,0.2891 -5.04102,0.8066 -1.91,0.69 -4.69945,2.8088 -6.18945,4.7188 -1.5,1.91 -3.84071,5.9407 -5.2207,8.9707 -1.37001,3.03 -3.02946,8.65 -3.68946,12.5 -0.65,3.85 -0.95969,10.15 -0.67969,14 0.28,3.85 1.18954,8.35 2.01954,10 0.82,1.65 2.79109,3.6209 4.37109,4.3809 1.58,0.76 6.0893,1.66 10.0293,2 l 7.16015,0.6191 c 5.49,-5.79 7.27938,-9.1793 8.35938,-13.0293 0.92,-3.28 2.17125,-10.1515 2.78125,-15.2715 0.77,-6.54 0.78859,-10.84 0.0586,-14.5 -0.58,-2.86 -1.9393,-6.6592 -3.0293,-8.4492 -1.1,-1.79 -3.00023,-3.8804 -4.24023,-4.6504 -1.24,-0.77 -3.6,-1.6587 -5.25,-1.9687 -0.4125,-0.08 -0.90461,-0.1218 -1.43945,-0.127 z M 782,3367.0391 c -1.92,0 -5.3,0.8716 -7.5,1.9316 -2.2,1.05 -4.93984,2.7288 -6.08984,3.7188 -1.15,1 -3.53102,4.0605 -5.29102,6.8105 -1.75,2.75 -4.08969,7.93 -5.17969,11.5 -1.09,3.57 -1.99023,9.2 -1.99023,12.5 0,4.61 0.53031,6.81 2.32031,9.5 1.27,1.93 3.41953,4.0602 4.76953,4.7402 1.35,0.67 4.71094,1.2305 7.46094,1.2305 2.86,0 6.71,-0.8202 9,-1.9102 2.2,-1.05 5.76945,-3.8602 7.93945,-6.2402 2.17,-2.37 5.28969,-7.2503 6.92969,-10.8203 1.99,-4.33 3.14141,-8.67 3.44141,-13 0.37,-5.18 0.0301,-7.47 -1.66993,-11.25 -1.67999,-3.73 -3.05062,-5.1705 -6.39062,-6.7305 -2.34,-1.09 -5.83,-1.9804 -7.75,-1.9804 z m -189.08398,14.3476 c -1.59094,0.058 -3.24188,0.6691 -5.29688,1.9141 -2.13,1.29 -5.75859,5.0095 -8.05859,8.2695 -2.29,3.26 -5.19141,8.6297 -6.44141,11.9297 -1.24,3.3 -2.49883,8.7 -2.79883,12 -0.3,3.3 -0.0497,7.91 0.57031,10.25 0.61001,2.34 2.56938,5.9002 4.35938,7.9102 1.79,2.01 4.71,4.26 6.5,5 1.79,0.74 4.71,1.3303 6.5,1.3203 1.79,-0.01 5.05,-1.0909 7.25,-2.3809 2.55,-1.51 4.95086,-4.1305 6.63086,-7.2305 1.44,-2.68 3.19867,-7.3391 3.88867,-10.3691 0.8,-3.45 1.07977,-9.05 0.75977,-15 -0.35,-6.38 -1.16977,-10.98 -2.50977,-14 -1.1,-2.47 -3.06891,-5.5009 -4.37891,-6.7109 -1.32,-1.22 -3.74062,-2.4693 -5.39062,-2.7793 -0.53,-0.1 -1.05367,-0.1425 -1.58398,-0.1231 z M 922,3384 c -0.55,0 -1.9,0.9 -3,2 -1.1,1.1 -3.50937,4.36 -5.35938,7.25 -1.84999,2.89 -4.61062,7.72 -6.14062,10.75 -1.52,3.03 -4.3207,10.22 -6.2207,16 -2.49,7.56 -3.63914,13.2002 -4.11914,20.1602 -0.6,8.8 -0.48016,9.8493 1.33984,11.7793 1.1,1.17 3.01,2.1098 4.25,2.0898 1.24,-0.02 3.15,-0.4793 4.25,-1.0293 1.1,-0.55 2.2107,-2.24 2.4707,-3.75 0.26,-1.51 0.94953,-8.37 1.51953,-15.25 0.57,-6.87 1.75891,-15.87 2.62891,-20 0.88,-4.12 3.34024,-11.66 5.49024,-16.75 C 921.24937,3392.16 923,3387.1 923,3386 c 0,-1.1 -0.45,-2 -1,-2 z m 56.75,0.9707 c -0.96,0.01 -1.75953,0.3693 -1.76953,0.7793 -0.01,0.41 0.65047,2.1 1.48047,3.75 0.82,1.65 2.58968,7.5 3.92968,13 1.35001,5.5 3.34922,14.05 4.44922,19 1.11,4.95 2.51086,12.6 3.13086,17 0.62,4.4 1.67008,9.2591 2.33008,10.7891 0.91,2.1 1.86922,2.78 3.94922,2.75 1.51,-0.02 3.57008,-0.8291 4.5801,-1.7891 1.01,-0.96 2.1493,-3.55 2.5293,-5.75 0.42,-2.39 0.09,-7.53 -0.8301,-12.75 -0.84,-4.81 -2.4784,-11.56 -3.64844,-15 -1.16,-3.44 -4.65,-11.1506 -7.75,-17.1406 -3.1,-5.99 -6.75086,-11.7391 -8.13086,-12.7891 -1.37,-1.04 -3.29,-1.8696 -4.25,-1.8496 z m -86.18945,23.0195 c -0.58,0 -2.18055,0.7404 -3.56055,1.6504 -1.37,0.91 -4.45031,3.4998 -6.82031,5.7598 -2.38,2.25 -5.82039,6.1296 -7.65039,8.5996 -1.83,2.47 -5.34836,8.55 -7.81836,13.5 -2.48,4.95 -5.49094,11.93 -6.71094,15.5 -1.21,3.57 -2.44047,8.97 -2.73047,12 -0.38,3.94 -0.13039,5.8595 0.84961,6.7695 0.76,0.71 2.69125,1.16 4.28125,1 1.73,-0.16 3.63898,-1.2795 4.70899,-2.7695 1,-1.37 3.16078,-7.68 4.80078,-14 1.64,-6.32 4.1689,-14.65 5.6289,-18.5 1.46,-3.85 3.56188,-8.8 4.67188,-11 1.1,-2.2 3.02953,-5.12 4.26953,-6.5 1.24,-1.37 3.34945,-4.64 4.68945,-7.25 1.35,-2.61 1.97063,-4.7498 1.39063,-4.7598 z M 1024.5,3411 c -0.83,0 -1.5,0.68 -1.5,1.5 0,0.82 1.7695,4.76 3.9395,8.75 2.17,3.99 4.9306,10.85 6.1406,15.25 1.22,4.42 2.4805,12.6907 2.8105,18.4707 l 0.6094,10.4688 c 7.95,3.4 9.8403,3.7305 10.5703,3.0605 0.59,-0.55 1.0495,-3.47 1.0195,-6.5 -0.03,-3.03 -0.5198,-7.97 -1.0898,-11 -0.57,-3.03 -2.8202,-9.1 -4.9902,-13.5 -2.17,-4.4 -6.6605,-12.16 -9.9805,-17.25 -3.31,-5.09 -6.6993,-9.25 -7.5293,-9.25 z m -302.02539,11.1387 c -0.8542,-0.01 -1.68336,-0.01 -2.47461,0 -6.33,0.07 -15.55,0.5203 -20.5,0.9903 -4.95,0.48 -14.85,1.9896 -22,3.3496 -7.15,1.36 -19.98,4.4797 -28.5,6.9297 -8.52,2.44 -19.33,5.8007 -24,7.4707 -6.24,2.21 -9.36,3.9583 -11.75,6.5683 -2.16,2.36 -3.44938,4.9708 -3.85938,7.8008 -0.36999,2.61 -0.0105,6.37 0.93946,9.75 0.85,3.03 2.96922,7.3 4.69922,9.5 1.74,2.2 5.70054,5.9198 8.81054,8.2598 3.12,2.35 10.61016,6.7304 16.66016,9.7304 6.05,3.01 15.73,7.039 21.5,8.959 5.77,1.93 15.23,4.2406 21,5.1406 6.19,0.96 16.45,1.6309 25,1.6309 9.49,-0.01 17.09,-0.5711 22,-1.6211 4.13,-0.88 9.98,-2.8303 13,-4.3203 3.02,-1.49 8.58914,-5.66 12.36914,-9.25 3.77,-3.59 9.2118,-10.1293 12.0918,-14.5293 2.87,-4.4 6.23828,-10.47 7.48828,-13.5 1.25,-3.03 2.52055,-8.65 2.81055,-12.5 0.3,-3.85 0.24062,-8.24 -0.10938,-9.75 -0.36,-1.51 -2.11039,-4.3809 -3.90039,-6.3809 -1.79,-2 -5.27,-4.6391 -7.75,-5.8691 -2.48,-1.23 -7.65,-3.0207 -11.5,-3.9707 -3.85,-0.95 -10.6,-2.3589 -15,-3.1289 -3.85,-0.6738 -11.046,-1.1957 -17.02539,-1.2617 z M 957,3442.0391 c -1.37,0.02 -4.3,0.7 -6.5,1.5 -2.2,0.8 -5.27984,2.7009 -6.83984,4.2109 -1.57,1.51 -3.93,4.89 -5.25,7.5 -1.33,2.61 -2.89071,7.79 -3.47071,11.5 -0.58,3.71 -0.77015,9 -0.41015,11.75 0.36,2.75 1.73054,7.36 3.06054,10.25 1.81,3.95 3.58016,5.99 7.16016,8.25 2.61,1.65 6.55,3.2909 8.75,3.6309 2.88,0.46 5.12,0.11 8,-1.25 3.24,-1.52 4.61023,-3.1109 7.24023,-8.3809 1.78,-3.57 3.94055,-9.87 4.81055,-14 1,-4.75 1.37,-9.7 1,-13.5 -0.34,-3.52 -1.71055,-8.27 -3.31055,-11.5 -2.18,-4.37 -3.66023,-5.9598 -7.24023,-7.7598 -2.48,-1.24 -5.62,-2.2311 -7,-2.2011 z M 1003.75,3456 c -1.24,-0.01 -3.7102,0.78 -5.49023,1.75 -1.78,0.96 -4.7,3.1303 -6.5,4.8203 -1.79,1.69 -4.90993,6.19 -6.91993,10 -2.02,3.81 -4.37023,9.6297 -5.24023,12.9297 -0.86,3.3 -1.56984,8.03 -1.58984,10.5 -0.01,2.47 0.81054,6.07 1.81054,8 1.15,2.2 3.47,4.3398 6.25,5.7598 2.44,1.24 6.11969,2.25 8.17969,2.25 2.06,-0.01 5.21,-0.64 7,-1.42 1.79,-0.77 4.71,-2.8 6.5,-4.5 1.79,-1.7 4.6191,-5.8998 6.2891,-9.3398 1.67,-3.44 3.5518,-9.4 4.1718,-13.25 0.87,-5.32 0.8593,-8.32 -0.051,-12.5 -0.65,-3.03 -2.08,-6.96 -3.17,-8.75 -1.1,-1.79 -3.5702,-3.93 -5.4902,-4.75 -1.92,-0.82 -4.51,-1.5 -5.75,-1.5 z m -94.16992,0.4629 c -2.14172,-9e-4 -4.80821,0.3041 -6.7207,0.8066 -2.55,0.68 -5.8193,2.3605 -7.2793,3.7305 -1.45,1.38 -3.37,4.07 -4.25,6 -0.88,1.93 -2.00024,6.43 -2.49024,10 -0.54,4.01 -0.48914,10.34 0.13086,16.5 0.77,7.5 1.7093,11.38 3.7793,15.5 2.19,4.36 3.69977,5.9698 7.25977,7.7598 3.01,1.51 6.31023,2.2593 9.99023,2.2793 4.1,0.01 6.39,-0.5689 9,-2.2989 2.44,-1.61 4.15969,-3.9693 5.67969,-7.7793 1.2,-3 2.70937,-9.5109 3.35937,-14.4609 0.65,-4.95 1.01078,-11.7 0.80078,-15 -0.24,-3.77 -1.36929,-8.04 -3.02929,-11.5 -1.67,-3.47 -4.06047,-6.4992 -6.48047,-8.1992 -2.11,-1.49 -5.63008,-2.9405 -7.83008,-3.2305 -0.55,-0.072 -1.20602,-0.1071 -1.91992,-0.1074 z m 139.90822,16.873 c -1.996,0.036 -3.9558,0.5221 -5.9883,1.4746 -2.2,1.03 -6.4094,4.5293 -9.3594,7.7793 -2.95,3.25 -6.8499,9.0602 -8.6699,12.9102 -1.83,3.85 -3.6205,9.03 -3.9805,11.5 -0.37,2.47 -0.2008,6.3 0.3692,8.5 0.58,2.2 2.2414,5.13 3.6914,6.5 1.94,1.84 3.999,2.6009 7.789,2.8809 3.59,0.26 6.2202,-0.1702 8.6602,-1.4102 1.92,-0.99 6.1296,-4.3109 9.3496,-7.3809 3.21,-3.07 6.4795,-7.1598 7.2695,-9.0898 0.79,-1.93 1.9218,-5.97 2.5118,-9 0.78,-3.98 0.7787,-7.44 -0.031,-12.5 -0.77,-4.86 -1.7994,-7.6895 -3.3594,-9.2695 -1.28,-1.3 -3.9402,-2.4913 -6.2402,-2.7813 -0.6775,-0.088 -1.3464,-0.1251 -2.0117,-0.1133 z M 859,3478.9805 c -1.37,0.02 -4.12914,1.0793 -6.11914,2.3593 -1.99,1.29 -5.05078,4.32 -6.80078,6.75 -1.76,2.42 -3.89953,6.8802 -4.76953,9.9102 -0.88,3.03 -1.55,8.65 -1.5,12.5 0.07,5.33 0.69008,8.2 2.58007,12 1.37001,2.75 3.86883,6.01 5.54883,7.25 1.68,1.24 4.97055,2.9295 7.31055,3.7695 2.34,0.84 5.49,1.51 7,1.5 1.51,-0.01 4.44,-0.72 6.5,-1.58 2.06,-0.85 4.80961,-2.54 6.09961,-3.75 1.29,-1.2 3.26086,-3.9895 4.38086,-6.1895 1.12,-2.2 2.25883,-6.47 2.54883,-9.5 0.28,-3.03 -0.0502,-8.43 -0.74024,-12 -0.69,-3.57 -2.27883,-8.53 -3.54883,-11 -1.26,-2.47 -3.35062,-5.4892 -4.64062,-6.6992 -1.29,-1.21 -4.36961,-2.9115 -6.84961,-3.7715 -2.48,-0.86 -5.62,-1.5588 -7,-1.5488 z m 102.44531,37.2187 c -5.55789,-0.053 -8.41781,0.3726 -11.44531,1.5801 -2.48,0.99 -7.87,4.1212 -12,6.9512 -4.12,2.83 -8.74,5.629 -10.25,6.209 -1.51,0.58 -9.16,1.4401 -17,1.9101 -12.19,0.73 -15.08,1.24 -20,3.5 -3.16,1.46 -7.77,4.6804 -10.25,7.1504 -2.48,2.47 -5.72094,7.09 -7.21094,10.25 -2.19,4.65 -2.77914,7.56 -3.11914,15.25 -0.32,7.51 0.0409,11.12 1.71094,17.25 1.17,4.26 3.51851,10.79 5.22852,14.5 1.69999,3.71 4.42124,9.9 6.03124,13.75 2.17001,5.19 3.42915,10.88 4.86915,22 1.07,8.25 2.65953,21.3 3.51953,29 0.87,7.7 2.66976,22.32 4.00976,32.5 1.34,10.18 2.93102,21.43 3.54102,25 0.6,3.57 1.7107,9.65 2.4707,13.5 0.76,3.85 2.33953,9.93 3.51953,13.5 1.18,3.57 3.43024,8.97 4.99024,12 1.56,3.03 3.7589,6.85 4.8789,8.5 1.12,1.65 4.41078,5.4001 7.30078,8.3301 3.16,3.21 8.04977,6.7093 12.25977,8.7793 4.18,2.07 10.42,4.08 15.5,5 5.58,1.01 11.08,1.3297 16,0.9297 4.13,-0.33 10.42,-1.6285 14,-2.8985 3.58,-1.27 9.2,-4.0399 12.5,-6.1699 3.3,-2.13 7.9802,-5.6899 10.4102,-7.9199 2.42,-2.23 6.6997,-7.2008 9.5097,-11.0508 2.8,-3.85 6.0603,-8.8 7.2403,-11 1.17,-2.2 2.8905,-6.25 3.8105,-9 0.92,-2.75 2.9591,-11.75 4.5391,-20 1.59,-8.25 4.5004,-21.97 6.4804,-30.5 1.98,-8.53 5.6294,-23.37 8.1094,-33 2.48,-9.62 5.3301,-20.2 6.3301,-23.5 1.01,-3.3 4.0801,-11.18 6.8301,-17.5 2.75,-6.32 6.3595,-15.55 8.0195,-20.5 1.66,-4.95 3.5609,-12.6 4.2109,-17 0.96,-6.52 0.92,-9.58 -0.25,-16.5 -0.78,-4.68 -2.5406,-10.97 -3.8906,-14 -1.36,-3.03 -4.0598,-7.3 -6.0098,-9.5 -1.95,-2.2 -5.7394,-4.9799 -8.4394,-6.1699 -2.69,-1.2 -10.0704,-3.3701 -16.4004,-4.8301 -6.33,-1.46 -17.8,-3.4895 -25.5,-4.5195 -12.78,-1.69 -14.87,-2.2802 -24,-6.6602 -9.51,-4.57 -10.46,-4.8103 -19.5,-5.0703 -0.9125,-0.026 -1.7607,-0.043 -2.55469,-0.051 z" />
    <g
       aria-label="inches"
       id="text2538-7-9-6-4-9-4-2-5-7-8-6-6"
       style="font-style:normal;font-weight:normal;font-size:16.366px;line-height:1.25;font-family:sans-serif;fill:#333333;fill-opacity:1;stroke:none;stroke-width:0.409151">
      <path
         d="m 1124.6611,3574.6437 h -1.6942 v -1.5583 h 1.6942 z m -0.096,10.4205 h -1.5024 v -8.9262 h 1.5024 z"
         style="white-space:pre;fill:#333333;fill-opacity:1;stroke-width:0.409151"
         id="path3145" />
      <path
         d="m 1135.0017,3585.0642 h -1.5023 v -5.0824 q 0,-0.6153 -0.072,-1.1507 -0.072,-0.5434 -0.2637,-0.8471 -0.1998,-0.3356 -0.5753,-0.4955 -0.3756,-0.1678 -0.975,-0.1678 -0.6153,0 -1.2866,0.3037 -0.6712,0.3037 -1.2865,0.7751 v 6.6647 h -1.5024 v -8.9262 h 1.5024 v 0.9909 q 0.7032,-0.5833 1.4544,-0.911 0.7511,-0.3276 1.5423,-0.3276 1.4464,0 2.2055,0.871 0.7592,0.8711 0.7592,2.5093 z"
         style="white-space:pre;fill:#333333;fill-opacity:1;stroke-width:0.409151"
         id="path3147" />
      <path
         d="m 1144.4953,3584.5048 q -0.7512,0.3596 -1.4305,0.5594 -0.6712,0.1998 -1.4304,0.1998 -0.9669,0 -1.774,-0.2797 -0.8071,-0.2877 -1.3825,-0.8631 -0.5834,-0.5753 -0.903,-1.4544 -0.3197,-0.879 -0.3197,-2.0537 0,-2.1896 1.1987,-3.4362 1.2067,-1.2466 3.1805,-1.2466 0.7672,0 1.5024,0.2157 0.7431,0.2158 1.3585,0.5274 v 1.6702 h -0.08 q -0.6873,-0.5354 -1.4225,-0.8231 -0.7272,-0.2877 -1.4224,-0.2877 -1.2786,0 -2.0218,0.8631 -0.7352,0.855 -0.7352,2.5172 0,1.6142 0.7192,2.4853 0.7272,0.863 2.0378,0.863 0.4555,0 0.927,-0.1198 0.4714,-0.1199 0.847,-0.3117 0.3277,-0.1678 0.6154,-0.3516 0.2876,-0.1918 0.4555,-0.3277 h 0.08 z"
         style="white-space:pre;fill:#333333;fill-opacity:1;stroke-width:0.409151"
         id="path3149" />
      <path
         d="m 1153.8849,3585.0642 h -1.5023 v -5.0824 q 0,-0.6153 -0.072,-1.1507 -0.072,-0.5434 -0.2637,-0.8471 -0.1998,-0.3356 -0.5754,-0.4955 -0.3756,-0.1678 -0.9749,-0.1678 -0.6154,0 -1.2866,0.3037 -0.6713,0.3037 -1.2866,0.7751 v 6.6647 h -1.5024 v -12.4343 h 1.5024 v 4.499 q 0.7032,-0.5833 1.4544,-0.911 0.7512,-0.3276 1.5423,-0.3276 1.4464,0 2.2056,0.871 0.7591,0.8711 0.7591,2.5093 z"
         style="white-space:pre;fill:#333333;fill-opacity:1;stroke-width:0.409151"
         id="path3151" />
      <path
         d="m 1164.2495,3580.7569 h -6.5767 q 0,0.8231 0.2477,1.4385 0.2477,0.6073 0.6793,0.9989 0.4155,0.3835 0.9829,0.5753 0.5753,0.1918 1.2626,0.1918 0.911,0 1.83,-0.3596 0.9269,-0.3676 1.3185,-0.7192 h 0.08 v 1.6382 q -0.7591,0.3197 -1.5503,0.5354 -0.7911,0.2158 -1.6621,0.2158 -2.2216,0 -3.4682,-1.1987 -1.2467,-1.2067 -1.2467,-3.4202 0,-2.1896 1.1907,-3.4762 1.1987,-1.2866 3.1486,-1.2866 1.806,0 2.7809,1.0548 0.9829,1.0549 0.9829,2.9967 z m -1.4624,-1.1507 q -0.01,-1.1827 -0.5993,-1.83 -0.5834,-0.6473 -1.782,-0.6473 -1.2067,0 -1.9259,0.7113 -0.7112,0.7112 -0.8071,1.766 z"
         style="white-space:pre;fill:#333333;fill-opacity:1;stroke-width:0.409151"
         id="path3153" />
      <path
         d="m 1172.904,3582.491 q 0,1.2227 -1.0149,2.0058 -1.0069,0.7832 -2.7569,0.7832 -0.9909,0 -1.822,-0.2318 -0.8231,-0.2397 -1.3825,-0.5194 v -1.6861 h 0.08 q 0.7112,0.5354 1.5823,0.855 0.871,0.3117 1.6701,0.3117 0.9909,0 1.5503,-0.3197 0.5594,-0.3196 0.5594,-1.0069 0,-0.5274 -0.3037,-0.7991 -0.3036,-0.2717 -1.1667,-0.4635 -0.3196,-0.072 -0.8391,-0.1678 -0.5114,-0.096 -0.9349,-0.2078 -1.1747,-0.3116 -1.6702,-0.911 -0.4875,-0.6073 -0.4875,-1.4863 0,-0.5514 0.2238,-1.0389 0.2317,-0.4875 0.6952,-0.871 0.4475,-0.3756 1.1348,-0.5914 0.6952,-0.2237 1.5503,-0.2237 0.7991,0 1.6142,0.1997 0.8231,0.1918 1.3665,0.4715 v 1.6063 h -0.08 q -0.5754,-0.4236 -1.3985,-0.7113 -0.8231,-0.2956 -1.6142,-0.2956 -0.8231,0 -1.3905,0.3196 -0.5673,0.3117 -0.5673,0.935 0,0.5514 0.3436,0.8311 0.3356,0.2797 1.0868,0.4555 0.4155,0.096 0.927,0.1918 0.5194,0.096 0.863,0.1758 1.0469,0.2397 1.6142,0.8231 0.5674,0.5913 0.5674,1.5662 z"
         style="white-space:pre;fill:#333333;fill-opacity:1;stroke-width:0.409151"
         id="path3155" />
    </g>
    <g
       aria-label="11"
       id="text3525-85"
       style="font-style:normal;font-weight:normal;font-size:19.0998px;line-height:1.25;font-family:sans-serif;fill:#333333;fill-opacity:1;stroke:none;stroke-width:0.477494">
      <path
         d="m 1103.7938,3585.5225 h -7.5168 v -1.4176 h 2.8911 v -9.3074 h -2.8911 v -1.2684 q 0.5875,0 1.259,-0.093 0.6715,-0.1026 1.0165,-0.2891 0.429,-0.2332 0.6715,-0.5876 0.2518,-0.3637 0.2891,-0.9699 h 1.4456 v 12.5156 h 2.8351 z"
         style="white-space:pre;fill:#333333;fill-opacity:1;stroke-width:0.477494"
         id="path5860" />
      <path
         d="m 1115.9363,3585.5225 h -7.5168 v -1.4176 h 2.8911 v -9.3074 h -2.8911 v -1.2684 q 0.5876,0 1.259,-0.093 0.6715,-0.1026 1.0166,-0.2891 0.429,-0.2332 0.6715,-0.5876 0.2518,-0.3637 0.2891,-0.9699 h 1.4455 v 12.5156 h 2.8351 z"
         style="white-space:pre;fill:#333333;fill-opacity:1;stroke-width:0.477494"
         id="path5862" />
    </g>
    <path
       style="color:#000000;font-style:normal;font-variant:normal;font-weight:normal;font-stretch:normal;font-size:medium;line-height:normal;font-family:sans-serif;font-variant-ligatures:normal;font-variant-position:normal;font-variant-caps:normal;font-variant-numeric:normal;font-variant-alternates:normal;font-variant-east-asian:normal;font-feature-settings:normal;font-variation-settings:normal;text-indent:0;text-align:start;text-decoration:none;text-decoration-line:none;text-decoration-style:solid;text-decoration-color:#000000;letter-spacing:normal;word-spacing:normal;text-transform:none;writing-mode:lr-tb;direction:ltr;text-orientation:mixed;dominant-baseline:auto;baseline-shift:baseline;text-anchor:start;white-space:normal;shape-padding:0;shape-margin:0;inline-size:0;clip-rule:nonzero;display:inline;overflow:visible;visibility:visible;opacity:1;isolation:auto;mix-blend-mode:normal;color-interpolation:sRGB;color-interpolation-filters:linearRGB;solid-color:#000000;solid-opacity:1;vector-effect:none;fill:#333333;fill-opacity:1;fill-rule:nonzero;stroke:none;stroke-linecap:butt;stroke-linejoin:miter;stroke-miterlimit:4;stroke-dasharray:none;stroke-dashoffset:0;stroke-opacity:1;color-rendering:auto;image-rendering:auto;shape-rendering:auto;text-rendering:auto;enable-background:accumulate;stop-color:#000000;stop-opacity:1"
       d="m 1128.9844,3598.3906 v 199.7012 h -73.3574 v 1 h 74.3574 v -200.7012 z"
       id="path5865" />
    <path
       style="color:#000000;font-style:normal;font-variant:normal;font-weight:normal;font-stretch:normal;font-size:medium;line-height:normal;font-family:sans-serif;font-variant-ligatures:normal;font-variant-position:normal;font-variant-caps:normal;font-variant-numeric:normal;font-variant-alternates:normal;font-variant-east-asian:normal;font-feature-settings:normal;font-variation-settings:normal;text-indent:0;text-align:start;text-decoration:none;text-decoration-line:none;text-decoration-style:solid;text-decoration-color:#000000;letter-spacing:normal;word-spacing:normal;text-transform:none;writing-mode:lr-tb;direction:ltr;text-orientation:mixed;dominant-baseline:auto;baseline-shift:baseline;text-anchor:start;white-space:normal;shape-padding:0;shape-margin:0;inline-size:0;clip-rule:nonzero;display:inline;overflow:visible;visibility:visible;opacity:1;isolation:auto;mix-blend-mode:normal;color-interpolation:sRGB;color-interpolation-filters:linearRGB;solid-color:#000000;solid-opacity:1;vector-effect:none;fill:#333333;fill-opacity:1;fill-rule:nonzero;stroke:none;stroke-linecap:butt;stroke-linejoin:miter;stroke-miterlimit:4;stroke-dasharray:none;stroke-dashoffset:0;stroke-opacity:1;color-rendering:auto;image-rendering:auto;shape-rendering:auto;text-rendering:auto;enable-background:accumulate;stop-color:#000000;stop-opacity:1"
       d="m 963.4668,3358.0254 v 1 h 165.5195 v 204.5117 h 1 v -205.5117 z"
       id="path5871" />
  </g>
</svg>
