<?xml version="1.0" encoding="UTF-8" standalone="no"?>
<svg
   xmlns:dc="http://purl.org/dc/elements/1.1/"
   xmlns:cc="http://creativecommons.org/ns#"
   xmlns:rdf="http://www.w3.org/1999/02/22-rdf-syntax-ns#"
   xmlns:svg="http://www.w3.org/2000/svg"
   xmlns="http://www.w3.org/2000/svg"
   xmlns:sodipodi="http://sodipodi.sourceforge.net/DTD/sodipodi-0.dtd"
   xmlns:inkscape="http://www.inkscape.org/namespaces/inkscape"
   version="1.1"
   id="svg10"
   width="512"
   height="512"
   viewBox="0 0 512 512"
   sodipodi:docname="grouse.svg"
   inkscape:version="1.0.2 (e86c870879, 2021-01-15, custom)">
  <metadata
     id="metadata16">
    <rdf:RDF>
      <cc:Work
         rdf:about="">
        <dc:format>image/svg+xml</dc:format>
        <dc:type
           rdf:resource="http://purl.org/dc/dcmitype/StillImage" />
        <dc:title></dc:title>
      </cc:Work>
    </rdf:RDF>
  </metadata>
  <defs
     id="defs14" />
  <sodipodi:namedview
     pagecolor="#ffffff"
     bordercolor="#666666"
     borderopacity="1"
     objecttolerance="10"
     gridtolerance="10"
     guidetolerance="10"
     inkscape:pageopacity="0"
     inkscape:pageshadow="2"
     inkscape:window-width="1366"
     inkscape:window-height="715"
     id="namedview12"
     showgrid="false"
     inkscape:zoom="0.5553815"
     inkscape:cx="593.87918"
     inkscape:cy="422.33263"
     inkscape:window-x="-8"
     inkscape:window-y="-8"
     inkscape:window-maximized="1"
     inkscape:current-layer="g18" />
  <g
     inkscape:groupmode="layer"
     inkscape:label="Image"
     id="g18">
    <path
       id="path922"
       style="fill:#333333;fill-opacity:1;stroke:none;stroke-width:2.28644px;stroke-linecap:butt;stroke-linejoin:miter;stroke-opacity:1"
       d="m 200.61538,174.57684 v 2.28644 h 173.82747 v 41.57122 h 2.28644 v -43.85766 z m -26.75848,3.20191 -9.00732,17.23763 -4.11291,0.51801 c 0,0 -16.72735,36.277 -20.5869,72.29972 -3.85958,36.0227 -55.061559,-5.9152 -59.693049,-9.00286 -4.6315,-3.08765 -7.97574,2.05869 -7.97574,2.05869 0,0 -16.98413,-11.83937 -16.46952,-9.26632 0.51461,2.57307 14.15183,16.21049 14.15183,16.21049 0,0 -0.25602,5.40505 1.54513,9.00732 1.80112,3.60226 20.32674,14.15086 29.589729,20.06888 9.26298,5.91801 19.29632,9.52087 19.29632,9.52087 0,0 10.29428,2.05702 21.87299,15.95148 11.57874,13.89447 19.80988,12.86571 19.80988,12.86571 -3.08766,-3.08766 -4.1174,-8.48925 -4.1174,-17.23763 0,-8.74838 9.52172,-9.0056 21.10045,-8.74831 11.57872,0.25732 47.85894,-18.26918 47.85894,-18.26918 0,0 -2.57282,-5.40203 2.05869,-7.20317 4.63148,-1.80115 14.92437,-11.83859 14.92437,-11.83859 0,0 -15.95199,7.2074 -20.06886,5.14897 -4.11688,-2.05846 -17.49662,-0.25903 -17.49662,-0.25903 0,0 -21.6147,5.91863 -36.53838,9.52089 -14.92371,3.60229 -9.00732,-15.1834 -9.00732,-15.1834 0,0 16.72641,-54.54549 17.75563,-61.49272 1.02924,-6.94724 -4.11738,-10.29344 -4.11738,-10.29344 z m 115.45626,50.53391 c -0.83217,0 -1.69347,0.10997 -2.58564,0.33491 -0.88467,0.21744 -1.59337,0.45658 -2.12566,0.71897 v 2.35344 h 0.11163 c 0.71225,-0.46484 1.47086,-0.8258 2.27304,-1.08071 0.80222,-0.25489 1.56084,-0.38405 2.27304,-0.38405 0.46486,0 0.87859,0.0411 1.24595,0.11612 0.36736,0.075 0.71367,0.20693 1.03603,0.40191 0.30739,0.19504 0.54658,0.44735 0.71897,0.75469 0.17242,0.29991 0.25903,0.65353 0.25903,1.05839 0,0.91465 -0.3404,1.61011 -1.02265,2.08995 -0.67475,0.47233 -1.58005,0.71003 -2.71961,0.71003 h -0.79044 v 1.86667 h 1.01371 c 0.55478,0 1.06978,0.0441 1.54961,0.13396 0.47981,0.0825 0.89069,0.24095 1.22807,0.47339 0.33737,0.22498 0.59853,0.53596 0.78597,0.93332 0.19503,0.38986 0.29472,0.88284 0.29472,1.48262 0,0.60725 -0.0867,1.11205 -0.25901,1.50939 -0.16485,0.39736 -0.41876,0.75976 -0.76362,1.08965 -0.32989,0.30739 -0.76276,0.53919 -1.29507,0.69663 -0.53228,0.15754 -1.03706,0.2367 -1.50939,0.2367 -0.8022,0 -1.63414,-0.13788 -2.49633,-0.41531 -0.86217,-0.27739 -1.60899,-0.62962 -2.24625,-1.04946 h -0.1697 v 2.35344 c 0.57728,0.26241 1.31532,0.50155 2.21499,0.71897 0.89967,0.22498 1.81676,0.33494 2.7464,0.33494 0.90715,0 1.73912,-0.12324 2.49634,-0.37066 0.7647,-0.25491 1.42495,-0.64521 1.98724,-1.17001 0.5023,-0.47231 0.89262,-1.02399 1.17001,-1.66124 0.27739,-0.63728 0.41531,-1.33864 0.41531,-2.10334 0,-0.77222 -0.11592,-1.40168 -0.34834,-1.88901 -0.23241,-0.48731 -0.52881,-0.89229 -0.88867,-1.21467 -0.32239,-0.28489 -0.71412,-0.52261 -1.17893,-0.71003 -0.46484,-0.19504 -0.87715,-0.31969 -1.23701,-0.3796 v -0.16076 c 0.89214,-0.17994 1.66544,-0.61425 2.31769,-1.30398 0.65978,-0.69725 0.98692,-1.50864 0.98692,-2.43828 0,-0.68225 -0.13787,-1.28093 -0.41531,-1.79074 -0.27739,-0.50981 -0.6838,-0.94412 -1.22359,-1.304 -0.50233,-0.32982 -1.06577,-0.56898 -1.68803,-0.71897 -0.62228,-0.14999 -1.3442,-0.22327 -2.16142,-0.22327 z m 16.17032,4.24687 -14.37509,30.20154 2.06762,0.98246 14.37062,-30.20156 z m -36.52498,0.46443 c -0.0562,0.91306 -0.27273,1.64484 -0.652,2.19267 -0.36519,0.53377 -0.87216,0.97514 -1.51833,1.32629 -0.51973,0.28096 -1.284,0.49749 -2.29538,0.65201 -1.01139,0.14061 -1.95971,0.20989 -2.84465,0.20989 v 2.86697 h 6.52886 v 21.029 h -6.52886 v 3.20191 h 16.98308 v -3.20191 h -6.4083 v -28.27683 z m 127.67891,1.93364 v 27.87046 h 3.36713 V 247.8903 c 0.91951,-0.70459 1.88174,-1.28338 2.88484,-1.73717 1.00309,-0.45379 1.96534,-0.68326 2.88485,-0.68326 0.89562,0 1.62248,0.12438 2.18373,0.37511 0.56126,0.23885 0.99205,0.61042 1.29059,1.11197 0.2866,0.45379 0.482,1.0859 0.58946,1.89793 0.10747,0.80009 0.16079,1.66167 0.16079,2.58118 v 11.392 h 3.3716 V 249.8418 c 0,-2.44803 -0.57147,-4.32517 -1.70591,-5.6268 -1.13446,-1.30162 -2.78212,-1.95149 -4.94353,-1.95149 -1.18223,0 -2.33396,0.24723 -3.45646,0.73682 -1.12251,0.48962 -2.20909,1.16911 -3.25996,2.04083 V 234.9576 Z m -52.57025,1.0182 v 3.49217 h 3.79583 v -3.49217 z m 20.32786,6.28771 c -1.1822,0 -2.33393,0.24723 -3.45645,0.73682 -1.12251,0.48962 -2.20909,1.16911 -3.25996,2.04083 v -2.22392 h -3.36713 v 20.01082 h 3.36713 V 247.8903 c 0.91951,-0.70459 1.88176,-1.28338 2.88484,-1.73717 1.00311,-0.45379 1.96536,-0.68326 2.88485,-0.68326 0.89562,0 1.62248,0.12438 2.18373,0.37511 0.56125,0.23885 0.99204,0.61042 1.29058,1.11197 0.28661,0.45379 0.48201,1.0859 0.58947,1.89793 0.10746,0.80009 0.16078,1.66167 0.16078,2.58118 v 11.392 h 3.36713 V 249.8418 c 0,-2.44803 -0.56697,-4.32517 -1.70143,-5.6268 -1.13444,-1.30162 -2.78212,-1.95149 -4.94354,-1.95149 z m 63.77025,0 c -2.91375,0 -5.26903,0.96224 -7.06028,2.88484 -1.7793,1.9226 -2.66603,4.52066 -2.66603,7.79265 0,3.30781 0.92816,5.85996 2.79108,7.66314 1.86288,1.79124 4.45501,2.68835 7.77479,2.68835 1.30162,0 2.54217,-0.15983 3.72438,-0.48228 1.18222,-0.32244 2.34433,-0.72366 3.47879,-1.20128 v -3.67081 h -0.17864 c -0.58514,0.52543 -1.57108,1.06279 -2.95629,1.6121 -1.37329,0.53739 -2.74264,0.80385 -4.10398,0.80385 -1.02698,0 -1.97146,-0.14222 -2.83125,-0.42871 -0.84784,-0.2866 -1.58062,-0.71739 -2.20159,-1.2906 -0.64485,-0.58515 -1.15262,-1.32975 -1.52282,-2.23731 -0.37017,-0.91951 -0.55373,-1.99425 -0.55373,-3.22424 h 14.74127 v -1.82648 c 0,-2.90181 -0.73278,-5.14015 -2.20159,-6.71642 -1.45687,-1.57629 -3.53534,-2.3668 -6.23411,-2.3668 z m 20.3636,0.0715 c -1.27775,0 -2.4354,0.16576 -3.47431,0.50016 -1.02698,0.32241 -1.87225,0.76504 -2.54099,1.32631 -0.69261,0.57319 -1.21223,1.22755 -1.55853,1.95596 -0.33437,0.72846 -0.50462,1.50269 -0.50464,2.32664 2e-5,1.31358 0.36567,2.42385 1.09411,3.33141 0.74037,0.89562 1.98684,1.57513 3.74226,2.04083 0.63291,0.16714 1.33462,0.32561 2.09888,0.4689 0.7762,0.14336 1.40239,0.26765 1.88005,0.37511 1.28969,0.28661 2.15867,0.63003 2.61244,1.03606 0.45379,0.406 0.68326,1.00706 0.68326,1.7952 0,1.02697 -0.41895,1.77752 -1.25487,2.25518 -0.8359,0.47768 -1.99355,0.71451 -3.47431,0.71451 -1.19414,0 -2.44062,-0.23093 -3.74227,-0.69665 -1.30162,-0.47766 -2.48744,-1.11569 -3.55022,-1.91579 h -0.17864 v 3.778 c 0.83592,0.41796 1.86921,0.8073 3.0992,1.16554 1.24193,0.3463 2.60535,0.51804 4.08612,0.51804 2.61521,0 4.67589,-0.58476 6.18055,-1.75503 1.51657,-1.17027 2.27304,-2.6699 2.27304,-4.49697 0,-1.45687 -0.42487,-2.62636 -1.27273,-3.51005 -0.84785,-0.87173 -2.05288,-1.48607 -3.61724,-1.84433 -0.51346,-0.11936 -1.15744,-0.24968 -1.93364,-0.39297 -0.76426,-0.14336 -1.46005,-0.2899 -2.081,-0.43317 -1.12253,-0.26271 -1.93227,-0.60024 -2.43383,-1.0182 -0.51346,-0.41794 -0.77256,-1.03822 -0.77256,-1.86219 0,-0.93143 0.42489,-1.63316 1.27272,-2.09888 0.84786,-0.47766 1.88709,-0.71451 3.11706,-0.71451 1.18223,0 2.38725,0.21904 3.61722,0.66091 1.22999,0.4299 2.27514,0.96136 3.13494,1.59427 h 0.17861 v -3.59936 c -0.812,-0.41794 -1.82901,-0.77176 -3.059,-1.05837 -1.21804,-0.29854 -2.42752,-0.44656 -3.62168,-0.44656 z m -62.61808,0.0179 c -2.94956,0 -5.32855,0.93267 -7.13173,2.79554 -1.79124,1.8629 -2.68835,4.43135 -2.68835,7.70334 0,1.75539 0.24131,3.29055 0.71897,4.60413 0.47766,1.31359 1.15122,2.40017 2.02297,3.25996 0.8598,0.8598 1.89306,1.50375 3.09921,1.93365 1.20605,0.41796 2.53401,0.6252 3.97893,0.6252 1.13446,0 2.20328,-0.14816 3.20636,-0.44657 1.01504,-0.29854 2.0794,-0.71748 3.20191,-1.25486 v -3.70653 h -0.17862 c -0.25075,0.20304 -0.58828,0.44577 -1.01817,0.73237 -0.4299,0.27467 -0.8903,0.53965 -1.37991,0.79042 -0.56126,0.28661 -1.19337,0.51754 -1.89793,0.69666 -0.70455,0.17926 -1.40033,0.26795 -2.081,0.26795 -1.95843,0 -3.47727,-0.64395 -4.56397,-1.93367 -1.07474,-1.30162 -1.61212,-3.15652 -1.61212,-5.56871 0,-2.48385 0.54923,-4.36692 1.64786,-5.64465 1.11055,-1.28971 2.61756,-1.93367 4.52823,-1.93367 1.03891,0 2.10181,0.2131 3.1885,0.64307 1.09862,0.42989 2.16154,1.04869 3.18851,1.84881 h 0.17862 v -3.74672 c -0.91949,-0.46572 -1.93056,-0.861 -3.04113,-1.18341 -1.09863,-0.32244 -2.22075,-0.48231 -3.36714,-0.48231 z m -41.62928,0.46443 v 20.01082 h 3.36712 v -20.01082 z m 83.70512,2.22392 c 1.79124,0 3.12062,0.48409 3.99235,1.45137 0.88344,0.96725 1.33197,2.33217 1.34418,4.09952 H 421.8597 c 0.14336,-1.5763 0.74579,-2.89384 1.8086,-3.95662 1.07474,-1.06281 2.51515,-1.59427 4.31833,-1.59427 z m -116.86298,4.81849 -6.94415,8.08739 v 2.21947 h 6.86824 v 4.03253 h 1.84882 v -4.03253 h 2.13014 v -1.54515 h -2.13014 v -8.76171 z m -0.0759,2.29092 v 6.47079 h -5.55534 z m 63.39511,39.35624 v 43.62981 H 227.89189 v 2.28644 h 148.8374 v -45.91635 z" />
  </g>
</svg>
