<?xml version="1.0" encoding="UTF-8" standalone="no"?>
<svg
   xmlns:dc="http://purl.org/dc/elements/1.1/"
   xmlns:cc="http://creativecommons.org/ns#"
   xmlns:rdf="http://www.w3.org/1999/02/22-rdf-syntax-ns#"
   xmlns:svg="http://www.w3.org/2000/svg"
   xmlns="http://www.w3.org/2000/svg"
   xmlns:sodipodi="http://sodipodi.sourceforge.net/DTD/sodipodi-0.dtd"
   xmlns:inkscape="http://www.inkscape.org/namespaces/inkscape"
   viewBox="0 0 512 512"
   width="512"
   height="512"
   version="1.1"
   id="svg125"
   sodipodi:docname="gull.svg"
   inkscape:version="1.0.2 (e86c870879, 2021-01-15, custom)">
  <sodipodi:namedview
     pagecolor="#ffffff"
     bordercolor="#666666"
     borderopacity="1"
     objecttolerance="10"
     gridtolerance="10"
     guidetolerance="10"
     inkscape:pageopacity="0"
     inkscape:pageshadow="2"
     inkscape:window-width="1366"
     inkscape:window-height="715"
     id="namedview1969"
     showgrid="false"
     inkscape:zoom="0.13378906"
     inkscape:cx="341.74975"
     inkscape:cy="1299.8847"
     inkscape:window-x="-8"
     inkscape:window-y="-8"
     inkscape:window-maximized="1"
     inkscape:current-layer="svg125" />
  <metadata
     id="metadata131">
    <rdf:RDF>
      <cc:Work
         rdf:about="">
        <dc:format>image/svg+xml</dc:format>
        <dc:type
           rdf:resource="http://purl.org/dc/dcmitype/StillImage" />
        <dc:title></dc:title>
      </cc:Work>
    </rdf:RDF>
  </metadata>
  <defs
     id="defs129" />
  <style
     id="style2">
		tspan { white-space:pre }
		.shp0 { fill: #e7d5b8 } 
		.shp1 { fill: #15120f } 
	</style>
  <g
     id="g2654"
     transform="matrix(2.5333111,0,0,2.5333111,-2309.7563,-1764.2488)">
    <path
       id="Path 23"
       style="fill:#333333;fill-opacity:1"
       d="m 970.24023,757 c -0.57,0 -1.5707,2.14 -2.2207,4.75 -0.64,2.61 -2.19922,6.1 -3.44922,7.75 -1.25,1.65 -4.69992,4.24 -7.66992,5.75 -4.31,2.2 -6.76039,2.75 -12.15039,2.75 -5.72,0 -7.07031,-0.34 -8.82031,-2.25 l -2.07031,-2.25 c 0.95,6.98 2.05054,11.7 3.06054,15 1,3.3 2.73008,7.8 3.83008,10 1.1,2.2 4.68094,7.38 7.96094,11.5 3.27,4.13 7.70914,9.0893 9.86914,11.0293 2.16,1.95 6.61992,5.37133 9.91992,7.61132 3.3,2.24001 7.91,5.03873 10.25,6.21876 2.34,1.17998 4.59,1.89007 5,1.58007 0.41,-0.3 -0.27906,-2.44 -1.53906,-4.75 -1.53,-2.81 -2.02,-4.81008 -1.5,-6.08007 0.44,-1.05 2.47906,-2.73001 4.53906,-3.75 2.06,-1.02 5.38086,-3.31938 7.38086,-5.10938 2,-1.79 4.64867,-5.27 5.88867,-7.75 1.24,-2.48 2.99087,-6.98 3.88087,-10 0.89,-3.02 1.6194,-6.74 1.6094,-8.25 -0.01,-1.51 -0.3706,-2.75 -0.8106,-2.75 -0.44,0 -1.3283,0.56 -1.9883,1.25 -0.95,1 -1.74113,0.98969 -3.95113,-0.0703 -1.52,-0.72 -5.84891,-3.19 -9.62891,-5.5 -3.77,-2.3 -7.87156,-5.52969 -9.10156,-7.17969 -1.23,-1.65 -2.97891,-4.46 -3.87891,-6.25 -0.91,-1.79 -2.03,-5.5 -2.5,-8.25 -0.47,-2.75 -1.33016,-5 -1.91016,-5 z m -9.92968,25.20898 c 0.08,0.0312 0.16984,0.70102 0.33984,2.04102 0.19,1.51 0.90961,2.75953 1.59961,2.76953 0.84,0.01 0.76,0.33977 -0.25,1.00977 -1.29,0.87 -1.22,1.20015 0.5,2.41015 1.13,0.8 2.82992,1.12047 3.91992,0.73047 1.63,-0.57 1.82,-0.31992 1.25,1.58008 -0.37,1.24 -0.21992,2.48 0.33008,2.75 0.56,0.28 1.01906,4.8 1.03906,10.25 0.04,6.76 -0.35,10.10992 -1.25,10.91992 -0.99,0.89 -1.75906,0.83094 -3.28906,-0.28906 -1.72,-1.25 -1.79,-1.59039 -0.5,-2.40039 1.18,-0.75 0.96,-0.95117 -1,-0.95117 -1.93,0.01 -2.84,-0.81961 -4,-3.59961 -0.83,-1.99 -1.65961,-3.00953 -1.84961,-2.26953 -0.23,0.87 -1.21984,0.28984 -2.83984,-1.66016 -2.04,-2.46 -2.20039,-3.05 -0.90039,-3.25 1.43,-0.22 1.44007,-0.48 0.0801,-2.5 -0.83,-1.24 -1.5,-2.59 -1.5,-3 0.01,-0.41 0.45977,-0.75 1.00977,-0.75 0.55,0 1,0.67 1,1.5 0,0.83 0.34,1.5 0.75,1.5 0.41,0 0.75,-0.9 0.75,-2 0,-1.1 -0.56,-2 -1.25,-2 -0.69,0 -1.02023,-0.56 -0.74023,-1.25 0.28,-0.69 1.41,-1.25 2.5,-1.25 1.3,0 2.02031,0.7 2.07031,2 0.06,1.46 0.23992,1.6 0.66992,0.5 0.32,-0.83 0.47008,-1.73 0.33008,-2 -0.14,-0.27 0.35008,-0.83047 1.08008,-1.23047 0.82,-0.45 0.17984,-0.74953 -1.66016,-0.76953 -2.25,-0.02 -2.63,-0.25922 -1.5,-0.94922 0.83,-0.5 1.84,-0.72047 2.25,-0.48047 0.41,0.23 0.70086,-0.36031 0.63086,-1.32031 -0.06,-0.96 0.008,-2.87 0.14844,-4.25 0.13,-1.215 0.20125,-1.82227 0.28125,-1.79102 z m 23.96289,10.78907 c 0.065,0 0.1607,0.41695 0.3457,1.25195 0.21,0.96 1.05086,1.75 1.88086,1.75 0.83,0 1.73,0.67 2,1.5 0.27,0.83 0.27,2.17 0,3 -0.27,0.83 -0.05,1.5 0.5,1.5 0.55,0 1,0.9 1,2 0,1.1 0.56,2.18992 1.25,2.41992 0.69,0.23 0.46,0.46 -0.5,0.5 -1.06,0.05 -1.75,0.87008 -1.75,2.08008 0,1.44 -0.63,1.97086 -2.25,1.88086 -1.59,-0.08 -1.74,-0.22 -0.5,-0.5 0.96,-0.21 1.75,-0.83086 1.75,-1.38086 0,-0.55 -0.41969,-1 -0.92969,-1 -0.51,0 -1.63,0.67 -2.5,1.5 -0.86,0.83 -1.35008,2.06 -1.08008,2.75 0.33,0.86 -0.38,1.14992 -2.25,0.91992 -1.55,-0.18 -2.30023,0.03 -1.74023,0.5 0.55,0.46 1.11,1.62008 1.25,2.58008 0.14,0.96 -0.2,1.75 -0.75,1.75 -0.55,0 -1.60031,-0.56 -2.32031,-1.25 -0.91,-0.85 -1.38,-4.49 -1.5,-11.5 -0.17,-9.77 -0.0697,-10.28945 2.07031,-11.18945 1.24,-0.51 2.7093,-0.96 3.2793,-1 0.56,-0.03 0.9,0.60945 0.75,1.43945 -0.16,0.83 0.1707,1.5 0.7207,1.5 0.55,0 1.04914,-0.79 1.11914,-1.75 0.055,-0.835 0.0893,-1.25195 0.1543,-1.25195 z"
       sodipodi:nodetypes="scscscccsccsscccsssssscccscssscccccccccccccccsccsssssssccsccccccsscsssssscsccssccccsscccccscs" />
    <g
       aria-label="inches"
       id="text2538-7-9"
       style="font-style:normal;font-weight:normal;font-size:16.366px;line-height:1.25;font-family:sans-serif;fill:#333333;fill-opacity:1;stroke:none;stroke-width:0.409151">
      <path
         d="m 1043.5125,793.86138 h -1.6941 v -1.55828 h 1.6941 z m -0.096,10.42054 h -1.5023 v -8.92618 h 1.5023 z"
         style="white-space:pre;fill:#333333;fill-opacity:1;stroke-width:0.409151"
         id="path3447" />
      <path
         d="m 1053.8531,804.28192 h -1.5023 v -5.08241 q 0,-0.61532 -0.072,-1.15073 -0.072,-0.54341 -0.2637,-0.84707 -0.1998,-0.33563 -0.5754,-0.49546 -0.3756,-0.16781 -0.9749,-0.16781 -0.6153,0 -1.2866,0.30366 -0.6713,0.30367 -1.2866,0.77515 v 6.66467 h -1.5023 v -8.92618 h 1.5023 v 0.99091 q 0.7032,-0.58336 1.4544,-0.911 0.7512,-0.32764 1.5423,-0.32764 1.4464,0 2.2056,0.87104 0.7591,0.87105 0.7591,2.50924 z"
         style="white-space:pre;fill:#333333;fill-opacity:1;stroke-width:0.409151"
         id="path3449" />
      <path
         d="m 1063.3467,803.72254 q -0.7512,0.3596 -1.4304,0.55938 -0.6713,0.19978 -1.4304,0.19978 -0.967,0 -1.7741,-0.27969 -0.8071,-0.28768 -1.3825,-0.86305 -0.5833,-0.57537 -0.903,-1.4544 -0.3196,-0.87903 -0.3196,-2.05374 0,-2.18959 1.1987,-3.43622 1.2066,-1.24663 3.1805,-1.24663 0.7671,0 1.5023,0.21576 0.7432,0.21576 1.3585,0.52742 v 1.67016 h -0.08 q -0.6873,-0.53541 -1.4224,-0.82309 -0.7272,-0.28768 -1.4225,-0.28768 -1.2786,0 -2.0218,0.86305 -0.7351,0.85506 -0.7351,2.51723 0,1.61422 0.7192,2.48526 0.7272,0.86305 2.0377,0.86305 0.4555,0 0.927,-0.11986 0.4715,-0.11987 0.8471,-0.31166 0.3276,-0.16782 0.6153,-0.35161 0.2877,-0.19179 0.4555,-0.32764 h 0.08 z"
         style="white-space:pre;fill:#333333;fill-opacity:1;stroke-width:0.409151"
         id="path3451" />
      <path
         d="m 1072.7364,804.28192 h -1.5024 v -5.08241 q 0,-0.61532 -0.072,-1.15073 -0.072,-0.54341 -0.2637,-0.84707 -0.1998,-0.33563 -0.5754,-0.49546 -0.3756,-0.16781 -0.9749,-0.16781 -0.6153,0 -1.2866,0.30366 -0.6712,0.30367 -1.2866,0.77515 v 6.66467 h -1.5023 V 791.8476 h 1.5023 v 4.49905 q 0.7033,-0.58336 1.4544,-0.911 0.7512,-0.32764 1.5423,-0.32764 1.4464,0 2.2056,0.87104 0.7592,0.87105 0.7592,2.50924 z"
         style="white-space:pre;fill:#333333;fill-opacity:1;stroke-width:0.409151"
         id="path3453" />
      <path
         d="m 1083.101,799.97466 h -6.5768 q 0,0.82309 0.2477,1.43842 0.2478,0.60733 0.6793,0.9989 0.4155,0.38358 0.9829,0.57537 0.5754,0.19178 1.2626,0.19178 0.911,0 1.83,-0.3596 0.927,-0.3676 1.3186,-0.71921 h 0.08 v 1.6382 q -0.7592,0.31965 -1.5503,0.53541 -0.7912,0.21576 -1.6622,0.21576 -2.2216,0 -3.4682,-1.19868 -1.2466,-1.20667 -1.2466,-3.42024 0,-2.18959 1.1907,-3.47617 1.1987,-1.28659 3.1485,-1.28659 1.806,0 2.781,1.05484 0.9829,1.05484 0.9829,2.99671 z m -1.4624,-1.15074 q -0.01,-1.18269 -0.5994,-1.82998 -0.5833,-0.64729 -1.782,-0.64729 -1.2067,0 -1.9259,0.71122 -0.7112,0.71121 -0.8071,1.76605 z"
         style="white-space:pre;fill:#333333;fill-opacity:1;stroke-width:0.409151"
         id="path3455" />
      <path
         d="m 1091.7555,801.70875 q 0,1.22266 -1.0149,2.0058 -1.0069,0.78313 -2.757,0.78313 -0.9909,0 -1.822,-0.23174 -0.8231,-0.23974 -1.3825,-0.51943 v -1.68615 h 0.08 q 0.7113,0.53542 1.5823,0.85506 0.871,0.31166 1.6702,0.31166 0.9909,0 1.5503,-0.31965 0.5593,-0.31965 0.5593,-1.00689 0,-0.52742 -0.3036,-0.79912 -0.3037,-0.2717 -1.1667,-0.46349 -0.3197,-0.0719 -0.8391,-0.16782 -0.5114,-0.0959 -0.935,-0.20777 -1.1747,-0.31165 -1.6701,-0.911 -0.4875,-0.60733 -0.4875,-1.48636 0,-0.55139 0.2237,-1.03886 0.2318,-0.48746 0.6953,-0.87104 0.4475,-0.37559 1.1347,-0.59135 0.6953,-0.22375 1.5503,-0.22375 0.7991,0 1.6143,0.19978 0.823,0.19179 1.3664,0.47148 v 1.60623 h -0.08 q -0.5753,-0.42353 -1.3984,-0.71122 -0.8231,-0.29567 -1.6143,-0.29567 -0.823,0 -1.3904,0.31965 -0.5674,0.31165 -0.5674,0.93497 0,0.55139 0.3436,0.83108 0.3357,0.2797 1.0868,0.4555 0.4156,0.0959 0.927,0.19179 0.5194,0.0959 0.8631,0.17581 1.0468,0.23974 1.6142,0.82309 0.5674,0.59135 0.5674,1.56628 z"
         style="white-space:pre;fill:#333333;fill-opacity:1;stroke-width:0.409151"
         id="path3457" />
    </g>
    <g
       aria-label="2"
       id="text3525-64"
       style="font-style:normal;font-weight:normal;font-size:19.0998px;line-height:1.25;font-family:sans-serif;fill:#333333;fill-opacity:1;stroke:none;stroke-width:0.477494">
      <path
         d="m 1034.3802,804.4115 h -9.4007 v -1.94915 q 0.9793,-0.83935 1.9585,-1.67869 0.9886,-0.83935 1.8372,-1.66937 1.7906,-1.73465 2.4528,-2.75119 0.6621,-1.02587 0.6621,-2.21028 0,-1.08183 -0.7181,-1.68802 -0.7087,-0.61552 -1.9864,-0.61552 -0.8487,0 -1.8373,0.29843 -0.9885,0.29844 -1.9304,0.91396 h -0.093 v -1.95848 q 0.6621,-0.32641 1.7626,-0.59687 1.1098,-0.27045 2.145,-0.27045 2.1357,0 3.3481,1.03519 1.2124,1.02587 1.2124,2.7885 0,0.79271 -0.2052,1.48284 -0.1959,0.68081 -0.5876,1.29633 -0.3637,0.57821 -0.8579,1.13778 -0.485,0.55956 -1.1845,1.24037 -0.9979,0.97923 -2.061,1.90251 -1.0632,0.91396 -1.9865,1.69735 h 7.4702 z"
         style="white-space:pre;fill:#333333;fill-opacity:1;stroke-width:0.477494"
         id="path2638" />
    </g>
    <path
       style="color:#000000;font-style:normal;font-variant:normal;font-weight:normal;font-stretch:normal;font-size:medium;line-height:normal;font-family:sans-serif;font-variant-ligatures:normal;font-variant-position:normal;font-variant-caps:normal;font-variant-numeric:normal;font-variant-alternates:normal;font-variant-east-asian:normal;font-feature-settings:normal;font-variation-settings:normal;text-indent:0;text-align:start;text-decoration:none;text-decoration-line:none;text-decoration-style:solid;text-decoration-color:#000000;letter-spacing:normal;word-spacing:normal;text-transform:none;writing-mode:lr-tb;direction:ltr;text-orientation:mixed;dominant-baseline:auto;baseline-shift:baseline;text-anchor:start;white-space:normal;shape-padding:0;shape-margin:0;inline-size:0;clip-rule:nonzero;display:inline;overflow:visible;visibility:visible;opacity:1;isolation:auto;mix-blend-mode:normal;color-interpolation:sRGB;color-interpolation-filters:linearRGB;solid-color:#000000;solid-opacity:1;vector-effect:none;fill:#333333;fill-opacity:1;fill-rule:nonzero;stroke:none;stroke-linecap:butt;stroke-linejoin:miter;stroke-miterlimit:4;stroke-dasharray:none;stroke-dashoffset:0;stroke-opacity:1;color-rendering:auto;image-rendering:auto;shape-rendering:auto;text-rendering:auto;enable-background:accumulate;stop-color:#000000;stop-opacity:1"
       d="m 1005.4316,756.95898 v 1 h 50.1661 v 25.63282 h 1 v -26.63282 z"
       id="path2626" />
    <path
       style="color:#000000;font-style:normal;font-variant:normal;font-weight:normal;font-stretch:normal;font-size:medium;line-height:normal;font-family:sans-serif;font-variant-ligatures:normal;font-variant-position:normal;font-variant-caps:normal;font-variant-numeric:normal;font-variant-alternates:normal;font-variant-east-asian:normal;font-feature-settings:normal;font-variation-settings:normal;text-indent:0;text-align:start;text-decoration:none;text-decoration-line:none;text-decoration-style:solid;text-decoration-color:#000000;letter-spacing:normal;word-spacing:normal;text-transform:none;writing-mode:lr-tb;direction:ltr;text-orientation:mixed;dominant-baseline:auto;baseline-shift:baseline;text-anchor:start;white-space:normal;shape-padding:0;shape-margin:0;inline-size:0;clip-rule:nonzero;display:inline;overflow:visible;visibility:visible;opacity:1;isolation:auto;mix-blend-mode:normal;color-interpolation:sRGB;color-interpolation-filters:linearRGB;solid-color:#000000;solid-opacity:1;vector-effect:none;fill:#333333;fill-opacity:1;fill-rule:nonzero;stroke:none;stroke-linecap:butt;stroke-linejoin:miter;stroke-miterlimit:4;stroke-dasharray:none;stroke-dashoffset:0;stroke-opacity:1;color-rendering:auto;image-rendering:auto;shape-rendering:auto;text-rendering:auto;enable-background:accumulate;stop-color:#000000;stop-opacity:1"
       d="m 1055.5,816.49609 v 20.49219 h -49.9961 v 1 H 1056.5 v -21.49219 z"
       id="path2632" />
  </g>
</svg>
