<?xml version="1.0" encoding="UTF-8" standalone="no"?>
<svg
   xmlns:dc="http://purl.org/dc/elements/1.1/"
   xmlns:cc="http://creativecommons.org/ns#"
   xmlns:rdf="http://www.w3.org/1999/02/22-rdf-syntax-ns#"
   xmlns:svg="http://www.w3.org/2000/svg"
   xmlns="http://www.w3.org/2000/svg"
   xmlns:sodipodi="http://sodipodi.sourceforge.net/DTD/sodipodi-0.dtd"
   xmlns:inkscape="http://www.inkscape.org/namespaces/inkscape"
   viewBox="0 0 512 512"
   width="512"
   height="512"
   version="1.1"
   id="svg125"
   sodipodi:docname="horse.svg"
   inkscape:version="1.0.2 (e86c870879, 2021-01-15, custom)">
  <sodipodi:namedview
     pagecolor="#ffffff"
     bordercolor="#666666"
     borderopacity="1"
     objecttolerance="10"
     gridtolerance="10"
     guidetolerance="10"
     inkscape:pageopacity="0"
     inkscape:pageshadow="2"
     inkscape:window-width="1366"
     inkscape:window-height="715"
     id="namedview3602"
     showgrid="false"
     inkscape:zoom="0.094603154"
     inkscape:cx="1589.4452"
     inkscape:cy="2206.4431"
     inkscape:window-x="-8"
     inkscape:window-y="-8"
     inkscape:window-maximized="1"
     inkscape:current-layer="svg125" />
  <metadata
     id="metadata131">
    <rdf:RDF>
      <cc:Work
         rdf:about="">
        <dc:format>image/svg+xml</dc:format>
        <dc:type
           rdf:resource="http://purl.org/dc/dcmitype/StillImage" />
        <dc:title></dc:title>
      </cc:Work>
    </rdf:RDF>
  </metadata>
  <defs
     id="defs129" />
  <style
     id="style2">
		tspan { white-space:pre }
		.shp0 { fill: #e7d5b8 } 
		.shp1 { fill: #15120f } 
	</style>
  <g
     id="g5262"
     transform="matrix(1.9818697,0,0,1.9818697,-8102.7701,-5148.9191)">
    <path
       id="Path 67"
       fill-rule="evenodd"
       class="shp1"
       d="m 4176.5262,2667.2411 c 1.38,0.18 4.53,0.61 7,0.97 2.47,0.36 7.76,2.18 11.75,4.05 5.13,2.42 9.23,5.38 14.04,10.16 3.74,3.71 8.38,9.45 10.32,12.75 1.94,3.3 4.79,9.15 6.33,13 1.54,3.85 3.41,9.93 4.16,13.5 0.75,3.57 1.37,8.64 1.38,11.25 0.01,2.61 -0.71,8.01 -1.6,12 -0.89,3.99 -2.82,9.95 -4.29,13.25 -1.47,3.3 -4.73,8.7 -7.23,12 -2.51,3.3 -6.21,7.46 -8.21,9.25 -2.01,1.79 -5.45,4.15 -7.65,5.25 -2.2,1.1 -5.69,2.28 -7.75,2.62 -3.72,0.61 -3.77,0.58 -6.37,-4.75 -1.44,-2.95 -4.26,-9.87 -6.28,-15.37 -2.02,-5.5 -4.1,-11.01 -4.63,-12.25 -0.54,-1.24 -1.53,-2.26 -2.22,-2.28 -0.69,-0.02 -1.96,0.77 -2.84,1.75 -0.87,0.98 -2.08,3.13 -2.7,4.78 -0.61,1.65 -1.64,5.03 -2.28,7.5 -0.64,2.47 -2.57,8.05 -7.43,20.26 l -3.5,-0.64 c -1.92,-0.35 -5.75,-1.69 -8.5,-2.99 -2.75,-1.29 -7.81,-4.44 -11.25,-6.99 -3.44,-2.55 -8.3,-7.45 -10.81,-10.89 -2.5,-3.44 -5.46,-8.72 -6.58,-11.75 -1.11,-3.03 -2.26,-8.43 -2.56,-12 -0.31,-3.57 -0.01,-10.55 0.65,-15.5 0.66,-4.95 2.52,-12.82 4.13,-17.5 1.61,-4.68 4.67,-11.43 6.79,-15 2.12,-3.57 6.18,-8.75 9.03,-11.5 2.84,-2.75 7.74,-6.46 10.89,-8.25 3.14,-1.79 7.51,-3.77 9.71,-4.39 2.2,-0.63 6.7,-1.47 10,-1.87 3.3,-0.41 7.13,-0.59 8.5,-0.42 z"
       style="fill:#333333;fill-opacity:1"
       sodipodi:nodetypes="csccssssssccsccscsccscccscccsssccccc" />
    <path
       d="m 4270.2903,2723.3948 h -1.6941 v -1.5582 h 1.6941 z m -0.096,10.4206 h -1.5023 v -8.9262 h 1.5023 z"
       style="font-style:normal;font-weight:normal;font-size:16.366px;line-height:1.25;font-family:sans-serif;white-space:pre;fill:#333333;fill-opacity:1;stroke:none;stroke-width:0.409151"
       id="path3210" />
    <path
       d="m 4280.6309,2733.8154 h -1.5023 v -5.0824 q 0,-0.6153 -0.072,-1.1508 -0.072,-0.5434 -0.2637,-0.847 -0.1998,-0.3357 -0.5754,-0.4955 -0.3756,-0.1678 -0.9749,-0.1678 -0.6154,0 -1.2866,0.3037 -0.6713,0.3036 -1.2866,0.7751 v 6.6647 h -1.5024 v -8.9262 h 1.5024 v 0.9909 q 0.7032,-0.5833 1.4544,-0.911 0.7512,-0.3276 1.5423,-0.3276 1.4464,0 2.2056,0.871 0.7591,0.8711 0.7591,2.5093 z"
       style="font-style:normal;font-weight:normal;font-size:16.366px;line-height:1.25;font-family:sans-serif;white-space:pre;fill:#333333;fill-opacity:1;stroke:none;stroke-width:0.409151"
       id="path3212" />
    <path
       d="m 4290.1245,2733.256 q -0.7512,0.3596 -1.4304,0.5594 -0.6713,0.1998 -1.4305,0.1998 -0.9669,0 -1.774,-0.2797 -0.8071,-0.2877 -1.3825,-0.8631 -0.5833,-0.5753 -0.903,-1.4544 -0.3196,-0.879 -0.3196,-2.0537 0,-2.1896 1.1986,-3.4362 1.2067,-1.2467 3.1805,-1.2467 0.7672,0 1.5024,0.2158 0.7432,0.2158 1.3585,0.5274 v 1.6702 h -0.08 q -0.6873,-0.5354 -1.4225,-0.8231 -0.7272,-0.2877 -1.4224,-0.2877 -1.2786,0 -2.0218,0.8631 -0.7352,0.855 -0.7352,2.5172 0,1.6142 0.7193,2.4852 0.7272,0.8631 2.0377,0.8631 0.4555,0 0.927,-0.1199 0.4715,-0.1198 0.8471,-0.3116 0.3276,-0.1678 0.6153,-0.3516 0.2877,-0.1918 0.4555,-0.3277 h 0.08 z"
       style="font-style:normal;font-weight:normal;font-size:16.366px;line-height:1.25;font-family:sans-serif;white-space:pre;fill:#333333;fill-opacity:1;stroke:none;stroke-width:0.409151"
       id="path3214" />
    <path
       d="m 4299.5142,2733.8154 h -1.5024 v -5.0824 q 0,-0.6153 -0.072,-1.1508 -0.072,-0.5434 -0.2637,-0.847 -0.1998,-0.3357 -0.5754,-0.4955 -0.3756,-0.1678 -0.9749,-0.1678 -0.6153,0 -1.2866,0.3037 -0.6713,0.3036 -1.2866,0.7751 v 6.6647 h -1.5023 v -12.4343 h 1.5023 v 4.499 q 0.7032,-0.5833 1.4544,-0.911 0.7512,-0.3276 1.5423,-0.3276 1.4464,0 2.2056,0.871 0.7592,0.8711 0.7592,2.5093 z"
       style="font-style:normal;font-weight:normal;font-size:16.366px;line-height:1.25;font-family:sans-serif;white-space:pre;fill:#333333;fill-opacity:1;stroke:none;stroke-width:0.409151"
       id="path3216" />
    <path
       d="m 4309.8788,2729.5081 h -6.5768 q 0,0.8231 0.2477,1.4384 0.2478,0.6074 0.6793,0.9989 0.4155,0.3836 0.9829,0.5754 0.5754,0.1918 1.2626,0.1918 0.911,0 1.83,-0.3596 0.927,-0.3676 1.3185,-0.7192 h 0.08 v 1.6382 q -0.7592,0.3196 -1.5503,0.5354 -0.7912,0.2158 -1.6622,0.2158 -2.2216,0 -3.4682,-1.1987 -1.2466,-1.2067 -1.2466,-3.4203 0,-2.1896 1.1907,-3.4761 1.1986,-1.2866 3.1485,-1.2866 1.806,0 2.7809,1.0548 0.983,1.0549 0.983,2.9967 z m -1.4624,-1.1507 q -0.01,-1.1827 -0.5994,-1.83 -0.5833,-0.6473 -1.782,-0.6473 -1.2067,0 -1.9259,0.7112 -0.7112,0.7113 -0.8071,1.7661 z"
       style="font-style:normal;font-weight:normal;font-size:16.366px;line-height:1.25;font-family:sans-serif;white-space:pre;fill:#333333;fill-opacity:1;stroke:none;stroke-width:0.409151"
       id="path3218" />
    <path
       d="m 4318.5332,2731.2422 q 0,1.2227 -1.0148,2.0058 -1.0069,0.7831 -2.757,0.7831 -0.9909,0 -1.822,-0.2317 -0.8231,-0.2397 -1.3825,-0.5194 v -1.6862 h 0.08 q 0.7113,0.5354 1.5823,0.8551 0.871,0.3116 1.6702,0.3116 0.9909,0 1.5503,-0.3196 0.5593,-0.3196 0.5593,-1.0069 0,-0.5274 -0.3036,-0.7991 -0.3037,-0.2717 -1.1667,-0.4635 -0.3197,-0.072 -0.8391,-0.1678 -0.5115,-0.096 -0.935,-0.2078 -1.1747,-0.3116 -1.6702,-0.911 -0.4874,-0.6073 -0.4874,-1.4864 0,-0.5513 0.2237,-1.0388 0.2318,-0.4875 0.6953,-0.8711 0.4475,-0.3755 1.1347,-0.5913 0.6953,-0.2238 1.5503,-0.2238 0.7991,0 1.6142,0.1998 0.8231,0.1918 1.3665,0.4715 v 1.6062 h -0.08 q -0.5753,-0.4235 -1.3984,-0.7112 -0.8231,-0.2957 -1.6143,-0.2957 -0.8231,0 -1.3904,0.3197 -0.5674,0.3117 -0.5674,0.935 0,0.5514 0.3436,0.8311 0.3356,0.2796 1.0868,0.4554 0.4156,0.096 0.927,0.1918 0.5194,0.096 0.863,0.1758 1.0469,0.2398 1.6143,0.8231 0.5673,0.5914 0.5673,1.5663 z"
       style="font-style:normal;font-weight:normal;font-size:16.366px;line-height:1.25;font-family:sans-serif;white-space:pre;fill:#333333;fill-opacity:1;stroke:none;stroke-width:0.409151"
       id="path3220" />
    <text
       xml:space="preserve"
       style="font-style:normal;font-weight:normal;font-size:19.0998px;line-height:1.25;font-family:sans-serif;fill:#333333;fill-opacity:1;stroke:none;stroke-width:0.477494"
       x="4250.7695"
       y="2733.927"
       id="text3525-7"><tspan
         id="tspan3523-29"
         x="4250.7695"
         y="2733.927"
         style="fill:#333333;fill-opacity:1;stroke-width:0.477494">3</tspan></text>
    <path
       style="color:#000000;font-style:normal;font-variant:normal;font-weight:normal;font-stretch:normal;font-size:medium;line-height:normal;font-family:sans-serif;font-variant-ligatures:normal;font-variant-position:normal;font-variant-caps:normal;font-variant-numeric:normal;font-variant-alternates:normal;font-variant-east-asian:normal;font-feature-settings:normal;font-variation-settings:normal;text-indent:0;text-align:start;text-decoration:none;text-decoration-line:none;text-decoration-style:solid;text-decoration-color:#000000;letter-spacing:normal;word-spacing:normal;text-transform:none;writing-mode:lr-tb;direction:ltr;text-orientation:mixed;dominant-baseline:auto;baseline-shift:baseline;text-anchor:start;white-space:normal;shape-padding:0;shape-margin:0;inline-size:0;clip-rule:nonzero;display:inline;overflow:visible;visibility:visible;isolation:auto;mix-blend-mode:normal;color-interpolation:sRGB;color-interpolation-filters:linearRGB;solid-color:#000000;solid-opacity:1;vector-effect:none;fill:#333333;fill-opacity:1;fill-rule:nonzero;stroke:none;stroke-linecap:butt;stroke-linejoin:miter;stroke-miterlimit:4;stroke-dasharray:none;stroke-dashoffset:0;stroke-opacity:1;color-rendering:auto;image-rendering:auto;shape-rendering:auto;text-rendering:auto;enable-background:accumulate;stop-color:#000000"
       d="m 4210.2274,2666.6965 v 1 h 74.2578 v 46.5957 h 1 v -47.5957 z"
       id="path4949" />
    <path
       style="color:#000000;font-style:normal;font-variant:normal;font-weight:normal;font-stretch:normal;font-size:medium;line-height:normal;font-family:sans-serif;font-variant-ligatures:normal;font-variant-position:normal;font-variant-caps:normal;font-variant-numeric:normal;font-variant-alternates:normal;font-variant-east-asian:normal;font-feature-settings:normal;font-variation-settings:normal;text-indent:0;text-align:start;text-decoration:none;text-decoration-line:none;text-decoration-style:solid;text-decoration-color:#000000;letter-spacing:normal;word-spacing:normal;text-transform:none;writing-mode:lr-tb;direction:ltr;text-orientation:mixed;dominant-baseline:auto;baseline-shift:baseline;text-anchor:start;white-space:normal;shape-padding:0;shape-margin:0;inline-size:0;clip-rule:nonzero;display:inline;overflow:visible;visibility:visible;isolation:auto;mix-blend-mode:normal;color-interpolation:sRGB;color-interpolation-filters:linearRGB;solid-color:#000000;solid-opacity:1;vector-effect:none;fill:#333333;fill-opacity:1;fill-rule:nonzero;stroke:none;stroke-linecap:butt;stroke-linejoin:miter;stroke-miterlimit:4;stroke-dasharray:none;stroke-dashoffset:0;stroke-opacity:1;color-rendering:auto;image-rendering:auto;shape-rendering:auto;text-rendering:auto;enable-background:accumulate;stop-color:#000000"
       d="m 4284.5125,2747.1496 v 39.5176 h -72.625 v 1 h 73.625 v -40.5176 z"
       id="path4951" />
  </g>
</svg>
