<?xml version="1.0" encoding="UTF-8" standalone="no"?>
<svg
   xmlns:dc="http://purl.org/dc/elements/1.1/"
   xmlns:cc="http://creativecommons.org/ns#"
   xmlns:rdf="http://www.w3.org/1999/02/22-rdf-syntax-ns#"
   xmlns:svg="http://www.w3.org/2000/svg"
   xmlns="http://www.w3.org/2000/svg"
   xmlns:sodipodi="http://sodipodi.sourceforge.net/DTD/sodipodi-0.dtd"
   xmlns:inkscape="http://www.inkscape.org/namespaces/inkscape"
   viewBox="0 0 512 512"
   width="512"
   height="512"
   version="1.1"
   id="svg125"
   sodipodi:docname="mallard-duck.svg"
   inkscape:version="1.0.2 (e86c870879, 2021-01-15, custom)">
  <sodipodi:namedview
     pagecolor="#ffffff"
     bordercolor="#666666"
     borderopacity="1"
     objecttolerance="10"
     gridtolerance="10"
     guidetolerance="10"
     inkscape:pageopacity="0"
     inkscape:pageshadow="2"
     inkscape:window-width="1366"
     inkscape:window-height="715"
     id="namedview1969"
     showgrid="false"
     inkscape:zoom="0.26757813"
     inkscape:cx="1228.2492"
     inkscape:cy="677.90259"
     inkscape:window-x="-8"
     inkscape:window-y="-8"
     inkscape:window-maximized="1"
     inkscape:current-layer="svg125" />
  <metadata
     id="metadata131">
    <rdf:RDF>
      <cc:Work
         rdf:about="">
        <dc:format>image/svg+xml</dc:format>
        <dc:type
           rdf:resource="http://purl.org/dc/dcmitype/StillImage" />
        <dc:title></dc:title>
      </cc:Work>
    </rdf:RDF>
  </metadata>
  <defs
     id="defs129" />
  <style
     id="style2">
		tspan { white-space:pre }
		.shp0 { fill: #e7d5b8 } 
		.shp1 { fill: #15120f } 
	</style>
  <g
     id="g2555"
     transform="matrix(2.2294477,0,0,2.2294477,-2032.0877,-966.82479)">
    <path
       id="Path 13"
       style="fill:#333333;fill-opacity:1"
       d="m 985.34961,488.25977 c -0.66,-0.24 -1.73,1.57093 -2.5,4.21093 -0.99,3.4 -2.27961,5.23993 -4.84961,6.91992 -1.92,1.26 -6.65,4.12915 -10.5,6.36915 -3.85,2.24 -8.8,4.56039 -11,5.15039 -2.2,0.59 -6.7,1.08961 -10,1.09961 -3.56,0.01 -6.50047,-0.49024 -7.23047,-1.24024 -0.98,-1.02 -1.38,-0.87953 -2,0.73047 -0.42,1.1 -0.71992,4.48 -0.66992,7.5 0.07,3.63 1.55133,9.75 4.36133,18 2.34,6.88 5.78843,15.54 7.64844,19.25 1.86,3.71 7.10062,11.34094 11.64062,16.96094 4.54,5.61 11.2993,12.7 15.0293,15.75 5.05,4.13 7.6,7.13836 10,11.81836 2.77,5.41 3.56093,6.24 5.71093,6 1.58,-0.18 2.61985,-1.0093 2.83985,-2.2793 0.18,-1.1 0.08,-3.01 -0.25,-4.25 -0.32,-1.24 -1.70008,-3.6 -3.08008,-5.25 -2.42,-2.9 -2.44,-3.08031 -0.75,-5.32031 0.96,-1.27 5.58,-5.88024 10.25,-10.24024 4.67,-4.35 12.3598,-11.74968 17.0898,-16.42968 5.45,-5.4 10.1602,-11.24977 12.9102,-16.00977 2.37,-4.12 4.9202,-9.3 5.6602,-11.5 0.73,-2.2 1.1098,-4.11 0.8398,-4.25 -0.28,-0.14 -2.19,0.72016 -4.25,1.91016 -2.06,1.19 -4.65,3.00906 -5.75,4.03906 -1.97,1.86 -2.13,1.77148 -11.5,-6.47852 -5.23,-4.59 -11.3303,-10.57101 -13.5703,-13.29101 -2.24002,-2.71 -6.15923,-7.85969 -8.69923,-11.42969 -3.47,-4.87 -4.81969,-7.84992 -5.42969,-11.91992 -0.44,-2.98 -1.32117,-5.60031 -1.95117,-5.82031 z m -20.15625,31.74218 c 0.13875,0 0.38617,0.33305 0.82617,0.99805 0.87,1.33 1.09094,1.33 1.96094,0 0.66,-1 0.99,-1.09 1,-0.25 0.01,0.69 0.91953,1.48 2.01953,1.75 1.1,0.27 2,0.16 2,-0.25 0,-0.41 1.46,-0.79914 3.25,-0.86914 3.07,-0.11 3.14,-0.0414 1.25,1.30859 -1.87,1.33 -1.89,1.4911 -0.25,2.3711 0.96,0.52 1.75,1.60945 1.75,2.43945 0,0.83 -0.56,1.54008 -1.25,1.58008 -1,0.06 -1,0.16 0,0.5 0.69,0.23 1.25,1.31992 1.25,2.41992 0,1.1 -0.34,2 -0.75,2 -0.41,0 -0.64,5.62 -0.5,12.5 0.16,7.83 -0.12,12.5 -0.75,12.5 -0.55,0 -1,0.45 -1,1 0,0.55 0.45,0.77 1,0.5 0.55,-0.27 1,0.63 1,2 0,1.38 -0.56,2.73 -1.25,3 -1,0.4 -1,0.6 0,1 0.69,0.27 1.02,0.95 0.75,1.5 -0.27,0.55 -1.62,1 -3,1 -1.37,0 -2.73,-0.45 -3,-1 -0.27,-0.55 -1.51,-0.99094 -5,-0.96094 l 2.25,-2.01953 c 1.24,-1.11 2.25,-2.24953 2.25,-2.51953 0,-0.27 -0.67,-0.27 -1.5,0 -0.83,0.27 -1.73,-0.17 -2,-1 -0.31,-0.92 -1.27,-1.31 -2.5,-1 -1.1,0.27 -2,0.05 -2,-0.5 0,-0.55 -0.45,-0.77 -1,-0.5 -0.55,0.27 -1,0.05 -1,-0.5 0,-0.55 -0.67,-1 -1.5,-1 -0.83,0 -1.5,-0.45 -1.5,-1 0,-0.55 0.9,-1.23 2,-1.5 1.1,-0.27 2.0093,-1.06 2.0293,-1.75 0.01,-0.69 -0.21,-0.91 -0.5,-0.5 -0.29,0.41 -1.1993,0.08 -2.0293,-0.75 -0.83,-0.83 -1.30078,-1.84 -1.05078,-2.25 0.24,-0.41 -0.42977,-1.42 -1.50977,-2.25 -1.08,-0.83 -1.95922,-2.06 -1.94922,-2.75 0.01,-0.69 -0.49937,-1.14 -1.10937,-1 -0.62,0.14 -1.3,-0.31 -1.5,-1 -0.21,-0.69 0.17914,-1.02 0.86914,-0.75 0.72,0.3 1.24047,-0.23 1.23047,-1.25 -0.01,-0.96 -0.57,-2.76 -1.25,-4 -1.02,-1.86 -0.96141,-2.47 0.30859,-3.5 0.85,-0.69 1.53,-2.04 1.5,-3 -0.02,-0.96 0.86094,-1.98 1.96094,-2.25 1.1,-0.27 1.77,-0.95 1.5,-1.5 -0.27,-0.55 -0.05,-1 0.5,-1 0.55,0 1.04914,-0.79 1.11914,-1.75 0.11,-1.67 0.13,-1.67 0.5,0 0.36,1.67 0.48063,1.67 2.39063,0 1.1,-0.96 2.00976,-2.42 2.00976,-3.25 0.005,-0.665 0.0351,-0.99805 0.17383,-0.99805 z m 31.40039,10.19336 c 0.25449,-0.0559 0.50039,0.29219 0.77539,1.05469 0.35,0.96 0.33094,2.54 -0.0391,3.5 -0.57,1.5 -0.36024,1.47 1.50976,-0.25 1.19,-1.1 2.51,-1.66977 2.92,-1.25977 0.41,0.41 -0.1598,1.66907 -1.2598,2.78907 -1.19004,1.21 -1.49004,2.02 -0.75004,2 C 1000.44,538.0093 1001,538.45 1001,539 c 0,0.55 -0.4102,0.70938 -0.9102,0.35938 -0.49996,-0.35 -0.80015,-0.01 -0.66015,0.75 0.13,0.75998 1.10045,1.57101 2.15045,1.79101 1.48,0.31 1.7499,0.02 1.1699,-1.25 -0.51,-1.13 -0.2,-1.83023 1,-2.24023 1,-0.33 1.64,-1.4 1.5,-2.5 -0.14,-1.05 0.09,-1.91016 0.5,-1.91016 0.41,-0.01 1.31,0.89 2,2 1,1.6 1,2.07992 0,2.41992 -0.69,0.23 -0.46,0.46 0.5,0.5 0.96,0.04 1.52,0.53008 1.25,1.08008 -0.27,0.55 -0.27,1.67 0,2.5 0.41,1.22 0.7891,1.27 2.0391,0.25 0.87,-0.7 1.5507,-0.81 1.5507,-0.25 0,0.55 -0.7198,1.67 -1.5898,2.5 -0.87,0.83 -1.5691,2.06 -1.5391,2.75 0.02,0.69 1.2691,1.24047 2.7891,1.23047 2.73,-0.03 2.74,-0.0202 0.75,1.83984 -1.96,1.83 -2.04,1.81953 -3.75,-0.23047 -1.04,-1.23 -1.55,-3.01984 -1.25,-4.33984 0.29,-1.33 -0.21,-3.06953 -1.25,-4.26953 -1.73,-2 -1.7692,-1.99 -3.4492,1.25 -1.1,2.12 -1.3605,3.61953 -0.7305,4.26953 0.53,0.55 0.9592,2.01 0.9492,3.25 -0.01,1.24 0.6505,2.48 1.4805,2.75 0.83,0.27 2.17,0.27 3,0 1.04,-0.35 1.5005,0.19 1.4805,1.75 0,1.38 -0.29,1.79078 -0.75,1.05078 -0.4,-0.65 -1.7405,-1.1 -2.9805,-1 -1.24,0.11 -2.25,0.53922 -2.25,0.94922 0,0.41 0.9,0.75 2,0.75 1.11,0 2,0.67 2,1.5 0,0.83 -0.67,1.5 -1.5,1.5 -0.83,0 -1.61,-0.52969 -1.75,-1.17969 -0.17,-0.78 -0.93,-0.89961 -2.25,-0.34961 -1.78,0.75 -1.81,0.87969 -0.25,1.17969 0.96,0.19 1.75,0.79961 1.75,1.34961 0,0.55 -0.34,0.80031 -0.75,0.57031 -0.41,-0.24 -1.42,-0.0195 -2.25,0.48047 -0.99,0.61 -1.07004,0.91969 -0.25,0.92969 0.69,0.01 0.9596,0.57953 0.5996,1.26953 -0.47,0.9 -1.0094,0.69 -1.93948,-0.75 -1.18,-1.84 -1.32961,-1.66 -1.84961,2.25 -0.5,3.83 -0.83055,4.24953 -3.31055,4.26953 -2.11,0.01 -2.4,0.23117 -1.25,0.95117 1.23,0.76 1.05,1.09961 -1,1.84961 -1.69,0.63 -2.74047,0.56883 -3.23047,-0.20117 -0.53,-0.79 -0.74,-0.75914 -0.75,0.13086 -0.01,0.69 -0.46953,1.02 -1.01953,0.75 -0.59,-0.29 -1,-5.83 -1,-13.5 0,-11.11 0.22,-12.93 1.5,-12.5 0.83,0.27 1.5,0.05 1.5,-0.5 0,-0.55 -0.79,-0.98094 -1.75,-0.96094 -1.57,0.04 -1.6,-0.1282 -0.25,-1.6582 1.13,-1.29 1.19,-1.79102 0.25,-2.04102 -0.88,-0.24 -0.97961,-1.00984 -0.34961,-2.58984 0.49,-1.24 0.65867,-3.6 0.38867,-5.25 -0.3,-1.76 -0.0181,-3.27062 0.67188,-3.64062 0.65,-0.35001 2.60937,-0.24954 4.35937,0.23046 2.26,0.62 3.35883,0.51063 3.79883,-0.35937 0.165,-0.3225 0.32191,-0.50164 0.47461,-0.53516 z"
       sodipodi:nodetypes="cccsscccccscccccccccccccsccccccscccsscccsccsscssssccsssccssccsssssscsscssccccsccsssccccsscccsccsscsccccccssccssccccccccssccccsssscccsccccccccccccscsccccccscs" />
    <g
       aria-label="inches"
       id="text2538-7-9-6-4-9-4-2-5-7-8-6-63"
       style="font-style:normal;font-weight:normal;font-size:16.366px;line-height:1.25;font-family:sans-serif;fill:#333333;fill-opacity:1;stroke:none;stroke-width:0.409151">
      <path
         d="m 1067.7679,544.69653 h -1.6941 v -1.55829 h 1.6941 z m -0.096,10.42054 h -1.5024 v -8.92619 h 1.5024 z"
         style="white-space:pre;fill:#333333;fill-opacity:1;stroke-width:0.409151"
         id="path3374" />
      <path
         d="m 1078.1085,555.11707 h -1.5023 v -5.08241 q 0,-0.61533 -0.072,-1.15074 -0.072,-0.5434 -0.2637,-0.84707 -0.1997,-0.33563 -0.5753,-0.49545 -0.3756,-0.16782 -0.975,-0.16782 -0.6153,0 -1.2865,0.30367 -0.6713,0.30366 -1.2866,0.77515 v 6.66467 h -1.5024 v -8.92619 h 1.5024 v 0.99091 q 0.7032,-0.58336 1.4544,-0.91099 0.7511,-0.32764 1.5423,-0.32764 1.4464,0 2.2056,0.87104 0.7591,0.87104 0.7591,2.50924 z"
         style="white-space:pre;fill:#333333;fill-opacity:1;stroke-width:0.409151"
         id="path3376" />
      <path
         d="m 1087.6021,554.55768 q -0.7512,0.35961 -1.4305,0.55939 -0.6712,0.19978 -1.4304,0.19978 -0.9669,0 -1.774,-0.2797 -0.8071,-0.28768 -1.3825,-0.86305 -0.5834,-0.57536 -0.903,-1.4544 -0.3197,-0.87903 -0.3197,-2.05374 0,-2.18959 1.1987,-3.43622 1.2067,-1.24663 3.1805,-1.24663 0.7672,0 1.5024,0.21576 0.7432,0.21577 1.3585,0.52742 v 1.67017 h -0.08 q -0.6873,-0.53541 -1.4225,-0.8231 -0.7272,-0.28768 -1.4224,-0.28768 -1.2786,0 -2.0218,0.86305 -0.7352,0.85506 -0.7352,2.51723 0,1.61423 0.7192,2.48527 0.7272,0.86305 2.0378,0.86305 0.4555,0 0.927,-0.11987 0.4715,-0.11987 0.847,-0.31166 0.3277,-0.16781 0.6154,-0.35161 0.2876,-0.19179 0.4555,-0.32764 h 0.08 z"
         style="white-space:pre;fill:#333333;fill-opacity:1;stroke-width:0.409151"
         id="path3378" />
      <path
         d="m 1096.9917,555.11707 h -1.5023 v -5.08241 q 0,-0.61533 -0.072,-1.15074 -0.072,-0.5434 -0.2637,-0.84707 -0.1998,-0.33563 -0.5754,-0.49545 -0.3756,-0.16782 -0.9749,-0.16782 -0.6153,0 -1.2866,0.30367 -0.6713,0.30366 -1.2866,0.77515 v 6.66467 h -1.5023 v -12.43433 h 1.5023 v 4.49905 q 0.7032,-0.58336 1.4544,-0.91099 0.7512,-0.32764 1.5423,-0.32764 1.4464,0 2.2056,0.87104 0.7591,0.87104 0.7591,2.50924 z"
         style="white-space:pre;fill:#333333;fill-opacity:1;stroke-width:0.409151"
         id="path3380" />
      <path
         d="m 1107.3563,550.8098 h -6.5767 q 0,0.8231 0.2477,1.43842 0.2477,0.60733 0.6793,0.9989 0.4155,0.38358 0.9829,0.57537 0.5753,0.19179 1.2626,0.19179 0.911,0 1.83,-0.35961 0.927,-0.36759 1.3185,-0.71921 h 0.08 v 1.6382 q -0.7591,0.31965 -1.5503,0.53541 -0.7911,0.21577 -1.6621,0.21577 -2.2216,0 -3.4682,-1.19868 -1.2466,-1.20668 -1.2466,-3.42024 0,-2.18959 1.1907,-3.47618 1.1986,-1.28658 3.1485,-1.28658 1.806,0 2.7809,1.05484 0.9829,1.05484 0.9829,2.9967 z m -1.4623,-1.15073 q -0.01,-1.1827 -0.5994,-1.82999 -0.5833,-0.64729 -1.782,-0.64729 -1.2067,0 -1.9259,0.71122 -0.7112,0.71122 -0.8071,1.76606 z"
         style="white-space:pre;fill:#333333;fill-opacity:1;stroke-width:0.409151"
         id="path3382" />
      <path
         d="m 1116.0108,552.5439 q 0,1.22265 -1.0149,2.00579 -1.0068,0.78314 -2.7569,0.78314 -0.9909,0 -1.822,-0.23175 -0.8231,-0.23973 -1.3825,-0.51943 v -1.68614 h 0.08 q 0.7112,0.53541 1.5823,0.85506 0.871,0.31166 1.6701,0.31166 0.9909,0 1.5503,-0.31965 0.5594,-0.31965 0.5594,-1.0069 0,-0.52742 -0.3036,-0.79912 -0.3037,-0.2717 -1.1668,-0.46349 -0.3196,-0.0719 -0.839,-0.16781 -0.5115,-0.0959 -0.935,-0.20777 -1.1747,-0.31166 -1.6702,-0.911 -0.4874,-0.60733 -0.4874,-1.48637 0,-0.55139 0.2237,-1.03885 0.2318,-0.48747 0.6953,-0.87105 0.4475,-0.37558 1.1347,-0.59135 0.6952,-0.22375 1.5503,-0.22375 0.7991,0 1.6142,0.19978 0.8231,0.19179 1.3665,0.47148 v 1.60624 h -0.08 q -0.5754,-0.42354 -1.3985,-0.71122 -0.8231,-0.29568 -1.6142,-0.29568 -0.8231,0 -1.3905,0.31965 -0.5673,0.31166 -0.5673,0.93497 0,0.5514 0.3436,0.83109 0.3356,0.27969 1.0868,0.4555 0.4155,0.0959 0.927,0.19179 0.5194,0.0959 0.863,0.1758 1.0469,0.23974 1.6143,0.8231 0.5673,0.59135 0.5673,1.56628 z"
         style="white-space:pre;fill:#333333;fill-opacity:1;stroke-width:0.409151"
         id="path3384" />
    </g>
    <g
       aria-label="3"
       id="text3525"
       style="font-style:normal;font-weight:normal;font-size:19.0998px;line-height:1.25;font-family:sans-serif;fill:#333333;fill-opacity:1;stroke:none;stroke-width:0.477494">
      <path
         d="m 1058.2883,548.84146 q 0.4476,0.40103 0.7367,1.00722 0.2891,0.60619 0.2891,1.56678 0,0.95126 -0.345,1.74398 -0.3451,0.79271 -0.97,1.38026 -0.6994,0.65282 -1.6507,0.96991 -0.9419,0.30776 -2.0704,0.30776 -1.1564,0 -2.2755,-0.27978 -1.1191,-0.27046 -1.8373,-0.59687 v -1.94915 h 0.1399 q 0.7927,0.52226 1.8652,0.86732 1.0725,0.34507 2.0704,0.34507 0.5876,0 1.2497,-0.19585 0.6622,-0.19585 1.0725,-0.57822 0.429,-0.41034 0.6342,-0.90463 0.2145,-0.49428 0.2145,-1.24969 0,-0.74609 -0.2425,-1.23104 -0.2331,-0.49428 -0.6528,-0.77407 -0.4197,-0.2891 -1.0165,-0.39169 -0.5969,-0.11191 -1.287,-0.11191 h -0.8394 v -1.54813 h 0.6528 q 1.4176,0 2.2569,-0.58755 0.8487,-0.59686 0.8487,-1.73465 0,-0.5036 -0.2145,-0.87665 -0.2145,-0.38237 -0.5968,-0.62484 -0.4011,-0.24248 -0.858,-0.33574 -0.457,-0.0933 -1.0352,-0.0933 -0.886,0 -1.8839,0.31708 -0.9979,0.31709 -1.8839,0.89531 h -0.093 v -1.94915 q 0.6621,-0.32642 1.7626,-0.59687 1.1098,-0.27978 2.145,-0.27978 1.0165,0 1.7906,0.18652 0.7741,0.18652 1.3989,0.59687 0.6715,0.44765 1.0165,1.08182 0.3451,0.63417 0.3451,1.48285 0,1.15643 -0.8207,2.02376 -0.8113,0.85799 -1.9212,1.08182 v 0.13056 q 0.4477,0.0746 1.0259,0.31709 0.5782,0.23315 0.9793,0.58754 z"
         style="white-space:pre;fill:#333333;fill-opacity:1;stroke-width:0.477494"
         id="path2536" />
    </g>
    <path
       style="fill:none;stroke:#333333;stroke-width:1px;stroke-linecap:butt;stroke-linejoin:miter;stroke-opacity:1"
       d="m 1008.4065,488.43014 h 74.0753 v 47.11001"
       id="path2532" />
    <path
       style="fill:none;stroke:#333333;stroke-width:1px;stroke-linecap:butt;stroke-linejoin:miter;stroke-opacity:1"
       d="m 1082.4618,568.47256 v 40.07283 h -73.9654"
       id="path2534" />
  </g>
</svg>
