<?xml version="1.0" encoding="UTF-8" standalone="no"?>
<svg
   xmlns:dc="http://purl.org/dc/elements/1.1/"
   xmlns:cc="http://creativecommons.org/ns#"
   xmlns:rdf="http://www.w3.org/1999/02/22-rdf-syntax-ns#"
   xmlns:svg="http://www.w3.org/2000/svg"
   xmlns="http://www.w3.org/2000/svg"
   xmlns:sodipodi="http://sodipodi.sourceforge.net/DTD/sodipodi-0.dtd"
   xmlns:inkscape="http://www.inkscape.org/namespaces/inkscape"
   viewBox="0 0 512 512"
   width="512"
   height="512"
   version="1.1"
   id="svg125"
   sodipodi:docname="moose.svg"
   inkscape:version="1.0.2 (e86c870879, 2021-01-15, custom)">
  <sodipodi:namedview
     pagecolor="#ffffff"
     bordercolor="#666666"
     borderopacity="1"
     objecttolerance="10"
     gridtolerance="10"
     guidetolerance="10"
     inkscape:pageopacity="0"
     inkscape:pageshadow="2"
     inkscape:window-width="1366"
     inkscape:window-height="715"
     id="namedview3602"
     showgrid="false"
     inkscape:zoom="0.75682523"
     inkscape:cx="1210.6635"
     inkscape:cy="3080.9403"
     inkscape:window-x="-8"
     inkscape:window-y="-8"
     inkscape:window-maximized="1"
     inkscape:current-layer="svg125" />
  <metadata
     id="metadata131">
    <rdf:RDF>
      <cc:Work
         rdf:about="">
        <dc:format>image/svg+xml</dc:format>
        <dc:type
           rdf:resource="http://purl.org/dc/dcmitype/StillImage" />
        <dc:title></dc:title>
      </cc:Work>
    </rdf:RDF>
  </metadata>
  <defs
     id="defs129" />
  <style
     id="style2">
		tspan { white-space:pre }
		.shp0 { fill: #e7d5b8 } 
		.shp1 { fill: #15120f } 
	</style>
  <g
     id="g5591"
     transform="matrix(1.7322624,0,0,1.7322624,-1573.2274,-5089.5128)">
    <path
       id="Path 73"
       class="shp1"
       d="m 1007,2984.5 c 0,0.28 2.03,4.66 4.51,9.75 2.95,6.06 5.41,13.22 7.14,20.75 2.1,9.16 2.66,14.25 2.75,25 0.08,10.59 -0.38,15.66 -2.13,23.5 -1.22,5.5 -2.96,16.3 -3.86,24 -1.33,11.44 -1.42,15.46 -0.49,22 0.74,5.23 2.34,10.51 4.61,15.25 2.21,4.62 4.83,8.34 7.22,10.26 2.06,1.66 5.78,3.99 8.25,5.18 3.59,1.72 6.43,2.17 14,2.23 7.76,0.07 10.42,-0.33 14.5,-2.14 2.79,-1.24 7.24,-4.55 10.08,-7.5 3.2,-3.32 5.85,-7.32 7.15,-10.78 1.14,-3.03 2.57,-8.99 3.17,-13.25 0.61,-4.26 1.1,-12.36 1.09,-18 0,-5.64 -0.71,-14.97 -1.56,-20.75 -0.85,-5.78 -2.22,-13.2 -3.05,-16.5 -0.82,-3.3 -2.41,-8.47 -3.53,-11.5 -1.12,-3.03 -3.18,-7.75 -4.58,-10.5 -1.4,-2.75 -4.23,-7.47 -6.29,-10.5 -2.06,-3.03 -6.39,-8.2 -9.62,-11.5 -3.23,-3.3 -8.8,-8.04 -12.37,-10.52 -3.57,-2.49 -8.74,-5.83 -11.49,-7.42 -2.75,-1.58 -7.81,-3.94 -11.25,-5.22 -3.44,-1.29 -8.05,-2.34 -10.25,-2.34 -2.2,0 -4,0.22 -4,0.5 z m -14.06,9.84 c -2.44,1.84 -8.91,6.68 -14.37,10.75 -5.46,4.08 -12.32,9.88 -15.25,12.91 -2.92,3.03 -7.12,8.2 -9.33,11.5 -2.2,3.3 -5.31,9.38 -6.9,13.5 -1.59,4.13 -3.72,11.32 -4.73,16 -1.42,6.58 -1.84,12.8 -1.84,27.5 0,17.68 0.19,19.68 2.74,28.75 1.51,5.36 3.6,11.44 4.65,13.5 1.05,2.06 3.3,5.66 5,8 1.7,2.34 5.68,5.94 8.84,8 5.5,3.59 6.12,3.75 14.25,3.75 7.22,0 9.41,-0.42 14.5,-2.8 3.3,-1.54 7.72,-4.47 9.83,-6.5 2.11,-2.04 4.53,-5.05 5.39,-6.7 0.86,-1.65 2.2,-5.03 2.98,-7.5 0.78,-2.47 1.67,-10.35 1.97,-17.5 0.5,-11.51 0.32,-13.72 -1.56,-19.25 -1.16,-3.44 -4.13,-9.4 -6.61,-13.25 -2.48,-3.85 -5.02,-9.14 -5.66,-11.75 -0.75,-3.06 -0.93,-8.66 -0.53,-15.75 0.35,-6.05 1.84,-20.45 3.33,-32 1.48,-11.55 2.39,-21.79 2.02,-22.75 -0.36,-0.96 -1.48,-1.75 -2.47,-1.75 -1,0 -3.81,1.5 -6.25,3.34 z m 55.51,163.99 c -1.67,0.64 -4.6,2.13 -6.5,3.31 -1.9,1.17 -4.3,3.42 -5.34,5 -1.03,1.57 -1.85,4.43 -1.8,6.36 0.05,2.39 0.89,4.29 2.66,6 1.99,1.92 3.92,2.6 8.31,2.91 4.63,0.34 6.77,-0.07 11.22,-2.16 3.03,-1.42 7.19,-4.42 9.25,-6.67 2.4,-2.61 3.76,-5.07 3.78,-6.83 0.01,-1.57 -0.96,-3.71 -2.25,-4.98 -1.26,-1.22 -3.86,-2.68 -5.78,-3.25 -1.92,-0.56 -5.08,-0.99 -7,-0.94 -1.92,0.04 -4.87,0.6 -6.55,1.25 z m -92.33,6.15 c -1.84,1.26 -2.36,2.48 -2.28,5.33 0.08,2.37 1.29,5.43 3.39,8.56 1.8,2.68 4.62,5.68 6.27,6.68 1.65,0.99 5.02,2.33 7.5,2.98 2.64,0.7 6.15,0.89 8.5,0.46 2.43,-0.44 5.08,-1.86 6.75,-3.61 1.75,-1.83 2.75,-3.97 2.75,-5.88 0,-1.65 -0.45,-3.9 -1,-5 -0.55,-1.1 -2.69,-2.86 -4.75,-3.9 -2.06,-1.05 -6.23,-2.85 -9.25,-4.01 -3.02,-1.16 -7.75,-2.36 -10.5,-2.67 -3.7,-0.42 -5.62,-0.14 -7.38,1.06 z"
       style="fill:#333333;fill-opacity:1"
       sodipodi:nodetypes="scccccccccccccccscsssscccsssccccsscsscsccssccsscccssccccccccccccccccccccsscscc" />
    <g
       aria-label="inches"
       id="text2538-7-9-6-4-9-4-2-5-7-8-6-45"
       style="font-style:normal;font-weight:normal;font-size:16.366px;line-height:1.25;font-family:sans-serif;fill:#333333;fill-opacity:1;stroke:none;stroke-width:0.409151">
      <path
         d="m 1123.1889,3079.6656 h -1.6941 v -1.5582 h 1.6941 z m -0.096,10.4206 h -1.5023 v -8.9262 h 1.5023 z"
         style="white-space:pre;fill:#333333;fill-opacity:1;stroke-width:0.409151"
         id="path3197" />
      <path
         d="m 1133.5295,3090.0862 h -1.5023 v -5.0824 q 0,-0.6154 -0.072,-1.1508 -0.072,-0.5434 -0.2637,-0.847 -0.1998,-0.3357 -0.5754,-0.4955 -0.3756,-0.1678 -0.9749,-0.1678 -0.6154,0 -1.2866,0.3037 -0.6713,0.3036 -1.2866,0.7751 v 6.6647 h -1.5024 v -8.9262 h 1.5024 v 0.9909 q 0.7032,-0.5833 1.4544,-0.911 0.7512,-0.3276 1.5423,-0.3276 1.4464,0 2.2056,0.871 0.7591,0.8711 0.7591,2.5093 z"
         style="white-space:pre;fill:#333333;fill-opacity:1;stroke-width:0.409151"
         id="path3199" />
      <path
         d="m 1143.0231,3089.5268 q -0.7512,0.3596 -1.4304,0.5594 -0.6713,0.1998 -1.4305,0.1998 -0.9669,0 -1.774,-0.2797 -0.8071,-0.2877 -1.3825,-0.8631 -0.5833,-0.5753 -0.903,-1.4544 -0.3196,-0.879 -0.3196,-2.0537 0,-2.1896 1.1986,-3.4362 1.2067,-1.2467 3.1805,-1.2467 0.7672,0 1.5024,0.2158 0.7432,0.2158 1.3585,0.5274 v 1.6702 h -0.08 q -0.6873,-0.5354 -1.4225,-0.8231 -0.7272,-0.2877 -1.4224,-0.2877 -1.2786,0 -2.0218,0.863 -0.7352,0.8551 -0.7352,2.5173 0,1.6142 0.7193,2.4852 0.7272,0.8631 2.0377,0.8631 0.4555,0 0.927,-0.1199 0.4715,-0.1198 0.8471,-0.3116 0.3276,-0.1678 0.6153,-0.3516 0.2877,-0.1918 0.4555,-0.3277 h 0.08 z"
         style="white-space:pre;fill:#333333;fill-opacity:1;stroke-width:0.409151"
         id="path3201" />
      <path
         d="m 1152.4128,3090.0862 h -1.5024 v -5.0824 q 0,-0.6154 -0.072,-1.1508 -0.072,-0.5434 -0.2637,-0.847 -0.1998,-0.3357 -0.5754,-0.4955 -0.3756,-0.1678 -0.9749,-0.1678 -0.6153,0 -1.2866,0.3037 -0.6713,0.3036 -1.2866,0.7751 v 6.6647 h -1.5023 v -12.4343 h 1.5023 v 4.499 q 0.7033,-0.5833 1.4544,-0.911 0.7512,-0.3276 1.5423,-0.3276 1.4464,0 2.2056,0.871 0.7592,0.8711 0.7592,2.5093 z"
         style="white-space:pre;fill:#333333;fill-opacity:1;stroke-width:0.409151"
         id="path3203" />
      <path
         d="m 1162.7774,3085.7789 h -6.5768 q 0,0.8231 0.2477,1.4384 0.2478,0.6074 0.6793,0.9989 0.4155,0.3836 0.9829,0.5754 0.5754,0.1918 1.2626,0.1918 0.911,0 1.83,-0.3596 0.927,-0.3676 1.3186,-0.7192 h 0.08 v 1.6382 q -0.7592,0.3196 -1.5503,0.5354 -0.7912,0.2158 -1.6622,0.2158 -2.2216,0 -3.4682,-1.1987 -1.2466,-1.2067 -1.2466,-3.4203 0,-2.1896 1.1907,-3.4761 1.1987,-1.2866 3.1485,-1.2866 1.806,0 2.781,1.0548 0.9829,1.0549 0.9829,2.9967 z m -1.4624,-1.1507 q -0.01,-1.1827 -0.5994,-1.83 -0.5833,-0.6473 -1.782,-0.6473 -1.2067,0 -1.9259,0.7112 -0.7112,0.7112 -0.8071,1.7661 z"
         style="white-space:pre;fill:#333333;fill-opacity:1;stroke-width:0.409151"
         id="path3205" />
      <path
         d="m 1171.4319,3087.513 q 0,1.2227 -1.0149,2.0058 -1.0069,0.7831 -2.757,0.7831 -0.9909,0 -1.822,-0.2317 -0.8231,-0.2397 -1.3825,-0.5194 v -1.6862 h 0.08 q 0.7113,0.5354 1.5823,0.8551 0.871,0.3116 1.6702,0.3116 0.9909,0 1.5503,-0.3196 0.5593,-0.3197 0.5593,-1.0069 0,-0.5274 -0.3036,-0.7991 -0.3037,-0.2717 -1.1667,-0.4635 -0.3197,-0.072 -0.8391,-0.1678 -0.5115,-0.096 -0.935,-0.2078 -1.1747,-0.3117 -1.6702,-0.911 -0.4874,-0.6073 -0.4874,-1.4864 0,-0.5514 0.2237,-1.0388 0.2318,-0.4875 0.6953,-0.8711 0.4475,-0.3755 1.1347,-0.5913 0.6953,-0.2238 1.5503,-0.2238 0.7991,0 1.6142,0.1998 0.8231,0.1918 1.3665,0.4715 v 1.6062 h -0.08 q -0.5753,-0.4235 -1.3984,-0.7112 -0.8231,-0.2957 -1.6143,-0.2957 -0.8231,0 -1.3904,0.3197 -0.5674,0.3116 -0.5674,0.935 0,0.5514 0.3436,0.831 0.3356,0.2797 1.0868,0.4555 0.4156,0.096 0.927,0.1918 0.5194,0.096 0.8631,0.1758 1.0468,0.2398 1.6142,0.8231 0.5674,0.5914 0.5674,1.5663 z"
         style="white-space:pre;fill:#333333;fill-opacity:1;stroke-width:0.409151"
         id="path3207" />
    </g>
    <text
       xml:space="preserve"
       style="font-style:normal;font-weight:normal;font-size:19.0998px;line-height:1.25;font-family:sans-serif;fill:#333333;fill-opacity:1;stroke:none;stroke-width:0.477494"
       x="1103.0535"
       y="3090.2822"
       id="text3525-17"><tspan
         id="tspan3523-07"
         x="1103.0535"
         y="3090.2822"
         style="fill:#333333;fill-opacity:1;stroke-width:0.477494">5</tspan></text>
    <path
       style="color:#000000;font-style:normal;font-variant:normal;font-weight:normal;font-stretch:normal;font-size:medium;line-height:normal;font-family:sans-serif;font-variant-ligatures:normal;font-variant-position:normal;font-variant-caps:normal;font-variant-numeric:normal;font-variant-alternates:normal;font-variant-east-asian:normal;font-feature-settings:normal;font-variation-settings:normal;text-indent:0;text-align:start;text-decoration:none;text-decoration-line:none;text-decoration-style:solid;text-decoration-color:#000000;letter-spacing:normal;word-spacing:normal;text-transform:none;writing-mode:lr-tb;direction:ltr;text-orientation:mixed;dominant-baseline:auto;baseline-shift:baseline;text-anchor:start;white-space:normal;shape-padding:0;shape-margin:0;inline-size:0;clip-rule:nonzero;display:inline;overflow:visible;visibility:visible;opacity:1;isolation:auto;mix-blend-mode:normal;color-interpolation:sRGB;color-interpolation-filters:linearRGB;solid-color:#000000;solid-opacity:1;vector-effect:none;fill:#333333;fill-opacity:1;fill-rule:nonzero;stroke:none;stroke-linecap:butt;stroke-linejoin:miter;stroke-miterlimit:4;stroke-dasharray:none;stroke-dashoffset:0;stroke-opacity:1;color-rendering:auto;image-rendering:auto;shape-rendering:auto;text-rendering:auto;enable-background:accumulate;stop-color:#000000;stop-opacity:1"
       d="m 1029.4863,2982.9941 v 1 h 107.4961 v 85.6993 h 1 v -86.6993 z"
       id="path5566" />
    <path
       style="color:#000000;font-style:normal;font-variant:normal;font-weight:normal;font-stretch:normal;font-size:medium;line-height:normal;font-family:sans-serif;font-variant-ligatures:normal;font-variant-position:normal;font-variant-caps:normal;font-variant-numeric:normal;font-variant-alternates:normal;font-variant-east-asian:normal;font-feature-settings:normal;font-variation-settings:normal;text-indent:0;text-align:start;text-decoration:none;text-decoration-line:none;text-decoration-style:solid;text-decoration-color:#000000;letter-spacing:normal;word-spacing:normal;text-transform:none;writing-mode:lr-tb;direction:ltr;text-orientation:mixed;dominant-baseline:auto;baseline-shift:baseline;text-anchor:start;white-space:normal;shape-padding:0;shape-margin:0;inline-size:0;clip-rule:nonzero;display:inline;overflow:visible;visibility:visible;opacity:1;isolation:auto;mix-blend-mode:normal;color-interpolation:sRGB;color-interpolation-filters:linearRGB;solid-color:#000000;solid-opacity:1;vector-effect:none;fill:#333333;fill-opacity:1;fill-rule:nonzero;stroke:none;stroke-linecap:butt;stroke-linejoin:miter;stroke-miterlimit:4;stroke-dasharray:none;stroke-dashoffset:0;stroke-opacity:1;color-rendering:auto;image-rendering:auto;shape-rendering:auto;text-rendering:auto;enable-background:accumulate;stop-color:#000000;stop-opacity:1"
       d="m 1137.002,3103.5078 v 79.5254 h -73.5137 v 1 h 74.5137 v -80.5254 z"
       id="path5572" />
  </g>
</svg>
