<?xml version="1.0" encoding="UTF-8" standalone="no"?>
<svg
   xmlns:dc="http://purl.org/dc/elements/1.1/"
   xmlns:cc="http://creativecommons.org/ns#"
   xmlns:rdf="http://www.w3.org/1999/02/22-rdf-syntax-ns#"
   xmlns:svg="http://www.w3.org/2000/svg"
   xmlns="http://www.w3.org/2000/svg"
   xmlns:sodipodi="http://sodipodi.sourceforge.net/DTD/sodipodi-0.dtd"
   xmlns:inkscape="http://www.inkscape.org/namespaces/inkscape"
   viewBox="0 0 512 512"
   width="512"
   height="512"
   version="1.1"
   id="svg125"
   sodipodi:docname="mountain-goat.svg"
   inkscape:version="1.0.2 (e86c870879, 2021-01-15, custom)">
  <sodipodi:namedview
     pagecolor="#ffffff"
     bordercolor="#666666"
     borderopacity="1"
     objecttolerance="10"
     gridtolerance="10"
     guidetolerance="10"
     inkscape:pageopacity="0"
     inkscape:pageshadow="2"
     inkscape:window-width="1366"
     inkscape:window-height="715"
     id="namedview3602"
     showgrid="false"
     inkscape:zoom="1.0703125"
     inkscape:cx="929.73681"
     inkscape:cy="2848.5939"
     inkscape:window-x="-8"
     inkscape:window-y="-8"
     inkscape:window-maximized="1"
     inkscape:current-layer="svg125" />
  <metadata
     id="metadata131">
    <rdf:RDF>
      <cc:Work
         rdf:about="">
        <dc:format>image/svg+xml</dc:format>
        <dc:type
           rdf:resource="http://purl.org/dc/dcmitype/StillImage" />
        <dc:title></dc:title>
      </cc:Work>
    </rdf:RDF>
  </metadata>
  <defs
     id="defs129" />
  <style
     id="style2">
		tspan { white-space:pre }
		.shp0 { fill: #e7d5b8 } 
		.shp1 { fill: #15120f } 
	</style>
  <g
     id="g4879"
     transform="matrix(1.9267071,0,0,1.9267071,-1339.3587,-5201.0467)">
    <path
       id="Path 67"
       fill-rule="evenodd"
       class="shp1"
       d="m 743.16,2770.14 c 1.01,0.47 2.23,1.65 2.7,2.61 0.47,0.96 1.34,3.78 1.93,6.25 0.6,2.47 1.83,10.35 2.75,17.5 1.05,8.15 3.55,19.71 6.71,31 2.78,9.9 5.91,21.82 6.95,26.5 1.36,6.1 1.77,10.9 1.45,17 -0.25,4.68 -1.11,10.07 -1.91,12 -0.8,1.93 -2.76,4.75 -4.35,6.28 -1.91,1.83 -4.76,3.14 -8.39,3.86 -3.02,0.6 -7.52,0.87 -10,0.59 -2.48,-0.27 -6.25,-1.34 -8.39,-2.36 -2.14,-1.03 -4.5,-3.11 -5.25,-4.62 -0.75,-1.51 -1.86,-6.01 -2.48,-10 -0.68,-4.39 -0.85,-11.2 -0.44,-17.25 0.38,-5.5 1.3,-13.37 2.04,-17.5 0.74,-4.12 1.59,-17.62 1.88,-30 0.37,-16.21 0.97,-24.18 2.14,-28.5 0.89,-3.3 2.56,-7.43 3.71,-9.18 1.14,-1.75 3.21,-3.6 4.6,-4.11 1.44,-0.53 3.3,-0.56 4.35,-0.07 z m 57.23,3.01 c 1.71,0.48 3.92,1.65 4.9,2.61 0.98,0.96 2.11,3.21 2.5,5.01 0.39,1.8 0.33,14.17 -0.13,27.5 -0.72,20.83 -0.6,25.84 0.88,35.73 0.95,6.32 2.09,13.75 2.52,16.5 0.44,2.75 0.82,8.6 0.85,13 0.03,4.48 -0.48,9.08 -1.17,10.46 -0.68,1.35 -3.04,3.68 -5.24,5.18 -2.2,1.5 -6.92,3.51 -10.5,4.45 -4.28,1.14 -8.03,1.51 -11,1.08 -2.48,-0.35 -6.08,-1.67 -8,-2.93 -1.92,-1.25 -4.29,-3.85 -5.25,-5.76 -1,-1.99 -1.75,-5.73 -1.75,-8.73 0,-3.32 1.5,-10.13 4.09,-18.5 2.24,-7.29 5.38,-18.43 6.96,-24.75 1.59,-6.32 3.82,-18.93 4.96,-28 1.15,-9.07 2.77,-18.97 3.61,-22 0.85,-3.03 2.22,-6.54 3.06,-7.8 0.83,-1.27 2.44,-2.67 3.56,-3.11 1.12,-0.45 3.44,-0.42 5.15,0.06 z"
       style="fill:#333333;fill-opacity:1"
       sodipodi:nodetypes="cscccccsccccsccccccccssscccscscccssccccccs" />
    <g
       aria-label="inches"
       id="text2538-7-9-6-4-9-4-2-5-7-8-6-0"
       style="font-style:normal;font-weight:normal;font-size:16.366px;line-height:1.25;font-family:sans-serif;fill:#333333;fill-opacity:1;stroke:none;stroke-width:0.409151">
      <path
         d="m 883.5846,2828.7237 h -1.69413 v -1.5582 h 1.69413 z m -0.0959,10.4206 h -1.50235 v -8.9262 h 1.50235 z"
         style="white-space:pre;fill:#333333;fill-opacity:1;stroke-width:0.409151"
         id="path3223" />
      <path
         d="m 893.92523,2839.1443 h -1.50235 v -5.0824 q 0,-0.6153 -0.0719,-1.1508 -0.0719,-0.5434 -0.26371,-0.847 -0.19978,-0.3357 -0.57537,-0.4955 -0.37558,-0.1678 -0.97492,-0.1678 -0.61533,0 -1.28659,0.3037 -0.67126,0.3036 -1.28658,0.7751 v 6.6647 h -1.50235 v -8.9262 h 1.50235 v 0.9909 q 0.70322,-0.5833 1.4544,-0.911 0.75117,-0.3276 1.5423,-0.3276 1.44641,0 2.20557,0.871 0.75917,0.8711 0.75917,2.5093 z"
         style="white-space:pre;fill:#333333;fill-opacity:1;stroke-width:0.409151"
         id="path3225" />
      <path
         d="m 903.41879,2838.5849 q -0.75118,0.3596 -1.43043,0.5594 -0.67126,0.1998 -1.43043,0.1998 -0.96693,0 -1.77404,-0.2797 -0.80712,-0.2877 -1.38248,-0.8631 -0.58336,-0.5753 -0.90301,-1.4544 -0.31965,-0.879 -0.31965,-2.0537 0,-2.1896 1.19868,-3.4362 1.20668,-1.2467 3.1805,-1.2467 0.76716,0 1.50235,0.2158 0.74318,0.2158 1.35851,0.5274 v 1.6702 h -0.0799 q -0.68725,-0.5354 -1.42244,-0.8231 -0.7272,-0.2877 -1.42244,-0.2877 -1.27859,0 -2.02177,0.8631 -0.73519,0.855 -0.73519,2.5172 0,1.6142 0.71921,2.4852 0.7272,0.8631 2.03775,0.8631 0.4555,0 0.92699,-0.1199 0.47148,-0.1198 0.84706,-0.3116 0.32764,-0.1678 0.61533,-0.3516 0.28768,-0.1918 0.4555,-0.3277 h 0.0799 z"
         style="white-space:pre;fill:#333333;fill-opacity:1;stroke-width:0.409151"
         id="path3227" />
      <path
         d="m 912.80846,2839.1443 h -1.50235 v -5.0824 q 0,-0.6153 -0.0719,-1.1508 -0.0719,-0.5434 -0.26371,-0.847 -0.19978,-0.3357 -0.57537,-0.4955 -0.37558,-0.1678 -0.97492,-0.1678 -0.61533,0 -1.28659,0.3037 -0.67126,0.3036 -1.28658,0.7751 v 6.6647 h -1.50235 V 2826.71 h 1.50235 v 4.499 q 0.70322,-0.5833 1.4544,-0.911 0.75117,-0.3276 1.5423,-0.3276 1.44641,0 2.20557,0.871 0.75917,0.8711 0.75917,2.5093 z"
         style="white-space:pre;fill:#333333;fill-opacity:1;stroke-width:0.409151"
         id="path3229" />
      <path
         d="m 923.17306,2834.837 h -6.57677 q 0,0.8231 0.24773,1.4384 0.24773,0.6074 0.67925,0.9989 0.41555,0.3836 0.98292,0.5754 0.57537,0.1918 1.26261,0.1918 0.911,0 1.82999,-0.3596 0.92698,-0.3676 1.31855,-0.7192 h 0.0799 v 1.6382 q -0.75916,0.3196 -1.55029,0.5354 -0.79113,0.2158 -1.66217,0.2158 -2.22156,0 -3.46819,-1.1987 -1.24663,-1.2067 -1.24663,-3.4203 0,-2.1896 1.19069,-3.4761 1.19868,-1.2866 3.14854,-1.2866 1.80601,0 2.78094,1.0548 0.98292,1.0549 0.98292,2.9967 z m -1.46239,-1.1507 q -0.008,-1.1827 -0.59934,-1.83 -0.58336,-0.6473 -1.78204,-0.6473 -1.20668,0 -1.92588,0.7112 -0.71122,0.7113 -0.80712,1.7661 z"
         style="white-space:pre;fill:#333333;fill-opacity:1;stroke-width:0.409151"
         id="path3231" />
      <path
         d="m 931.82754,2836.5711 q 0,1.2227 -1.01488,2.0058 -1.00689,0.7831 -2.75697,0.7831 -0.99091,0 -1.82199,-0.2317 -0.8231,-0.2397 -1.38248,-0.5194 v -1.6862 h 0.0799 q 0.71122,0.5354 1.58226,0.8551 0.87104,0.3116 1.67016,0.3116 0.99091,0 1.5503,-0.3196 0.55938,-0.3196 0.55938,-1.0069 0,-0.5274 -0.30367,-0.7991 -0.30366,-0.2717 -1.16671,-0.4635 -0.31965,-0.072 -0.83908,-0.1678 -0.51144,-0.096 -0.93497,-0.2078 -1.17471,-0.3116 -1.67016,-0.911 -0.48747,-0.6073 -0.48747,-1.4864 0,-0.5513 0.22376,-1.0388 0.23174,-0.4875 0.69523,-0.8711 0.44751,-0.3755 1.13475,-0.5913 0.69524,-0.2238 1.5503,-0.2238 0.79912,0 1.61422,0.1998 0.8231,0.1918 1.3665,0.4715 v 1.6062 h -0.0799 q -0.57537,-0.4235 -1.39846,-0.7112 -0.8231,-0.2957 -1.61423,-0.2957 -0.82309,0 -1.39047,0.3197 -0.56738,0.3117 -0.56738,0.935 0,0.5514 0.34363,0.8311 0.33563,0.2796 1.0868,0.4554 0.41554,0.096 0.92698,0.1918 0.51943,0.096 0.86305,0.1758 1.04685,0.2398 1.61423,0.8231 0.56737,0.5914 0.56737,1.5663 z"
         style="white-space:pre;fill:#333333;fill-opacity:1;stroke-width:0.409151"
         id="path3233" />
    </g>
    <text
       xml:space="preserve"
       style="font-style:normal;font-weight:normal;font-size:19.0998px;line-height:1.25;font-family:sans-serif;fill:#333333;fill-opacity:1;stroke:none;stroke-width:0.477494"
       x="863.9931"
       y="2839.5059"
       id="text3525-06"><tspan
         id="tspan3523-062"
         x="863.9931"
         y="2839.5059"
         style="fill:#333333;fill-opacity:1;stroke-width:0.477494">3</tspan></text>
    <path
       style="color:#000000;font-style:normal;font-variant:normal;font-weight:normal;font-stretch:normal;font-size:medium;line-height:normal;font-family:sans-serif;font-variant-ligatures:normal;font-variant-position:normal;font-variant-caps:normal;font-variant-numeric:normal;font-variant-alternates:normal;font-variant-east-asian:normal;font-feature-settings:normal;font-variation-settings:normal;text-indent:0;text-align:start;text-decoration:none;text-decoration-line:none;text-decoration-style:solid;text-decoration-color:#000000;letter-spacing:normal;word-spacing:normal;text-transform:none;writing-mode:lr-tb;direction:ltr;text-orientation:mixed;dominant-baseline:auto;baseline-shift:baseline;text-anchor:start;white-space:normal;shape-padding:0;shape-margin:0;inline-size:0;clip-rule:nonzero;display:inline;overflow:visible;visibility:visible;opacity:1;isolation:auto;mix-blend-mode:normal;color-interpolation:sRGB;color-interpolation-filters:linearRGB;solid-color:#000000;solid-opacity:1;vector-effect:none;fill:#333333;fill-opacity:1;fill-rule:nonzero;stroke:none;stroke-linecap:butt;stroke-linejoin:miter;stroke-miterlimit:4;stroke-dasharray:none;stroke-dashoffset:0;stroke-opacity:1;color-rendering:auto;image-rendering:auto;shape-rendering:auto;text-rendering:auto;enable-background:accumulate;stop-color:#000000;stop-opacity:1"
       d="m 823.50391,2772.0254 v 1 h 74.48632 v 45.9082 h 1 v -46.9082 z"
       id="path4854" />
    <path
       style="color:#000000;font-style:normal;font-variant:normal;font-weight:normal;font-stretch:normal;font-size:medium;line-height:normal;font-family:sans-serif;font-variant-ligatures:normal;font-variant-position:normal;font-variant-caps:normal;font-variant-numeric:normal;font-variant-alternates:normal;font-variant-east-asian:normal;font-feature-settings:normal;font-variation-settings:normal;text-indent:0;text-align:start;text-decoration:none;text-decoration-line:none;text-decoration-style:solid;text-decoration-color:#000000;letter-spacing:normal;word-spacing:normal;text-transform:none;writing-mode:lr-tb;direction:ltr;text-orientation:mixed;dominant-baseline:auto;baseline-shift:baseline;text-anchor:start;white-space:normal;shape-padding:0;shape-margin:0;inline-size:0;clip-rule:nonzero;display:inline;overflow:visible;visibility:visible;opacity:1;isolation:auto;mix-blend-mode:normal;color-interpolation:sRGB;color-interpolation-filters:linearRGB;solid-color:#000000;solid-opacity:1;vector-effect:none;fill:#333333;fill-opacity:1;fill-rule:nonzero;stroke:none;stroke-linecap:butt;stroke-linejoin:miter;stroke-miterlimit:4;stroke-dasharray:none;stroke-dashoffset:0;stroke-opacity:1;color-rendering:auto;image-rendering:auto;shape-rendering:auto;text-rendering:auto;enable-background:accumulate;stop-color:#000000;stop-opacity:1"
       d="m 897.96875,2852.6641 v 39.332 H 824.4668 v 1 h 74.50195 v -40.332 z"
       id="path4856" />
  </g>
</svg>
