<?xml version="1.0" encoding="UTF-8" standalone="no"?>
<svg
   xmlns:dc="http://purl.org/dc/elements/1.1/"
   xmlns:cc="http://creativecommons.org/ns#"
   xmlns:rdf="http://www.w3.org/1999/02/22-rdf-syntax-ns#"
   xmlns:svg="http://www.w3.org/2000/svg"
   xmlns="http://www.w3.org/2000/svg"
   xmlns:sodipodi="http://sodipodi.sourceforge.net/DTD/sodipodi-0.dtd"
   xmlns:inkscape="http://www.inkscape.org/namespaces/inkscape"
   viewBox="0 0 512 512"
   width="512"
   height="512"
   version="1.1"
   id="svg125"
   sodipodi:docname="opossum.svg"
   inkscape:version="1.0.2 (e86c870879, 2021-01-15, custom)">
  <sodipodi:namedview
     pagecolor="#ffffff"
     bordercolor="#666666"
     borderopacity="1"
     objecttolerance="10"
     gridtolerance="10"
     guidetolerance="10"
     inkscape:pageopacity="0"
     inkscape:pageshadow="2"
     inkscape:window-width="1366"
     inkscape:window-height="715"
     id="namedview7008"
     showgrid="false"
     inkscape:zoom="1"
     inkscape:cx="287.01067"
     inkscape:cy="360.01195"
     inkscape:window-x="-8"
     inkscape:window-y="-8"
     inkscape:window-maximized="1"
     inkscape:current-layer="svg125"
     inkscape:document-rotation="0" />
  <metadata
     id="metadata131">
    <rdf:RDF>
      <cc:Work
         rdf:about="">
        <dc:format>image/svg+xml</dc:format>
        <dc:type
           rdf:resource="http://purl.org/dc/dcmitype/StillImage" />
        <dc:title></dc:title>
      </cc:Work>
    </rdf:RDF>
  </metadata>
  <defs
     id="defs129" />
  <style
     id="style2">
		tspan { white-space:pre }
		.shp0 { fill: #e7d5b8 } 
		.shp1 { fill: #15120f } 
	</style>
  <g
     id="g15541"
     transform="matrix(1.7191008,0,0,1.7191008,-1150.8657,-8683.5036)">
    <g
       aria-label="inches"
       id="text2538-7-9-6-4-9-4-2-5-7-8-6-53"
       style="font-style:normal;font-weight:normal;font-size:16.366px;line-height:1.25;font-family:sans-serif;fill:#333333;fill-opacity:1;stroke:none;stroke-width:0.409151"
       transform="translate(0.3535532,0.26516504)">
      <path
         d="m 886.1164,5209.639 h -1.69413 v -1.5583 h 1.69413 z m -0.0959,10.4206 h -1.50235 v -8.9262 h 1.50235 z"
         style="white-space:pre;fill:#333333;fill-opacity:1;stroke-width:0.409151"
         id="path3054" />
      <path
         d="m 896.45703,5220.0596 h -1.50235 v -5.0824 q 0,-0.6154 -0.0719,-1.1508 -0.0719,-0.5434 -0.26371,-0.847 -0.19978,-0.3357 -0.57537,-0.4955 -0.37558,-0.1678 -0.97492,-0.1678 -0.61533,0 -1.28659,0.3037 -0.67126,0.3036 -1.28658,0.7751 v 6.6647 h -1.50235 v -8.9262 h 1.50235 v 0.9909 q 0.70322,-0.5834 1.4544,-0.911 0.75117,-0.3276 1.5423,-0.3276 1.44641,0 2.20557,0.871 0.75917,0.871 0.75917,2.5092 z"
         style="white-space:pre;fill:#333333;fill-opacity:1;stroke-width:0.409151"
         id="path3056" />
      <path
         d="m 905.95059,5219.5002 q -0.75118,0.3596 -1.43043,0.5594 -0.67126,0.1998 -1.43043,0.1998 -0.96693,0 -1.77404,-0.2797 -0.80712,-0.2877 -1.38248,-0.8631 -0.58336,-0.5754 -0.90301,-1.4544 -0.31965,-0.879 -0.31965,-2.0537 0,-2.1896 1.19868,-3.4363 1.20667,-1.2466 3.1805,-1.2466 0.76716,0 1.50235,0.2158 0.74318,0.2157 1.35851,0.5274 v 1.6702 h -0.0799 q -0.68725,-0.5354 -1.42244,-0.8231 -0.7272,-0.2877 -1.42244,-0.2877 -1.27859,0 -2.02177,0.863 -0.73519,0.8551 -0.73519,2.5173 0,1.6142 0.71921,2.4852 0.7272,0.8631 2.03775,0.8631 0.4555,0 0.92698,-0.1199 0.47149,-0.1199 0.84707,-0.3116 0.32764,-0.1679 0.61533,-0.3517 0.28768,-0.1917 0.4555,-0.3276 h 0.0799 z"
         style="white-space:pre;fill:#333333;fill-opacity:1;stroke-width:0.409151"
         id="path3058" />
      <path
         d="m 915.34026,5220.0596 h -1.50235 v -5.0824 q 0,-0.6154 -0.0719,-1.1508 -0.0719,-0.5434 -0.26371,-0.847 -0.19978,-0.3357 -0.57537,-0.4955 -0.37558,-0.1678 -0.97492,-0.1678 -0.61533,0 -1.28659,0.3037 -0.67126,0.3036 -1.28658,0.7751 v 6.6647 h -1.50235 v -12.4344 h 1.50235 v 4.4991 q 0.70322,-0.5834 1.4544,-0.911 0.75117,-0.3276 1.5423,-0.3276 1.44641,0 2.20557,0.871 0.75917,0.871 0.75917,2.5092 z"
         style="white-space:pre;fill:#333333;fill-opacity:1;stroke-width:0.409151"
         id="path3060" />
      <path
         d="m 925.70486,5215.7523 h -6.57677 q 0,0.8231 0.24773,1.4384 0.24773,0.6074 0.67925,0.9989 0.41555,0.3836 0.98292,0.5754 0.57537,0.1918 1.26261,0.1918 0.911,0 1.82999,-0.3596 0.92698,-0.3676 1.31855,-0.7192 h 0.0799 v 1.6382 q -0.75916,0.3196 -1.55029,0.5354 -0.79113,0.2157 -1.66217,0.2157 -2.22156,0 -3.46819,-1.1986 -1.24663,-1.2067 -1.24663,-3.4203 0,-2.1896 1.19069,-3.4762 1.19868,-1.2865 3.14854,-1.2865 1.80601,0 2.78094,1.0548 0.98292,1.0548 0.98292,2.9967 z m -1.46239,-1.1507 q -0.008,-1.1827 -0.59934,-1.83 -0.58336,-0.6473 -1.78204,-0.6473 -1.20668,0 -1.92588,0.7112 -0.71122,0.7112 -0.80712,1.7661 z"
         style="white-space:pre;fill:#333333;fill-opacity:1;stroke-width:0.409151"
         id="path3062" />
      <path
         d="m 934.35934,5217.4864 q 0,1.2227 -1.01488,2.0058 -1.00689,0.7831 -2.75697,0.7831 -0.99091,0 -1.82199,-0.2317 -0.8231,-0.2397 -1.38248,-0.5194 v -1.6862 h 0.0799 q 0.71122,0.5354 1.58226,0.8551 0.87104,0.3116 1.67016,0.3116 0.99091,0 1.5503,-0.3196 0.55938,-0.3197 0.55938,-1.0069 0,-0.5274 -0.30367,-0.7991 -0.30366,-0.2717 -1.16671,-0.4635 -0.31965,-0.072 -0.83908,-0.1678 -0.51144,-0.096 -0.93497,-0.2078 -1.17471,-0.3117 -1.67016,-0.911 -0.48747,-0.6073 -0.48747,-1.4864 0,-0.5514 0.22376,-1.0388 0.23174,-0.4875 0.69523,-0.8711 0.44751,-0.3756 1.13475,-0.5913 0.69524,-0.2238 1.5503,-0.2238 0.79912,0 1.61422,0.1998 0.8231,0.1918 1.3665,0.4715 v 1.6062 h -0.0799 q -0.57537,-0.4235 -1.39846,-0.7112 -0.8231,-0.2957 -1.61423,-0.2957 -0.82309,0 -1.39047,0.3197 -0.56738,0.3116 -0.56738,0.9349 0,0.5514 0.34363,0.8311 0.33563,0.2797 1.0868,0.4555 0.41554,0.096 0.92698,0.1918 0.51943,0.096 0.86305,0.1758 1.04685,0.2398 1.61423,0.8231 0.56737,0.5914 0.56737,1.5663 z"
         style="white-space:pre;fill:#333333;fill-opacity:1;stroke-width:0.409151"
         id="path3064" />
    </g>
    <text
       xml:space="preserve"
       style="font-style:normal;font-weight:normal;font-size:19.0998px;line-height:1.25;font-family:sans-serif;fill:#333333;fill-opacity:1;stroke:none;stroke-width:0.477494"
       x="866.01434"
       y="5220.5859"
       id="text3525-31-0-8"><tspan
         id="tspan3523-61-9-9"
         x="866.01434"
         y="5220.5859"
         style="fill:#333333;fill-opacity:1;stroke-width:0.477494">2</tspan></text>
    <path
       id="Path 1"
       style="fill:#333333;fill-opacity:1"
       d="m 742.85547,5142.1797 c -0.47901,-0.038 -0.77149,0.4211 -1.11524,1.4648 -0.38,1.16 -0.13968,2.7199 0.57032,3.5899 0.69,0.85 1.59,1.53 2,1.5 0.41,-0.02 0.85047,-1.1099 0.98047,-2.4199 0.13,-1.31 -0.46032,-2.9008 -1.32032,-3.5508 -0.4725,-0.36 -0.82783,-0.5613 -1.11523,-0.584 z m 0.35742,9.6601 c -1.51238,-0.014 -2.55594,0.61 -3.49219,2.045 -1.3,1.97 -1.34984,3.4199 -0.33984,9.9199 0.93,6.01 0.91969,8.17 -0.0703,10.25 -0.94,1.99 -1.99,2.6387 -4.25,2.6387 -2.44,0 -4.07,-1.2191 -8.75,-6.5391 -3.65,-4.16 -6.48,-6.5207 -7.75,-6.4707 -1.1,0.05 -2.55071,0.8608 -3.22071,1.8008 -0.67,0.94 -1.23929,2.609 -1.27929,3.709 -0.03,1.1 0.96875,3.05 2.21875,4.33 1.25,1.28 4.42125,3.87 7.03125,5.75 2.61,1.88 4.75,4.09 4.75,4.92 0,0.83 -0.56,1.7718 -1.25,2.0918 -0.69,0.33 -4.17,-0.3405 -7.75,-1.4805 -5.85,-1.88 -6.73,-1.9396 -8.75,-0.5996 -1.34,0.89 -2.25,2.5083 -2.25,3.9883 0,1.38 0.68,3.17 1.5,4 0.82,0.83 1.61,1.5017 1.75,1.5117 0.14,0 2.73,0.3987 5.75,0.8887 3.25,0.5299 7.55,2.1998 10.5,4.0898 4.25,2.71 5.67,3.1114 9.5,2.6914 3.31,-0.37 5.36,0.01 7.75,1.4102 1.79,1.05 4.38,1.9082 5.75,1.9082 1.38,0 4.41,-0.9589 6.75,-2.1289 3.43,-1.72 5.41,-2.0394 10.25,-1.6094 3.3,0.28 6.56,0.3389 7.25,0.1289 0.69,-0.22 1.25953,-1.6306 1.26953,-3.1406 0.01,-1.51 -0.56,-3.3196 -1.25,-4.0196 -0.76,-0.75 -3.78953,-1.26 -7.51953,-1.25 l -6.25,0.02 c 0,-4.65 0.60007,-7.46 1.33007,-9.25 0.73001,-1.79 3.20001,-4.71 5.5,-6.5 3.24,-2.53 4.16993,-3.92 4.16993,-6.25 0,-1.67 -0.89,-3.89 -2,-5 -1.1,-1.1 -2.67,-1.77 -3.5,-1.5 -0.83,0.27 -1.95,0.5 -2.5,0.5 -0.55,0 -2.69,2.721 -4.75,6.041 -2.97,4.78 -4.27,6.0293 -6.25,6.0293 -1.37,0 -3.31102,-0.8091 -4.29102,-1.7891 -1.61,-1.6 -1.69,-2.5712 -0.75,-9.5312 0.8,-5.94 0.75125,-8.39 -0.21875,-10.5 -0.83,-1.82 -2.16016,-2.8586 -3.91016,-3.0586 -0.23625,-0.028 -0.46167,-0.043 -0.67773,-0.045 z m 32.22656,4.3536 -1.43945,2.7402 c -0.79,1.5 -1.09992,3.08 -0.66992,3.5 0.42,0.42 1.23078,0.3098 1.80078,-0.2402 0.57,-0.55 0.86992,-2.12 0.66992,-3.5 z m -65.58007,1.4804 c -0.39,0.01 -0.95001,0.4696 -1.25,1.0196 -0.30001,0.55 -0.32883,1.9 -0.0488,3 0.28,1.1 1.06,2.021 1.75,2.041 0.69,0.03 1.93,-0.6896 2.75,-1.5996 1.34,-1.48 1.29,-1.8103 -0.5,-3.0703 -1.1,-0.77 -2.32118,-1.4007 -2.70117,-1.3907 z m 111.15429,17.4746 c -0.56328,-0.075 -1.34805,0.5444 -1.87305,1.5157 -0.59,1.12 -0.86007,2.6993 -0.58007,3.5293 0.28,0.83 1.17,1.5 2,1.5 0.97,0 1.53961,-1.0395 1.59961,-2.9395 0.06,-1.62 -0.35993,-3.2093 -0.91993,-3.5293 -0.07,-0.04 -0.14609,-0.065 -0.22656,-0.076 z m -118.47656,4.9981 c -0.5582,-0.01 -0.60195,0.3961 -0.37695,1.3086 0.23,0.95 1.43015,1.8483 2.66015,1.9883 1.24,0.14 2.13024,-0.2492 1.99024,-0.8692 -0.14,-0.62 -1.34016,-1.52 -2.66016,-2 -0.7575,-0.2737 -1.27836,-0.4241 -1.61328,-0.4277 z m 130.64648,1.7578 c -0.5522,0.071 -0.94265,1.1009 -1.0039,2.7109 -0.08,2.12 0.35086,3.0782 1.38086,3.0782 1.02,0 1.42,-0.85 1.25,-2.67 -0.14,-1.47 -0.76086,-2.8598 -1.38086,-3.0898 -0.085,-0.03 -0.16721,-0.039 -0.2461,-0.029 z m -15.60351,3.7891 c -1.49,0 -3.05063,0.9 -3.89063,2.25 -0.78,1.24 -2.92,6.97 -4.75,12.75 -2.35,7.42 -4.53922,12.12 -7.44922,16 -2.27,3.03 -5.11054,6.4 -6.31054,7.5 -2.04,1.86 -2.49016,1.9003 -6.41016,0.5703 -3.33,-1.13 -4.83898,-1.1798 -7.20898,-0.2598 -1.65,0.64 -4.12,1.1909 -5.5,1.2109 -1.37,0.03 -3.74,-0.8702 -5.25,-1.9902 -1.51,-1.11 -4.21,-2.3197 -6,-2.6797 -2.75,-0.55 -3.45961,-0.27 -4.59961,1.75 -0.74,1.32 -1.11055,3.2985 -0.81055,4.3985 0.35,1.31 3.05961,3.1202 7.84961,5.2402 5.05,2.23 8.70055,4.7208 11.81055,8.0508 3.64,3.9 5.55,5.0608 10,6.1308 3.03,0.72 8.88,3.1182 13,5.3282 6.02,3.21 8.14,3.8808 10.75,3.3808 2.06,-0.4 4.11867,-1.8208 5.63867,-3.8808 1.31,-1.79 3.53164,-5.72 4.93164,-8.75 1.4,-3.03 3.35937,-6.29 4.35937,-7.25 1.02,-0.98 4.68032,-2.1898 8.32032,-2.7598 3.57,-0.55 7.10031,-1.56 7.82031,-2.25 0.73,-0.68 1.18,-2.3602 1,-3.7402 -0.31,-2.43 -0.51031,-2.49 -7.57031,-2.25 -5.25,0.18 -7.26078,-0.1 -7.30078,-1 -0.02,-0.69 1.78,-2.94 4,-5 2.23,-2.06 4.73078,-3.75 5.55078,-3.75 0.82,0 2.41929,-1.24 3.52929,-2.75 1.12,-1.51 2.02,-3.99 2,-5.5 -0.02,-2.32 -0.45929,-2.7493 -2.77929,-2.7793 -1.83,-0.02 -4.08,1.24 -6.75,3.75 -2.2,2.08 -5.01,5.0193 -6.25,6.5293 -1.24,1.51 -2.7,2.75 -3.25,2.75 -0.55,0 -1.00953,-1.24 -1.01953,-2.75 0,-1.51 1.8,-5.79 4,-9.5 2.86,-4.8 3.94953,-7.69 3.76953,-10 -0.21,-2.72 -0.65071,-3.25 -2.72071,-3.25 -1.83,0 -3.05976,1.03 -4.75976,4 -1.26,2.2 -3.1793,7.04 -4.2793,10.75 -1.3,4.41 -2.68023,7.1 -3.99023,7.75 -1.1,0.55 -2.22,1 -2.5,1 -0.28,0 -0.49047,-1.69 -0.48047,-3.75 0.01,-2.34 1.25984,-6 3.33984,-9.75 1.82,-3.3 3.61047,-7.24 3.98047,-8.75 0.36,-1.51 0.21016,-3.65 -0.33984,-4.75 -0.6,-1.19 -2.00047,-2 -3.48047,-2 z m -36.17774,10.4453 c -0.44625,0.065 -0.7475,0.4049 -1.0625,1.0449 -0.46,0.94 -0.25953,2.0808 0.48047,2.8008 0.99,0.95 1.63,0.8608 3,-0.4492 1.65,-1.58 1.61953,-1.7211 -0.48047,-2.7911 -0.9,-0.46 -1.49125,-0.6704 -1.9375,-0.6054 z m 68.00977,1.0156 c -0.36703,0.012 -1.08656,0.2627 -1.85156,0.6602 -1.01,0.54 -1.75993,1.8596 -1.66993,2.9296 0.09,1.07 0.84993,1.9493 1.66993,1.9493 0.83,0 1.68015,-1.1289 1.91015,-2.5489 0.23,-1.4 0.30969,-2.7099 0.17969,-2.9199 -0.0325,-0.052 -0.11594,-0.074 -0.23828,-0.07 z m -2.0332,23.3711 c -0.92808,0 -1.90063,1.1036 -2.03321,1.5898 -0.13259,0.4861 -0.22089,2.3438 1.54688,2.3438 1.76777,0 0.48633,-3.9336 0.48633,-3.9336 z" />
    <path
       style="color:#000000;font-style:normal;font-variant:normal;font-weight:normal;font-stretch:normal;font-size:medium;line-height:normal;font-family:sans-serif;font-variant-ligatures:normal;font-variant-position:normal;font-variant-caps:normal;font-variant-numeric:normal;font-variant-alternates:normal;font-variant-east-asian:normal;font-feature-settings:normal;font-variation-settings:normal;text-indent:0;text-align:start;text-decoration:none;text-decoration-line:none;text-decoration-style:solid;text-decoration-color:#000000;letter-spacing:normal;word-spacing:normal;text-transform:none;writing-mode:lr-tb;direction:ltr;text-orientation:mixed;dominant-baseline:auto;baseline-shift:baseline;text-anchor:start;white-space:normal;shape-padding:0;shape-margin:0;inline-size:0;clip-rule:nonzero;display:inline;overflow:visible;visibility:visible;opacity:1;isolation:auto;mix-blend-mode:normal;color-interpolation:sRGB;color-interpolation-filters:linearRGB;solid-color:#000000;solid-opacity:1;vector-effect:none;fill:#333333;fill-opacity:1;fill-rule:nonzero;stroke:none;stroke-linecap:butt;stroke-linejoin:miter;stroke-miterlimit:4;stroke-dasharray:none;stroke-dashoffset:0;stroke-opacity:1;color-rendering:auto;image-rendering:auto;shape-rendering:auto;text-rendering:auto;enable-background:accumulate;stop-color:#000000;stop-opacity:1"
       d="m 837.53125,5177.0566 v 1 H 896 v 21.4746 h 1 v -22.4746 z"
       id="path15517" />
    <path
       style="color:#000000;font-style:normal;font-variant:normal;font-weight:normal;font-stretch:normal;font-size:medium;line-height:normal;font-family:sans-serif;font-variant-ligatures:normal;font-variant-position:normal;font-variant-caps:normal;font-variant-numeric:normal;font-variant-alternates:normal;font-variant-east-asian:normal;font-feature-settings:normal;font-variation-settings:normal;text-indent:0;text-align:start;text-decoration:none;text-decoration-line:none;text-decoration-style:solid;text-decoration-color:#000000;letter-spacing:normal;word-spacing:normal;text-transform:none;writing-mode:lr-tb;direction:ltr;text-orientation:mixed;dominant-baseline:auto;baseline-shift:baseline;text-anchor:start;white-space:normal;shape-padding:0;shape-margin:0;inline-size:0;clip-rule:nonzero;display:inline;overflow:visible;visibility:visible;opacity:1;isolation:auto;mix-blend-mode:normal;color-interpolation:sRGB;color-interpolation-filters:linearRGB;solid-color:#000000;solid-opacity:1;vector-effect:none;fill:#333333;fill-opacity:1;fill-rule:nonzero;stroke:none;stroke-linecap:butt;stroke-linejoin:miter;stroke-miterlimit:4;stroke-dasharray:none;stroke-dashoffset:0;stroke-opacity:1;color-rendering:auto;image-rendering:auto;shape-rendering:auto;text-rendering:auto;enable-background:accumulate;stop-color:#000000;stop-opacity:1"
       d="m 896,5232.5 v 24.5312 h -68.44141 v 1 H 897 V 5232.5 Z"
       id="path15523" />
  </g>
</svg>
