<?xml version="1.0" encoding="UTF-8" standalone="no"?>
<svg
   xmlns:dc="http://purl.org/dc/elements/1.1/"
   xmlns:cc="http://creativecommons.org/ns#"
   xmlns:rdf="http://www.w3.org/1999/02/22-rdf-syntax-ns#"
   xmlns:svg="http://www.w3.org/2000/svg"
   xmlns="http://www.w3.org/2000/svg"
   xmlns:sodipodi="http://sodipodi.sourceforge.net/DTD/sodipodi-0.dtd"
   xmlns:inkscape="http://www.inkscape.org/namespaces/inkscape"
   viewBox="0 0 512 512"
   width="512"
   height="512"
   version="1.1"
   id="svg125"
   sodipodi:docname="panther.svg"
   inkscape:version="1.0.2 (e86c870879, 2021-01-15, custom)">
  <sodipodi:namedview
     pagecolor="#ffffff"
     bordercolor="#666666"
     borderopacity="1"
     objecttolerance="10"
     gridtolerance="10"
     guidetolerance="10"
     inkscape:pageopacity="0"
     inkscape:pageshadow="2"
     inkscape:window-width="1366"
     inkscape:window-height="715"
     id="namedview1969"
     showgrid="false"
     inkscape:zoom="0.37841261"
     inkscape:cx="787.32317"
     inkscape:cy="2022.7451"
     inkscape:window-x="-8"
     inkscape:window-y="-8"
     inkscape:window-maximized="1"
     inkscape:current-layer="svg125" />
  <metadata
     id="metadata131">
    <rdf:RDF>
      <cc:Work
         rdf:about="">
        <dc:format>image/svg+xml</dc:format>
        <dc:type
           rdf:resource="http://purl.org/dc/dcmitype/StillImage" />
        <dc:title></dc:title>
      </cc:Work>
    </rdf:RDF>
  </metadata>
  <defs
     id="defs129" />
  <style
     id="style2">
		tspan { white-space:pre }
		.shp0 { fill: #e7d5b8 } 
		.shp1 { fill: #15120f } 
	</style>
  <g
     id="g3168"
     transform="matrix(1.6709966,0,0,1.6709966,-1428.7446,-3414.354)">
    <path
       id="Path 51"
       class="shp1"
       d="m 932.38,2126.9 c -1.16,0.43 -3.5,2.31 -5.19,4.19 -1.7,1.87 -3.79,5.1 -4.64,7.16 -0.85,2.06 -1.55,6.22 -1.55,9.25 0,3.47 0.94,7.99 2.56,12.25 1.4,3.71 3.32,7.58 4.25,8.6 0.93,1.02 3.04,2.54 4.69,3.38 1.86,0.94 4.78,1.38 7.67,1.15 3.52,-0.29 5.42,-1.12 7.76,-3.38 1.7,-1.65 3.99,-5.14 5.08,-7.75 1.1,-2.61 2.25,-8.24 2.58,-12.5 0.54,-7.16 0.37,-8.17 -2.25,-13.25 -1.7,-3.28 -4.25,-6.42 -6.34,-7.78 -2.42,-1.57 -4.89,-2.25 -8,-2.18 -2.48,0.05 -5.45,0.43 -6.62,0.86 z m 40.12,12.91 c -1.66,1 -4.09,4.01 -5.45,6.75 -1.99,4.03 -2.44,6.42 -2.41,12.94 0.03,6.15 0.48,8.68 1.95,10.92 1.05,1.61 4.27,4.64 7.16,6.75 3.63,2.65 6.41,3.88 9,4 2.14,0.09 5.19,-0.66 7.12,-1.75 1.85,-1.06 4.77,-3.88 6.5,-6.28 2.53,-3.53 3.2,-5.54 3.47,-10.5 0.23,-4.02 -0.21,-7.52 -1.26,-10.14 -0.88,-2.2 -2.99,-5.57 -4.69,-7.5 -1.7,-1.93 -4.29,-4.28 -5.74,-5.24 -1.63,-1.07 -4.58,-1.75 -7.65,-1.75 -3.05,0 -6.17,0.7 -8,1.8 z m -73.5,24.9 c -0.83,0.3 -2.56,1.5 -3.85,2.67 -1.29,1.16 -3.31,3.92 -4.5,6.12 -1.76,3.27 -2.14,5.64 -2.11,13 0.03,7.28 0.46,9.81 2.25,13.25 1.32,2.54 3.51,4.89 5.46,5.86 1.79,0.88 4.83,1.61 6.75,1.63 1.92,0.02 5.08,-0.47 7,-1.08 1.92,-0.61 4.93,-2.59 6.69,-4.39 1.75,-1.8 3.66,-4.51 4.25,-6.02 0.58,-1.51 1.06,-4.78 1.06,-7.25 0,-2.47 -0.7,-6.19 -1.56,-8.25 -0.85,-2.06 -2.54,-4.82 -3.75,-6.13 -1.2,-1.31 -4.33,-4.13 -6.94,-6.25 -2.61,-2.13 -5.76,-3.83 -7,-3.79 -1.24,0.04 -2.92,0.32 -3.75,0.63 z m 101.19,11.9 c -3.81,3.85 -5.1,6.01 -6.02,10.14 -0.64,2.89 -1.16,6.71 -1.15,8.5 0.01,1.79 0.57,5.02 1.25,7.18 0.67,2.16 2.81,5.71 4.73,7.89 3.19,3.63 4.02,4.02 9.5,4.46 5.69,0.46 6.2,0.31 9.91,-2.9 2.15,-1.86 4.51,-4.84 5.25,-6.63 0.74,-1.79 1.33,-6.74 1.32,-11 -0.01,-6.15 -0.47,-8.56 -2.25,-11.7 -1.22,-2.17 -4.03,-5.22 -6.23,-6.77 -2.2,-1.55 -5.68,-3.1 -7.73,-3.44 -3.48,-0.57 -4.08,-0.28 -8.58,4.27 z m -60.98,19.03 c -1.26,0.27 -3.46,1.69 -4.9,3.17 -1.44,1.48 -4.36,5.39 -6.49,8.69 -2.13,3.3 -3.86,6.34 -3.85,6.75 0.02,0.41 -0.86,2.66 -1.94,5 -1.49,3.2 -3.03,4.73 -6.25,6.21 -2.35,1.08 -6.18,3.78 -8.5,6 -3.95,3.77 -4.23,4.4 -4.27,9.54 -0.03,3.03 0.65,7.53 1.52,10 0.86,2.47 2.78,5.75 4.27,7.29 1.48,1.53 4.28,3.21 6.2,3.74 1.92,0.53 5.08,0.97 7,0.98 2.24,0.01 5.48,-1.2 9,-3.35 l 5.5,-3.37 c 7.75,5.29 11.58,7.24 13.5,7.76 1.92,0.52 4.63,0.94 6,0.94 1.38,0 4.08,-0.43 6,-0.95 1.92,-0.53 4.53,-1.99 5.79,-3.25 l 2.29,-2.29 c 4.98,4.84 8.22,6.75 10.42,7.37 2.2,0.61 5.01,1.12 6.25,1.12 1.24,0.01 3.83,-0.67 5.75,-1.49 3.01,-1.29 4.15,-2.87 8.1,-11.25 2.53,-5.36 4.83,-11.78 5.13,-14.25 0.39,-3.35 0,-5.53 -1.52,-8.5 -1.13,-2.2 -4.6,-6.47 -7.72,-9.5 -3.12,-3.03 -7.74,-8.2 -10.27,-11.5 -2.53,-3.3 -6.43,-7.68 -8.66,-9.74 -2.23,-2.05 -5.41,-3.98 -7.06,-4.29 -1.65,-0.3 -5.7,-0.43 -9,-0.29 -3.3,0.15 -9.15,-0.02 -13,-0.37 -3.85,-0.35 -8.03,-0.43 -9.29,-0.17 z"
       style="fill:#333333;fill-opacity:1"
       sodipodi:nodetypes="ccsscscccccccccccccscccccscsccccsccssccscccscccscccssccscccssccscccsscccsscscccccccsscccsc" />
    <g
       aria-label="inches"
       id="text2538-7-9-6-4-9-4-4"
       style="font-style:normal;font-weight:normal;font-size:16.366px;line-height:1.25;font-family:sans-serif;fill:#333333;fill-opacity:1;stroke:none;stroke-width:0.409151">
      <path
         d="m 1079.6735,2189.9242 h -1.6941 v -1.5583 h 1.6941 z m -0.096,10.4205 h -1.5023 v -8.9262 h 1.5023 z"
         style="white-space:pre;fill:#333333;fill-opacity:1;stroke-width:0.409151"
         id="path3301" />
      <path
         d="m 1090.0142,2200.3447 h -1.5024 v -5.0824 q 0,-0.6153 -0.072,-1.1507 -0.072,-0.5434 -0.2637,-0.8471 -0.1998,-0.3356 -0.5754,-0.4954 -0.3756,-0.1679 -0.9749,-0.1679 -0.6153,0 -1.2866,0.3037 -0.6713,0.3037 -1.2866,0.7752 v 6.6646 h -1.5023 v -8.9262 h 1.5023 v 0.991 q 0.7032,-0.5834 1.4544,-0.911 0.7512,-0.3277 1.5423,-0.3277 1.4464,0 2.2056,0.8711 0.7592,0.871 0.7592,2.5092 z"
         style="white-space:pre;fill:#333333;fill-opacity:1;stroke-width:0.409151"
         id="path3303" />
      <path
         d="m 1099.5077,2199.7853 q -0.7512,0.3596 -1.4304,0.5594 -0.6713,0.1998 -1.4304,0.1998 -0.967,0 -1.7741,-0.2797 -0.8071,-0.2877 -1.3825,-0.863 -0.5833,-0.5754 -0.903,-1.4544 -0.3196,-0.8791 -0.3196,-2.0538 0,-2.1896 1.1987,-3.4362 1.2066,-1.2466 3.1805,-1.2466 0.7671,0 1.5023,0.2157 0.7432,0.2158 1.3585,0.5275 v 1.6701 h -0.08 q -0.6872,-0.5354 -1.4224,-0.8231 -0.7272,-0.2877 -1.4225,-0.2877 -1.2786,0 -2.0217,0.8631 -0.7352,0.8551 -0.7352,2.5172 0,1.6142 0.7192,2.4853 0.7272,0.863 2.0377,0.863 0.4555,0 0.927,-0.1198 0.4715,-0.1199 0.8471,-0.3117 0.3276,-0.1678 0.6153,-0.3516 0.2877,-0.1918 0.4555,-0.3276 h 0.08 z"
         style="white-space:pre;fill:#333333;fill-opacity:1;stroke-width:0.409151"
         id="path3305" />
      <path
         d="m 1108.8974,2200.3447 h -1.5024 v -5.0824 q 0,-0.6153 -0.072,-1.1507 -0.072,-0.5434 -0.2637,-0.8471 -0.1998,-0.3356 -0.5754,-0.4954 -0.3755,-0.1679 -0.9749,-0.1679 -0.6153,0 -1.2866,0.3037 -0.6712,0.3037 -1.2866,0.7752 v 6.6646 h -1.5023 v -12.4343 h 1.5023 v 4.4991 q 0.7033,-0.5834 1.4544,-0.911 0.7512,-0.3277 1.5423,-0.3277 1.4465,0 2.2056,0.8711 0.7592,0.871 0.7592,2.5092 z"
         style="white-space:pre;fill:#333333;fill-opacity:1;stroke-width:0.409151"
         id="path3307" />
      <path
         d="m 1119.262,2196.0375 h -6.5768 q 0,0.8231 0.2477,1.4384 0.2478,0.6073 0.6793,0.9989 0.4155,0.3836 0.9829,0.5754 0.5754,0.1917 1.2626,0.1917 0.911,0 1.83,-0.3596 0.927,-0.3676 1.3186,-0.7192 h 0.08 v 1.6382 q -0.7592,0.3197 -1.5503,0.5354 -0.7911,0.2158 -1.6622,0.2158 -2.2215,0 -3.4682,-1.1987 -1.2466,-1.2067 -1.2466,-3.4202 0,-2.1896 1.1907,-3.4762 1.1987,-1.2866 3.1485,-1.2866 1.806,0 2.781,1.0549 0.9829,1.0548 0.9829,2.9967 z m -1.4624,-1.1508 q -0.01,-1.1827 -0.5993,-1.83 -0.5834,-0.6472 -1.7821,-0.6472 -1.2067,0 -1.9259,0.7112 -0.7112,0.7112 -0.8071,1.766 z"
         style="white-space:pre;fill:#333333;fill-opacity:1;stroke-width:0.409151"
         id="path3309" />
      <path
         d="m 1127.9165,2197.7716 q 0,1.2226 -1.0149,2.0058 -1.0069,0.7831 -2.757,0.7831 -0.9909,0 -1.822,-0.2318 -0.8231,-0.2397 -1.3825,-0.5194 v -1.6861 h 0.08 q 0.7112,0.5354 1.5822,0.855 0.8711,0.3117 1.6702,0.3117 0.9909,0 1.5503,-0.3197 0.5594,-0.3196 0.5594,-1.0069 0,-0.5274 -0.3037,-0.7991 -0.3037,-0.2717 -1.1667,-0.4635 -0.3197,-0.072 -0.8391,-0.1678 -0.5114,-0.096 -0.935,-0.2078 -1.1747,-0.3116 -1.6701,-0.911 -0.4875,-0.6073 -0.4875,-1.4863 0,-0.5514 0.2238,-1.0389 0.2317,-0.4874 0.6952,-0.871 0.4475,-0.3756 1.1347,-0.5914 0.6953,-0.2237 1.5503,-0.2237 0.7992,0 1.6143,0.1998 0.8231,0.1918 1.3665,0.4714 v 1.6063 h -0.08 q -0.5753,-0.4236 -1.3984,-0.7112 -0.8231,-0.2957 -1.6142,-0.2957 -0.8231,0 -1.3905,0.3196 -0.5674,0.3117 -0.5674,0.935 0,0.5514 0.3436,0.8311 0.3357,0.2797 1.0868,0.4555 0.4156,0.096 0.927,0.1918 0.5194,0.096 0.8631,0.1758 1.0468,0.2397 1.6142,0.8231 0.5674,0.5913 0.5674,1.5663 z"
         style="white-space:pre;fill:#333333;fill-opacity:1;stroke-width:0.409151"
         id="path3311" />
    </g>
    <text
       xml:space="preserve"
       style="font-style:normal;font-weight:normal;font-size:19.0998px;line-height:1.25;font-family:sans-serif;fill:#333333;fill-opacity:1;stroke:none;stroke-width:0.477494"
       x="1041.3143"
       y="2200.5654"
       id="text3525-37"><tspan
         id="tspan3523-48"
         x="1041.3143"
         y="2200.5654"
         style="fill:#333333;fill-opacity:1;stroke-width:0.477494">3</tspan></text>
    <text
       xml:space="preserve"
       style="font-style:normal;font-weight:normal;font-size:10.2548px;line-height:1.25;font-family:sans-serif;fill:#333333;fill-opacity:1;stroke:none;stroke-width:0.25637"
       x="1055.79"
       y="2192.8313"
       id="text3525-80"><tspan
         id="tspan3523-81"
         x="1055.79"
         y="2192.8313"
         style="fill:#333333;fill-opacity:1;stroke-width:0.25637">1</tspan></text>
    <path
       style="fill:none;stroke:#333333;stroke-width:1px;stroke-linecap:butt;stroke-linejoin:miter;stroke-opacity:1"
       d="m 1066.5822,2187.3906 -6.0546,13.2141"
       id="path3747" />
    <text
       xml:space="preserve"
       style="font-style:normal;font-weight:normal;font-size:8.91708px;line-height:1.25;font-family:sans-serif;fill:#333333;fill-opacity:1;stroke:none;stroke-width:0.222927"
       x="1065.4938"
       y="2200.8699"
       id="text3751"><tspan
         id="tspan3749"
         x="1065.4938"
         y="2200.8699"
         style="fill:#333333;fill-opacity:1;stroke-width:0.222927">2</tspan></text>
    <path
       style="fill:none;stroke:#333333;stroke-width:1px;stroke-linecap:butt;stroke-linejoin:miter;stroke-opacity:1"
       d="m 1007.5183,2126.4818 h 81.9836 v 52.3155"
       id="path3146" />
    <path
       style="fill:none;stroke:#333333;stroke-width:1px;stroke-linecap:butt;stroke-linejoin:miter;stroke-opacity:1"
       d="m 1089.4812,2213.5229 v 53.0072 h -73.0229"
       id="path3148" />
  </g>
</svg>
