<?xml version="1.0" encoding="UTF-8" standalone="no"?>
<svg
   xmlns:dc="http://purl.org/dc/elements/1.1/"
   xmlns:cc="http://creativecommons.org/ns#"
   xmlns:rdf="http://www.w3.org/1999/02/22-rdf-syntax-ns#"
   xmlns:svg="http://www.w3.org/2000/svg"
   xmlns="http://www.w3.org/2000/svg"
   xmlns:sodipodi="http://sodipodi.sourceforge.net/DTD/sodipodi-0.dtd"
   xmlns:inkscape="http://www.inkscape.org/namespaces/inkscape"
   version="1.1"
   id="svg10"
   width="512"
   height="512"
   viewBox="0 0 512 512"
   sodipodi:docname="pheasant.svg"
   inkscape:version="1.0.2 (e86c870879, 2021-01-15, custom)">
  <metadata
     id="metadata16">
    <rdf:RDF>
      <cc:Work
         rdf:about="">
        <dc:format>image/svg+xml</dc:format>
        <dc:type
           rdf:resource="http://purl.org/dc/dcmitype/StillImage" />
        <dc:title></dc:title>
      </cc:Work>
    </rdf:RDF>
  </metadata>
  <defs
     id="defs14" />
  <sodipodi:namedview
     pagecolor="#ffffff"
     bordercolor="#666666"
     borderopacity="1"
     objecttolerance="10"
     gridtolerance="10"
     guidetolerance="10"
     inkscape:pageopacity="0"
     inkscape:pageshadow="2"
     inkscape:window-width="1366"
     inkscape:window-height="715"
     id="namedview12"
     showgrid="false"
     inkscape:zoom="1.110763"
     inkscape:cx="671.32564"
     inkscape:cy="366.49467"
     inkscape:window-x="-8"
     inkscape:window-y="-8"
     inkscape:window-maximized="1"
     inkscape:current-layer="g18" />
  <g
     inkscape:groupmode="layer"
     inkscape:label="Image"
     id="g18">
    <path
       id="path992"
       style="color:#000000;font-style:normal;font-variant:normal;font-weight:normal;font-stretch:normal;font-size:medium;line-height:normal;font-family:sans-serif;font-variant-ligatures:normal;font-variant-position:normal;font-variant-caps:normal;font-variant-numeric:normal;font-variant-alternates:normal;font-variant-east-asian:normal;font-feature-settings:normal;font-variation-settings:normal;text-indent:0;text-align:start;text-decoration:none;text-decoration-line:none;text-decoration-style:solid;text-decoration-color:#000000;letter-spacing:normal;word-spacing:normal;text-transform:none;writing-mode:lr-tb;direction:ltr;text-orientation:mixed;dominant-baseline:auto;baseline-shift:baseline;text-anchor:start;white-space:normal;shape-padding:0;shape-margin:0;inline-size:0;clip-rule:nonzero;display:inline;overflow:visible;visibility:visible;opacity:1;isolation:auto;mix-blend-mode:normal;color-interpolation:sRGB;color-interpolation-filters:linearRGB;solid-color:#000000;solid-opacity:1;vector-effect:none;fill:#333333;fill-opacity:1;fill-rule:nonzero;stroke:none;stroke-width:2.10461;stroke-linecap:butt;stroke-linejoin:miter;stroke-miterlimit:4;stroke-dasharray:none;stroke-dashoffset:0;stroke-opacity:1;color-rendering:auto;image-rendering:auto;shape-rendering:auto;text-rendering:auto;enable-background:accumulate;stop-color:#000000;stop-opacity:1"
       d="m 229.22395,155.00103 v 2.10461 h 152.89663 v 61.47352 h 2.10461 v -63.57813 z m -64.89764,4.43119 c 0,0 -7.87162,8.37635 -7.20172,19.26211 0.6699,10.88576 3.68134,12.89181 5.35606,13.05928 1.67473,0.16753 7.37109,-5.69377 6.19875,-14.23489 -1.17231,-8.54114 -4.35309,-18.0865 -4.35309,-18.0865 z m -2.16627,38.40091 c -10.3691,-0.0911 -13.70051,25.71981 -13.70051,25.71981 0,0 -2.83956,59.91992 -0.23431,69.86732 0,0 -8.76473,11.37071 -21.31741,5.92332 -12.55267,-5.44738 -24.39622,-18.00016 -24.39622,-18.00016 0,0 -13.023406,-8.05214 -22.497116,-4.26266 -9.47372,3.7895 14.92135,29.60429 14.92135,29.60429 0,0 54.708036,41.44527 71.523866,41.20844 16.81584,-0.23685 31.9761,-12.54956 31.9761,-12.54956 0,0 55.89265,-33.87027 49.26104,-44.29136 -6.63159,-10.42108 -36.71148,3.31723 -36.71148,3.31723 0,0 -21.31458,18.23558 -27.70934,14.68294 -6.39475,-3.55265 -5.4465,-20.84057 -5.4465,-20.84057 l -0.23841,-47.6086 c 0,0 -1.18169,-38.36593 -13.26068,-42.39226 -0.75495,-0.25165 -1.4791,-0.37212 -2.17038,-0.37818 z m 153.92019,32.679 c -0.9717,0 -1.97956,0.13196 -3.02128,0.39462 -1.03296,0.25388 -1.85712,0.53217 -2.47868,0.83856 v 2.74586 h 0.12754 c 0.83162,-0.54273 1.71875,-0.96431 2.65543,-1.26194 0.93668,-0.29764 1.81971,-0.44395 2.65132,-0.44395 0.54274,0 1.03029,0.044 1.45926,0.13154 0.42892,0.0876 0.82795,0.2451 1.20438,0.47271 0.3589,0.22762 0.64134,0.52077 0.84267,0.87967 0.20141,0.35014 0.30007,0.76044 0.30007,1.23317 0,1.06797 -0.39546,1.88142 -1.19207,2.44167 -0.78784,0.55151 -1.84686,0.82623 -3.17746,0.82623 h -0.92076 v 2.18271 h 1.18384 c 0.6478,0 1.24839,0.0511 1.80864,0.15616 0.56027,0.0964 1.04066,0.27945 1.43458,0.55082 0.39394,0.26261 0.69783,0.62534 0.91667,1.0893 0.22761,0.45521 0.34118,1.03433 0.34118,1.73467 0,0.70906 -0.0987,1.29536 -0.30008,1.7593 -0.19257,0.46398 -0.4893,0.88912 -0.892,1.27428 -0.38516,0.35892 -0.89115,0.63006 -1.51269,0.8139 -0.62151,0.18394 -1.20781,0.2754 -1.7593,0.2754 -0.93668,0 -1.90768,-0.16121 -2.9144,-0.48504 -1.0067,-0.3239 -1.88256,-0.73062 -2.62666,-1.22085 h -0.1972 v 2.74176 c 0.67406,0.30637 1.53508,0.58879 2.58555,0.84267 1.05048,0.26261 2.12075,0.39461 3.20625,0.39461 1.05921,0 2.03023,-0.1469 2.91438,-0.43572 0.8929,-0.29763 1.66592,-0.75193 2.32248,-1.36471 0.58651,-0.55149 1.04492,-1.20022 1.36882,-1.9443 0.32387,-0.74409 0.48505,-1.5611 0.48505,-2.45402 0,-0.90166 -0.13554,-1.63835 -0.40695,-2.20736 -0.27137,-0.569 -0.61979,-1.04174 -1.03997,-1.41815 -0.37643,-0.33265 -0.83429,-0.60737 -1.37705,-0.82622 -0.54274,-0.22762 -1.02261,-0.37803 -1.44282,-0.44805 v -0.18079 c 1.04172,-0.21004 1.94317,-0.71963 2.70476,-1.52502 0.77036,-0.81411 1.15508,-1.76314 1.15508,-2.84861 0,-0.79662 -0.16121,-1.49289 -0.48505,-2.08818 -0.3239,-0.59524 -0.8043,-1.10483 -1.43459,-1.52502 -0.58651,-0.38518 -1.24237,-0.66348 -1.96897,-0.83856 -0.72657,-0.1751 -1.56559,-0.26308 -2.51976,-0.26308 z m -19.18813,2.26082 c -1.40729,0 -2.86493,0.1831 -4.37366,0.55082 -1.49604,0.36767 -2.69247,0.773 -3.59263,1.21673 v 3.99546 h 0.1892 c 1.28049,-0.83677 2.594,-1.45637 3.93792,-1.86208 1.3439,-0.4057 2.59098,-0.61248 3.74473,-0.61248 1.73694,0 3.08944,0.42107 4.05302,1.25784 0.97622,0.82408 1.46335,1.96983 1.46335,3.44054 0,1.61015 -0.45219,3.11467 -1.35238,4.50929 -0.90014,1.38195 -2.56417,3.25276 -4.99845,5.61093 -1.15372,1.12837 -2.40491,2.2625 -3.74883,3.40354 -1.33123,1.14108 -2.66015,2.27893 -3.99135,3.41999 v 3.97493 h 19.16746 v -3.25145 h -15.23376 c 1.25517,-1.065 2.60768,-2.21864 4.05302,-3.46112 1.44534,-1.25514 2.84442,-2.54912 4.20099,-3.88037 0.95088,-0.92552 1.75773,-1.76728 2.41702,-2.528 0.67194,-0.76069 1.25254,-1.5323 1.74699,-2.31835 0.53249,-0.83677 0.93405,-1.71757 1.20028,-2.6431 0.27895,-0.93819 0.41928,-1.94771 0.41928,-3.02537 0,-2.39621 -0.82637,-4.29029 -2.47455,-5.68491 -1.64819,-1.40731 -3.92428,-2.11284 -6.82765,-2.11284 z m 34.76717,0.73989 -13.02638,26.76391 1.89497,0.92077 13.02638,-26.76391 z m 70.44273,0.929 v 25.30466 h 3.0542 v -13.56487 c 0.8349,-0.6397 1.7077,-1.16233 2.6184,-1.57435 0.9108,-0.41202 1.7836,-0.6207 2.6185,-0.6207 0.8132,0 1.4758,0.11365 1.9854,0.34118 0.5096,0.21684 0.9004,0.55583 1.1715,1.01118 0.2602,0.41202 0.4409,0.98505 0.5385,1.72233 0.098,0.72643 0.1439,1.50817 0.1439,2.34304 v 10.34219 h 3.0583 v -11.78911 c 0,-2.22267 -0.5155,-3.92764 -1.5456,-5.10944 -1.03,-1.18182 -2.5262,-1.77166 -4.4887,-1.77166 -1.0734,0 -2.1172,0.22138 -3.1364,0.66592 -1.0191,0.44453 -2.0054,1.06236 -2.9596,1.85386 v -9.15423 z m -47.73596,0.92487 v 3.16925 h 3.44876 v -3.16925 z m 18.46056,5.70958 c -1.07339,0 -2.12127,0.22138 -3.14047,0.66592 -1.01918,0.44453 -2.00549,1.06236 -2.95961,1.85386 v -2.01417 h -3.05828 v 18.1646 h 3.05828 v -13.56487 c 0.83485,-0.6397 1.70766,-1.16233 2.61843,-1.57435 0.91075,-0.41202 1.78355,-0.6207 2.61843,-0.6207 0.81318,0 1.47581,0.11365 1.9854,0.34118 0.50959,0.21684 0.90044,0.55583 1.17151,1.01118 0.26022,0.41202 0.43679,0.98505 0.53438,1.72233 0.0977,0.72643 0.14796,1.50817 0.14796,2.34304 v 10.34219 h 3.05825 v -11.78911 c 0,-2.22267 -0.51552,-3.92764 -1.54556,-5.10944 -1.03002,-1.18182 -2.52625,-1.77166 -4.48874,-1.77166 z m 57.8973,0 c -2.6455,0 -4.782,0.8728 -6.4083,2.61845 -1.6156,1.74563 -2.4211,4.10344 -2.4212,7.07427 10e-5,3.00334 0.8448,5.32611 2.5363,6.96331 1.6914,1.62636 4.0436,2.43756 7.0578,2.43756 1.1818,0 2.3096,-0.14711 3.383,-0.43982 1.0734,-0.29273 2.1269,-0.65561 3.1569,-1.08931 v -3.33368 h -0.1643 c -0.5313,0.47708 -1.4265,0.96463 -2.6842,1.46338 -1.2469,0.48791 -2.4882,0.73167 -3.7242,0.73167 -0.9325,0 -1.7885,-0.13028 -2.5691,-0.39049 -0.7698,-0.26024 -1.4381,-0.6511 -2.0019,-1.17153 -0.5855,-0.53129 -1.045,-1.2107 -1.3811,-2.03472 -0.3361,-0.83486 -0.5056,-1.80584 -0.5056,-2.92261 h 13.3881 v -1.66068 c 0,-2.6347 -0.6682,-4.66887 -2.0018,-6.10007 -1.3228,-1.4312 -3.2099,-2.14573 -5.6603,-2.14573 z m 18.4935,0.0617 c -1.1602,0 -2.2137,0.1568 -3.1569,0.46039 -0.9325,0.29273 -1.703,0.69069 -2.3102,1.20028 -0.6288,0.52045 -1.0996,1.11439 -1.414,1.77576 -0.3036,0.6614 -0.4563,1.36471 -0.4563,2.11284 0,1.19266 0.3334,2.20136 0.9948,3.02538 0.6722,0.81318 1.8056,1.43101 3.3994,1.85386 0.5746,0.15175 1.2093,0.29328 1.9032,0.42339 0.7047,0.13006 1.2722,0.24361 1.7059,0.34118 1.171,0.26021 1.9639,0.5727 2.3759,0.94133 0.412,0.36864 0.6166,0.91218 0.6166,1.62777 0,0.93246 -0.3797,1.61747 -1.1386,2.05117 -0.759,0.4337 -1.8125,0.64948 -3.157,0.64948 -1.0842,0 -2.2135,-0.21025 -3.3953,-0.63302 -1.1818,-0.4337 -2.2577,-1.01644 -3.2227,-1.74289 h -0.1603 v 3.43232 c 0.7589,0.37946 1.6948,0.73114 2.8116,1.05641 1.1276,0.31445 2.3633,0.47272 3.7077,0.47272 2.3745,0 4.2448,-0.53234 5.611,-1.5949 1.3769,-1.06255 2.0676,-2.42289 2.0676,-4.08178 0,-1.32277 -0.3853,-2.38337 -1.1551,-3.18569 -0.7698,-0.79152 -1.8681,-1.35185 -3.2885,-1.67712 -0.4662,-0.10839 -1.0504,-0.22751 -1.7552,-0.35762 -0.6939,-0.13006 -1.3229,-0.2604 -1.8867,-0.39051 -1.0192,-0.23853 -1.7561,-0.54539 -2.2115,-0.92487 -0.4662,-0.37948 -0.6988,-0.94545 -0.6988,-1.69356 0,-0.84571 0.3853,-1.48034 1.1551,-1.9032 0.7698,-0.43369 1.7113,-0.64946 2.828,-0.64946 1.0734,0 2.1717,0.1991 3.2885,0.60015 1.1168,0.39032 2.0638,0.87228 2.8445,1.44692 h 0.1644 v -3.26791 c -0.7373,-0.37948 -1.6661,-0.70166 -2.7829,-0.96187 -1.1059,-0.27105 -2.2001,-0.40695 -3.2843,-0.40695 z m -56.8574,0.0211 c -2.67806,0 -4.83692,0.84481 -6.47412,2.53622 -1.62636,1.69141 -2.43758,4.02536 -2.43758,6.99617 0,1.59384 0.21578,2.98368 0.64948,4.17635 0.43368,1.19266 1.04593,2.17896 1.83741,2.9596 0.78066,0.78067 1.71654,1.36489 2.81163,1.75521 1.0951,0.37948 2.30128,0.57138 3.61318,0.57138 1.0301,0 1.9995,-0.13596 2.9103,-0.40695 0.9216,-0.27105 1.8911,-0.65072 2.9103,-1.13864 v -3.36655 h -0.1604 c -0.2277,0.18436 -0.5387,0.40981 -0.929,0.67002 -0.3903,0.24938 -0.8092,0.48343 -1.2537,0.71113 -0.5096,0.26021 -1.0826,0.4745 -1.7223,0.63715 -0.6397,0.16268 -1.2688,0.24251 -1.8868,0.24251 -1.7781,0 -3.1609,-0.58422 -4.14756,-1.7552 -0.97582,-1.18182 -1.46336,-2.86585 -1.46336,-5.05601 0,-2.25522 0.49875,-3.96574 1.49626,-5.12586 1.00834,-1.17099 2.37986,-1.75523 4.11466,-1.75523 0.9433,2e-5 1.9072,0.19342 2.8939,0.58372 0.9975,0.39032 1.9655,0.94654 2.8979,1.67299 h 0.1604 v -3.39532 c -0.8349,-0.42286 -1.754,-0.78012 -2.7623,-1.07287 -0.9975,-0.29275 -2.0174,-0.43982 -3.0583,-0.43982 z m -37.79666,0.42338 v 18.1646 h 3.05828 v -18.1646 z m 76.00026,2.01418 c 1.6264,0 2.834,0.44125 3.6255,1.31948 0.8024,0.87824 1.2101,2.11949 1.2209,3.72417 h -10.4121 c 0.1301,-1.43121 0.6793,-2.63175 1.6442,-3.59673 0.9758,-0.96497 2.2843,-1.44692 3.9215,-1.44692 z m -97.963,8.90349 c -1.63463,0 -2.97754,0.43119 -4.03658,1.29071 -1.05906,0.85953 -1.59079,1.93343 -1.59079,3.22269 0,0.87486 0.22025,1.60359 0.65769,2.18682 0.4451,0.58325 1.12615,1.12017 2.04705,1.61135 v 0.0699 c -1.00533,0.45277 -1.78223,1.06643 -2.33479,1.84154 -0.55255,0.76742 -0.83034,1.6257 -0.83034,2.57732 0,1.49649 0.55091,2.72789 1.64833,3.68717 1.10511,0.95929 2.58224,1.43872 4.43943,1.43872 1.74973,0 3.20195,-0.49341 4.35309,-1.47569 1.15882,-0.98231 1.73877,-2.21426 1.73877,-3.69541 0,-1.04371 -0.28299,-1.90199 -0.8509,-2.57732 -0.56789,-0.67533 -1.39195,-1.24545 -2.46633,-1.70589 v -0.0657 c 0.93626,-0.42208 1.64579,-1.0067 2.12926,-1.7511 0.48349,-0.75208 0.72758,-1.5145 0.72758,-2.28958 0,-1.26626 -0.51258,-2.31112 -1.53325,-3.13225 -1.02067,-0.82116 -2.38688,-1.23318 -4.09822,-1.23318 z m -0.008,1.69356 c 0.98228,0 1.7877,0.24462 2.41702,0.73579 0.63694,0.48347 0.95364,1.13548 0.95364,1.95661 0,0.71372 -0.14417,1.34601 -0.43572,1.89087 -0.29163,0.54488 -0.81871,1.06786 -1.57846,1.57435 -0.50649,-0.14584 -1.02892,-0.32825 -1.56612,-0.55081 -0.52952,-0.22248 -0.93689,-0.4044 -1.22084,-0.54259 -0.62928,-0.31464 -1.09939,-0.66969 -1.41403,-1.06877 -0.30698,-0.40673 -0.46038,-0.88614 -0.46038,-1.43869 0,-0.78277 0.30681,-1.40573 0.92077,-1.8662 0.62161,-0.46047 1.41716,-0.69056 2.38412,-0.69056 z m -276.456176,2.70886 c 0,0 -2.17815,16.07624 10.88477,20.59806 13.0629,4.52175 8.54177,-10.38331 8.54177,-10.38331 0,0 -5.86121,-10.5497 -19.42654,-10.21475 z m 274.992816,4.50928 c 0.71372,0.26093 1.28436,0.46257 1.7141,0.60838 0.42979,0.14585 0.82726,0.30388 1.18795,0.47271 0.90557,0.42977 1.50989,0.86096 1.81687,1.29072 0.31464,0.42208 0.47271,0.9834 0.47271,1.68943 0,1.00531 -0.33587,1.79622 -1.0112,2.37179 -0.66766,0.57559 -1.56374,0.86323 -2.6842,0.86323 -1.09742,0 -2.00338,-0.33585 -2.71707,-1.0112 -0.71372,-0.67533 -1.06874,-1.53306 -1.06874,-2.5691 0,-0.81347 0.20625,-1.54219 0.62069,-2.18682 0.42206,-0.64464 0.9782,-1.15309 1.66889,-1.52914 z m -61.40364,10.21887 -5.56573,0.23841 c 0,0 -16.70036,9.35478 -11.60823,14.80217 5.0921,5.44738 15.75168,-10.18188 15.75168,-10.18188 z m 112.39521,17.52747 v 65.73618 H 232.54098 v 2.10461 H 384.225 v -67.84079 z" />
  </g>
</svg>
