<?xml version="1.0" encoding="UTF-8" standalone="no"?>
<svg
   xmlns:dc="http://purl.org/dc/elements/1.1/"
   xmlns:cc="http://creativecommons.org/ns#"
   xmlns:rdf="http://www.w3.org/1999/02/22-rdf-syntax-ns#"
   xmlns:svg="http://www.w3.org/2000/svg"
   xmlns="http://www.w3.org/2000/svg"
   xmlns:sodipodi="http://sodipodi.sourceforge.net/DTD/sodipodi-0.dtd"
   xmlns:inkscape="http://www.inkscape.org/namespaces/inkscape"
   version="1.1"
   id="svg10"
   width="512"
   height="512"
   viewBox="0 0 512 512"
   sodipodi:docname="quail.svg"
   inkscape:version="1.0.2 (e86c870879, 2021-01-15, custom)">
  <metadata
     id="metadata16">
    <rdf:RDF>
      <cc:Work
         rdf:about="">
        <dc:format>image/svg+xml</dc:format>
        <dc:type
           rdf:resource="http://purl.org/dc/dcmitype/StillImage" />
        <dc:title></dc:title>
      </cc:Work>
    </rdf:RDF>
  </metadata>
  <defs
     id="defs14" />
  <sodipodi:namedview
     pagecolor="#ffffff"
     bordercolor="#666666"
     borderopacity="1"
     objecttolerance="10"
     gridtolerance="10"
     guidetolerance="10"
     inkscape:pageopacity="0"
     inkscape:pageshadow="2"
     inkscape:window-width="1366"
     inkscape:window-height="715"
     id="namedview12"
     showgrid="false"
     inkscape:zoom="0.5553815"
     inkscape:cx="218.38073"
     inkscape:cy="365.46105"
     inkscape:window-x="-8"
     inkscape:window-y="-8"
     inkscape:window-maximized="1"
     inkscape:current-layer="g18" />
  <g
     inkscape:groupmode="layer"
     inkscape:label="Image"
     id="g18">
    <path
       id="path1133"
       style="fill:#333333;fill-opacity:1;stroke:none;stroke-width:2.53093px;stroke-linecap:butt;stroke-linejoin:miter;stroke-opacity:1"
       d="m 128.10173,162.70654 -6.04061,12.48658 c 0,0 0.80574,7.25277 0.80574,12.8919 0,5.63911 -1.61149,18.93118 -1.61149,24.9731 0,6.04191 4.02873,14.49986 4.02873,21.75015 0,7.25029 -1.61149,33.83137 -1.61149,33.83137 0,0 2.41468,4.43499 2.01188,9.26853 -0.40279,4.83351 -5.6392,12.88841 -13.29229,7.6521 C 104.73911,280.32394 89.83696,263.00058 80.57271,256.15309 71.30843,249.30559 56,242.46037 56,242.46037 l 1.41375,9.86667 c 0,0 5.33628,1.81533 5.73908,4.73559 0.40279,2.92025 1.00376,4.93196 2.61495,7.44942 1.61116,2.51746 18.42831,17.41988 18.42831,17.41988 0,0 4.03017,0.80876 5.03715,3.62834 1.00697,2.81955 3.02169,5.2339 4.0287,6.64368 1.00698,1.40978 9.4629,9.66925 11.27548,11.28041 1.81257,1.61119 9.26389,4.62859 10.87508,7.24675 1.61116,2.61817 3.02142,7.45485 2.41724,9.8716 -0.60418,2.41676 -2.21487,3.42343 -3.82605,4.6318 -1.61117,1.20839 -15.10647,11.47815 -15.10647,11.47815 0,0 -2.81874,2.62068 -2.21456,6.64862 0.60421,4.02794 2.21456,5.03219 2.21456,5.03219 0,0 1.81316,3.02304 9.46625,-2.01188 7.65309,-5.03493 92.8434,-69.48184 92.8434,-69.48184 l 15.30932,-13.49498 6.44576,-15.10646 h -9.06578 l -38.66571,29.2045 -9.66905,7.25171 c 0,0 -9.26595,7.65102 -15.10647,2.01189 -5.84051,-5.63911 -6.64368,-9.06092 -6.64368,-9.06092 l -1.00842,-45.51711 -1.40881,-24.37006 -2.41724,-17.72142 c 0,0 -5.84011,-23.16103 -10.87506,-27.39036 z m 63.11001,1.58183 v 2.53092 h 176.17624 v 44.87451 h 2.53092 v -47.40543 z m 78.8591,61.18217 c -0.89367,0 -1.82025,0.11946 -2.77795,0.36086 -0.94986,0.23335 -1.70736,0.48941 -2.27885,0.77115 v 2.52597 h 0.11896 c 0.76484,-0.49903 1.57601,-0.88798 2.43703,-1.16165 0.86127,-0.27367 1.67724,-0.41029 2.44209,-0.41029 0.4991,0 0.94505,0.043 1.33962,0.12351 0.39431,0.0805 0.76105,0.22576 1.10728,0.43499 0.33003,0.20931 0.59097,0.47577 0.77598,0.80575 0.18476,0.32198 0.27688,0.70231 0.27688,1.13694 0,0.98198 -0.3647,1.72908 -1.09741,2.24422 -0.72435,0.50708 -1.698,0.76126 -2.92145,0.76126 h -0.84532 v 2.00201 h 1.08247 c 0.59578,0 1.15081,0.0519 1.66586,0.14831 0.51529,0.0886 0.95795,0.25469 1.31988,0.50421 0.36242,0.24145 0.64412,0.57685 0.84533,1.00346 0.21006,0.41854 0.31155,0.94781 0.31155,1.59173 0,0.65197 -0.0911,1.19475 -0.27688,1.62136 -0.17717,0.42659 -0.45051,0.81739 -0.82053,1.17157 -0.35433,0.33 -0.81774,0.5774 -1.38922,0.74642 -0.57123,0.16906 -1.10905,0.25208 -1.61625,0.25208 -0.86128,0 -1.75368,-0.14705 -2.67924,-0.44491 -0.92581,-0.29782 -1.73318,-0.67136 -2.41729,-1.12209 h -0.18222 v 2.52103 c 0.61982,0.28172 1.41175,0.54266 2.3778,0.77608 0.9658,0.24145 1.94805,0.36086 2.946,0.36086 0.9739,0 1.8663,-0.1349 2.67924,-0.40039 0.82103,-0.27367 1.53677,-0.69216 2.1404,-1.25559 0.53934,-0.50707 0.95796,-1.10035 1.25559,-1.78451 0.29789,-0.68416 0.44494,-1.43804 0.44494,-2.25905 0,-0.82903 -0.12655,-1.50352 -0.37559,-2.02672 -0.25056,-0.52319 -0.56743,-0.95889 -0.95416,-1.30499 -0.34547,-0.3047 -0.76282,-0.5606 -1.2604,-0.76125 -0.4991,-0.20931 -0.94328,-0.34601 -1.32975,-0.41029 v -0.16806 c 0.95796,-0.19311 1.78608,-0.65842 2.48638,-1.39892 0.70816,-0.74854 1.06274,-1.62184 1.06274,-2.61991 0,-0.73245 -0.14679,-1.37556 -0.44468,-1.9229 -0.29789,-0.54733 -0.7403,-1.01259 -1.31988,-1.39894 -0.53934,-0.35415 -1.1412,-0.61018 -1.80936,-0.77115 -0.66817,-0.16096 -1.44111,-0.24221 -2.31833,-0.24221 z m -20.30664,4.24128 c -0.0633,1.02535 -0.31054,1.84651 -0.7365,2.46173 -0.41001,0.59942 -0.97491,1.09847 -1.70053,1.49284 -0.58363,0.31551 -1.44465,0.55807 -2.58027,0.73159 -1.13588,0.15768 -2.19989,0.23715 -3.19353,0.23715 v 3.21805 h 7.33589 v 23.61374 h -7.33589 v 3.59865 h 19.07104 v -3.59865 h -7.19239 v -31.75523 z m 39.42702,0.79587 -16.23361,33.17885 2.27404,1.11222 16.23336,-33.17885 z m 99.89236,1.06773 v 31.41906 h 3.79639 V 246.1579 c 1.03641,-0.79423 2.12193,-1.45093 3.25275,-1.96245 1.13081,-0.51155 2.21101,-0.76621 3.24768,-0.76621 1.00959,0 1.83416,0.14249 2.46664,0.42512 0.63273,0.26921 1.11665,0.68524 1.45326,1.25063 0.32295,0.51152 0.54162,1.22507 0.6626,2.14043 0.12148,0.90192 0.18222,1.87007 0.18222,2.90659 v 12.84247 h 3.79639 v -14.63685 c 0,-2.75962 -0.63906,-4.87484 -1.91793,-6.34214 -1.27888,-1.46731 -3.13481,-2.19973 -5.57108,-2.19973 -1.33278,0 -2.63469,0.27359 -3.90016,0.82551 -1.26521,0.55194 -2.4884,1.32086 -3.67288,2.30355 v -11.3694 z m -59.26416,1.15177 v 3.93974 h 4.28081 v -3.93974 z m 22.91677,7.08857 c -1.33278,0 -2.62988,0.27359 -3.89509,0.82551 -1.26546,0.55194 -2.49322,1.32086 -3.67794,2.30355 v -2.50127 h -3.79639 v 22.55093 h 3.79639 V 246.1579 c 1.03666,-0.79423 2.12218,-1.45093 3.25274,-1.96245 1.13082,-0.51155 2.21608,-0.76621 3.2525,-0.76621 1.00958,0 1.8291,0.14249 2.46183,0.42512 0.63273,0.26921 1.1169,0.68524 1.45326,1.25063 0.32319,0.51152 0.54617,1.22507 0.6674,2.14043 0.12149,0.90192 0.18223,1.87007 0.18223,2.90659 v 12.84247 h 3.79639 v -14.63685 c 0,-2.75962 -0.63932,-4.87484 -1.91819,-6.34214 -1.27888,-1.46731 -3.13936,-2.19973 -5.57589,-2.19973 z m 71.88438,0 c -3.28464,0 -5.93427,1.08533 -7.95369,3.25264 -2.00576,2.16731 -3.01054,5.09564 -3.01054,8.78409 0,3.72884 1.04882,6.60804 3.14898,8.64073 2.09991,2.01922 5.02212,3.0302 8.76434,3.0302 1.46744,0 2.86881,-0.18526 4.20159,-0.5487 1.33254,-0.36347 2.63647,-0.81104 3.91509,-1.34949 v -4.14242 h -0.20247 c -0.65956,0.59229 -1.77013,1.19986 -3.33171,1.8191 -1.54817,0.60575 -3.08748,0.90954 -4.62198,0.90954 -1.1579,0 -2.21886,-0.16122 -3.18821,-0.48442 -0.95567,-0.32307 -1.78632,-0.80716 -2.48663,-1.45331 -0.72663,-0.65961 -1.29786,-1.50288 -1.71521,-2.52599 -0.4171,-1.03651 -0.62767,-2.24675 -0.62767,-3.63327 h 16.61907 v -2.06131 c 0,-3.27117 -0.82558,-5.7961 -2.48157,-7.57301 -1.64232,-1.77691 -3.98697,-2.66438 -7.02914,-2.66438 z m 22.96106,0.079 c -1.44035,0 -2.74883,0.19159 -3.91989,0.56847 -1.15765,0.36347 -2.11333,0.86016 -2.86704,1.49284 -0.78079,0.64618 -1.36467,1.37857 -1.75494,2.19973 -0.37711,0.82114 -0.56339,1.696 -0.56339,2.62485 0,1.48077 0.40976,2.73378 1.23079,3.75686 0.8347,1.00961 2.2376,1.77853 4.21653,2.30352 0.71346,0.18855 1.50134,0.36248 2.36287,0.52398 0.87494,0.16147 1.58208,0.30396 2.12066,0.42512 1.45377,0.32307 2.43956,0.71385 2.95106,1.17154 0.51175,0.45769 0.76637,1.12839 0.76611,2.01684 0,1.1577 -0.47126,2.00731 -1.41352,2.54576 -0.94201,0.53848 -2.251,0.80575 -3.92015,0.80575 -1.3462,0 -2.74935,-0.26099 -4.21652,-0.78598 -1.46743,-0.53846 -2.80123,-1.25825 -3.99912,-2.16017 h -0.20247 v 4.26104 c 0.94226,0.47115 2.10826,0.90612 3.4947,1.30995 1.40011,0.3904 2.93284,0.58824 4.60223,0.58824 2.94777,0 5.26863,-0.663 6.96486,-1.98222 1.70964,-1.31922 2.5656,-3.0072 2.5656,-5.06681 0,-1.64229 -0.47784,-2.96336 -1.43352,-3.95951 -0.95567,-0.98268 -2.31453,-1.67228 -4.07808,-2.07614 -0.57882,-0.13465 -1.30494,-0.28334 -2.18014,-0.44489 -0.86127,-0.16147 -1.64282,-0.32292 -2.34288,-0.48444 -1.26546,-0.29617 -2.18343,-0.68062 -2.74858,-1.15178 -0.57908,-0.47113 -0.86507,-1.17202 -0.86507,-2.10087 0,-1.05 0.47784,-1.83786 1.43351,-2.36285 0.95594,-0.53845 2.12295,-0.80574 3.50964,-0.80574 1.33253,0 2.69645,0.24828 4.08314,0.74642 1.38644,0.48462 2.56054,1.08589 3.52963,1.79934 h 0.20248 v -4.06333 c -0.91544,-0.47116 -2.06347,-0.86823 -3.45016,-1.19131 -1.37303,-0.33653 -2.73214,-0.50421 -4.07834,-0.50421 z m -70.59385,0.0202 c -3.32538,0 -6.00513,1.0538 -8.03771,3.15379 -2.01943,2.09998 -3.02522,4.99182 -3.02522,8.68026 0,1.97883 0.26701,3.70963 0.80559,5.19037 0.53833,1.48077 1.30115,2.70362 2.28391,3.67283 0.96909,0.96925 2.13028,1.70028 3.48989,2.1849 1.35962,0.47116 2.85438,0.70686 4.48354,0.70686 1.27862,0 2.48259,-0.1726 3.6134,-0.50914 1.14423,-0.33654 2.353,-0.808 3.61847,-1.41375 v -4.17702 h -0.20248 c -0.2827,0.2288 -0.66715,0.50244 -1.15182,0.82551 -0.48467,0.30961 -1.00503,0.60707 -1.55703,0.88978 -0.63273,0.32307 -1.34594,0.58403 -2.1404,0.78598 -0.7942,0.20196 -1.57601,0.30647 -2.34313,0.30647 -2.20773,0 -3.92066,-0.72613 -5.14588,-2.17994 -1.21155,-1.46731 -1.81923,-3.56365 -1.81923,-6.28285 0,-2.79999 0.62033,-4.92154 1.85871,-6.36191 1.2518,-1.45387 2.95258,-2.17996 5.1064,-2.17996 1.17106,0 2.3735,0.24195 3.59872,0.72665 1.23838,0.4846 2.43602,1.17918 3.59366,2.08111 h 0.20248 v -4.22151 c -1.03667,-0.52499 -2.18394,-0.96626 -3.43548,-1.32973 -1.23864,-0.36346 -2.50461,-0.5487 -3.79639,-0.5487 z m -46.92615,0.52894 v 22.55093 h 3.79639 V 240.4439 Z m 94.35621,2.50126 c 2.01917,0 3.52077,0.54582 4.50328,1.63619 0.99592,1.09038 1.50362,2.62961 1.51754,4.62191 h -12.92645 c 0.16198,-1.77692 0.84356,-3.26072 2.04144,-4.45876 1.21156,-1.19812 2.83135,-1.79934 4.86419,-1.79934 z m -129.99165,5.18048 -8.03291,9.36245 v 2.56059 h 7.94382 v 4.66639 h 2.1404 v -4.66639 h 2.46184 v -1.78451 h -2.46184 v -10.13853 z m -0.0886,2.65451 v 7.48402 h -6.42628 z m 73.05087,41.23136 v 49.43215 H 180.38671 v 2.53093 h 189.5327 v -51.96308 z" />
  </g>
</svg>
