<?xml version="1.0" encoding="UTF-8" standalone="no"?>
<svg
   xmlns:dc="http://purl.org/dc/elements/1.1/"
   xmlns:cc="http://creativecommons.org/ns#"
   xmlns:rdf="http://www.w3.org/1999/02/22-rdf-syntax-ns#"
   xmlns:svg="http://www.w3.org/2000/svg"
   xmlns="http://www.w3.org/2000/svg"
   xmlns:sodipodi="http://sodipodi.sourceforge.net/DTD/sodipodi-0.dtd"
   xmlns:inkscape="http://www.inkscape.org/namespaces/inkscape"
   viewBox="0 0 512 512"
   width="512"
   height="512"
   version="1.1"
   id="svg125"
   sodipodi:docname="raccoon.svg"
   inkscape:version="1.0.2 (e86c870879, 2021-01-15, custom)">
  <sodipodi:namedview
     pagecolor="#ffffff"
     bordercolor="#666666"
     borderopacity="1"
     objecttolerance="10"
     gridtolerance="10"
     guidetolerance="10"
     inkscape:pageopacity="0"
     inkscape:pageshadow="2"
     inkscape:window-width="1366"
     inkscape:window-height="715"
     id="namedview7008"
     showgrid="false"
     inkscape:zoom="0.53515627"
     inkscape:cx="1117.0422"
     inkscape:cy="4696.8993"
     inkscape:window-x="-8"
     inkscape:window-y="-8"
     inkscape:window-maximized="1"
     inkscape:current-layer="svg125"
     inkscape:document-rotation="0" />
  <metadata
     id="metadata131">
    <rdf:RDF>
      <cc:Work
         rdf:about="">
        <dc:format>image/svg+xml</dc:format>
        <dc:type
           rdf:resource="http://purl.org/dc/dcmitype/StillImage" />
        <dc:title></dc:title>
      </cc:Work>
    </rdf:RDF>
  </metadata>
  <defs
     id="defs129" />
  <style
     id="style2">
		tspan { white-space:pre }
		.shp0 { fill: #e7d5b8 } 
		.shp1 { fill: #15120f } 
	</style>
  <g
     id="g12658"
     transform="matrix(1.1512423,0,0,1.1512423,-872.37903,-5151.4667)">
    <path
       id="Path 1"
       style="fill:#333333;fill-opacity:1"
       d="m 867.76758,4580.9805 c -0.25,0 -0.65063,0.34 -0.89063,0.75 -0.25,0.41 -0.94078,2.44 -1.55078,4.5 l -1.10937,3.75 c 6.2,0 8,-0.23 8,-0.5 0,-0.27 -0.9,-2.3 -2,-4.5 -1.1,-2.2 -2.19922,-4 -2.44922,-4 z M 869.9668,4592 c -1.79,0 -3.75914,0.34 -4.36914,0.75 -0.62,0.4 -2.08,2.3005 -3.25,4.2305 -1.45,2.39 -2.12086,5.17 -2.13086,8.75 0,2.89 0.40992,7.39 0.91992,10 0.51,2.61 1.63,9.59 2.5,15.5 1.1,7.47 1.27008,11.36 0.58008,12.75 -0.55,1.1 -2.01,2.0093 -3.25,2.0293 -1.24,0.02 -3.00969,-0.77 -3.92969,-1.75 -0.93,-0.98 -3.8693,-6.7293 -6.5293,-12.7793 -2.67,-6.05 -6.92117,-13.7 -9.45117,-17 -2.53,-3.3 -5.4407,-6.8013 -6.4707,-7.7813 -1.14,-1.09 -3.03914,-1.68 -4.86914,-1.5 -2.72,0.25 -3.03008,0.6513 -3.33008,4.2813 -0.18,2.2 0.12922,5.58 0.69922,7.5 0.56,1.92 5.79133,10.25 11.61133,18.5 5.83,8.25 10.56906,15.9 10.53906,17 -0.03,1.1 -0.37906,2.5299 -0.78906,3.1699 -0.4,0.65 -1.85047,1.6297 -3.23047,2.1797 -1.92,0.77 -3.08907,0.6101 -5.03907,-0.6699 -1.39,-0.93 -5.67,-5.0497 -9.5,-9.1797 -3.83,-4.12 -8.20093,-8.51 -9.71093,-9.75 -1.51,-1.24 -3.2,-2.25 -3.75,-2.25 -0.55,0 -2.12024,0.56 -3.49024,1.25 -1.37,0.69 -2.67039,1.92 -2.90039,2.75 -0.23,0.83 0.36055,2.85 1.31055,4.5 0.95,1.65 6.09969,6.83 11.42969,11.5 9.22,8.08 9.80039,8.82 11.65039,15 1.08,3.58 4.55047,11.22 7.73047,17 3.17,5.78 7.56953,12.3305 9.76953,14.5605 2.41,2.46 6.28,4.93 9.75,6.25 4.37,1.66 7.91,2.1895 14.75,2.1895 8.39,0 9.21086,-0.19 12.13086,-2.75 1.72,-1.51 5.13961,-6.8 7.59961,-11.75 2.46,-4.95 5.96882,-11.03 7.79882,-13.5 1.83,-2.47 5.27039,-6.3494 7.65039,-8.6094 2.37,-2.26 6.91032,-5.98 10.07032,-8.25 3.16,-2.28 6.42976,-5.1506 7.25976,-6.3906 0.83,-1.24 1.95977,-4.28 2.50977,-6.75 0.81,-3.6 0.71023,-4.95 -0.50977,-6.75 -0.89,-1.33 -2.52976,-2.25 -4.00976,-2.25 -1.37,0 -3.74,0.6191 -5.25,1.3691 -1.51,0.76 -6.8,5.7308 -11.75,11.0508 -4.95,5.32 -9.79,9.6491 -10.75,9.6191 -0.96,-0.02 -2.65,-0.939 -3.75,-2.039 -1.1,-1.1 -2.40086,-3.46 -2.88086,-5.25 -0.49,-1.82 -0.50904,-5.23 -0.0391,-7.75 0.58,-3.07 2.28085,-6.24 5.38085,-10 2.5,-3.03 7.08922,-9.33 10.19922,-14 3.12,-4.67 6.04977,-9.74 6.50977,-11.25 0.55,-1.83 0.41008,-3.2909 -0.41992,-4.3809 -0.69,-0.9 -2.26,-2.02 -3.5,-2.5 -1.24,-0.48 -2.81,-0.6604 -3.5,-0.4004 -0.69,0.26 -4.37899,5.77 -8.20899,12.25 -3.82,6.48 -8.89,14.8213 -11.25,18.5313 -3.11,4.9 -5.04101,6.9206 -7.04101,7.3906 -2.17,0.5 -3.12907,0.13 -4.53907,-1.75 -1.61,-2.14 -1.79,-4.8006 -1.75,-25.6406 0.02,-13.59 -0.38093,-24.08 -0.96093,-25.25 -0.7,-1.39 -1.99,-2.0005 -4.25,-1.9805 z m -48,3.9492 c -0.41,0.01 -0.75977,0.1413 -0.75977,0.2813 -0.01,0.14 0.67,2.39 1.5,5 1.48,4.65 1.54906,4.71 3.53906,3 1.12,-0.96 2.02,-2.31 2,-3 -0.02,-0.69 -1.26929,-2.1713 -2.77929,-3.2813 -1.51,-1.12 -3.09,-2.02 -3.5,-2 z m 97.1582,4.5938 c -0.70779,0.074 -2.38031,1.0725 -4.00781,2.4375 l -3.40039,2.83 c 3.1,3.27 4.30015,3.8695 4.66015,3.4395 0.36,-0.42 1.37,-2.4595 2.25,-4.5195 0.87,-2.06 1.21024,-3.9402 0.74024,-4.1602 -0.0588,-0.029 -0.14108,-0.038 -0.24219,-0.027 z m -112.11719,29.9062 c -0.0791,0.01 -0.14039,0.028 -0.18164,0.061 -0.34,0.26 -0.0699,1.7107 0.58008,3.2207 0.65,1.51 1.54094,3.2 1.96094,3.75 0.49,0.64 1.33961,0.46 2.34961,-0.5 0.88,-0.83 1.61062,-1.9713 1.64062,-2.5313 0.03,-0.57 -1.28969,-1.7985 -2.92969,-2.7285 -1.44375,-0.8137 -2.86621,-1.3296 -3.41992,-1.2715 z M 938.2168,4637 c -0.28,0.04 -2.18996,0.9495 -4.25,2.0195 -3.22,1.68 -3.57,2.1901 -2.5,3.5801 0.69,0.89 2.04,2.01 3,2.5 1.41004,0.71 2.1307,0.1509 3.7207,-2.8691 1.08,-2.06 1.64,-4.1013 1.25,-4.5313 -0.4,-0.43 -0.9407,-0.7392 -1.2207,-0.6992 z m 65.25,6.9902 c -0.41,0 -1.5703,1.46 -2.5703,3.25 -1.60434,2.8532 -1.72879,3.2388 -0.4082,4.2149 1.1094,0.511 2.9942,0.5375 4.6875,0.6836 0.9547,-0.5853 0.9869,-1.5423 0.1406,-4.4082 -0.6,-2.06 -1.4396,-3.7503 -1.8496,-3.7403 z m -29.58985,0.3145 c -0.40781,0 -0.81703,0.3177 -1.01953,0.8652 -0.27,0.72 -0.64031,2.7708 -0.82031,4.5508 -0.23,2.35 0.0897,3.2498 1.17969,3.2598 1.54564,-0.2533 2.34779,-0.6159 3.2539,-1.1289 1.6,-0.8 1.62,-1.1292 0.25,-3.8692 -0.82,-1.65 -1.91945,-3.2505 -2.43945,-3.5605 -0.1275,-0.077 -0.26445,-0.1141 -0.40039,-0.1153 z m -2.50976,12.4258 c -0.63,1.24 -1.14086,3.71 -1.13086,5.5 0.01,1.79 0.90976,6.63 2.00976,10.75 1.09,4.13 2.2711,10.88 2.6211,15 0.34,4.13 0.34046,10.09 -0.01,13.25 -0.46,4.16 -1.05062,5.75 -2.14062,5.75 -0.82,0 -1.72,-0.45 -2,-1 -0.28,-0.55 -1.20055,-6.29 -2.06055,-12.75 -0.85,-6.46 -2.28016,-14.9 -3.16016,-18.75 -1.03,-4.51 -2.42945,-7.8 -3.93945,-9.25 -1.29,-1.24 -3.12984,-2.2613 -4.08984,-2.2813 -0.96,-0.01 -2.80938,1.0303 -4.10938,2.3203 -1.94,1.92 -2.34,3.3115 -2.25,7.7715 0.06,2.99 1.07047,8.5895 2.23047,12.4395 1.62,5.33 2.30891,11.18 2.87891,24.5 0.73,16.77 0.95031,18.15 5.32031,33 2.51,8.53 6.41922,21.13 8.69922,28 2.28,6.88 5.80055,15.629 7.81055,19.459 2.01999,3.83 5.91992,9.4008 8.66992,12.3808 2.75,2.98 6.69,6.2591 8.75,7.2891 2.06,1.03 5.66003,1.8711 8.00003,1.8711 2.88,0.01 5.46,-0.8 8,-2.5 2.06,-1.37 5.4894,-5.09 7.6094,-8.25 2.13,-3.16 5.4508,-8.9 7.3808,-12.75 1.93,-3.85 4.9092,-11.05 6.6192,-16 1.71,-4.95 4.0299,-15.07 5.1699,-22.5 1.13,-7.43 3.9099,-23.18 6.1699,-35 3.92,-20.51 4.041,-21.63 2.461,-24.25 -0.91,-1.51 -2.2202,-2.7613 -2.9102,-2.7813 -0.69,-0.01 -2.2507,1 -3.4707,2.25 -1.22,1.26 -3.7,6.7206 -5.5,12.1406 -2.29,6.89 -3.9593,10.28 -5.5293,11.25 -2.1,1.3 -2.2909,1.2107 -2.8809,-1.3593 -0.35,-1.51 0.3107,-7.25 1.4707,-12.75 1.15,-5.5 2.9901,-14.28 4.0801,-19.5 1.63,-7.76 1.7693,-9.96 0.7793,-12 -0.82,-1.68 -2.199,-2.6101 -4.209,-2.8301 -1.64,-0.18 -3.5199,0.27 -4.1699,1 -0.65,0.73 -3.24,9.5401 -5.75,19.5801 -2.51,10.04 -5.4097,19.94 -6.4297,22 l -1.8613,3.75 c -2.45,-3.87 -3.6901,-8.82 -4.3301,-13.5 -1.03,-7.45 -0.9292,-9.85 0.8008,-19.5 1.08,-6.05 1.7901,-13.03 1.5801,-15.5 -0.22,-2.47 -0.9394,-5.761 -1.6094,-7.291 -0.3414,-0.7797 -0.7681,-1.4812 -1.1777,-1.9844 -0.4435,-0.3134 -1.5442,-0.8288 -3.7793,-0.752 -0.1123,0.024 -0.3349,0.03 -0.5508,0.035 -0.2681,0.019 -0.5515,0.049 -0.8496,0.086 -1.07898,0.3489 -2.40807,2.1237 -3.84966,5.1582 -2.32,4.89 -2.49024,6.3 -2.49024,20.75 0,11.07 -0.42976,16.86 -1.50976,20.25 -0.83,2.61 -1.95977,4.75 -2.50977,4.75 -0.55,0 -1.63993,-2.14 -2.41992,-4.75 -0.78,-2.61 -1.85062,-11.72 -2.39062,-20.25 -0.76,-12.09 -1.43008,-16.55 -3.08008,-20.25 -2.35646,-5.814 -8.0801,-7.5675 -10.96266,-2.0018 z m -16.60938,-2.75 c -0.26,0 -0.9107,1.69 -1.4707,3.75 -0.55,2.06 -0.8993,3.9 -0.7793,4.08 0.11,0.18 1.89899,0.06 3.95899,-0.25 2.06,-0.32 3.7407,-0.92 3.7207,-1.33 -0.02,-0.41 -1.14,-1.99 -2.5,-3.5 -1.36,-1.51 -2.67969,-2.75 -2.92969,-2.75 z m 76.51949,2 c -0.52,0 -1.87,1.35 -3,3 -1.13,1.65 -1.8405,3.45 -1.5605,4 0.28,0.55 1.85,1 3.5,1 2.59,0 2.9298,-0.31 2.5098,-2.25 -0.26,-1.24 -0.49,-3.04 -0.5,-4 0,-0.96 -0.4293,-1.75 -0.9493,-1.75 z m 15.4434,25.5215 c -0.4399,-0.034 -0.998,0.4726 -1.873,1.5976 -1.01,1.28 -1.7918,2.5596 -1.7618,2.8496 0.04,0.29 1.2116,1.0913 2.6016,1.7813 2.4,1.18 2.5298,1.11 2.5098,-1.5 0,-1.51 -0.3496,-3.3596 -0.7696,-4.0996 -0.2212,-0.3938 -0.443,-0.6087 -0.707,-0.6289 z"
       transform="translate(-0.26367283,0.16516362)"
       sodipodi:nodetypes="scccsssccccsscsccscccccsccccssssscccccscssccsccscscsccccccsscccccccccccsccccccccccccccsccscccccscccccccccsccscccssccsscssccsccsccsscccssccsccccccccssscccccscccccscssccccccsssssssccsscccccscccc" />
    <g
       id="g12626">
      <g
         aria-label="inches"
         id="text2538-7-9-6-4-9-4-2-5-7-8-6-63-2-7"
         style="font-style:normal;font-weight:normal;font-size:16.366px;line-height:1.25;font-family:sans-serif;fill:#333333;fill-opacity:1;stroke:none;stroke-width:0.409151"
         transform="translate(37.85493,4174.8941)">
        <path
           d="m 1067.7679,544.69653 h -1.6941 v -1.55829 h 1.6941 z m -0.096,10.42054 h -1.5024 v -8.92619 h 1.5024 z"
           style="white-space:pre;fill:#333333;fill-opacity:1;stroke-width:0.409151"
           id="path3374-8-2" />
        <path
           d="m 1078.1085,555.11707 h -1.5023 v -5.08241 q 0,-0.61533 -0.072,-1.15074 -0.072,-0.5434 -0.2637,-0.84707 -0.1997,-0.33563 -0.5753,-0.49545 -0.3756,-0.16782 -0.975,-0.16782 -0.6153,0 -1.2865,0.30367 -0.6713,0.30366 -1.2866,0.77515 v 6.66467 h -1.5024 v -8.92619 h 1.5024 v 0.99091 q 0.7032,-0.58336 1.4544,-0.91099 0.7511,-0.32764 1.5423,-0.32764 1.4464,0 2.2056,0.87104 0.7591,0.87104 0.7591,2.50924 z"
           style="white-space:pre;fill:#333333;fill-opacity:1;stroke-width:0.409151"
           id="path3376-7-8" />
        <path
           d="m 1087.6021,554.55768 q -0.7512,0.35961 -1.4305,0.55939 -0.6712,0.19978 -1.4304,0.19978 -0.9669,0 -1.774,-0.2797 -0.8071,-0.28768 -1.3825,-0.86305 -0.5834,-0.57536 -0.903,-1.4544 -0.3197,-0.87903 -0.3197,-2.05374 0,-2.18959 1.1987,-3.43622 1.2067,-1.24663 3.1805,-1.24663 0.7672,0 1.5024,0.21576 0.7432,0.21577 1.3585,0.52742 v 1.67017 h -0.08 q -0.6873,-0.53541 -1.4225,-0.8231 -0.7272,-0.28768 -1.4224,-0.28768 -1.2786,0 -2.0218,0.86305 -0.7352,0.85506 -0.7352,2.51723 0,1.61423 0.7192,2.48527 0.7272,0.86305 2.0378,0.86305 0.4555,0 0.927,-0.11987 0.4715,-0.11987 0.847,-0.31166 0.3277,-0.16781 0.6154,-0.35161 0.2876,-0.19179 0.4555,-0.32764 h 0.08 z"
           style="white-space:pre;fill:#333333;fill-opacity:1;stroke-width:0.409151"
           id="path3378-9-8" />
        <path
           d="m 1096.9917,555.11707 h -1.5023 v -5.08241 q 0,-0.61533 -0.072,-1.15074 -0.072,-0.5434 -0.2637,-0.84707 -0.1998,-0.33563 -0.5754,-0.49545 -0.3756,-0.16782 -0.9749,-0.16782 -0.6153,0 -1.2866,0.30367 -0.6713,0.30366 -1.2866,0.77515 v 6.66467 h -1.5023 v -12.43433 h 1.5023 v 4.49905 q 0.7032,-0.58336 1.4544,-0.91099 0.7512,-0.32764 1.5423,-0.32764 1.4464,0 2.2056,0.87104 0.7591,0.87104 0.7591,2.50924 z"
           style="white-space:pre;fill:#333333;fill-opacity:1;stroke-width:0.409151"
           id="path3380-1-7" />
        <path
           d="m 1107.3563,550.8098 h -6.5767 q 0,0.8231 0.2477,1.43842 0.2477,0.60733 0.6793,0.9989 0.4155,0.38358 0.9829,0.57537 0.5753,0.19179 1.2626,0.19179 0.911,0 1.83,-0.35961 0.927,-0.36759 1.3185,-0.71921 h 0.08 v 1.6382 q -0.7591,0.31965 -1.5503,0.53541 -0.7911,0.21577 -1.6621,0.21577 -2.2216,0 -3.4682,-1.19868 -1.2466,-1.20668 -1.2466,-3.42024 0,-2.18959 1.1907,-3.47618 1.1986,-1.28658 3.1485,-1.28658 1.806,0 2.7809,1.05484 0.9829,1.05484 0.9829,2.9967 z m -1.4623,-1.15073 q -0.01,-1.1827 -0.5994,-1.82999 -0.5833,-0.64729 -1.782,-0.64729 -1.2067,0 -1.9259,0.71122 -0.7112,0.71122 -0.8071,1.76606 z"
           style="white-space:pre;fill:#333333;fill-opacity:1;stroke-width:0.409151"
           id="path3382-4-9" />
        <path
           d="m 1116.0108,552.5439 q 0,1.22265 -1.0149,2.00579 -1.0068,0.78314 -2.7569,0.78314 -0.9909,0 -1.822,-0.23175 -0.8231,-0.23973 -1.3825,-0.51943 v -1.68614 h 0.08 q 0.7112,0.53541 1.5823,0.85506 0.871,0.31166 1.6701,0.31166 0.9909,0 1.5503,-0.31965 0.5594,-0.31965 0.5594,-1.0069 0,-0.52742 -0.3036,-0.79912 -0.3037,-0.2717 -1.1668,-0.46349 -0.3196,-0.0719 -0.839,-0.16781 -0.5115,-0.0959 -0.935,-0.20777 -1.1747,-0.31166 -1.6702,-0.911 -0.4874,-0.60733 -0.4874,-1.48637 0,-0.55139 0.2237,-1.03885 0.2318,-0.48747 0.6953,-0.87105 0.4475,-0.37558 1.1347,-0.59135 0.6952,-0.22375 1.5503,-0.22375 0.7991,0 1.6142,0.19978 0.8231,0.19179 1.3665,0.47148 v 1.60624 h -0.08 q -0.5754,-0.42354 -1.3985,-0.71122 -0.8231,-0.29568 -1.6142,-0.29568 -0.8231,0 -1.3905,0.31965 -0.5673,0.31166 -0.5673,0.93497 0,0.5514 0.3436,0.83109 0.3356,0.27969 1.0868,0.4555 0.4155,0.0959 0.927,0.19179 0.5194,0.0959 0.863,0.1758 1.0469,0.23974 1.6143,0.8231 0.5673,0.59135 0.5673,1.56628 z"
           style="white-space:pre;fill:#333333;fill-opacity:1;stroke-width:0.409151"
           id="path3384-6-8" />
      </g>
      <g
         aria-label="4"
         id="text12587"
         style="font-style:normal;font-weight:normal;font-size:19.1004px;line-height:1.25;font-family:sans-serif;fill:#333333;fill-opacity:1;stroke:none;stroke-width:0.477511">
        <path
           d="m 1078.1011,4726.874 h -2.0611 v 3.9077 h -1.7907 v -3.9077 h -6.6497 v -2.1451 l 6.7243,-7.8341 h 1.7161 v 8.487 h 2.0611 z m -3.8518,-1.4922 v -6.2673 l -5.3813,6.2673 z"
           style="white-space:pre;fill:#333333;fill-opacity:1;stroke-width:0.477511"
           id="path12609" />
      </g>
      <g
         aria-label="1"
         id="text12591"
         style="font-style:normal;font-weight:normal;font-size:11.6989px;line-height:1.25;font-family:sans-serif;fill:#333333;fill-opacity:1;stroke:none;stroke-width:0.292472">
        <path
           d="m 1087.1844,4723.019 h -4.6042 v -0.8682 h 1.7709 v -5.701 h -1.7709 v -0.7768 q 0.3599,0 0.7712,-0.057 0.4113,-0.063 0.6226,-0.1771 0.2628,-0.1428 0.4113,-0.3598 0.1543,-0.2228 0.1771,-0.5941 h 0.8854 v 7.666 h 1.7366 z"
           style="white-space:pre;fill:#333333;fill-opacity:1;stroke-width:0.292472"
           id="path12606" />
      </g>
      <g
         aria-label="4"
         id="text12595"
         style="font-style:normal;font-weight:normal;font-size:11.6989px;line-height:1.25;font-family:sans-serif;fill:#333333;fill-opacity:1;stroke:none;stroke-width:0.292472">
        <path
           d="m 1098.0217,4729.1314 h -1.2624 v 2.3935 h -1.0968 v -2.3935 h -4.0729 v -1.3138 l 4.1186,-4.7984 h 1.0511 v 5.1982 h 1.2624 z m -2.3592,-0.914 v -3.8387 l -3.296,3.8387 z"
           style="white-space:pre;fill:#333333;fill-opacity:1;stroke-width:0.292472"
           id="path12603" />
      </g>
      <path
         style="color:#000000;font-style:normal;font-variant:normal;font-weight:normal;font-stretch:normal;font-size:medium;line-height:normal;font-family:sans-serif;font-variant-ligatures:normal;font-variant-position:normal;font-variant-caps:normal;font-variant-numeric:normal;font-variant-alternates:normal;font-variant-east-asian:normal;font-feature-settings:normal;font-variation-settings:normal;text-indent:0;text-align:start;text-decoration:none;text-decoration-line:none;text-decoration-style:solid;text-decoration-color:#000000;letter-spacing:normal;word-spacing:normal;text-transform:none;writing-mode:lr-tb;direction:ltr;text-orientation:mixed;dominant-baseline:auto;baseline-shift:baseline;text-anchor:start;white-space:normal;shape-padding:0;shape-margin:0;inline-size:0;clip-rule:nonzero;display:inline;overflow:visible;visibility:visible;opacity:1;isolation:auto;mix-blend-mode:normal;color-interpolation:sRGB;color-interpolation-filters:linearRGB;solid-color:#000000;solid-opacity:1;vector-effect:none;fill:#333333;fill-opacity:1;fill-rule:nonzero;stroke:none;stroke-linecap:butt;stroke-linejoin:miter;stroke-miterlimit:4;stroke-dasharray:none;stroke-dashoffset:0;stroke-opacity:1;color-rendering:auto;image-rendering:auto;shape-rendering:auto;text-rendering:auto;enable-background:accumulate;stop-color:#000000;stop-opacity:1"
         d="m 1092.3516,4717.4414 -5.9473,12.8828 0.9082,0.4199 5.9473,-12.8828 z"
         id="path12597" />
    </g>
    <path
       style="color:#000000;font-style:normal;font-variant:normal;font-weight:normal;font-stretch:normal;font-size:medium;line-height:normal;font-family:sans-serif;font-variant-ligatures:normal;font-variant-position:normal;font-variant-caps:normal;font-variant-numeric:normal;font-variant-alternates:normal;font-variant-east-asian:normal;font-feature-settings:normal;font-variation-settings:normal;text-indent:0;text-align:start;text-decoration:none;text-decoration-line:none;text-decoration-style:solid;text-decoration-color:#000000;letter-spacing:normal;word-spacing:normal;text-transform:none;writing-mode:lr-tb;direction:ltr;text-orientation:mixed;dominant-baseline:auto;baseline-shift:baseline;text-anchor:start;white-space:normal;shape-padding:0;shape-margin:0;inline-size:0;clip-rule:nonzero;display:inline;overflow:visible;visibility:visible;opacity:1;isolation:auto;mix-blend-mode:normal;color-interpolation:sRGB;color-interpolation-filters:linearRGB;solid-color:#000000;solid-opacity:1;vector-effect:none;fill:#333333;fill-opacity:1;fill-rule:nonzero;stroke:none;stroke-linecap:butt;stroke-linejoin:miter;stroke-miterlimit:4;stroke-dasharray:none;stroke-dashoffset:0;stroke-opacity:1;color-rendering:auto;image-rendering:auto;shape-rendering:auto;text-rendering:auto;enable-background:accumulate;stop-color:#000000;stop-opacity:1"
       d="m 1114.9883,4743.4883 v 68.5078 h -79.3496 v 1 h 80.3496 v -69.5078 z"
       id="path12628" />
    <path
       style="color:#000000;font-style:normal;font-variant:normal;font-weight:normal;font-stretch:normal;font-size:medium;line-height:normal;font-family:sans-serif;font-variant-ligatures:normal;font-variant-position:normal;font-variant-caps:normal;font-variant-numeric:normal;font-variant-alternates:normal;font-variant-east-asian:normal;font-feature-settings:normal;font-variation-settings:normal;text-indent:0;text-align:start;text-decoration:none;text-decoration-line:none;text-decoration-style:solid;text-decoration-color:#000000;letter-spacing:normal;word-spacing:normal;text-transform:none;writing-mode:lr-tb;direction:ltr;text-orientation:mixed;dominant-baseline:auto;baseline-shift:baseline;text-anchor:start;white-space:normal;shape-padding:0;shape-margin:0;inline-size:0;clip-rule:nonzero;display:inline;overflow:visible;visibility:visible;opacity:1;isolation:auto;mix-blend-mode:normal;color-interpolation:sRGB;color-interpolation-filters:linearRGB;solid-color:#000000;solid-opacity:1;vector-effect:none;fill:#333333;fill-opacity:1;fill-rule:nonzero;stroke:none;stroke-linecap:butt;stroke-linejoin:miter;stroke-miterlimit:4;stroke-dasharray:none;stroke-dashoffset:0;stroke-opacity:1;color-rendering:auto;image-rendering:auto;shape-rendering:auto;text-rendering:auto;enable-background:accumulate;stop-color:#000000;stop-opacity:1"
       d="m 1028.6387,4642.0645 v 1 h 86.3359 v 65.6269 h 1 v -66.6269 z"
       id="path12634" />
  </g>
</svg>
