<?xml version="1.0" encoding="UTF-8" standalone="no"?>
<svg
   xmlns:dc="http://purl.org/dc/elements/1.1/"
   xmlns:cc="http://creativecommons.org/ns#"
   xmlns:rdf="http://www.w3.org/1999/02/22-rdf-syntax-ns#"
   xmlns:svg="http://www.w3.org/2000/svg"
   xmlns="http://www.w3.org/2000/svg"
   xmlns:sodipodi="http://sodipodi.sourceforge.net/DTD/sodipodi-0.dtd"
   xmlns:inkscape="http://www.inkscape.org/namespaces/inkscape"
   viewBox="0 0 512 512"
   width="512"
   height="512"
   version="1.1"
   id="svg125"
   sodipodi:docname="red-fox.svg"
   inkscape:version="1.0.2 (e86c870879, 2021-01-15, custom)">
  <sodipodi:namedview
     pagecolor="#ffffff"
     bordercolor="#666666"
     borderopacity="1"
     objecttolerance="10"
     gridtolerance="10"
     guidetolerance="10"
     inkscape:pageopacity="0"
     inkscape:pageshadow="2"
     inkscape:window-width="1366"
     inkscape:window-height="715"
     id="namedview3602"
     showgrid="false"
     inkscape:zoom="1.0703125"
     inkscape:cx="-41.920848"
     inkscape:cy="245.86611"
     inkscape:window-x="-8"
     inkscape:window-y="-8"
     inkscape:window-maximized="1"
     inkscape:current-layer="g4210" />
  <metadata
     id="metadata131">
    <rdf:RDF>
      <cc:Work
         rdf:about="">
        <dc:format>image/svg+xml</dc:format>
        <dc:type
           rdf:resource="http://purl.org/dc/dcmitype/StillImage" />
        <dc:title></dc:title>
      </cc:Work>
    </rdf:RDF>
  </metadata>
  <defs
     id="defs129" />
  <style
     id="style2">
		tspan { white-space:pre }
		.shp0 { fill: #e7d5b8 } 
		.shp1 { fill: #15120f } 
	</style>
  <g
     id="g4210"
     transform="matrix(2.6187968,0,0,2.6187968,-145.93113,-6486.1422)">
    <path
       style="fill:#333333;fill-opacity:1;stroke:none;stroke-width:1px;stroke-linecap:butt;stroke-linejoin:miter;stroke-opacity:1"
       d="m 78.415356,2561.0911 c 0,0 -0.01768,2.6274 1.543263,4.1252 1.560934,1.4979 2.837501,2.8277 1.237855,3.9928 -1.599656,1.165 -2.901272,-0.7312 -2.901272,-0.7312 0,0 -2.808455,-4.8247 0.120154,-7.3868 z"
       id="path4183-6" />
    <path
       id="Path 61"
       class="shp1"
       d="m 95.75,2547.75 c -1.44,1.51 -3.1,3.99 -3.69,5.5 -0.71,1.84 -0.75,4.16 -0.11,7 0.54,2.42 2.04,5.22 3.5,6.5 1.4,1.24 3.25,2.25 4.1,2.25 0.85,0 2.58,-1.01 3.86,-2.25 1.38,-1.34 2.65,-4.16 3.14,-6.99 0.45,-2.6 0.54,-5.75 0.19,-7 -0.34,-1.24 -1.54,-3.5 -2.68,-5.01 -1.13,-1.51 -2.88,-2.75 -3.88,-2.75 -1,0 -2.99,1.24 -4.43,2.75 z m 25.31,0 c -1.53,1.51 -3.3,4.55 -3.92,6.75 -0.62,2.2 -1.13,5.24 -1.13,6.75 -0.01,1.51 0.89,3.65 1.99,4.75 1.19,1.19 3.32,1.99 5.25,1.98 1.79,0 3.75,-0.34 4.35,-0.75 0.61,-0.4 1.62,-1.74 2.25,-2.98 0.63,-1.24 1.16,-4.16 1.17,-6.5 0.01,-2.34 -0.44,-5.71 -1,-7.5 -0.56,-1.79 -1.92,-3.7 -3.02,-4.25 -1.1,-0.55 -2.26,-1 -2.58,-1 -0.31,0 -1.83,1.24 -3.36,2.75 z m 13.28,24.25 c -1.18,0.48 -3.32,2.59 -4.75,4.69 -1.66,2.44 -2.6,5.16 -2.59,7.56 0,2.41 0.71,4.46 2,5.75 1.24,1.24 3.33,2 5.5,2 1.93,0 4.4,-0.45 5.5,-1 1.1,-0.55 2.68,-2.57 3.5,-4.5 0.82,-1.93 1.5,-4.85 1.5,-6.5 0,-1.65 -0.52,-4.01 -1.15,-5.25 -0.63,-1.24 -1.64,-2.58 -2.25,-2.98 -0.6,-0.41 -2,-0.72 -3.1,-0.69 -1.1,0.03 -2.97,0.44 -4.16,0.92 z m -53.36,2.14 c -2.01,2.08 -2.22,3.08 -1.77,8.36 0.45,5.33 0.88,6.31 3.9,8.75 1.86,1.51 4.63,2.97 6.14,3.25 1.51,0.27 3.45,-0.06 4.29,-0.75 3.078164,-1.5332 3.460504,-8.4427 3.48,-11 0.01,-3.44 -0.56,-7.09 -1.25,-8.11 -0.9,-1.32 -2.92,-2.01 -6.89,-2.37 -4.95,-0.44 -5.88,-0.22 -7.9,1.87 z m 25.27,26.61 c -1.79,0.96 -5.74,3.78 -8.79,6.25 -3.04,2.47 -5.51,5.06 -5.5,5.75 0.02,0.69 0.38,1.42 0.79,1.64 0.41,0.21 4.58,-1.15 9.25,-3.02 5.36,-2.15 9.24,-3.15 10.5,-2.73 1.1,0.37 4.14,1.96 6.75,3.52 2.61,1.56 5.65,2.84 6.75,2.84 1.23,0 2.01,-0.68 2.03,-1.75 0.02,-0.96 -2.57,-4.56 -5.75,-7.99 -4.96,-5.36 -6.28,-6.25 -9.28,-6.26 -1.92,0 -4.96,0.78 -6.75,1.75 z"
       style="fill:#333333;fill-opacity:1"
       sodipodi:nodetypes="scccscsccsssscsccsssssscccsssssscscscccccccsccccccsscccc" />
    <g
       aria-label="inches"
       id="text2538-7-9-6-4-9-4-2"
       style="font-style:normal;font-weight:normal;font-size:16.366px;line-height:1.25;font-family:sans-serif;fill:#333333;fill-opacity:1;stroke:none;stroke-width:0.409151">
      <path
         d="m 181.60732,2570.8231 h -1.69413 v -1.5583 h 1.69413 z m -0.0959,10.4206 h -1.50235 v -8.9262 h 1.50235 z"
         style="white-space:pre;fill:#333333;fill-opacity:1;stroke-width:0.409151"
         id="path3249" />
      <path
         d="m 191.94795,2581.2437 h -1.50235 v -5.0825 q 0,-0.6153 -0.0719,-1.1507 -0.0719,-0.5434 -0.26371,-0.8471 -0.19978,-0.3356 -0.57537,-0.4954 -0.37558,-0.1678 -0.97492,-0.1678 -0.61533,0 -1.28659,0.3036 -0.67126,0.3037 -1.28658,0.7752 v 6.6647 h -1.50235 v -8.9262 h 1.50235 v 0.9909 q 0.70322,-0.5834 1.4544,-0.911 0.75117,-0.3277 1.5423,-0.3277 1.44641,0 2.20557,0.8711 0.75917,0.871 0.75917,2.5092 z"
         style="white-space:pre;fill:#333333;fill-opacity:1;stroke-width:0.409151"
         id="path3251" />
      <path
         d="m 201.44151,2580.6843 q -0.75118,0.3596 -1.43043,0.5594 -0.67126,0.1997 -1.43043,0.1997 -0.96693,0 -1.77404,-0.2797 -0.80712,-0.2876 -1.38248,-0.863 -0.58336,-0.5754 -0.90301,-1.4544 -0.31965,-0.879 -0.31965,-2.0538 0,-2.1895 1.19868,-3.4362 1.20668,-1.2466 3.1805,-1.2466 0.76716,0 1.50235,0.2158 0.74318,0.2157 1.35851,0.5274 v 1.6701 h -0.0799 q -0.68725,-0.5354 -1.42244,-0.8231 -0.7272,-0.2876 -1.42243,-0.2876 -1.2786,0 -2.02178,0.863 -0.73519,0.8551 -0.73519,2.5172 0,1.6143 0.71921,2.4853 0.7272,0.8631 2.03776,0.8631 0.45549,0 0.92698,-0.1199 0.47148,-0.1199 0.84706,-0.3117 0.32764,-0.1678 0.61533,-0.3516 0.28768,-0.1918 0.4555,-0.3276 h 0.0799 z"
         style="white-space:pre;fill:#333333;fill-opacity:1;stroke-width:0.409151"
         id="path3253" />
      <path
         d="m 210.83118,2581.2437 h -1.50235 v -5.0825 q 0,-0.6153 -0.0719,-1.1507 -0.0719,-0.5434 -0.26371,-0.8471 -0.19978,-0.3356 -0.57537,-0.4954 -0.37558,-0.1678 -0.97492,-0.1678 -0.61533,0 -1.28659,0.3036 -0.67126,0.3037 -1.28658,0.7752 v 6.6647 h -1.50235 v -12.4344 h 1.50235 v 4.4991 q 0.70322,-0.5834 1.4544,-0.911 0.75117,-0.3277 1.5423,-0.3277 1.44641,0 2.20557,0.8711 0.75917,0.871 0.75917,2.5092 z"
         style="white-space:pre;fill:#333333;fill-opacity:1;stroke-width:0.409151"
         id="path3255" />
      <path
         d="m 221.19578,2576.9364 h -6.57677 q 0,0.8231 0.24773,1.4384 0.24773,0.6073 0.67925,0.9989 0.41555,0.3836 0.98292,0.5754 0.57537,0.1918 1.26261,0.1918 0.911,0 1.82999,-0.3596 0.92698,-0.3676 1.31855,-0.7192 h 0.0799 v 1.6382 q -0.75916,0.3196 -1.55029,0.5354 -0.79113,0.2157 -1.66217,0.2157 -2.22156,0 -3.46819,-1.1987 -1.24663,-1.2066 -1.24663,-3.4202 0,-2.1896 1.19069,-3.4762 1.19868,-1.2866 3.14854,-1.2866 1.80601,0 2.78094,1.0549 0.98292,1.0548 0.98292,2.9967 z m -1.46239,-1.1507 q -0.008,-1.1827 -0.59934,-1.83 -0.58336,-0.6473 -1.78204,-0.6473 -1.20667,0 -1.92588,0.7112 -0.71122,0.7112 -0.80712,1.7661 z"
         style="white-space:pre;fill:#333333;fill-opacity:1;stroke-width:0.409151"
         id="path3257" />
      <path
         d="m 229.85026,2578.6705 q 0,1.2226 -1.01488,2.0058 -1.00689,0.7831 -2.75697,0.7831 -0.99091,0 -1.82199,-0.2317 -0.8231,-0.2398 -1.38248,-0.5195 v -1.6861 h 0.0799 q 0.71122,0.5354 1.58226,0.8551 0.87104,0.3116 1.67016,0.3116 0.99091,0 1.5503,-0.3196 0.55938,-0.3197 0.55938,-1.0069 0,-0.5274 -0.30366,-0.7991 -0.30367,-0.2718 -1.16672,-0.4635 -0.31965,-0.072 -0.83908,-0.1679 -0.51144,-0.096 -0.93497,-0.2077 -1.17471,-0.3117 -1.67016,-0.911 -0.48747,-0.6074 -0.48747,-1.4864 0,-0.5514 0.22376,-1.0388 0.23174,-0.4875 0.69523,-0.8711 0.44751,-0.3756 1.13475,-0.5913 0.69524,-0.2238 1.5503,-0.2238 0.79912,0 1.61422,0.1998 0.8231,0.1918 1.3665,0.4715 v 1.6062 h -0.0799 q -0.57537,-0.4235 -1.39846,-0.7112 -0.8231,-0.2957 -1.61423,-0.2957 -0.82309,0 -1.39047,0.3197 -0.56737,0.3116 -0.56737,0.9349 0,0.5514 0.34362,0.8311 0.33563,0.2797 1.0868,0.4555 0.41554,0.096 0.92698,0.1918 0.51943,0.096 0.86305,0.1758 1.04685,0.2397 1.61423,0.8231 0.56737,0.5914 0.56737,1.5663 z"
         style="white-space:pre;fill:#333333;fill-opacity:1;stroke-width:0.409151"
         id="path3259" />
    </g>
    <text
       xml:space="preserve"
       style="font-style:normal;font-weight:normal;font-size:18.5945px;line-height:1.25;font-family:sans-serif;fill:#333333;fill-opacity:1;stroke:none;stroke-width:0.464862"
       x="161.78217"
       y="2581.8184"
       id="text3525-83"><tspan
         id="tspan3523-19"
         x="161.78217"
         y="2581.8184"
         style="fill:#333333;fill-opacity:1;stroke-width:0.464862">2</tspan></text>
    <path
       style="fill:#333333;fill-opacity:1;stroke:none;stroke-width:1px;stroke-linecap:butt;stroke-linejoin:miter;stroke-opacity:1"
       d="m 142.94891,2559.7372 c 0,0 0.67153,2.5402 -0.46716,4.3796 -1.13868,1.8394 -2.04379,3.4453 -0.20438,4.1752 1.83942,0.7299 2.62774,-1.4307 2.62774,-1.4307 0,0 1.51825,-5.3722 -1.9562,-7.1241 z"
       id="path4183" />
    <path
       style="fill:#333333;fill-opacity:1;stroke:none;stroke-width:1px;stroke-linecap:butt;stroke-linejoin:miter;stroke-opacity:1"
       d="m 124.81751,2534.9781 c 0,0 1.17961,3.3393 0.1752,4.4963 -0.99002,1.1405 -2.12548,4.0083 1.81021,3.4745 4.1097,-0.5574 1.37226,-6.5401 1.37226,-6.5401 0,0 -1.10949,-1.3431 -3.35767,-1.4307 z"
       id="path4185"
       sodipodi:nodetypes="csscc" />
    <path
       style="fill:#333333;fill-opacity:1;stroke:none;stroke-width:1px;stroke-linecap:butt;stroke-linejoin:miter;stroke-opacity:1"
       d="m 102.89051,2535.3285 c 0,0 -1.57664,2.7153 -1.05109,3.854 0.52554,1.1387 2.45255,5.1971 -0.26278,4.4671 -2.715326,-0.7299 -2.510946,-2.9197 -2.510946,-2.9197 0,0 -0.437957,-5.6934 3.824816,-5.4014 z"
       id="path4187" />
    <path
       style="fill:none;stroke:#333333;stroke-width:1px;stroke-linecap:butt;stroke-linejoin:miter;stroke-opacity:1"
       d="m 143.4859,2534.5185 h 51.02505 v 26.0236"
       id="path4189" />
    <path
       style="fill:none;stroke:#333333;stroke-width:1px;stroke-linecap:butt;stroke-linejoin:miter;stroke-opacity:1"
       d="m 194.48175,2595.3869 v 19.1327 h -51.0219"
       id="path4191" />
  </g>
</svg>
