<?xml version="1.0" encoding="UTF-8" standalone="no"?>
<svg
   xmlns:dc="http://purl.org/dc/elements/1.1/"
   xmlns:cc="http://creativecommons.org/ns#"
   xmlns:rdf="http://www.w3.org/1999/02/22-rdf-syntax-ns#"
   xmlns:svg="http://www.w3.org/2000/svg"
   xmlns="http://www.w3.org/2000/svg"
   xmlns:sodipodi="http://sodipodi.sourceforge.net/DTD/sodipodi-0.dtd"
   xmlns:inkscape="http://www.inkscape.org/namespaces/inkscape"
   viewBox="0 0 512 512"
   width="512"
   height="512"
   version="1.1"
   id="svg125"
   sodipodi:docname="skunk.svg"
   inkscape:version="1.0.2 (e86c870879, 2021-01-15, custom)">
  <sodipodi:namedview
     pagecolor="#ffffff"
     bordercolor="#666666"
     borderopacity="1"
     objecttolerance="10"
     gridtolerance="10"
     guidetolerance="10"
     inkscape:pageopacity="0"
     inkscape:pageshadow="2"
     inkscape:window-width="1366"
     inkscape:window-height="715"
     id="namedview7008"
     showgrid="false"
     inkscape:zoom="2"
     inkscape:cx="140.80479"
     inkscape:cy="207.85589"
     inkscape:window-x="-8"
     inkscape:window-y="-8"
     inkscape:window-maximized="1"
     inkscape:current-layer="g16583"
     inkscape:document-rotation="0" />
  <metadata
     id="metadata131">
    <rdf:RDF>
      <cc:Work
         rdf:about="">
        <dc:format>image/svg+xml</dc:format>
        <dc:type
           rdf:resource="http://purl.org/dc/dcmitype/StillImage" />
        <dc:title></dc:title>
      </cc:Work>
    </rdf:RDF>
  </metadata>
  <defs
     id="defs129" />
  <style
     id="style2">
		tspan { white-space:pre }
		.shp0 { fill: #e7d5b8 } 
		.shp1 { fill: #15120f } 
	</style>
  <g
     id="g16583"
     transform="matrix(3.0217216,0,0,3.0217216,-766.72221,-15490.73)">
    <g
       id="g16546">
      <g
         id="g16520">
        <path
           style="fill:#333333;fill-opacity:1;stroke:none;stroke-width:1px;stroke-linecap:butt;stroke-linejoin:miter;stroke-opacity:1"
           d="m 272.89902,5189.9428 c -0.57452,0.8839 -0.57452,1.5026 -0.26516,1.8561 0.30936,0.3536 2.47487,2.9169 3.7565,1.3701 1.28163,-1.5468 -1.94454,-3.8891 -3.49134,-3.2262 z"
           id="path16362" />
        <path
           style="fill:#333333;fill-opacity:1;stroke:none;stroke-width:1px;stroke-linecap:butt;stroke-linejoin:miter;stroke-opacity:1"
           d="m 280.54461,5184.1976 c -1.19324,0 -2.03293,0 -2.16551,1.149 -0.13258,1.149 -0.22097,3.403 0.70711,3.403 0.92807,0 1.67938,0.1325 1.72357,-0.9281 0.0442,-1.0607 0.35355,-3.5356 -0.26517,-3.6239 z"
           id="path16364" />
        <path
           style="fill:#333333;fill-opacity:1;stroke:none;stroke-width:1px;stroke-linecap:butt;stroke-linejoin:miter;stroke-opacity:1"
           d="m 286.82019,5187.6447 c 0.0884,-1.37 -0.0884,-3.3146 -1.45841,-3.3146 -1.37002,0 -2.07713,1.3259 -2.07713,2.4307 0,1.1049 0.0884,2.5633 1.37002,3.0052 1.28163,0.442 2.07713,-1.5468 2.16552,-2.1213 z"
           id="path16366" />
        <path
           style="fill:#333333;fill-opacity:1;stroke:none;stroke-width:1px;stroke-linecap:butt;stroke-linejoin:miter;stroke-opacity:1"
           d="m 289.51603,5186.8934 c -0.66291,1.3258 -0.7513,3.3588 -0.53033,3.8007 0.22097,0.4419 0.35356,0.7955 0.7513,0.9281 0.39775,0.1326 1.06066,0.044 1.23744,-1.4142 0.17678,-1.4584 0.0884,-4.4195 -1.45841,-3.3146 z"
           id="path16368" />
        <path
           style="fill:#333333;fill-opacity:1;stroke:none;stroke-width:1px;stroke-linecap:butt;stroke-linejoin:miter;stroke-opacity:1"
           d="m 293.62609,5190.1196 c -0.7513,0.2651 -1.5468,0.928 -1.41421,1.9887 0.13258,1.0607 0.97227,0.6629 1.19324,0.4419 0.22097,-0.2209 1.37002,-1.7235 0.22097,-2.4306 z"
           id="path16370" />
        <path
           style="fill:#333333;fill-opacity:1;stroke:none;stroke-width:1px;stroke-linecap:butt;stroke-linejoin:miter;stroke-opacity:1"
           d="m 288,5200.5 c 1.6875,-1.5625 4.0625,-2.875 1.8125,-4.8125 -2.25,-1.9375 -6.75,-4.0625 -8,-4.0625 -1.25,0 -3.0625,0.3125 -3.25,1.8125 -0.1875,1.5 0.375,3.5 -0.4375,5.125 -0.8125,1.625 1.0625,2.625 1.875,2.5625 0.8125,-0.062 3.25,0.3125 8,-0.625 z"
           id="path16372" />
        <path
           style="fill:#333333;fill-opacity:1;stroke:none;stroke-width:1px;stroke-linecap:butt;stroke-linejoin:miter;stroke-opacity:1"
           d="m 272.46875,5184.4687 c 0,0 -0.46875,3.0625 0.0312,3.4688 0.5,0.4062 -0.0312,-3.4688 -0.0312,-3.4688 z"
           id="path16374" />
        <path
           style="fill:#333333;fill-opacity:1;stroke:none;stroke-width:1px;stroke-linecap:butt;stroke-linejoin:miter;stroke-opacity:1"
           d="m 279.90215,5178.7464 c -0.0729,0.049 -0.87487,3.1912 -0.15938,3.4652 0.32822,0.1357 0.0948,-3.5943 0.15938,-3.4652 z"
           id="path16376"
           sodipodi:nodetypes="ccc" />
        <path
           style="fill:#333333;fill-opacity:1;stroke:none;stroke-width:1px;stroke-linecap:butt;stroke-linejoin:miter;stroke-opacity:1"
           d="m 285.59686,5178.3563 c 0,0 0.45517,3.0645 -0.0466,3.4685 -0.5018,0.404 0.0466,-3.4685 0.0466,-3.4685 z"
           id="path16376-7" />
        <path
           style="fill:#333333;fill-opacity:1;stroke:none;stroke-width:1px;stroke-linecap:butt;stroke-linejoin:miter;stroke-opacity:1"
           d="m 290.51033,5181.1882 c 0,0 0.52475,3.0533 0.0323,3.4686 -0.49248,0.4153 -0.0323,-3.4686 -0.0323,-3.4686 z"
           id="path16376-7-6" />
        <path
           style="fill:#333333;fill-opacity:1;stroke:none;stroke-width:0.720591px;stroke-linecap:butt;stroke-linejoin:miter;stroke-opacity:1"
           d="m 294.57206,5186.5477 c 0,0 0.28886,2.2136 -0.0778,2.4984 -0.3667,0.2846 0.0778,-2.4984 0.0778,-2.4984 z"
           id="path16376-7-6-7" />
      </g>
      <g
         id="g16507">
        <path
           style="fill:#333333;fill-opacity:1;stroke:none;stroke-width:1px;stroke-linecap:butt;stroke-linejoin:miter;stroke-opacity:1"
           d="m 305.46875,5218.1562 c 0,0 -1.21875,2.5 0.0312,4.4063 0.4375,-2.625 -0.0312,-4.4063 -0.0312,-4.4063 z"
           id="path16438"
           sodipodi:nodetypes="ccc" />
        <path
           style="fill:#333333;fill-opacity:1;stroke:none;stroke-width:1px;stroke-linecap:butt;stroke-linejoin:miter;stroke-opacity:1"
           d="m 311.43634,5207.3111 c 0,0 0.19068,4.216 1.10486,3.9775 2.03292,-0.5303 0.26516,-2.4307 -1.10486,-3.9775 z"
           id="path16442"
           sodipodi:nodetypes="csc" />
        <path
           style="fill:#333333;fill-opacity:1;stroke:none;stroke-width:1px;stroke-linecap:butt;stroke-linejoin:miter;stroke-opacity:1"
           d="m 318.46322,5204.792 c 0,0 -0.57453,4.7288 -0.13259,4.8614 0.44195,0.1326 1.45841,0.221 1.5468,-0.1326 0.0884,-0.3535 -1.41421,-4.7288 -1.41421,-4.7288 z"
           id="path16444" />
        <path
           style="fill:#333333;fill-opacity:1;stroke:none;stroke-width:1px;stroke-linecap:butt;stroke-linejoin:miter;stroke-opacity:1"
           d="m 324.51782,5210.1837 c 0,0 0.19887,2.3423 0.0221,2.6075 -0.17678,0.2651 -2.03294,0.5966 -0.0221,-2.6075 z"
           id="path16446" />
        <path
           style="fill:#333333;fill-opacity:1;stroke:none;stroke-width:1px;stroke-linecap:butt;stroke-linejoin:miter;stroke-opacity:1"
           d="m 308.51953,5222.8675 c -1.06066,-0.442 -2.65165,1.149 -2.16552,3.0935 0.48614,1.9446 3.22618,0.5746 3.40295,-1.0164 0.17678,-1.591 -1.23743,-2.0771 -1.23743,-2.0771 z"
           id="path16448" />
        <path
           style="fill:#333333;fill-opacity:1;stroke:none;stroke-width:1px;stroke-linecap:butt;stroke-linejoin:miter;stroke-opacity:1"
           d="m 311.25957,5216.8129 c -1.23744,-0.9723 -2.60746,-1.4143 -3.00521,0.2651 -0.39775,1.6794 0.39775,4.6404 2.2981,3.5356 1.90035,-1.1049 0.70711,-3.8007 0.70711,-3.8007 z"
           id="path16450" />
        <path
           style="fill:#333333;fill-opacity:1;stroke:none;stroke-width:1px;stroke-linecap:butt;stroke-linejoin:miter;stroke-opacity:1"
           d="m 313.46927,5217.9177 c 1.59099,0.3094 3.22618,-0.088 3.18198,-1.591 -0.0442,-1.5026 -0.22097,-3.9775 -2.2097,-3.8449 -1.98874,0.1326 -1.94455,3.1378 -1.94455,3.1378 0,0 -0.13258,1.8562 0.97227,2.2981 z"
           id="path16452" />
        <path
           style="fill:#333333;fill-opacity:1;stroke:none;stroke-width:1px;stroke-linecap:butt;stroke-linejoin:miter;stroke-opacity:1"
           d="m 320.27518,5211.5096 c -1.28163,-0.221 -3.0936,-0.2652 -2.87262,1.8561 0.22097,2.1213 1.10485,3.403 1.98873,3.5355 0.88389,0.1326 2.60746,-0.5745 2.38649,-2.6074 -0.22097,-2.0329 -1.5026,-2.7842 -1.5026,-2.7842 z"
           id="path16454" />
        <path
           style="fill:#333333;fill-opacity:1;stroke:none;stroke-width:1px;stroke-linecap:butt;stroke-linejoin:miter;stroke-opacity:1"
           d="m 324.69459,5215.5754 c -1.14904,-0.7955 -2.47487,-0.221 -2.47487,1.1491 0,1.37 0.17678,2.3423 1.37002,2.1213 1.19324,-0.221 1.5026,-1.1491 1.10485,-3.2704 z"
           id="path16456" />
        <path
           style="fill:#333333;fill-opacity:1;stroke:none;stroke-width:1px;stroke-linecap:butt;stroke-linejoin:miter;stroke-opacity:1"
           d="m 314.25,5243 c 2.8125,0.3125 8.0625,-1.4375 9.5625,-10.6875 1.5,-9.25 -0.6875,-10.5625 -1.875,-10.9375 -1.1875,-0.375 -4.625,-1.8125 -5.625,-0.6875 -1,1.125 -4.0625,1.6875 -3.75,3.6875 0.3125,2 -2.8125,4.5625 -3.625,4.9375 -0.8125,0.375 0.1875,1.625 0.8125,2.1875 0.625,0.5625 3.5625,5.875 3.0625,8.625 -0.5,2.75 1.4375,2.875 1.4375,2.875 z"
           id="path16458" />
      </g>
    </g>
    <g
       id="g16481">
      <g
         aria-label="inch"
         id="text2538-7-9-6-4-9-4-2-5-7-8-6-3"
         style="font-style:normal;font-weight:normal;font-size:16.366px;line-height:1.25;font-family:sans-serif;fill:#333333;fill-opacity:1;stroke:none;stroke-width:0.409151">
        <path
           d="m 375.42036,5216.6864 h -1.69414 v -1.5583 h 1.69414 z m -0.0959,10.4205 h -1.50234 v -8.9261 h 1.50234 z"
           style="white-space:pre;fill:#333333;fill-opacity:1;stroke-width:0.409151"
           id="path3032" />
        <path
           d="m 385.76098,5227.1069 h -1.50234 v -5.0824 q 0,-0.6153 -0.0719,-1.1507 -0.0719,-0.5434 -0.26371,-0.8471 -0.19979,-0.3356 -0.57537,-0.4954 -0.37559,-0.1678 -0.97493,-0.1678 -0.61532,0 -1.28658,0.3036 -0.67127,0.3037 -1.28659,0.7752 v 6.6646 h -1.50235 v -8.9261 h 1.50235 v 0.9909 q 0.70323,-0.5834 1.4544,-0.911 0.75117,-0.3277 1.5423,-0.3277 1.44641,0 2.20558,0.8711 0.75916,0.871 0.75916,2.5092 z"
           style="white-space:pre;fill:#333333;fill-opacity:1;stroke-width:0.409151"
           id="path3034" />
        <path
           d="m 395.25454,5226.5475 q -0.75117,0.3597 -1.43042,0.5594 -0.67127,0.1998 -1.43043,0.1998 -0.96694,0 -1.77405,-0.2797 -0.80711,-0.2877 -1.38248,-0.863 -0.58336,-0.5754 -0.90301,-1.4544 -0.31964,-0.8791 -0.31964,-2.0538 0,-2.1896 1.19868,-3.4362 1.20667,-1.2466 3.1805,-1.2466 0.76716,0 1.50235,0.2157 0.74318,0.2158 1.3585,0.5275 v 1.6701 h -0.0799 q -0.68724,-0.5354 -1.42244,-0.8231 -0.7272,-0.2877 -1.42243,-0.2877 -1.27859,0 -2.02178,0.8631 -0.73519,0.8551 -0.73519,2.5172 0,1.6143 0.71921,2.4853 0.7272,0.863 2.03776,0.863 0.4555,0 0.92698,-0.1198 0.47148,-0.1199 0.84707,-0.3117 0.32764,-0.1678 0.61532,-0.3516 0.28768,-0.1918 0.4555,-0.3276 h 0.0799 z"
           style="white-space:pre;fill:#333333;fill-opacity:1;stroke-width:0.409151"
           id="path3036" />
        <path
           d="m 404.64421,5227.1069 h -1.50234 v -5.0824 q 0,-0.6153 -0.0719,-1.1507 -0.0719,-0.5434 -0.26371,-0.8471 -0.19978,-0.3356 -0.57537,-0.4954 -0.37559,-0.1678 -0.97493,-0.1678 -0.61532,0 -1.28658,0.3036 -0.67127,0.3037 -1.28659,0.7752 v 6.6646 h -1.50235 v -12.4343 h 1.50235 v 4.4991 q 0.70323,-0.5834 1.4544,-0.911 0.75117,-0.3277 1.5423,-0.3277 1.44641,0 2.20558,0.8711 0.75916,0.871 0.75916,2.5092 z"
           style="white-space:pre;fill:#333333;fill-opacity:1;stroke-width:0.409151"
           id="path3038" />
      </g>
      <g
         aria-label="1"
         id="text1306-3"
         style="font-style:normal;font-weight:normal;font-size:40px;line-height:1.25;font-family:sans-serif;fill:#333333;fill-opacity:1;stroke:none"
         transform="matrix(0.48166509,0,0,0.48166509,261.2449,2718.2279)">
        <path
           d="m 217.04045,5209.9629 h -15.74219 v -2.9688 h 6.05469 v -19.4921 h -6.05469 v -2.6563 q 1.23047,0 2.63672,-0.1953 1.40625,-0.2149 2.12891,-0.6055 0.89844,-0.4883 1.40625,-1.2304 0.52734,-0.7618 0.60547,-2.0313 h 3.02734 v 26.2109 h 5.9375 z"
           style="white-space:pre;fill:#333333;fill-opacity:1"
           id="path1308-1" />
      </g>
      <path
         style="color:#000000;font-style:normal;font-variant:normal;font-weight:normal;font-stretch:normal;font-size:medium;line-height:normal;font-family:sans-serif;font-variant-ligatures:normal;font-variant-position:normal;font-variant-caps:normal;font-variant-numeric:normal;font-variant-alternates:normal;font-variant-east-asian:normal;font-feature-settings:normal;font-variation-settings:normal;text-indent:0;text-align:start;text-decoration:none;text-decoration-line:none;text-decoration-style:solid;text-decoration-color:#000000;letter-spacing:normal;word-spacing:normal;text-transform:none;writing-mode:lr-tb;direction:ltr;text-orientation:mixed;dominant-baseline:auto;baseline-shift:baseline;text-anchor:start;white-space:normal;shape-padding:0;shape-margin:0;inline-size:0;clip-rule:nonzero;display:inline;overflow:visible;visibility:visible;opacity:1;isolation:auto;mix-blend-mode:normal;color-interpolation:sRGB;color-interpolation-filters:linearRGB;solid-color:#000000;solid-opacity:1;vector-effect:none;fill:#333333;fill-opacity:1;fill-rule:nonzero;stroke:none;stroke-linecap:butt;stroke-linejoin:miter;stroke-miterlimit:4;stroke-dasharray:none;stroke-dashoffset:0;stroke-opacity:1;color-rendering:auto;image-rendering:auto;shape-rendering:auto;text-rendering:auto;enable-background:accumulate;stop-color:#000000;stop-opacity:1"
         d="m 325.45312,5203 v 1 h 42.52735 v 2.5156 h 1 V 5203 Z"
         id="path16460" />
      <path
         style="color:#000000;font-style:normal;font-variant:normal;font-weight:normal;font-stretch:normal;font-size:medium;line-height:normal;font-family:sans-serif;font-variant-ligatures:normal;font-variant-position:normal;font-variant-caps:normal;font-variant-numeric:normal;font-variant-alternates:normal;font-variant-east-asian:normal;font-feature-settings:normal;font-variation-settings:normal;text-indent:0;text-align:start;text-decoration:none;text-decoration-line:none;text-decoration-style:solid;text-decoration-color:#000000;letter-spacing:normal;word-spacing:normal;text-transform:none;writing-mode:lr-tb;direction:ltr;text-orientation:mixed;dominant-baseline:auto;baseline-shift:baseline;text-anchor:start;white-space:normal;shape-padding:0;shape-margin:0;inline-size:0;clip-rule:nonzero;display:inline;overflow:visible;visibility:visible;opacity:1;isolation:auto;mix-blend-mode:normal;color-interpolation:sRGB;color-interpolation-filters:linearRGB;solid-color:#000000;solid-opacity:1;vector-effect:none;fill:#333333;fill-opacity:1;fill-rule:nonzero;stroke:none;stroke-linecap:butt;stroke-linejoin:miter;stroke-miterlimit:4;stroke-dasharray:none;stroke-dashoffset:0;stroke-opacity:1;color-rendering:auto;image-rendering:auto;shape-rendering:auto;text-rendering:auto;enable-background:accumulate;stop-color:#000000;stop-opacity:1"
         d="m 367.98438,5239.75 v 3.25 h -39.5 v 1 h 40.5 v -4.25 z"
         id="path16462" />
    </g>
  </g>
  <path
     style="fill:#333333;fill-opacity:1;stroke:none;stroke-width:3.02172px;stroke-linecap:butt;stroke-linejoin:miter;stroke-opacity:1"
     d="m 160.93786,256.60043 c 0.1844,-0.1844 1.11874,10.49573 3.08857,10.0189 4.08228,-0.98819 -0.93363,-4.60057 -3.08857,-10.0189 z"
     id="path16442-0"
     sodipodi:nodetypes="csc" />
</svg>
