<?xml version="1.0" encoding="UTF-8" standalone="no"?>
<svg
   xmlns:dc="http://purl.org/dc/elements/1.1/"
   xmlns:cc="http://creativecommons.org/ns#"
   xmlns:rdf="http://www.w3.org/1999/02/22-rdf-syntax-ns#"
   xmlns:svg="http://www.w3.org/2000/svg"
   xmlns="http://www.w3.org/2000/svg"
   xmlns:sodipodi="http://sodipodi.sourceforge.net/DTD/sodipodi-0.dtd"
   xmlns:inkscape="http://www.inkscape.org/namespaces/inkscape"
   viewBox="0 0 512 512"
   width="512"
   height="512"
   version="1.1"
   id="svg125"
   sodipodi:docname="squirrel.svg"
   inkscape:version="1.0.2 (e86c870879, 2021-01-15, custom)">
  <sodipodi:namedview
     pagecolor="#ffffff"
     bordercolor="#666666"
     borderopacity="1"
     objecttolerance="10"
     gridtolerance="10"
     guidetolerance="10"
     inkscape:pageopacity="0"
     inkscape:pageshadow="2"
     inkscape:window-width="1366"
     inkscape:window-height="715"
     id="namedview3602"
     showgrid="false"
     inkscape:zoom="0.77152086"
     inkscape:cx="183.01798"
     inkscape:cy="328.74916"
     inkscape:window-x="-8"
     inkscape:window-y="-8"
     inkscape:window-maximized="1"
     inkscape:current-layer="svg125"
     inkscape:document-rotation="0" />
  <metadata
     id="metadata131">
    <rdf:RDF>
      <cc:Work
         rdf:about="">
        <dc:format>image/svg+xml</dc:format>
        <dc:type
           rdf:resource="http://purl.org/dc/dcmitype/StillImage" />
        <dc:title />
      </cc:Work>
    </rdf:RDF>
  </metadata>
  <defs
     id="defs129" />
  <style
     id="style2">
		tspan { white-space:pre }
		.shp0 { fill: #e7d5b8 } 
		.shp1 { fill: #15120f } 
	</style>
  <g
     id="g8229"
     transform="matrix(0.79208433,0,0,0.79208433,11.64328,53.226417)">
    <g
       aria-label="inch hind"
       id="text8172"
       style="font-style:normal;font-weight:normal;font-size:41.8747px;line-height:1.25;font-family:sans-serif;fill:#333333;fill-opacity:1;stroke:none;stroke-width:1.04687">
      <path
         d="m 381.08683,323.68391 h -4.33469 v -3.9871 h 4.33469 z m -0.24536,26.6624 h -3.84397 v -22.83888 h 3.84397 z"
         style="white-space:pre;fill:#333333;fill-opacity:1;stroke-width:1.04687"
         id="path8174" />
      <path
         d="m 407.54477,350.34631 h -3.84397 v -13.00405 q 0,-1.57439 -0.18402,-2.94432 -0.18402,-1.39037 -0.67474,-2.16734 -0.51116,-0.85876 -1.47216,-1.26769 -0.96099,-0.42938 -2.49449,-0.42938 -1.57439,0 -3.2919,0.77697 -1.71752,0.77697 -3.29191,1.98332 v 17.05249 h -3.84397 v -22.83888 h 3.84397 v 2.53538 q 1.7993,-1.4926 3.72129,-2.33092 1.92198,-0.83831 3.9462,-0.83831 3.70084,0 5.64327,2.22868 1.94243,2.22869 1.94243,6.42025 z"
         style="white-space:pre;fill:#333333;fill-opacity:1;stroke-width:1.04687"
         id="path8176" />
      <path
         d="m 431.83536,348.91505 q -1.92198,0.9201 -3.65995,1.43126 -1.71751,0.51117 -3.65994,0.51117 -2.47404,0 -4.53915,-0.71563 -2.06511,-0.73608 -3.53727,-2.20824 -1.49261,-1.47216 -2.31047,-3.72129 -0.81787,-2.24912 -0.81787,-5.25478 0,-5.60238 3.067,-8.79205 3.08744,-3.18967 8.13776,-3.18967 1.96287,0 3.84396,0.55205 1.90154,0.55206 3.47593,1.34948 v 4.27335 h -0.20446 q -1.75842,-1.36993 -3.6395,-2.10601 -1.86065,-0.73607 -3.63951,-0.73607 -3.27146,0 -5.17299,2.20823 -1.88109,2.18779 -1.88109,6.44069 0,4.13022 1.84019,6.3589 1.86065,2.20824 5.21389,2.20824 1.16546,0 2.37181,-0.3067 1.20636,-0.3067 2.16735,-0.79742 0.83831,-0.42938 1.57439,-0.89965 0.73608,-0.49072 1.16546,-0.83831 h 0.20446 z"
         style="white-space:pre;fill:#333333;fill-opacity:1;stroke-width:1.04687"
         id="path8178" />
      <path
         d="m 455.86015,350.34631 h -3.84396 v -13.00405 q 0,-1.57439 -0.18402,-2.94432 -0.18402,-1.39037 -0.67474,-2.16734 -0.51117,-0.85876 -1.47216,-1.26769 -0.96099,-0.42938 -2.49449,-0.42938 -1.57439,0 -3.29191,0.77697 -1.71751,0.77697 -3.2919,1.98332 v 17.05249 H 436.763 v -31.81495 h 3.84397 v 11.51145 q 1.7993,-1.4926 3.72128,-2.33092 1.92199,-0.83831 3.9462,-0.83831 3.70084,0 5.64327,2.22868 1.94243,2.22869 1.94243,6.42025 z"
         style="white-space:pre;fill:#333333;fill-opacity:1;stroke-width:1.04687"
         id="path8180" />
      <path
         d="m 497.08056,350.34631 h -3.84396 v -13.00405 q 0,-1.57439 -0.18402,-2.94432 -0.18402,-1.39037 -0.67474,-2.16734 -0.51117,-0.85876 -1.47216,-1.26769 -0.96099,-0.42938 -2.49449,-0.42938 -1.57439,0 -3.29191,0.77697 -1.71751,0.77697 -3.2919,1.98332 v 17.05249 h -3.84397 v -31.81495 h 3.84397 v 11.51145 q 1.7993,-1.4926 3.72128,-2.33092 1.92199,-0.83831 3.9462,-0.83831 3.70084,0 5.64327,2.22868 1.94243,2.22869 1.94243,6.42025 z"
         style="white-space:pre;fill:#333333;fill-opacity:1;stroke-width:1.04687"
         id="path8182" />
      <path
         d="m 508.61246,323.68391 h -4.33468 v -3.9871 h 4.33468 z m -0.24536,26.6624 h -3.84396 v -22.83888 h 3.84396 z"
         style="white-space:pre;fill:#333333;fill-opacity:1;stroke-width:1.04687"
         id="path8184" />
      <path
         d="m 535.07039,350.34631 h -3.84396 v -13.00405 q 0,-1.57439 -0.18402,-2.94432 -0.18402,-1.39037 -0.67474,-2.16734 -0.51117,-0.85876 -1.47216,-1.26769 -0.96099,-0.42938 -2.49449,-0.42938 -1.57439,0 -3.29191,0.77697 -1.71751,0.77697 -3.2919,1.98332 v 17.05249 h -3.84397 v -22.83888 h 3.84397 v 2.53538 q 1.7993,-1.4926 3.72128,-2.33092 1.92199,-0.83831 3.9462,-0.83831 3.70084,0 5.64327,2.22868 1.94243,2.22869 1.94243,6.42025 z"
         style="white-space:pre;fill:#333333;fill-opacity:1;stroke-width:1.04687"
         id="path8186" />
      <path
         d="m 560.99673,350.34631 h -3.84397 v -2.39225 q -1.65618,1.43126 -3.45548,2.22868 -1.7993,0.79742 -3.90531,0.79742 -4.08932,0 -6.50203,-3.14878 -2.39225,-3.14878 -2.39225,-8.73071 0,-2.90342 0.81786,-5.173 0.83832,-2.26958 2.24913,-3.86441 1.39037,-1.55395 3.23057,-2.37181 1.86064,-0.81787 3.84397,-0.81787 1.7993,0 3.18967,0.38849 1.39037,0.36804 2.92387,1.16546 v -9.89617 h 3.84397 z m -3.84397,-5.62282 V 331.6172 q -1.55394,-0.69519 -2.78074,-0.96099 -1.2268,-0.26581 -2.67851,-0.26581 -3.23057,0 -5.02987,2.24913 -1.7993,2.24913 -1.7993,6.37935 0,4.06888 1.39037,6.19533 1.39037,2.106 4.45736,2.106 1.63573,0 3.31236,-0.71563 1.67662,-0.73608 3.12833,-1.88109 z"
         style="white-space:pre;fill:#333333;fill-opacity:1;stroke-width:1.04687"
         id="path8188" />
    </g>
    <g
       id="g6518"
       transform="matrix(2.5622523,0,0,2.5622523,-958.78702,-10371.099)">
      <g
         id="g6464">
        <path
           id="path6085"
           style="fill:#333333;fill-opacity:1;stroke:none;stroke-width:1px;stroke-linecap:butt;stroke-linejoin:miter;stroke-opacity:1"
           d="m 414.31836,4090.123 c -0.47876,0.9519 -0.21088,3.2307 0.38086,2.2598 0.59168,-0.9709 -0.38086,-2.2598 -0.38086,-2.2598 z m -8.79297,0.2247 c 0,0 -0.49508,1.5372 0.38281,2.2597 0.87796,0.7225 0.3822,-1.518 -0.38281,-2.2597 z m 1.28125,2.8711 c -0.11012,0 -0.21355,0.025 -0.30469,0.076 -0.72908,0.4051 -0.72798,6.156 1.94532,10.7735 0,0 0.7274,-8.5863 0.48437,-9.2344 -0.21265,-0.5671 -1.35415,-1.6296 -2.125,-1.6152 z m 7.35742,0.064 c -2.6775,0.2139 0.43946,10.7051 0.43946,10.7051 0,0 2.99723,-10.2073 -0.16211,-10.6934 -0.0987,-0.015 -0.19098,-0.019 -0.27735,-0.012 z m -18.11133,6.0059 c 0,0 0.48502,1.54 1.61915,1.6211 1.13413,0.081 -0.56604,-1.4591 -1.61915,-1.6211 z m 24.39063,0.045 c -0.47876,0.9519 -0.21088,3.2307 0.38086,2.2598 0.59168,-0.971 -0.38086,-2.2598 -0.38086,-2.2598 z m -0.38672,2.414 c -0.20885,0.018 -0.39021,0.134 -0.51172,0.377 -0.48606,0.9721 -0.24414,5.9941 -0.24414,5.9941 0,0 2.67467,-3.3209 2.43164,-4.6171 -0.18226,-0.9721 -1.04923,-1.8071 -1.67578,-1.754 z m -20.76758,0.1934 c -0.47846,-0.039 -0.88783,0.082 -1.13086,0.4258 -0.97211,1.3772 5.58985,7.291 5.58985,7.291 0,0 -0.97266,-2.9151 -0.97266,-4.6973 0,-1.3366 -2.05095,-2.9018 -3.48633,-3.0195 z m 6.46875,19.5566 c -0.52924,-0.01 -0.89543,0.2823 -1.19922,0.6368 -0.48605,0.567 -2.67421,2.6726 0.0801,3.9687 2.7543,1.2961 3.72647,-0.8901 3.56445,-1.7812 -0.16201,-0.8911 -0.48483,-1.9456 -1.29492,-2.4317 -0.45567,-0.2733 -0.83284,-0.3869 -1.15039,-0.3926 z m 8.6836,1.6075 c 0,0 -1.70145,0.3243 -2.1875,2.1875 -0.48605,1.8632 1.05217,2.511 1.78125,2.916 0.72907,0.4051 2.26989,0.406 2.91796,-1.7813 0.64807,-2.1872 -0.24346,-2.7552 -2.51171,-3.3222 z" />
        <g
           id="g6430">
          <g
             id="g6411">
            <path
               style="fill:#333333;fill-opacity:1;stroke:none;stroke-width:1px;stroke-linecap:butt;stroke-linejoin:miter;stroke-opacity:1"
               d="m 435.9085,4171.8736 c 0,0 -4.77952,-1.4582 -4.94154,-4.2935 -0.16202,-2.8353 1.21513,-3.2403 2.10623,-3.4024 0.8911,-0.162 2.7543,1.4582 2.7543,3.4834 0,2.0252 0.081,4.2125 0.081,4.2125 z"
               id="path6289" />
            <path
               style="fill:#333333;fill-opacity:1;stroke:none;stroke-width:1px;stroke-linecap:butt;stroke-linejoin:miter;stroke-opacity:1"
               d="m 444.65745,4153.4846 c 1.05312,0.081 1.8632,0.486 1.94421,1.4581 0.081,0.9721 0.48606,4.0505 -0.32403,4.8606 -0.81009,0.8101 -0.24303,5.1845 -0.56706,5.8326 -0.32404,0.6481 -1.37715,0.405 -1.45816,-0.081 -0.081,-0.4861 0.24302,-4.2125 -0.40505,-4.8605 -0.64807,-0.6481 -1.29614,-5.9947 0.81009,-7.2098 z"
               id="path6291" />
            <path
               style="fill:#333333;fill-opacity:1;stroke:none;stroke-width:1px;stroke-linecap:butt;stroke-linejoin:miter;stroke-opacity:1"
               d="m 451.38118,4156.4819 c 1.21514,0.8101 1.94422,2.1872 1.29615,3.4024 -0.64807,1.2151 -3.40238,3.8884 -2.83531,6.0756 0.56706,2.1873 -1.05312,0.6481 -0.97211,-0.324 0.081,-0.9721 0.8911,-6.2377 0.40504,-6.9668 -0.48605,-0.729 1.29615,-2.2682 2.10623,-2.1872 z"
               id="path6293" />
            <path
               style="fill:#333333;fill-opacity:1;stroke:none;stroke-width:1px;stroke-linecap:butt;stroke-linejoin:miter;stroke-opacity:1"
               d="m 456.24171,4164.1777 c 1.17463,0.8506 1.7822,1.1342 0.8911,2.7138 -0.8911,1.5797 -0.76958,3.4429 -2.18724,3.0379 -1.41765,-0.4051 -1.25563,-6.2377 1.29614,-5.7517 z"
               id="path6295" />
            <path
               style="fill:#333333;fill-opacity:1;stroke:none;stroke-width:1px;stroke-linecap:butt;stroke-linejoin:miter;stroke-opacity:1"
               d="m 456.68726,4163.0436 c 0,0 -0.24302,-1.1746 1.01261,-2.0252 1.25564,-0.8506 -1.01261,2.0252 -1.01261,2.0252 z"
               id="path6297" />
            <path
               style="fill:#333333;fill-opacity:1;stroke:none;stroke-width:1px;stroke-linecap:butt;stroke-linejoin:miter;stroke-opacity:1"
               d="m 451.6826,4155.2354 c 0,0 -0.55859,-1.0615 0.41261,-2.2263 0.9712,-1.1649 -0.41261,2.2263 -0.41261,2.2263 z"
               id="path6297-8" />
            <path
               style="fill:#333333;fill-opacity:1;stroke:none;stroke-width:1px;stroke-linecap:butt;stroke-linejoin:miter;stroke-opacity:1"
               d="m 445.48127,4148.8987 c 0,0 -0.40098,1.4321 0,2.2627 0.40097,0.8305 0,-2.2627 0,-2.2627 z"
               id="path6339" />
            <path
               style="fill:#333333;fill-opacity:1;stroke:none;stroke-width:1px;stroke-linecap:butt;stroke-linejoin:miter;stroke-opacity:1"
               d="m 438.13275,4151.4816 c 0,0 -0.27759,1.461 0.19266,2.2544 0.47023,0.7934 -0.19266,-2.2544 -0.19266,-2.2544 z"
               id="path6339-2" />
            <path
               style="fill:#333333;fill-opacity:1;stroke:none;stroke-width:1px;stroke-linecap:butt;stroke-linejoin:miter;stroke-opacity:1"
               d="m 430.83034,4160.5461 c 0,0 -0.009,1.4872 0.59668,2.1826 0.6058,0.6955 -0.59668,-2.1826 -0.59668,-2.1826 z"
               id="path6339-4" />
            <path
               style="fill:#333333;fill-opacity:1;stroke:none;stroke-width:1px;stroke-linecap:butt;stroke-linejoin:miter;stroke-opacity:1"
               d="m 439.6958,4156.4313 c -1.43205,-0.401 -2.57769,-0.401 -2.63497,1.432 -0.0573,1.8331 0.28641,2.7496 1.03107,3.0933 0.74467,0.3437 0.40098,2.9786 0.28641,3.6087 -0.11456,0.6301 0.17185,3.0932 0.91651,3.2078 0.74467,0.1146 1.43205,0.2864 1.60389,-1.2602 0.17185,-1.5466 1.20292,-8.3059 -1.20291,-10.0816 z"
               id="path6370" />
          </g>
        </g>
      </g>
      <g
         id="g6484">
        <path
           id="Path 89"
           class="shp1"
           d="m 406.19,4108.57 c -0.93,1.91 -2.25,3.46 -2.94,3.45 -0.69,-0.01 -1.48,0.43 -1.75,0.98 -0.27,0.55 -0.16,2.14 0.25,3.53 0.41,1.38 1.43,2.76 2.25,3.06 0.89,0.32 2.41,-0.61 3.73,-2.28 l 2.23,-2.81 c 5.07,2.9 7.33,3.46 8.29,3.12 0.96,-0.34 1.76,-1.63 1.77,-2.87 0.01,-1.24 -0.44,-2.7 -1,-3.25 -0.56,-0.55 -1.58,-2.07 -2.27,-3.38 -0.92,-1.75 -2.26,-2.46 -5.06,-2.7 -3.49,-0.3 -3.96,-0.04 -5.5,3.15 z m 38.81,61.36 c -0.82,0.49 -2.1,0.67 -2.82,0.4 -0.73,-0.28 -2.91,0.77 -4.84,2.33 -2.92,2.37 -3.38,3.26 -2.78,5.34 0.4,1.38 1,4.07 1.35,6 0.38,2.15 1.2,3.5 2.11,3.5 1.01,0 1.64,-1.41 1.98,-4.5 0.38,-3.43 0.92,-4.5 2.25,-4.5 0.96,0 2.65,0.11 3.75,0.25 1.78,0.22 1.99,0.98 1.94,7 -0.03,3.71 -0.59,8.32 -1.25,10.25 -0.93,2.74 -1.79,3.55 -3.94,3.75 -1.67,0.15 -2.75,0.84 -2.75,1.75 0,0.82 1.13,1.95 2.5,2.5 1.38,0.55 2.73,1 3,1 0.27,0 1.48,-1.46 2.67,-3.25 1.27,-1.91 2.7,-6.56 3.47,-11.25 0.71,-4.4 1.44,-9.59 1.62,-11.54 0.24,-2.6 -0.35,-4.38 -2.22,-6.76 -1.4,-1.77 -2.99,-3.21 -3.54,-3.19 -0.55,0.01 -1.68,0.42 -2.5,0.92 z"
           style="fill:#333333;fill-opacity:1"
           sodipodi:nodetypes="cssccccsssccccccccscscsccscsscsccc" />
        <g
           id="g6399">
          <g
             id="g6287">
            <g
               aria-label="inch"
               id="text2538-7-9-6-4-9-4-2-5-7-8-6-3-4-3"
               style="font-style:normal;font-weight:normal;font-size:16.366px;line-height:1.25;font-family:sans-serif;fill:#333333;fill-opacity:1;stroke:none;stroke-width:0.409151"
               transform="translate(147.52115,-1042.8006)" />
            <path
               d="m 494.16691,4185.0539 h -7.58247 v -1.4299 h 2.91634 v -9.3887 h -2.91634 v -1.2794 q 0.59268,0 1.27002,-0.094 0.67734,-0.1035 1.02542,-0.2916 0.43275,-0.2352 0.67734,-0.5927 0.254,-0.3669 0.29164,-0.9784 h 1.45816 v 12.6249 h 2.85989 z"
               style="font-style:normal;font-weight:normal;font-size:40px;line-height:1.25;font-family:sans-serif;white-space:pre;fill:#333333;fill-opacity:1;stroke:none;stroke-width:0.481665"
               id="path1308-2" />
            <path
               style="fill:none;stroke:#333333;stroke-width:1px;stroke-linecap:butt;stroke-linejoin:miter;stroke-opacity:1"
               d="m 511.47575,4171.3703 -6.3125,13.3125"
               id="path3899-0-6" />
            <g
               aria-label="3"
               id="text3525-25-9"
               style="font-style:normal;font-weight:normal;font-size:19.0998px;line-height:1.25;font-family:sans-serif;fill:#333333;fill-opacity:1;stroke:none;stroke-width:0.477494"
               transform="matrix(0.67287659,0,0,0.67287659,160.74262,1363.2996)">
              <path
                 d="m 513.25612,4178.6916 q 0.44765,0.401 0.73676,1.0072 0.28911,0.6062 0.28911,1.5668 0,0.9513 -0.34507,1.744 -0.34506,0.7927 -0.96991,1.3803 -0.69946,0.6528 -1.65072,0.9699 -0.94193,0.3077 -2.07038,0.3077 -1.15644,0 -2.27557,-0.2798 -1.11912,-0.2704 -1.83723,-0.5968 v -1.9492 h 0.13989 q 0.79271,0.5223 1.86521,0.8674 1.0725,0.345 2.07039,0.345 0.58754,0 1.2497,-0.1958 0.66215,-0.1959 1.07249,-0.5782 0.429,-0.4104 0.63418,-0.9047 0.2145,-0.4943 0.2145,-1.2497 0,-0.7461 -0.24248,-1.231 -0.23315,-0.4943 -0.65283,-0.7741 -0.41967,-0.2891 -1.01654,-0.3917 -0.59687,-0.1119 -1.287,-0.1119 h -0.83934 v -1.5481 h 0.65282 q 1.41757,0 2.25691,-0.5876 0.84867,-0.5968 0.84867,-1.7346 0,-0.5036 -0.21449,-0.8767 -0.2145,-0.3823 -0.59687,-0.6248 -0.40102,-0.2425 -0.858,-0.3357 -0.45698,-0.093 -1.0352,-0.093 -0.88597,0 -1.88386,0.3171 -0.99789,0.3171 -1.88387,0.8953 h -0.0933 v -1.9492 q 0.66215,-0.3264 1.76263,-0.5968 1.1098,-0.2798 2.14499,-0.2798 1.01655,0 1.79061,0.1865 0.77406,0.1865 1.39891,0.5969 0.67148,0.4476 1.01654,1.0818 0.34507,0.6342 0.34507,1.4828 0,1.1565 -0.8207,2.0238 -0.81136,0.858 -1.92117,1.0818 v 0.1306 q 0.44765,0.075 1.02587,0.3171 0.57822,0.2331 0.97924,0.5875 z"
                 style="white-space:pre;fill:#333333;fill-opacity:1;stroke-width:0.477494"
                 id="path6262" />
            </g>
            <g
               aria-label="8"
               id="text6267"
               style="font-style:normal;font-weight:normal;font-size:40px;line-height:1.25;font-family:sans-serif;fill:#333333;fill-opacity:1;stroke:none"
               transform="matrix(0.32077363,0,0,0.32077363,344.99567,2846.5527)">
              <path
                 d="m 529.30423,4178.0552 q 0,3.7695 -2.94922,6.2695 -2.92969,2.5 -7.38281,2.5 -4.72656,0 -7.53906,-2.4414 -2.79297,-2.4414 -2.79297,-6.25 0,-2.4219 1.40625,-4.375 1.40625,-1.9727 3.96484,-3.125 v -0.1172 q -2.34375,-1.25 -3.47656,-2.7344 -1.11328,-1.4843 -1.11328,-3.7109 0,-3.2812 2.69531,-5.4687 2.69531,-2.1875 6.85547,-2.1875 4.35547,0 6.95312,2.0898 2.59766,2.0898 2.59766,5.3125 0,1.9727 -1.23047,3.8867 -1.23047,1.8945 -3.61328,2.9688 v 0.1172 q 2.73437,1.1718 4.17969,2.8906 1.44531,1.7187 1.44531,4.375 z m -4.62891,-14.1992 q 0,-2.0899 -1.62109,-3.3204 -1.60156,-1.25 -4.10156,-1.25 -2.46094,0 -4.04297,1.1719 -1.5625,1.1719 -1.5625,3.1641 0,1.4062 0.78125,2.4414 0.80078,1.0156 2.40234,1.8164 0.72266,0.3516 2.07031,0.918 1.36719,0.5664 2.65625,0.9375 1.9336,-1.2891 2.67579,-2.6758 0.74218,-1.3867 0.74218,-3.2031 z m 0.60547,14.5703 q 0,-1.7969 -0.80078,-2.8711 -0.78125,-1.0938 -3.08594,-2.1875 -0.91797,-0.4297 -2.01172,-0.8008 -1.09375,-0.3711 -2.91015,-1.0352 -1.75781,0.9571 -2.83203,2.5977 -1.05469,1.6406 -1.05469,3.7109 0,2.6368 1.81641,4.3555 1.8164,1.7188 4.60937,1.7188 2.85156,0 4.55078,-1.4649 1.71875,-1.4648 1.71875,-4.0234 z"
                 style="white-space:pre;fill:#333333;fill-opacity:1"
                 id="path6269" />
            </g>
            <path
               id="rect6272"
               style="fill:#333333;fill-opacity:1;stroke:none;stroke-opacity:1"
               d="m 515.02148,4178.2559 h 3.95245 v 1.5466 h -3.95245 z" />
          </g>
          <path
             style="color:#000000;font-style:normal;font-variant:normal;font-weight:normal;font-stretch:normal;font-size:medium;line-height:normal;font-family:sans-serif;font-variant-ligatures:normal;font-variant-position:normal;font-variant-caps:normal;font-variant-numeric:normal;font-variant-alternates:normal;font-variant-east-asian:normal;font-feature-settings:normal;font-variation-settings:normal;text-indent:0;text-align:start;text-decoration:none;text-decoration-line:none;text-decoration-style:solid;text-decoration-color:#000000;letter-spacing:normal;word-spacing:normal;text-transform:none;writing-mode:lr-tb;direction:ltr;text-orientation:mixed;dominant-baseline:auto;baseline-shift:baseline;text-anchor:start;white-space:normal;shape-padding:0;shape-margin:0;inline-size:0;clip-rule:nonzero;display:inline;overflow:visible;visibility:visible;opacity:1;isolation:auto;mix-blend-mode:normal;color-interpolation:sRGB;color-interpolation-filters:linearRGB;solid-color:#000000;solid-opacity:1;vector-effect:none;fill:#333333;fill-opacity:1;fill-rule:nonzero;stroke:none;stroke-linecap:butt;stroke-linejoin:miter;stroke-miterlimit:4;stroke-dasharray:none;stroke-dashoffset:0;stroke-opacity:1;color-rendering:auto;image-rendering:auto;shape-rendering:auto;text-rendering:auto;enable-background:accumulate;stop-color:#000000;stop-opacity:1"
             d="m 460.49414,4148.9941 v 1 h 57.50195 v 13.5957 h 1 v -14.5957 z"
             id="path6372" />
          <path
             style="color:#000000;font-style:normal;font-variant:normal;font-weight:normal;font-stretch:normal;font-size:medium;line-height:normal;font-family:sans-serif;font-variant-ligatures:normal;font-variant-position:normal;font-variant-caps:normal;font-variant-numeric:normal;font-variant-alternates:normal;font-variant-east-asian:normal;font-feature-settings:normal;font-variation-settings:normal;text-indent:0;text-align:start;text-decoration:none;text-decoration-line:none;text-decoration-style:solid;text-decoration-color:#000000;letter-spacing:normal;word-spacing:normal;text-transform:none;writing-mode:lr-tb;direction:ltr;text-orientation:mixed;dominant-baseline:auto;baseline-shift:baseline;text-anchor:start;white-space:normal;shape-padding:0;shape-margin:0;inline-size:0;clip-rule:nonzero;display:inline;overflow:visible;visibility:visible;opacity:1;isolation:auto;mix-blend-mode:normal;color-interpolation:sRGB;color-interpolation-filters:linearRGB;solid-color:#000000;solid-opacity:1;vector-effect:none;fill:#333333;fill-opacity:1;fill-rule:nonzero;stroke:none;stroke-linecap:butt;stroke-linejoin:miter;stroke-miterlimit:4;stroke-dasharray:none;stroke-dashoffset:0;stroke-opacity:1;color-rendering:auto;image-rendering:auto;shape-rendering:auto;text-rendering:auto;enable-background:accumulate;stop-color:#000000;stop-opacity:1"
             d="m 517.97656,4197.1484 v 6.8418 h -65.53515 v 1 h 66.53515 v -7.8418 z"
             id="path6378" />
        </g>
      </g>
    </g>
  </g>
</svg>
