<?xml version="1.0" encoding="UTF-8" standalone="no"?>
<svg
   xmlns:dc="http://purl.org/dc/elements/1.1/"
   xmlns:cc="http://creativecommons.org/ns#"
   xmlns:rdf="http://www.w3.org/1999/02/22-rdf-syntax-ns#"
   xmlns:svg="http://www.w3.org/2000/svg"
   xmlns="http://www.w3.org/2000/svg"
   xmlns:sodipodi="http://sodipodi.sourceforge.net/DTD/sodipodi-0.dtd"
   xmlns:inkscape="http://www.inkscape.org/namespaces/inkscape"
   viewBox="0 0 512 512"
   width="512"
   height="512"
   version="1.1"
   id="svg125"
   sodipodi:docname="weasel.svg"
   inkscape:version="1.0.2 (e86c870879, 2021-01-15, custom)">
  <sodipodi:namedview
     pagecolor="#ffffff"
     bordercolor="#666666"
     borderopacity="1"
     objecttolerance="10"
     gridtolerance="10"
     guidetolerance="10"
     inkscape:pageopacity="0"
     inkscape:pageshadow="2"
     inkscape:window-width="1366"
     inkscape:window-height="715"
     id="namedview7008"
     showgrid="false"
     inkscape:zoom="1.0703125"
     inkscape:cx="1266.6176"
     inkscape:cy="4521.9498"
     inkscape:window-x="-8"
     inkscape:window-y="-8"
     inkscape:window-maximized="1"
     inkscape:current-layer="svg125"
     inkscape:document-rotation="0" />
  <metadata
     id="metadata131">
    <rdf:RDF>
      <cc:Work
         rdf:about="">
        <dc:format>image/svg+xml</dc:format>
        <dc:type
           rdf:resource="http://purl.org/dc/dcmitype/StillImage" />
        <dc:title></dc:title>
      </cc:Work>
    </rdf:RDF>
  </metadata>
  <defs
     id="defs129" />
  <style
     id="style2">
		tspan { white-space:pre }
		.shp0 { fill: #e7d5b8 } 
		.shp1 { fill: #15120f } 
	</style>
  <g
     id="g10683"
     transform="matrix(0.88006848,0,0,0.88006848,-589.46159,-3642.8053)">
    <g
       id="g10663">
      <g
         id="g8239"
         style="font-style:normal;font-weight:normal;font-size:41.8747px;line-height:1.25;font-family:sans-serif;fill:#333333;fill-opacity:1;stroke:none;stroke-width:1.04687"
         transform="matrix(0.39883511,0,0,0.39883511,964.1869,4289.7348)">
        <path
           d="m 381.08683,323.68391 h -4.33469 v -3.9871 h 4.33469 z m -0.24536,26.6624 h -3.84397 v -22.83888 h 3.84397 z"
           style="white-space:pre;fill:#333333;fill-opacity:1;stroke-width:1.04687"
           id="path8174" />
        <path
           d="m 407.54477,350.34631 h -3.84397 v -13.00405 q 0,-1.57439 -0.18402,-2.94432 -0.18402,-1.39037 -0.67474,-2.16734 -0.51116,-0.85876 -1.47216,-1.26769 -0.96099,-0.42938 -2.49449,-0.42938 -1.57439,0 -3.2919,0.77697 -1.71752,0.77697 -3.29191,1.98332 v 17.05249 h -3.84397 v -22.83888 h 3.84397 v 2.53538 q 1.7993,-1.4926 3.72129,-2.33092 1.92198,-0.83831 3.9462,-0.83831 3.70084,0 5.64327,2.22868 1.94243,2.22869 1.94243,6.42025 z"
           style="white-space:pre;fill:#333333;fill-opacity:1;stroke-width:1.04687"
           id="path8176" />
        <path
           d="m 431.83536,348.91505 q -1.92198,0.9201 -3.65995,1.43126 -1.71751,0.51117 -3.65994,0.51117 -2.47404,0 -4.53915,-0.71563 -2.06511,-0.73608 -3.53727,-2.20824 -1.49261,-1.47216 -2.31047,-3.72129 -0.81787,-2.24912 -0.81787,-5.25478 0,-5.60238 3.067,-8.79205 3.08744,-3.18967 8.13776,-3.18967 1.96287,0 3.84396,0.55205 1.90154,0.55206 3.47593,1.34948 v 4.27335 h -0.20446 q -1.75842,-1.36993 -3.6395,-2.10601 -1.86065,-0.73607 -3.63951,-0.73607 -3.27146,0 -5.17299,2.20823 -1.88109,2.18779 -1.88109,6.44069 0,4.13022 1.84019,6.3589 1.86065,2.20824 5.21389,2.20824 1.16546,0 2.37181,-0.3067 1.20636,-0.3067 2.16735,-0.79742 0.83831,-0.42938 1.57439,-0.89965 0.73608,-0.49072 1.16546,-0.83831 h 0.20446 z"
           style="white-space:pre;fill:#333333;fill-opacity:1;stroke-width:1.04687"
           id="path8178" />
        <path
           d="m 455.86015,350.34631 h -3.84396 v -13.00405 q 0,-1.57439 -0.18402,-2.94432 -0.18402,-1.39037 -0.67474,-2.16734 -0.51117,-0.85876 -1.47216,-1.26769 -0.96099,-0.42938 -2.49449,-0.42938 -1.57439,0 -3.29191,0.77697 -1.71751,0.77697 -3.2919,1.98332 v 17.05249 H 436.763 v -31.81495 h 3.84397 v 11.51145 q 1.7993,-1.4926 3.72128,-2.33092 1.92199,-0.83831 3.9462,-0.83831 3.70084,0 5.64327,2.22868 1.94243,2.22869 1.94243,6.42025 z"
           style="white-space:pre;fill:#333333;fill-opacity:1;stroke-width:1.04687"
           id="path8180" />
        <path
           d="m 497.08056,350.34631 h -3.84396 v -13.00405 q 0,-1.57439 -0.18402,-2.94432 -0.18402,-1.39037 -0.67474,-2.16734 -0.51117,-0.85876 -1.47216,-1.26769 -0.96099,-0.42938 -2.49449,-0.42938 -1.57439,0 -3.29191,0.77697 -1.71751,0.77697 -3.2919,1.98332 v 17.05249 h -3.84397 v -31.81495 h 3.84397 v 11.51145 q 1.7993,-1.4926 3.72128,-2.33092 1.92199,-0.83831 3.9462,-0.83831 3.70084,0 5.64327,2.22868 1.94243,2.22869 1.94243,6.42025 z"
           style="white-space:pre;fill:#333333;fill-opacity:1;stroke-width:1.04687"
           id="path8182" />
        <path
           d="m 508.61246,323.68391 h -4.33468 v -3.9871 h 4.33468 z m -0.24536,26.6624 h -3.84396 v -22.83888 h 3.84396 z"
           style="white-space:pre;fill:#333333;fill-opacity:1;stroke-width:1.04687"
           id="path8184" />
        <path
           d="m 535.07039,350.34631 h -3.84396 v -13.00405 q 0,-1.57439 -0.18402,-2.94432 -0.18402,-1.39037 -0.67474,-2.16734 -0.51117,-0.85876 -1.47216,-1.26769 -0.96099,-0.42938 -2.49449,-0.42938 -1.57439,0 -3.29191,0.77697 -1.71751,0.77697 -3.2919,1.98332 v 17.05249 h -3.84397 v -22.83888 h 3.84397 v 2.53538 q 1.7993,-1.4926 3.72128,-2.33092 1.92199,-0.83831 3.9462,-0.83831 3.70084,0 5.64327,2.22868 1.94243,2.22869 1.94243,6.42025 z"
           style="white-space:pre;fill:#333333;fill-opacity:1;stroke-width:1.04687"
           id="path8186" />
        <path
           d="m 560.99673,350.34631 h -3.84397 v -2.39225 q -1.65618,1.43126 -3.45548,2.22868 -1.7993,0.79742 -3.90531,0.79742 -4.08932,0 -6.50203,-3.14878 -2.39225,-3.14878 -2.39225,-8.73071 0,-2.90342 0.81786,-5.173 0.83832,-2.26958 2.24913,-3.86441 1.39037,-1.55395 3.23057,-2.37181 1.86064,-0.81787 3.84397,-0.81787 1.7993,0 3.18967,0.38849 1.39037,0.36804 2.92387,1.16546 v -9.89617 h 3.84397 z m -3.84397,-5.62282 V 331.6172 q -1.55394,-0.69519 -2.78074,-0.96099 -1.2268,-0.26581 -2.67851,-0.26581 -3.23057,0 -5.02987,2.24913 -1.7993,2.24913 -1.7993,6.37935 0,4.06888 1.39037,6.19533 1.39037,2.106 4.45736,2.106 1.63573,0 3.31236,-0.71563 1.67662,-0.73608 3.12833,-1.88109 z"
           style="white-space:pre;fill:#333333;fill-opacity:1;stroke-width:1.04687"
           id="path8188" />
      </g>
      <path
         style="fill:none;stroke:#333333;stroke-width:1px;stroke-linecap:butt;stroke-linejoin:miter;stroke-opacity:1"
         d="m 1096.7621,4416.2343 -7.4804,15.5315"
         id="path3899-0-6"
         sodipodi:nodetypes="cc" />
      <path
         id="rect8398"
         style="fill:#333333;stroke:#333333;stroke-width:0.729552"
         d="m 1108.7416,4423.5259 h 3.597 v 0.9082 h -3.597 z" />
      <text
         xml:space="preserve"
         style="font-style:normal;font-weight:normal;font-size:19.2289px;line-height:1.25;font-family:sans-serif;fill:#333333;fill-opacity:1;stroke:none;stroke-width:0.480722"
         x="1077.1666"
         y="4429.6284"
         id="text8403"><tspan
           sodipodi:role="line"
           id="tspan8401"
           x="1077.1666"
           y="4429.6284"
           style="fill:#333333;fill-opacity:1;stroke-width:0.480722">5</tspan></text>
      <text
         xml:space="preserve"
         style="font-style:normal;font-weight:normal;font-size:19.2289px;line-height:1.25;font-family:sans-serif;fill:#333333;fill-opacity:1;stroke:none;stroke-width:0.480722"
         x="1096.8729"
         y="4429.6182"
         id="text8403-8"><tspan
           sodipodi:role="line"
           id="tspan8401-1"
           x="1096.8729"
           y="4429.6182"
           style="fill:#333333;fill-opacity:1;stroke-width:0.480722">8</tspan></text>
    </g>
    <path
       id="Path 1"
       style="fill:#333333;fill-opacity:1"
       d="m 826.94727,4333.4531 c -3.41873,0.032 -6.64836,0.1803 -8.66211,0.4336 -3.58,0.44 -9.87,1.7294 -14,2.8594 -4.12,1.13 -10.65,3.4501 -14.5,5.1601 -3.85,1.7101 -6.77,3.3394 -6.5,3.6094 0.27,0.28 3.65,-0.8896 7.5,-2.5996 3.85,-1.7 10.38,-4.0106 14.5,-5.1406 4.94,-1.35 11.93,-2.2303 20.5,-2.5703 9.82,-0.38 15.2,-0.089 22,1.1914 4.95,0.94 12.6,3.1594 17,4.9394 4.4,1.79 11.15,5.1295 15,7.4395 3.85,2.3 7.11,3.9599 7.25,3.6699 0.14,-0.29 -2.34,-2.1792 -5.5,-4.1992 -3.16,-2.03 -8.68,-5.0111 -12.25,-6.6211 -3.57,-1.62 -10.55,-3.9685 -15.5,-5.2285 -4.95,-1.25 -13.5,-2.5108 -19,-2.8008 -1.375,-0.07 -2.86953,-0.1156 -4.39454,-0.1367 -1.14374,-0.016 -2.30378,-0.017 -3.44335,-0.01 z m 3.43359,4.6348 v 0 c -0.41912,-0.01 -0.78695,-0.01 -1.0957,0 -2.47,0.08 -6.08,0.3195 -8,0.5195 -1.92,0.21 -6.87,1.0507 -11,1.8907 -4.12,0.83 -10.65,2.7898 -14.5,4.3398 -3.85,1.56 -9.48,4.2805 -12.5,6.0605 -3.02,1.78 -8.54,5.659 -12.25,8.6289 -3.71,2.9601 -9.32094,8.6507 -12.46094,12.6407 -3.15,3.99 -7.61945,10.85 -9.93945,15.25 -2.33,4.4 -5.47047,12.05 -6.98047,17 -2.5,8.21 -2.7486,10.45 -2.8086,25.5 -0.05,14.53 0.21883,17.45 2.29883,24.5 1.3,4.4 3.67,10.93 5.25,14.5 1.59001,3.57 3.12063,6.28 3.39063,6 0.28,-0.28 -0.85,-3.54 -2.5,-7.25 -1.65,-3.71 -3.93032,-10.01 -5.07032,-14 -1.16,-4.07 -2.32062,-11.85 -2.64062,-17.75 -0.32,-5.91 -0.0697,-14 0.57031,-18.5 0.62,-4.4 2.27992,-11.37 3.66992,-15.5 1.4,-4.12 4.37157,-10.87 6.60157,-15 2.23,-4.12 6.59898,-10.6197 9.70898,-14.4297 3.11,-3.82 9.10078,-9.67 13.30078,-13 4.20001,-3.34 10.95001,-7.73 15,-9.75 4.05,-2.02 10.05938,-4.5797 13.35938,-5.6797 3.3,-1.1 8.92,-2.4805 12.5,-3.0605 3.58,-0.59 10.89,-1.0704 16.25,-1.0704 5.36,-0.01 13.24,0.7099 17.5,1.5899 4.26,0.88 10.9,2.8506 14.75,4.3906 3.85,1.53 9.47,4.2298 12.5,6.0098 3.03,1.78 7.19,4.5291 9.25,6.1191 2.06,1.58 3.97,2.6509 4.25,2.3809 0.28,-0.27 -1.86,-2.2296 -4.75,-4.3496 -2.88977,-2.12 -7.72,-5.2204 -10.75,-6.9004 -3.03,-1.67 -8.87,-4.241 -13,-5.711 -4.12,-1.47 -11.78,-3.3096 -17,-4.0996 -4.5675,-0.6913 -9.97045,-1.2138 -12.9043,-1.2734 z m -52.77539,10.8672 c -0.65,-0.02 -4.67945,2.6499 -8.93945,5.9199 -4.27,3.27 -9.64164,8.33 -11.93164,11.25 -2.29,2.91 -6.18844,8.4508 -8.64844,12.3008 -2.47,3.85 -5.86078,10.38 -7.55078,14.5 -1.69,4.13 -3.81094,10.2 -4.71094,13.5 -0.91,3.3 -1.89852,11.85 -2.22852,19 -0.37,8.22 -0.14062,15.57 0.60938,20 0.66,3.85 2.34976,10.6 3.75976,15 1.41,4.4 3.69008,10.25 5.08008,13 1.38,2.75 4.25086,7.59 6.38086,10.75 2.12,3.16 4.08938,5.53 4.35938,5.25 0.27,-0.28 -1.40094,-3.31 -3.71094,-6.75 -2.32,-3.44 -5.85914,-10.07 -7.86914,-14.75 -2.01,-4.68 -4.4993,-11.65 -5.5293,-15.5 -1.47,-5.49 -1.86055,-10.33 -1.81055,-22.5 0.06,-12.7 0.46977,-16.95 2.25977,-23.5 1.21,-4.4 4.42086,-12.5 7.13086,-18 2.71,-5.5 7.31852,-13.1195 10.22852,-16.9395 2.91999,-3.82 8.23078,-9.44 11.80078,-12.5 3.58,-3.06 7.85,-6.5612 9.5,-7.7812 1.65,-1.22 2.47031,-2.23 1.82031,-2.25 z m 38.1543,4.5547 c -0.44795,0.04 -1.00664,0.3737 -1.52539,0.955 -1.02,1.15 -1.15922,2.0711 -0.44922,3.1211 0.55,0.82 1.45,1.57 2,1.67 0.55,0.09 1.07992,-0.8893 1.16992,-2.1993 0.1,-1.3 -0.14906,-2.781 -0.53906,-3.291 -0.1575,-0.1987 -0.38748,-0.28 -0.65625,-0.2558 z m 17.02539,0.416 c -0.83,0 -1.49024,0.56 -1.49024,1.25 0.01,0.69 0.24,2.26 0.5,3.5 0.27,1.24 1.16024,2.25 1.99024,2.25 0.83,0 1.72,-0.67 2,-1.5 0.28,-0.83 0.05,-2.4 -0.5,-3.5 -0.55,-1.1 -1.67,-2 -2.5,-2 z m 61,3.9707 c -0.55,0 1.03,2.02 3.5,4.5 2.47,2.47 4.72,4.2602 5,3.9902 0.28,-0.27 -1.3,-2.3002 -3.5,-4.4902 -2.2,-2.2 -4.45,-4 -5,-4 z m -3,4 c -0.55,0 0.8,1.8 3,4 2.2,2.19 4.22,3.77 4.5,3.5 0.28,-0.28 -1.07,-2.08 -3,-4 -1.93,-1.93 -3.95,-3.51 -4.5,-3.5 z m -41.9961,4.3984 c -0.34625,-0.034 -0.6889,0.321 -1.2539,1.041 -0.69,0.87 -1.13024,2.3799 -0.99024,3.3399 0.15,0.99 1.13024,1.75 2.24024,1.75 1.08,0 2.10953,-0.67 2.26953,-1.5 0.16,-0.83 -0.28024,-2.3299 -0.99024,-3.3399 -0.58,-0.835 -0.92914,-1.2572 -1.27539,-1.291 z m -15.0039,1.6113 c -0.55,0.03 -1.49938,0.3886 -2.10938,0.8086 -0.61,0.41 -1.62999,1.9805 -2.25,3.4805 -0.63,1.5 -1.14062,4.0805 -1.14062,5.7305 0,2.23 0.66031,3.32 2.57031,4.25 1.9,0.92 3.01,0.9604 4.25,0.1504 0.92,-0.61 2.12969,-2.2695 2.67969,-3.6895 0.78,-2.01 0.56,-3.4719 -1,-6.6719 -1.1,-2.26 -2.45,-4.0786 -3,-4.0586 z m 159.41992,0.379 c -0.20973,0.018 -0.47184,0.175 -0.71485,0.4472 -0.47774,0.5387 -0.5434,0.971 -0.21093,1.4629 0.25766,0.384 0.67995,0.7345 0.9375,0.7813 0.25766,0.042 0.50478,-0.4158 0.54687,-1.0293 0.0471,-0.6089 -0.0691,-1.3041 -0.25195,-1.543 -0.0737,-0.093 -0.18067,-0.1305 -0.30664,-0.1191 z m -89.78516,0.012 c -0.0408,0.018 -0.0632,0.06 -0.0645,0.1289 -0.01,0.55 1.30969,2.58 2.92969,4.5 1.62,1.92 2.96046,3.05 2.98046,2.5 0.03,-0.55 -1.28968,-2.58 -2.92968,-4.5 -1.42625,-1.68 -2.63056,-2.7548 -2.91602,-2.6289 z m 97.75778,0.1836 c -0.3886,0 -0.6972,0.2627 -0.6972,0.5859 0.01,0.3232 0.1126,1.0579 0.2343,1.6387 0.1265,0.5808 0.5429,1.0527 0.9317,1.0527 0.3887,0 0.8063,-0.3125 0.9375,-0.7012 0.1312,-0.3888 0.024,-1.1255 -0.2344,-1.6406 -0.2577,-0.5152 -0.7831,-0.9355 -1.1719,-0.9355 z m -188.43161,1.4453 c -0.85,0 -2.1203,1.5607 -2.82031,3.4707 -0.7,1.91 -1.36094,4.61 -1.46094,6 -0.1,1.39 0.49032,3.1993 1.32032,4.0293 0.83,0.83 2.17,1.5 3,1.5 0.83,0 2.4,-0.9 3.5,-2 1.1,-1.1 2.01929,-3.24 2.02929,-4.75 0.02,-1.51 -0.88,-3.99 -2,-5.5 -1.11,-1.51 -2.71836,-2.75 -3.56836,-2.75 z m 195.92771,4.3476 c -0.1621,-0.015 -0.3212,0.151 -0.5859,0.4883 -0.3231,0.4075 -0.5305,1.1148 -0.4649,1.5645 0.07,0.4636 0.529,0.8183 1.0489,0.8183 0.5058,0 0.9895,-0.3144 1.0644,-0.7031 0.075,-0.3887 -0.1322,-1.0894 -0.4648,-1.5625 -0.2715,-0.391 -0.4355,-0.5896 -0.5977,-0.6055 z m -212.34958,0.1231 c -0.17453,-0.01 -0.33149,0.039 -0.45899,0.1387 -0.5,0.4 -0.86101,1.6605 -0.79101,2.8105 0.07,1.14 0.70187,2.6403 1.42187,3.3203 0.71,0.69 1.63836,0.91 2.06836,0.5 0.43,-0.41 0.76977,-1.4102 0.75977,-2.2402 0,-0.83 -0.57953,-2.3106 -1.26953,-3.3106 -0.525,-0.7425 -1.20687,-1.2032 -1.73047,-1.2187 z m 205.32228,0.6308 c -0.2576,0.014 -0.7025,0.1822 -0.9883,0.3789 -0.2857,0.1921 -0.7623,0.9284 -1.05273,1.6309 -0.29503,0.7025 -0.53516,1.9108 -0.53516,2.6836 0,1.0445 0.31055,1.5546 1.20509,1.9902 0.8899,0.4308 1.4093,0.4511 1.9902,0.072 0.4308,-0.2858 0.9964,-1.0634 1.2539,-1.7285 0.3654,-0.9414 0.2638,-1.6263 -0.4668,-3.125 -0.5152,-1.0585 -1.1487,-1.9099 -1.4062,-1.9004 z m -9.85353,0.9473 c -0.39811,0 -0.99244,0.7305 -1.32031,1.625 -0.32786,0.8946 -0.63874,2.1596 -0.68555,2.8106 -0.0471,0.6511 0.23046,1.4979 0.61914,1.8867 0.38875,0.3887 1.01562,0.7031 1.4043,0.7031 0.38874,0 1.12551,-0.4222 1.64062,-0.9375 0.51522,-0.5152 0.94461,-1.5174 0.94922,-2.2246 0.0102,-0.7072 -0.41091,-1.8691 -0.93555,-2.5762 -0.51982,-0.7074 -1.27379,-1.2871 -1.67187,-1.2871 z m -7.69141,2.0938 c -0.0817,-0.01 -0.15513,0.018 -0.21484,0.064 -0.23419,0.1873 -0.40388,0.7778 -0.3711,1.3164 0.0328,0.5339 0.3288,1.2362 0.66602,1.5547 0.33254,0.3232 0.76736,0.4264 0.96875,0.2344 0.2014,-0.1922 0.3621,-0.6601 0.35742,-1.0488 0,-0.3887 -0.27253,-1.0825 -0.5957,-1.5508 -0.24589,-0.3477 -0.56531,-0.5629 -0.81055,-0.5703 z m -76.3164,3.8574 c -0.28,0 -0.5,0.23 -0.5,0.5 0,0.27 1.50936,3.54 3.35937,7.25 1.85,3.71 4.30117,9.67 5.45117,13.25 1.15,3.58 2.56039,9.2 3.15039,12.5 0.58,3.3 1.04883,10.16 1.04883,15.25 -0.01,5.09 -0.71961,12.74 -1.59961,17 -0.87,4.26 -2.89976,11.13 -4.50976,15.25 -1.6,4.13 -4.81086,10.65 -7.13086,14.5 -2.31,3.85 -7.15024,10.1006 -10.74024,13.8906 -3.59,3.78 -9.22929,8.939 -12.52929,11.459 -3.3,2.52 -9.37,6.2508 -13.5,8.3008 -4.12,2.04 -9.64,4.4193 -12.25,5.2793 -2.61,0.86 -8.69,2.25 -13.5,3.08 -4.81,0.83 -11.45,1.5 -14.75,1.5 -3.3,-0.01 -9.83,-0.6594 -14.5,-1.4394 -4.67,-0.78 -10.97,-2.3006 -14,-3.3906 -3.03,-1.08 -7.53,-2.8688 -10,-3.9688 -2.48,-1.1 -7.65,-4.0603 -11.5,-6.5703 -3.85,-2.51 -10.26953,-7.8516 -14.26954,-11.8516 -4,-4.01 -7.27125,-6.839 -7.28124,-6.289 0,0.55 3.27148,4.1994 7.27148,8.1094 4.01,3.91 10.4293,9.1105 14.2793,11.5605 3.85,2.46 10.15,5.83 14,7.5 3.85,1.67 10.38,3.8895 14.5,4.9395 5.59,1.41 11.07,1.8906 21.5,1.8906 8.4,0 16.2,-0.5396 19.5,-1.3496 3.03,-0.75 8.65,-2.47 12.5,-3.8399 3.85,-1.37 9.03,-3.6315 11.5,-5.0215 2.47,-1.4 6.97,-4.2193 10,-6.2793 3.03,-2.05 9.1,-7.5393 13.5,-12.1992 4.61,-4.8801 9.90047,-11.8206 12.48046,-16.3906 2.47001,-4.35 5.47017,-10.6199 6.66016,-13.9199 1.20001,-3.3 2.94844,-9.82 3.89844,-14.5 1.33,-6.57 1.60164,-11.44 1.18164,-21.5 -0.3,-7.19 -1.30023,-15.9 -2.24024,-19.5 -0.92999,-3.58 -3.66983,-10.66 -6.08984,-15.75 -2.41,-5.09 -4.61062,-9.25 -4.89062,-9.25 z m 100.76174,0.8457 c -0.2787,0.035 -0.6274,0.2652 -1.2246,0.7148 -0.946,0.7119 -1.2997,1.3673 -1.2715,2.3555 0.028,0.7541 0.1481,1.6875 0.2793,2.0762 0.1312,0.3888 0.7082,0.7112 1.289,0.7207 0.5807,0.014 1.3671,-0.3379 1.7559,-0.7735 0.3886,-0.4356 0.7031,-1.4933 0.7031,-2.3457 0,-0.8524 -0.3235,-1.8822 -0.7168,-2.2851 -0.3256,-0.3349 -0.5357,-0.4974 -0.8144,-0.4629 z m -22.13088,1.164 c -0.59483,0 -1.09515,0.4464 -1.35743,1.2051 -0.22481,0.6603 -0.43166,1.5548 -0.45507,1.9903 -0.0187,0.4308 0.11733,1.2641 0.30468,1.8496 0.19203,0.5901 0.55687,1.1509 0.81446,1.2539 0.2576,0.103 0.8891,0.094 1.40429,-0.018 0.5152,-0.1125 1.20029,-0.7255 1.52344,-1.3672 0.32316,-0.6417 0.58163,-1.5367 0.57227,-1.9863 -0.009,-0.4496 -0.43169,-1.2924 -0.9375,-1.8731 -0.50586,-0.5808 -1.34927,-1.0547 -1.86914,-1.0547 z m -137.9004,0.504 c -0.595,0.074 -1.33632,0.5653 -2.61132,1.5253 -2.02,1.52 -2.77875,2.9213 -2.71875,5.0313 0.06,1.61 0.31961,3.5997 0.59961,4.4297 0.28,0.83 1.51,1.519 2.75,1.539 1.24,0.03 2.92,-0.7184 3.75,-1.6484 0.83,-0.93 1.5,-3.1898 1.5,-5.0098 0,-1.82 -0.6893,-4.0208 -1.5293,-4.8808 -0.695,-0.715 -1.14523,-1.0601 -1.74024,-0.9863 z m -47.25,2.4863 c -1.26999,0 -2.34039,0.9503 -2.90039,2.5703 -0.48,1.41 -0.9207,3.32 -0.9707,4.25 -0.04,0.92 0.25039,2.6992 0.65039,3.9492 0.41,1.26 1.19024,2.4597 1.74024,2.6797 0.55,0.22 1.9,0.2009 3,-0.039 1.1,-0.24 2.56,-1.5499 3.25,-2.9199 0.69,-1.37 1.2407,-3.2802 1.2207,-4.2402 -0.02,-0.96 -0.92,-2.76 -2,-4 -1.08,-1.24 -2.88024,-2.25 -3.99024,-2.25 z m 115.18555,1.3476 c -0.0906,-0.033 -0.14625,0.015 -0.15625,0.1524 -0.03,0.55 1.08094,3.59 2.46094,6.75 1.39,3.16 3.46891,10.36 4.62891,16 1.71,8.36 1.99984,12.56 1.58984,22.75 -0.33,8.32 -1.21992,15.17 -2.66992,20.5 -1.19,4.4 -3.97017,11.82 -6.16016,16.5 -2.2,4.68 -6.17031,11.43 -8.82031,15 -2.66,3.57 -8.1397,9.6593 -12.17969,13.5293 -4.05001,3.87 -11.17937,9.3797 -15.85937,12.2597 -4.68,2.88 -12.21,6.5707 -16.75,8.2207 -4.54,1.64 -12.19,3.67 -17,4.5 -4.81,0.83 -11.9,1.5098 -15.75,1.5098 -3.85,0 -10.83,-0.659 -15.5,-1.459 -4.67,-0.8001 -11.87,-2.6513 -16,-4.1113 -4.12,-1.45 -10.42,-4.249 -14,-6.209 -3.58,-1.96 -8.98,-5.4597 -12,-7.7598 -3.02,-2.31 -6.17,-4.9608 -7,-5.8808 -0.83,-0.93 -1.95,-1.6799 -2.5,-1.6699 -0.55,0.02 0.35,1.4306 2,3.1406 1.65,1.71 6.6,5.5092 11,8.4492 4.4,2.94 11.38,6.7813 15.5,8.5313 4.13,1.75 10.88,4.0687 15,5.1386 4.53,1.1901 12.45,2.1703 20,2.4903 10.11,0.43 14.32,0.151 22,-1.459 5.22,-1.09 13.1,-3.3608 17.5,-5.0508 4.4,-1.69 11.6,-5.4098 16,-8.2598 4.4,-2.85 11.51078,-8.6107 15.80078,-12.8007 4.29,-4.18 9.89898,-10.7594 12.45898,-14.6094 2.55,-3.85 6.09938,-10.15 7.85938,-14 1.77,-3.85 4.19109,-10.37 5.37109,-14.5 1.46,-5.08 2.34023,-11.69 2.74023,-20.5 0.38,-8.51 0.13883,-15.76 -0.70117,-21 -0.71,-4.4 -2.28,-10.92 -3.5,-14.5 -1.23,-3.58 -2.94984,-7.85 -3.83984,-9.5 -0.66,-1.2375 -1.25157,-2.054 -1.52344,-2.1524 z m 81.27539,0.2364 c -0.41424,-0.034 -1.39074,0.1886 -2.3457,0.541 -1.53622,0.5714 -2.19316,1.1695 -2.90039,2.6308 -0.50589,1.0397 -1.43647,2.2531 -2.07813,2.6934 -0.64166,0.4402 -1.17618,1.0635 -1.18554,1.3867 -0.009,0.3231 -0.53764,1.0599 -1.16992,1.6406 -0.80561,0.7353 -1.15235,1.5487 -1.15235,2.6915 0,1.2505 0.28005,1.8078 1.16992,2.3417 0.64636,0.3887 1.48437,0.6 1.87305,0.4688 0.38875,-0.1311 0.91433,-0.758 1.17188,-1.4043 0.29978,-0.754 0.84241,-1.1755 1.52148,-1.1895 0.64169,-0.01 1.78496,-0.8385 2.92773,-2.1171 1.08665,-1.2177 2.26727,-2.0903 2.81055,-2.0762 0.51521,0.018 1.72856,0.7644 2.69336,1.6543 1.2366,1.1428 2.2047,1.6254 3.2773,1.6347 0.8616,0.01 1.8739,-0.3473 2.3282,-0.8203 0.445,-0.459 0.8156,-1.0947 0.8203,-1.4179 0.01,-0.3231 -0.7496,-1.4802 -1.6817,-2.5762 -0.9319,-1.0959 -2.1453,-2.1693 -2.6933,-2.3848 -0.5478,-0.2155 -1.8406,-1.0814 -2.8711,-1.9199 -1.03031,-0.8384 -2.09861,-1.6244 -2.37501,-1.7461 -0.0348,-0.015 -0.0816,-0.026 -0.14063,-0.031 z m -16.67383,3.8574 c -0.6838,0 -1.35298,0.3828 -1.63867,0.9355 -0.32317,0.6322 -0.32751,1.3957 -0.0137,2.3418 0.40279,1.2036 0.70234,1.4063 2.10742,1.4063 1.50812,0 1.63867,-0.1137 1.63867,-1.4063 0,-0.7728 -0.21115,-1.8266 -0.46875,-2.3418 -0.28102,-0.5574 -0.93651,-0.9355 -1.625,-0.9355 z m -155.63867,4.3223 c -0.88457,-0.073 -2.97101,0.4037 -5.00976,1.1562 -3.28,1.22 -4.67946,2.4991 -6.18946,5.6191 -1.08,2.22 -3.06945,4.81 -4.43945,5.75 -1.37,0.94 -2.5093,2.271 -2.5293,2.961 -0.02,0.69 -1.15,2.26 -2.5,3.5 -1.72,1.57 -2.46093,3.31 -2.46093,5.75 0,2.67 0.6,3.86 2.5,5 1.38,0.83 3.17,1.28 4,1 0.83,-0.28 1.95,-1.62 2.5,-3 0.64,-1.61 1.8,-2.5091 3.25,-2.5391 1.37,-0.02 3.81,-1.7915 6.25,-4.5215 2.32,-2.6 4.84,-4.4597 6,-4.4297 1.1,0.04 3.69,1.6293 5.75,3.5293 2.64,2.44 4.71,3.4703 7,3.4903 1.84,0.02 4.0007,-0.74 4.9707,-1.75 0.95,-0.98 1.74,-2.3393 1.75,-3.0293 0.02,-0.69 -1.59984,-3.16 -3.58984,-5.5 -1.99,-2.34 -4.58,-4.6299 -5.75,-5.0899 -1.17,-0.46 -3.93086,-2.3096 -6.13086,-4.0996 -2.2,-1.79 -4.48032,-3.4704 -5.07032,-3.7304 -0.0738,-0.034 -0.17442,-0.055 -0.30078,-0.065 z m 173.72656,3.6386 c -1.2084,0 -2.09672,0.315 -2.6914,0.9473 -0.76345,0.815 -0.80588,1.1098 -0.30469,2.1074 0.3278,0.6511 1.15179,1.2836 1.87305,1.4336 0.70723,0.1545 1.70952,0.1636 2.22462,0.023 0.5153,-0.1405 1.0547,-0.707 1.1953,-1.2597 0.1405,-0.5573 0.089,-1.5127 -0.1172,-2.1309 -0.3091,-0.9227 -0.695,-1.1211 -2.17968,-1.1211 z m -209.32617,4.5977 c -1.46,0 -2.89,0.82 -3.5,2 -0.69,1.35 -0.69929,2.98 -0.0293,5 0.86,2.57 1.5,3 4.5,3 3.22,0 3.5,-0.24 3.5,-3 0,-1.65 -0.45,-3.9 -1,-5 -0.6,-1.19 -2.00071,-2 -3.47071,-2 z m 223.11915,2.4277 c -0.3654,0 -0.7856,0.4222 -0.9356,0.9375 -0.1779,0.5947 -0.02,1.0624 0.4395,1.2871 0.4028,0.1968 0.9706,0.1037 1.2891,-0.2148 0.3185,-0.3185 0.4116,-0.8863 0.2148,-1.2891 -0.192,-0.3981 -0.6472,-0.7207 -1.0078,-0.7207 z m 7.3457,1.916 c -0.1547,0.03 -0.2975,0.3185 -0.5762,0.8946 -0.3138,0.6463 -0.395,1.3345 -0.1797,1.5312 0.2155,0.2014 0.7595,0.2529 1.209,0.1172 0.4496,-0.1313 0.8235,-0.4016 0.8281,-0.5937 0.01,-0.1921 -0.2847,-0.7739 -0.6406,-1.2891 -0.3208,-0.4612 -0.4861,-0.6901 -0.6406,-0.6602 z m -14.834,2.7676 c -0.356,0 -0.8576,0.2628 -1.1152,0.5859 -0.2904,0.3607 -0.3085,0.9924 -0.051,1.6387 0.2248,0.5807 0.6232,1.0547 0.8809,1.0547 0.2575,0 0.6974,-0.474 0.9785,-1.0547 0.2763,-0.5808 0.3842,-1.3154 0.2343,-1.6387 -0.1546,-0.3231 -0.5671,-0.5859 -0.9277,-0.5859 z m 7.7461,0 c -0.2201,0 -0.7206,0.3708 -1.1094,0.8203 -0.3887,0.4497 -0.8294,1.6629 -0.9746,2.6934 -0.1734,1.2271 -0.032,2.2392 0.4082,2.9277 0.3699,0.5808 1.0386,1.061 1.4883,1.0703 0.4496,0.014 1.0592,-0.2468 1.3496,-0.584 0.2951,-0.3326 0.6658,-1.2885 0.8203,-2.1269 0.2061,-1.0772 0.013,-2.0034 -0.6465,-3.1602 -0.5152,-0.8992 -1.1157,-1.6406 -1.3359,-1.6406 z m 6.0527,1.4063 c -0.2435,0 -0.8997,0.5579 -1.457,1.2324 -0.6464,0.7868 -1.007,1.8486 -0.9883,2.9258 0.014,0.932 0.366,2.0143 0.7735,2.3984 0.6651,0.6275 0.8847,0.5946 2.0136,-0.2812 0.8195,-0.637 1.306,-1.4989 1.3809,-2.459 0.066,-0.8103 -0.2019,-2.0001 -0.5859,-2.6465 -0.3841,-0.6417 -0.898,-1.1699 -1.1368,-1.1699 z m -13.123,3.2773 c -0.5011,0 -1.0694,0.2627 -1.252,0.5859 -0.1873,0.3231 -0.5057,1.2174 -0.707,1.9903 -0.2435,0.9507 -0.1406,1.8221 0.3184,2.6933 0.4637,0.8805 1.0487,1.2871 1.8496,1.2871 0.7025,0 1.3596,-0.3734 1.6406,-0.9355 0.2576,-0.5151 0.4668,-1.3578 0.4668,-1.873 0,-0.5151 -0.3125,-1.569 -0.7012,-2.3418 -0.4216,-0.843 -1.0673,-1.4063 -1.6152,-1.4063 z m 18.5547,0 c -0.3467,0 -0.8002,0.1411 -1.0156,0.3145 -0.2155,0.1685 -0.3566,0.8001 -0.3145,1.4043 0.056,0.754 0.3712,1.0917 1.0176,1.0917 0.7306,0 0.9355,-0.3129 0.9355,-1.4042 0,-0.8571 -0.2437,-1.4063 -0.623,-1.4063 z m -2.2324,4.207 c -0.1545,0.01 -0.8674,0.524 -1.584,1.1563 -0.7166,0.6322 -1.2749,1.475 -1.2422,1.873 0.033,0.3982 0.2717,1.147 0.5293,1.6621 0.2576,0.5153 0.891,0.9375 1.4062,0.9375 0.5151,0 1.2557,-0.4719 1.6446,-1.0527 0.3887,-0.5808 0.705,-1.5802 0.705,-2.2266 0.01,-0.6417 -0.2607,-1.4358 -0.5839,-1.7636 -0.3279,-0.3232 -0.7204,-0.5906 -0.875,-0.586 z m -194.00785,0.9981 c -2.58,0 -4.48,0.6695 -5.75,2.0195 -1.63,1.74 -1.72039,2.37 -0.65039,4.5 0.7,1.39 2.46,2.7406 4,3.0606 1.51,0.33 3.65,0.3525 4.75,0.053 1.1,-0.3 2.25078,-1.5114 2.55078,-2.6914 0.3,-1.19 0.19,-3.2288 -0.25,-4.5488 -0.66,-1.97 -1.48039,-2.3907 -4.65039,-2.3907 z m 130.34961,1.4394 c -17.05,0.01 -23.8,0.1406 -15,0.3106 8.8,0.17 22.75,0.16 31,0 8.25,-0.17 1.05,-0.3106 -16,-0.3106 z m 54.80464,1.7871 c -0.7728,0 -1.4043,0.2093 -1.4043,0.4668 0,0.2577 -0.5818,0.6056 -1.289,0.7696 -0.7073,0.164 -1.5581,0.5347 -1.8906,0.8203 -0.3372,0.2857 -0.6,0.8882 -0.586,1.3379 0.01,0.5151 -0.3278,0.8203 -0.9179,0.8203 -0.5854,0 -1.134,0.4861 -1.4571,1.2871 -0.2856,0.7071 -0.6794,1.6062 -0.8808,1.9902 -0.2014,0.3842 -0.5158,1.4378 -0.7032,2.3418 -0.1826,0.9039 -0.2101,2.1126 -0.051,2.6934 0.1547,0.5809 0.4924,0.9515 0.75,0.8203 0.2575,-0.1312 0.4687,-0.969 0.4687,-1.873 v -1.6407 c 3.4658,0.4917 4.3689,0.3436 5.4883,-0.3027 1.3443,-0.7729 1.767,-0.8011 3.8652,-0.2813 1.2974,0.3232 2.6727,0.584 3.0567,0.584 0.384,0 0.9185,-0.6831 1.1855,-1.5215 0.2668,-0.8383 0.3803,-1.8405 0.2539,-2.2246 -0.1217,-0.384 -0.7642,-1.0719 -1.4199,-1.5214 -0.651,-0.4498 -1.6118,-1.663 -2.127,-2.6934 -0.7821,-1.5597 -1.171,-1.8731 -2.3418,-1.8731 z m -11.25,3.2774 c -0.5246,0 -1.0779,0.3706 -1.2324,0.8203 -0.1545,0.4497 -0.046,1.2923 0.2442,1.873 0.2903,0.5808 0.9516,1.0547 1.4668,1.0547 0.6885,0 0.9355,-0.3147 0.9355,-1.1718 0,-0.6416 -0.1032,-1.4889 -0.2344,-1.8731 -0.1312,-0.384 -0.6598,-0.7031 -1.1797,-0.7031 z m -144.45503,8.4961 c -0.78,0 -1.68,0.9 -2,2 -0.38,1.27 -0.0406,2.27 0.93945,2.75 0.86,0.42 2.07,0.219 2.75,-0.461 0.68,-0.68 0.88094,-1.89 0.46094,-2.75 -0.41,-0.85 -1.38039,-1.539 -2.15039,-1.539 z m 15.68359,4.0879 c -0.33,0.064 -0.63742,0.6821 -1.23242,1.9121 -0.67,1.38 -0.84086,2.8495 -0.38086,3.2695 0.46,0.43 1.62008,0.54 2.58008,0.25 0.96,-0.28 1.75953,-0.8595 1.76953,-1.2695 0.01,-0.41 -0.60914,-1.65 -1.36914,-2.75 -0.685,-0.985 -1.03719,-1.4759 -1.36719,-1.4121 z m -31.67383,5.9121 c -0.76001,0 -1.8289,0.56 -2.37891,1.25 -0.62,0.77 -0.66132,2.12 -0.11132,3.5 0.48,1.24 1.33086,2.25 1.88086,2.25 0.55,0 1.48984,-1.01 2.08984,-2.25 0.59,-1.24 0.82,-2.81 0.5,-3.5 -0.33,-0.69 -1.21048,-1.25 -1.98047,-1.25 z m 16.54102,0 c -0.47,0 -1.5411,0.79 -2.3711,1.75 -0.83,0.96 -1.77008,3.55 -2.08007,5.75 -0.37001,2.62 -0.0689,4.78 0.87109,6.25 0.79,1.24 2.21969,2.269 3.17969,2.289 0.96,0.03 2.26086,-0.53 2.88086,-1.25 0.63,-0.71 1.42,-2.749 1.75,-4.539 0.44,-2.3 0.0291,-4.28 -1.38086,-6.75 -1.1,-1.92 -2.37961,-3.5 -2.84961,-3.5 z m 12.91992,3 c -0.52,0 -1.91938,1.1908 -3.10938,2.6308 -1.38,1.68 -2.15132,3.95 -2.11132,6.25 0.03,1.99 0.78039,4.2992 1.65039,5.1192 1.42,1.34 1.89078,1.2704 4.30078,-0.5996 1.75,-1.36 2.78922,-3.2 2.94922,-5.25 0.14,-1.73 -0.43,-4.2704 -1.25,-5.6504 -0.82,-1.37 -1.91969,-2.5 -2.42969,-2.5 z m -28.01953,7 c -1.07,0 -2.27992,0.56 -2.66992,1.25 -0.4,0.69 -1.08172,2.6 -1.51172,4.25 -0.52,2.03 -0.29836,3.89 0.68164,5.75 0.99,1.88 2.23922,2.75 3.94922,2.75 1.5,0 2.9,-0.8 3.5,-2 0.55,-1.1 1,-2.9 1,-4 0,-1.1 -0.67,-3.35 -1.5,-5 -0.9,-1.8 -2.27922,-3 -3.44922,-3 z m 39.61914,0 c -0.74,0 -1.70992,0.2999 -2.16992,0.6699 -0.46,0.36 -0.75993,1.71 -0.66993,3 0.12,1.61 0.78993,2.3301 2.16993,2.3301 1.56,0 2,-0.67 2,-3 0,-1.83 -0.52008,-3 -1.33008,-3 z m -4.76953,8.9804 c -0.33,0.01 -1.85086,1.1188 -3.38086,2.4688 -1.53,1.35 -2.72039,3.15 -2.65039,4 0.07,0.85 0.58086,2.4508 1.13086,3.5508 0.55,1.1 1.9,2 3,2 1.1,0 2.67976,-1.01 3.50976,-2.25 0.83,-1.24 1.50977,-3.37 1.50977,-4.75 0.01,-1.37 -0.56,-3.0695 -1.25,-3.7696 -0.7,-0.6899 -1.53914,-1.26 -1.86914,-1.25 z m -18.90039,9.0196 c -1.65,0 -3,0.45 -3,1 0,0.55 -1.24,1.2906 -2.75,1.6406 -1.51,0.35 -3.32907,1.14 -4.03907,1.75 -0.72,0.61 -1.28,1.8994 -1.25,2.8594 0.02,1.1 -0.70093,1.75 -1.96093,1.75 -1.25,0 -2.41938,1.04 -3.10938,2.75 -0.60999,1.51 -1.45086,3.43 -1.88086,4.25 -0.43,0.82 -1.1,3.07 -1.5,5 -0.39,1.93 -0.44937,4.51 -0.10937,5.75 0.33,1.24 1.04961,2.03 1.59961,1.75 0.55,-0.28 1,-2.07 1,-4 v -3.5 c 7.4,1.05 9.3307,0.7296 11.7207,-0.6504 2.87,-1.65 3.77,-1.7096 8.25,-0.5996 2.77,0.69 5.7093,1.25 6.5293,1.25 0.82,0 1.95929,-1.46 2.52929,-3.25 0.57,-1.79 0.81102,-3.93 0.54102,-4.75 -0.26,-0.82 -1.63125,-2.29 -3.03125,-3.25 -1.39,-0.96 -3.43906,-3.55 -4.53906,-5.75 -1.67,-3.33 -2.5,-4 -5,-4 z m -24.01954,7 c -1.12,0 -2.30085,0.79 -2.63085,1.75 -0.33,0.96 -0.10047,2.76 0.51953,4 0.62,1.24 2.03086,2.25 3.13086,2.25 1.47,0 2,-0.67 2,-2.5 0,-1.37 -0.22,-3.18 -0.5,-4 -0.28,-0.82 -1.40953,-1.5 -2.51954,-1.5 z m -79.78124,9.3476 c -0.15454,-0.033 -0.23829,0.015 -0.23829,0.1524 0,0.55 1.36907,2.35 3.03907,4 1.67,1.65 3.03906,2.55 3.03906,2 0,-0.55 -1.36906,-2.35 -3.03906,-4 -1.2525,-1.2375 -2.3372,-2.054 -2.80078,-2.1524 z" />
    <path
       id="path10635"
       style="color:#000000;font-style:normal;font-variant:normal;font-weight:normal;font-stretch:normal;font-size:medium;line-height:normal;font-family:sans-serif;font-variant-ligatures:normal;font-variant-position:normal;font-variant-caps:normal;font-variant-numeric:normal;font-variant-alternates:normal;font-variant-east-asian:normal;font-feature-settings:normal;font-variation-settings:normal;text-indent:0;text-align:start;text-decoration:none;text-decoration-line:none;text-decoration-style:solid;text-decoration-color:#000000;letter-spacing:normal;word-spacing:normal;text-transform:none;writing-mode:lr-tb;direction:ltr;text-orientation:mixed;dominant-baseline:auto;baseline-shift:baseline;text-anchor:start;white-space:normal;shape-padding:0;shape-margin:0;inline-size:0;clip-rule:nonzero;display:inline;overflow:visible;visibility:visible;opacity:1;isolation:auto;mix-blend-mode:normal;color-interpolation:sRGB;color-interpolation-filters:linearRGB;solid-color:#000000;solid-opacity:1;vector-effect:none;fill:#333333;fill-opacity:1;fill-rule:nonzero;stroke:none;stroke-linecap:butt;stroke-linejoin:miter;stroke-miterlimit:4;stroke-dasharray:none;stroke-dashoffset:0;stroke-opacity:1;color-rendering:auto;image-rendering:auto;shape-rendering:auto;text-rendering:auto;enable-background:accumulate;stop-color:#000000;stop-opacity:1"
       d="m 1024.3496,4408.959 v 1 h 27.0625 v 23.9941 h -16.959 v 1 h 17.959 v -11.9707 h 20.1719 v -1 h -20.1719 v -13.0234 z" />
  </g>
</svg>
