<?xml version="1.0" encoding="UTF-8" standalone="no"?>
<svg
   xmlns:dc="http://purl.org/dc/elements/1.1/"
   xmlns:cc="http://creativecommons.org/ns#"
   xmlns:rdf="http://www.w3.org/1999/02/22-rdf-syntax-ns#"
   xmlns:svg="http://www.w3.org/2000/svg"
   xmlns="http://www.w3.org/2000/svg"
   xmlns:sodipodi="http://sodipodi.sourceforge.net/DTD/sodipodi-0.dtd"
   xmlns:inkscape="http://www.inkscape.org/namespaces/inkscape"
   viewBox="0 0 512 512"
   width="512"
   height="512"
   version="1.1"
   id="svg125"
   sodipodi:docname="white-tailed-deer.svg"
   inkscape:version="1.0.2 (e86c870879, 2021-01-15, custom)">
  <sodipodi:namedview
     pagecolor="#ffffff"
     bordercolor="#666666"
     borderopacity="1"
     objecttolerance="10"
     gridtolerance="10"
     guidetolerance="10"
     inkscape:pageopacity="0"
     inkscape:pageshadow="2"
     inkscape:window-width="1366"
     inkscape:window-height="715"
     id="namedview3602"
     showgrid="false"
     inkscape:zoom="0.53515625"
     inkscape:cx="527.17445"
     inkscape:cy="2846.9017"
     inkscape:window-x="-8"
     inkscape:window-y="-8"
     inkscape:window-maximized="1"
     inkscape:current-layer="svg125" />
  <metadata
     id="metadata131">
    <rdf:RDF>
      <cc:Work
         rdf:about="">
        <dc:format>image/svg+xml</dc:format>
        <dc:type
           rdf:resource="http://purl.org/dc/dcmitype/StillImage" />
        <dc:title></dc:title>
      </cc:Work>
    </rdf:RDF>
  </metadata>
  <defs
     id="defs129" />
  <style
     id="style2">
		tspan { white-space:pre }
		.shp0 { fill: #e7d5b8 } 
		.shp1 { fill: #15120f } 
	</style>
  <g
     id="g4788"
     transform="matrix(1.9173027,0,0,1.9173027,-707.72802,-5175.5029)">
    <path
       id="Path 67"
       fill-rule="evenodd"
       class="shp1"
       d="m 440.5,2774.43 c 0.55,0.69 1.43,11.79 1.96,24.66 0.52,12.88 1.03,29.94 1.13,37.91 0.1,7.97 0.61,16.53 1.14,19 0.53,2.47 0.65,6.97 0.27,10 -0.41,3.23 -2.1,8.13 -4.1,11.88 -1.87,3.51 -5.31,8.13 -7.65,10.25 -2.34,2.13 -5.94,4.38 -8,5 -2.06,0.62 -5.1,0.81 -6.75,0.43 -1.72,-0.41 -5.09,-2.91 -7.9,-5.88 -2.7,-2.85 -6.18,-7.88 -7.74,-11.18 -1.66,-3.53 -3.28,-9.29 -3.92,-14 -0.79,-5.68 -0.8,-11.05 -0.07,-18.5 0.58,-5.78 2,-13.65 3.18,-17.5 1.17,-3.85 3.72,-10.15 5.67,-14 1.95,-3.85 5.81,-10.37 8.58,-14.5 2.76,-4.12 6.12,-8.85 7.46,-10.5 1.34,-1.65 4.39,-5.18 6.78,-7.86 2.38,-2.67 5.38,-5.21 6.65,-5.65 1.51,-0.53 2.66,-0.37 3.31,0.44 z m 20.62,2.87 c 1.77,0.66 4.86,3.23 6.88,5.7 2.02,2.47 7.09,9.45 11.27,15.5 4.17,6.05 9.46,15.05 11.75,20 2.3,4.95 5.25,13.05 6.57,18 1.66,6.19 2.4,11.65 2.39,17.5 -0.01,4.68 -0.73,11.2 -1.6,14.5 -0.87,3.3 -2.39,7.57 -3.39,9.5 -1,1.93 -3.32,4.94 -5.15,6.7 -1.84,1.76 -5.03,3.9 -7.09,4.75 -2.06,0.85 -5.32,1.55 -7.25,1.55 -1.93,0 -4.74,-0.48 -6.25,-1.06 -1.51,-0.59 -4.03,-2.28 -5.59,-3.75 -1.56,-1.48 -3.77,-4.49 -4.9,-6.69 -1.12,-2.2 -2.81,-6.25 -3.74,-9 -1.5,-4.43 -1.66,-9.48 -1.39,-44.5 0.17,-21.72 0.59,-40.85 0.94,-42.5 0.34,-1.65 1.24,-3.99 1.98,-5.2 1.23,-2 1.65,-2.09 4.57,-1 z"
       style="fill:#333333;fill-opacity:1"
       sodipodi:nodetypes="ccsscccsccccccscsccccsccccsscsscccccccc" />
    <g
       aria-label="inches"
       id="text2538-7-9-6-4-9-4-2-5-7-8-6-8"
       style="font-style:normal;font-weight:normal;font-size:16.366px;line-height:1.25;font-family:sans-serif;fill:#333333;fill-opacity:1;stroke:none;stroke-width:0.409151">
      <path
         d="m 558.71809,2828.6132 h -1.69414 v -1.5583 h 1.69414 z m -0.0959,10.4205 h -1.50235 v -8.9262 h 1.50235 z"
         style="white-space:pre;fill:#333333;fill-opacity:1;stroke-width:0.409151"
         id="path3236" />
      <path
         d="m 569.05871,2839.0337 h -1.50234 v -5.0824 q 0,-0.6153 -0.0719,-1.1508 -0.0719,-0.5434 -0.26371,-0.847 -0.19978,-0.3357 -0.57536,-0.4955 -0.37559,-0.1678 -0.97493,-0.1678 -0.61532,0 -1.28659,0.3037 -0.67126,0.3036 -1.28658,0.7751 v 6.6647 h -1.50235 v -8.9262 h 1.50235 v 0.9909 q 0.70323,-0.5833 1.4544,-0.911 0.75117,-0.3276 1.5423,-0.3276 1.44641,0 2.20558,0.871 0.75916,0.8711 0.75916,2.5093 z"
         style="white-space:pre;fill:#333333;fill-opacity:1;stroke-width:0.409151"
         id="path3238" />
      <path
         d="m 578.55227,2838.4743 q -0.75117,0.3596 -1.43042,0.5594 -0.67127,0.1998 -1.43043,0.1998 -0.96694,0 -1.77405,-0.2797 -0.80711,-0.2877 -1.38248,-0.8631 -0.58336,-0.5753 -0.90301,-1.4544 -0.31965,-0.879 -0.31965,-2.0537 0,-2.1896 1.19869,-3.4362 1.20667,-1.2467 3.1805,-1.2467 0.76715,0 1.50235,0.2158 0.74318,0.2158 1.3585,0.5274 v 1.6702 h -0.0799 q -0.68724,-0.5354 -1.42244,-0.8231 -0.7272,-0.2877 -1.42243,-0.2877 -1.27859,0 -2.02178,0.8631 -0.73519,0.855 -0.73519,2.5172 0,1.6142 0.71921,2.4853 0.7272,0.863 2.03776,0.863 0.4555,0 0.92698,-0.1199 0.47148,-0.1198 0.84707,-0.3116 0.32764,-0.1678 0.61532,-0.3516 0.28768,-0.1918 0.4555,-0.3277 h 0.0799 z"
         style="white-space:pre;fill:#333333;fill-opacity:1;stroke-width:0.409151"
         id="path3240" />
      <path
         d="m 587.94194,2839.0337 h -1.50234 v -5.0824 q 0,-0.6153 -0.0719,-1.1508 -0.0719,-0.5434 -0.26371,-0.847 -0.19978,-0.3357 -0.57536,-0.4955 -0.37559,-0.1678 -0.97493,-0.1678 -0.61532,0 -1.28658,0.3037 -0.67127,0.3036 -1.28659,0.7751 v 6.6647 h -1.50235 v -12.4343 h 1.50235 v 4.499 q 0.70323,-0.5833 1.4544,-0.911 0.75117,-0.3276 1.5423,-0.3276 1.44641,0 2.20558,0.871 0.75916,0.8711 0.75916,2.5093 z"
         style="white-space:pre;fill:#333333;fill-opacity:1;stroke-width:0.409151"
         id="path3242" />
      <path
         d="m 598.30654,2834.7264 h -6.57676 q 0,0.8231 0.24773,1.4384 0.24772,0.6074 0.67925,0.9989 0.41554,0.3836 0.98292,0.5754 0.57536,0.1918 1.26261,0.1918 0.911,0 1.82999,-0.3596 0.92698,-0.3676 1.31855,-0.7192 h 0.0799 v 1.6382 q -0.75917,0.3196 -1.5503,0.5354 -0.79113,0.2158 -1.66217,0.2158 -2.22156,0 -3.46818,-1.1987 -1.24663,-1.2067 -1.24663,-3.4203 0,-2.1895 1.19069,-3.4761 1.19868,-1.2866 3.14853,-1.2866 1.80602,0 2.78095,1.0548 0.98291,1.0549 0.98291,2.9967 z m -1.46239,-1.1507 q -0.008,-1.1827 -0.59934,-1.83 -0.58336,-0.6473 -1.78204,-0.6473 -1.20667,0 -1.92588,0.7112 -0.71122,0.7113 -0.80711,1.7661 z"
         style="white-space:pre;fill:#333333;fill-opacity:1;stroke-width:0.409151"
         id="path3244" />
      <path
         d="m 606.96103,2836.4605 q 0,1.2227 -1.01489,2.0058 -1.00689,0.7832 -2.75696,0.7832 -0.99091,0 -1.822,-0.2318 -0.82309,-0.2397 -1.38248,-0.5194 v -1.6862 h 0.0799 q 0.71122,0.5354 1.58226,0.8551 0.87104,0.3117 1.67017,0.3117 0.99091,0 1.55029,-0.3197 0.55938,-0.3196 0.55938,-1.0069 0,-0.5274 -0.30366,-0.7991 -0.30367,-0.2717 -1.16672,-0.4635 -0.31965,-0.072 -0.83908,-0.1678 -0.51143,-0.096 -0.93497,-0.2078 -1.1747,-0.3116 -1.67016,-0.911 -0.48746,-0.6073 -0.48746,-1.4864 0,-0.5513 0.22375,-1.0388 0.23175,-0.4875 0.69524,-0.871 0.4475,-0.3756 1.13475,-0.5914 0.69523,-0.2238 1.55029,-0.2238 0.79912,0 1.61423,0.1998 0.82309,0.1918 1.36649,0.4715 v 1.6062 h -0.0799 q -0.57537,-0.4235 -1.39846,-0.7112 -0.82309,-0.2957 -1.61422,-0.2957 -0.8231,0 -1.39048,0.3197 -0.56737,0.3117 -0.56737,0.935 0,0.5514 0.34362,0.8311 0.33563,0.2796 1.08681,0.4555 0.41554,0.096 0.92698,0.1917 0.51942,0.096 0.86305,0.1758 1.04685,0.2398 1.61422,0.8231 0.56738,0.5914 0.56738,1.5663 z"
         style="white-space:pre;fill:#333333;fill-opacity:1;stroke-width:0.409151"
         id="path3246" />
    </g>
    <path
       d="m 548.92357,2832.6941 q 0.44765,0.401 0.73676,1.0072 0.28911,0.6062 0.28911,1.5668 0,0.9512 -0.34507,1.7439 -0.34506,0.7928 -0.96991,1.3803 -0.69946,0.6528 -1.65072,0.9699 -0.94193,0.3078 -2.07038,0.3078 -1.15644,0 -2.27557,-0.2798 -1.11912,-0.2705 -1.83723,-0.5969 v -1.9491 h 0.13989 q 0.79271,0.5222 1.86521,0.8673 1.0725,0.3451 2.07039,0.3451 0.58754,0 1.2497,-0.1959 0.66215,-0.1958 1.07249,-0.5782 0.429,-0.4104 0.63418,-0.9046 0.2145,-0.4943 0.2145,-1.2497 0,-0.7461 -0.24248,-1.2311 -0.23315,-0.4943 -0.65283,-0.774 -0.41967,-0.2891 -1.01654,-0.3917 -0.59687,-0.1119 -1.287,-0.1119 h -0.83934 v -1.5482 h 0.65282 q 1.41757,0 2.25691,-0.5875 0.84867,-0.5969 0.84867,-1.7347 0,-0.5036 -0.21449,-0.8766 -0.2145,-0.3824 -0.59687,-0.6249 -0.40102,-0.2424 -0.858,-0.3357 -0.45698,-0.093 -1.0352,-0.093 -0.88597,0 -1.88386,0.3171 -0.99789,0.3171 -1.88387,0.8953 h -0.0933 v -1.9491 q 0.66215,-0.3264 1.76263,-0.5969 1.1098,-0.2798 2.14499,-0.2798 1.01655,0 1.79061,0.1865 0.77406,0.1866 1.39891,0.5969 0.67148,0.4477 1.01654,1.0818 0.34507,0.6342 0.34507,1.4829 0,1.1564 -0.8207,2.0237 -0.81137,0.858 -1.92117,1.0819 v 0.1305 q 0.44765,0.075 1.02587,0.3171 0.57822,0.2332 0.97924,0.5876 z"
       style="font-style:normal;font-weight:normal;font-size:19.0998px;line-height:1.25;font-family:sans-serif;white-space:pre;fill:#333333;fill-opacity:1;stroke:none;stroke-width:0.477494"
       id="path4772" />
    <path
       style="color:#000000;font-style:normal;font-variant:normal;font-weight:normal;font-stretch:normal;font-size:medium;line-height:normal;font-family:sans-serif;font-variant-ligatures:normal;font-variant-position:normal;font-variant-caps:normal;font-variant-numeric:normal;font-variant-alternates:normal;font-variant-east-asian:normal;font-feature-settings:normal;font-variation-settings:normal;text-indent:0;text-align:start;text-decoration:none;text-decoration-line:none;text-decoration-style:solid;text-decoration-color:#000000;letter-spacing:normal;word-spacing:normal;text-transform:none;writing-mode:lr-tb;direction:ltr;text-orientation:mixed;dominant-baseline:auto;baseline-shift:baseline;text-anchor:start;white-space:normal;shape-padding:0;shape-margin:0;inline-size:0;clip-rule:nonzero;display:inline;overflow:visible;visibility:visible;opacity:1;isolation:auto;mix-blend-mode:normal;color-interpolation:sRGB;color-interpolation-filters:linearRGB;solid-color:#000000;solid-opacity:1;vector-effect:none;fill:#333333;fill-opacity:1;fill-rule:nonzero;stroke:none;stroke-linecap:butt;stroke-linejoin:miter;stroke-miterlimit:4;stroke-dasharray:none;stroke-dashoffset:0;stroke-opacity:1;color-rendering:auto;image-rendering:auto;shape-rendering:auto;text-rendering:auto;enable-background:accumulate;stop-color:#000000;stop-opacity:1"
       d="m 483.47461,2772.0195 v 1 h 89.51367 v 45.5489 h 1 v -46.5489 z"
       id="path4760" />
    <path
       style="color:#000000;font-style:normal;font-variant:normal;font-weight:normal;font-stretch:normal;font-size:medium;line-height:normal;font-family:sans-serif;font-variant-ligatures:normal;font-variant-position:normal;font-variant-caps:normal;font-variant-numeric:normal;font-variant-alternates:normal;font-variant-east-asian:normal;font-feature-settings:normal;font-variation-settings:normal;text-indent:0;text-align:start;text-decoration:none;text-decoration-line:none;text-decoration-style:solid;text-decoration-color:#000000;letter-spacing:normal;word-spacing:normal;text-transform:none;writing-mode:lr-tb;direction:ltr;text-orientation:mixed;dominant-baseline:auto;baseline-shift:baseline;text-anchor:start;white-space:normal;shape-padding:0;shape-margin:0;inline-size:0;clip-rule:nonzero;display:inline;overflow:visible;visibility:visible;opacity:1;isolation:auto;mix-blend-mode:normal;color-interpolation:sRGB;color-interpolation-filters:linearRGB;solid-color:#000000;solid-opacity:1;vector-effect:none;fill:#333333;fill-opacity:1;fill-rule:nonzero;stroke:none;stroke-linecap:butt;stroke-linejoin:miter;stroke-miterlimit:4;stroke-dasharray:none;stroke-dashoffset:0;stroke-opacity:1;color-rendering:auto;image-rendering:auto;shape-rendering:auto;text-rendering:auto;enable-background:accumulate;stop-color:#000000;stop-opacity:1"
       d="m 572.99609,2852.4961 v 39.4844 h -73.39062 v 1 h 74.39062 v -40.4844 z"
       id="path4762" />
  </g>
</svg>
