<?xml version="1.0" encoding="UTF-8" standalone="no"?>
<svg
   xmlns:dc="http://purl.org/dc/elements/1.1/"
   xmlns:cc="http://creativecommons.org/ns#"
   xmlns:rdf="http://www.w3.org/1999/02/22-rdf-syntax-ns#"
   xmlns:svg="http://www.w3.org/2000/svg"
   xmlns="http://www.w3.org/2000/svg"
   xmlns:sodipodi="http://sodipodi.sourceforge.net/DTD/sodipodi-0.dtd"
   xmlns:inkscape="http://www.inkscape.org/namespaces/inkscape"
   version="1.1"
   id="svg10"
   width="512"
   height="512"
   viewBox="0 0 512 512"
   sodipodi:docname="wild-turkey.svg"
   inkscape:version="1.0.2 (e86c870879, 2021-01-15, custom)">
  <metadata
     id="metadata16">
    <rdf:RDF>
      <cc:Work
         rdf:about="">
        <dc:format>image/svg+xml</dc:format>
        <dc:type
           rdf:resource="http://purl.org/dc/dcmitype/StillImage" />
        <dc:title></dc:title>
      </cc:Work>
    </rdf:RDF>
  </metadata>
  <defs
     id="defs14" />
  <sodipodi:namedview
     pagecolor="#ffffff"
     bordercolor="#666666"
     borderopacity="1"
     objecttolerance="10"
     gridtolerance="10"
     guidetolerance="10"
     inkscape:pageopacity="0"
     inkscape:pageshadow="2"
     inkscape:window-width="1366"
     inkscape:window-height="715"
     id="namedview12"
     showgrid="false"
     inkscape:zoom="0.5553815"
     inkscape:cx="507.2617"
     inkscape:cy="305.71114"
     inkscape:window-x="-8"
     inkscape:window-y="-8"
     inkscape:window-maximized="1"
     inkscape:current-layer="g18" />
  <g
     inkscape:groupmode="layer"
     inkscape:label="Image"
     id="g18">
    <path
       id="path1070"
       style="fill:#333333;fill-opacity:1;stroke:none;stroke-width:1.58734px;stroke-linecap:butt;stroke-linejoin:miter;stroke-opacity:1"
       d="m 193.81243,127.87 -4.483,9.28534 c 0,0 4.10652,-0.50776 7.07485,3.02897 2.96833,3.53672 -2.59185,-12.31431 -2.59185,-12.31431 z m 32.59014,1.03858 v 1.58735 H 399.919 v 99.75149 h 1.58734 V 128.90858 Z m -32.55914,15.95094 c -10.99835,0.47417 -8.74587,15.40839 -8.74587,15.40839 0,0 -0.25263,4.54701 0,6.82062 0.25261,2.27362 2.14618,4.04406 2.2725,6.6966 0.12635,2.65257 -2.77625,2.90543 -2.52362,9.34734 0.25262,6.44192 2.2718,5.55758 2.65073,11.24161 0.37893,5.68404 -4.54561,9.47381 -3.66142,22.10499 0.88418,12.63121 3.02987,9.3461 3.66142,18.94581 0.63156,9.59971 -3.2831,2.904 -2.77785,17.93512 0.50526,15.03112 3.53741,10.35942 3.53741,17.43287 0,7.07347 -4.29517,3.41052 -3.03206,20.58895 1.26311,17.17842 10.73542,21.47183 18.44045,21.85078 0,0 10.48356,-0.88452 10.23093,-17.684 -0.25262,-16.79951 -2.90496,-18.9458 -2.90496,-18.9458 0,0 -0.75624,-5.81201 0.25421,-12.50653 1.0105,-6.69454 1.76638,-4.92631 1.64006,-12.75765 -0.12635,-7.83133 -3.66305,-11.99765 -3.91566,-17.80801 -0.25262,-5.81034 4.04347,-9.72673 3.66453,-19.70537 -0.37893,-9.97864 -8.58937,-14.4006 -8.842,-17.30577 -0.25262,-2.90517 3.40871,-5.30542 3.15609,-13.76832 -0.25261,-8.46291 -3.91565,-9.84958 -3.91565,-13.76525 0,-3.91566 4.16983,-23.62113 -8.08243,-24.12638 -0.38288,-0.0159 -0.75202,-0.0159 -1.10681,0 z M 57.248241,204.46549 c -0.44036,-0.019 -0.78374,0.0614 -0.989,0.26663 -1.64204,1.64205 5.05347,11.74695 5.05347,11.74695 l 6.94772,-6.94772 c 0,0 -7.92964,-4.93289 -11.01219,-5.06586 z m 275.087769,7.91811 -11.52063,6.78962 8.84199,8.03593 z m -257.685909,8.02662 c -4.96759,0.0443 -5.43788,3.2274 -5.43788,3.2274 0,0 -0.35901,3.21541 1.60594,9.82478 1.96494,6.6094 12.14978,18.22143 16.79422,20.72228 4.64444,2.50085 6.07344,5.00074 6.07344,5.00074 l 12.859959,14.64883 c 0,0 4.10782,4.6425 10.18131,16.07494 6.07349,11.43246 12.86307,14.82869 12.86307,14.82863 0,0 9.82405,2.49946 10.18131,4.4644 0.35726,1.96497 4.82403,8.57538 4.82403,8.57538 0,0 2.50005,10.18019 12.50344,13.75284 10.0034,3.57263 17.8638,-1.78576 17.8638,-1.78576 6.60937,-5.35897 3.03473,-10.36029 2.49882,-13.03977 -0.53588,-2.67948 -5.17978,-6.25334 -11.61054,-10.00461 -6.43075,-3.75127 -7.85763,-4.82156 -10.89438,-6.78651 -3.03674,-1.96496 -3.21737,-3.57424 -3.57463,-6.78961 -0.35726,-3.21538 -2.14218,-4.463 -4.4644,-8.9288 -2.32221,-4.46582 -9.64678,-13.04041 -11.79036,-15.00536 -2.14359,-1.96494 -3.75049,-1.6073 -6.42997,-3.21499 -2.67949,-1.60769 -4.11075,-5.18163 -5.00385,-7.68249 -0.89318,-2.50084 -4.6422,-6.25241 -7.14304,-8.9319 -2.50086,-2.67948 -9.28924,-5.18119 -12.68325,-7.14615 -3.39401,-1.96496 -4.466489,-5.17972 -5.716909,-7.85921 -1.25043,-2.67948 -5.35729,-6.96632 -5.35729,-6.96632 0,0 -5.00416,-4.2864 -13.93576,-6.42998 -1.67468,-0.40193 -3.06071,-0.55895 -4.20708,-0.54876 z m 241.874489,6.84232 c -3.25649,0.12334 -5.87193,1.60286 -5.87193,1.60286 0,0 -10.10439,5.81029 -13.13589,11.74695 -3.03149,5.93667 -5.30767,10.23092 -5.30767,10.23092 l -1.38893,4.54812 c 0,0 -7.70517,-1.26226 -12.75763,8.46376 -5.05248,9.72601 -6.18817,11.24161 -6.18817,11.24161 0,0 -1.64364,3.53601 -4.16988,4.29389 -2.52624,0.75786 -10.85997,6.56736 -13.25989,11.61984 -2.39993,5.05247 -5.93722,9.98079 -6.94772,15.03325 0,0 -7.9584,1.2621 -11.87407,6.69351 -3.91566,5.43141 -7.07225,11.74792 -5.68281,16.80041 1.38943,5.05248 6.06104,8.46376 6.06104,8.46376 0,0 2.27486,4.04156 14.40079,1.89427 12.12595,-2.14731 13.263,-18.18933 13.263,-18.18933 0,0 11.61824,-6.31555 15.28128,-11.74696 3.66305,-5.43141 5.5589,-9.47264 6.06415,-12.12519 l 0.50534,-2.65385 c 0,0 13.13706,-9.85337 15.28437,-13.39011 2.14729,-3.53673 6.44309,-11.11578 6.06416,-13.76833 -0.37893,-2.65256 3.91564,-4.16677 3.91564,-4.16677 0,0 12.3774,-12.25269 14.01946,-18.18935 1.64206,-5.93666 3.15661,-12.50421 -2.14848,-16.54619 -1.98942,-1.51574 -4.17227,-1.93107 -6.12616,-1.85707 z m 43.64883,13.93267 -10.35493,12.06628 v 3.3018 h 10.24022 v 6.01764 h 2.75615 v -6.01764 h 3.17468 v -2.29731 h -3.17468 v -13.07077 z m 54.43161,0.91147 v 19.43566 h 2.34691 V 251.1154 c 0.64119,-0.49133 1.31259,-0.89578 2.01208,-1.21222 0.69948,-0.31643 1.37088,-0.47433 2.01208,-0.47433 0.62454,0 1.13084,0.0886 1.52223,0.26352 0.39138,0.16654 0.69091,0.42531 0.89909,0.77507 0.19985,0.31643 0.33739,0.75759 0.41233,1.32382 0.0749,0.55794 0.11476,1.15695 0.11476,1.79816 v 7.94292 h 2.34692 v -9.05592 c 0,-1.70707 -0.39632,-3.01419 -1.18741,-3.92186 -0.79108,-0.90767 -1.94029,-1.36102 -3.44752,-1.36102 -0.8244,0 -1.62614,0.17013 -2.4089,0.51155 -0.78275,0.34141 -1.54282,0.81514 -2.27562,1.42302 v -7.03143 z m -36.66081,0.71306 v 2.43373 h 2.64764 v -2.43373 z m -17.88551,1.79507 v 9.65117 h -8.28705 z m 32.06309,2.58873 c -0.82441,0 -1.62925,0.17013 -2.41202,0.51155 -0.78275,0.34141 -1.53971,0.81514 -2.2725,1.42302 v -1.54704 h -2.34691 v 13.95127 h 2.34691 V 251.1154 c 0.64119,-0.49133 1.3126,-0.89578 2.01208,-1.21222 0.6995,-0.31643 1.36778,-0.47433 2.00899,-0.47433 0.62454,0 1.13395,0.0886 1.52533,0.26352 0.39139,0.16654 0.6909,0.42531 0.89908,0.77507 0.19987,0.31643 0.33739,0.75759 0.41233,1.32382 0.0749,0.55794 0.11159,1.15695 0.11159,1.79816 v 7.94292 h 2.35001 v -9.05592 c 0,-1.70707 -0.39632,-3.01419 -1.18741,-3.92186 -0.79108,-0.90767 -1.94029,-1.36102 -3.44752,-1.36102 z m 44.46731,0 c -2.03184,0 -3.67104,0.6714 -4.92014,2.01208 -1.24076,1.34069 -1.86327,3.15004 -1.86327,5.43169 0,2.30666 0.651,4.09058 1.95007,5.34799 1.29903,1.2491 3.10432,1.87256 5.4193,1.87256 0.90766,0 1.77361,-0.11302 2.59803,-0.33793 0.82439,-0.22483 1.63333,-0.50398 2.42441,-0.83707 v -2.56083 h -0.12397 c -0.40802,0.36641 -1.09571,0.74234 -2.06167,1.1254 -0.95763,0.37472 -1.91226,0.56115 -2.86157,0.56115 -0.71614,0 -1.37221,-0.0978 -1.97178,-0.29762 -0.59124,-0.19987 -1.10472,-0.50248 -1.53774,-0.90219 -0.44967,-0.40804 -0.80213,-0.92656 -1.06029,-1.55943 -0.25815,-0.64121 -0.38754,-1.39001 -0.38754,-2.24771 h 10.28054 v -1.27421 c 0,-2.02351 -0.51349,-3.58535 -1.53774,-4.68454 -1.01593,-1.0992 -2.46463,-1.64934 -4.34659,-1.64934 z m 14.20238,0.0495 c -0.89101,0 -1.69995,0.11714 -2.42442,0.35032 -0.71614,0.22485 -1.30703,0.53251 -1.77336,0.9239 -0.48298,0.39971 -0.84359,0.85307 -1.08509,1.36102 -0.23315,0.50796 -0.35035,1.04998 -0.35035,1.62455 0,0.91599 0.25473,1.68923 0.76268,2.32211 0.51629,0.62454 1.38633,1.10134 2.61043,1.42611 0.44134,0.11651 0.92729,0.2225 1.46024,0.32244 0.54127,0.1 0.97833,0.18858 1.31142,0.26352 0.89934,0.19986 1.50651,0.44234 1.82295,0.72547 0.31642,0.28312 0.47435,0.69983 0.47435,1.2494 0,0.71615 -0.29138,1.23876 -0.87428,1.57185 -0.5829,0.33309 -1.38874,0.49914 -2.42132,0.49914 -0.83272,0 -1.70276,-0.16199 -2.61043,-0.48674 -0.90768,-0.33309 -1.73289,-0.77827 -2.47402,-1.33621 h -0.12397 v 2.63523 c 0.5829,0.29145 1.30319,0.56246 2.1609,0.81227 0.86604,0.24149 1.81347,0.36274 2.84606,0.36274 1.82366,0 3.26015,-0.40855 4.30938,-1.22462 1.05755,-0.81608 1.58734,-1.8603 1.58734,-3.13438 0,-1.01591 -0.29542,-1.833 -0.88667,-2.44922 -0.59122,-0.60788 -1.43277,-1.03678 -2.52364,-1.28661 -0.35807,-0.0833 -0.80735,-0.17289 -1.34862,-0.27283 -0.53295,-0.1 -1.0179,-0.2008 -1.45093,-0.30072 -0.78275,-0.18321 -1.34611,-0.42162 -1.69585,-0.71307 -0.35808,-0.29145 -0.53944,-0.72443 -0.53944,-1.29902 0,-0.64952 0.29543,-1.13545 0.88667,-1.46022 0.59124,-0.33309 1.3156,-0.49914 2.17329,-0.49914 0.82441,0 1.66594,0.15381 2.52364,0.46193 0.85771,0.29977 1.58614,0.66856 2.18569,1.1099 h 0.12715 v -2.50813 c -0.56625,-0.29147 -1.27838,-0.538 -2.1361,-0.73786 -0.84936,-0.20818 -1.69091,-0.31313 -2.52363,-0.31313 z m -43.66743,0.0127 c -2.05682,0 -3.71543,0.65104 -4.97286,1.95009 -1.24908,1.29905 -1.87256,3.088 -1.87256,5.36968 0,1.22409 0.16606,2.2959 0.49914,3.21189 0.33309,0.91599 0.80274,1.67295 1.41063,2.2725 0.59957,0.59957 1.31986,1.04886 2.1609,1.34863 0.84107,0.29145 1.76715,0.43713 2.77475,0.43713 0.79108,0 1.5358,-0.10492 2.2353,-0.31311 0.70781,-0.2082 1.45253,-0.49957 2.23529,-0.8743 v -2.58562 h -0.12397 c -0.17488,0.14159 -0.41328,0.31167 -0.71306,0.51154 -0.29979,0.19153 -0.61969,0.37696 -0.96109,0.55185 -0.39139,0.19985 -0.83252,0.36184 -1.32383,0.48675 -0.49132,0.12492 -0.97628,0.18602 -1.45093,0.18602 -1.36567,0 -2.4262,-0.4493 -3.18399,-1.34863 -0.74944,-0.90767 -1.12539,-2.20256 -1.12539,-3.88465 0,-1.73208 0.38409,-3.04324 1.1502,-3.93425 0.77442,-0.89934 1.82683,-1.34862 3.15918,-1.34862 0.72448,0 1.46823,0.14969 2.22601,0.44953 0.7661,0.29977 1.50676,0.72871 2.2229,1.28662 h 0.12397 v -2.61043 c -0.6412,-0.32477 -1.34925,-0.59984 -2.12369,-0.82469 -0.7661,-0.22483 -1.54748,-0.33793 -2.3469,-0.33793 z m -29.03103,0.32554 v 13.95127 h 2.35002 V 247.5813 Z m 58.37207,1.55015 c 1.24909,0 2.17616,0.33617 2.78405,1.01068 0.61622,0.67449 0.92796,1.62913 0.93628,2.86156 h -7.99253 c 0.10001,-1.0992 0.5207,-2.02123 1.26183,-2.76236 0.74945,-0.74113 1.75295,-1.1099 3.01037,-1.10988 z M 399.919,280.76978 V 382.54266 H 249.13692 V 384.13 H 401.50634 V 280.7698 Z m -195.32379,59.50985 c -0.91009,0.006 -1.89361,0.0778 -2.95146,0.23563 -8.4629,1.26311 -17.42917,8.58995 -18.31335,11.87407 0,0 -4.04269,13.6435 4.29389,21.34852 8.3366,7.70503 13.13588,7.70419 13.13588,7.70419 0,0 11.87402,1.76801 19.70537,-9.85269 7.83135,-11.6207 -6.69351,-28.16913 -6.69351,-28.16913 0,0 -2.80621,-3.18896 -9.17682,-3.14059 z" />
  </g>
</svg>
