<?xml version="1.0" encoding="UTF-8" standalone="no"?>
<svg
   xmlns:dc="http://purl.org/dc/elements/1.1/"
   xmlns:cc="http://creativecommons.org/ns#"
   xmlns:rdf="http://www.w3.org/1999/02/22-rdf-syntax-ns#"
   xmlns:svg="http://www.w3.org/2000/svg"
   xmlns="http://www.w3.org/2000/svg"
   xmlns:sodipodi="http://sodipodi.sourceforge.net/DTD/sodipodi-0.dtd"
   xmlns:inkscape="http://www.inkscape.org/namespaces/inkscape"
   viewBox="0 0 512 512"
   width="512"
   height="512"
   version="1.1"
   id="svg125"
   sodipodi:docname="woodchuck.svg"
   inkscape:version="1.0.2 (e86c870879, 2021-01-15, custom)">
  <sodipodi:namedview
     pagecolor="#ffffff"
     bordercolor="#666666"
     borderopacity="1"
     objecttolerance="10"
     gridtolerance="10"
     guidetolerance="10"
     inkscape:pageopacity="0"
     inkscape:pageshadow="2"
     inkscape:window-width="1366"
     inkscape:window-height="715"
     id="namedview7008"
     showgrid="false"
     inkscape:zoom="0.5"
     inkscape:cx="617.82347"
     inkscape:cy="5324.3982"
     inkscape:window-x="-8"
     inkscape:window-y="-8"
     inkscape:window-maximized="1"
     inkscape:current-layer="svg125"
     inkscape:document-rotation="0" />
  <metadata
     id="metadata131">
    <rdf:RDF>
      <cc:Work
         rdf:about="">
        <dc:format>image/svg+xml</dc:format>
        <dc:type
           rdf:resource="http://purl.org/dc/dcmitype/StillImage" />
        <dc:title></dc:title>
      </cc:Work>
    </rdf:RDF>
  </metadata>
  <defs
     id="defs129" />
  <style
     id="style2">
		tspan { white-space:pre }
		.shp0 { fill: #e7d5b8 } 
		.shp1 { fill: #15120f } 
	</style>
  <g
     id="g14823"
     transform="matrix(2.0258827,0,0,2.0258827,-818.92819,-10277.423)">
    <g
       aria-label="inches"
       id="text2538-7-9-6-4-9-4-2-5-7-8-6-578"
       style="font-style:normal;font-weight:normal;font-size:16.366px;line-height:1.25;font-family:sans-serif;fill:#333333;fill-opacity:1;stroke:none;stroke-width:0.409151">
      <path
         d="m 581.07691,5209.7133 h -1.69413 v -1.5583 h 1.69413 z m -0.0959,10.4205 h -1.50235 v -8.9262 h 1.50235 z"
         style="white-space:pre;fill:#333333;fill-opacity:1;stroke-width:0.409151"
         id="path3041" />
      <path
         d="m 591.41754,5220.1338 h -1.50235 v -5.0824 q 0,-0.6153 -0.0719,-1.1508 -0.0719,-0.5434 -0.26371,-0.847 -0.19978,-0.3357 -0.57537,-0.4955 -0.37558,-0.1678 -0.97492,-0.1678 -0.61533,0 -1.28659,0.3037 -0.67126,0.3036 -1.28658,0.7751 v 6.6647 h -1.50235 v -8.9262 h 1.50235 v 0.9909 q 0.70322,-0.5833 1.4544,-0.911 0.75117,-0.3276 1.5423,-0.3276 1.44641,0 2.20557,0.871 0.75917,0.8711 0.75917,2.5093 z"
         style="white-space:pre;fill:#333333;fill-opacity:1;stroke-width:0.409151"
         id="path3043" />
      <path
         d="m 600.9111,5219.5744 q -0.75118,0.3596 -1.43043,0.5594 -0.67126,0.1998 -1.43043,0.1998 -0.96693,0 -1.77404,-0.2797 -0.80712,-0.2877 -1.38248,-0.8631 -0.58336,-0.5753 -0.90301,-1.4544 -0.31965,-0.879 -0.31965,-2.0537 0,-2.1896 1.19868,-3.4362 1.20668,-1.2467 3.1805,-1.2467 0.76716,0 1.50235,0.2158 0.74318,0.2158 1.35851,0.5274 v 1.6702 h -0.0799 q -0.68725,-0.5354 -1.42244,-0.8231 -0.7272,-0.2877 -1.42244,-0.2877 -1.27859,0 -2.02177,0.8631 -0.73519,0.855 -0.73519,2.5172 0,1.6142 0.71921,2.4853 0.7272,0.863 2.03775,0.863 0.4555,0 0.92698,-0.1199 0.47149,-0.1198 0.84707,-0.3116 0.32764,-0.1678 0.61533,-0.3516 0.28768,-0.1918 0.4555,-0.3277 h 0.0799 z"
         style="white-space:pre;fill:#333333;fill-opacity:1;stroke-width:0.409151"
         id="path3045" />
      <path
         d="m 610.30077,5220.1338 h -1.50235 v -5.0824 q 0,-0.6153 -0.0719,-1.1508 -0.0719,-0.5434 -0.26371,-0.847 -0.19978,-0.3357 -0.57537,-0.4955 -0.37558,-0.1678 -0.97492,-0.1678 -0.61533,0 -1.28659,0.3037 -0.67126,0.3036 -1.28658,0.7751 v 6.6647 H 602.837 v -12.4343 h 1.50235 v 4.499 q 0.70322,-0.5833 1.4544,-0.911 0.75117,-0.3276 1.5423,-0.3276 1.44641,0 2.20557,0.871 0.75917,0.8711 0.75917,2.5093 z"
         style="white-space:pre;fill:#333333;fill-opacity:1;stroke-width:0.409151"
         id="path3047" />
      <path
         d="m 620.66537,5215.8265 h -6.57677 q 0,0.8231 0.24773,1.4384 0.24773,0.6074 0.67925,0.9989 0.41555,0.3836 0.98292,0.5754 0.57537,0.1918 1.26261,0.1918 0.911,0 1.82999,-0.3596 0.92698,-0.3676 1.31855,-0.7192 h 0.0799 v 1.6382 q -0.75916,0.3196 -1.55029,0.5354 -0.79113,0.2158 -1.66217,0.2158 -2.22156,0 -3.46819,-1.1987 -1.24663,-1.2067 -1.24663,-3.4203 0,-2.1896 1.19069,-3.4761 1.19868,-1.2866 3.14854,-1.2866 1.80601,0 2.78094,1.0548 0.98292,1.0549 0.98292,2.9967 z m -1.46239,-1.1507 q -0.008,-1.1827 -0.59934,-1.83 -0.58336,-0.6473 -1.78204,-0.6473 -1.20668,0 -1.92588,0.7112 -0.71122,0.7113 -0.80712,1.7661 z"
         style="white-space:pre;fill:#333333;fill-opacity:1;stroke-width:0.409151"
         id="path3049" />
      <path
         d="m 629.31985,5217.5606 q 0,1.2227 -1.01488,2.0058 -1.00689,0.7832 -2.75697,0.7832 -0.99091,0 -1.82199,-0.2318 -0.8231,-0.2397 -1.38248,-0.5194 v -1.6862 h 0.0799 q 0.71122,0.5354 1.58226,0.8551 0.87104,0.3116 1.67016,0.3116 0.99091,0 1.5503,-0.3196 0.55938,-0.3196 0.55938,-1.0069 0,-0.5274 -0.30367,-0.7991 -0.30366,-0.2717 -1.16671,-0.4635 -0.31965,-0.072 -0.83908,-0.1678 -0.51144,-0.096 -0.93497,-0.2078 -1.17471,-0.3116 -1.67016,-0.911 -0.48747,-0.6073 -0.48747,-1.4864 0,-0.5513 0.22376,-1.0388 0.23174,-0.4875 0.69523,-0.8711 0.44751,-0.3755 1.13475,-0.5913 0.69524,-0.2238 1.5503,-0.2238 0.79912,0 1.61422,0.1998 0.8231,0.1918 1.3665,0.4715 v 1.6062 h -0.0799 q -0.57537,-0.4235 -1.39846,-0.7112 -0.8231,-0.2957 -1.61423,-0.2957 -0.82309,0 -1.39047,0.3197 -0.56738,0.3117 -0.56738,0.935 0,0.5514 0.34363,0.8311 0.33563,0.2796 1.0868,0.4555 0.41554,0.096 0.92698,0.1917 0.51943,0.096 0.86305,0.1758 1.04685,0.2398 1.61423,0.8231 0.56737,0.5914 0.56737,1.5663 z"
         style="white-space:pre;fill:#333333;fill-opacity:1;stroke-width:0.409151"
         id="path3051" />
    </g>
    <text
       xml:space="preserve"
       style="font-style:normal;font-weight:normal;font-size:19.0998px;line-height:1.25;font-family:sans-serif;fill:#333333;fill-opacity:1;stroke:none;stroke-width:0.477494"
       x="560.98566"
       y="5220.4629"
       id="text3525-31-9"><tspan
         id="tspan3523-61-6"
         x="560.98566"
         y="5220.4629"
         style="fill:#333333;fill-opacity:1;stroke-width:0.477494">2</tspan></text>
    <path
       id="Path 1"
       d="m 477.3067,5140.8318 c -0.44,0 -1.42922,0.5392 -2.19922,1.1992 -0.77,0.66 -1.30922,2.01 -1.19922,3 0.11,0.99 0.64922,1.8008 1.19922,1.8008 0.55,0 1.45,-1.12 2,-2.5 0.55,-1.37 1,-2.72 1,-3 0,-0.28 -0.36078,-0.5 -0.80078,-0.5 z m -16.83985,1 c -0.64999,0 -1.44929,0.67 -1.77929,1.5 -0.32,0.82 -0.58008,1.95 -0.58008,2.5 0,0.55 0.67,1 1.5,1 0.83,0 1.5,-0.45 1.5,-1 0,-0.55 0.1193,-1.68 0.2793,-2.5 0.15,-0.83 -0.25993,-1.5 -0.91993,-1.5 z m 13.39063,6.6309 c -0.94687,0.024 -2.10758,0.5932 -3.33008,1.6582 -1.59,1.38 -2.80047,3.7615 -3.23047,6.3515 -0.51,3.04 -0.28945,4.5791 0.81055,5.7891 0.83,0.91 2.06,1.6394 2.75,1.6094 0.69,-0.02 2.15,-0.9391 3.25,-2.0391 1.1,-1.1 2.42922,-3.69 2.94922,-5.75 0.52,-2.06 0.58062,-4.43 0.14062,-5.25 -0.45,-0.82 -1.5607,-1.8209 -2.4707,-2.2109 -0.2625,-0.115 -0.55351,-0.1664 -0.86914,-0.1582 z m -15.75,1.3691 c -0.83,0.02 -2.12063,0.4206 -2.89063,0.8906 -0.75999,0.48 -1.6089,2.8303 -1.8789,5.2403 -0.27,2.4 0.0187,5.3791 0.63867,6.6191 0.62,1.24 2.03086,2.25 3.13086,2.25 1.1,0 2.67023,-1.01 3.49023,-2.25 0.82,-1.24 1.77891,-4.05 2.12891,-6.25 0.52,-3.25 0.29172,-4.2395 -1.23828,-5.2695 -1.03,-0.69 -2.55086,-1.2505 -3.38086,-1.2305 z m 36.99805,5.3613 c -0.57891,-0.015 -1.34727,0.099 -1.94727,0.3086 -0.8,0.27 -1.36,1.1302 -1.25,1.9102 0.12,0.84 1.12922,1.3199 2.44922,1.1699 1.24,-0.14 2.25,-0.8899 2.25,-1.6699 0,-0.78 -0.45,-1.5302 -1,-1.6602 -0.1375,-0.035 -0.30898,-0.054 -0.50195,-0.059 z m -59.91797,2.6387 c -0.5,0 -1.17,0.68 -1.5,1.5 -0.32,0.82 -0.58008,1.95 -0.58008,2.5 0,0.55 0.34,0.9905 0.75,0.9805 0.41,0 1.3193,-0.34 2.0293,-0.75 0.7,-0.4 1.04,-1.5205 0.75,-2.4805 -0.29,-0.96 -0.93922,-1.75 -1.44922,-1.75 z m 53.06445,3.1641 c -1.76764,-0.023 -3.35305,0.3789 -3.9043,1.0351 -0.6,0.71 -1.53984,2.4308 -2.08984,3.8008 -0.55,1.38 -0.81008,3.51 -0.58008,4.75 0.31,1.6 1.12961,2.25 2.84961,2.25 1.42,0 3.73985,-1.35 5.58985,-3.25 2.21,-2.27 3.06007,-4 2.83007,-5.75 -0.28,-2.07 -0.95968,-2.5508 -3.92968,-2.8008 -0.2575,-0.021 -0.51311,-0.032 -0.76563,-0.035 z m -52.19531,3.8066 c -0.85,0.02 -2.17922,0.5685 -2.94922,1.2285 -0.77,0.66 -1.3207,1.9 -1.2207,2.75 0.1,0.85 0.64117,3.0108 1.20117,4.8008 0.85,2.72 1.50953,3.25 4.01953,3.25 2.27,0 3.24,-0.61 4,-2.5 0.55,-1.37 0.70961,-3.29 0.34961,-4.25 -0.36,-0.96 -1.37,-2.5493 -2.25,-3.5293 -0.88,-0.98 -2.30039,-1.77 -3.15039,-1.75 z m 18.61133,6.2559 c -1.5361,0.067 -2.50641,1.1682 -5.19141,4.7832 -2.45,3.3 -4.82828,5.4004 -6.48828,5.7304 -1.44,0.29 -3.59125,1.7007 -4.78125,3.1407 -1.19,1.44 -2.15867,3.7491 -2.13867,5.1191 0.01,1.38 1.03929,4.4995 2.27929,6.9395 1.24,2.44 2.99063,4.91 3.89063,5.5 1.28,0.83 2.7,0.341 6.5,-2.209 2.68,-1.8 5.42914,-3.26 6.11914,-3.25 0.69,0.01 2.71,1.6293 4.5,3.6093 2.95,3.25 3.57,3.5201 6.75,2.8301 2.16,-0.46 5.12,-2.3998 7.75,-5.0898 2.34,-2.38 4.92,-5.9101 5.75,-7.8301 1.1,-2.57 1.24,-4.16 0.5,-6 -0.55,-1.37 -1.45,-2.5 -2,-2.5 -0.55,0 -3.14,-1.9691 -5.75,-4.3691 -3.39,-3.12 -5.89,-4.5314 -8.75,-4.9414 -2.2,-0.32 -5.41086,-0.8703 -7.13086,-1.2403 -0.7225,-0.1525 -1.29656,-0.245 -1.80859,-0.2226 z m 56.51953,7.7734 c -0.5,0 -1.17,0.67 -1.5,1.5 -0.32,0.83 -0.58008,1.95 -0.58008,2.5 0,0.55 0.67,1 1.5,1 0.93,0 1.5,-0.94 1.5,-2.5 0,-1.37 -0.40992,-2.5 -0.91992,-2.5 z m 16.05859,0.209 c -0.53006,0.01 -0.96703,0.7047 -1.01953,1.7109 -0.07,1.23 0.49086,2.0801 1.38086,2.0801 0.83,0 1.39,-0.7399 1.25,-1.6699 -0.14,-0.91 -0.76086,-1.8501 -1.38086,-2.0801 -0.0787,-0.029 -0.15475,-0.042 -0.23047,-0.041 z m -1.23828,5.7519 c -0.88,0.02 -2.29109,0.8291 -3.12109,1.7891 -0.84,0.96 -2.02844,2.76 -2.64844,4 -0.62,1.24 -1.13063,3.49 -1.14063,5 0,1.51 0.67,3.76 1.5,5 0.83,1.24 2.29977,2.2593 3.25977,2.2793 0.96,0.02 2.65,-0.9291 3.75,-2.1191 1.27,-1.36 2.18,-4.0704 2.5,-7.4004 0.36,-3.82 0.09,-5.7097 -1,-6.9297 -0.83,-0.92 -2.21961,-1.6492 -3.09961,-1.6192 z m -15.62109,2.0098 c -1.22,0.02 -2.72985,0.899 -3.33985,1.959 -0.62,1.07 -1.08882,4.11 -1.04883,6.75 0.04,2.65 0.64985,5.3898 1.33985,6.0898 0.7,0.69 2.16953,1.281 3.26953,1.291 1.1,0.02 2.67,-0.7511 3.5,-1.7011 0.83,-0.95 1.72,-3.6388 2,-5.9688 0.39,-3.33 0.07,-4.7015 -1.5,-6.3515 -1.1,-1.16 -3.0007,-2.0884 -4.2207,-2.0684 z m 36.91992,1.0293 c -0.44,0 -1.42922,0.5392 -2.19922,1.1992 -0.77,0.66 -1.30922,1.78 -1.19922,2.5 0.16,1.05 0.58922,1.0608 2.19922,0.051 1.11,-0.69 2.01,-1.81 2,-2.5 0,-0.69 -0.36078,-1.25 -0.80078,-1.25 z m -6.67969,7 c -2.5,0 -3.90047,0.63 -4.98047,2.25 -0.82,1.24 -1.91945,3.6 -2.43945,5.25 -0.7,2.21 -0.5793,3.59 0.4707,5.25 0.79,1.24 1.98969,2.2708 2.67969,2.3008 0.69,0.02 2.94,-1.78 5,-4 2.06,-2.23 3.75,-4.9508 3.75,-6.0508 0,-1.1 -0.22,-2.67 -0.5,-3.5 -0.32,-0.95 -1.78047,-1.5 -3.98047,-1.5 z m -50.23242,6.2773 c -0.20571,0 -0.24922,0.6927 -0.27734,2.2227 -0.03,2.14 0.28031,2.71 1.07031,2 0.79,-0.72 0.81078,-1.57 0.0508,-3 -0.42438,-0.7919 -0.68376,-1.2193 -0.84375,-1.2227 z m 66.76367,3.7227 c -0.52,0 -1.2,0.45 -1.5,1 -0.3,0.55 -0.33078,1.22 -0.0508,1.5 0.28,0.28 0.95,0.28 1.5,0 0.55,-0.28 1,-0.95 1,-1.5 0,-0.55 -0.42922,-1 -0.94922,-1 z m -62.94141,1 c -0.49,0 -1.31984,0.56 -1.83984,1.25 -0.53,0.69 -1.24937,2.04 -1.60937,3 -0.37,0.96 -0.32016,3.1606 0.0898,4.8906 0.46,1.91 1.63,3.48 3,4 1.34,0.51 3.06,0.4594 4.25,-0.1406 1.43,-0.71 2,-2 2,-4.5 0,-2.4 -0.79,-4.29 -2.5,-6 -1.37,-1.37 -2.90062,-2.5 -3.39063,-2.5 z m 57.08008,3 c -1.87,0 -3.82914,1.08 -5.86914,3.25 -1.69,1.79 -3.29054,3.92 -3.56054,4.75 -0.27,0.83 -0.0992,2.29 0.38085,3.25 0.47,0.96 1.64938,1.7693 2.60938,1.7793 0.96,0.02 2.99,-0.88 4.5,-2 1.51,-1.11 3.43,-3.3793 4.25,-5.0293 0.82,-1.65 1.28,-3.67 1,-4.5 -0.29,-0.86 -1.70055,-1.5 -3.31055,-1.5 z m -35.18945,4.0293 c -0.28,-0.01 -1.67914,0.7705 -3.11914,1.7305 -1.44,0.96 -4.50102,3.3202 -6.79102,5.2402 -2.3,1.92 -5.59054,4.85 -7.31054,6.5 -2.81,2.68 -3.08899,3.4801 -2.70899,7.5801 0.24,2.51 1.09969,5.349 1.92969,6.289 0.83,0.95 2.63,1.6807 4,1.6407 1.38,-0.04 3.63,-0.7198 5,-1.5098 1.38,-0.79 3.51,-1.4509 4.75,-1.4609 1.28,-0.02 2.68,0.8309 3.25,1.9609 0.55,1.1 1.00977,3.69 1.00977,5.75 0.01,2.06 0.35,4.7695 0.75,6.0195 0.41,1.25 1.87023,2.7496 3.24023,3.3496 1.38,0.59 3.74,0.8105 5.25,0.4805 1.99,-0.44 2.88953,-1.3596 3.26953,-3.3496 0.29,-1.51 2.54,-4.89 5,-7.5 2.47,-2.61 4.93047,-5.65 5.48047,-6.75 0.55,-1.1 1,-3.12 1,-4.5 0,-1.37 -1.33094,-3.96 -2.96094,-5.75 -1.63,-1.79 -3.43,-4.94 -4,-7 -0.92,-3.31 -1.47906,-3.8205 -4.78906,-4.3105 -2.06,-0.31 -5.55,-1.4286 -7.75,-2.4786 -2.2,-1.05 -4.22,-1.9216 -4.5,-1.9316 z"
       style="fill:#333333;fill-opacity:1" />
    <path
       style="color:#000000;font-style:normal;font-variant:normal;font-weight:normal;font-stretch:normal;font-size:medium;line-height:normal;font-family:sans-serif;font-variant-ligatures:normal;font-variant-position:normal;font-variant-caps:normal;font-variant-numeric:normal;font-variant-alternates:normal;font-variant-east-asian:normal;font-feature-settings:normal;font-variation-settings:normal;text-indent:0;text-align:start;text-decoration:none;text-decoration-line:none;text-decoration-style:solid;text-decoration-color:#000000;letter-spacing:normal;word-spacing:normal;text-transform:none;writing-mode:lr-tb;direction:ltr;text-orientation:mixed;dominant-baseline:auto;baseline-shift:baseline;text-anchor:start;white-space:normal;shape-padding:0;shape-margin:0;inline-size:0;clip-rule:nonzero;display:inline;overflow:visible;visibility:visible;opacity:1;isolation:auto;mix-blend-mode:normal;color-interpolation:sRGB;color-interpolation-filters:linearRGB;solid-color:#000000;solid-opacity:1;vector-effect:none;fill:#333333;fill-opacity:1;fill-rule:nonzero;stroke:none;stroke-linecap:butt;stroke-linejoin:miter;stroke-miterlimit:4;stroke-dasharray:none;stroke-dashoffset:0;stroke-opacity:1;color-rendering:auto;image-rendering:auto;shape-rendering:auto;text-rendering:auto;enable-background:accumulate;stop-color:#000000;stop-opacity:1"
       d="m 540.50586,5177.0156 v 1 h 50.48828 v 21.5508 h 1 v -22.5508 z"
       id="path14799" />
    <path
       style="color:#000000;font-style:normal;font-variant:normal;font-weight:normal;font-stretch:normal;font-size:medium;line-height:normal;font-family:sans-serif;font-variant-ligatures:normal;font-variant-position:normal;font-variant-caps:normal;font-variant-numeric:normal;font-variant-alternates:normal;font-variant-east-asian:normal;font-feature-settings:normal;font-variation-settings:normal;text-indent:0;text-align:start;text-decoration:none;text-decoration-line:none;text-decoration-style:solid;text-decoration-color:#000000;letter-spacing:normal;word-spacing:normal;text-transform:none;writing-mode:lr-tb;direction:ltr;text-orientation:mixed;dominant-baseline:auto;baseline-shift:baseline;text-anchor:start;white-space:normal;shape-padding:0;shape-margin:0;inline-size:0;clip-rule:nonzero;display:inline;overflow:visible;visibility:visible;opacity:1;isolation:auto;mix-blend-mode:normal;color-interpolation:sRGB;color-interpolation-filters:linearRGB;solid-color:#000000;solid-opacity:1;vector-effect:none;fill:#333333;fill-opacity:1;fill-rule:nonzero;stroke:none;stroke-linecap:butt;stroke-linejoin:miter;stroke-miterlimit:4;stroke-dasharray:none;stroke-dashoffset:0;stroke-opacity:1;color-rendering:auto;image-rendering:auto;shape-rendering:auto;text-rendering:auto;enable-background:accumulate;stop-color:#000000;stop-opacity:1"
       d="m 591,5232.5078 v 24.5078 h -52.47266 v 1 H 592 v -25.5078 z"
       id="path14805" />
  </g>
</svg>
