<?xml version="1.0" encoding="UTF-8" standalone="no"?>
<svg
   xmlns:dc="http://purl.org/dc/elements/1.1/"
   xmlns:cc="http://creativecommons.org/ns#"
   xmlns:rdf="http://www.w3.org/1999/02/22-rdf-syntax-ns#"
   xmlns:svg="http://www.w3.org/2000/svg"
   xmlns="http://www.w3.org/2000/svg"
   xmlns:sodipodi="http://sodipodi.sourceforge.net/DTD/sodipodi-0.dtd"
   xmlns:inkscape="http://www.inkscape.org/namespaces/inkscape"
   version="1.1"
   id="Layer_1"
   x="0px"
   y="0px"
   width="512"
   height="512"
   viewBox="0 0 512 512"
   enable-background="new 0 0 1400 980"
   xml:space="preserve"
   sodipodi:docname="Armadillo.svg"
   inkscape:version="1.0.2 (e86c870879, 2021-01-15, custom)"><metadata
   id="metadata49315"><rdf:RDF><cc:Work
       rdf:about=""><dc:format>image/svg+xml</dc:format><dc:type
         rdf:resource="http://purl.org/dc/dcmitype/StillImage" /><dc:title></dc:title></cc:Work></rdf:RDF></metadata><defs
   id="defs49313" /><sodipodi:namedview
   pagecolor="#ffffff"
   bordercolor="#666666"
   borderopacity="1"
   objecttolerance="10"
   gridtolerance="10"
   guidetolerance="10"
   inkscape:pageopacity="0"
   inkscape:pageshadow="2"
   inkscape:window-width="1366"
   inkscape:window-height="715"
   id="namedview49311"
   showgrid="false"
   inkscape:zoom="0.27959184"
   inkscape:cx="1081.5374"
   inkscape:cy="710.77341"
   inkscape:window-x="-8"
   inkscape:window-y="-8"
   inkscape:window-maximized="1"
   inkscape:current-layer="Layer_1" />

<g
   id="g32306"
   transform="matrix(0.5424028,0,0,0.5424028,-140.96851,1.3246238)">
	<ellipse
   opacity="0.14"
   fill="#7c7c7c"
   cx="737.59998"
   cy="752.79999"
   rx="363"
   ry="65.699997"
   id="ellipse31809" />
	<g
   id="g32304">
		<linearGradient
   id="SVGID_1_"
   gradientUnits="userSpaceOnUse"
   x1="839.54742"
   y1="180.40311"
   x2="1102.764"
   y2="480.03979">
			<stop
   offset="0"
   style="stop-color:#FFB17F"
   id="stop31811" />
			<stop
   offset="3.792793e-02"
   style="stop-color:#EFA87B"
   id="stop31813" />
			<stop
   offset="0.1936"
   style="stop-color:#B0856B"
   id="stop31815" />
			<stop
   offset="0.3477"
   style="stop-color:#7B675E"
   id="stop31817" />
			<stop
   offset="0.4966"
   style="stop-color:#4F4E53"
   id="stop31819" />
			<stop
   offset="0.6393"
   style="stop-color:#2C3B4A"
   id="stop31821" />
			<stop
   offset="0.774"
   style="stop-color:#142D44"
   id="stop31823" />
			<stop
   offset="0.8977"
   style="stop-color:#052540"
   id="stop31825" />
			<stop
   offset="1"
   style="stop-color:#00223F"
   id="stop31827" />
		</linearGradient>
		<path
   fill="url(#SVGID_1_)"
   d="m 1052.5,380.7 c -32.6,-12.6 -76.9,-5.7 -91,-11.3 -0.2,-0.1 -0.4,-0.2 -0.6,-0.3 -0.2,-0.1 -0.3,-0.1 -0.5,-0.2 -29.7,-13.1 -58.2,-29 -66.4,-44.9 0,0 0,0 0,0 -0.3,0.5 -4.2,6.1 -25.7,-26.5 -22.3,-33.9 -36,-68.4 -3.7,-85.3 3.3,0 6,-0.1 8.3,-0.4 39.3,1.4 60,8.7 60,8.7 0,0 39.7,12 57.5,48.8 17.8,36.8 74.1,96.8 81.5,101.8 1.2,0.8 2.6,1.8 4.1,3 0.1,0 9.6,19.4 -23.5,6.6 z"
   id="path31830"
   style="fill:url(#SVGID_1_)" />
		<path
   fill="#7f6d5f"
   d="m 475.2,711.4 c 0,0 -7.1,-3.7 -15.7,-8.1 -9.4,-4.9 -20.5,-10.6 -25.7,-13.5 -9.9,-5.4 -46.8,-30.2 -48,-65.4 -1.2,-35.2 -16.1,-61.7 -21.1,-66.2 -1.5,-1.4 -1.8,-3.4 -1.1,-5.1 1.6,-3.9 8.5,-6.1 18.5,4.2 14.5,14.9 22.8,44.7 41.4,54.6 12.7,6.8 20.2,10.1 24.6,12.1 2.1,1 3.4,1.7 4.4,2.3 0,0 0,0 0,0 0,0 1.7,17 5.4,31.5 1,4 2,8.7 3,13.6 2.7,13 6.2,28 14.3,40 z"
   id="path31832" />
		<path
   fill="#848484"
   d="m 444.9,622.7 c -0.4,6.4 -0.6,12.8 -0.6,19.1 -0.1,6.3 0.1,12.6 0.5,18.8 0.1,1.6 0.2,3.1 0.3,4.7 l 0.4,4.7 c 0.4,3.1 0.6,6.3 1.1,9.4 0.7,6.3 2.1,12.4 3.1,18.8 -3,-5.7 -5.4,-11.8 -6.9,-18.1 -0.9,-3.1 -1.4,-6.3 -2,-9.5 -0.4,-3.2 -0.9,-6.4 -1,-9.7 -0.4,-6.5 -0.2,-13 0.6,-19.4 0.8,-6.4 2.1,-12.8 4.5,-18.8 z"
   id="path31834" />
		<path
   fill="#848484"
   d="m 436.8,618.9 c -0.9,1.2 -1.4,2.5 -2,3.8 l -0.6,2 c -0.2,0.7 -0.3,1.4 -0.5,2.1 -0.4,1.4 -0.6,2.8 -0.8,4.2 -0.2,1.4 -0.4,2.8 -0.6,4.2 -0.7,5.6 -1,11.4 -1.3,17.1 l -0.6,17.3 c 0,1.4 -0.1,2.9 -0.2,4.4 -0.1,1.5 -0.2,2.9 -0.2,4.4 -0.2,2.9 -0.3,5.8 -0.7,8.8 -0.7,-2.9 -1.2,-5.8 -1.8,-8.7 -0.5,-2.9 -0.8,-5.8 -1.1,-8.7 -0.5,-5.8 -0.7,-11.7 -0.4,-17.6 0.3,-5.9 0.9,-11.8 2.4,-17.6 0.4,-1.4 0.8,-2.9 1.3,-4.3 0.6,-1.4 1,-2.8 1.7,-4.2 0.7,-1.4 1.4,-2.7 2.2,-3.9 0.9,-1.4 1.9,-2.6 3.2,-3.3 z"
   id="path31836" />
		<path
   fill="#848484"
   d="m 428.2,614.5 c -0.9,-0.3 -1.8,-0.1 -2.5,0.2 -0.3,0.2 -0.7,0.4 -1,0.7 l -0.4,0.4 c -0.1,0.2 -0.2,0.3 -0.4,0.5 -0.5,0.6 -0.9,1.4 -1.3,2.2 -0.4,0.8 -0.7,1.6 -1,2.4 -0.6,1.7 -1.2,3.4 -1.7,5.1 -0.6,1.7 -1,3.5 -1.5,5.3 -0.9,3.6 -1.9,7.1 -2.9,10.8 -1.1,3.6 -2.1,7.2 -3.7,10.8 -0.3,-1.9 -0.3,-3.9 -0.4,-5.8 -0.1,-1.9 0,-3.8 0.2,-5.7 0.3,-3.8 1,-7.6 1.9,-11.4 0.5,-1.9 1.1,-3.7 1.8,-5.5 0.7,-1.8 1.6,-3.6 2.6,-5.3 0.6,-0.8 1.1,-1.7 1.8,-2.5 0.7,-0.8 1.4,-1.5 2.4,-2.1 0.2,-0.1 0.4,-0.3 0.7,-0.4 l 0.8,-0.3 c 0.5,-0.3 1.1,-0.3 1.6,-0.4 1.3,-0.1 2.4,0.3 3,1 z"
   id="path31838" />
		<path
   fill="#848484"
   d="m 418,608.3 c -3.4,2 -5.4,5 -7.2,8 -1.8,3.1 -3.2,6.3 -4.5,9.7 -0.4,0.8 -0.6,1.7 -0.9,2.6 -0.3,0.9 -0.6,1.7 -0.9,2.6 -0.5,1.8 -1.2,3.5 -1.7,5.3 -0.5,1.8 -1.2,3.6 -1.7,5.4 -0.6,1.8 -1.2,3.6 -2,5.4 -0.3,-1.9 -0.4,-3.9 -0.4,-5.8 0,-1.9 0.2,-3.9 0.3,-5.8 0.1,-1 0.2,-1.9 0.4,-2.9 0.2,-1 0.4,-1.9 0.6,-2.9 0.5,-1.9 1,-3.8 1.7,-5.6 1.4,-3.7 3.3,-7.2 6,-10.3 l 1,-1.1 c 0.4,-0.3 0.8,-0.7 1.1,-1 0.7,-0.7 1.6,-1.2 2.5,-1.8 1.7,-1.1 3.6,-1.9 5.7,-1.8 z"
   id="path31840" />
		<path
   fill="#848484"
   d="m 411.9,602.2 c -2.3,0.9 -4.3,1.8 -6.2,2.8 -1.8,1 -3.5,2.1 -4.8,3.3 -1.3,1.3 -2.6,2.7 -3.6,4.5 -0.1,0.2 -0.3,0.4 -0.4,0.7 l -0.3,0.7 c -0.2,0.5 -0.5,1 -0.8,1.5 -0.5,1 -0.9,2.1 -1.6,3.2 -0.2,-0.6 -0.4,-1.2 -0.5,-1.8 -0.1,-0.6 -0.3,-1.2 -0.3,-1.8 0,-0.6 0,-1.2 0,-1.9 0,-0.3 0,-0.6 0.1,-1 0.1,-0.3 0.1,-0.6 0.2,-0.9 0.5,-2.5 2,-5 3.9,-6.8 2,-1.8 4.5,-3 7,-3.4 2.4,-0.4 5,-0.2 7.3,0.9 z"
   id="path31842" />
		<path
   fill="#848484"
   d="m 404,591.1 c -1.6,1 -3,1.9 -4.2,2.7 -1.3,0.8 -2.4,1.6 -3.5,2.4 -1.1,0.9 -2.2,1.7 -3.3,2.7 -0.6,0.5 -1.1,1 -1.8,1.6 -0.6,0.5 -1.2,1.1 -2.1,1.7 -0.2,-0.9 -0.2,-1.9 -0.1,-2.8 0.2,-0.9 0.3,-1.8 0.8,-2.7 0.7,-1.7 2,-3.3 3.5,-4.4 1.5,-1.2 3.4,-1.9 5.2,-2.2 1.8,-0.2 3.8,0 5.5,1 z"
   id="path31844" />
		<path
   fill="#111010"
   d="m 917.8,390.2 c -2.9,-18.2 1.4,-31.6 5.8,-39.9 -14,-8.4 -25,-17.4 -29.6,-26.3 0,0 -3.3,8.3 -11.2,6.2 0,0 -1.6,49 -36.4,76.4 -0.9,0.8 -1.9,1.5 -2.9,2.2 0,0 86.5,58.8 81.9,98.1 0,0 3.9,5.1 -1.8,13.5 9.3,-0.8 10.5,-16.4 11.2,-10 0.7,6.4 -2.7,14.3 -2.7,14.3 0,0 7,0.4 18.6,-31.3 11.6,-31.7 -27.7,-70.9 -32.9,-103.2 z"
   id="path31846" />
		<linearGradient
   id="SVGID_2_"
   gradientUnits="userSpaceOnUse"
   x1="754.68951"
   y1="378.04431"
   x2="960.79309"
   y2="539.45081">
			<stop
   offset="0"
   style="stop-color:#FFB17F"
   id="stop31848" />
			<stop
   offset="8.773810e-02"
   style="stop-color:#DE9F77"
   id="stop31850" />
			<stop
   offset="0.2807"
   style="stop-color:#9C7966"
   id="stop31852" />
			<stop
   offset="0.4641"
   style="stop-color:#645A58"
   id="stop31854" />
			<stop
   offset="0.6327"
   style="stop-color:#39424D"
   id="stop31856" />
			<stop
   offset="0.7835"
   style="stop-color:#1A3045"
   id="stop31858" />
			<stop
   offset="0.9111"
   style="stop-color:#072641"
   id="stop31860" />
			<stop
   offset="1"
   style="stop-color:#00223F"
   id="stop31862" />
		</linearGradient>
		<path
   fill="url(#SVGID_2_)"
   d="m 915.6,528.8 c 0.2,-0.4 4.9,-9.6 0.8,-13.6 0,0 -2.5,14.1 -12,13.7 0,0 4.6,-3.7 2.1,-9.1 0,0 -5.4,9.9 -14.5,5.4 0,0 6.6,-2 7.5,-7.3 0.2,-1.5 0,-3.1 -0.9,-5.1 -4.1,-9.1 -6.6,-4.6 -8.7,-16.1 -2.1,-11.6 -26.1,-26.1 -41,-27.3 -14.9,-1.2 -39.3,-7.9 -54.2,-29 0,0 34.3,-18.1 48.8,-31.4 0,0 86.5,58.8 81.9,98.1 0,0 0,0 0,0 0,0.1 0.2,0.3 0.3,0.6 0.1,0.2 0.2,0.4 0.3,0.7 0.1,0.2 0.1,0.4 0.2,0.6 1.2,3.1 1.3,10.3 -10.6,19.8 z"
   id="path31865"
   style="fill:url(#SVGID_2_)" />
		<path
   fill="#848484"
   d="m 853.1,415.7 c -1.9,5 -4.7,9.6 -7.9,13.9 -3.2,4.2 -6.9,8.2 -11.1,11.6 -1,0.9 -2.1,1.7 -3.2,2.5 -1.1,0.8 -2.2,1.5 -3.4,2.2 -2.3,1.4 -4.8,2.6 -7.4,3.5 -5.1,1.9 -10.8,2.7 -16.1,1.4 5.2,-1.3 9.7,-3.3 14,-5.8 2.1,-1.2 4.2,-2.6 6.2,-4.1 2,-1.4 4,-2.9 5.9,-4.5 3.9,-3.2 7.6,-6.5 11.4,-10 3.9,-3.6 7.6,-7.1 11.6,-10.7 z"
   id="path31867" />
		<path
   fill="#848484"
   d="m 862.8,423.1 c -0.4,4.9 -1.9,9.6 -3.7,14.1 -1.9,4.5 -4.4,8.7 -7.5,12.6 -3.1,3.9 -6.7,7.4 -11,10 -2.1,1.3 -4.4,2.4 -6.8,3.2 -2.4,0.7 -4.8,1.2 -7.3,1.2 2.1,-1.3 4.1,-2.5 5.9,-3.9 1.8,-1.4 3.6,-2.8 5.2,-4.4 3.3,-3.1 6.2,-6.4 9.1,-10 2.8,-3.5 5.5,-7.3 8.1,-11.1 2.6,-3.8 5.1,-7.7 8,-11.7 z"
   id="path31869" />
		<path
   fill="#848484"
   d="m 876.3,434.3 c 0.4,3.8 -0.1,7.6 -1.1,11.3 -1,3.6 -2.6,7.2 -4.6,10.4 -2,3.3 -4.6,6.2 -7.5,8.7 -2.9,2.5 -6.5,4.3 -10.2,5.2 2.3,-3.1 4.6,-5.7 6.7,-8.6 2,-2.8 4,-5.6 5.8,-8.6 1.8,-2.9 3.6,-5.9 5.3,-9 1.8,-3.1 3.6,-6.2 5.6,-9.4 z"
   id="path31871" />
		<path
   fill="#848484"
   d="m 892.7,449.4 c 0.4,0.7 0.6,1.5 0.8,2.4 0.1,0.8 0.2,1.7 0.2,2.5 -0.1,1.7 -0.4,3.3 -0.9,4.9 -1,3.1 -2.6,6 -4.6,8.5 -1,1.3 -2.1,2.4 -3.2,3.5 -1.2,1 -2.4,2.1 -3.7,3 -1.3,0.9 -2.6,1.7 -4,2.4 -1.4,0.7 -2.9,1.3 -4.5,1.7 0.7,-1.5 1.6,-2.8 2.5,-4 0.9,-1.3 1.7,-2.5 2.7,-3.6 0.9,-1.2 1.8,-2.3 2.7,-3.4 0.4,-0.6 0.9,-1.1 1.3,-1.7 0.5,-0.5 0.9,-1.1 1.3,-1.7 1.8,-2.2 3.5,-4.4 5.1,-6.7 0.8,-1.1 1.6,-2.3 2.3,-3.6 0.8,-1.4 1.5,-2.7 2,-4.2 z"
   id="path31873" />
		<path
   fill="#848484"
   d="m 908.5,466.8 c 0.3,3.1 -0.3,6 -1.1,8.8 -0.9,2.8 -2.3,5.4 -4,7.9 -1.8,2.4 -3.9,4.5 -6.5,6.2 -2.6,1.6 -5.6,2.7 -8.6,2.7 2,-2.3 3.8,-4.3 5.4,-6.3 1.6,-2.1 3.1,-4.1 4.7,-6.2 1.5,-2.1 3.1,-4.3 4.7,-6.4 1.6,-2.3 3.3,-4.5 5.4,-6.7 z"
   id="path31875" />
		<path
   fill="#848484"
   d="m 922.2,488.8 c -0.6,3.1 -2.6,5.8 -4.7,8 -2.2,2.2 -4.8,3.9 -7.6,5.2 -2.8,1.3 -5.8,2.1 -8.8,2.4 -1.5,0.2 -3,0.1 -4.6,0.1 -1.5,-0.1 -3,-0.4 -4.6,-0.8 1.3,-0.9 2.7,-1.5 4,-2.2 1.3,-0.7 2.6,-1.2 3.9,-1.8 l 7.5,-3.3 c 2.4,-1.1 4.9,-2.2 7.3,-3.4 2.5,-1.4 4.9,-2.7 7.6,-4.2 z"
   id="path31877" />
		
			<ellipse
   transform="matrix(0.8909,-0.4541,0.4541,0.8909,-99.5048,470.386)"
   opacity="0.66"
   fill="#997247"
   cx="929.5"
   cy="442.29999"
   rx="4.3000002"
   ry="5.5999999"
   id="ellipse31879" />
		
			<ellipse
   transform="matrix(0.8909,-0.4541,0.4541,0.8909,-93.7892,466.7952)"
   opacity="0.66"
   fill="#997247"
   cx="924.90002"
   cy="428.70001"
   rx="3.5"
   ry="4.5"
   id="ellipse31881" />
		
			<ellipse
   transform="matrix(0.8909,-0.4541,0.4541,0.8909,-109.2382,478.7036)"
   opacity="0.66"
   fill="#997247"
   cx="942"
   cy="466.79999"
   rx="3.5"
   ry="4.5"
   id="ellipse31883" />
		
			<ellipse
   transform="matrix(0.8909,-0.4541,0.4541,0.8909,-103.7835,475.3357)"
   opacity="0.66"
   fill="#997247"
   cx="937.70001"
   cy="453.70001"
   rx="3.5"
   ry="4.5"
   id="ellipse31885" />
		
			<ellipse
   transform="matrix(0.8909,-0.4541,0.4541,0.8909,-98.488,462.8702)"
   opacity="0.66"
   fill="#997247"
   cx="914.40002"
   cy="436.5"
   rx="5.8000002"
   ry="7.5"
   id="ellipse31887" />
		
			<ellipse
   transform="matrix(0.8909,-0.4541,0.4541,0.8909,-105.8371,470.4656)"
   opacity="0.66"
   fill="#997247"
   cx="926.5"
   cy="455.60001"
   rx="3.5999999"
   ry="4.5999999"
   id="ellipse31889" />
		<g
   id="g31901">
			<path
   fill="#111010"
   d="m 574.6,588.7 c 0,0 -0.1,0.1 -0.1,0.1 0.1,0 0.1,0 0.1,-0.1 z"
   id="path31891" />
			<path
   fill="#111010"
   d="m 574,589.6 c -0.1,0.1 -0.1,0.1 -0.2,0.2 0,0 0.1,-0.1 0.2,-0.2 z"
   id="path31893" />
			<path
   fill="#111010"
   d="m 575.3,587.8 c 0,0.1 -0.1,0.1 -0.1,0.2 0,0 0,-0.1 0.1,-0.2 z"
   id="path31895" />
			<path
   fill="#111010"
   d="m 794.7,440.3 c 0,0 -48.8,11.2 -60.8,18.6 -12,7.4 -36.4,16.6 -43,7.9 0,0 1.2,20.3 -19,14.1 0,0 -2.1,22.8 -19.5,15.3 0,0 -2.5,16.1 -15.3,10.8 0,0 -0.8,21.5 -12.4,17.8 0,0 1.2,17 -12.8,15.3 0,0 3.3,15.3 -14.5,18.2 0,0 4.1,13.7 -11.2,14.1 0,0 3.3,4.5 0,7.9 0,0 27.7,15.7 30.2,51.7 1.4,20.4 7.5,53.1 13.9,79.2 l 6.8,-16.7 c 1.7,4.6 37.2,14.9 48.6,21.5 11.4,6.6 25,27.3 25,27.3 3.7,-7.4 0,-31.9 0,-31.9 5.8,9.1 36.4,21.1 36.4,21.1 l -12,-26.9 c 11.6,1.2 18.6,20.7 18.6,20.7 7.9,-36.8 -32.7,-62.1 -36.4,-65.8 -3.7,-3.7 0,-49.9 0,-49.9 0,0 41,-75.1 69.9,-98.9 19.9,-16.3 32.9,-36.5 39.2,-47.5 -11.3,-4.3 -23.1,-11.7 -31.7,-23.9 z"
   id="path31897" />
			<path
   fill="#111010"
   d="m 575.6,587.2 c 0,0 -0.1,0.1 -0.1,0.2 0,-0.1 0.1,-0.1 0.1,-0.2 z"
   id="path31899" />
		</g>
		<linearGradient
   id="SVGID_3_"
   gradientUnits="userSpaceOnUse"
   x1="527.48132"
   y1="528.69061"
   x2="640.46582"
   y2="857.71143">
			<stop
   offset="0"
   style="stop-color:#FFB17F"
   id="stop31903" />
			<stop
   offset="8.773810e-02"
   style="stop-color:#DE9F77"
   id="stop31905" />
			<stop
   offset="0.2807"
   style="stop-color:#9C7966"
   id="stop31907" />
			<stop
   offset="0.4641"
   style="stop-color:#645A58"
   id="stop31909" />
			<stop
   offset="0.6327"
   style="stop-color:#39424D"
   id="stop31911" />
			<stop
   offset="0.7835"
   style="stop-color:#1A3045"
   id="stop31913" />
			<stop
   offset="0.9111"
   style="stop-color:#072641"
   id="stop31915" />
			<stop
   offset="1"
   style="stop-color:#00223F"
   id="stop31917" />
		</linearGradient>
		<path
   fill="url(#SVGID_3_)"
   d="m 666,793.3 c 0,0 -15.3,-15.3 -25.7,-18.2 0,0 7.4,18.6 6.2,29.4 0,0 -18.2,-26.9 -26.5,-26.9 0,0 3.3,25.7 -4.6,31 0,0 -6.6,-21.1 -14.9,-26.5 -0.6,-0.4 -1.2,-0.8 -1.8,-1.3 -6.9,-5.6 -10,-14.6 -21.8,-21.5 -12.8,-7.4 -29,-10.3 -31.4,-20.3 -0.4,-0.5 -0.8,-1 -1.2,-1.7 -0.1,-0.2 -0.3,-0.4 -0.4,-0.7 -0.2,-0.3 -0.4,-0.6 -0.5,-0.9 -0.5,-0.9 -1,-1.9 -1.5,-3 -0.1,-0.2 -0.1,-0.3 -0.2,-0.5 -0.2,-0.4 -0.4,-0.9 -0.6,-1.3 -0.4,-1 -0.8,-2.1 -1.2,-3.3 -0.1,-0.4 -0.3,-0.8 -0.4,-1.2 -0.2,-0.5 -0.4,-1.1 -0.5,-1.7 -0.2,-0.5 -0.3,-1 -0.5,-1.6 -0.4,-1.2 -0.7,-2.5 -1.1,-3.8 -0.1,-0.3 -0.2,-0.7 -0.3,-1 -0.2,-0.7 -0.4,-1.5 -0.5,-2.2 -0.1,-0.5 -0.2,-1 -0.3,-1.6 -0.2,-1 -0.4,-2 -0.6,-3 -0.1,-0.5 -0.2,-1 -0.3,-1.6 -0.1,-0.5 -0.2,-1.1 -0.3,-1.6 -0.2,-1.1 -0.4,-2.1 -0.5,-3.3 -0.1,-0.6 -0.2,-1.1 -0.2,-1.7 -0.1,-0.6 -0.2,-1.1 -0.2,-1.7 -0.5,-4 -0.9,-8.2 -1.2,-12.6 -0.1,-1.3 -0.1,-2.5 -0.2,-3.8 0,-1 -0.1,-2.1 -0.1,-3.2 0,-1 0,-2.1 0,-3.2 0,-1.2 0,-2.4 0,-3.7 0.1,-4.9 0.4,-9.9 1,-15 4.1,-37.2 41.4,-69.1 42.2,-73.7 0.8,-4.5 10.4,-6.6 10.4,-6.6 0,0 27.7,15.7 30.2,51.7 1.6,22.9 9,61.1 16.2,88.3 4.1,15.6 8.2,27.6 11.1,30.9 7.9,9.1 5.8,13.7 5.8,13.7 0,0 18,12.8 16.4,28.9 z"
   id="path31920"
   style="fill:url(#SVGID_3_)" />
		<path
   fill="#554842"
   d="m 620,777.6 c 0,0 3.3,25.7 -4.6,31 0,0 -6.6,-21.1 -14.9,-26.5 -0.6,-0.4 -1.2,-0.8 -1.8,-1.3 1.8,-0.8 3.6,-1.9 5.1,-3.3 7.6,-6.8 16.2,0.1 16.2,0.1 z"
   id="path31922" />
		<path
   fill="#554842"
   d="m 640.3,775.1 c 0,0 7.4,18.6 6.2,29.4 0,0 -18.2,-26.9 -26.5,-26.9 13.6,-11.2 20.3,-2.5 20.3,-2.5 z"
   id="path31924" />
		<path
   fill="#554842"
   d="m 666,793.3 c 0,0 -15.3,-15.3 -25.7,-18.2 0.7,-9.6 9.1,-10.3 9.1,-10.3 0,0 18.2,12.4 16.6,28.5 z"
   id="path31926" />
		<path
   fill="#848484"
   d="m 612.1,612.4 c -2.6,-1.2 -5.2,-2 -7.8,-2.5 -2.6,-0.6 -5.3,-0.8 -7.9,-1 -5.2,-0.3 -10.5,0.4 -15.6,1.4 -2.6,0.4 -5.1,1.2 -7.7,1.9 -1.3,0.3 -2.6,0.8 -3.8,1.2 -1.3,0.4 -2.6,0.8 -3.9,1.2 -2.5,1 -5.1,1.9 -7.7,2.8 -2.6,1 -5.2,2 -7.9,2.8 2,-2 4.2,-3.8 6.5,-5.5 2.3,-1.6 4.8,-3.1 7.2,-4.6 1.3,-0.6 2.6,-1.2 3.9,-1.8 1.3,-0.6 2.6,-1.2 4,-1.7 l 4.1,-1.4 1,-0.3 1.1,-0.2 2.1,-0.5 c 5.7,-1.1 11.7,-1.4 17.5,-0.1 2.9,0.7 5.7,1.6 8.3,3 2.4,1.3 4.9,3 6.6,5.3 z"
   id="path31928" />
		<path
   fill="#848484"
   d="m 616.3,631.9 c -7.2,-0.1 -14.2,0 -21.2,0.4 -7,0.4 -13.9,1.1 -20.6,2.4 -3.4,0.6 -6.7,1.4 -10.1,2.3 -1.7,0.4 -3.3,1 -4.9,1.4 -1.6,0.6 -3.3,1.1 -4.9,1.7 -6.5,2.4 -12.7,5.5 -18.9,9.2 4.5,-5.6 10.4,-10.3 16.9,-13.7 3.2,-1.7 6.6,-3.2 10.1,-4.3 1.7,-0.6 3.5,-1.1 5.3,-1.6 1.8,-0.4 3.6,-0.8 5.4,-1.2 7.2,-1.3 14.5,-1.6 21.8,-1.1 7.2,0.6 14.4,1.9 21.1,4.5 z"
   id="path31930" />
		<path
   fill="#848484"
   d="m 619.8,659.8 c -3.9,-0.2 -7.8,-0.3 -11.7,-0.2 -3.9,0 -7.7,0.3 -11.5,0.6 -7.6,0.6 -15.1,1.9 -22.4,3.7 -3.7,0.9 -7.3,2.1 -10.8,3.3 -3.6,1.3 -7.1,2.7 -10.5,4.3 -6.9,3.2 -13.5,7.1 -20.2,11.4 4.9,-6.2 11.1,-11.5 17.9,-15.7 3.4,-2.1 7,-3.9 10.7,-5.5 3.7,-1.5 7.5,-2.8 11.4,-3.8 7.8,-1.9 15.9,-2.8 23.9,-2.6 4,0.1 8,0.6 11.9,1.3 3.7,0.7 7.6,1.6 11.3,3.2 z"
   id="path31932" />
		<path
   fill="#848484"
   d="m 624.6,686.1 c -4,-0.2 -8,-0.2 -11.9,-0.1 -3.9,0.1 -7.8,0.3 -11.7,0.7 -7.8,0.7 -15.4,1.9 -22.9,3.7 -3.8,0.9 -7.5,2 -11.1,3.2 -3.7,1.2 -7.3,2.6 -10.9,4.1 -7.2,3 -14.1,6.7 -21.1,10.7 5.3,-6 11.8,-11 18.9,-15.1 3.5,-2 7.2,-3.7 11,-5.2 3.8,-1.5 7.7,-2.7 11.7,-3.6 7.9,-1.9 16.1,-2.7 24.2,-2.5 8.1,0.1 16.3,1.2 23.8,4.1 z"
   id="path31934" />
		<path
   fill="#848484"
   d="m 629.5,708.3 c -3.9,-0.1 -7.7,0.1 -11.6,0.5 -1.9,0.2 -3.8,0.5 -5.7,0.7 l -5.6,0.9 c -7.5,1.2 -14.9,3 -22.3,4.9 -7.4,1.8 -14.7,4.1 -22,6.3 -3.7,1.2 -7.3,2.3 -11,3.4 -3.7,1.2 -7.4,2.4 -11.2,3.3 3.2,-2.2 6.6,-4.2 10,-6.1 3.5,-1.8 7,-3.6 10.5,-5.2 7.2,-3.1 14.6,-5.8 22.2,-7.7 7.6,-2 15.4,-3.3 23.3,-3.7 2,-0.1 4,-0.1 5.9,-0.1 2,0.1 4,0.1 5.9,0.4 4,0.3 8,0.9 11.6,2.4 z"
   id="path31936" />
		<path
   fill="#848484"
   d="m 635.8,731.7 c -3.3,0.1 -6.5,0.4 -9.7,0.9 -3.2,0.4 -6.3,1 -9.4,1.6 -6.2,1.2 -12.3,2.9 -18.4,4.7 l -4.5,1.4 c -1.5,0.5 -3,1.1 -4.5,1.6 -3,1 -6,2.2 -9,3.3 -1.5,0.5 -3,1.2 -4.5,1.8 -1.5,0.6 -3,1.2 -4.5,1.7 -3,1.2 -6,2.5 -9.2,3.5 2.5,-2.2 5.1,-4.2 7.7,-6.2 1.4,-0.9 2.7,-1.8 4.1,-2.7 1.4,-0.9 2.8,-1.8 4.3,-2.5 2.9,-1.6 5.8,-3.1 8.9,-4.4 1.5,-0.6 3.1,-1.3 4.6,-1.9 l 4.7,-1.6 c 6.4,-1.9 13,-3.2 19.6,-3.6 3.3,-0.2 6.7,-0.2 10,0.2 3.4,0.4 6.7,1 9.8,2.2 z"
   id="path31938" />
		<path
   fill="#848484"
   d="m 643.6,751.1 c -2.7,-0.3 -5.2,-0.3 -7.8,-0.2 -2.5,0.1 -5.1,0.3 -7.5,0.6 -5,0.6 -9.8,1.8 -14.6,3.1 l -3.6,1 -3.6,1.2 c -2.4,0.7 -4.7,1.8 -7.1,2.6 -2.4,0.9 -4.7,1.9 -7.2,2.8 -2.4,1 -4.8,2 -7.4,2.8 1.8,-1.9 3.8,-3.7 5.8,-5.5 2.1,-1.6 4.3,-3.2 6.6,-4.6 1.2,-0.7 2.3,-1.3 3.5,-1.9 0.6,-0.3 1.2,-0.7 1.8,-0.9 l 1.9,-0.8 c 1.2,-0.5 2.5,-1 3.7,-1.5 l 3.9,-1.2 c 5.2,-1.5 10.7,-2.3 16.1,-2 2.7,0.2 5.4,0.5 8.1,1.2 2.6,0.8 5.2,1.7 7.4,3.3 z"
   id="path31940" />
		<linearGradient
   id="SVGID_4_"
   gradientUnits="userSpaceOnUse"
   x1="784.72137"
   y1="667.72278"
   x2="514.05518"
   y2="182.6756">
			<stop
   offset="0"
   style="stop-color:#FFB17F"
   id="stop31942" />
			<stop
   offset="8.773810e-02"
   style="stop-color:#DE9F77"
   id="stop31944" />
			<stop
   offset="0.2807"
   style="stop-color:#9C7966"
   id="stop31946" />
			<stop
   offset="0.4641"
   style="stop-color:#645A58"
   id="stop31948" />
			<stop
   offset="0.6327"
   style="stop-color:#39424D"
   id="stop31950" />
			<stop
   offset="0.7835"
   style="stop-color:#1A3045"
   id="stop31952" />
			<stop
   offset="0.9111"
   style="stop-color:#072641"
   id="stop31954" />
			<stop
   offset="1"
   style="stop-color:#00223F"
   id="stop31956" />
		</linearGradient>
		<path
   fill="url(#SVGID_4_)"
   d="m 894,324.1 c -0.3,0.8 -3.7,8.1 -11.1,6.1 0,0 -1.6,49 -36.4,76.4 -0.9,0.8 -1.9,1.5 -2.9,2.2 -14.5,13.4 -48.8,31.4 -48.8,31.4 0,0 -48.8,11.2 -60.8,18.6 -12,7.4 -36.4,16.6 -43,7.9 0,0 1.2,20.3 -19,14.1 0,0 -2.1,22.8 -19.5,15.3 0,0 -2.5,16.1 -15.3,10.8 0,0 -0.8,21.5 -12.4,17.8 0,0 1.2,17 -12.8,15.3 0,0 3.3,15.3 -14.5,18.2 0,0 4.1,13.7 -11.2,14.1 0,0 3.3,4.5 0,7.9 0,0 -9.5,2.1 -10.4,6.6 -0.8,4.6 -38.1,36.4 -42.2,73.7 -1,8.7 -1.2,17.1 -0.9,25 0.9,26.2 7.6,47.2 12.9,53.6 0,0 -40.1,3.3 -70.4,-27.7 -11.2,-16.6 -13.7,-38.9 -17.4,-53.4 -3.7,-14.5 -5.4,-31.5 -5.4,-31.5 0,0 -1.2,-41.8 -4.6,-59.2 -3.3,-17.4 -6.6,-78.6 6.2,-88.2 0,0 -8.7,-35.6 9.5,-50.5 0,0 -0.8,-17.4 11.6,-29.4 0,0 2.5,-29 20.3,-33.5 0,0 -0.8,-20.7 17,-25.2 0,0 2.9,-29.8 24.8,-32.7 0,0 8.3,-22.8 21.5,-25.3 0,0 12.8,-29 27.7,-26.5 0,0 7.4,-21.5 29.4,-23.6 0,0 55,-34.8 132,-29 65.1,4.9 98.9,8.6 116.7,8.6 -32.3,16.9 -18.6,51.4 3.7,85.3 20.8,31.7 25.2,27.5 25.7,26.8 z"
   id="path31959"
   style="fill:url(#SVGID_4_)" />
		<linearGradient
   id="SVGID_5_"
   gradientUnits="userSpaceOnUse"
   x1="983.24261"
   y1="162.1153"
   x2="322.71759"
   y2="687.72113">
			<stop
   offset="0"
   style="stop-color:#FFB17F;stop-opacity:0.1"
   id="stop31961" />
			<stop
   offset="1.738679e-02"
   style="stop-color:#F2AA7C;stop-opacity:0.1156"
   id="stop31963" />
			<stop
   offset="9.136289e-02"
   style="stop-color:#C08E6F;stop-opacity:0.1822"
   id="stop31965" />
			<stop
   offset="0.1708"
   style="stop-color:#927464;stop-opacity:0.2537"
   id="stop31967" />
			<stop
   offset="0.2539"
   style="stop-color:#6B5E5A;stop-opacity:0.3285"
   id="stop31969" />
			<stop
   offset="0.3416"
   style="stop-color:#4A4B51;stop-opacity:0.4074"
   id="stop31971" />
			<stop
   offset="0.4352"
   style="stop-color:#2F3C4B;stop-opacity:0.4917"
   id="stop31973" />
			<stop
   offset="0.5368"
   style="stop-color:#1A3146;stop-opacity:0.5831"
   id="stop31975" />
			<stop
   offset="0.6504"
   style="stop-color:#0B2842;stop-opacity:0.6854"
   id="stop31977" />
			<stop
   offset="0.7859"
   style="stop-color:#032340;stop-opacity:0.8073"
   id="stop31979" />
			<stop
   offset="1"
   style="stop-color:#00223F"
   id="stop31981" />
		</linearGradient>
		<path
   fill="url(#SVGID_5_)"
   d="m 894,324.1 c -0.3,0.8 -3.7,8.1 -11.1,6.1 0,0 0,1.6 -0.3,4.4 -1.3,12.6 -7.5,49.6 -36.1,72.1 -0.9,0.8 -1.9,1.5 -2.9,2.2 -14.5,13.4 -48.8,31.4 -48.8,31.4 0,0 -48.8,11.2 -60.8,18.6 -12,7.4 -36.4,16.6 -43,7.9 0,0 1.2,20.3 -19,14.1 0,0 -2.1,22.8 -19.5,15.3 0,0 -2.5,16.1 -15.3,10.8 0,0 -0.8,21.5 -12.4,17.8 0,0 1.2,17 -12.8,15.3 0,0 3.3,15.3 -14.5,18.2 0,0 4.1,13.7 -11.2,14.1 0,0 3.3,4.5 0,7.9 0,0 -9.5,2.1 -10.4,6.6 -0.8,4.6 -38.1,36.4 -42.2,73.7 -0.6,5.1 -0.9,10.2 -1,15 0,1.2 0,2.5 0,3.7 0,1.1 0,2.1 0,3.2 0,1.1 0,2.1 0.1,3.2 0,1.3 0.1,2.5 0.2,3.8 0.3,4.4 0.7,8.6 1.2,12.6 0.1,0.6 0.2,1.1 0.2,1.7 0.1,0.6 0.2,1.1 0.2,1.7 0.2,1.1 0.3,2.2 0.5,3.3 0.1,0.5 0.2,1.1 0.3,1.6 0.1,0.5 0.2,1 0.3,1.6 0.2,1 0.4,2 0.6,3 0.1,0.5 0.2,1.1 0.3,1.6 0.2,0.7 0.3,1.5 0.5,2.2 0.1,0.3 0.2,0.7 0.3,1 0.3,1.3 0.7,2.6 1.1,3.8 0.2,0.5 0.3,1.1 0.5,1.6 0.2,0.6 0.3,1.1 0.5,1.7 0.1,0.4 0.3,0.8 0.4,1.2 0.4,1.2 0.8,2.2 1.2,3.3 0.2,0.5 0.4,0.9 0.6,1.3 0.1,0.2 0.1,0.3 0.2,0.5 0.5,1.1 1,2.1 1.5,3 0.2,0.3 0.3,0.6 0.5,0.9 0.1,0.2 0.3,0.5 0.4,0.7 0.4,0.6 0.8,1.2 1.2,1.7 0,0 -40.1,3.3 -70.4,-27.7 -8.1,-11.9 -11.6,-26.9 -14.4,-39.8 -1.1,-5 -2,-9.6 -3,-13.6 -3.7,-14.5 -5.4,-31.5 -5.4,-31.5 0,0 -1.2,-41.8 -4.6,-59.2 -3.3,-17.4 -6.6,-78.6 6.2,-88.2 0,0 -8.7,-35.6 9.5,-50.5 0,0 -0.8,-17.4 11.6,-29.4 0,0 2.5,-29 20.3,-33.5 0,0 -0.8,-20.7 17,-25.2 0,0 2.9,-29.8 24.8,-32.7 0,0 8.3,-22.8 21.5,-25.3 0,0 12.8,-29 27.7,-26.5 0,0 7.4,-21.5 29.4,-23.6 0,0 51.2,-32.3 123.9,-29.4 2.7,0.1 5.4,0.3 8.1,0.5 0.3,0 0.6,0 0.9,0.1 64.6,4.9 98.1,8.6 115.8,8.6 -32.3,16.9 -18.6,51.4 3.7,85.3 12,18.2 18.5,24.5 22,26.4 2.8,1 3.7,0.1 3.9,-0.2 z"
   id="path31984"
   style="fill:url(#SVGID_5_)" />
		<path
   opacity="0.46"
   fill="#848484"
   d="m 890.3,323.9 c -8,-1.2 -28.2,-9.5 -53.7,-58.7 -25.5,-49.3 -69.1,-59.5 -87.8,-61.6 64.6,4.9 98.1,8.6 115.8,8.6 -32.3,16.9 -18.6,51.4 3.7,85.3 12.1,18.2 18.6,24.5 22,26.4 z"
   id="path31986" />
		<g
   id="g32056">
			<ellipse
   transform="matrix(0.5,-0.866,0.866,0.5,-233.952,715.2023)"
   fill="#875523"
   cx="502.39999"
   cy="560.20001"
   rx="9.6000004"
   ry="15.1"
   id="ellipse31988" />
			<ellipse
   transform="matrix(0.5,-0.866,0.866,0.5,-309.4917,769.9284)"
   fill="#875523"
   cx="512"
   cy="653"
   rx="9.6000004"
   ry="15.1"
   id="ellipse31990" />
			
				<ellipse
   transform="matrix(0.5,-0.866,0.866,0.5,-364.4811,775.1981)"
   fill="#875523"
   cx="489.10001"
   cy="703.20001"
   rx="9.6000004"
   ry="15.1"
   id="ellipse31992" />
			
				<ellipse
   transform="matrix(0.5,-0.866,0.866,0.5,-284.7488,744.5299)"
   fill="#875523"
   cx="502.39999"
   cy="618.90002"
   rx="9.6000004"
   ry="15.1"
   id="ellipse31994" />
			
				<ellipse
   transform="matrix(0.5,-0.866,0.866,0.5,-264.0605,697.5624)"
   fill="#875523"
   cx="472.10001"
   cy="577.5"
   rx="9.6000004"
   ry="15.1"
   id="ellipse31996" />
			<ellipse
   transform="matrix(0.5,-0.866,0.866,0.5,-264.0605,747.7708)"
   fill="#875523"
   cx="515.59998"
   cy="602.59998"
   rx="4.8000002"
   ry="7.5999999"
   id="ellipse31998" />
			<ellipse
   transform="matrix(0.5,-0.866,0.866,0.5,-249.236,758.7986)"
   fill="#875523"
   cx="532.5"
   cy="595.20001"
   rx="4.8000002"
   ry="7.5999999"
   id="ellipse32000" />
			<ellipse
   transform="matrix(0.5,-0.866,0.866,0.5,-271.62,767.2696)"
   fill="#875523"
   cx="528.70001"
   cy="618.90002"
   rx="4.8000002"
   ry="7.5999999"
   id="ellipse32002" />
			<ellipse
   transform="matrix(0.5,-0.866,0.866,0.5,-269.7783,726.0378)"
   fill="#875523"
   cx="493.89999"
   cy="596.70001"
   rx="4.8000002"
   ry="7.5999999"
   id="ellipse32004" />
			<ellipse
   transform="matrix(0.5,-0.866,0.866,0.5,-330.0038,775.1981)"
   fill="#875523"
   cx="506.29999"
   cy="673.40002"
   rx="4.8000002"
   ry="7.5999999"
   id="ellipse32006" />
			<ellipse
   transform="matrix(0.5,-0.866,0.866,0.5,-215.9448,657.0517)"
   fill="#875523"
   cx="461.10001"
   cy="515.5"
   rx="4.8000002"
   ry="7.5999999"
   id="ellipse32008" />
			<ellipse
   transform="matrix(0.5,-0.866,0.866,0.5,-232.6974,771.4244)"
   fill="#875523"
   cx="551.70001"
   cy="587.20001"
   rx="4.8000002"
   ry="7.5999999"
   id="ellipse32010" />
			<ellipse
   transform="matrix(0.5,-0.866,0.866,0.5,-233.952,676.8713)"
   fill="#875523"
   cx="469.20001"
   cy="541"
   rx="8.8000002"
   ry="13.9"
   id="ellipse32012" />
			<ellipse
   transform="matrix(0.5,-0.866,0.866,0.5,-284.4326,709.4644)"
   fill="#875523"
   cx="472.20001"
   cy="601.09998"
   rx="4.8000002"
   ry="7.5999999"
   id="ellipse32014" />
			<ellipse
   transform="matrix(0.5,-0.866,0.866,0.5,-312.1406,720.6342)"
   fill="#875523"
   cx="468"
   cy="630.59998"
   rx="4.8000002"
   ry="7.5999999"
   id="ellipse32016" />
			<ellipse
   transform="matrix(0.5,-0.866,0.866,0.5,-304.9078,738.8429)"
   fill="#875523"
   cx="487.39999"
   cy="633.5"
   rx="4.8000002"
   ry="7.5999999"
   id="ellipse32018" />
			<ellipse
   transform="matrix(0.5,-0.866,0.866,0.5,-322.444,744.5299)"
   fill="#875523"
   cx="483.60001"
   cy="651.5"
   rx="4.8000002"
   ry="7.5999999"
   id="ellipse32020" />
			<ellipse
   transform="matrix(0.5,-0.866,0.866,0.5,-344.3172,783.4619)"
   fill="#875523"
   cx="506.29999"
   cy="689.90002"
   rx="4.8000002"
   ry="7.5999999"
   id="ellipse32022" />
			<ellipse
   transform="matrix(0.5,-0.866,0.866,0.5,-337.3583,736.5731)"
   fill="#875523"
   cx="469.20001"
   cy="660.40002"
   rx="4.8000002"
   ry="7.5999999"
   id="ellipse32024" />
			<ellipse
   transform="matrix(0.5,-0.866,0.866,0.5,-339.472,758.7986)"
   fill="#875523"
   cx="487.39999"
   cy="673.40002"
   rx="4.8000002"
   ry="7.5999999"
   id="ellipse32026" />
			<ellipse
   transform="matrix(0.5,-0.866,0.866,0.5,-372.074,802.991)"
   fill="#875523"
   cx="509.39999"
   cy="723.70001"
   rx="4.8000002"
   ry="7.5999999"
   id="ellipse32028" />
			<ellipse
   transform="matrix(0.5,-0.866,0.866,0.5,-255.5964,723.437)"
   fill="#875523"
   cx="498.70001"
   cy="583.09998"
   rx="4.8000002"
   ry="7.5999999"
   id="ellipse32030" />
			<ellipse
   transform="matrix(0.5,-0.866,0.866,0.5,-247.0613,697.5624)"
   fill="#875523"
   cx="480.60001"
   cy="562.70001"
   rx="2.9000001"
   ry="4.5999999"
   id="ellipse32032" />
			<ellipse
   transform="matrix(0.5,-0.866,0.866,0.5,-250.4633,673.8486)"
   fill="#875523"
   cx="458.29999"
   cy="553.79999"
   rx="2.9000001"
   ry="4.5999999"
   id="ellipse32034" />
			<ellipse
   transform="matrix(0.5,-0.866,0.866,0.5,-249.236,739.0101)"
   fill="#875523"
   cx="515.40002"
   cy="585.29999"
   rx="2.9000001"
   ry="4.5999999"
   id="ellipse32036" />
			<ellipse
   transform="matrix(0.5,-0.866,0.866,0.5,-255.5964,775.1981)"
   fill="#875523"
   cx="543.5"
   cy="609"
   rx="2.9000001"
   ry="4.5999999"
   id="ellipse32038" />
			<ellipse
   transform="matrix(0.5,-0.866,0.866,0.5,-287.1631,771.4244)"
   fill="#875523"
   cx="524.5"
   cy="634.40002"
   rx="2.9000001"
   ry="4.5999999"
   id="ellipse32040" />
			<ellipse
   transform="matrix(0.5,-0.866,0.866,0.5,-298.5445,707.6572)"
   fill="#875523"
   cx="463.60001"
   cy="612.40002"
   rx="2.9000001"
   ry="4.5999999"
   id="ellipse32042" />
			<ellipse
   transform="matrix(0.5,-0.866,0.866,0.5,-353.7459,750.4153)"
   fill="#875523"
   cx="473"
   cy="681.59998"
   rx="2.9000001"
   ry="4.5999999"
   id="ellipse32044" />
			<ellipse
   transform="matrix(0.5,-0.866,0.866,0.5,-357.5647,810.2482)"
   fill="#875523"
   cx="522.90002"
   cy="714.79999"
   rx="2.9000001"
   ry="4.5999999"
   id="ellipse32046" />
			<ellipse
   transform="matrix(0.5,-0.866,0.866,0.5,-353.7459,793.7919)"
   fill="#875523"
   cx="510.60001"
   cy="703.20001"
   rx="2.9000001"
   ry="4.5999999"
   id="ellipse32048" />
			<ellipse
   transform="matrix(0.5,-0.866,0.866,0.5,-331.7151,795.3239)"
   fill="#875523"
   cx="522.90002"
   cy="684.90002"
   rx="2.9000001"
   ry="4.5999999"
   id="ellipse32050" />
			<ellipse
   transform="matrix(0.5,-0.866,0.866,0.5,-367.2531,822.3901)"
   fill="#875523"
   cx="528.59998"
   cy="729.20001"
   rx="2.9000001"
   ry="4.5999999"
   id="ellipse32052" />
			<ellipse
   transform="matrix(0.5,-0.866,0.866,0.5,-233.952,745.4287)"
   fill="#875523"
   cx="528.59998"
   cy="575.29999"
   rx="6.9000001"
   ry="10.9"
   id="ellipse32054" />
		</g>
		<path
   opacity="0.53"
   fill="#848484"
   d="m 882.5,334.5 c -1.3,12.6 -7.5,49.6 -36.1,72.1 -0.9,0.8 -1.9,1.5 -2.9,2.2 -14.5,13.4 -48.8,31.4 -48.8,31.4 0,0 -48.8,11.2 -60.8,18.6 -12,7.4 -36.4,16.6 -43,7.9 0,0 1.2,20.3 -19,14.1 0,0 -2.1,22.8 -19.5,15.3 0,0 -2.5,16.1 -15.3,10.8 0,0 -0.8,21.5 -12.4,17.8 0,0 1.2,17 -12.8,15.3 0,0 3.3,15.3 -14.5,18.2 0,0 4.1,13.7 -11.2,14.1 0,0 3.3,4.5 0,7.9 0,0 -9.5,2.1 -10.4,6.6 -0.8,4.6 -38.1,36.4 -42.2,73.7 -1,8.7 -1.2,17.1 -0.9,25 0.7,20.4 4.9,37.6 9.2,47.2 -41.1,-76.1 22.4,-157.7 22.4,-157.7 12,-2.1 6.1,-8.2 6.1,-8.2 18.1,-3.9 11.3,-14.2 11.3,-14.2 17.9,-4.9 13.4,-21.6 13.4,-21.6 17.4,2.9 14.9,-12.8 14.9,-12.8 18.3,-3 14.6,-20.3 14.6,-20.3 18,-3.8 11.2,-17.8 11.2,-17.8 18.3,2.6 20.8,-16.3 20.8,-16.3 24.9,4.3 18.8,-16.2 18.8,-16.2 0,0 19.1,-27.8 88.9,-27.2 69.9,0.5 118.2,-85.9 118.2,-85.9 z"
   id="path32058" />
		<path
   fill="#848484"
   d="m 894,324 c -4.2,-3.5 -7.5,-7.7 -10.4,-12.3 -2.9,-4.6 -5.2,-9.5 -7,-14.6 -1.8,-5.1 -2.9,-10.5 -3.4,-15.9 -0.1,-1.4 -0.2,-2.7 -0.2,-4.1 0,-1.4 0.1,-2.7 0.2,-4.1 0.1,-0.7 0.1,-1.3 0.2,-2 0.1,-0.7 0.2,-1.3 0.3,-2 0.2,-1.3 0.5,-2.7 0.9,-4 0.3,1.3 0.6,2.6 0.9,3.9 0.1,0.6 0.2,1.3 0.4,1.9 l 0.5,1.9 c 0.3,1.3 0.6,2.5 0.8,3.8 0.3,1.2 0.7,2.5 1,3.7 1.3,5 2.7,9.8 4.4,14.6 1.7,4.8 3.5,9.6 5.4,14.4 1.9,5.1 3.9,9.8 6,14.8 z"
   id="path32060" />
		<path
   fill="#848484"
   d="m 882.7,330.5 c -3.3,0.4 -6,-1 -8.2,-2.6 -2.2,-1.7 -3.8,-3.9 -4.9,-6.2 -1.1,-2.4 -1.6,-4.9 -1.6,-7.5 0,-1.3 0.3,-2.6 0.6,-3.9 0.2,-0.7 0.4,-1.3 0.8,-2 0.3,-0.7 0.6,-1.3 1.1,-2 l 0.6,-0.1 c 0.5,2.2 1,4.4 1.7,6.6 0.7,2.2 1.4,4.3 2.4,6.3 0.9,2.1 2,4.1 3.3,5.9 0.7,0.9 1.3,1.8 2.1,2.6 0.7,0.8 1.5,1.7 2.4,2.3 z"
   id="path32062" />
		<g
   opacity="0.79"
   id="g32098">
			<path
   fill="#848484"
   d="m 690.8,466.8 c -7.7,-7.3 -14.6,-15.4 -21.2,-23.7 -3.3,-4.1 -6.4,-8.5 -9.6,-12.7 -3,-4.4 -6,-8.8 -8.8,-13.3 -11.4,-18 -20.9,-37.4 -27.2,-58 l -1.2,-3.9 c -0.4,-1.3 -0.7,-2.6 -1,-3.9 l -1.9,-7.9 c -0.6,-2.6 -1,-5.2 -1.5,-7.9 -0.5,-2.6 -1,-5.2 -1.4,-7.9 -0.8,-5.3 -1.7,-10.5 -2.2,-15.8 -0.7,-5.3 -1.1,-10.6 -1.5,-15.9 -0.8,-10.6 -1,-21.3 -0.7,-31.9 0.2,-5.3 0.5,-10.6 1.1,-15.9 0.5,-5.3 1.2,-10.6 2.4,-15.7 -0.1,2.6 -0.1,5.3 -0.1,7.9 v 3.9 l 0.1,3.9 c 0.2,5.3 0.4,10.5 0.8,15.7 0.3,5.2 0.8,10.5 1.4,15.7 l 0.9,7.8 1,7.8 c 1.5,10.4 3.1,20.7 5.1,30.9 0.5,2.6 1,5.1 1.6,7.7 0.6,2.5 1,5.1 1.6,7.6 l 1.9,7.5 c 0.3,1.2 0.6,2.5 1,3.7 l 1.2,3.7 2.3,7.4 c 0.8,2.4 1.8,4.8 2.7,7.3 1.7,4.9 3.9,9.6 5.9,14.4 l 0.8,1.8 0.8,1.8 1.7,3.5 c 1.1,2.3 2.1,4.7 3.4,7 2.4,4.6 4.7,9.3 7.2,13.9 5,9.2 10.3,18.2 16,27 5.3,9.2 11.2,17.9 17.4,26.5 z"
   id="path32064" />
			<path
   fill="#848484"
   d="m 671.8,480.8 c -7.1,-4.2 -13.1,-9.9 -18.5,-15.9 -5.4,-6.1 -10.2,-12.7 -14.4,-19.7 -2,-3.5 -4.1,-7 -5.8,-10.7 -0.9,-1.8 -1.8,-3.7 -2.6,-5.5 -0.8,-1.9 -1.5,-3.8 -2.3,-5.7 -0.7,-1.9 -1.4,-3.8 -2,-5.7 -0.6,-1.9 -1.2,-3.9 -1.7,-5.8 -0.6,-1.9 -1,-4 -1.4,-6 -0.4,-2 -0.8,-4 -1,-6 2.3,3.4 4.3,6.9 6.3,10.3 1,1.7 2,3.4 3,5.2 l 1.5,2.6 1.5,2.6 c 1,1.7 2,3.4 2.9,5.1 l 3,5.1 c 0.5,0.8 1,1.7 1.5,2.6 l 1.5,2.5 3,5.1 c 4,6.7 8.1,13.4 12.4,20 4.2,6.5 8.5,13.2 13.1,19.9 z"
   id="path32066" />
			<path
   fill="#848484"
   d="m 586.5,256.1 c 2.4,8.9 4.2,17.7 5.9,26.5 1.7,8.8 3.2,17.7 4.6,26.5 1.5,8.8 2.8,17.7 4.1,26.5 1.4,8.9 2.8,17.7 4,26.8 -4.7,-7.9 -7.9,-16.6 -10.6,-25.3 -2.6,-8.7 -4.6,-17.7 -6,-26.6 -1.4,-9 -2.4,-18 -2.8,-27.1 -0.4,-9 -0.3,-18.2 0.8,-27.3 z"
   id="path32068" />
			<path
   fill="#848484"
   d="m 558.8,282.6 c 2.2,11.8 4.4,23.4 6.8,34.9 2.4,11.5 5.1,23 8,34.3 2.9,11.4 6.3,22.5 9.9,33.7 1,2.8 1.9,5.5 2.8,8.3 l 3.1,8.3 1.5,4.2 1.7,4.1 c 1.1,2.8 2.2,5.5 3.2,8.4 -1.8,-2.4 -3.6,-4.8 -5.4,-7.2 -0.9,-1.2 -1.7,-2.5 -2.6,-3.7 l -2.3,-3.9 c -1.5,-2.6 -3.1,-5.2 -4.5,-7.8 -1.3,-2.7 -2.6,-5.4 -3.9,-8.1 -5,-11 -9.1,-22.4 -12,-34 -3,-11.6 -5.1,-23.5 -6.3,-35.4 -0.2,-3 -0.5,-6 -0.7,-9 -0.1,-3 -0.3,-6 -0.3,-9 0,-3 0,-6 0.2,-9 0.2,-3.1 0.4,-6.1 0.8,-9.1 z"
   id="path32070" />
			<path
   fill="#848484"
   d="m 652.3,496.1 c -5.5,-2.3 -10.3,-5.7 -14.8,-9.3 -4.5,-3.7 -8.6,-7.8 -12.3,-12.3 -1.9,-2.2 -3.6,-4.6 -5.2,-7 -0.8,-1.2 -1.6,-2.4 -2.3,-3.7 -0.4,-0.6 -0.8,-1.2 -1.1,-1.9 l -1,-1.9 c -2.8,-5.1 -5,-10.6 -6.2,-16.4 4.4,4.1 8,8.4 11.8,12.6 1.8,2.1 3.7,4.2 5.4,6.4 0.9,1 1.8,2.1 2.7,3.2 0.9,1.1 1.8,2.1 2.7,3.2 3.5,4.3 7,8.7 10.5,13.1 3.3,4.5 6.7,9 9.8,14 z"
   id="path32072" />
			<path
   fill="#848484"
   d="m 637,506.9 c -5.9,-1.7 -11.1,-4.5 -16.1,-7.7 -5,-3.2 -9.6,-6.9 -13.9,-11 -4.3,-4.1 -8.3,-8.5 -11.8,-13.3 -3.5,-4.8 -6.5,-10 -8.7,-15.6 5,3.5 9.3,7.3 13.7,11 4.3,3.8 8.5,7.6 12.7,11.6 4.1,3.9 8.2,7.9 12.3,12 4,4.1 8,8.3 11.8,13 z"
   id="path32074" />
			<path
   fill="#848484"
   d="m 537.3,307.8 c 1.7,6.1 2.9,12.2 3.9,18.2 1,6 1.9,12 2.6,18 0.8,6 1.5,11.9 2.1,17.9 0.7,6 1.4,12 1.7,18.4 -3.8,-5.1 -6.4,-11 -8.4,-16.9 -1.9,-6 -3.3,-12.1 -4,-18.3 -0.8,-6.2 -1,-12.4 -0.8,-18.6 0.3,-6.3 1,-12.5 2.9,-18.7 z"
   id="path32076" />
			<path
   fill="#848484"
   d="m 553.8,396.8 c 3.5,3.9 6.2,8 8.7,12.2 2.5,4.2 4.7,8.5 6.7,12.9 2,4.4 3.8,8.8 5.4,13.4 1.6,4.6 3,9.1 4.4,14.1 -1.1,-0.7 -2.1,-1.5 -3.1,-2.4 -0.9,-0.9 -1.9,-1.8 -2.7,-2.7 -0.8,-0.9 -1.7,-1.9 -2.5,-2.9 -0.8,-1 -1.5,-2 -2.2,-3 -2.8,-4.1 -5.2,-8.4 -7.3,-12.9 -2,-4.5 -3.7,-9.1 -5.1,-13.8 -1.1,-4.8 -2.2,-9.7 -2.3,-14.9 z"
   id="path32078" />
			<path
   fill="#848484"
   d="m 512.4,340.5 c 1.8,7.2 3.3,14.2 4.9,21.1 1.6,6.9 3.2,13.8 4.9,20.6 1.7,6.8 3.6,13.6 5.6,20.3 0.5,1.7 1,3.4 1.5,5.1 l 1.7,5.1 0.8,2.6 c 0.3,0.9 0.6,1.7 0.9,2.5 0.6,1.7 1.2,3.5 1.7,5.3 -1.3,-1.3 -2.5,-2.7 -3.8,-4.1 -0.6,-0.7 -1.2,-1.4 -1.8,-2.1 l -1.6,-2.3 c -1,-1.5 -2.1,-3.1 -3.1,-4.6 -0.9,-1.6 -1.8,-3.2 -2.7,-4.9 -3.3,-6.6 -6,-13.6 -7.7,-20.8 -1.8,-7.2 -2.9,-14.5 -3.2,-21.8 -0.2,-7.3 0.2,-14.7 1.9,-22 z"
   id="path32080" />
			<path
   fill="#848484"
   d="m 624.6,524.7 c -1.2,0 -2.4,-0.2 -3.6,-0.4 -1.2,-0.2 -2.3,-0.5 -3.5,-0.8 -1.1,-0.3 -2.3,-0.7 -3.4,-1.1 l -3.3,-1.3 c -1.1,-0.4 -2.2,-1 -3.3,-1.5 -1.1,-0.5 -2.2,-1 -3.2,-1.7 l -3.1,-1.8 -1.5,-0.9 -1.5,-1 c -8,-5.4 -15.1,-11.8 -21.4,-18.9 -3.3,-3.5 -6.1,-7.3 -9,-11 -1.4,-1.9 -2.7,-3.9 -4,-5.8 -1.3,-2 -2.6,-3.9 -3.9,-5.9 -2.3,-4.1 -4.7,-8.2 -6.8,-12.4 -2,-4.3 -3.9,-8.6 -5.5,-13.1 3.2,3.5 6.2,7.1 9.1,10.8 3,3.6 5.9,7.1 8.7,10.8 3,3.5 5.8,7.1 8.8,10.6 l 4.5,5.2 c 1.4,1.8 3,3.4 4.5,5.1 6,6.8 12.4,13.3 19.1,19.3 1.6,1.6 3.4,2.9 5.2,4.4 0.8,0.8 1.8,1.4 2.7,2.1 0.9,0.7 1.8,1.4 2.7,2.1 3.6,2.6 7.4,5.2 11.7,7.2 z"
   id="path32082" />
			<path
   fill="#848484"
   d="m 495.5,365.8 c 2.8,8.7 5.2,17.2 7.7,25.7 2.4,8.5 4.9,17 7.4,25.4 2.6,8.4 5.3,16.7 8.2,25 3,8.3 6.3,16.4 9.8,24.8 -6.5,-6.4 -11.7,-14 -16,-22.1 -4.2,-8.1 -7.6,-16.6 -10.3,-25.3 -2.6,-8.7 -4.6,-17.6 -5.8,-26.5 -1.2,-8.9 -1.8,-17.9 -1,-27 z"
   id="path32084" />
			<path
   fill="#848484"
   d="m 611.8,540 c -8,-1.8 -15.5,-5.1 -22.7,-8.9 -7.2,-3.8 -14,-8.3 -20.4,-13.4 -3.2,-2.5 -6.2,-5.2 -9.2,-8 -2.9,-2.9 -5.8,-5.7 -8.4,-8.8 -5.4,-6.1 -10,-12.9 -13.8,-20.1 6.5,5 12.4,10.3 18.5,15.3 3,2.6 6.1,5 9.1,7.5 l 4.6,3.7 2.3,1.9 2.3,1.8 c 6.1,4.9 12.4,9.7 18.6,14.5 6.3,4.7 12.6,9.5 19.1,14.5 z"
   id="path32086" />
			<path
   fill="#848484"
   d="m 475.2,399.3 c 2.1,6.4 3.8,12.7 5.5,18.9 1.7,6.2 3.5,12.3 5.4,18.3 1.8,6.1 4,12 6.2,18 0.6,1.5 1.2,3 1.7,4.5 0.6,1.5 1.2,2.9 1.8,4.5 1.1,3.1 2.6,5.9 3.8,9.2 -1.3,-1 -2.6,-2.1 -3.9,-3.3 -0.6,-0.6 -1.3,-1.1 -1.9,-1.7 l -1.7,-1.9 c -1.1,-1.3 -2.2,-2.6 -3.2,-3.9 -1,-1.4 -1.9,-2.8 -2.8,-4.2 -3.5,-5.8 -6.4,-12 -8.3,-18.4 -2,-6.4 -3.3,-13.1 -3.8,-19.7 -0.5,-6.9 -0.3,-13.7 1.2,-20.3 z"
   id="path32088" />
			<path
   fill="#848484"
   d="m 597.3,558.2 c -8.6,-0.5 -16.9,-3 -24.7,-6.3 -2,-0.9 -3.9,-1.7 -5.8,-2.7 -1.9,-1 -3.8,-1.9 -5.7,-3 -1.8,-1.1 -3.7,-2.2 -5.5,-3.4 l -5.2,-3.7 c -6.8,-5.2 -13.2,-11 -18.6,-17.6 -2.8,-3.2 -5.2,-6.8 -7.6,-10.3 -1.2,-1.7 -2.2,-3.7 -3.2,-5.5 -1,-1.9 -1.9,-3.8 -2.8,-5.7 3.3,2.8 6.2,5.8 9.3,8.5 3.1,2.8 6,5.7 9.2,8.3 6,5.5 12.5,10.5 18.9,15.4 l 4.9,3.6 c 1.7,1.2 3.4,2.3 5,3.5 3.4,2.3 6.8,4.5 10.2,6.7 6.9,4.2 14,8.3 21.6,12.2 z"
   id="path32090" />
			<path
   fill="#848484"
   d="m 586.1,572.3 c -2.6,-0.1 -5.1,-0.6 -7.6,-1.1 -1.3,-0.2 -2.5,-0.6 -3.8,-0.9 -1.2,-0.3 -2.5,-0.6 -3.7,-1 -2.5,-0.8 -4.9,-1.6 -7.3,-2.5 -1.2,-0.5 -2.4,-0.9 -3.6,-1.4 l -3.5,-1.6 c -9.4,-4.4 -18.1,-10 -26.3,-16.3 -3.9,-3.4 -8,-6.6 -11.5,-10.3 -1.8,-1.8 -3.7,-3.6 -5.4,-5.5 -1.7,-1.9 -3.4,-3.9 -5,-5.9 l -2.5,-3 c -0.8,-1 -1.5,-2.1 -2.3,-3.1 -1.5,-2.1 -2.9,-4.2 -4.4,-6.3 -0.7,-1 -1.4,-2.2 -2,-3.3 -0.6,-1.1 -1.3,-2.2 -1.9,-3.4 -1.2,-2.2 -2.5,-4.5 -3.6,-6.8 3.8,3.5 7.2,7.2 10.8,10.7 1.8,1.7 3.6,3.5 5.4,5.3 l 2.6,2.7 2.8,2.5 c 1.8,1.7 3.6,3.4 5.4,5.1 l 5.6,4.9 2.8,2.5 c 0.9,0.8 1.9,1.6 2.9,2.3 l 5.7,4.7 c 7.8,6.1 15.8,11.8 24.1,17.2 8.4,5.3 17,10.2 26.3,14.5 z"
   id="path32092" />
			<path
   fill="#848484"
   d="m 463.6,428.7 c 1.7,4.8 3,9.4 4.4,13.9 1.4,4.5 2.7,8.9 4.1,13.3 1.4,4.4 2.8,8.8 4.3,13.2 0.7,2.3 1.5,4.5 2.2,6.8 0.7,2.3 1.5,4.6 2,7.2 -4.2,-3 -7.6,-6.8 -10.3,-11 -2.8,-4.2 -4.9,-8.8 -6.4,-13.6 -1.5,-4.8 -2.4,-9.8 -2.5,-14.8 -0.2,-5.1 0.3,-10.2 2.2,-15 z"
   id="path32094" />
			<path
   fill="#848484"
   d="m 454.1,479.2 c 3.2,6.5 7.1,12.5 11.2,18.3 4.2,5.8 8.7,11.2 13.4,16.5 4.7,5.3 9.9,10.1 15,14.9 5.3,4.6 10.7,9.2 16.4,13.3 l 4.3,3.1 c 1.4,1.1 2.9,2 4.4,3 1.5,1 2.9,2 4.4,3 l 4.5,2.8 2.2,1.4 2.3,1.3 4.6,2.7 4.7,2.5 c 1.5,0.9 3.1,1.7 4.7,2.4 6.3,3.2 12.8,6.1 19.5,8.8 3.3,1.3 6.7,2.6 10.1,3.8 3.4,1.2 6.8,2.3 10.3,3.2 -7.3,-0.1 -14.5,-1.3 -21.7,-2.9 -7.1,-1.7 -14.1,-3.9 -21,-6.6 -3.5,-1.3 -6.8,-2.9 -10.1,-4.4 l -4.9,-2.5 -2.5,-1.3 -2.4,-1.4 -4.8,-2.8 c -1.6,-0.9 -3.1,-2 -4.7,-3 -1.5,-1 -3.1,-2 -4.6,-3.1 l -4.5,-3.2 c -3,-2.1 -5.8,-4.6 -8.7,-6.9 -1.4,-1.1 -2.8,-2.4 -4.1,-3.7 l -4.1,-3.7 -3.9,-4 c -1.3,-1.3 -2.6,-2.6 -3.8,-4.1 l -3.6,-4.2 -3.4,-4.4 c -4.4,-5.9 -8.5,-12.1 -11.8,-18.6 -1.7,-3.3 -3.2,-6.6 -4.5,-10 -1.1,-3.1 -2.3,-6.6 -2.9,-10.2 z"
   id="path32096" />
		</g>
		<linearGradient
   id="SVGID_6_"
   gradientUnits="userSpaceOnUse"
   x1="991.71698"
   y1="84.661598"
   x2="868.79993"
   y2="260.34619">
			<stop
   offset="0"
   style="stop-color:#FFB17F"
   id="stop32100" />
			<stop
   offset="8.773810e-02"
   style="stop-color:#DE9F77"
   id="stop32102" />
			<stop
   offset="0.2807"
   style="stop-color:#9C7966"
   id="stop32104" />
			<stop
   offset="0.4641"
   style="stop-color:#645A58"
   id="stop32106" />
			<stop
   offset="0.6327"
   style="stop-color:#39424D"
   id="stop32108" />
			<stop
   offset="0.7835"
   style="stop-color:#1A3045"
   id="stop32110" />
			<stop
   offset="0.9111"
   style="stop-color:#072641"
   id="stop32112" />
			<stop
   offset="1"
   style="stop-color:#00223F"
   id="stop32114" />
		</linearGradient>
		<path
   fill="url(#SVGID_6_)"
   d="m 938.4,216.5 c -1.7,1.4 -3.5,2.8 -5.5,4 0,0 -20.7,-7.3 -60,-8.7 0,0 0.7,-2.7 2,-7.1 4.1,-13.1 14.8,-40.8 34,-54.1 25.7,-17.8 41.8,-34.4 48,-29 5.9,5.1 14.8,66.8 -18.5,94.9 z"
   id="path32117"
   style="fill:url(#SVGID_6_)" />
		<path
   fill="#848484"
   d="m 950.7,297.5 c -3.1,-3.3 -6.3,-6.3 -9.8,-9 -3.5,-2.6 -7.2,-4.8 -11.2,-6.3 -2,-0.7 -4,-1.3 -6.1,-1.6 -2.1,-0.3 -4.2,-0.5 -6.3,-0.4 -4.3,0.2 -8.6,1.1 -12.9,2.4 3.7,-2.7 8,-4.6 12.7,-5.3 2.3,-0.4 4.7,-0.4 7.1,-0.2 2.4,0.2 4.7,0.8 6.9,1.7 4.5,1.6 8.4,4.3 11.8,7.6 3.2,3.1 6,6.9 7.8,11.1 z"
   id="path32119" />
		<path
   fill="#ffffff"
   d="m 945.8,297.5 c -34.4,11.6 -38.5,-9.5 -38.5,-9.5 4.9,-2.8 9.3,-4.2 13.2,-4.6 6.3,-0.6 11.4,1.2 15.4,3.8 6.5,4.2 9.9,10.3 9.9,10.3 z"
   id="path32121" />
		<g
   id="g32215">
			<g
   id="g32213">
				<path
   fill="#997247"
   d="m 609.3,257.9 c 0,0 -1.2,9 0,18.5 l -9.9,-1.8 c -2.6,-0.5 -3.7,-3.6 -2,-5.6 4,-4.8 10,-11.3 11.9,-11.1 z"
   id="path32123" />
				<path
   fill="#997247"
   d="m 609.3,283.4 c 0,0 1,12 2.3,17.2 L 600,296.8 c -1.9,-0.6 -2.4,-3 -0.9,-4.3 z"
   id="path32125" />
				<path
   fill="#997247"
   d="m 612.8,317.6 c 0,0 1.9,9.1 4.8,14.9 l -12.3,-1.9 c -1.7,-0.3 -2.4,-2.3 -1.2,-3.5 z"
   id="path32127" />
				<path
   fill="#997247"
   d="m 622.1,354.6 c 0,0 2.3,12.4 5,16.8 2,3.2 -7.3,2 -12.3,1.2 -1.5,-0.2 -2.2,-1.9 -1.5,-3.1 z"
   id="path32129" />
				<path
   fill="#997247"
   d="m 685.6,466.8 -6.8,5.7 c -1.6,1.4 -4,-0.3 -3.3,-2.3 l 3.8,-10.8 z"
   id="path32131" />
				<path
   fill="#997247"
   d="m 674.9,455 c 0,0 -5.8,-9.9 -7.2,-11.4 l -5.1,14.7 c -0.6,1.9 1.4,3.5 3.1,2.5 z"
   id="path32133" />
				<path
   fill="#997247"
   d="m 663.9,439.2 c 0,0 -7.7,-9.3 -9.1,-13.2 l -5.2,13.7 c -0.6,1.6 0.9,3.2 2.5,2.8 z"
   id="path32135" />
				<path
   fill="#997247"
   d="m 639.9,399.3 c 0,0 5.8,11.4 8.3,14.5 l -11.8,1.9 c -1.6,0.3 -2.9,-1.4 -2.3,-2.9 z"
   id="path32137" />
				<path
   fill="#997247"
   d="m 582.5,267.1 c 2.8,-0.8 -0.6,17.8 1.6,20.9 h -12.6 c -3.1,0 -5,-3.5 -3.3,-6.1 3.7,-5.5 9.5,-13.3 14.3,-14.8 z"
   id="path32139" />
				<path
   fill="#997247"
   d="m 589,320.4 c 0,0 1.6,4.4 1.9,9.8 l -15.4,3.6 c -0.9,0.2 -1.5,-1 -0.8,-1.6 z"
   id="path32141" />
				<path
   fill="#997247"
   d="m 593,340.5 c 0,0 3.2,12 4.2,14.1 l -16,1.9 c -2.1,0.3 -3.3,-2.4 -1.7,-3.8 z"
   id="path32143" />
				<path
   fill="#997247"
   d="m 622.1,413.5 c 0,0 4.2,11.1 5.2,12.5 0.6,0.9 -7.6,2.5 -14.3,3.6 -2.5,0.4 -4.1,-2.6 -2.3,-4.5 z"
   id="path32145" />
				<path
   fill="#997247"
   d="m 630.8,430.9 c 0,0 4.8,12.2 8.2,16 l -13,3.8 c -2.2,0.6 -4.1,-1.7 -3.1,-3.7 z"
   id="path32147" />
				<path
   fill="#997247"
   d="m 642.1,452.3 c 0,0 9.3,12.7 10.2,13.8 0.6,0.7 -8,1.7 -13.6,2.3 -2.1,0.2 -3.6,-1.9 -2.6,-3.8 z"
   id="path32149" />
				<path
   fill="#997247"
   d="m 656.7,471 c 0,0 4.6,6.7 8.3,9.8 l -9.4,4.1 c -2.2,1 -4.5,-1.3 -3.5,-3.5 z"
   id="path32151" />
				<path
   fill="#997247"
   d="m 553.8,294 c 0,0 2,19.9 2.6,23.6 h -9.1 c -2.6,0 -4.5,-2.5 -3.7,-5 1.4,-4.5 4.3,-11.5 10.2,-18.6 z"
   id="path32153" />
				<path
   fill="#997247"
   d="m 557.8,325 c 0,0 1.1,12.6 3.9,19 h -11 c -2.8,0 -4.7,-2.9 -3.5,-5.4 2.5,-5.7 6.8,-13.9 10.6,-13.6 z"
   id="path32155" />
				<path
   fill="#997247"
   d="m 577.3,390.2 c 0,0 2.9,10.9 5.3,13.7 l -9.1,4 c -3.3,1.4 -6.6,-2 -5,-5.2 2.8,-5.9 6.5,-12.3 8.8,-12.5 z"
   id="path32157" />
				<path
   fill="#997247"
   d="m 605.1,450.8 c 0,0 7,10.5 9.4,11.8 l -8.9,2.3 c -3.1,0.8 -5.8,-2.2 -4.6,-5.2 1.6,-3.9 3.4,-8 4.1,-8.9 z"
   id="path32159" />
				<path
   fill="#997247"
   d="m 618.7,466.8 c 0,0 4.6,8.3 8.7,12.4 l -7.3,2.2 c -2.7,0.8 -5.4,-1.4 -5,-4.2 0.6,-3.9 1.6,-8.7 3.6,-10.4 z"
   id="path32161" />
				<path
   fill="#997247"
   d="m 532.8,330.2 c 0,0 0.6,14 2.8,19.5 l -10.5,0.7 c -2.2,0.1 -3.8,-2.2 -2.8,-4.2 3,-5.7 8,-14.8 10.5,-16 z"
   id="path32163" />
				<path
   fill="#997247"
   d="m 537.3,364 c 0,0 3.9,13.4 5.2,16.2 l -13.5,2.9 c -2,0.4 -3.5,-1.8 -2.3,-3.5 z"
   id="path32165" />
				<path
   fill="#997247"
   d="m 557.8,420.3 c 0,0 7.9,14 10.3,17.7 l -12.3,1.9 c -2.6,0.4 -4.6,-2.1 -3.7,-4.6 z"
   id="path32167" />
				<path
   fill="#997247"
   d="m 584,465 c 0,0 6.2,8.4 11.8,11.8 l -11.7,5.8 c -2.1,1 -4.4,-0.9 -3.8,-3.1 z"
   id="path32169" />
				<path
   fill="#997247"
   d="m 599.3,480.8 c 0,0 7,6.5 10,9.6 l -10.1,5.9 c -2.1,1.2 -4.7,-0.8 -3.9,-3.2 z"
   id="path32171" />
				<path
   fill="#997247"
   d="m 613,493.6 c 0,0 9.9,8.7 11.6,9.6 l -11.3,6.4 c -2.1,1.2 -4.6,-0.8 -3.9,-3.1 z"
   id="path32173" />
				<path
   fill="#997247"
   d="m 510.8,370 c 0,0 1.9,13.3 3.7,16.1 h -8.1 c -1.8,0 -3,-1.9 -2.2,-3.6 z"
   id="path32175" />
				<path
   fill="#997247"
   d="m 517,396.8 c 0,0 3,10.8 5.1,13.2 H 513 c -1.9,0 -3.1,-2.1 -2,-3.8 z"
   id="path32177" />
				<path
   fill="#997247"
   d="m 544.6,452.3 c 0,0 4.4,9.3 7.2,10.5 l -10.8,4.4 c -2.2,0.9 -4.2,-1.5 -3,-3.5 z"
   id="path32179" />
				<path
   fill="#997247"
   d="m 556.4,468.4 c 0,0 9.2,11.8 10,13.2 l -12,3.1 c -1.9,0.5 -3.6,-1.4 -2.9,-3.2 z"
   id="path32181" />
				<path
   fill="#997247"
   d="m 569.8,488.8 c 0,0 8.9,9.7 10.5,11.1 l -9.9,2.6 c -1.8,0.5 -3.4,-1.1 -3,-2.9 z"
   id="path32183" />
				<path
   fill="#997247"
   d="m 586.1,505.4 c 0,0 7.7,8.7 11.2,9.6 l -9.3,2.9 c -1.7,0.5 -3.4,-0.9 -3.1,-2.6 z"
   id="path32185" />
				<path
   fill="#997247"
   d="m 491.8,386.2 c 0,0 1.1,11.5 3.7,15.8 l -10.3,1 c -1.8,0.2 -3.1,-1.9 -2.1,-3.4 z"
   id="path32187" />
				<path
   fill="#997247"
   d="m 497.4,408.2 c 0,0 3.1,13 5,14.9 h -13.6 c -1.9,0 -2.9,-2.3 -1.6,-3.7 z"
   id="path32189" />
				<path
   fill="#997247"
   d="m 504,430.9 c 0,0 5.8,12.2 8.5,16 l -14.7,2.9 c -1.8,0.4 -3.3,-1.6 -2.4,-3.2 z"
   id="path32191" />
				<path
   fill="#997247"
   d="m 535.6,485.8 c 0,0 7.3,9.4 9.1,10.9 l -13.2,4.2 c -1.9,0.6 -3.6,-1.4 -2.6,-3.2 z"
   id="path32193" />
				<path
   fill="#997247"
   d="m 547.6,499.9 c 1.3,0.5 9.3,9.7 12.3,11.8 l -13.4,4.8 c -1.7,0.6 -3.4,-1 -2.9,-2.7 z"
   id="path32195" />
				<path
   fill="#997247"
   d="m 567.3,515.9 c 0,0 7.7,7 11.6,8.8 l -11.2,7 c -1.7,1 -3.8,-0.4 -3.3,-2.3 z"
   id="path32197" />
				<path
   fill="#997247"
   d="m 584.8,529 c 0,0 8,6.1 10.3,7 l -9.9,7.4 c -1.7,1.3 -4,-0.3 -3.5,-2.3 z"
   id="path32199" />
				<path
   fill="#997247"
   d="m 599.3,538.2 c 0,0 6.8,2.9 8.3,3.8 0,0 -3.1,3.2 -6.7,6.4 -1.6,1.4 -4.1,-0.1 -3.6,-2.2 z"
   id="path32201" />
				<path
   fill="#997247"
   d="m 474.3,423.1 c 0,0 1.2,6.8 2.5,9.6 l -5.5,5.3 c -0.9,0.9 -2.4,0 -2.1,-1.2 0.9,-3.7 2.6,-9.3 5.1,-13.7 z"
   id="path32203" />
				<path
   fill="#997247"
   d="m 478.8,442.6 c 0,0 3.4,8.9 7,15.3 l -8.7,5.8 c -0.8,0.6 -1.9,0 -1.9,-1 0.1,-4.9 0.6,-15.8 3.6,-20.1 z"
   id="path32205" />
				<path
   fill="#997247"
   d="m 539.7,529 c 0,0 8,8.1 11.7,10.3 l -9.3,3.1 c -1.5,0.5 -3.1,-0.7 -3,-2.3 z"
   id="path32207" />
				<path
   fill="#997247"
   d="m 555.5,542 c 0,0 9,7 13,7.9 l -9.9,3.8 c -1.5,0.6 -3.1,-0.5 -3.1,-2.2 z"
   id="path32209" />
				<path
   fill="#997247"
   d="m 571.6,553.2 c 0,0 8.3,4.4 13.2,5.1 l -8.8,4.9 c -1.4,0.8 -3.2,-0.1 -3.4,-1.7 z"
   id="path32211" />
			</g>
		</g>
		<path
   fill="#7d5e63"
   d="m 1088.1,398.5 c -5,10.3 -26.9,8.7 -57.5,-2.5 -14.5,-5.3 -42.2,-14.8 -69.1,-26.6 14.1,5.6 58.4,-1.4 91,11.3 33.1,12.8 23.5,-6.5 23.5,-6.5 7.4,5.8 16.3,15.6 12.1,24.3 z"
   id="path32217" />
		<path
   fill="#111010"
   d="m 1047.6,387.4 c 0,0 21.1,2 20.7,8.6 -0.4,6.6 -20.7,-8.6 -20.7,-8.6 z"
   id="path32219" />
		<g
   id="g32237">
			<ellipse
   transform="matrix(0.5,-0.866,0.866,0.5,259.0087,938.5858)"
   fill="#ce9761"
   cx="942.29999"
   cy="245"
   rx="9.1000004"
   ry="14.8"
   id="ellipse32221" />
			<ellipse
   transform="matrix(0.5,-0.866,0.866,0.5,254.2909,965.1816)"
   fill="#ce9761"
   cx="963"
   cy="262.39999"
   rx="5.3000002"
   ry="8.6999998"
   id="ellipse32223" />
			<ellipse
   transform="matrix(0.5,-0.866,0.866,0.5,266.4401,959.663)"
   fill="#ce9761"
   cx="964.29999"
   cy="249.10001"
   rx="3.4000001"
   ry="5.5999999"
   id="ellipse32225" />
			<ellipse
   transform="matrix(0.5,-0.866,0.866,0.5,243.7932,949.0396)"
   fill="#ce9761"
   cx="943.79999"
   cy="263.39999"
   rx="4.5999999"
   ry="7.5"
   id="ellipse32227" />
			<ellipse
   transform="matrix(0.5,-0.866,0.866,0.5,243.7932,963.9814)"
   fill="#ce9761"
   cx="956.70001"
   cy="270.89999"
   rx="2.0999999"
   ry="3.5"
   id="ellipse32229" />
			<ellipse
   transform="matrix(0.5,-0.866,0.866,0.5,264.1275,973.2602)"
   fill="#ce9761"
   cx="974.90002"
   cy="257.89999"
   rx="2.0999999"
   ry="3.5"
   id="ellipse32231" />
			
				<ellipse
   transform="matrix(0.836,-0.5488,0.5488,0.836,6.7968,579.8921)"
   fill="#ce9761"
   cx="973.5"
   cy="278.60001"
   rx="2.0999999"
   ry="3.5"
   id="ellipse32233" />
			
				<ellipse
   transform="matrix(0.836,-0.5488,0.5488,0.836,12.0161,581.9215)"
   fill="#ce9761"
   cx="979.5"
   cy="270.89999"
   rx="3.7"
   ry="6.0999999"
   id="ellipse32235" />
		</g>
		<linearGradient
   id="SVGID_7_"
   gradientUnits="userSpaceOnUse"
   x1="762.06561"
   y1="140.7139"
   x2="885.29321"
   y2="262.38959">
			<stop
   offset="0"
   style="stop-color:#FFB17F"
   id="stop32239" />
			<stop
   offset="8.773810e-02"
   style="stop-color:#DE9F77"
   id="stop32241" />
			<stop
   offset="0.2807"
   style="stop-color:#9C7966"
   id="stop32243" />
			<stop
   offset="0.4641"
   style="stop-color:#645A58"
   id="stop32245" />
			<stop
   offset="0.6327"
   style="stop-color:#39424D"
   id="stop32247" />
			<stop
   offset="0.7835"
   style="stop-color:#1A3045"
   id="stop32249" />
			<stop
   offset="0.9111"
   style="stop-color:#072641"
   id="stop32251" />
			<stop
   offset="1"
   style="stop-color:#00223F"
   id="stop32253" />
		</linearGradient>
		<path
   fill="url(#SVGID_7_)"
   d="m 880.4,251.6 c 0,0 -1.7,-39.7 -24.4,-61.7 -19.6,-18.9 -26.3,-38.7 -49,-40.7 -8,-0.7 -15.4,4.2 -18,11.8 -1.5,4.3 -2.7,9.9 -2.9,16.5 -0.4,17.8 -10.8,28.1 12.8,45.9 23.6,17.8 57.9,32.7 57.9,32.7 0,0 19.8,6.2 23.6,-4.5 z"
   id="path32256"
   style="fill:url(#SVGID_7_)" />
		<path
   fill="#111010"
   d="m 860.7,254 c 0,0 -18,-98.9 -52,-97.3 0,0 -22.4,5 -11.2,39.3 11.3,34.4 63.2,58 63.2,58 z"
   id="path32258" />
		<g
   id="g32284">
			<ellipse
   fill="#997247"
   cx="706.29999"
   cy="220.5"
   rx="16.1"
   ry="8.1000004"
   id="ellipse32260" />
			<ellipse
   fill="#997247"
   cx="758.40002"
   cy="215.5"
   rx="10.6"
   ry="5.3000002"
   id="ellipse32262" />
			<ellipse
   fill="#997247"
   cx="702.20001"
   cy="237"
   rx="8.1000004"
   ry="4"
   id="ellipse32264" />
			<ellipse
   fill="#997247"
   cx="677.79999"
   cy="231.60001"
   rx="8.1000004"
   ry="4"
   id="ellipse32266" />
			<ellipse
   fill="#997247"
   cx="757"
   cy="228.60001"
   rx="6"
   ry="3"
   id="ellipse32268" />
			<ellipse
   fill="#997247"
   cx="677.79999"
   cy="218.5"
   rx="6"
   ry="3"
   id="ellipse32270" />
			
				<ellipse
   transform="matrix(0.9422,-0.3352,0.3352,0.9422,-37.5255,233.7144)"
   fill="#997247"
   cx="658.29999"
   cy="225.60001"
   rx="6"
   ry="3"
   id="ellipse32272" />
			
				<ellipse
   transform="matrix(0.9422,-0.3352,0.3352,0.9422,-41.1955,227.1946)"
   fill="#997247"
   cx="637.59998"
   cy="232.89999"
   rx="6"
   ry="3"
   id="ellipse32274" />
			
				<ellipse
   transform="matrix(0.9422,-0.3352,0.3352,0.9422,-43.3971,232.6518)"
   fill="#997247"
   cx="652.29999"
   cy="242.10001"
   rx="11.2"
   ry="5.5999999"
   id="ellipse32276" />
			<ellipse
   fill="#997247"
   cx="736.5"
   cy="225.60001"
   rx="10.1"
   ry="5.0999999"
   id="ellipse32278" />
			<ellipse
   fill="#997247"
   cx="726.40002"
   cy="242.10001"
   rx="10.1"
   ry="5.0999999"
   id="ellipse32280" />
			<ellipse
   fill="#997247"
   cx="734.59998"
   cy="211.39999"
   rx="8.1999998"
   ry="4.0999999"
   id="ellipse32282" />
		</g>
		<path
   opacity="0.53"
   fill="#848484"
   d="m 475.2,711.4 c 0,0 -7.1,-3.7 -15.7,-8.1 -11.1,-28.9 -11.8,-64.3 -11.5,-79.1 2.1,1 3.4,1.7 4.4,2.3 0,0 0,0 0,0 0,0 1.7,17 5.4,31.5 3.7,14.4 6.2,36.8 17.4,53.4 z"
   id="path32286" />
		<path
   fill="#554842"
   d="m 906.4,519.7 c 0,0 -5.4,9.9 -14.5,5.4 0,0 6.6,-2 7.5,-7.3 0.3,-0.4 5.1,-6.1 7,1.9 z"
   id="path32288" />
		<path
   fill="#554842"
   d="m 916.4,515.2 c 0,0 -2.5,14.1 -12,13.7 0,0 4.6,-3.7 2.1,-9.1 -0.1,-0.1 5.3,-13.3 9.9,-4.6 z"
   id="path32290" />
		<path
   fill="#554842"
   d="m 915.6,528.8 c 0.2,-0.4 4.9,-9.6 0.8,-13.6 0,0 5.7,-13.6 9.1,-8.3 0,0 0,0 0,0 0.1,0.2 0.2,0.4 0.3,0.6 0.1,0.2 0.2,0.5 0.3,0.7 0.1,0.2 0.1,0.4 0.2,0.6 1.1,3.3 1.2,10.5 -10.7,20 z"
   id="path32292" />
		<path
   opacity="0.53"
   fill="#848484"
   d="m 666,793.3 c 0,0 -15.3,-15.3 -25.7,-18.2 0,0 7.4,18.6 6.2,29.4 0,0 -18.2,-26.9 -26.5,-26.9 0,0 3.3,25.7 -4.6,31 0,0 -6.6,-21.1 -14.9,-26.5 -0.6,-0.4 -1.2,-0.8 -1.8,-1.3 -6.9,-5.6 -10,-14.6 -21.8,-21.5 -12.8,-7.4 -29,-10.3 -31.4,-20.3 0,0 -40.1,3.3 -70.4,-27.7 0,0 -7.1,-3.7 -15.7,-8.1 -9.4,-4.9 -20.5,-10.6 -25.7,-13.5 -9.9,-5.4 -46.8,-30.2 -48,-65.4 -1.2,-35.2 -16.1,-61.7 -21.1,-66.2 -1.5,-1.4 -1.8,-3.4 -1.1,-5.1 0,0 21.1,16 41.8,75.4 20.7,59.4 55.5,43 55.5,43 0,0 36.7,36.1 71.7,3.9 v 0 c 0,0 9.6,44.2 55.8,48.2 17.8,1.6 32.4,-0.1 44.2,-3.5 4.1,15.6 8.2,27.6 11.1,30.9 7.9,9.1 5.8,13.7 5.8,13.7 0,0 18.2,12.6 16.6,28.7 z"
   id="path32294" />
		<path
   opacity="0.53"
   fill="#848484"
   d="m 938.4,216.5 c -1.7,1.4 -3.5,2.8 -5.5,4 0,0 -20.7,-7.3 -60,-8.7 0,0 0.7,-2.7 2,-7.1 25,-3.5 48.9,4.9 63.5,11.8 z"
   id="path32296" />
		<path
   fill="#848484"
   d="m 907.3,296 c 0,0 6.1,12.6 27.7,7 -0.1,0.1 -21.7,11.4 -27.7,-7 z"
   id="path32298" />
		<path
   fill="#111010"
   d="m 936.6,290.6 c 0,5.1 -4.5,9.2 -10,9.2 -5.5,0 -9.9,-4.1 -9.9,-9.2 0,-2.9 1.5,-5.5 3.8,-7.2 6.3,-0.6 11.4,1.2 15.4,3.8 0.5,1.1 0.7,2.2 0.7,3.4 z"
   id="path32300" />
		<ellipse
   fill="#ffffff"
   cx="932.20001"
   cy="290.39999"
   rx="3.5999999"
   ry="3.0999999"
   id="ellipse32302" />
	</g>
</g>

</svg>
