<?xml version="1.0" encoding="UTF-8" standalone="no"?>
<svg
   xmlns:dc="http://purl.org/dc/elements/1.1/"
   xmlns:cc="http://creativecommons.org/ns#"
   xmlns:rdf="http://www.w3.org/1999/02/22-rdf-syntax-ns#"
   xmlns:svg="http://www.w3.org/2000/svg"
   xmlns="http://www.w3.org/2000/svg"
   xmlns:sodipodi="http://sodipodi.sourceforge.net/DTD/sodipodi-0.dtd"
   xmlns:inkscape="http://www.inkscape.org/namespaces/inkscape"
   id="svg4769"
   sodipodi:docname="Bald Eagle.svg"
   viewBox="0 0 512 512.00002"
   sodipodi:version="0.32"
   version="1.0"
   inkscape:output_extension="org.inkscape.output.svg.inkscape"
   inkscape:version="1.0.2 (e86c870879, 2021-01-15, custom)"
   width="512"
   height="512">
  <defs
     id="defs3">
    <filter
       id="filter3625"
       inkscape:collect="always">
      <feGaussianBlur
         id="feGaussianBlur3627"
         stdDeviation="6.649321"
         inkscape:collect="always" />
    </filter>
    <filter
       id="filter3883"
       inkscape:collect="always">
      <feGaussianBlur
         id="feGaussianBlur3885"
         stdDeviation="2.8316967"
         inkscape:collect="always" />
    </filter>
    <filter
       id="filter4197"
       inkscape:collect="always">
      <feGaussianBlur
         id="feGaussianBlur4199"
         stdDeviation="2.5699631"
         inkscape:collect="always" />
    </filter>
    <filter
       id="filter4206"
       inkscape:collect="always">
      <feGaussianBlur
         id="feGaussianBlur4208"
         stdDeviation="3.3680843"
         inkscape:collect="always" />
    </filter>
    <filter
       id="filter4231"
       inkscape:collect="always">
      <feGaussianBlur
         id="feGaussianBlur4233"
         stdDeviation="3.8324063"
         inkscape:collect="always" />
    </filter>
    <filter
       id="filter4256"
       inkscape:collect="always">
      <feGaussianBlur
         id="feGaussianBlur4258"
         stdDeviation="3.3894422"
         inkscape:collect="always" />
    </filter>
    <filter
       id="filter4265"
       inkscape:collect="always">
      <feGaussianBlur
         id="feGaussianBlur4267"
         stdDeviation="2.6394764"
         inkscape:collect="always" />
    </filter>
    <filter
       id="filter4963"
       height="1.1931"
       width="1.3089"
       y="-0.096552998"
       x="-0.15445"
       inkscape:collect="always">
      <feGaussianBlur
         id="feGaussianBlur4965"
         stdDeviation="5.0908216"
         inkscape:collect="always" />
    </filter>
    <filter
       id="filter5435"
       inkscape:collect="always">
      <feGaussianBlur
         id="feGaussianBlur5437"
         stdDeviation="3.3924267"
         inkscape:collect="always" />
    </filter>
  </defs>
  <sodipodi:namedview
     id="base"
     inkscape:snap-center="true"
     inkscape:zoom="0.23754368"
     borderopacity="1.0"
     inkscape:current-layer="layer1"
     inkscape:cx="608.57866"
     inkscape:cy="474.11463"
     inkscape:object-paths="true"
     inkscape:document-units="px"
     inkscape:snap-bbox="true"
     showgrid="false"
     inkscape:snap-global="false"
     inkscape:bbox-nodes="true"
     bordercolor="#666666"
     inkscape:guide-bbox="true"
     objecttolerance="10000"
     inkscape:object-nodes="true"
     inkscape:pageopacity="0.0"
     inkscape:pageshadow="2"
     guidetolerance="10000"
     pagecolor="#ffffff"
     gridtolerance="10000"
     inkscape:bbox-paths="true"
     showguides="true"
     inkscape:document-rotation="0"
     inkscape:window-width="1267"
     inkscape:window-height="729"
     inkscape:window-x="26"
     inkscape:window-y="0"
     inkscape:window-maximized="0" />
  <g
     id="layer1"
     inkscape:label="Layer 1"
     inkscape:groupmode="layer"
     transform="translate(-36.567,-44.49)">
    <g
       id="g53195"
       transform="matrix(0.4228519,0,0,0.4228519,77.239903,149.29911)">
      <g
         id="g4987"
         transform="translate(-0.2142)">
        <g
           id="g4283"
           transform="matrix(-1,0,0,1,881.34,-53.952)">
          <path
             id="path4285"
             style="fill:#552200;stroke:#000000;stroke-width:5.7614;stroke-linecap:round;stroke-linejoin:round"
             d="m 83.281,351.08 c 0,42.81 -11.193,77.55 -24.985,77.55 -13.791,0 -24.984,-34.74 -24.984,-77.55 0,-42.81 11.193,-77.56 24.984,-77.56 13.792,0 24.985,34.75 24.985,77.56 z"
             inkscape:transform-center-x="-25.570437"
             inkscape:transform-center-y="39.400061"
             transform="matrix(0.99991,-0.013307,0.013307,0.99991,183.85,127.92)" />
          <path
             id="path4287"
             style="fill:#552200;stroke:#000000;stroke-width:5.7614;stroke-linecap:round;stroke-linejoin:round"
             d="m 83.281,351.08 c 0,42.81 -11.193,77.55 -24.985,77.55 -13.791,0 -24.984,-34.74 -24.984,-77.55 0,-42.81 11.193,-77.56 24.984,-77.56 13.792,0 24.985,34.75 24.985,77.56 z"
             inkscape:transform-center-x="-23.140921"
             inkscape:transform-center-y="40.874315"
             transform="matrix(0.99889,0.047187,-0.047187,0.99889,164.55,130.63)" />
          <path
             id="path4289"
             style="fill:#552200;stroke:#000000;stroke-width:5.7614;stroke-linecap:round;stroke-linejoin:round"
             d="m 83.281,351.08 c 0,42.81 -11.193,77.55 -24.985,77.55 -13.791,0 -24.984,-34.74 -24.984,-77.55 0,-42.81 11.193,-77.56 24.984,-77.56 13.792,0 24.985,34.75 24.985,77.56 z"
             inkscape:transform-center-x="-20.979222"
             inkscape:transform-center-y="42.024821"
             transform="matrix(0.99507,0.099182,-0.099182,0.99507,150.86,118.59)" />
          <path
             id="path4291"
             style="opacity:0.6;fill:#d45500;filter:url(#filter3883)"
             transform="matrix(0.60145,-0.14357,0.15762,0.63966,247.83,322.28)"
             d="m -150.62,168.94 c 1.35,14.72 -8.04,41.46 -25.19,68.68 -20.87,33.12 -46.04,55.52 -59.13,53.5 0.45,4.87 2.07,8.43 4.97,10.26 11.67,7.35 39.64,-16.1 62.47,-52.32 22.83,-36.22 31.89,-71.55 20.22,-78.9 -1,-0.63 -2.12,-1.03 -3.34,-1.22 z" />
          <path
             id="path4293"
             style="fill:#552200;stroke:#000000;stroke-width:5.7614;stroke-linecap:round;stroke-linejoin:round"
             d="m 83.281,351.08 c 0,42.81 -11.193,77.55 -24.985,77.55 -13.791,0 -24.984,-34.74 -24.984,-77.55 0,-42.81 11.193,-77.56 24.984,-77.56 13.792,0 24.985,34.75 24.985,77.56 z"
             inkscape:transform-center-x="-17.338836"
             inkscape:transform-center-y="43.652935"
             transform="rotate(10.557956,-510.40308,848.72086)" />
          <path
             id="path4295"
             d="m -150.62,168.94 c 1.35,14.72 -8.04,41.46 -25.19,68.68 -20.87,33.12 -46.04,55.52 -59.13,53.5 0.45,4.87 2.07,8.43 4.97,10.26 11.67,7.35 39.64,-16.1 62.47,-52.32 22.83,-36.22 31.89,-71.55 20.22,-78.9 -1,-0.63 -2.12,-1.03 -3.34,-1.22 z"
             style="opacity:0.6;fill:#d45500;filter:url(#filter3883)"
             transform="matrix(0.61076,-0.096628,0.10768,0.64993,227.01,316.18)" />
          <path
             id="path4297"
             style="fill:#552200;stroke:#000000;stroke-width:5.7614;stroke-linecap:round;stroke-linejoin:round"
             d="m 83.281,351.08 c 0,42.81 -11.193,77.55 -24.985,77.55 -13.791,0 -24.984,-34.74 -24.984,-77.55 0,-42.81 11.193,-77.56 24.984,-77.56 13.792,0 24.985,34.75 24.985,77.56 z"
             inkscape:transform-center-x="-13.858344"
             inkscape:transform-center-y="37.646075"
             transform="matrix(0.97221,0.22208,-0.26397,0.80742,143.83,159.84)" />
          <path
             id="path4299"
             style="fill:#552200;stroke:#000000;stroke-width:5.7614;stroke-linecap:round;stroke-linejoin:round"
             d="m 83.281,351.08 c 0,42.81 -11.193,77.55 -24.985,77.55 -13.791,0 -24.984,-34.74 -24.984,-77.55 0,-42.81 11.193,-77.56 24.984,-77.56 13.792,0 24.985,34.75 24.985,77.56 z"
             inkscape:transform-center-x="-13.543732"
             inkscape:transform-center-y="40.672883"
             transform="matrix(0.96759,0.24212,-0.26898,0.87096,111.24,113.45)" />
          <path
             id="path4301"
             style="fill:#552200;stroke:#000000;stroke-width:5.7614;stroke-linecap:round;stroke-linejoin:round"
             d="m 83.281,351.08 c 0,42.81 -11.193,77.55 -24.985,77.55 -13.791,0 -24.984,-34.74 -24.984,-77.55 0,-42.81 11.193,-77.56 24.984,-77.56 13.792,0 24.985,34.75 24.985,77.56 z"
             inkscape:transform-center-x="-9.8278058"
             inkscape:transform-center-y="45.930705"
             transform="matrix(0.93883,0.34437,-0.34437,0.93883,116.7,54.265)" />
          <path
             id="path4303"
             style="fill:#552200;stroke:#000000;stroke-width:5.7614;stroke-linecap:round;stroke-linejoin:round"
             d="m 83.281,351.08 c 0,42.81 -11.193,77.55 -24.985,77.55 -13.791,0 -24.984,-34.74 -24.984,-77.55 0,-42.81 11.193,-77.56 24.984,-77.56 13.792,0 24.985,34.75 24.985,77.56 z"
             inkscape:transform-center-x="-11.691238"
             inkscape:transform-center-y="45.492078"
             transform="matrix(0.95209,0.30583,-0.30583,0.95209,68.833,44.429)" />
          <path
             id="path4305"
             style="fill:#552200;stroke:#000000;stroke-width:5.7614;stroke-linecap:round;stroke-linejoin:round"
             d="m 83.281,351.08 c 0,42.81 -11.193,77.55 -24.985,77.55 -13.791,0 -24.984,-34.74 -24.984,-77.55 0,-42.81 11.193,-77.56 24.984,-77.56 13.792,0 24.985,34.75 24.985,77.56 z"
             inkscape:transform-center-x="-11.79052"
             inkscape:transform-center-y="49.42424"
             transform="matrix(0.94967,0.32932,-0.30181,1.0362,40.349,-2.138)" />
          <path
             id="path4307"
             style="fill:#552200;stroke:#000000;stroke-width:5.7614;stroke-linecap:round;stroke-linejoin:round"
             d="m 83.281,351.08 c 0,42.81 -11.193,77.55 -24.985,77.55 -13.791,0 -24.984,-34.74 -24.984,-77.55 0,-42.81 11.193,-77.56 24.984,-77.56 13.792,0 24.985,34.75 24.985,77.56 z"
             inkscape:transform-center-x="-9.5520667"
             inkscape:transform-center-y="58.81556"
             transform="matrix(1.0434,0.4727,-0.41719,1.1822,41.785,-68.616)" />
          <path
             id="path4309"
             d="m -150.62,168.94 c 1.35,14.72 -8.04,41.46 -25.19,68.68 -20.87,33.12 -46.04,55.52 -59.13,53.5 0.45,4.87 2.07,8.43 4.97,10.26 11.67,7.35 39.64,-16.1 62.47,-52.32 22.83,-36.22 31.89,-71.55 20.22,-78.9 -1,-0.63 -2.12,-1.03 -3.34,-1.22 z"
             style="opacity:0.6;fill:#d45500;filter:url(#filter3883)"
             transform="matrix(0.57773,-0.22043,0.23931,0.61379,303.22,311.91)" />
          <path
             id="path4311"
             style="fill:#552200;stroke:#000000;stroke-width:5.7614;stroke-linecap:round;stroke-linejoin:round"
             d="m 83.281,351.08 c 0,42.81 -11.193,77.55 -24.985,77.55 -13.791,0 -24.984,-34.74 -24.984,-77.55 0,-42.81 11.193,-77.56 24.984,-77.56 13.792,0 24.985,34.75 24.985,77.56 z"
             inkscape:transform-center-x="-21.741873"
             inkscape:transform-center-y="41.635376"
             transform="matrix(0.99671,0.081024,-0.081024,0.99671,232.94,56.66)" />
          <path
             id="path4313"
             style="opacity:0.6;fill:#d45500;filter:url(#filter3883)"
             transform="matrix(0.57773,-0.22043,0.23931,0.61379,257.41,318.16)"
             d="m -150.62,168.94 c 1.35,14.72 -8.04,41.46 -25.19,68.68 -20.87,33.12 -46.04,55.52 -59.13,53.5 0.45,4.87 2.07,8.43 4.97,10.26 11.67,7.35 39.64,-16.1 62.47,-52.32 22.83,-36.22 31.89,-71.55 20.22,-78.9 -1,-0.63 -2.12,-1.03 -3.34,-1.22 z" />
          <path
             id="path4315"
             style="fill:#552200;stroke:#000000;stroke-width:5.7614;stroke-linecap:round;stroke-linejoin:round"
             d="m 83.281,351.08 c 0,42.81 -11.193,77.55 -24.985,77.55 -13.791,0 -24.984,-34.74 -24.984,-77.55 0,-42.81 11.193,-77.56 24.984,-77.56 13.792,0 24.985,34.75 24.985,77.56 z"
             inkscape:transform-center-x="-14.076952"
             inkscape:transform-center-y="44.811286"
             transform="matrix(0.96691,0.25513,-0.25513,0.96691,271.15,49.814)" />
          <path
             id="path4317"
             style="fill:#552200;stroke:#000000;stroke-width:5.7614;stroke-linecap:round;stroke-linejoin:round"
             d="m 83.281,351.08 c 0,42.81 -11.193,77.55 -24.985,77.55 -13.791,0 -24.984,-34.74 -24.984,-77.55 0,-42.81 11.193,-77.56 24.984,-77.56 13.792,0 24.985,34.75 24.985,77.56 z"
             inkscape:transform-center-x="-8.624071"
             inkscape:transform-center-y="46.171821"
             transform="matrix(0.92951,0.36879,-0.36879,0.92951,282.84,44.458)" />
          <path
             id="path4319"
             style="fill:#552200;stroke:#000000;stroke-width:5.7614;stroke-linecap:round;stroke-linejoin:round"
             d="m 83.281,351.08 c 0,42.81 -11.193,77.55 -24.985,77.55 -13.791,0 -24.984,-34.74 -24.984,-77.55 0,-42.81 11.193,-77.56 24.984,-77.56 13.792,0 24.985,34.75 24.985,77.56 z"
             inkscape:transform-center-x="-3.2624908"
             inkscape:transform-center-y="46.85687"
             transform="matrix(0.88099,0.47313,-0.47313,0.88099,291.99,41.452)" />
          <path
             id="path4321"
             style="fill:#552200;stroke:#000000;stroke-width:5.7614;stroke-linecap:round;stroke-linejoin:round"
             inkscape:transform-center-y="46.970321"
             transform="matrix(0.846,0.53318,-0.53318,0.846,291.3,25.361)"
             d="m 83.281,351.08 c 0,42.81 -11.193,77.55 -24.985,77.55 -13.791,0 -24.984,-34.74 -24.984,-77.55 0,-42.81 11.193,-77.56 24.984,-77.56 13.792,0 24.985,34.75 24.985,77.56 z" />
          <path
             id="path4323"
             style="fill:#552200;stroke:#000000;stroke-width:5.7614;stroke-linecap:round;stroke-linejoin:round"
             inkscape:transform-center-y="46.970321"
             transform="matrix(0.846,0.53318,-0.53318,0.846,269.3,2.6142)"
             d="m 83.281,351.08 c 0,42.81 -11.193,77.55 -24.985,77.55 -13.791,0 -24.984,-34.74 -24.984,-77.55 0,-42.81 11.193,-77.56 24.984,-77.56 13.792,0 24.985,34.75 24.985,77.56 z" />
          <path
             id="path4325"
             style="fill:#552200;stroke:#000000;stroke-width:5.7614;stroke-linecap:round;stroke-linejoin:round"
             inkscape:transform-center-y="46.970321"
             transform="matrix(0.846,0.53318,-0.53318,0.846,248.72,-20.862)"
             d="m 83.281,351.08 c 0,42.81 -11.193,77.55 -24.985,77.55 -13.791,0 -24.984,-34.74 -24.984,-77.55 0,-42.81 11.193,-77.56 24.984,-77.56 13.792,0 24.985,34.75 24.985,77.56 z" />
          <path
             id="path4327"
             style="fill:#552200;stroke:#000000;stroke-width:5.7614;stroke-linecap:round;stroke-linejoin:round"
             inkscape:transform-center-y="46.970321"
             transform="matrix(0.846,0.53318,-0.53318,0.846,231.88,-46.615)"
             d="m 83.281,351.08 c 0,42.81 -11.193,77.55 -24.985,77.55 -13.791,0 -24.984,-34.74 -24.984,-77.55 0,-42.81 11.193,-77.56 24.984,-77.56 13.792,0 24.985,34.75 24.985,77.56 z" />
          <path
             id="path4329"
             style="fill:#552200;stroke:#000000;stroke-width:5.7614;stroke-linecap:round;stroke-linejoin:round"
             inkscape:transform-center-y="46.970321"
             transform="matrix(0.846,0.53318,-0.53318,0.846,207.66,-62.761)"
             d="m 83.281,351.08 c 0,42.81 -11.193,77.55 -24.985,77.55 -13.791,0 -24.984,-34.74 -24.984,-77.55 0,-42.81 11.193,-77.56 24.984,-77.56 13.792,0 24.985,34.75 24.985,77.56 z" />
          <path
             id="path4331"
             style="fill:#552200;stroke:#000000;stroke-width:5.7614;stroke-linecap:round;stroke-linejoin:round"
             inkscape:transform-center-y="46.970321"
             transform="matrix(0.846,0.53318,-0.53318,0.846,187.86,-83.346)"
             d="m 83.281,351.08 c 0,42.81 -11.193,77.55 -24.985,77.55 -13.791,0 -24.984,-34.74 -24.984,-77.55 0,-42.81 11.193,-77.56 24.984,-77.56 13.792,0 24.985,34.75 24.985,77.56 z" />
          <ellipse
             id="path4333"
             style="fill:#552200;stroke:#000000;stroke-width:5.7614;stroke-linecap:round;stroke-linejoin:round"
             inkscape:transform-center-y="46.970321"
             transform="matrix(0.846,0.53318,-0.53318,0.846,158.49,-89.217)"
             cx="58.296497"
             cy="351.07593"
             rx="24.984213"
             ry="77.555161" />
          <g
             id="g4335"
             transform="translate(-1.1743,-5.6364)">
            <path
               id="path4337"
               sodipodi:nodetypes="cssccscc"
               style="fill:#552200;fill-rule:evenodd;stroke:#000000;stroke-width:5.7579"
               d="m 284.77,301.88 c 0,0 -23.48,8.43 -62.54,-11.57 C 167.83,262.44 112.17,124.4 51.96,134.9 -62.09,154.8 -96.71,487.02 -96.71,487.02 c 10e-4,0 72.593,-284.32 157.12,-303.73 49.6,-7.51 109.23,117.25 155.07,137.65 39.64,17.64 61.24,18.75 61.24,18.75 z" />
            <path
               id="path4339"
               style="fill:#2b1100;fill-rule:evenodd;filter:url(#filter3625)"
               sodipodi:type="inkscape:offset"
               d="m 57.947266,148.63086 c -1.107639,0.0272 -2.282603,0.1568 -3.533204,0.375 -21.917157,3.82414 -43.098666,24.2437 -61.3652339,56.39453 -12.1877601,21.45158 -22.6981581,47.6396 -31.7890621,75.0957 8.384829,-17.51511 17.340429,-34.26153 26.863281,-49.23242 19.4914787,-30.64258 41.128261,-55.4794 69.064453,-61.90625 0.336052,-0.0822 0.674517,-0.1533 1.015625,-0.21094 a 4.2260362,4.2260362 0 0 1 0.07031,-0.0117 c 18.525144,-2.8027 35.253015,6.44858 49.947262,18.57421 6.19162,5.1093 12.21743,11.03058 18.16211,17.29102 C 114.30114,189.42025 102.2821,175.08327 90.916016,165.00586 78.247529,153.77372 66.972958,148.40885 57.947266,148.63086 Z M 207.25586,298.0332 c 5.46952,4.75002 10.32884,8.1791 14.02539,9.82422 21.18622,9.42877 35.29612,13.42978 44.32031,15.39258 l 1.16992,-5.45117 c -12.75923,-0.57664 -30.20839,-4.06916 -51.07226,-14.75586 -2.87354,-1.47186 -5.67475,-3.18848 -8.44336,-5.00977 z"
               inkscape:original="M 57.84375 144.40625 C 56.480216 144.43979 55.097249 144.59778 53.6875 144.84375 C 29.766668 149.01749 7.9486912 170.6211 -10.625 203.3125 C -29.198691 236.0039 -44.077439 278.74036 -55.40625 321.03125 C -57.417055 328.53766 -59.175173 335.95823 -60.96875 343.375 C -60.37433 341.83223 -59.853806 340.32696 -59.25 338.78125 C -44.753257 301.67046 -27.596047 263.84694 -8.3125 233.53125 C 10.971047 203.21556 32.101323 179.45211 58.15625 173.46875 C 58.404179 173.40718 58.65436 173.35506 58.90625 173.3125 C 75.686434 170.7738 91.237883 179.17392 105.53125 190.96875 C 119.82462 202.76358 133.60952 218.69099 147.15625 235.25 C 160.70298 251.80901 173.94418 269.03854 186.40625 283.09375 C 198.86832 297.14896 210.84809 307.84047 219.5625 311.71875 C 244.17747 322.67346 259.99164 326.63281 268.84375 328.28125 L 272 313.5625 C 270.59345 313.59661 269.32434 313.71217 267.78125 313.65625 C 255.57453 313.21387 238.396 309.92038 217.625 299.28125 C 186.6539 283.41752 160.97431 243.25888 133.90625 207.78125 C 120.37222 190.04244 106.80334 173.44482 93.71875 161.84375 C 80.634159 150.24268 68.550974 144.14288 57.84375 144.40625 z "
               inkscape:radius="-4.2256136" />
          </g>
          <path
             id="path4341"
             d="m -150.62,168.94 c 1.35,14.72 -8.04,41.46 -25.19,68.68 -20.87,33.12 -46.04,55.52 -59.13,53.5 0.45,4.87 2.07,8.43 4.97,10.26 11.67,7.35 39.64,-16.1 62.47,-52.32 22.83,-36.22 31.89,-71.55 20.22,-78.9 -1,-0.63 -2.12,-1.03 -3.34,-1.22 z"
             style="opacity:0.6;fill:#d45500;filter:url(#filter3883)"
             transform="matrix(0.60984,0.10249,-0.1322,0.78666,162.68,83.173)" />
          <path
             id="path4343"
             style="opacity:0.6;fill:#d45500;filter:url(#filter3883)"
             transform="matrix(0.59874,0.15462,-0.19946,0.77235,204.57,107.83)"
             d="m -150.62,168.94 c 1.35,14.72 -8.04,41.46 -25.19,68.68 -20.87,33.12 -46.04,55.52 -59.13,53.5 0.45,4.87 2.07,8.43 4.97,10.26 11.67,7.35 39.64,-16.1 62.47,-52.32 22.83,-36.22 31.89,-71.55 20.22,-78.9 -1,-0.63 -2.12,-1.03 -3.34,-1.22 z" />
          <path
             id="path4345"
             d="m -150.62,168.94 c 1.35,14.72 -8.04,41.46 -25.19,68.68 -20.87,33.12 -46.04,55.52 -59.13,53.5 0.45,4.87 2.07,8.43 4.97,10.26 11.67,7.35 39.64,-16.1 62.47,-52.32 22.83,-36.22 31.89,-71.55 20.22,-78.9 -1,-0.63 -2.12,-1.03 -3.34,-1.22 z"
             style="opacity:0.6;fill:#d45500;filter:url(#filter3883)"
             transform="matrix(0.59874,0.15462,-0.19946,0.77235,226.43,126.57)" />
          <path
             id="path4347"
             style="opacity:0.6;fill:#d45500;filter:url(#filter3883)"
             transform="matrix(0.59874,0.15462,-0.19946,0.77235,248.3,146.35)"
             d="m -150.62,168.94 c 1.35,14.72 -8.04,41.46 -25.19,68.68 -20.87,33.12 -46.04,55.52 -59.13,53.5 0.45,4.87 2.07,8.43 4.97,10.26 11.67,7.35 39.64,-16.1 62.47,-52.32 22.83,-36.22 31.89,-71.55 20.22,-78.9 -1,-0.63 -2.12,-1.03 -3.34,-1.22 z" />
          <path
             id="path4349"
             d="m -150.62,168.94 c 1.35,14.72 -8.04,41.46 -25.19,68.68 -20.87,33.12 -46.04,55.52 -59.13,53.5 0.45,4.87 2.07,8.43 4.97,10.26 11.67,7.35 39.64,-16.1 62.47,-52.32 22.83,-36.22 31.89,-71.55 20.22,-78.9 -1,-0.63 -2.12,-1.03 -3.34,-1.22 z"
             style="opacity:0.6;fill:#d45500;filter:url(#filter3883)"
             transform="matrix(0.59874,0.15462,-0.19946,0.77235,267.03,170.29)" />
          <path
             id="path4351"
             style="opacity:0.6;fill:#d45500;filter:url(#filter3883)"
             transform="matrix(0.59874,0.15462,-0.19946,0.77235,285.77,194.23)"
             d="m -150.62,168.94 c 1.35,14.72 -8.04,41.46 -25.19,68.68 -20.87,33.12 -46.04,55.52 -59.13,53.5 0.45,4.87 2.07,8.43 4.97,10.26 11.67,7.35 39.64,-16.1 62.47,-52.32 22.83,-36.22 31.89,-71.55 20.22,-78.9 -1,-0.63 -2.12,-1.03 -3.34,-1.22 z" />
          <path
             id="path4353"
             d="m -150.62,168.94 c 1.35,14.72 -8.04,41.46 -25.19,68.68 -20.87,33.12 -46.04,55.52 -59.13,53.5 0.45,4.87 2.07,8.43 4.97,10.26 11.67,7.35 39.64,-16.1 62.47,-52.32 22.83,-36.22 31.89,-71.55 20.22,-78.9 -1,-0.63 -2.12,-1.03 -3.34,-1.22 z"
             style="opacity:0.6;fill:#d45500;filter:url(#filter3883)"
             transform="matrix(0.59874,0.15462,-0.19946,0.77235,307.63,220.26)" />
          <path
             id="path4355"
             style="opacity:0.6;fill:#d45500;filter:url(#filter3883)"
             transform="matrix(0.60892,0.10781,-0.13907,0.78548,321.32,229.16)"
             d="m -150.62,168.94 c 1.35,14.72 -8.04,41.46 -25.19,68.68 -20.87,33.12 -46.04,55.52 -59.13,53.5 0.45,4.87 2.07,8.43 4.97,10.26 11.67,7.35 39.64,-16.1 62.47,-52.32 22.83,-36.22 31.89,-71.55 20.22,-78.9 -1,-0.63 -2.12,-1.03 -3.34,-1.22 z" />
          <path
             id="path4357"
             d="m -150.62,168.94 c 1.35,14.72 -8.04,41.46 -25.19,68.68 -20.87,33.12 -46.04,55.52 -59.13,53.5 0.45,4.87 2.07,8.43 4.97,10.26 11.67,7.35 39.64,-16.1 62.47,-52.32 22.83,-36.22 31.89,-71.55 20.22,-78.9 -1,-0.63 -2.12,-1.03 -3.34,-1.22 z"
             style="opacity:0.6;fill:#d45500;filter:url(#filter3883)"
             transform="matrix(0.61719,0.038392,-0.049524,0.79615,335.06,226.04)" />
          <path
             id="path4359"
             style="opacity:0.6;fill:#d45500;filter:url(#filter3883)"
             transform="matrix(0.61323,-0.07971,0.10282,0.79104,329.61,217.47)"
             d="m -150.62,168.94 c 1.35,14.72 -8.04,41.46 -25.19,68.68 -20.87,33.12 -46.04,55.52 -59.13,53.5 0.45,4.87 2.07,8.43 4.97,10.26 11.67,7.35 39.64,-16.1 62.47,-52.32 22.83,-36.22 31.89,-71.55 20.22,-78.9 -1,-0.63 -2.12,-1.03 -3.34,-1.22 z" />
          <path
             id="path4361"
             d="m -150.62,168.94 c 1.35,14.72 -8.04,41.46 -25.19,68.68 -20.87,33.12 -46.04,55.52 -59.13,53.5 0.45,4.87 2.07,8.43 4.97,10.26 11.67,7.35 39.64,-16.1 62.47,-52.32 22.83,-36.22 31.89,-71.55 20.22,-78.9 -1,-0.63 -2.12,-1.03 -3.34,-1.22 z"
             style="opacity:0.6;fill:#d45500;filter:url(#filter3883)"
             transform="matrix(0.59281,-0.176,0.22703,0.7647,324.59,208.7)" />
          <path
             id="path4363"
             style="opacity:0.6;fill:#d45500;filter:url(#filter3883)"
             transform="matrix(0.57425,0.13961,-0.12449,1.0716,92.725,164.51)"
             d="m -150.62,168.94 c 1.35,14.72 -8.04,41.46 -25.19,68.68 -20.87,33.12 -46.04,55.52 -59.13,53.5 0.45,4.87 2.07,8.43 4.97,10.26 11.67,7.35 39.64,-16.1 62.47,-52.32 22.83,-36.22 31.89,-71.55 20.22,-78.9 -1,-0.63 -2.12,-1.03 -3.34,-1.22 z" />
          <path
             id="path4365"
             style="opacity:0.6;fill:#d45500;filter:url(#filter3883)"
             transform="matrix(0.61828,-0.011683,0.015071,0.79755,101.39,210)"
             d="m -150.62,168.94 c 1.35,14.72 -8.04,41.46 -25.19,68.68 -20.87,33.12 -46.04,55.52 -59.13,53.5 0.45,4.87 2.07,8.43 4.97,10.26 11.67,7.35 39.64,-16.1 62.47,-52.32 22.83,-36.22 31.89,-71.55 20.22,-78.9 -1,-0.63 -2.12,-1.03 -3.34,-1.22 z" />
          <path
             id="path4367"
             d="m -150.62,168.94 c 1.35,14.72 -8.04,41.46 -25.19,68.68 -20.87,33.12 -46.04,55.52 -59.13,53.5 0.45,4.87 2.07,8.43 4.97,10.26 11.67,7.35 39.64,-16.1 62.47,-52.32 22.83,-36.22 31.89,-71.55 20.22,-78.9 -1,-0.63 -2.12,-1.03 -3.34,-1.22 z"
             style="opacity:0.6;fill:#d45500;filter:url(#filter3883)"
             transform="matrix(0.61828,-0.011683,0.015071,0.79755,129.5,219.37)" />
          <path
             id="path4369"
             style="opacity:0.6;fill:#d45500;filter:url(#filter3883)"
             transform="matrix(0.61828,-0.011683,0.015071,0.79755,157.61,231.86)"
             d="m -150.62,168.94 c 1.35,14.72 -8.04,41.46 -25.19,68.68 -20.87,33.12 -46.04,55.52 -59.13,53.5 0.45,4.87 2.07,8.43 4.97,10.26 11.67,7.35 39.64,-16.1 62.47,-52.32 22.83,-36.22 31.89,-71.55 20.22,-78.9 -1,-0.63 -2.12,-1.03 -3.34,-1.22 z" />
          <path
             id="path4371"
             d="m -150.62,168.94 c 1.35,14.72 -8.04,41.46 -25.19,68.68 -20.87,33.12 -46.04,55.52 -59.13,53.5 0.45,4.87 2.07,8.43 4.97,10.26 11.67,7.35 39.64,-16.1 62.47,-52.32 22.83,-36.22 31.89,-71.55 20.22,-78.9 -1,-0.63 -2.12,-1.03 -3.34,-1.22 z"
             style="opacity:0.6;fill:#d45500;filter:url(#filter3883)"
             transform="matrix(0.6165,-0.047844,0.05575,0.65643,174.75,286.43)" />
          <path
             id="path4373"
             style="opacity:0.6;fill:#d45500;filter:url(#filter3883)"
             transform="matrix(0.6165,-0.047844,0.05575,0.65643,208.06,304.12)"
             d="m -150.62,168.94 c 1.35,14.72 -8.04,41.46 -25.19,68.68 -20.87,33.12 -46.04,55.52 -59.13,53.5 0.45,4.87 2.07,8.43 4.97,10.26 11.67,7.35 39.64,-16.1 62.47,-52.32 22.83,-36.22 31.89,-71.55 20.22,-78.9 -1,-0.63 -2.12,-1.03 -3.34,-1.22 z" />
        </g>
        <g
           id="g3937"
           transform="translate(137.54,-53.952)">
          <path
             id="path3427"
             style="fill:#552200;stroke:#000000;stroke-width:5.7614;stroke-linecap:round;stroke-linejoin:round"
             d="m 83.281,351.08 c 0,42.81 -11.193,77.55 -24.985,77.55 -13.791,0 -24.984,-34.74 -24.984,-77.55 0,-42.81 11.193,-77.56 24.984,-77.56 13.792,0 24.985,34.75 24.985,77.56 z"
             inkscape:transform-center-x="-25.570437"
             inkscape:transform-center-y="39.400061"
             transform="matrix(0.99991,-0.013307,0.013307,0.99991,183.85,127.92)" />
          <path
             id="path3631"
             style="fill:#552200;stroke:#000000;stroke-width:5.7614;stroke-linecap:round;stroke-linejoin:round"
             d="m 83.281,351.08 c 0,42.81 -11.193,77.55 -24.985,77.55 -13.791,0 -24.984,-34.74 -24.984,-77.55 0,-42.81 11.193,-77.56 24.984,-77.56 13.792,0 24.985,34.75 24.985,77.56 z"
             inkscape:transform-center-x="-23.140921"
             inkscape:transform-center-y="40.874315"
             transform="matrix(0.99889,0.047187,-0.047187,0.99889,164.55,130.63)" />
          <path
             id="path3425"
             style="fill:#552200;stroke:#000000;stroke-width:5.7614;stroke-linecap:round;stroke-linejoin:round"
             d="m 83.281,351.08 c 0,42.81 -11.193,77.55 -24.985,77.55 -13.791,0 -24.984,-34.74 -24.984,-77.55 0,-42.81 11.193,-77.56 24.984,-77.56 13.792,0 24.985,34.75 24.985,77.56 z"
             inkscape:transform-center-x="-20.979222"
             inkscape:transform-center-y="42.024821"
             transform="matrix(0.99507,0.099182,-0.099182,0.99507,150.86,118.59)" />
          <path
             id="path3931"
             d="m -150.62,168.94 c 1.35,14.72 -8.04,41.46 -25.19,68.68 -20.87,33.12 -46.04,55.52 -59.13,53.5 0.45,4.87 2.07,8.43 4.97,10.26 11.67,7.35 39.64,-16.1 62.47,-52.32 22.83,-36.22 31.89,-71.55 20.22,-78.9 -1,-0.63 -2.12,-1.03 -3.34,-1.22 z"
             style="opacity:0.6;fill:#d45500;filter:url(#filter3883)"
             transform="matrix(0.60145,-0.14357,0.15762,0.63966,247.83,322.28)" />
          <path
             id="path3423"
             style="fill:#552200;stroke:#000000;stroke-width:5.7614;stroke-linecap:round;stroke-linejoin:round"
             d="m 83.281,351.08 c 0,42.81 -11.193,77.55 -24.985,77.55 -13.791,0 -24.984,-34.74 -24.984,-77.55 0,-42.81 11.193,-77.56 24.984,-77.56 13.792,0 24.985,34.75 24.985,77.56 z"
             inkscape:transform-center-x="-17.338836"
             inkscape:transform-center-y="43.652935"
             transform="rotate(10.557956,-510.40308,848.72086)" />
          <path
             id="path3929"
             style="opacity:0.6;fill:#d45500;filter:url(#filter3883)"
             transform="matrix(0.61076,-0.096628,0.10768,0.64993,227.01,316.18)"
             d="m -150.62,168.94 c 1.35,14.72 -8.04,41.46 -25.19,68.68 -20.87,33.12 -46.04,55.52 -59.13,53.5 0.45,4.87 2.07,8.43 4.97,10.26 11.67,7.35 39.64,-16.1 62.47,-52.32 22.83,-36.22 31.89,-71.55 20.22,-78.9 -1,-0.63 -2.12,-1.03 -3.34,-1.22 z" />
          <path
             id="path3421"
             style="fill:#552200;stroke:#000000;stroke-width:5.7614;stroke-linecap:round;stroke-linejoin:round"
             d="m 83.281,351.08 c 0,42.81 -11.193,77.55 -24.985,77.55 -13.791,0 -24.984,-34.74 -24.984,-77.55 0,-42.81 11.193,-77.56 24.984,-77.56 13.792,0 24.985,34.75 24.985,77.56 z"
             inkscape:transform-center-x="-13.858344"
             inkscape:transform-center-y="37.646075"
             transform="matrix(0.97221,0.22208,-0.26397,0.80742,143.83,159.84)" />
          <path
             id="path3417"
             style="fill:#552200;stroke:#000000;stroke-width:5.7614;stroke-linecap:round;stroke-linejoin:round"
             d="m 83.281,351.08 c 0,42.81 -11.193,77.55 -24.985,77.55 -13.791,0 -24.984,-34.74 -24.984,-77.55 0,-42.81 11.193,-77.56 24.984,-77.56 13.792,0 24.985,34.75 24.985,77.56 z"
             inkscape:transform-center-x="-13.543732"
             inkscape:transform-center-y="40.672883"
             transform="matrix(0.96759,0.24212,-0.26898,0.87096,111.24,113.45)" />
          <path
             id="path3419"
             style="fill:#552200;stroke:#000000;stroke-width:5.7614;stroke-linecap:round;stroke-linejoin:round"
             d="m 83.281,351.08 c 0,42.81 -11.193,77.55 -24.985,77.55 -13.791,0 -24.984,-34.74 -24.984,-77.55 0,-42.81 11.193,-77.56 24.984,-77.56 13.792,0 24.985,34.75 24.985,77.56 z"
             inkscape:transform-center-x="-9.8278058"
             inkscape:transform-center-y="45.930705"
             transform="matrix(0.93883,0.34437,-0.34437,0.93883,116.7,54.265)" />
          <path
             id="path3413"
             style="fill:#552200;stroke:#000000;stroke-width:5.7614;stroke-linecap:round;stroke-linejoin:round"
             d="m 83.281,351.08 c 0,42.81 -11.193,77.55 -24.985,77.55 -13.791,0 -24.984,-34.74 -24.984,-77.55 0,-42.81 11.193,-77.56 24.984,-77.56 13.792,0 24.985,34.75 24.985,77.56 z"
             inkscape:transform-center-x="-11.691238"
             inkscape:transform-center-y="45.492078"
             transform="matrix(0.95209,0.30583,-0.30583,0.95209,68.833,44.429)" />
          <path
             id="path3411"
             style="fill:#552200;stroke:#000000;stroke-width:5.7614;stroke-linecap:round;stroke-linejoin:round"
             d="m 83.281,351.08 c 0,42.81 -11.193,77.55 -24.985,77.55 -13.791,0 -24.984,-34.74 -24.984,-77.55 0,-42.81 11.193,-77.56 24.984,-77.56 13.792,0 24.985,34.75 24.985,77.56 z"
             inkscape:transform-center-x="-11.79052"
             inkscape:transform-center-y="49.42424"
             transform="matrix(0.94967,0.32932,-0.30181,1.0362,40.349,-2.138)" />
          <path
             id="path3409"
             style="fill:#552200;stroke:#000000;stroke-width:5.7614;stroke-linecap:round;stroke-linejoin:round"
             d="m 83.281,351.08 c 0,42.81 -11.193,77.55 -24.985,77.55 -13.791,0 -24.984,-34.74 -24.984,-77.55 0,-42.81 11.193,-77.56 24.984,-77.56 13.792,0 24.985,34.75 24.985,77.56 z"
             inkscape:transform-center-x="-9.5520667"
             inkscape:transform-center-y="58.81556"
             transform="matrix(1.0434,0.4727,-0.41719,1.1822,41.785,-68.616)" />
          <path
             id="path3935"
             style="opacity:0.6;fill:#d45500;filter:url(#filter3883)"
             transform="matrix(0.57773,-0.22043,0.23931,0.61379,303.22,311.91)"
             d="m -150.62,168.94 c 1.35,14.72 -8.04,41.46 -25.19,68.68 -20.87,33.12 -46.04,55.52 -59.13,53.5 0.45,4.87 2.07,8.43 4.97,10.26 11.67,7.35 39.64,-16.1 62.47,-52.32 22.83,-36.22 31.89,-71.55 20.22,-78.9 -1,-0.63 -2.12,-1.03 -3.34,-1.22 z" />
          <path
             id="path3407"
             style="fill:#552200;stroke:#000000;stroke-width:5.7614;stroke-linecap:round;stroke-linejoin:round"
             d="m 83.281,351.08 c 0,42.81 -11.193,77.55 -24.985,77.55 -13.791,0 -24.984,-34.74 -24.984,-77.55 0,-42.81 11.193,-77.56 24.984,-77.56 13.792,0 24.985,34.75 24.985,77.56 z"
             inkscape:transform-center-x="-21.741873"
             inkscape:transform-center-y="41.635376"
             transform="matrix(0.99671,0.081024,-0.081024,0.99671,232.94,56.66)" />
          <path
             id="path3933"
             d="m -150.62,168.94 c 1.35,14.72 -8.04,41.46 -25.19,68.68 -20.87,33.12 -46.04,55.52 -59.13,53.5 0.45,4.87 2.07,8.43 4.97,10.26 11.67,7.35 39.64,-16.1 62.47,-52.32 22.83,-36.22 31.89,-71.55 20.22,-78.9 -1,-0.63 -2.12,-1.03 -3.34,-1.22 z"
             style="opacity:0.6;fill:#d45500;filter:url(#filter3883)"
             transform="matrix(0.57773,-0.22043,0.23931,0.61379,257.41,318.16)" />
          <path
             id="path3357"
             style="fill:#552200;stroke:#000000;stroke-width:5.7614;stroke-linecap:round;stroke-linejoin:round"
             d="m 83.281,351.08 c 0,42.81 -11.193,77.55 -24.985,77.55 -13.791,0 -24.984,-34.74 -24.984,-77.55 0,-42.81 11.193,-77.56 24.984,-77.56 13.792,0 24.985,34.75 24.985,77.56 z"
             inkscape:transform-center-x="-14.076952"
             inkscape:transform-center-y="44.811286"
             transform="matrix(0.96691,0.25513,-0.25513,0.96691,271.15,49.814)" />
          <path
             id="path3355"
             style="fill:#552200;stroke:#000000;stroke-width:5.7614;stroke-linecap:round;stroke-linejoin:round"
             d="m 83.281,351.08 c 0,42.81 -11.193,77.55 -24.985,77.55 -13.791,0 -24.984,-34.74 -24.984,-77.55 0,-42.81 11.193,-77.56 24.984,-77.56 13.792,0 24.985,34.75 24.985,77.56 z"
             inkscape:transform-center-x="-8.624071"
             inkscape:transform-center-y="46.171821"
             transform="matrix(0.92951,0.36879,-0.36879,0.92951,282.84,44.458)" />
          <path
             id="path3353"
             style="fill:#552200;stroke:#000000;stroke-width:5.7614;stroke-linecap:round;stroke-linejoin:round"
             d="m 83.281,351.08 c 0,42.81 -11.193,77.55 -24.985,77.55 -13.791,0 -24.984,-34.74 -24.984,-77.55 0,-42.81 11.193,-77.56 24.984,-77.56 13.792,0 24.985,34.75 24.985,77.56 z"
             inkscape:transform-center-x="-3.2624908"
             inkscape:transform-center-y="46.85687"
             transform="matrix(0.88099,0.47313,-0.47313,0.88099,291.99,41.452)" />
          <path
             id="path3351"
             style="fill:#552200;stroke:#000000;stroke-width:5.7614;stroke-linecap:round;stroke-linejoin:round"
             inkscape:transform-center-y="46.970321"
             transform="matrix(0.846,0.53318,-0.53318,0.846,291.3,25.361)"
             d="m 83.281,351.08 c 0,42.81 -11.193,77.55 -24.985,77.55 -13.791,0 -24.984,-34.74 -24.984,-77.55 0,-42.81 11.193,-77.56 24.984,-77.56 13.792,0 24.985,34.75 24.985,77.56 z" />
          <path
             id="path3349"
             style="fill:#552200;stroke:#000000;stroke-width:5.7614;stroke-linecap:round;stroke-linejoin:round"
             inkscape:transform-center-y="46.970321"
             transform="matrix(0.846,0.53318,-0.53318,0.846,269.3,2.6142)"
             d="m 83.281,351.08 c 0,42.81 -11.193,77.55 -24.985,77.55 -13.791,0 -24.984,-34.74 -24.984,-77.55 0,-42.81 11.193,-77.56 24.984,-77.56 13.792,0 24.985,34.75 24.985,77.56 z" />
          <path
             id="path3347"
             style="fill:#552200;stroke:#000000;stroke-width:5.7614;stroke-linecap:round;stroke-linejoin:round"
             inkscape:transform-center-y="46.970321"
             transform="matrix(0.846,0.53318,-0.53318,0.846,248.72,-20.862)"
             d="m 83.281,351.08 c 0,42.81 -11.193,77.55 -24.985,77.55 -13.791,0 -24.984,-34.74 -24.984,-77.55 0,-42.81 11.193,-77.56 24.984,-77.56 13.792,0 24.985,34.75 24.985,77.56 z" />
          <path
             id="path3345"
             style="fill:#552200;stroke:#000000;stroke-width:5.7614;stroke-linecap:round;stroke-linejoin:round"
             inkscape:transform-center-y="46.970321"
             transform="matrix(0.846,0.53318,-0.53318,0.846,231.88,-46.615)"
             d="m 83.281,351.08 c 0,42.81 -11.193,77.55 -24.985,77.55 -13.791,0 -24.984,-34.74 -24.984,-77.55 0,-42.81 11.193,-77.56 24.984,-77.56 13.792,0 24.985,34.75 24.985,77.56 z" />
          <path
             id="path3343"
             style="fill:#552200;stroke:#000000;stroke-width:5.7614;stroke-linecap:round;stroke-linejoin:round"
             inkscape:transform-center-y="46.970321"
             transform="matrix(0.846,0.53318,-0.53318,0.846,207.66,-62.761)"
             d="m 83.281,351.08 c 0,42.81 -11.193,77.55 -24.985,77.55 -13.791,0 -24.984,-34.74 -24.984,-77.55 0,-42.81 11.193,-77.56 24.984,-77.56 13.792,0 24.985,34.75 24.985,77.56 z" />
          <path
             id="path3341"
             style="fill:#552200;stroke:#000000;stroke-width:5.7614;stroke-linecap:round;stroke-linejoin:round"
             inkscape:transform-center-y="46.970321"
             transform="matrix(0.846,0.53318,-0.53318,0.846,187.86,-83.346)"
             d="m 83.281,351.08 c 0,42.81 -11.193,77.55 -24.985,77.55 -13.791,0 -24.984,-34.74 -24.984,-77.55 0,-42.81 11.193,-77.56 24.984,-77.56 13.792,0 24.985,34.75 24.985,77.56 z" />
          <ellipse
             id="path3245"
             style="fill:#552200;stroke:#000000;stroke-width:5.7614;stroke-linecap:round;stroke-linejoin:round"
             inkscape:transform-center-y="46.970321"
             transform="matrix(0.846,0.53318,-0.53318,0.846,158.49,-89.217)"
             cx="58.296497"
             cy="351.07593"
             rx="24.984213"
             ry="77.555161" />
          <g
             id="g3633"
             transform="translate(-1.1743,-5.6364)">
            <path
               id="path2436"
               sodipodi:nodetypes="cssccscc"
               style="fill:#552200;fill-rule:evenodd;stroke:#000000;stroke-width:5.7579"
               d="m 284.77,301.88 c 0,0 -23.48,8.43 -62.54,-11.57 C 167.83,262.44 112.17,124.4 51.96,134.9 -62.09,154.8 -96.71,487.02 -96.71,487.02 c 10e-4,0 72.593,-284.32 157.12,-303.73 49.6,-7.51 109.23,117.25 155.07,137.65 39.64,17.64 61.24,18.75 61.24,18.75 z" />
            <path
               id="path3629"
               style="fill:#2b1100;fill-rule:evenodd;filter:url(#filter3625)"
               sodipodi:type="inkscape:offset"
               d="m 57.947266,148.63086 c -1.107639,0.0272 -2.282603,0.1568 -3.533204,0.375 -21.917157,3.82414 -43.098666,24.2437 -61.3652339,56.39453 -12.1877601,21.45158 -22.6981581,47.6396 -31.7890621,75.0957 8.384829,-17.51511 17.340429,-34.26153 26.863281,-49.23242 19.4914787,-30.64258 41.128261,-55.4794 69.064453,-61.90625 0.336052,-0.0822 0.674517,-0.1533 1.015625,-0.21094 a 4.2260362,4.2260362 0 0 1 0.07031,-0.0117 c 18.525144,-2.8027 35.253015,6.44858 49.947262,18.57421 6.19162,5.1093 12.21743,11.03058 18.16211,17.29102 C 114.30114,189.42025 102.2821,175.08327 90.916016,165.00586 78.247529,153.77372 66.972958,148.40885 57.947266,148.63086 Z M 207.25586,298.0332 c 5.46952,4.75002 10.32884,8.1791 14.02539,9.82422 21.18622,9.42877 35.29612,13.42978 44.32031,15.39258 l 1.16992,-5.45117 c -12.75923,-0.57664 -30.20839,-4.06916 -51.07226,-14.75586 -2.87354,-1.47186 -5.67475,-3.18848 -8.44336,-5.00977 z"
               inkscape:original="M 57.84375 144.40625 C 56.480216 144.43979 55.097249 144.59778 53.6875 144.84375 C 29.766668 149.01749 7.9486912 170.6211 -10.625 203.3125 C -29.198691 236.0039 -44.077439 278.74036 -55.40625 321.03125 C -57.417055 328.53766 -59.175173 335.95823 -60.96875 343.375 C -60.37433 341.83223 -59.853806 340.32696 -59.25 338.78125 C -44.753257 301.67046 -27.596047 263.84694 -8.3125 233.53125 C 10.971047 203.21556 32.101323 179.45211 58.15625 173.46875 C 58.404179 173.40718 58.65436 173.35506 58.90625 173.3125 C 75.686434 170.7738 91.237883 179.17392 105.53125 190.96875 C 119.82462 202.76358 133.60952 218.69099 147.15625 235.25 C 160.70298 251.80901 173.94418 269.03854 186.40625 283.09375 C 198.86832 297.14896 210.84809 307.84047 219.5625 311.71875 C 244.17747 322.67346 259.99164 326.63281 268.84375 328.28125 L 272 313.5625 C 270.59345 313.59661 269.32434 313.71217 267.78125 313.65625 C 255.57453 313.21387 238.396 309.92038 217.625 299.28125 C 186.6539 283.41752 160.97431 243.25888 133.90625 207.78125 C 120.37222 190.04244 106.80334 173.44482 93.71875 161.84375 C 80.634159 150.24268 68.550974 144.14288 57.84375 144.40625 z "
               inkscape:radius="-4.2256136" />
          </g>
          <path
             id="path3878"
             style="opacity:0.6;fill:#d45500;filter:url(#filter3883)"
             transform="matrix(0.60984,0.10249,-0.1322,0.78666,162.68,83.173)"
             d="m -150.62,168.94 c 1.35,14.72 -8.04,41.46 -25.19,68.68 -20.87,33.12 -46.04,55.52 -59.13,53.5 0.45,4.87 2.07,8.43 4.97,10.26 11.67,7.35 39.64,-16.1 62.47,-52.32 22.83,-36.22 31.89,-71.55 20.22,-78.9 -1,-0.63 -2.12,-1.03 -3.34,-1.22 z" />
          <path
             id="path3897"
             d="m -150.62,168.94 c 1.35,14.72 -8.04,41.46 -25.19,68.68 -20.87,33.12 -46.04,55.52 -59.13,53.5 0.45,4.87 2.07,8.43 4.97,10.26 11.67,7.35 39.64,-16.1 62.47,-52.32 22.83,-36.22 31.89,-71.55 20.22,-78.9 -1,-0.63 -2.12,-1.03 -3.34,-1.22 z"
             style="opacity:0.6;fill:#d45500;filter:url(#filter3883)"
             transform="matrix(0.59874,0.15462,-0.19946,0.77235,204.57,107.83)" />
          <path
             id="path3899"
             style="opacity:0.6;fill:#d45500;filter:url(#filter3883)"
             transform="matrix(0.59874,0.15462,-0.19946,0.77235,226.43,126.57)"
             d="m -150.62,168.94 c 1.35,14.72 -8.04,41.46 -25.19,68.68 -20.87,33.12 -46.04,55.52 -59.13,53.5 0.45,4.87 2.07,8.43 4.97,10.26 11.67,7.35 39.64,-16.1 62.47,-52.32 22.83,-36.22 31.89,-71.55 20.22,-78.9 -1,-0.63 -2.12,-1.03 -3.34,-1.22 z" />
          <path
             id="path3901"
             d="m -150.62,168.94 c 1.35,14.72 -8.04,41.46 -25.19,68.68 -20.87,33.12 -46.04,55.52 -59.13,53.5 0.45,4.87 2.07,8.43 4.97,10.26 11.67,7.35 39.64,-16.1 62.47,-52.32 22.83,-36.22 31.89,-71.55 20.22,-78.9 -1,-0.63 -2.12,-1.03 -3.34,-1.22 z"
             style="opacity:0.6;fill:#d45500;filter:url(#filter3883)"
             transform="matrix(0.59874,0.15462,-0.19946,0.77235,248.3,146.35)" />
          <path
             id="path3903"
             style="opacity:0.6;fill:#d45500;filter:url(#filter3883)"
             transform="matrix(0.59874,0.15462,-0.19946,0.77235,267.03,170.29)"
             d="m -150.62,168.94 c 1.35,14.72 -8.04,41.46 -25.19,68.68 -20.87,33.12 -46.04,55.52 -59.13,53.5 0.45,4.87 2.07,8.43 4.97,10.26 11.67,7.35 39.64,-16.1 62.47,-52.32 22.83,-36.22 31.89,-71.55 20.22,-78.9 -1,-0.63 -2.12,-1.03 -3.34,-1.22 z" />
          <path
             id="path3905"
             d="m -150.62,168.94 c 1.35,14.72 -8.04,41.46 -25.19,68.68 -20.87,33.12 -46.04,55.52 -59.13,53.5 0.45,4.87 2.07,8.43 4.97,10.26 11.67,7.35 39.64,-16.1 62.47,-52.32 22.83,-36.22 31.89,-71.55 20.22,-78.9 -1,-0.63 -2.12,-1.03 -3.34,-1.22 z"
             style="opacity:0.6;fill:#d45500;filter:url(#filter3883)"
             transform="matrix(0.59874,0.15462,-0.19946,0.77235,285.77,194.23)" />
          <path
             id="path3907"
             style="opacity:0.6;fill:#d45500;filter:url(#filter3883)"
             transform="matrix(0.59874,0.15462,-0.19946,0.77235,307.63,220.26)"
             d="m -150.62,168.94 c 1.35,14.72 -8.04,41.46 -25.19,68.68 -20.87,33.12 -46.04,55.52 -59.13,53.5 0.45,4.87 2.07,8.43 4.97,10.26 11.67,7.35 39.64,-16.1 62.47,-52.32 22.83,-36.22 31.89,-71.55 20.22,-78.9 -1,-0.63 -2.12,-1.03 -3.34,-1.22 z" />
          <path
             id="path3909"
             d="m -150.62,168.94 c 1.35,14.72 -8.04,41.46 -25.19,68.68 -20.87,33.12 -46.04,55.52 -59.13,53.5 0.45,4.87 2.07,8.43 4.97,10.26 11.67,7.35 39.64,-16.1 62.47,-52.32 22.83,-36.22 31.89,-71.55 20.22,-78.9 -1,-0.63 -2.12,-1.03 -3.34,-1.22 z"
             style="opacity:0.6;fill:#d45500;filter:url(#filter3883)"
             transform="matrix(0.60892,0.10781,-0.13907,0.78548,321.32,229.16)" />
          <path
             id="path3911"
             style="opacity:0.6;fill:#d45500;filter:url(#filter3883)"
             transform="matrix(0.61719,0.038392,-0.049524,0.79615,335.06,226.04)"
             d="m -150.62,168.94 c 1.35,14.72 -8.04,41.46 -25.19,68.68 -20.87,33.12 -46.04,55.52 -59.13,53.5 0.45,4.87 2.07,8.43 4.97,10.26 11.67,7.35 39.64,-16.1 62.47,-52.32 22.83,-36.22 31.89,-71.55 20.22,-78.9 -1,-0.63 -2.12,-1.03 -3.34,-1.22 z" />
          <path
             id="path3913"
             d="m -150.62,168.94 c 1.35,14.72 -8.04,41.46 -25.19,68.68 -20.87,33.12 -46.04,55.52 -59.13,53.5 0.45,4.87 2.07,8.43 4.97,10.26 11.67,7.35 39.64,-16.1 62.47,-52.32 22.83,-36.22 31.89,-71.55 20.22,-78.9 -1,-0.63 -2.12,-1.03 -3.34,-1.22 z"
             style="opacity:0.6;fill:#d45500;filter:url(#filter3883)"
             transform="matrix(0.61323,-0.07971,0.10282,0.79104,329.61,217.47)" />
          <path
             id="path3915"
             style="opacity:0.6;fill:#d45500;filter:url(#filter3883)"
             transform="matrix(0.59281,-0.176,0.22703,0.7647,324.59,208.7)"
             d="m -150.62,168.94 c 1.35,14.72 -8.04,41.46 -25.19,68.68 -20.87,33.12 -46.04,55.52 -59.13,53.5 0.45,4.87 2.07,8.43 4.97,10.26 11.67,7.35 39.64,-16.1 62.47,-52.32 22.83,-36.22 31.89,-71.55 20.22,-78.9 -1,-0.63 -2.12,-1.03 -3.34,-1.22 z" />
          <path
             id="path3917"
             d="m -150.62,168.94 c 1.35,14.72 -8.04,41.46 -25.19,68.68 -20.87,33.12 -46.04,55.52 -59.13,53.5 0.45,4.87 2.07,8.43 4.97,10.26 11.67,7.35 39.64,-16.1 62.47,-52.32 22.83,-36.22 31.89,-71.55 20.22,-78.9 -1,-0.63 -2.12,-1.03 -3.34,-1.22 z"
             style="opacity:0.6;fill:#d45500;filter:url(#filter3883)"
             transform="matrix(0.57425,0.13961,-0.12449,1.0716,92.725,164.51)" />
          <path
             id="path3919"
             d="m -150.62,168.94 c 1.35,14.72 -8.04,41.46 -25.19,68.68 -20.87,33.12 -46.04,55.52 -59.13,53.5 0.45,4.87 2.07,8.43 4.97,10.26 11.67,7.35 39.64,-16.1 62.47,-52.32 22.83,-36.22 31.89,-71.55 20.22,-78.9 -1,-0.63 -2.12,-1.03 -3.34,-1.22 z"
             style="opacity:0.6;fill:#d45500;filter:url(#filter3883)"
             transform="matrix(0.61828,-0.011683,0.015071,0.79755,101.39,210)" />
          <path
             id="path3921"
             style="opacity:0.6;fill:#d45500;filter:url(#filter3883)"
             transform="matrix(0.61828,-0.011683,0.015071,0.79755,129.5,219.37)"
             d="m -150.62,168.94 c 1.35,14.72 -8.04,41.46 -25.19,68.68 -20.87,33.12 -46.04,55.52 -59.13,53.5 0.45,4.87 2.07,8.43 4.97,10.26 11.67,7.35 39.64,-16.1 62.47,-52.32 22.83,-36.22 31.89,-71.55 20.22,-78.9 -1,-0.63 -2.12,-1.03 -3.34,-1.22 z" />
          <path
             id="path3923"
             d="m -150.62,168.94 c 1.35,14.72 -8.04,41.46 -25.19,68.68 -20.87,33.12 -46.04,55.52 -59.13,53.5 0.45,4.87 2.07,8.43 4.97,10.26 11.67,7.35 39.64,-16.1 62.47,-52.32 22.83,-36.22 31.89,-71.55 20.22,-78.9 -1,-0.63 -2.12,-1.03 -3.34,-1.22 z"
             style="opacity:0.6;fill:#d45500;filter:url(#filter3883)"
             transform="matrix(0.61828,-0.011683,0.015071,0.79755,157.61,231.86)" />
          <path
             id="path3925"
             style="opacity:0.6;fill:#d45500;filter:url(#filter3883)"
             transform="matrix(0.6165,-0.047844,0.05575,0.65643,174.75,286.43)"
             d="m -150.62,168.94 c 1.35,14.72 -8.04,41.46 -25.19,68.68 -20.87,33.12 -46.04,55.52 -59.13,53.5 0.45,4.87 2.07,8.43 4.97,10.26 11.67,7.35 39.64,-16.1 62.47,-52.32 22.83,-36.22 31.89,-71.55 20.22,-78.9 -1,-0.63 -2.12,-1.03 -3.34,-1.22 z" />
          <path
             id="path3927"
             d="m -150.62,168.94 c 1.35,14.72 -8.04,41.46 -25.19,68.68 -20.87,33.12 -46.04,55.52 -59.13,53.5 0.45,4.87 2.07,8.43 4.97,10.26 11.67,7.35 39.64,-16.1 62.47,-52.32 22.83,-36.22 31.89,-71.55 20.22,-78.9 -1,-0.63 -2.12,-1.03 -3.34,-1.22 z"
             style="opacity:0.6;fill:#d45500;filter:url(#filter3883)"
             transform="matrix(0.6165,-0.047844,0.05575,0.65643,208.06,304.12)" />
        </g>
      </g>
      <g
         id="g5439">
        <path
           id="rect5116"
           sodipodi:nodetypes="cccscccscccscccscccscccscccscccscccscccc"
           style="fill:#ffff00;stroke:#000000;stroke-width:2.1272;stroke-linecap:round;stroke-linejoin:round"
           d="m 404.25,551.28 -68.69,33.63 -42.02,-13.98 c -3.37,-4.27 -9.43,-7.8 -16.9,-9.34 -7.47,-1.53 -14.73,-0.71 -20.02,1.78 l -0.25,-0.07 -0.05,0.19 c -3.8,1.86 -6.54,4.6 -7.5,8 -0.96,3.39 0.01,6.91 2.39,10.03 l -0.05,0.19 0.21,0.04 c 3.37,4.29 9.42,7.83 16.9,9.37 7.49,1.54 14.79,0.73 20.08,-1.78 l 26.07,3.89 -19.63,7.02 c -5.8,-1.46 -13.09,-0.92 -20,1.95 -6.91,2.87 -11.92,7.43 -14.13,12.23 l -0.21,0.09 0.08,0.16 c -1.53,3.49 -1.58,7.08 0.22,10.22 1.79,3.14 5.17,5.33 9.34,6.45 l 0.11,0.17 0.19,-0.1 c 5.8,1.48 13.13,0.94 20.05,-1.94 6.92,-2.87 11.93,-7.45 14.13,-12.25 l 22.6,-15.09 -7.68,20.77 c -5.48,2.2 -10.5,6.78 -13.4,12.84 -2.9,6.06 -3.06,12.28 -0.95,17.11 l -0.08,0.18 0.19,0.07 c 1.59,3.47 4.38,6.2 8.18,7.52 3.79,1.32 8.02,1.02 12.01,-0.51 l 0.19,0.07 0.08,-0.16 c 5.48,-2.2 10.51,-6.77 13.42,-12.84 2.9,-6.07 3.07,-12.32 0.95,-17.15 l 7.23,-32.37 68.42,-25.51 z" />
        <path
           id="path5299"
           sodipodi:nodetypes="cccc"
           style="fill:#ffffff;stroke:#000000;stroke-width:1.6999;stroke-linecap:round;stroke-linejoin:round"
           d="m 260.6,581.9 c -3.82,-5.31 -4.14,-10.58 2.33,-15.78 L 287.04,579 Z" />
        <path
           id="path5301"
           sodipodi:nodetypes="cccc"
           style="fill:#ffffff;stroke:#000000;stroke-width:1.6759;stroke-linecap:round;stroke-linejoin:round"
           d="m 276.45,626.55 c -6.24,-1.88 -9.69,-5.8 -7.73,-13.65 l 26.87,-4.17 z" />
        <path
           id="path5303"
           sodipodi:nodetypes="cccc"
           style="fill:#ffffff;stroke:#000000;stroke-width:1.6325;stroke-linecap:round;stroke-linejoin:round"
           d="m 322.1,653.92 c -5.5,1.99 -9.99,0.52 -12.51,-7.65 l 17.51,-19.55 z" />
        <path
           id="path5402"
           style="fill:#808000;filter:url(#filter5435)"
           d="m 400.84,549.41 -0.12,0.06 9.43,17.69 -66.35,25.5 -7.03,32.37 c 2.06,4.83 1.91,11.09 -0.91,17.16 -2.82,6.07 -7.71,10.65 -13.03,12.84 l -0.06,0.16 -0.18,-0.09 c -3.87,1.53 -7.99,1.85 -11.67,0.53 -2.58,-0.92 -4.66,-2.55 -6.21,-4.63 l -0.07,0.16 0.19,0.06 c 1.54,3.47 4.25,6.22 7.94,7.53 3.68,1.32 7.77,1.04 11.64,-0.5 l 0.18,0.07 0.06,-0.16 c 5.32,-2.19 10.21,-6.77 13.03,-12.84 2.82,-6.07 2.97,-12.33 0.91,-17.16 l 7.03,-32.38 66.35,-25.5 z m -150.08,27.34 c 0.43,0.99 0.98,1.98 1.66,2.91 l -0.06,0.16 0.21,0.06 c 3.27,4.28 9.14,7.84 16.4,9.37 7.26,1.54 14.33,0.73 19.46,-1.78 l 18,2.75 5.46,-2 -25.28,-3.87 c -5.13,2.5 -12.23,3.28 -19.49,1.75 -7.26,-1.54 -13.1,-5.06 -16.36,-9.35 z m 73.49,20.38 -21.91,15.09 c -2.14,4.8 -6.99,9.38 -13.7,12.25 -6.71,2.88 -13.83,3.42 -19.46,1.94 l -0.18,0.09 -0.09,-0.15 c -3.29,-0.91 -6.05,-2.55 -7.91,-4.82 0.19,0.51 0.4,1.02 0.67,1.5 1.74,3.14 5.01,5.32 9.06,6.44 l 0.09,0.16 0.18,-0.1 c 5.63,1.48 12.75,0.94 19.46,-1.93 6.71,-2.88 11.56,-7.45 13.7,-12.25 l 18,-12.41 z" />
      </g>
      <g
         id="g5446"
         transform="matrix(-1,0,0,1,1016.9,0)">
        <path
           id="path5448"
           sodipodi:nodetypes="cccscccscccscccscccscccscccscccscccscccc"
           style="fill:#ffff00;stroke:#000000;stroke-width:2.1272;stroke-linecap:round;stroke-linejoin:round"
           d="m 404.25,551.28 -68.69,33.63 -42.02,-13.98 c -3.37,-4.27 -9.43,-7.8 -16.9,-9.34 -7.47,-1.53 -14.73,-0.71 -20.02,1.78 l -0.25,-0.07 -0.05,0.19 c -3.8,1.86 -6.54,4.6 -7.5,8 -0.96,3.39 0.01,6.91 2.39,10.03 l -0.05,0.19 0.21,0.04 c 3.37,4.29 9.42,7.83 16.9,9.37 7.49,1.54 14.79,0.73 20.08,-1.78 l 26.07,3.89 -19.63,7.02 c -5.8,-1.46 -13.09,-0.92 -20,1.95 -6.91,2.87 -11.92,7.43 -14.13,12.23 l -0.21,0.09 0.08,0.16 c -1.53,3.49 -1.58,7.08 0.22,10.22 1.79,3.14 5.17,5.33 9.34,6.45 l 0.11,0.17 0.19,-0.1 c 5.8,1.48 13.13,0.94 20.05,-1.94 6.92,-2.87 11.93,-7.45 14.13,-12.25 l 22.6,-15.09 -7.68,20.77 c -5.48,2.2 -10.5,6.78 -13.4,12.84 -2.9,6.06 -3.06,12.28 -0.95,17.11 l -0.08,0.18 0.19,0.07 c 1.59,3.47 4.38,6.2 8.18,7.52 3.79,1.32 8.02,1.02 12.01,-0.51 l 0.19,0.07 0.08,-0.16 c 5.48,-2.2 10.51,-6.77 13.42,-12.84 2.9,-6.07 3.07,-12.32 0.95,-17.15 l 7.23,-32.37 68.42,-25.51 z" />
        <path
           id="path5450"
           sodipodi:nodetypes="cccc"
           style="fill:#ffffff;stroke:#000000;stroke-width:1.6999;stroke-linecap:round;stroke-linejoin:round"
           d="m 260.6,581.9 c -3.82,-5.31 -4.14,-10.58 2.33,-15.78 L 287.04,579 Z" />
        <path
           id="path5452"
           sodipodi:nodetypes="cccc"
           style="fill:#ffffff;stroke:#000000;stroke-width:1.6759;stroke-linecap:round;stroke-linejoin:round"
           d="m 276.45,626.55 c -6.24,-1.88 -9.69,-5.8 -7.73,-13.65 l 26.87,-4.17 z" />
        <path
           id="path5454"
           sodipodi:nodetypes="cccc"
           style="fill:#ffffff;stroke:#000000;stroke-width:1.6325;stroke-linecap:round;stroke-linejoin:round"
           d="m 322.1,653.92 c -5.5,1.99 -9.99,0.52 -12.51,-7.65 l 17.51,-19.55 z" />
        <path
           id="path5456"
           style="fill:#808000;filter:url(#filter5435)"
           d="m 400.84,549.41 -0.12,0.06 9.43,17.69 -66.35,25.5 -7.03,32.37 c 2.06,4.83 1.91,11.09 -0.91,17.16 -2.82,6.07 -7.71,10.65 -13.03,12.84 l -0.06,0.16 -0.18,-0.09 c -3.87,1.53 -7.99,1.85 -11.67,0.53 -2.58,-0.92 -4.66,-2.55 -6.21,-4.63 l -0.07,0.16 0.19,0.06 c 1.54,3.47 4.25,6.22 7.94,7.53 3.68,1.32 7.77,1.04 11.64,-0.5 l 0.18,0.07 0.06,-0.16 c 5.32,-2.19 10.21,-6.77 13.03,-12.84 2.82,-6.07 2.97,-12.33 0.91,-17.16 l 7.03,-32.38 66.35,-25.5 z m -150.08,27.34 c 0.43,0.99 0.98,1.98 1.66,2.91 l -0.06,0.16 0.21,0.06 c 3.27,4.28 9.14,7.84 16.4,9.37 7.26,1.54 14.33,0.73 19.46,-1.78 l 18,2.75 5.46,-2 -25.28,-3.87 c -5.13,2.5 -12.23,3.28 -19.49,1.75 -7.26,-1.54 -13.1,-5.06 -16.36,-9.35 z m 73.49,20.38 -21.91,15.09 c -2.14,4.8 -6.99,9.38 -13.7,12.25 -6.71,2.88 -13.83,3.42 -19.46,1.94 l -0.18,0.09 -0.09,-0.15 c -3.29,-0.91 -6.05,-2.55 -7.91,-4.82 0.19,0.51 0.4,1.02 0.67,1.5 1.74,3.14 5.01,5.32 9.06,6.44 l 0.09,0.16 0.18,-0.1 c 5.63,1.48 12.75,0.94 19.46,-1.93 6.71,-2.88 11.56,-7.45 13.7,-12.25 l 18,-12.41 z" />
      </g>
      <g
         id="g4981"
         transform="translate(-2.553)">
        <path
           id="path4973"
           sodipodi:nodetypes="ccccc"
           style="fill:#552200;stroke:#000000;stroke-width:5.7579;stroke-linecap:round;stroke-linejoin:round"
           d="m 586.71,425.32 c -6.64,-11.2 -73.85,50.23 -67.21,61.43 -8.11,42.77 44.91,104.72 97.51,88.48 l 12.29,-14.19 c 6.63,-16.13 -43.23,-13 -42.59,-135.72 z" />
        <path
           id="path4975"
           style="fill:#803300;filter:url(#filter4963)"
           sodipodi:type="inkscape:offset"
           d="m -275.40039,624.69336 c -48.56881,23.96611 -78.831,28.41307 -98.96484,26.87695 -11.34176,-0.86532 -19.47063,-3.63189 -23.53125,-4.64453 -1.2307,-0.30691 -1.02833,-0.25728 -1.29297,-0.29297 l -8.23633,7.18555 c 2.8927,18.6071 16.88015,29.89308 36.20117,35.20703 21.09218,5.80108 46.97046,2.07794 62.43945,-9.74805 a 11.688007,11.688007 0 0 1 4.19922,-2.03515 c -0.46701,0.1946 -0.18313,0.24467 0.64844,-0.58203 1.44494,-1.43649 3.72995,-4.25477 6.1582,-7.81836 4.8565,-7.12719 10.49048,-17.2728 15.27149,-27.33985 2.79765,-5.89083 5.13532,-11.56501 7.10742,-16.80859 z"
           inkscape:original="M -261.75 604.46875 C -379.63248 668.87686 -393.46824 623.50843 -406.75 637.71875 L -419.75 649.0625 C -417.61272 703.64289 -340.104 717.93176 -301.6875 688.5625 C -288.66416 688.5625 -248.72667 604.46872 -261.75 604.46875 z "
           transform="matrix(-0.51012,-0.8601,-0.94357,0.33117,1023.6,0)"
           inkscape:radius="-11.686838" />
        <path
           id="rect4956"
           sodipodi:nodetypes="ccccc"
           style="fill:#552200;stroke:#000000;stroke-width:5.7579;stroke-linecap:round;stroke-linejoin:round"
           d="m 436.85,425.32 c 6.64,-11.2 73.85,50.23 67.21,61.43 8.11,42.77 -44.92,104.72 -97.51,88.48 l -12.29,-14.19 c -6.63,-16.13 43.22,-13 42.59,-135.72 z" />
        <path
           id="path4961"
           style="fill:#803300;filter:url(#filter4963)"
           sodipodi:type="inkscape:offset"
           d="m -275.40039,624.69336 c -48.56881,23.96611 -78.831,28.41307 -98.96484,26.87695 -11.34176,-0.86532 -19.47063,-3.63189 -23.53125,-4.64453 -1.2307,-0.30691 -1.02833,-0.25728 -1.29297,-0.29297 l -8.23633,7.18555 c 2.8927,18.6071 16.88015,29.89308 36.20117,35.20703 21.09218,5.80108 46.97046,2.07794 62.43945,-9.74805 a 11.688007,11.688007 0 0 1 4.19922,-2.03515 c -0.46701,0.1946 -0.18313,0.24467 0.64844,-0.58203 1.44494,-1.43649 3.72995,-4.25477 6.1582,-7.81836 4.8565,-7.12719 10.49048,-17.2728 15.27149,-27.33985 2.79765,-5.89083 5.13532,-11.56501 7.10742,-16.80859 z"
           inkscape:original="M -261.75 604.46875 C -379.63248 668.87686 -393.46824 623.50843 -406.75 637.71875 L -419.75 649.0625 C -417.61272 703.64289 -340.104 717.93176 -301.6875 688.5625 C -288.66416 688.5625 -248.72667 604.46872 -261.75 604.46875 z "
           transform="matrix(0.51012,-0.8601,0.94357,0.33117,0,0)"
           inkscape:radius="-11.686838" />
      </g>
      <g
         id="g4269"
         transform="translate(231.6,-38.942)">
        <path
           id="path3274"
           sodipodi:nodetypes="cssss"
           style="fill:#552200;stroke:#000000;stroke-width:5.7579;stroke-linecap:round;stroke-linejoin:round"
           d="m 215.26,252.44 c 25.05,-27.79 99.67,-27.79 124.72,0 60.45,67.07 35.89,238.89 -31.18,299.34 -13.9,12.52 -48.46,12.52 -62.36,0 -67.07,-60.45 -91.62,-232.27 -31.18,-299.34 z" />
        <path
           id="path4185"
           sodipodi:nodetypes="csccccccssc"
           style="fill:#552200;stroke:#000000;stroke-width:5.7579;stroke-linecap:round;stroke-linejoin:round"
           d="m 277.63,231.59 c -24.92,0 -49.85,6.95 -62.38,20.85 -42.72,47.4 -42.95,147.15 -15.75,222.9 l 0.35,-0.93 c 33.18,67.45 65.06,133.52 55.9,-0.82 4.42,91.15 40.29,137.58 45.22,0.82 -3.38,103.21 28.4,66.59 42.5,29.75 3.99,-9.05 7.65,-18.21 10.78,-24.75 0.04,-0.09 0.07,-0.17 0.1,-0.25 28.6,-76.19 29.07,-178.52 -14.38,-226.72 -12.52,-13.9 -37.42,-20.85 -62.34,-20.85 z" />
        <path
           id="path4260"
           sodipodi:nodetypes="ccccccsscccccccc"
           style="opacity:0.6;fill:#d45500;filter:url(#filter4265)"
           d="m 345.58,466.73 c -0.09,0 -0.06,0.16 -0.09,0.25 -3.14,6.54 -6.8,15.7 -10.78,24.75 -7.76,20.26 -20.87,40.43 -30.53,37.34 9.19,20.74 27.35,-4.59 37.09,-30.03 3.99,-9.05 7.64,-18.21 10.78,-24.75 0.03,-0.09 0.11,-0.34 0.1,-0.25 -0.65,3.51 -5.89,-7.34 -6.57,-7.31 z m -53.37,-4.75 c -2.43,67.38 -12.39,90.27 -22.38,85.28 9.17,15.78 19.77,9.68 25.44,-32.5 -2.62,-10.55 -3.89,-27.45 -3.06,-52.78 z m -44.72,7.75 c 3.58,61.18 -2.35,75.91 -13.25,67 11.41,15.31 19.46,14.83 20.72,-18.69 -3.43,-12.99 -6.12,-29.53 -7.47,-48.31 z" />
        <path
           id="path4180"
           sodipodi:nodetypes="cscccccsc"
           style="fill:#552200;stroke:#000000;stroke-width:5.7579;stroke-linecap:round;stroke-linejoin:round"
           d="m 279.84,231.59 c -24.92,0 -52.16,6.95 -64.69,20.85 -29.57,32.81 -38.8,90.69 -32.65,148.34 9.56,90.01 66.61,190.75 54.94,7.85 -15.43,39.35 36.53,204.74 40.7,4.1 1.84,138.08 38.08,135.7 41.54,1.65 -2.52,117.86 23.56,133.33 51.16,-2.58 8.8,-61.44 2.98,-124.3 -28.62,-159.36 -12.53,-13.9 -37.46,-20.85 -62.38,-20.85 z" />
        <path
           id="path4235"
           sodipodi:nodetypes="cccccccccccccccc"
           style="opacity:0.6;fill:#d45500;filter:url(#filter4256)"
           d="m 362.81,393.53 c -14.64,72.11 -28.88,101.62 -38.62,95.82 9.38,22.88 26.24,-2.45 43.72,-88.5 -1.14,-0.72 -4.58,-6.41 -5.1,-7.32 z m -92.71,0.91 c -1.8,86.37 -12.47,104.91 -22.79,94.87 9.56,17.83 20.84,15.34 25.72,-42.18 -1.59,-14.43 -2.66,-31.97 -2.93,-52.69 z m 41.53,1.66 c -1.92,74.03 -13.82,107.89 -24.41,100.12 8.86,19.48 20.31,5 26.09,-42.31 -1.54,-14.96 -2.19,-34.36 -1.68,-57.81 z m -80.88,51.06 c -1.58,45.66 -11.63,52.69 -22.9,39.4 12.26,20.29 24.35,20.5 27.46,-21.71 -1.71,-5.5 -3.26,-11.52 -4.56,-17.69 z" />
        <path
           id="path4159"
           sodipodi:nodetypes="csccccccsc"
           style="fill:#552200;stroke:#000000;stroke-width:5.7579;stroke-linecap:round;stroke-linejoin:round"
           d="m 277.26,231.59 c -24.92,0 -49.82,6.95 -62.34,20.85 -21.56,23.92 -32.3,61.17 -34.16,101.94 -2.69,97.4 42.16,123.27 38.06,-2.78 10.88,207.12 49.82,62.34 36.55,2.42 3.82,124.64 43.33,167.46 44.44,-2.41 0.88,120.77 43.54,153.02 37.79,0.78 13.15,164.91 45.92,49.24 34.69,-7.67 0,0 -12.45,-69.87 -32.65,-92.28 -12.53,-13.9 -37.46,-20.85 -62.38,-20.85 z" />
        <path
           id="path4210"
           sodipodi:nodetypes="ccsscccccccccccccccc"
           style="opacity:0.6;fill:#d45500;filter:url(#filter4231)"
           d="m 364.97,328.64 c 7.18,36.43 -3.63,96.92 -15.81,92.5 13.93,27.52 29.12,-45.17 20.93,-86.66 0,0 -5.12,-5.84 -5.12,-5.84 z m -153.47,6.87 c 2.21,67.72 -9.72,91.58 -20.81,84.07 9.23,15.08 20.93,7.26 24.84,-32.03 -1.57,-14.13 -2.94,-31.3 -4.03,-52.04 z m 81,0 c -0.56,86.27 -11.02,117.67 -21.69,111.38 9.97,17.06 21.15,2.47 25.22,-58.47 -2.07,-14.83 -3.38,-32.63 -3.53,-52.91 z m 37.78,0.79 c 2.95,78.18 -6.85,107.69 -17.22,101.56 9.82,16.82 20.99,2.66 22.66,-54 -2.02,-12.26 -3.87,-27.91 -5.44,-47.56 z m -79.69,40.21 c -1.38,34.19 -10.31,69.44 -19.56,66.5 9.04,18.23 19.05,-8.03 23.06,-40.81 -1.36,-7.73 -2.52,-16.32 -3.5,-25.69 z" />
        <path
           id="path4094"
           sodipodi:nodetypes="cscccccsc"
           style="fill:#552200;stroke:#000000;stroke-width:5.7579;stroke-linecap:round;stroke-linejoin:round"
           d="m 277.92,231.59 c -24.92,0 -49.82,6.95 -62.35,20.85 -12.7,14.1 -21.66,32.83 -27.25,54.18 12.49,85.82 37.64,142.04 53.32,-0.86 -3.8,69.36 29.93,162.14 45.63,2.27 -0.46,62.89 24.96,161.98 41.88,1.52 -1.01,108.24 31.49,97.42 37.77,-5.17 -5.62,-20.42 -14.37,-38.34 -26.63,-51.94 -12.52,-13.9 -37.45,-20.85 -62.37,-20.85 z" />
        <path
           id="path4201"
           sodipodi:nodetypes="cccccccccccccccc"
           style="opacity:0.6;fill:#d45500;filter:url(#filter4206)"
           d="m 358.88,284.64 c -3.84,62.9 -17.57,91.28 -27.37,78.91 9.28,33.72 27.88,7.77 32.47,-67.22 -2.7,-9.79 -6.59,-17.13 -5.1,-11.69 z m -125.28,1.38 c -9.35,85.23 -22.07,99.62 -33.47,79.16 11.2,31.15 24.56,31.19 34.97,-39.07 -1.6,-12.95 -2.22,-26.93 -1.5,-40.09 z m 45.63,2.28 c -8.4,85.52 -21.98,98.72 -32.19,81.91 9.36,28.1 24.32,30.41 34.41,-44.97 -1.49,-12.31 -2.31,-25.24 -2.22,-36.94 z m 41.87,1.5 c -8.44,80.11 -19.03,95.53 -27.43,83.06 7.86,24.76 19.35,26.13 29.03,-42.5 -1.15,-10.93 -1.75,-24.42 -1.6,-40.56 z" />
        <path
           id="path4175"
           sodipodi:nodetypes="csccccsc"
           style="fill:#552200;stroke:#000000;stroke-width:5.7579;stroke-linecap:round;stroke-linejoin:round"
           d="m 276.48,231.59 c -24.92,0 -49.85,6.95 -62.37,20.85 -4.22,4.68 -8.01,9.87 -11.41,15.5 12.55,96.61 46.29,81.74 49.78,0.65 3.87,63.42 49.84,101.39 48.38,-0.81 6.32,93.24 57.41,70.09 51.15,3.19 -3.84,-6.8 -8.19,-13.03 -13.15,-18.53 -12.53,-13.9 -37.46,-20.85 -62.38,-20.85 z" />
        <path
           id="path4192"
           style="opacity:0.6;fill:#d45500;filter:url(#filter4197)"
           d="m 294.67,261.55 c 1.04,63.54 -21.53,66.13 -36.56,42.68 13.58,26.68 36.71,30.48 39.48,-22.03 0,-0.02 0.01,-0.04 0,-0.06 -1.31,-5.99 -2.32,-12.84 -2.92,-20.59 z m -49.29,0.72 c -2.52,51 -20.44,72.51 -35.25,50.35 14.26,28.58 32.96,12.36 37.6,-34.34 -1.14,-5.05 -1.96,-10.41 -2.35,-16.01 z m 101.5,3.12 c 4.22,43.59 -23.09,65.77 -40.05,40.53 16.56,33.78 48.16,11.08 43.11,-36.03 -0.99,-1.53 -2,-3.04 -3.06,-4.5 z" />
        <path
           id="path4190"
           sodipodi:nodetypes="cssss"
           style="fill:none;stroke:#000000;stroke-width:5.7579;stroke-linecap:round;stroke-linejoin:round"
           d="m 215.26,252.44 c 25.05,-27.79 99.67,-27.79 124.72,0 60.45,67.07 35.89,238.89 -31.18,299.34 -13.9,12.52 -48.46,12.52 -62.36,0 -67.07,-60.45 -91.62,-232.27 -31.18,-299.34 z" />
      </g>
      <g
         id="g5096">
        <path
           id="path2521"
           sodipodi:nodetypes="cccccccccc"
           style="fill:#ffffff;fill-rule:evenodd;stroke:#000000;stroke-width:5.8548px;stroke-linecap:round;stroke-linejoin:round"
           d="m 434.48,68.607 c 4.07,-20.673 46.87,-35.175 93.63,0.545 19.14,5.246 73.15,147.99 73.97,181.44 -4.63,-1.59 -37.37,-42.15 -50.34,-45.82 -11.41,0.23 11.59,51.47 1.96,59.66 -43.55,-109.51 -22.47,-39.29 -50.5,17.66 -10.82,-59.23 -15.36,-54.14 -16.79,-76.53 -56.26,119.85 -17.12,9.85 -21.01,0.18 -108.6,114.12 24.37,-47.23 -29.81,-82.8 l -1.11,-54.333 z" />
        <path
           id="path2523"
           sodipodi:nodetypes="cccccsscc"
           style="fill:#ffff00;fill-rule:evenodd;stroke:#000000;stroke-width:5.8548px"
           d="m 437.37,68.648 c -86.66,9.213 -75.2,40.432 -66.37,67.492 5.96,-42.253 75.46,-20.38 109.03,-18.1 0,0 -98.14,-13.25 -99.86,3.02 l 91.23,8.39 c 0,0 17.25,0.22 19.52,-8.37 0.99,-3.73 -0.88,-9.87 -3.9,-12.27 -10,-7.93 -42.39,-3.35 -42.39,-3.35 -13.8,-4 -9.11,-21.433 -7.26,-36.812 z" />
        <path
           id="path2525"
           sodipodi:nodetypes="cc"
           style="fill:none;stroke:#000000;stroke-width:3.8294px;stroke-linecap:round;stroke-linejoin:round"
           d="m 419.08,76.51 c -3.85,6.254 1.01,3.63 4.75,7.985" />
        <path
           id="path2527"
           sodipodi:nodetypes="cc"
           style="fill:none;stroke:#000000;stroke-width:5.8548px;stroke-linecap:round;stroke-linejoin:round"
           d="m 453.69,73.431 c 14.11,-7.451 34.25,7.612 57.5,5.304" />
        <ellipse
           id="path2529"
           style="fill:#ffff00;stroke:#000000;stroke-linecap:round;stroke-linejoin:round"
           transform="matrix(11.504,1.8961,-2.2954,9.5026,-2107.9,-2310.8)"
           cx="264.47266"
           cy="199.04115"
           rx="1.0542487"
           ry="0.43128356" />
        <path
           id="path2539"
           style="fill:#ffff00;stroke:#ffff00;stroke-linecap:round;stroke-linejoin:round"
           sodipodi:type="inkscape:offset"
           d="m 264.46875,198.9082 c -0.26377,0 -0.50318,0.0409 -0.65039,0.0957 -0.0333,0.0124 -0.0402,0.0211 -0.0625,0.0332 0.0238,0.0145 0.0336,0.0259 0.0703,0.041 0.14679,0.0606 0.38386,0.10742 0.64258,0.10743 0.25871,0 0.49579,-0.0468 0.64258,-0.10743 0.0367,-0.0151 0.0465,-0.0265 0.0703,-0.041 -0.0223,-0.0121 -0.0292,-0.0208 -0.0625,-0.0332 -0.14721,-0.0548 -0.38662,-0.0957 -0.65039,-0.0957 z"
           inkscape:original="M 264.46875 198.625 C 263.8868 198.625 263.40626 198.79318 263.40625 199.03125 C 263.40625 199.26932 263.8868 199.46874 264.46875 199.46875 C 265.0507 199.46875 265.53124 199.26932 265.53125 199.03125 C 265.53125 198.79318 265.0507 198.62501 264.46875 198.625 z "
           transform="matrix(11.504,1.8961,-2.2954,9.5026,-2107.9,-2310.8)"
           inkscape:radius="-0.28241494" />
        <path
           id="path2543"
           style="fill:#ffff00;stroke:#000000;stroke-linecap:round;stroke-linejoin:round"
           sodipodi:type="inkscape:offset"
           d="m 264.46875,199.03516 c -0.0595,0 -0.10696,0.003 -0.1543,0.006 0.0484,0.009 0.0961,0.0176 0.1543,0.0176 0.0582,0 0.10589,-0.009 0.1543,-0.0176 -0.0473,-0.003 -0.0948,-0.006 -0.1543,-0.006 z"
           inkscape:original="M 264.46875 199 C 264.3153 199 264.21431 199.00867 264.09375 199.03125 C 264.21249 199.05679 264.31856 199.09375 264.46875 199.09375 C 264.61894 199.09375 264.72501 199.05679 264.84375 199.03125 C 264.72318 199.00867 264.6222 199 264.46875 199 z "
           transform="matrix(6.4168,1.0576,-1.2803,5.3004,-967.65,-1256)"
           inkscape:radius="-0.036116309" />
      </g>
    </g>
  </g>
  <metadata
     id="metadata53061">
    <rdf:RDF>
      <cc:Work>
        <dc:format>image/svg+xml</dc:format>
        <dc:type
           rdf:resource="http://purl.org/dc/dcmitype/StillImage" />
        <cc:license
           rdf:resource="http://creativecommons.org/publicdomain/zero/1.0/" />
        <dc:publisher>
          <cc:Agent
             rdf:about="http://openclipart.org/">
            <dc:title>Openclipart</dc:title>
          </cc:Agent>
        </dc:publisher>
        <dc:title>Bald Eagle</dc:title>
        <dc:date>2006-12-26T00:00:00</dc:date>
        <dc:description />
        <dc:source>https://openclipart.org/detail/17355/-by--17355</dc:source>
        <dc:creator>
          <cc:Agent>
            <dc:title>permafrost91</dc:title>
          </cc:Agent>
        </dc:creator>
      </cc:Work>
      <cc:License
         rdf:about="http://creativecommons.org/publicdomain/zero/1.0/">
        <cc:permits
           rdf:resource="http://creativecommons.org/ns#Reproduction" />
        <cc:permits
           rdf:resource="http://creativecommons.org/ns#Distribution" />
        <cc:permits
           rdf:resource="http://creativecommons.org/ns#DerivativeWorks" />
      </cc:License>
    </rdf:RDF>
  </metadata>
</svg>
