<?xml version="1.0" encoding="UTF-8" standalone="no"?>
<svg
   xmlns:dc="http://purl.org/dc/elements/1.1/"
   xmlns:cc="http://creativecommons.org/ns#"
   xmlns:rdf="http://www.w3.org/1999/02/22-rdf-syntax-ns#"
   xmlns:svg="http://www.w3.org/2000/svg"
   xmlns="http://www.w3.org/2000/svg"
   xmlns:sodipodi="http://sodipodi.sourceforge.net/DTD/sodipodi-0.dtd"
   xmlns:inkscape="http://www.inkscape.org/namespaces/inkscape"
   viewBox="0 0 512 511.99999"
   height="512"
   width="512"
   xml:space="preserve"
   id="svg2"
   version="1.1"
   sodipodi:docname="Beaver.svg"
   inkscape:version="1.0.2 (e86c870879, 2021-01-15, custom)"><sodipodi:namedview
     pagecolor="#ffffff"
     bordercolor="#666666"
     borderopacity="1"
     objecttolerance="10"
     gridtolerance="10"
     guidetolerance="10"
     inkscape:pageopacity="0"
     inkscape:pageshadow="2"
     inkscape:window-width="1366"
     inkscape:window-height="715"
     id="namedview11827"
     showgrid="false"
     inkscape:zoom="0.14531044"
     inkscape:cx="2229.6308"
     inkscape:cy="1286.0409"
     inkscape:window-x="-8"
     inkscape:window-y="-8"
     inkscape:window-maximized="1"
     inkscape:current-layer="svg2" /><metadata
     id="metadata8"><rdf:RDF><cc:Work
         rdf:about=""><dc:format>image/svg+xml</dc:format><dc:type
           rdf:resource="http://purl.org/dc/dcmitype/StillImage" /><dc:title></dc:title></cc:Work></rdf:RDF></metadata><defs
     id="defs6"><clipPath
       id="clipPath946"
       clipPathUnits="userSpaceOnUse"><path
         id="path944"
         d="m 19035.8,13618.7 c -10.4,0 -20.8,1.5 -30.7,4.7 -29.1,9.4 -53.5,34.8 -57.9,65.1 -2.6,17.5 1.4,35.4 6.1,52.4 13.8,49.1 35.1,97.1 60.4,141.4 14.6,25.7 51.5,76.5 86.4,76.5 2.8,0 5.6,-0.4 8.3,-1 16.3,-4.2 23.5,-23.7 22.7,-40.4 -1.1,-25.5 -14.3,-48.6 -28.2,-70 -13.9,-21.3 -29.1,-42.5 -35.2,-67.2 -6.1,-24.8 -0.7,-54.3 20.2,-69 10.8,-7.6 25.4,-11 32.6,-22.2 6.3,-9.6 5,-22.9 -1,-32.8 -5.9,-9.9 -15.6,-16.9 -25.7,-22.4 -17.7,-9.6 -38,-15.1 -58,-15.1" /></clipPath></defs><g
     id="g14295"
     transform="matrix(0.4938655,0,0,0.4938655,-41.165255,-94.717992)"><path
       id="path2104"
       style="fill:#e4e7ea;fill-opacity:1;fill-rule:nonzero;stroke:none;stroke-width:0.133333"
       d="m 895.34264,1160.3467 c 0,7.5067 -110.79333,13.5734 -247.46266,13.5734 -136.67066,0 -247.46399,-6.0667 -247.46399,-13.5734 0,-7.4933 110.79333,-13.5733 247.46399,-13.5733 136.66933,0 247.46266,6.08 247.46266,13.5733" /><g
       transform="matrix(0.145944,0,0,-0.145944,0,2666.6667)"
       id="g2106"><path
         id="path2108"
         style="fill:#935951;fill-opacity:1;fill-rule:nonzero;stroke:none"
         d="m 2000.26,15927.6 c 2.87,117.9 66.36,230.1 158.19,304.1 29.41,23.7 62.05,44 98.09,55.3 35.13,11 72.41,13 109.2,12.8 141.46,-0.6 295.06,-40.6 377.97,-155.2 54.65,-75.6 70.38,-176.9 44.99,-266.6 -104.07,-367.6 -799.42,-400.9 -788.44,49.6" /></g><g
       transform="matrix(0.14429866,0,0,-0.14429866,0,2666.6667)"
       id="g2110"><path
         id="path2112"
         style="fill:#efb081;fill-opacity:1;fill-rule:nonzero;stroke:none"
         d="m 2387.63,15928.4 c -55.12,29.5 -98.57,82.1 -112.11,143.1 -13.56,61 4.98,129.3 50.98,171.6 50.24,46.3 125.47,56.9 192.4,43.6 30.61,-6.1 60.72,-17 85.75,-35.6 48.13,-35.7 72.09,-96.2 80.07,-155.7 4.73,-35.2 4.02,-73.5 -15.27,-103.4 -14.06,-21.8 -36.46,-36.8 -59.3,-49 -60.91,-32.8 -159.4,-48.3 -222.52,-14.6" /></g><g
       transform="matrix(0.14421733,0,0,-0.14421733,0,2666.6667)"
       id="g2114"><path
         id="path2116"
         style="fill:#774844;fill-opacity:1;fill-rule:nonzero;stroke:none"
         d="m 2041.96,15934.5 c 22.33,-59.1 64.18,-109 110.95,-151.4 26.11,-23.7 49.06,-43.1 81.97,-55.7 38.83,57.9 62.22,105 98.49,154 -41.08,15.7 -65.52,25 -102.9,48.2 -60.77,37.6 -109.46,94.4 -137.31,160.2 -27.85,65.9 -34.74,140.4 -19.43,210.2 -6.47,-29.4 -23.39,-58 -34.01,-85.9 -10.44,-27.4 -12.17,-59.7 -15.06,-89 -6.29,-63.8 -5.64,-129.9 17.3,-190.6" /></g><g
       transform="matrix(0.14444133,0,0,-0.14444133,0,2666.6667)"
       id="g2118"><path
         id="path2120"
         style="fill:#d89e77;fill-opacity:1;fill-rule:nonzero;stroke:none"
         d="m 2307.46,16130.6 c 27.76,21.5 63.09,32.9 98.16,31.8 37.07,-1.1 75.77,-18.4 92.78,-51.4 6.78,-13.1 10.14,-28.4 20.51,-38.9 8.64,-8.8 21.24,-13 33.55,-13.1 12.31,-0.1 24.4,3.5 35.71,8.3 30.47,13.1 57.17,36.9 69.53,67.7 12.37,30.7 8.63,68.5 -13,93.7 -7.06,8.2 -15.71,14.9 -24.58,21.1 -14.37,10.1 -29.51,19.2 -45.62,26.1 -55.73,24.1 -120.35,21.6 -178.22,3.3 -14.49,-4.6 -28.72,-10.2 -42.07,-17.5 -41.78,-22.9 -73.62,-63.2 -86.15,-109.2 -12.54,-45.9 -5.6,-96.9 18.77,-137.8 -18.93,43.3 -19.5,84.9 20.63,115.9" /></g><g
       transform="matrix(0.14605333,0,0,-0.14605333,0,2666.6667)"
       id="g2122"><path
         id="path2124"
         style="fill:#935951;fill-opacity:1;fill-rule:nonzero;stroke:none"
         d="m 5061.62,15951.4 c -11.18,117.3 -82.38,224.7 -179.14,291.9 -30.98,21.6 -64.95,39.6 -101.68,48.2 -35.79,8.5 -73.09,7.9 -109.76,5.1 -140.94,-10.5 -291.22,-61.3 -365.77,-181.4 -49.14,-79.2 -57.67,-181.2 -26.03,-268.9 129.68,-359.1 825.12,-343.2 782.38,105.1" /></g><g
       transform="matrix(0.14434666,0,0,-0.14434666,0,2666.6667)"
       id="g2126"><path
         id="path2128"
         style="fill:#efb081;fill-opacity:1;fill-rule:nonzero;stroke:none"
         d="m 4770.69,15934 c 52.89,33.3 92.5,88.8 101.69,150.6 9.2,61.8 -14.1,128.6 -62.95,167.6 -53.36,42.5 -129.13,47.8 -194.94,29.8 -30.08,-8.3 -59.35,-21.2 -83,-41.5 -45.45,-39.1 -65.08,-101.1 -68.83,-160.9 -2.24,-35.5 1.17,-73.6 22.53,-102.1 15.55,-20.7 38.94,-34.1 62.58,-44.7 63.06,-28.4 162.36,-36.9 222.92,1.2" /></g><g
       transform="matrix(0.14450266,0,0,-0.14450266,0,2666.6667)"
       id="g2130"><path
         id="path2132"
         style="fill:#774844;fill-opacity:1;fill-rule:nonzero;stroke:none"
         d="m 5111.18,15938.4 c -18.06,-60.4 -56.21,-113 -99.78,-158.6 -24.32,-25.4 -45.82,-46.3 -77.67,-61.3 -42.74,55 -69.35,100.2 -108.91,146.5 39.78,18.5 63.45,29.5 99.04,55.2 57.84,41.7 102.31,101.7 125.4,169.2 23.08,67.5 24.69,142.2 4.53,210.6 8.5,-28.8 27.37,-56.1 39.91,-83.1 12.32,-26.5 16.31,-58.6 21.27,-87.6 10.76,-63.1 14.77,-128.8 -3.79,-190.9" /></g><g
       transform="matrix(0.14446266,0,0,-0.14446266,0,2666.6667)"
       id="g2134"><path
         id="path2136"
         style="fill:#d89e77;fill-opacity:1;fill-rule:nonzero;stroke:none"
         d="m 4829.05,16143.9 c -29.2,19.5 -65.24,28.4 -100.15,24.8 -36.89,-3.7 -74.27,-23.7 -88.91,-57.8 -5.83,-13.6 -8.1,-29.1 -17.69,-40.3 -8,-9.4 -20.27,-14.4 -32.54,-15.4 -12.26,-1 -24.58,1.7 -36.21,5.8 -31.31,10.9 -59.61,32.7 -74.12,62.5 -14.5,29.8 -13.45,67.8 6.34,94.4 6.47,8.7 14.63,16 23.04,22.8 13.6,11.1 28.08,21.2 43.64,29.3 53.89,27.9 118.5,30 177.52,15.8 14.78,-3.6 29.37,-8.1 43.19,-14.5 43.29,-19.8 77.9,-57.8 93.65,-102.8 15.74,-44.9 12.42,-96.2 -9,-138.7 15.82,44.5 13.45,86 -28.76,114.1" /></g><path
       id="path2138"
       style="fill:#703f37;fill-opacity:1;fill-rule:nonzero;stroke:none;stroke-width:0.133333"
       d="m 814.55065,722.10675 c 6.028,-24.88 0.93333,-68.2 6.348,-93.22667 5.41466,-25.01333 15.25733,-50.17333 34.296,-67.29333 22.97599,-20.65333 56.30399,-26.49333 86.95866,-22.62666 20.59733,2.6 42.12133,10.2 53.908,27.29333 10.25869,14.88 11.29329,34.16 10.23329,52.2 -3.36,57.22666 -24.24262,112.49333 -54.00129,161.47999 -29.76,48.98667 -68.208,92.16 -108.85733,132.57333 -18.564,18.46667 -37.772,36.52 -59.75733,50.73334 -51.73333,33.45333 -115.88133,43.38662 -177.348,39.28002 -28.46,-1.9067 -63.104,-12.84002 -60.37333,-47.53336 2.40533,-30.57333 31.73067,-61.25333 57.89866,-74.90666 19.86,-10.36 58.956,10.84 80.41734,4.88 126.75733,-35.21333 121.11466,-125.02667 130.27733,-162.85333" /><path
       id="path2140"
       style="fill:#513325;fill-opacity:1;fill-rule:nonzero;stroke:none;stroke-width:0.133333"
       d="m 997.49998,567.28009 c -6.376,-9.25334 -16.49734,-16.50667 -26.88534,-20.90667 4.08534,12.17333 3.71467,27.18667 2.95067,40.18667 -3.36,57.22666 -24.24267,112.49333 -54.00133,161.47999 -29.75867,48.98667 -68.208,92.16 -108.85733,132.57333 -18.564,18.46667 -37.77334,36.52 -59.75734,50.73333 -51.73333,33.45334 -115.88133,43.38667 -177.34799,39.28 -9.05467,-0.61333 -18.732,-2.13333 -27.63467,-5.04 3.45867,27.61334 34.37467,36.77336 60.20267,38.50666 61.46666,4.1067 125.61333,-5.82666 177.34799,-39.27999 21.98534,-14.21333 41.19334,-32.26667 59.75734,-50.73333 40.64799,-40.41334 79.09733,-83.58667 108.85733,-132.57333 29.75866,-48.98667 50.64132,-104.25333 54.00262,-161.48 1.0587,-18.04 1.6254,-37.86666 -8.63462,-52.74666" /><g
       transform="matrix(0.134916,0,0,-0.134916,0,2666.6667)"
       id="g2142"><path
         id="path2144"
         style="fill:#935951;fill-opacity:1;fill-rule:nonzero;stroke:none"
         d="m 2725.76,13053.5 c 124.12,-401.5 387.12,-796.4 810.26,-962.5 371.84,-146 804.9,-91.8 1186.97,30.8 410.84,131.8 819.44,369.7 958.21,743.2 106.22,285.8 35.01,601.8 -86.82,882.6 -121.84,280.7 -292.9,543.6 -395.46,830.5 -148.23,414.8 -155.23,881.3 -426.97,1241.4 -222.68,295 -635.27,480.5 -1022.86,410.5 -245.1,-44.3 -461.4,-183.4 -617.05,-360.1 -153.04,-173.5 -253.94,-383.1 -318.95,-595.9 10.64,-119 -77.61,-357.7 -105.96,-507.7 -36.04,-190.7 -65.38,-382.6 -81.67,-575.6 -32.16,-380.8 -13.9,-767.8 100.3,-1137.2" /></g><path
       id="path2146"
       style="fill:#774844;fill-opacity:1;fill-rule:nonzero;stroke:none;stroke-width:0.133333"
       d="m 423.81332,678.61342 c 14.17734,4.86666 28.93867,7.81333 43.72,10.29333 71.428,11.97333 146.41066,13.09333 214.612,-11.28 2.96533,-1.05333 10.636,-3.32 10.636,-6.46667 0,-1.2 -1.88134,-5.16 -2.58,-8.45333 -2.01467,-9.48 -4.03067,-18.96 -6.04534,-28.45333 -0.20266,-0.96 -0.464,-2 -1.264,-2.57334 -0.88666,-0.61333 -2.08933,-0.41333 -3.14933,-0.18666 -15.99867,3.36 -32.26,5.29333 -48.49467,7.22666 -65.86399,7.82667 -132.66799,15.65334 -198.26799,5.85334 -14.88933,-2.21334 -29.632,-5.33334 -44.264,-8.88 -4.82933,-1.16 -10.108,-2.34667 -14.60267,-0.22667 -23.18933,10.94667 42.28934,40.6 49.7,43.14667" /><g
       transform="matrix(0.14535733,0,0,-0.14535733,0,2666.6667)"
       id="g2148"><path
         id="path2150"
         style="fill:#935951;fill-opacity:1;fill-rule:nonzero;stroke:none"
         d="m 4822.54,15755.3 c -95.97,136.8 -217.08,256.5 -355.55,350.2 -270.96,183.3 -519.98,194.5 -831.67,190.7 -22.8,-0.3 -45.7,-0.7 -68.68,-1.3 -22.97,0.6 -45.87,1 -68.66,1.3 -311.69,3.8 -560.72,-7.4 -831.69,-190.7 -138.45,-93.7 -259.55,-213.4 -355.53,-350.2 -226.62,-323.1 -318.84,-726.7 -317.05,-1121.3 0.44,-97.9 6.63,-197.4 38.89,-289.8 55,-157.7 182.55,-282.2 328.43,-363.4 145.87,-81.2 309.96,-123.3 473.46,-157.1 241.4,-49.8 486.22,-83 732.15,-99.5 245.95,16.5 490.77,49.7 732.17,99.5 163.49,33.8 327.58,75.9 473.46,157.1 145.87,81.2 273.42,205.7 328.41,363.4 32.27,92.4 38.47,191.9 38.91,289.8 1.78,394.6 -90.44,798.2 -317.05,1121.3" /></g><g
       transform="matrix(0.14829066,0,0,-0.14829066,0,2666.6667)"
       id="g2152"><path
         id="path2154"
         style="fill:#935951;fill-opacity:1;fill-rule:nonzero;stroke:none"
         d="m 3201.16,16013.2 c 0.33,69.5 -48.2,136.5 -114.36,158 65.72,6.5 132.97,9.3 196.97,-7 64.02,-16.3 125.09,-53.9 156.9,-111.7 14.99,102.1 78.85,196 168.37,247.5 -44.28,-63.8 -64.33,-144 -55.31,-221.2 52.32,98.8 182.04,120 293.41,129.6 -66.77,-49.8 -123.78,-129.6 -106.5,-211.1 6.56,-30.9 23.16,-58.6 36.6,-87.2 23.82,-50.6 37.73,-111.4 13,-161.6 -31.7,-64.4 -111.83,-85.7 -182.78,-96.2 -178.73,-26.5 -378.11,-23.9 -518.52,89.8 -65.3,52.9 -38.64,87.7 15.78,123.1 54.02,35 96.13,78.1 96.44,148" /></g><g
       transform="matrix(0.13585866,0,0,-0.13585866,0,2666.6667)"
       id="g2156"><path
         id="path2158"
         style="fill:#29292d;fill-opacity:1;fill-rule:nonzero;stroke:none"
         d="m 4194.76,16200.3 c -14.2,42.8 -61.25,64.5 -104.63,76.8 -73.16,20.8 -145.33,22.9 -217.92,19.6 -72.6,3.3 -144.77,1.2 -217.94,-19.6 -43.36,-12.3 -90.42,-34 -104.63,-76.8 -7.8,-23.4 -3.96,-49.1 1.61,-73.3 21.74,-94 69.19,-182 135.82,-251.8 49.39,-51.7 115.6,-94.8 185.14,-99.6 69.52,4.8 135.75,47.9 185.12,99.6 66.65,69.8 114.1,157.8 135.82,251.8 5.58,24.2 9.42,49.9 1.61,73.3" /></g><path
       id="path2160"
       style="fill:#f4f1d3;fill-opacity:1;fill-rule:nonzero;stroke:none;stroke-width:0.133333"
       d="m 491.58799,604.90675 c -0.35467,3.58667 -0.74534,7.54667 1.33333,10.49333 2.08,2.94667 7.71867,3.17334 8.62,-0.32 1.66133,3.09334 6.88,3.22667 8.69867,0.21334 1.39733,4.64 8.648,4.74666 11.924,1.17333 3.276,-3.57333 3.64133,-8.85333 3.83466,-13.69333 0.612,-15.29333 1.22267,-30.58667 1.83334,-45.86667 2.09866,0.4 2.63866,3.10667 2.71466,5.24 0.68,18.89334 1.25067,34.76 1.93067,53.65333 0.66,1.69334 5.65333,1.57334 8.216,0.25334 0.744,-0.38667 7.66667,4.16 11.30533,1.42666 1.204,-0.90666 2.992,0.62667 4.93734,0.90667 2.25333,0.33333 4.63733,-0.53333 5.28266,-1.16 0.22934,-15.05333 0.436,-28.53333 0.66667,-43.58666 0.0133,-0.88 0.005,-1.84 -0.52933,-2.54667 -0.708,-0.94667 -2.03067,-1.08 -3.18934,-1.26667 -8.69333,-1.48 -14.056,-10.05333 -18.292,-17.78666 -4.34533,-7.93334 -8.69066,-15.86667 -13.03733,-23.8 1.652,3.01333 -7.50133,16.61333 -9.244,19.26666 -4.03733,6.14667 -9.00133,11.76 -14.95467,16.12 -2.888,2.10667 -6.37333,3.30667 -9.224,5.33334 -4.15466,2.96 -3.024,1.28 -2.664,6.52 0.67334,9.82666 0.808,19.6 -0.16266,29.42666" /><g
       transform="matrix(0.13468666,0,0,-0.13468666,0,2666.6667)"
       id="g2162"><path
         id="path2164"
         style="fill:#29292d;fill-opacity:1;fill-rule:nonzero;stroke:none"
         d="m 3553.85,15545.5 c 122.29,-22.4 236.59,82.1 306.56,169.6 111.46,139.3 144.72,302.1 143.74,476.5 -0.61,108.4 -174.65,106.9 -167.31,0 4.48,-65.1 10.13,-130.8 9.69,-196.1 -0.48,-72.5 8.62,-141.8 -14.28,-212.2 -44.87,-137.8 -148.07,-195.6 -278.4,-235.3 -1.15,-0.3 -1.34,-2.3 0,-2.5" /></g><g
       transform="matrix(0.1348,0,0,-0.1348,0,2666.6667)"
       id="g2166"><path
         id="path2168"
         style="fill:#29292d;fill-opacity:1;fill-rule:nonzero;stroke:none"
         d="m 4254.33,15531.4 c -122.87,-18.2 -233.49,90 -300.44,179.7 -106.62,142.9 -134.37,306.6 -127.53,480.7 4.24,108.2 177.99,100.9 167.07,-5.6 -6.65,-64.9 -14.5,-130.3 -16.27,-195.5 -1.94,-72.5 -13.36,-141.4 7.16,-212.4 40.18,-139.2 141.28,-200.3 270.1,-244.4 1.13,-0.3 1.26,-2.3 -0.09,-2.5" /></g><path
       id="path2170"
       style="fill:#935951;fill-opacity:1;fill-rule:nonzero;stroke:none;stroke-width:0.133333"
       d="m 452.73199,1074.3867 c 3.34933,7.6534 6.488,15.6934 6.332,24.0534 -0.156,8.36 -4.36667,17.1733 -12.08,20.3866 -6.236,2.6134 -15.86267,3.52 -15.74933,10.28 0.0787,4.7467 5.77333,7.6134 6.80266,12.24 0.77867,3.52 -1.33333,7.16 -0.70933,10.7067 1.08,6.1467 8.90933,7.96 15.136,8.2933 22.85466,1.24 45.79333,0.9467 68.608,-0.9066 5.14533,-0.4134 10.53733,-1 14.788,-3.9334 6.36133,-4.3866 8.42666,-12.7066 9.89466,-20.2933 13.94134,-72.0933 15.07067,-152.55999 -27.45866,-212.42666 -15.756,-22.18666 -38.34534,-41.08 -65.19067,-45.48 -42.012,-6.89333 -73.568,23.32 -61.86,63.48 13.84667,47.50667 41.812,88.57336 61.48667,133.59996" /><path
       id="path2172"
       style="fill:#935951;fill-opacity:1;fill-rule:nonzero;stroke:none;stroke-width:0.133333"
       d="m 815.09198,1046.6267 c 1.78267,8.1734 3.956,16.52 8.98533,23.2 5.02934,6.68 13.604,11.3467 21.74267,9.44 6.58133,-1.5466 14.91067,-6.4533 18.784,-0.92 2.72,3.8934 -0.216,9.5467 1.66933,13.9067 1.43067,3.3067 5.27867,5.0133 6.85333,8.2533 2.728,5.6134 -2.55333,11.6667 -7.39866,15.6 -17.78,14.4 -36.53733,27.6134 -56.1,39.4934 -4.412,2.68 -9.12267,5.3733 -14.28267,5.4933 -7.72666,0.1733 -14.276,-5.3467 -19.91466,-10.6267 -53.57867,-50.2266 -101.688,-114.7333 -102.35467,-188.17329 -0.24666,-27.2 6.96534,-55.76 26.12667,-75.06667 29.98667,-30.22666 73.26533,-24.25333 87.33733,15.13334 16.64667,46.6 18.08267,96.26666 28.552,144.26662" /><path
       id="path2174"
       style="fill:#935951;fill-opacity:1;fill-rule:nonzero;stroke:none;stroke-width:0.133333"
       d="m 270.70133,619.85342 c -3.24534,-5.10667 -6.592,-10.76 -12.22134,-12.97334 -5.628,-2.22666 -13.76533,1.84 -12.71333,7.78667 -3.16,-9.50667 -15.52133,-14.66666 -24.508,-10.21333 -8.98533,4.45333 -12.368,17.41333 -6.70533,25.69333 -3.36,-3.85333 -10.08267,-2.85333 -13.55067,0.89333 -3.46933,3.74667 -4.33333,9.21334 -4.25333,14.32 0.29733,19.32 11.52533,36.65334 23.58133,51.74667 32.192,40.29333 74.35867,73.85333 123.55866,89.32 23.45867,7.37333 50.66134,10.05333 71.27867,-3.36 20.692,-13.45334 29.44267,-41.66667 22.39733,-65.32 -4.56533,-15.34667 -23.708,-54.61333 -64.588,-45.98667 -47.41866,10.01334 -82.97733,-21.53333 -102.27599,-51.90666" /><path
       id="path2176"
       style="fill:#efb081;fill-opacity:1;fill-rule:nonzero;stroke:none;stroke-width:0.133333"
       d="m 460.27866,773.62675 c -10.31467,22.86666 -12.10667,48.78666 -9.876,73.77333 1.76,19.70666 6.00933,39.44 14.98933,57.08 20.168,39.6 65.196,65.09333 109.53066,62 9.48667,-0.66667 18.94267,-2.53334 27.70933,-6.21334 19.90534,-8.36 35.11067,-25.70666 44.33334,-45.22666 17.84,-37.76 14.59866,-82.69333 0.87733,-122.13333 -5.388,-15.49334 -12.55333,-30.8 -24.23067,-42.30667 -13.25733,-13.08 -31.41999,-20.25333 -49.77733,-23.33333 -46.85466,-7.89333 -92.15066,-1.09333 -113.55599,46.36" /><path
       id="path2178"
       style="fill:#84504a;fill-opacity:1;fill-rule:nonzero;stroke:none;stroke-width:0.133333"
       d="m 339.21332,795.82675 c 1.148,0.6 2.376,1.25333 2.93067,2.42666 0.45067,0.94667 0.36533,2.05334 0.308,3.10667 -0.504,9.14667 1.85067,18.2 4.184,27.06667 6.51467,24.74666 13.72533,49.49333 20.24133,74.25333 -4.26133,-16.30667 -6.51066,-33.16 -7.972,-49.94667 -1.56933,-18.02666 -3.044,-36.22666 -0.732,-54.18666 1.24667,-9.66667 3.57867,-19.14667 5.908,-28.61334 -29.492,-2.64 -58.08133,-12.76 -83.66133,-27.68 -13.19866,-7.69333 -25.636,-16.65333 -37.284,-26.53333 -5.77466,-4.90666 -11.356,-10.02666 -16.752,-15.33333 -4.128,-4.06667 -7.98266,-9.38667 -12.62133,-12.76 1.78667,6.45333 8.25333,12.98667 12.50667,18.02667 7.53733,8.93333 15.49866,17.49333 23.84533,25.66666 16.90267,16.56 35.384,31.49333 55.11467,44.54667 10.96133,7.25333 22.308,13.92 33.98399,19.96" /><path
       id="path2180"
       style="fill:#513325;fill-opacity:1;fill-rule:nonzero;stroke:none;stroke-width:0.133333"
       d="m 814.55198,793.66675 c -1.25467,36.09333 14.12133,72.18666 35.872,100.47999 3.99867,5.2 11.52533,-0.48 7.18933,-5.54666 -23.444,-27.37333 -35.47866,-60.12 -42.87733,-94.96 l -0.184,0.0267" /><path
       id="path2182"
       style="fill:#513325;fill-opacity:1;fill-rule:nonzero;stroke:none;stroke-width:0.133333"
       d="m 835.90398,723.60008 c -3.112,23.72 4.6,48.82667 13.504,70.57333 4.40133,10.74667 9.56133,21.16 15.564,31.10667 3.27866,5.42667 6.828,10.70667 10.36266,15.97333 2.62667,3.92 5.11334,8.74667 10.49067,8.25334 2.33067,-0.21334 4.516,-1.49334 5.136,-3.90667 0.064,-0.24 0.12533,-0.49333 0.188,-0.73333 1.304,-5.05334 -4.808,-8.37334 -8.53333,-4.96 -0.18534,0.17333 -0.372,0.33333 -0.55867,0.50666 2.152,-0.28 4.304,-0.54666 6.456,-0.82666 -3.87333,-1.8 -7.63333,-8.44 -10.06,-11.8 -3.06133,-4.25334 -5.92133,-8.65334 -8.63867,-13.13334 -5.81999,-9.58666 -10.93466,-19.64 -15.17999,-30.01333 -8.11467,-19.85333 -11.51467,-40.78667 -17.69334,-61.18666 -0.18533,-0.6 -0.964,-0.41334 -1.03733,0.14666" /><path
       id="path2184"
       style="fill:#513325;fill-opacity:1;fill-rule:nonzero;stroke:none;stroke-width:0.133333"
       d="m 853.80665,597.54675 c -1.88667,16.78667 -2.05467,33.21333 1.03333,49.86667 3.112,16.76 8.07067,33.05333 14.612,48.8 6.28533,15.13333 13.804,29.86666 22.66,43.65333 8.84,13.77333 19.12,29.28 33.53466,37.74666 9.108,5.34667 16.656,-8.13333 8.17467,-13.98666 -25.272,-17.44 -42.95733,-47.74667 -54.644,-75.58667 -11.97467,-28.52 -19.11333,-60.17333 -23.296,-90.77333 -0.17466,-1.26666 -1.95333,-0.78666 -2.07466,0.28" /><path
       id="path2186"
       style="fill:#513325;fill-opacity:1;fill-rule:nonzero;stroke:none;stroke-width:0.133333"
       d="m 911.47731,557.29342 c 10.09067,36.73333 39.23333,66.57333 68.74933,89.14666 7.08667,5.41334 15.35467,-7.88 7.116,-12.17333 -16.092,-8.41333 -30.46666,-19.50667 -42.66533,-33.09333 -12.15067,-13.53333 -22.05867,-29.16 -31.752,-44.49333 -0.472,-0.74667 -1.692,-0.26667 -1.448,0.61333" /><path
       id="path2188"
       style="fill:#513325;fill-opacity:1;fill-rule:nonzero;stroke:none;stroke-width:0.133333"
       d="m 835.78665,694.29342 c 16.65466,-26.22667 37.13866,-49.34667 63.27066,-66.4 25,-16.33334 53.30133,-30.86667 83.596,-32.90667 9.85467,-0.66666 7.50667,-15.77333 -1.77867,-13.13333 -30.50266,8.65333 -60.63333,19.29333 -85.87866,39.14666 -24.72134,19.44 -46.47733,44.36 -59.36,73.21334 l 0.15067,0.08" /><path
       id="path2190"
       style="fill:#513325;fill-opacity:1;fill-rule:nonzero;stroke:none;stroke-width:0.133333"
       d="m 826.23998,772.64008 c 19.58267,-17.94667 42.65066,-32.02667 67.50133,-41.44 11.81333,-4.46666 24.03067,-7.89333 36.456,-10.17333 6.19067,-1.13333 12.38667,-1.89333 18.66933,-2.25333 6.44134,-0.36 14.02,1 19.71067,-2.36 4.196,-2.46667 4.852,-9.70667 0,-12 -6.24933,-2.96 -12.86667,-1.06667 -19.47333,0.0933 -6.71734,1.17333 -13.42134,2.62667 -20.03067,4.30667 -13.36933,3.4 -26.38533,8.14666 -38.86533,14.01333 -24.77467,11.64 -46.81867,28.32 -65.21333,48.56 -0.76267,0.84 0.40666,2.01333 1.24533,1.25333" /><path
       id="path2192"
       style="fill:#513325;fill-opacity:1;fill-rule:nonzero;stroke:none;stroke-width:0.133333"
       d="m 813.21998,830.80008 c 15.076,-5.88 31.344,-7.58667 47.392,-8.54667 8.53733,-0.50666 17.09066,-0.66666 25.64133,-0.42666 7.37333,0.2 17.48267,3.42666 23.08133,-2.46667 2.13067,-2.24 1.90267,-5.32 0,-7.6 -5.24933,-6.28 -17.084,-3.18667 -24.36666,-2.54667 -9.43867,0.82667 -18.864,2.08 -28.18133,3.8 -14.476,2.69334 -33.94534,4.89334 -44.33867,16.46667 -0.47867,0.53333 -0.0227,1.64 0.772,1.32" /><path
       id="path2194"
       style="fill:#774844;fill-opacity:1;fill-rule:nonzero;stroke:none;stroke-width:0.133333"
       d="m 728.67998,783.93341 c 4.05467,23.50667 4.45467,47.49334 4.196,71.36 -0.092,8.56 -0.21866,17.41333 3.03733,25.33333 3.256,7.92 10.86534,14.73334 19.41467,14.22667 3.356,-0.21333 6.85333,-1.48 9.96533,-0.21333 1.94934,0.8 3.37734,2.46666 4.87867,3.94666 4.46933,4.4 11.972,7.49334 18.10533,8.81334 -6.23466,-30.58667 -14.23333,-61.18667 -21.636,-91.52 -3.39866,-13.92 -7.08266,-27.89333 -13.408,-40.76 -10.972,-22.32 -30.53066,-44.48 -50.32799,-59.44 0.54,4.92 5.49333,9.98667 7.888,14.4 3.08666,5.69333 5.76933,11.6 8.09866,17.62667 4.508,11.69333 7.66134,23.88 9.788,36.22666" /><path
       id="path2196"
       style="fill:#935951;fill-opacity:1;fill-rule:nonzero;stroke:none;stroke-width:0.133333"
       d="m 730.33332,699.24008 c 44.58533,32.53334 72.79066,86.45333 74.08133,141.61333 0.29466,12.58667 -0.97334,25.90667 -8.26534,36.16 -3.01333,4.24 -7.22666,7.93333 -12.32533,8.97333 -5.09733,1.04 -11.06,-1.21333 -13.11867,-6 -3.784,5.04 -12.50266,2.72 -15.83466,-2.62666 -3.332,-5.34667 -2.99067,-12.09333 -2.868,-18.4 0.492,-25.18667 -4.35067,-50.45333 -14.116,-73.68 -9.66267,-22.97333 -24.22133,-43.64 -33.95067,-66.58666 -7.388,-17.42667 -9.09866,-39.14667 -10.34,-44.48 14.236,11.04 22.02534,14.29333 36.73734,25.02666" /><path
       id="path2198"
       style="fill:#774844;fill-opacity:1;fill-rule:nonzero;stroke:none;stroke-width:0.133333"
       d="m 530.61599,1057.6401 c -9.76134,-13.8134 -24.804,-22.9734 -40.2,-29.9734 -15.39734,-7 -31.604,-12.2666 -46.42533,-20.4133 -7.40267,-4.08 -14.664,-9.10666 -18.876,-16.42666 35.60533,21.09336 76.89466,32.46666 118.27599,32.59996 41.38,0.1334 82.74267,-10.9733 118.484,-31.82662 12.80933,-7.46667 25.1,-16.36 34.01867,-28.21334 -10.48267,36.91996 -0.51867,76.67996 14.77066,111.87996 -12.244,-17.48 -22.34933,-36.4533 -30.01866,-56.3733 -5.708,3.6267 -51.53334,30.4533 -122.54533,32.2667 1.83733,0 -2.984,43.7733 -3.66934,47.72 -2.79333,16.0666 -6.02533,32.6666 -11.88,47.8933 4.99734,-12.9333 2.732,-27.7867 2.05334,-41.4533 -0.83067,-16.7067 -4.164,-33.7867 -13.988,-47.68" /><g
       transform="matrix(0.13949333,0,0,-0.13949333,0,2666.6667)"
       id="g2200"><path
         id="path2202"
         style="fill:#774844;fill-opacity:1;fill-rule:nonzero;stroke:none"
         d="m 2681.51,16141.4 c -28.21,-33.7 -50.09,-75.9 -46.49,-119.6 4.71,-57.4 53.23,-103.8 107.53,-123 54.31,-19.1 113.65,-16.2 171.03,-11.3 40.96,3.5 85.1,9.3 114.78,37.8 15.73,15.1 25.76,35.2 32.66,55.9 19.94,59.8 14.43,129 -20.11,181.7 -89.8,137.1 -270.69,84.1 -359.4,-21.5" /></g><g
       transform="matrix(0.13808,0,0,-0.13808,0,2666.6667)"
       id="g2204"><path
         id="path2206"
         style="fill:#29292d;fill-opacity:1;fill-rule:nonzero;stroke:none"
         d="m 2791.15,16168.6 c -9.9,-32.6 -3.11,-70.5 19.49,-96.1 33.37,-37.8 90.43,-42.2 140.63,-37.6 44.23,4.1 91.93,15.4 119.22,50.4 29.91,38.3 24.38,97.7 -7.45,134.4 -69.46,80.3 -239.88,54.6 -271.89,-51.1" /></g><g
       transform="matrix(0.13768133,0,0,-0.13768133,0,2666.6667)"
       id="g2208"><path
         id="path2210"
         style="fill:#ffffff;fill-opacity:1;fill-rule:nonzero;stroke:none"
         d="m 2872.58,16243.1 c -15.35,-15 -23.37,-39.4 -13.87,-58.7 9.5,-19.3 39.69,-26.5 53.44,-10 6.44,7.8 8.1,18.3 11.58,27.8 5.96,16.1 17.98,29.9 33.13,38 5.82,3.1 12.2,5.5 16.95,10.1 4.73,4.6 7.31,12.4 3.61,17.9 -21.5,31.8 -87.13,-7.7 -104.84,-25.1" /></g><g
       transform="matrix(0.13999466,0,0,-0.13999466,0,2666.6667)"
       id="g2212"><path
         id="path2214"
         style="fill:#774844;fill-opacity:1;fill-rule:nonzero;stroke:none"
         d="m 4815.58,16121.3 c 31.51,-37.8 55.87,-85.2 51.7,-134.2 -5.49,-64.3 -60.01,-116.1 -120.92,-137.4 -60.93,-21.3 -127.42,-17.8 -191.71,-12.1 -45.89,4.1 -95.34,10.8 -128.49,42.8 -17.58,16.9 -28.76,39.5 -36.42,62.7 -22.14,67.1 -15.73,144.6 23.16,203.6 101.1,153.3 303.63,93.3 402.68,-25.4" /></g><g
       transform="matrix(0.13844,0,0,-0.13844,0,2666.6667)"
       id="g2216"><path
         id="path2218"
         style="fill:#29292d;fill-opacity:1;fill-rule:nonzero;stroke:none"
         d="m 4477.82,16152.7 c -11.11,-36.7 -3.49,-79.1 21.85,-107.8 37.44,-42.4 101.44,-47.4 157.76,-42.3 49.61,4.6 103.12,17.2 133.74,56.5 33.54,43.1 27.34,109.6 -8.36,150.9 -77.91,90 -269.08,61.2 -304.99,-57.3" /></g><g
       transform="matrix(0.13799066,0,0,-0.13799066,0,2666.6667)"
       id="g2220"><path
         id="path2222"
         style="fill:#ffffff;fill-opacity:1;fill-rule:nonzero;stroke:none"
         d="m 4574.66,16236.2 c -17.21,-16.9 -26.2,-44.3 -15.55,-65.9 10.65,-21.7 44.53,-29.7 59.96,-11.2 7.24,8.7 9.09,20.5 13.01,31.1 6.67,18.1 20.16,33.6 37.16,42.7 6.54,3.5 13.7,6.2 19.02,11.3 5.32,5.2 8.2,14 4.05,20.1 -24.11,35.7 -97.76,-8.6 -117.65,-28.1" /></g><path
       id="path2224"
       style="fill:#d89e77;fill-opacity:1;fill-rule:nonzero;stroke:none;stroke-width:0.133333"
       d="m 646.96532,915.04008 c 17.84133,-37.76 14.59866,-82.69333 0.87733,-122.13333 -5.388,-15.49334 -12.55333,-30.8 -24.23067,-42.30667 -5.104,-5.04 -10.94133,-9.18667 -17.23066,-12.57333 8.58133,14.97333 13.39866,32.17333 14.26533,49.45333 1.27733,25.46667 -5.636,50.97333 -17.65067,73.45333 -13.90133,26.01333 -35.77066,49.01333 -63.81866,58.12 -15.12667,4.92 -31.44267,5.42667 -47.00267,2.38667 -3.964,-0.77334 -12.45466,-4.72 -21.80666,-8.29334 21.97333,34.58667 63.552,56.18667 104.55466,53.33334 9.48667,-0.66667 18.94267,-2.53334 27.70933,-6.21334 19.90534,-8.36 35.11067,-25.70666 44.33334,-45.22666" /><g
       transform="matrix(0.14106533,0,0,-0.14106533,0,2666.6667)"
       id="g2226"><path
         id="path2228"
         style="fill:#774844;fill-opacity:1;fill-rule:nonzero;stroke:none"
         d="m 2651.7,16174 c -3.89,-12.5 -5.63,-26.8 1.22,-37.9 8.01,-13 25.48,-17.3 40.52,-14.7 15.05,2.5 28.57,10.3 42.39,16.7 31.42,14.6 65.99,22.4 100.62,22.7 18.72,0.1 39.83,-1.1 53.4,11.8 10.42,9.9 13.09,26.2 9,39.9 -4.09,13.8 -14.05,25.2 -25.54,33.8 -71.74,53.7 -195.17,12.2 -221.61,-72.3" /></g><g
       transform="matrix(0.141492,0,0,-0.141492,0,2666.6667)"
       id="g2230"><path
         id="path2232"
         style="fill:#774844;fill-opacity:1;fill-rule:nonzero;stroke:none"
         d="m 4468.43,16196.2 c 11.09,-5.6 24.14,-4.9 36.56,-4.8 60.27,0.4 120.54,-17.8 170.43,-51.7 17.19,-11.6 36.12,-25.8 56.47,-21.7 13.91,30.1 0.24,66.1 -19.8,92.6 -42.37,55.9 -109.94,82.6 -178.74,83.6 -29.4,0.4 -46.56,5.8 -68.66,-20 -18.06,-21 -27.27,-62.3 3.74,-78" /></g><g
       transform="matrix(0.135408,0,0,-0.135408,0,2666.6667)"
       id="g2234"><path
         id="path2236"
         style="fill:#3f3f42;fill-opacity:1;fill-rule:nonzero;stroke:none"
         d="m 3731.83,16099.6 c -0.27,0 -0.55,0 -0.81,0 -11.36,0.2 -22.11,5.2 -31.74,11.2 -25.53,16 -45.91,41.4 -51.96,70.9 -6.04,29.6 3.9,62.8 27.7,81.2 13.8,10.7 30.96,16 47.89,20.2 47.94,11.9 98.48,16.9 147.9,16.9 0.84,0 1.69,0 2.53,0 31.44,-0.1 100.68,-8.2 110.61,-44.6 4.35,-15.9 -8.88,-31.6 -23.57,-39 -16.27,-8.3 -34.61,-10.5 -53.02,-10.5 -6.9,0 -13.79,0.3 -20.59,0.7 -12.68,0.8 -25.49,1.9 -38.2,1.9 -12.37,0 -24.64,-1 -36.54,-4.4 -24.12,-6.7 -46.84,-25.7 -49.26,-50.7 -1.26,-13 2.89,-27.1 -3.16,-38.7 -5.1,-9.9 -16.67,-15.1 -27.78,-15.1" /></g><g
       transform="matrix(0.14387733,0,0,-0.14387733,0,2666.6667)"
       id="g2238"><path
         id="path2240"
         style="fill:#a86956;fill-opacity:1;fill-rule:nonzero;stroke:none"
         d="m 2874.35,16231.8 c 10.94,-3.5 21.67,-7.5 32.36,-11.8 3.27,-1.3 2.65,-1.1 -1.83,0.8 1.31,-0.5 2.64,-1.1 3.94,-1.7 1.98,-0.8 3.95,-1.7 5.91,-2.6 5.23,-2.4 10.41,-4.9 15.53,-7.5 19.89,-10 38.96,-21.5 57.15,-34.3 14,-9.9 36.89,-3 44.65,11.7 8.85,16.7 3.21,34.1 -11.71,44.6 -39.26,27.7 -82.95,49 -128.65,63.7 -16.26,5.3 -36.35,-6.1 -40.15,-22.7 -4.06,-17.9 5.4,-34.6 22.8,-40.2" /></g><g
       transform="matrix(0.14444666,0,0,-0.14444666,0,2666.6667)"
       id="g2242"><path
         id="path2244"
         style="fill:#a86956;fill-opacity:1;fill-rule:nonzero;stroke:none"
         d="m 3048.02,16238.4 c 5.71,-3.5 11.21,-7.3 16.53,-11.4 -2.19,1.7 -4.39,3.4 -6.57,5.1 12.64,-9.9 23.98,-21.2 33.79,-33.9 -1.69,2.2 -3.38,4.4 -5.08,6.6 5.66,-7.4 10.77,-15.2 15.29,-23.3 3.92,-7.1 11.71,-12.9 19.42,-15 7.79,-2.1 18.15,-1.2 25.05,3.3 15.05,9.7 20.51,28.5 11.66,44.5 -18.26,32.8 -45.34,60.6 -77.28,80.2 -7.09,4.4 -17.1,5.5 -25.05,3.3 -7.54,-2.1 -15.7,-7.9 -19.42,-14.9 -8.39,-15.9 -3.81,-35 11.66,-44.5" /></g><g
       transform="matrix(0.142288,0,0,-0.142288,0,2666.6667)"
       id="g2246"><path
         id="path2248"
         style="fill:#a86956;fill-opacity:1;fill-rule:nonzero;stroke:none"
         d="m 3238.93,16249.4 c 17.16,-25.7 31.84,-52.9 43.86,-81.4 -1.1,2.6 -2.22,5.3 -3.32,7.9 2.28,-5.5 4.48,-11 6.59,-16.6 3.11,-8.2 7.3,-15.1 15.15,-19.7 7.07,-4.1 17.5,-5.9 25.43,-3.3 7.98,2.6 15.68,7.5 19.71,15.2 3.93,7.4 6.43,17.2 3.33,25.4 -14.07,37.1 -31.68,72.7 -53.78,105.8 -4.8,7.1 -11.21,12.8 -19.71,15.1 -7.9,2.2 -18.42,1.2 -25.42,-3.3 -14.29,-9.2 -22.11,-29.8 -11.84,-45.1" /></g><g
       transform="matrix(0.14116533,0,0,-0.14116533,0,2666.6667)"
       id="g2250"><path
         id="path2252"
         style="fill:#a86956;fill-opacity:1;fill-rule:nonzero;stroke:none"
         d="m 3130.03,16244.8 c 17.84,-30.9 35.67,-61.8 53.49,-92.7 8.69,-15.1 30.46,-21.7 45.5,-12 15.21,9.8 21.23,29.4 11.93,45.5 -17.82,30.9 -35.65,61.9 -53.48,92.8 -8.69,15.1 -30.47,21.6 -45.5,11.9 -15.21,-9.8 -21.23,-29.4 -11.94,-45.5" /></g><g
       transform="matrix(0.13905333,0,0,-0.13905333,0,2666.6667)"
       id="g2254"><path
         id="path2256"
         style="fill:#a86956;fill-opacity:1;fill-rule:nonzero;stroke:none"
         d="m 3395.36,16252.7 c 15.57,-48.1 33.72,-95.2 53.8,-141.6 3.13,-7.2 12.96,-13.5 20.18,-15.5 8.09,-2.2 18.84,-1.2 26.02,3.4 7.21,4.6 13.55,11.6 15.51,20.2 2.15,9.4 0.4,17.2 -3.4,26 -1.35,3.1 -2.69,6.2 -4.03,9.3 -3.43,8.1 2.78,-6.7 -0.57,1.4 -2.27,5.5 -4.54,11 -6.77,16.5 -4.29,10.6 -8.46,21.3 -12.51,32.1 -8.22,21.8 -15.91,43.9 -23.12,66.1 -5.43,16.8 -23.64,29.4 -41.52,23.6 -16.78,-5.4 -29.41,-23.5 -23.59,-41.5" /></g><g
       transform="matrix(0.13762266,0,0,-0.13762266,0,2666.6667)"
       id="g2258"><path
         id="path2260"
         style="fill:#a86956;fill-opacity:1;fill-rule:nonzero;stroke:none"
         d="m 3654.37,16255.4 c 5.83,-32.2 11.65,-64.3 17.47,-96.5 1.46,-7.9 8.93,-16.4 15.68,-20.4 7.31,-4.2 18.09,-6 26.29,-3.4 8.25,2.7 16.22,7.8 20.39,15.7 4.5,8.5 5.15,16.8 3.44,26.3 -5.82,32.1 -11.65,64.3 -17.48,96.4 -1.44,8 -8.92,16.5 -15.68,20.4 -7.31,4.3 -18.09,6.1 -26.28,3.4 -8.25,-2.6 -16.22,-7.7 -20.39,-15.6 -4.5,-8.5 -5.15,-16.8 -3.44,-26.3" /></g><g
       transform="matrix(0.14098933,0,0,-0.14098933,0,2666.6667)"
       id="g2262"><path
         id="path2264"
         style="fill:#a86956;fill-opacity:1;fill-rule:nonzero;stroke:none"
         d="m 3512.06,16248.9 c 11.4,-25.7 22.8,-51.4 34.2,-77.1 3.17,-7.1 12.71,-13.3 19.9,-15.3 7.97,-2.1 18.59,-1.2 25.66,3.4 7.11,4.6 13.37,11.4 15.3,19.9 0.4,3 0.79,5.9 1.19,8.9 -0.02,6 -1.53,11.6 -4.55,16.8 -11.39,25.6 -22.8,51.3 -34.19,77 -3.17,7.1 -12.72,13.3 -19.91,15.3 -7.97,2.2 -18.58,1.2 -25.66,-3.3 -7.11,-4.6 -13.36,-11.5 -15.3,-20 -0.4,-2.9 -0.79,-5.9 -1.19,-8.8 0.02,-6 1.53,-11.6 4.55,-16.8" /></g><g
       transform="matrix(0.14420933,0,0,-0.14420933,0,2666.6667)"
       id="g2266"><path
         id="path2268"
         style="fill:#a86956;fill-opacity:1;fill-rule:nonzero;stroke:none"
         d="m 3291.21,16257.4 c 7.68,-19.2 15.35,-38.5 23.04,-57.7 1,-4.2 2.95,-7.9 5.82,-11.1 2.29,-3.5 5.35,-6.3 9.14,-8.4 6.98,-4 17.26,-5.8 25.08,-3.2 7.88,2.5 15.48,7.4 19.45,14.9 3.84,7.3 6.47,17.1 3.29,25.1 -7.68,19.3 -15.36,38.5 -23.03,57.7 -1.01,4.3 -2.96,8 -5.84,11.1 -2.29,3.5 -5.33,6.3 -9.12,8.4 -6.99,4.1 -17.27,5.8 -25.1,3.3 -7.87,-2.6 -15.47,-7.5 -19.45,-15 -3.83,-7.2 -6.46,-17.1 -3.28,-25.1" /></g><g
       transform="matrix(0.144352,0,0,-0.144352,0,2666.6667)"
       id="g2270"><path
         id="path2272"
         style="fill:#a86956;fill-opacity:1;fill-rule:nonzero;stroke:none"
         d="m 3576.22,16267.1 c -1.63,-19.6 0.47,-39.8 5.26,-58.8 1.96,-7.8 8.04,-15.4 14.94,-19.4 6.98,-4.1 17.24,-5.8 25.06,-3.3 7.87,2.5 15.46,7.4 19.43,14.9 4.15,7.9 5.48,16.4 3.28,25.1 -1.39,5.6 -2.48,11.2 -3.27,16.8 0.39,-2.8 0.78,-5.7 1.16,-8.6 -1.46,11.1 -1.75,22.2 -0.81,33.3 0.16,4.5 -0.77,8.7 -2.8,12.6 -1.32,4 -3.56,7.5 -6.73,10.4 -5.64,5.6 -14.9,9.9 -23,9.5 -8.41,-0.3 -17.14,-3.1 -23,-9.5 -1.7,-2.2 -3.39,-4.4 -5.09,-6.6 -2.93,-5 -4.41,-10.5 -4.43,-16.4" /></g><g
       transform="matrix(0.14399066,0,0,-0.14399066,0,2666.6667)"
       id="g2274"><path
         id="path2276"
         style="fill:#a86956;fill-opacity:1;fill-rule:nonzero;stroke:none"
         d="m 3844.36,16275.3 c -11.21,-28.8 -19.85,-58.6 -25.84,-89 -1.71,-8.7 -1.3,-17.3 3.29,-25.1 3.95,-6.8 11.71,-13.2 19.49,-15 8.33,-1.9 17.71,-1.5 25.11,3.3 6.85,4.4 13.35,11.2 14.99,19.5 6,30.4 14.63,60.1 25.84,89 2.88,7.4 0.58,18.5 -3.29,25.1 -3.95,6.8 -11.71,13.2 -19.48,15 -8.35,1.9 -17.71,1.5 -25.12,-3.3 -7.55,-4.8 -11.75,-11.1 -14.99,-19.5" /></g><g
       transform="matrix(0.14194533,0,0,-0.14194533,0,2666.6667)"
       id="g2278"><path
         id="path2280"
         style="fill:#a86956;fill-opacity:1;fill-rule:nonzero;stroke:none"
         d="m 3657.75,16266.6 c 1.69,-31.6 6.42,-63.2 14.39,-93.8 4.35,-16.7 23.85,-28.5 40.68,-23.1 17.25,5.6 27.77,22.7 23.1,40.7 -4.37,16.8 -7.72,33.8 -10.05,51 0.39,-3 0.78,-5.9 1.18,-8.8 -1.5,11.3 -2.55,22.6 -3.16,34 -0.46,8.7 -3.36,17 -9.68,23.3 -5.73,5.8 -15.14,10.1 -23.39,9.7 -8.55,-0.4 -17.42,-3.2 -23.38,-9.7 -5.76,-6.2 -10.16,-14.6 -9.69,-23.3" /></g><g
       transform="matrix(0.138352,0,0,-0.138352,0,2666.6667)"
       id="g2282"><path
         id="path2284"
         style="fill:#a86956;fill-opacity:1;fill-rule:nonzero;stroke:none"
         d="m 3837.2,16252.8 c 5.79,-26.2 11.57,-52.3 17.35,-78.5 3.84,-17.4 24.93,-29.1 41.75,-23.7 18.23,5.9 27.8,23.2 23.7,41.7 -5.78,26.2 -11.57,52.4 -17.35,78.6 -3.84,17.3 -24.92,29.1 -41.74,23.7 -18.23,-5.9 -27.81,-23.2 -23.71,-41.8" /></g><g
       transform="matrix(0.13819066,0,0,-0.13819066,0,2666.6667)"
       id="g2286"><path
         id="path2288"
         style="fill:#a86956;fill-opacity:1;fill-rule:nonzero;stroke:none"
         d="m 4077.75,16123.1 c 5.41,22 11.66,43.7 18.84,65.2 3.52,10.5 7.25,21 11.21,31.3 2.04,5.4 4.15,10.8 6.31,16.1 0.92,2.3 1.86,4.6 2.81,6.9 1.44,3.4 1.26,3 -0.56,-1.4 0.64,1.6 1.3,3.1 1.95,4.6 3.77,8.7 6.05,16.6 3.42,26.2 -2.17,7.8 -8.26,16.4 -15.61,20.3 -14.64,7.7 -38.96,5.2 -46.48,-12.2 -19.45,-45.1 -35.67,-91.2 -47.41,-138.9 -4.24,-17.2 5.51,-37.6 23.72,-41.8 17.56,-4 37.26,5.3 41.8,23.7" /></g><g
       transform="matrix(0.14029066,0,0,-0.14029066,0,2666.6667)"
       id="g2290"><path
         id="path2292"
         style="fill:#a86956;fill-opacity:1;fill-rule:nonzero;stroke:none"
         d="m 3953.32,16191.9 c 8.42,18.7 16.83,37.4 25.24,56.2 2.45,3.8 3.77,7.9 3.97,12.4 1,4.4 0.8,8.9 -0.6,13.3 -2.14,7.8 -8.13,16.2 -15.37,20 -7.77,4.1 -17.18,6.2 -25.79,3.4 -7.78,-2.5 -16.5,-7.6 -19.99,-15.4 -8.42,-18.7 -16.84,-37.4 -25.25,-56.1 -2.44,-3.9 -3.77,-8 -3.97,-12.5 -1,-4.4 -0.8,-8.9 0.6,-13.3 2.14,-7.8 8.13,-16.2 15.38,-20 7.76,-4.1 17.17,-6.2 25.78,-3.4 7.79,2.5 16.51,7.6 20,15.4" /></g><g
       transform="matrix(0.14197866,0,0,-0.14197866,0,2666.6667)"
       id="g2294"><path
         id="path2296"
         style="fill:#a86956;fill-opacity:1;fill-rule:nonzero;stroke:none"
         d="m 4163.42,16114 c 2.21,6.1 4.56,12.2 7,18.2 1.97,4.8 0.28,-1 -0.51,-1.2 l 1.96,4.4 c 1.31,3 2.66,5.9 4.04,8.9 5.68,12.1 11.91,23.9 18.65,35.4 6.54,11.2 13.56,22.1 21.04,32.7 1.87,2.7 3.76,5.3 5.69,7.9 0.97,1.3 1.96,2.6 2.92,3.9 2.73,3.7 -3.62,-4.6 -0.74,-1 4.3,5.4 8.64,10.8 13.11,16 11.24,13.1 13.86,34.1 0,46.8 -12.35,11.3 -34.75,14 -46.76,0 -39.31,-45.9 -69.47,-97.6 -90.17,-154.4 -5.93,-16.3 6.65,-36.9 23.09,-40.7 18.66,-4.2 34.33,5.7 40.68,23.1" /></g><g
       transform="matrix(0.14394666,0,0,-0.14394666,0,2666.6667)"
       id="g2298"><path
         id="path2300"
         style="fill:#a86956;fill-opacity:1;fill-rule:nonzero;stroke:none"
         d="m 4253.89,16197.5 c 12.45,15.5 24.9,31 37.36,46.4 3.17,3 5.43,6.5 6.74,10.5 2.04,3.9 2.98,8.1 2.81,12.6 0,8 -3.56,17.5 -9.55,23.1 -6.22,5.7 -14.39,9.9 -23.06,9.5 -2.9,-0.4 -5.79,-0.8 -8.67,-1.1 -5.54,-1.6 -10.32,-4.4 -14.4,-8.4 -12.45,-15.5 -24.9,-31 -37.35,-46.4 -3.18,-3 -5.43,-6.5 -6.74,-10.5 -2.05,-3.9 -2.98,-8.1 -2.81,-12.6 0,-8 3.55,-17.6 9.55,-23.1 6.22,-5.7 14.38,-9.9 23.07,-9.5 2.89,0.4 5.78,0.8 8.67,1.2 5.52,1.5 10.32,4.3 14.38,8.3" /></g><g
       transform="matrix(0.144052,0,0,-0.144052,0,2666.6667)"
       id="g2302"><path
         id="path2304"
         style="fill:#a86956;fill-opacity:1;fill-rule:nonzero;stroke:none"
         d="m 4050.57,16133.8 c 10.66,19.6 22.2,38.8 34.65,57.3 6.14,9.1 12.48,18.1 19.03,27 1.65,2.2 3.29,4.4 4.96,6.5 0.6,0.8 3.59,4.7 0.59,0.8 -3,-3.9 0,0 0.61,0.8 3.62,4.6 7.28,9.1 10.99,13.7 5.65,6.8 9.54,13.8 9.54,23 0,8 -3.55,17.5 -9.54,23 -11.98,11 -34.52,14.1 -46.08,0 -30.64,-37.2 -58.03,-76.8 -81.03,-119.2 -8.14,-15 -4.2,-36.2 11.69,-44.6 15.21,-8 35.89,-4.3 44.59,11.7" /></g><path
       id="path2306"
       style="fill:#a86956;fill-opacity:1;fill-rule:nonzero;stroke:none;stroke-width:0.133333"
       d="m 382.62266,698.17342 c -3.97734,9.13333 -6.16667,18.82666 -6.21734,28.81333 -0.0133,2.45333 2.168,4.8 4.69467,4.69333 2.55333,-0.12 4.68,-2.06666 4.69467,-4.69333 0.024,-4.70667 0.36933,-8.08 1.256,-12.26667 0.43466,-2.05333 0.968,-4.09333 1.59466,-6.10666 0.33867,-1.08 0.70534,-2.16 1.1,-3.22667 0.16934,-0.45333 0.34267,-0.90667 0.52134,-1.36 0.12,-0.29333 0.24,-0.6 0.364,-0.89333 -0.15867,0.37333 -0.12667,0.29333 0.0987,-0.22667 0.97734,-2.24 0.73867,-5.14667 -1.684,-6.42667 -2.028,-1.06666 -5.376,-0.72 -6.42266,1.69334" /><path
       id="path2308"
       style="fill:#a86956;fill-opacity:1;fill-rule:nonzero;stroke:none;stroke-width:0.133333"
       d="m 411.56266,709.78675 c -1.40134,5.30667 -2.804,10.62667 -4.20534,15.93333 -0.62666,2.37334 0.78934,5.21334 3.27867,5.77334 2.46,0.56 5.10533,-0.73334 5.776,-3.28 1.40133,-5.30667 2.80267,-10.61334 4.204,-15.93334 0.62667,-2.37333 -0.788,-5.2 -3.27867,-5.77333 -2.45866,-0.56 -5.104,0.74667 -5.77466,3.28" /><path
       id="path2310"
       style="fill:#a86956;fill-opacity:1;fill-rule:nonzero;stroke:none;stroke-width:0.133333"
       d="m 405.07999,780.05341 c -0.49733,9.68 0.79067,19.49334 3.76267,28.72 0.75066,2.33334 3.29066,4.09334 5.77466,3.28 2.336,-0.74666 4.084,-3.26666 3.27867,-5.77333 -0.68533,-2.13333 -1.28933,-4.28 -1.79067,-6.46667 -0.26933,-1.17333 -0.51066,-2.34666 -0.72266,-3.53333 -0.092,-0.50667 -0.17734,-1.01333 -0.25867,-1.53333 -0.0533,-0.33334 -0.10533,-0.68 -0.15467,-1.01334 0.0373,0.30667 0.036,0.29334 -0.005,-0.04 -0.592,-4.52 -0.72933,-9.09333 -0.49467,-13.64 0.12534,-2.45333 -2.24933,-4.81333 -4.69466,-4.69333 -2.652,0.12 -4.56,2.05333 -4.69467,4.69333" /><path
       id="path2312"
       style="fill:#a86956;fill-opacity:1;fill-rule:nonzero;stroke:none;stroke-width:0.133333"
       d="m 372.55866,830.06675 c 3.544,9.54666 7.088,19.09333 10.63333,28.64 0.85067,2.30666 3.216,4.10666 5.77467,3.28 2.248,-0.72 4.19333,-3.30667 3.27866,-5.77334 -3.544,-9.54666 -7.088,-19.09333 -10.632,-28.65333 -0.852,-2.29333 -3.21733,-4.10667 -5.776,-3.28 -2.24933,0.73333 -4.19333,3.32 -3.27866,5.78667" /><path
       id="path2314"
       style="fill:#a86956;fill-opacity:1;fill-rule:nonzero;stroke:none;stroke-width:0.133333"
       d="m 413.28132,905.50674 c 3.39867,7.88 7.584,15.4 12.49867,22.44 1.404,2 4.17333,3.13334 6.424,1.68 1.996,-1.29333 3.188,-4.26666 1.684,-6.42666 -4.91467,-7.04 -9.10133,-14.54667 -12.49867,-22.42667 -0.976,-2.26667 -4.47066,-2.94667 -6.424,-1.69333 -2.34933,1.52 -2.728,4 -1.684,6.42666" /><path
       id="path2316"
       style="fill:#a86956;fill-opacity:1;fill-rule:nonzero;stroke:none;stroke-width:0.133333"
       d="m 424.27999,842.66675 c 0.54133,7.28 2.824,14.37333 6.94267,20.42666 1.37866,2.02667 4.192,3.13334 6.42266,1.69334 2.01867,-1.30667 3.16134,-4.25334 1.68534,-6.42667 -0.87867,-1.29333 -1.68134,-2.62667 -2.392,-4.02667 -0.33467,-0.65333 -0.94134,-1.52 -1.05734,-2.25333 0.0773,0.17333 0.15467,0.36 0.232,0.54667 -0.0787,-0.2 -0.15466,-0.38667 -0.23066,-0.58667 -0.15067,-0.38667 -0.29467,-0.77333 -0.43067,-1.17333 -0.51467,-1.46667 -0.93467,-2.97334 -1.25733,-4.50667 -0.152,-0.70667 -0.27067,-1.42667 -0.388,-2.14667 -0.0747,-0.52 -0.06,-0.41333 0.0413,0.32 -0.0253,-0.2 -0.0493,-0.41333 -0.0707,-0.61333 -0.044,-0.41333 -0.0787,-0.82667 -0.10933,-1.25333 -0.18133,-2.44 -2.028,-4.81334 -4.69467,-4.69334 -2.38666,0.10667 -4.88933,2.08 -4.69333,4.69334" /><path
       id="path2318"
       style="fill:#a86956;fill-opacity:1;fill-rule:nonzero;stroke:none;stroke-width:0.133333"
       d="m 396.36266,948.97341 c 2.68266,4.72 6.12266,9.06667 10.11066,12.74667 0.90934,0.82666 2.06534,1.37333 3.32,1.37333 1.152,0 2.52667,-0.52 3.32,-1.37333 0.82134,-0.90667 1.43067,-2.08 1.37467,-3.32 -0.0533,-1.22667 -0.45333,-2.48 -1.37467,-3.32 -2.00533,-1.85334 -3.85333,-3.86667 -5.528,-6.01334 0.244,0.32 0.48934,0.62667 0.73334,0.94667 -1.416,-1.82667 -2.70134,-3.76 -3.848,-5.77333 -1.21734,-2.13334 -4.30934,-3.05334 -6.424,-1.68 -2.156,1.38666 -2.98534,4.13333 -1.684,6.41333" /><path
       id="path2320"
       style="fill:#a86956;fill-opacity:1;fill-rule:nonzero;stroke:none;stroke-width:0.133333"
       d="m 475.38932,990.00008 c 5.268,2.89333 10.536,5.8 15.80533,8.69333 2.15067,1.18667 5.21867,0.6 6.42267,-1.68 1.164,-2.2 0.61333,-5.16 -1.684,-6.42667 -5.268,-2.89333 -10.53733,-5.8 -15.80533,-8.69333 -2.152,-1.18667 -5.21867,-0.6 -6.424,1.68 -1.16267,2.2 -0.61334,5.16 1.68533,6.42667" /><path
       id="path2322"
       style="fill:#a86956;fill-opacity:1;fill-rule:nonzero;stroke:none;stroke-width:0.133333"
       d="m 470.57065,707.68008 c -0.40533,0.54667 -0.764,1.12 -1.068,1.72 -0.46266,0.93334 -0.876,1.90667 -1.17733,2.89334 -0.30133,1 -0.42933,2.02666 -0.55733,3.05333 -0.0867,0.69333 -0.11467,1.38667 -0.0773,2.08 0.0667,1.25333 0.47867,2.42667 1.37467,3.32 0.81467,0.81333 2.15067,1.42667 3.32,1.38667 1.21467,-0.0533 2.47333,-0.45334 3.32,-1.38667 0.81733,-0.88 1.44133,-2.06667 1.37467,-3.32 -0.0373,-0.69333 -0.0107,-1.38667 0.0773,-2.08 -0.056,0.41333 -0.112,0.82667 -0.168,1.24 0.14,-1.01333 0.412,-2 0.81067,-2.96 -0.15867,0.38667 -0.316,0.76 -0.47334,1.13333 0.35867,-0.84 0.80934,-1.61333 1.352,-2.34666 0.34267,-0.53334 0.528,-1.12 0.55734,-1.74667 0.14,-0.61333 0.112,-1.24 -0.084,-1.86667 -0.3,-1.09333 -1.14267,-2.26666 -2.15734,-2.81333 -1.08933,-0.57333 -2.40933,-0.85333 -3.61733,-0.46667 -0.37467,0.16 -0.748,0.32 -1.12267,0.46667 -0.70533,0.42667 -1.26666,0.98667 -1.684,1.69333" /><path
       id="path2324"
       style="fill:#a86956;fill-opacity:1;fill-rule:nonzero;stroke:none;stroke-width:0.133333"
       d="m 626.05732,722.60008 c 0.22133,0.16 0.43866,0.32 0.65466,0.49334 -0.31733,-0.25334 -0.63333,-0.49334 -0.94933,-0.73334 1.88533,1.46667 3.57333,3.16 5.04533,5.04 -0.24533,-0.30666 -0.48933,-0.62666 -0.73466,-0.94666 1.5,1.94666 2.74666,4.08 3.70933,6.33333 -0.15733,-0.37333 -0.31467,-0.74667 -0.47333,-1.12 0.10533,0.25333 0.208,0.50667 0.30666,0.76 0.46134,1.17333 1.03067,2.14666 2.15867,2.8 1.00533,0.6 2.48933,0.84 3.616,0.48 1.13733,-0.37334 2.23333,-1.06667 2.80667,-2.16 0.55466,-1.05333 0.92533,-2.45333 0.47333,-3.61333 -1.152,-2.94667 -2.56133,-5.70667 -4.48933,-8.21334 -1.036,-1.36 -2.09867,-2.66666 -3.316,-3.85333 -1.26,-1.24 -2.64534,-2.33333 -4.068,-3.37333 -0.924,-0.68 -2.56267,-0.76 -3.61867,-0.48 -1.088,0.30666 -2.268,1.14666 -2.80533,2.16 -0.57467,1.09333 -0.864,2.41333 -0.47334,3.61333 0.39867,1.24 1.12,2.05333 2.15734,2.81333" /><path
       id="path2326"
       style="fill:#a86956;fill-opacity:1;fill-rule:nonzero;stroke:none;stroke-width:0.133333"
       d="m 671.98798,703.60008 c 5.55067,4.73334 11.10134,9.46667 16.652,14.18667 0.964,0.82667 2.016,1.37333 3.32,1.37333 1.152,0 2.52667,-0.50666 3.32,-1.37333 1.60667,-1.74667 1.996,-4.93333 0,-6.64 -5.552,-4.72 -11.10266,-9.45333 -16.65333,-14.18667 -0.96267,-0.81333 -2.01467,-1.37333 -3.32,-1.37333 -1.15067,0 -2.52667,0.52 -3.31867,1.37333 -1.60666,1.76 -1.996,4.94667 0,6.64" /><path
       id="path2328"
       style="fill:#a86956;fill-opacity:1;fill-rule:nonzero;stroke:none;stroke-width:0.133333"
       d="m 689.41865,780.37341 c 2.89067,7.05334 5.78133,14.10667 8.67333,21.16 0.484,1.17334 1.01334,2.13334 2.15734,2.8 1.00666,0.58667 2.48933,0.84 3.61733,0.48 2.18267,-0.70666 4.27733,-3.34666 3.27867,-5.78666 -2.89067,-7.04 -5.78134,-14.09334 -8.67334,-21.14667 -0.484,-1.18667 -1.01333,-2.13333 -2.15866,-2.8 -1.00534,-0.6 -2.488,-0.84 -3.616,-0.48 -2.18267,0.70667 -4.27734,3.34667 -3.27867,5.77333" /><path
       id="path2330"
       style="fill:#a86956;fill-opacity:1;fill-rule:nonzero;stroke:none;stroke-width:0.133333"
       d="m 690.64132,867.09341 c 0,8.13333 0,16.26667 0,24.41333 0,2.45334 2.15866,4.8 4.69466,4.69334 2.544,-0.12 4.69467,-2.06667 4.69467,-4.69334 0,-8.14666 0,-16.28 0,-24.41333 0,-2.46666 -2.16,-4.81333 -4.69467,-4.69333 -2.544,0.10667 -4.69466,2.05333 -4.69466,4.69333" /><path
       id="path2332"
       style="fill:#a86956;fill-opacity:1;fill-rule:nonzero;stroke:none;stroke-width:0.133333"
       d="m 719.11332,909.52008 c -0.35867,2.82666 -0.716,5.66666 -1.07467,8.49333 -0.14,1.10667 0.62667,2.57333 1.376,3.32 0.81333,0.81333 2.14933,1.42667 3.31867,1.37333 1.21466,-0.0533 2.47333,-0.45333 3.32,-1.37333 0.24533,-0.32 0.48933,-0.64 0.73333,-0.94667 0.42533,-0.73333 0.63867,-1.53333 0.64133,-2.37333 0.35867,-2.82667 0.716,-5.66667 1.07467,-8.49333 0.14,-1.10667 -0.62533,-2.57334 -1.37467,-3.32 -0.81466,-0.81334 -2.15066,-1.42667 -3.32,-1.37334 -1.21466,0.0533 -2.47333,0.45334 -3.32,1.37334 -0.244,0.32 -0.48933,0.64 -0.73333,0.94666 -0.42533,0.73334 -0.63867,1.53334 -0.64133,2.37334" /><path
       id="path2334"
       style="fill:#a86956;fill-opacity:1;fill-rule:nonzero;stroke:none;stroke-width:0.133333"
       d="m 660.39998,966.94674 c 1.45067,-1.48 2.75734,-3.13333 3.896,-4.86666 1.15334,-1.76 2.02134,-3.64 2.81734,-5.58667 0.19466,-0.62667 0.22266,-1.24 0.0827,-1.86667 -0.028,-0.62666 -0.21333,-1.21333 -0.556,-1.74666 -0.57066,-0.97334 -1.68666,-1.90667 -2.80533,-2.16 -1.20267,-0.26667 -2.552,-0.21334 -3.61867,0.48 -0.316,0.24 -0.63333,0.48 -0.94933,0.73333 -0.58267,0.58667 -0.98533,1.26667 -1.208,2.06667 l -0.11067,0.26666 c 0.15867,-0.37333 0.316,-0.74666 0.47334,-1.12 -0.88134,2.08 -2.02534,4.04 -3.40534,5.84 0.24534,-0.32 0.48934,-0.64 0.73467,-0.96 -0.62133,0.8 -1.284,1.56 -1.98933,2.29334 -0.84667,0.86666 -1.37467,2.09333 -1.37467,3.32 0,1.14666 0.51067,2.52 1.37467,3.30666 0.89466,0.82667 2.06933,1.44 3.32,1.38667 1.236,-0.0533 2.436,-0.48 3.31866,-1.38667" /><path
       id="path2336"
       style="fill:#a86956;fill-opacity:1;fill-rule:nonzero;stroke:none;stroke-width:0.133333"
       d="m 733.27198,737.44008 c 0.18667,0.13333 0.372,0.26667 0.55733,0.41333 0.59067,0.44 0.0747,0.10667 -0.18266,-0.14666 0.31066,0.32 0.728,0.57333 1.07066,0.86666 0.66934,0.56 1.31867,1.14667 1.95067,1.74667 1.296,1.25333 2.49067,2.58667 3.62533,3.97333 0.39467,0.48 -0.116,-0.14666 -0.224,-0.29333 0.13334,0.18667 0.27867,0.36 0.41467,0.54667 0.27333,0.37333 0.54133,0.74666 0.80133,1.12 0.496,0.72 0.968,1.45333 1.416,2.21333 0.944,1.57333 1.77334,3.22667 2.496,4.92 0.428,1 1.80667,1.88 2.80534,2.14667 1.124,0.32 2.62,0.17333 3.61733,-0.46667 1.00267,-0.65333 1.88533,-1.61333 2.15867,-2.8 0.29866,-1.32 0.0507,-2.4 -0.47334,-3.62667 -3.228,-7.56 -8.66666,-13.92 -15.29466,-18.71999 -0.93067,-0.66667 -2.55467,-0.76 -3.61734,-0.46667 -1.08799,0.29333 -2.26799,1.13333 -2.80533,2.14667 -1.28533,2.43999 -0.44666,4.89333 1.684,6.42666" /><path
       id="path2338"
       style="fill:#a86956;fill-opacity:1;fill-rule:nonzero;stroke:none;stroke-width:0.133333"
       d="m 306.85333,689.26675 c 0.26,0.0267 0.51866,0.0667 0.77733,0.0933 -0.416,-0.0533 -0.832,-0.10666 -1.248,-0.17333 2.976,0.41333 5.88,1.2 8.65333,2.36 -0.37333,-0.16 -0.748,-0.32 -1.12133,-0.46667 0.42133,0.17334 0.83733,0.36 1.252,0.54667 1.16933,0.54667 2.32933,0.82667 3.616,0.48 1.08933,-0.30667 2.26933,-1.14667 2.80533,-2.16 0.57734,-1.09333 0.86534,-2.41333 0.47467,-3.61333 -0.35733,-1.10667 -1.06667,-2.30667 -2.15733,-2.81334 -2.05067,-0.94666 -4.16134,-1.8 -6.34,-2.41333 -2.19867,-0.61333 -4.444,-0.97333 -6.712,-1.22667 -1.116,-0.13333 -2.56,0.61334 -3.32,1.37334 -0.81334,0.81333 -1.42667,2.14666 -1.37467,3.32 0.0547,1.21333 0.45333,2.46666 1.37467,3.32 0.31733,0.24 0.63466,0.48 0.95066,0.73333 0.732,0.42667 1.52267,0.64 2.36934,0.64" /><g
       transform="matrix(0.148484,0,0,-0.148484,0,2666.6667)"
       id="g2340"><path
         id="path2342"
         style="fill:#774844;fill-opacity:1;fill-rule:nonzero;stroke:none"
         d="m 3505.69,15934.5 c 10.07,30.2 48.33,126.5 47.06,129.9 -6.28,17 3.43,82.1 9.44,108.5 10.92,48.1 36.03,92.8 71.38,127.1 -8.67,-8 -19.2,-12.3 -28.57,-18.9 -10.2,-7.1 -17.99,-19.1 -25.37,-29 -16.17,-21.6 -30.05,-45 -41.53,-69.4 -22.95,-48.9 -36.25,-102.4 -38.78,-156.4 -1.44,-30.7 0.62,-61.6 6.37,-91.8" /></g><g
       transform="matrix(0.147544,0,0,-0.147544,0,2666.6667)"
       id="g2344"><path
         id="path2346"
         style="fill:#774844;fill-opacity:1;fill-rule:nonzero;stroke:none"
         d="m 3841.76,16278 c 19.62,11.9 33.05,16.2 55.26,22 -55.71,-41.3 -88.05,-97.3 -100.73,-165.5 -5.38,-28.9 -5.73,-60.4 8.77,-86 -78.28,7.1 -157.65,2.1 -234.37,-15 15.59,3.5 33.39,35.7 42.7,47 15.64,18.9 32.06,37.2 49.2,54.8 34.01,35 70.82,67.2 109.98,96.2 22.34,16.6 45.43,32.1 69.19,46.5" /></g><path
       id="path2348"
       style="fill:#efb081;fill-opacity:1;fill-rule:nonzero;stroke:none;stroke-width:0.133333"
       d="m 230.96266,649.20008 c -2.57467,4.04 -3.88933,9 -3.04133,13.72 1.09333,6.09334 5.49733,11 9.92133,15.32 2.756,2.69334 5.63867,5.33334 9.056,7.10667 4.10533,2.14667 8.99733,2.93333 13.45867,1.69333 4.46133,-1.24 8.38133,-4.62666 9.79866,-9.04 1.19867,-3.72 0.6,-7.76 -0.22266,-11.58666 -0.88134,-4.09334 -2.008,-8.13334 -3.37067,-12.09334 -1.76,-5.10666 -4.09067,-10.32 -8.38133,-13.61333 -9.53334,-7.32 -21.76934,-0.08 -27.21867,8.49333" /><path
       id="path2350"
       style="fill:#efb081;fill-opacity:1;fill-rule:nonzero;stroke:none;stroke-width:0.133333"
       d="m 221.93999,619.58675 c -0.19733,1.29333 0.10534,2.6 0.45734,3.85333 0.688,2.45334 1.59466,4.89334 3.14266,6.90667 1.548,2.01333 3.816,3.58667 6.34667,3.82667 0.85067,0.08 1.756,0 2.47333,-0.46667 0.488,-0.30667 0.852,-0.78667 1.18934,-1.25333 1.26533,-1.77334 2.316,-3.78667 2.50133,-5.96 0.348,-4.09334 -2.93067,-10.49334 -6.512,-12.6 -3.636,-2.13334 -9.00667,1.81333 -9.59867,5.69333" /><path
       id="path2352"
       style="fill:#efb081;fill-opacity:1;fill-rule:nonzero;stroke:none;stroke-width:0.133333"
       d="m 255.87999,624.93342 c -0.18933,0.8 -0.344,1.65333 -0.132,2.45333 0.18534,0.69333 0.63467,1.29333 1.088,1.86667 1.21734,1.53333 2.77467,3.09333 4.72667,3.12 1.572,0.0267 3.02533,-1.02667 3.82133,-2.37334 0.796,-1.36 1.02,-2.97333 1.00267,-4.54666 -0.0347,-3.05334 -1.77333,-8.24 -5.676,-8.29334 -3.25733,-0.04 -4.22133,5.17334 -4.83067,7.77334" /><path
       id="path2354"
       style="fill:#efb081;fill-opacity:1;fill-rule:nonzero;stroke:none;stroke-width:0.133333"
       d="m 206.14133,645.74675 c -1.65334,5.85333 1.164,12.66667 6.472,15.64 1.79466,1 4.29733,1.49333 5.73066,0.0133 0.77734,-0.8 1.01334,-1.97333 1.11734,-3.09333 0.35733,-3.82667 -0.484,-7.77333 -2.37734,-11.13333 -0.96266,-1.70667 -2.29466,-3.34667 -4.14666,-3.98667 -2.82267,-0.97333 -5.91734,-0.56 -6.796,2.56" /></g></svg>
