<?xml version="1.0" encoding="UTF-8" standalone="no"?><!-- Generator: Gravit.io --><svg xmlns="http://www.w3.org/2000/svg" xmlns:xlink="http://www.w3.org/1999/xlink" style="isolation:isolate" viewBox="0 0 512 512" width="512pt" height="512pt"><defs><clipPath id="_clipPath_hB51Z6fRO23Mx0XdEnDvX5tiCb8OqPlv"><rect width="512" height="512"/></clipPath></defs><g clip-path="url(#_clipPath_hB51Z6fRO23Mx0XdEnDvX5tiCb8OqPlv)"><clipPath id="_clipPath_XztAn5pd29z5b8oAKT4p9NNrfBxKfVPm"><rect x="0" y="0" width="512" height="512" transform="matrix(1,0,0,1,0,0)" fill="rgb(255,255,255)"/></clipPath><g clip-path="url(#_clipPath_XztAn5pd29z5b8oAKT4p9NNrfBxKfVPm)"><g><g><g><path d=" M 250.805 380.994 C 250.805 382.152 250.805 383.276 250.805 384.434 C 250.805 384.775 250.942 385.047 251.214 385.286 C 251.384 385.422 251.555 385.558 251.691 385.729 C 253.939 388.079 253.973 391.826 251.725 394.142 C 251.521 394.347 251.316 394.517 251.112 394.687 C 250.908 394.892 250.805 395.13 250.805 395.403 C 250.805 395.743 250.805 396.05 250.805 396.39 C 250.805 406.132 250.805 415.908 250.805 425.65 C 250.805 426.025 250.805 426.4 250.839 426.809 C 250.839 427.013 251.146 427.149 251.316 427.013 C 251.929 426.57 252.543 426.093 253.156 425.65 C 257.005 422.959 261.195 422.551 265.623 423.811 C 267.258 424.288 268.688 425.208 270.051 426.23 C 270.903 426.877 271.754 427.592 272.64 428.239 C 276.012 430.692 279.725 431.135 283.676 430.147 C 285.277 429.738 286.674 428.886 288.002 427.899 C 288.99 427.149 289.978 426.366 291 425.616 C 292.941 424.22 295.121 423.436 297.506 423.198 C 298.051 423.13 298.596 423.164 299.141 423.232 C 299.413 423.266 299.584 423.539 299.584 423.845 C 299.584 424.152 299.413 424.39 299.107 424.424 C 298.459 424.526 297.812 424.595 297.165 424.629 C 295.155 424.833 293.384 425.582 291.749 426.775 C 290.966 427.354 290.182 427.933 289.399 428.546 C 287.321 430.215 285.039 431.407 282.382 431.85 C 281.973 431.918 281.496 431.884 281.19 432.259 C 280.542 432.259 279.895 432.259 279.214 432.259 C 278.737 431.918 278.192 431.884 277.647 431.816 C 275.16 431.407 273.014 430.317 271.073 428.784 C 270.255 428.137 269.438 427.49 268.62 426.911 C 267.53 426.093 266.338 425.446 265.01 425.071 C 261.024 423.981 257.243 424.424 253.837 426.877 C 252.781 427.626 251.759 428.478 250.737 429.261 C 249.068 430.521 247.229 431.407 245.117 431.782 C 244.504 431.884 243.823 431.918 243.243 432.327 C 242.596 432.327 241.949 432.327 241.268 432.327 C 240.893 431.952 240.382 431.952 239.905 431.884 C 237.351 431.441 235.171 430.317 233.195 428.716 C 232.377 428.069 231.56 427.422 230.742 426.843 C 229.686 426.059 228.528 425.446 227.268 425.105 C 223.248 424.049 219.502 424.458 216.095 426.945 C 215.21 427.592 214.358 428.273 213.506 428.92 C 211.633 430.385 209.589 431.441 207.205 431.85 C 206.694 431.952 206.115 431.918 205.672 432.327 C 205.025 432.327 204.378 432.327 203.696 432.327 C 203.117 431.952 202.47 431.918 201.823 431.816 C 199.745 431.441 197.906 430.556 196.203 429.295 C 195.385 428.682 194.533 428.035 193.75 427.388 C 191.604 425.65 189.186 424.697 186.426 424.56 C 186.154 424.56 185.881 424.526 185.609 424.492 C 185.302 424.424 185.132 424.254 185.132 423.947 C 185.098 423.641 185.371 423.3 185.711 423.266 C 186.086 423.232 186.461 423.232 186.835 423.266 C 189.151 423.436 191.332 424.084 193.273 425.412 C 194.125 425.991 194.942 426.638 195.76 427.251 C 196.271 427.626 196.816 428.035 197.327 428.444 C 201.346 431.475 207.784 431.509 211.871 428.444 C 212.757 427.796 213.609 427.115 214.46 426.434 C 214.699 426.264 214.767 425.991 214.631 425.719 C 214.46 425.378 214.324 425.003 214.188 424.663 C 208.533 412.059 202.845 399.422 197.19 386.819 C 196.816 385.967 196.339 385.252 195.487 384.741 C 194.159 383.991 193.409 382.731 192.967 381.232 C 192.728 380.449 192.727 380.136 192.771 379.362 C 192.858 378.571 193.031 378.063 193.171 377.656 C 193.852 375.987 194.976 374.76 196.645 374.215 C 197.531 373.909 198.11 373.398 198.655 372.683 C 206.319 362.498 213.983 352.313 221.648 342.094 C 222.363 341.14 223.078 340.152 223.828 339.233 C 224.236 338.722 224.407 338.245 224.202 337.598 C 223.862 336.576 223.998 335.554 224.27 334.532 C 225.02 331.671 225.735 328.844 226.45 325.982 C 226.553 325.574 226.655 325.131 226.757 324.722 C 226.961 323.87 226.893 323.836 225.974 323.802 C 225.871 323.802 225.769 323.802 225.633 323.802 C 222.295 323.802 218.991 323.802 215.652 323.802 C 215.482 323.802 215.312 323.802 215.176 323.802 C 214.46 323.836 214.358 323.904 214.222 324.654 C 214.086 325.301 213.983 325.948 213.881 326.595 C 210.543 342.809 198.042 355.821 181.998 359.773 C 178.762 360.59 175.492 361.067 172.154 361.067 C 170.587 361.067 170.485 360.931 170.451 359.432 C 170.451 359.16 170.451 358.887 170.451 358.615 C 170.451 342.605 170.451 326.561 170.451 310.552 C 170.451 307.827 170.587 305.102 170.826 302.377 C 170.928 301.389 170.928 301.389 169.94 300.946 C 168.509 300.299 167.045 299.686 165.648 298.97 C 158.563 295.36 152.534 290.421 147.527 284.255 C 146.368 282.825 146.368 282.756 147.901 281.598 C 173.414 261.876 198.962 242.153 224.475 222.397 C 229.857 218.207 235.852 215.414 242.562 214.12 C 255.779 211.531 269.881 215.55 279.793 225.19 C 279.861 225.258 279.963 225.36 280.031 225.429 C 281.53 226.893 280.951 226.791 283.165 226.246 C 289.842 224.645 295.019 218.888 296.007 212.076 C 296.177 210.952 296.245 209.794 296.245 208.67 C 296.245 204.957 296.279 201.244 296.245 197.565 C 296.211 194.125 295.019 191.161 292.532 188.777 C 290.216 186.563 287.389 185.541 284.221 185.507 C 282.075 185.507 279.963 185.2 277.954 184.485 C 270.051 181.59 265.384 176.003 264.022 167.658 C 263.886 166.84 263.92 166.023 263.92 165.205 C 263.92 159.415 263.92 153.658 263.92 147.867 C 263.886 142.69 265.214 137.853 267.701 133.322 C 267.905 132.948 268.109 132.539 268.314 132.164 C 268.314 132.13 268.28 132.062 268.246 132.028 C 268.212 131.994 268.143 131.994 268.109 131.994 C 267.803 132.198 267.462 132.403 267.19 132.641 C 262.523 136.218 257.856 139.828 253.19 143.405 C 247.876 147.493 242.562 151.58 237.282 155.668 C 235.273 157.235 233.059 158.393 230.538 158.767 C 225.122 159.585 220.523 158.018 216.845 153.93 C 216.674 153.726 216.504 153.522 216.368 153.283 C 216.232 153.045 216.232 152.772 216.436 152.534 C 216.674 152.295 217.083 152.261 217.322 152.5 C 217.628 152.806 217.901 153.147 218.207 153.454 C 220.115 155.429 222.363 156.758 225.054 157.337 C 228.937 158.188 232.514 157.405 235.75 155.089 C 237.214 154.033 238.611 152.909 240.042 151.819 C 248.591 145.244 257.141 138.636 265.691 132.062 C 265.963 131.858 266.202 131.653 266.474 131.449 C 266.577 131.347 266.679 131.176 266.747 131.074 C 266.611 131.074 266.44 131.006 266.338 131.074 C 265.35 131.381 264.362 131.687 263.375 131.994 C 255.165 134.617 246.99 137.206 238.781 139.828 C 235.136 140.986 231.594 140.884 228.119 139.351 C 224.577 137.785 222.056 135.162 220.523 131.619 C 220.353 131.21 220.251 130.802 220.149 130.393 C 220.081 130.052 220.319 129.678 220.626 129.644 C 220.932 129.609 221.171 129.712 221.307 129.984 C 221.511 130.359 221.648 130.802 221.818 131.176 C 222.874 133.663 224.509 135.639 226.757 137.103 C 230.095 139.249 233.706 139.931 237.555 138.772 C 241.404 137.614 245.253 136.354 249.068 135.128 C 254.825 133.288 260.581 131.449 266.338 129.609 C 266.713 129.507 267.053 129.371 267.428 129.235 C 267.53 129.201 267.598 129.099 267.667 129.064 C 267.564 128.996 267.496 128.928 267.394 128.894 C 267.156 128.792 266.883 128.724 266.611 128.622 C 262.455 127.123 260.002 124.159 259.185 119.867 C 259.049 119.084 258.912 118.232 259.389 117.483 C 277.374 117.483 295.36 117.483 313.345 117.483 C 313.788 117.926 314.367 117.79 314.912 117.79 C 318.727 117.79 322.542 117.824 326.357 117.79 C 327.89 117.79 329.389 117.994 330.853 118.437 C 335.043 119.697 338.279 122.218 340.561 125.965 C 340.732 126.237 340.902 126.51 341.038 126.816 C 341.277 127.395 341.685 127.6 342.298 127.6 C 345.228 127.668 348.191 127.804 351.121 127.906 C 356.026 128.077 360.931 128.281 365.836 128.451 C 369.038 128.588 372.274 128.69 375.476 128.826 C 382.867 129.099 390.293 129.337 397.685 129.609 C 403.067 129.814 408.449 130.018 413.865 130.223 C 416.249 130.325 417.748 132.096 417.373 134.344 C 417.135 135.775 416.283 136.729 414.921 137.069 C 414.239 137.24 413.524 137.274 412.809 137.308 C 410.152 137.444 407.461 137.546 404.804 137.648 C 398.094 137.921 391.417 138.159 384.707 138.432 C 378.235 138.704 371.763 138.977 365.257 139.249 C 361.442 139.42 357.627 139.556 353.812 139.692 C 350.269 139.828 346.727 139.965 343.184 140.101 C 341.924 140.135 342.026 140.135 341.515 141.259 C 339.607 145.551 336.474 148.583 332.114 150.286 C 330.172 151.069 328.128 151.41 326.05 151.41 C 319.238 151.41 312.425 151.41 305.613 151.41 C 304.625 151.41 303.671 151.478 302.717 151.784 C 299.754 152.738 297.676 155.497 297.71 158.529 C 297.778 162.003 299.958 164.49 302.854 165.307 C 303.705 165.546 304.557 165.546 305.442 165.58 C 308.985 165.716 312.357 166.432 315.491 168.101 C 323.019 172.086 327.311 178.319 328.401 186.801 C 328.571 188.096 328.605 189.424 328.605 190.718 C 328.605 206.898 328.605 223.078 328.605 239.292 C 328.605 250.26 326.766 260.854 322.746 271.073 C 312.834 296.177 291.238 314.98 264.976 321.35 C 263.988 321.588 262.966 321.827 261.944 322.031 C 261.603 322.099 261.365 322.304 261.263 322.644 C 260.854 323.7 260.411 324.756 260.002 325.846 C 257.856 331.364 255.676 336.882 253.53 342.435 C 253.019 343.729 252.44 344.955 251.35 345.807 C 251.01 346.079 250.908 346.386 250.908 346.795 C 250.908 347.135 250.908 347.442 250.908 347.783 C 250.908 357.593 250.908 367.403 250.908 377.213 C 250.908 379.189 250.805 380.585 250.805 380.994 Z  M 203.662 383.208 C 203.322 383.651 203.219 384.06 203.526 384.571 C 203.662 384.809 203.764 385.047 203.867 385.32 C 209.317 397.48 214.801 409.641 220.251 421.801 C 220.489 422.346 220.558 423.062 221.137 423.3 C 221.613 423.47 222.193 423.334 222.738 423.3 C 226.144 423.164 229.21 424.049 231.9 426.127 C 232.411 426.536 232.922 426.945 233.467 427.32 C 234.115 427.796 234.762 428.307 235.443 428.784 C 237.385 430.113 239.565 430.76 241.915 430.76 C 244.129 430.794 243.993 430.896 243.993 428.75 C 243.993 418.02 243.993 407.291 243.993 396.561 C 243.993 396.288 243.993 396.016 243.993 395.743 C 244.027 395.232 243.857 394.789 243.448 394.449 C 243.243 394.278 243.073 394.074 242.903 393.87 C 240.995 391.519 240.995 388.59 242.903 386.24 C 243.993 385.49 244.095 384.4 243.993 383.208 C 243.959 382.936 243.993 382.663 243.993 382.391 C 243.993 382.25 243.993 382.12 243.993 382 L 243.996 382 L 243.996 378 L 243.996 378 C 243.996 377.806 243.993 377.579 243.993 377.315 C 243.993 367.471 243.993 357.593 243.993 347.749 C 243.993 347.374 243.993 346.999 243.993 346.59 C 243.993 346.25 243.891 345.943 243.618 345.739 C 242.528 344.819 242.017 343.559 241.574 342.264 C 241.029 340.663 240.416 339.097 239.803 337.53 C 239.633 337.121 239.428 337.053 239.054 337.291 C 237.282 338.483 235.545 339.676 233.808 340.868 C 232.854 341.515 231.866 342.06 230.674 342.162 C 230.265 342.196 229.959 342.401 229.72 342.707 C 229.55 342.946 229.38 343.15 229.21 343.354 C 221.171 354.05 213.098 364.78 205.059 375.476 C 203.969 376.94 203.969 376.94 204.616 378.678 L 204.616 378.678 C 205.02 380.149 204.722 381.68 203.662 383.208 Z " fill-rule="evenodd" fill="rgb(0,47,89)"/><path d=" M 159.346 274.275 C 159.891 274.547 160.232 274.309 160.505 273.866 C 161.186 273.798 161.697 273.321 162.242 273.014 C 182.748 260.547 203.254 248.046 223.759 235.545 C 224.304 235.205 224.849 234.83 225.394 234.455 C 231.969 229.652 239.326 226.927 247.467 226.314 C 251.623 226.008 255.745 226.348 259.798 227.268 C 267.701 229.073 274.513 232.854 280.27 238.543 C 280.576 238.849 280.883 239.19 281.224 239.428 C 282.348 240.212 283.54 240.314 284.766 239.633 C 285.89 238.986 286.469 237.998 286.503 236.703 C 286.503 235.852 286.197 235.102 285.652 234.455 C 284.289 232.752 282.995 231.015 281.632 229.312 C 280.1 227.404 278.328 225.667 276.421 224.134 C 266.713 216.3 255.642 213.404 243.38 215.414 C 236.806 216.47 230.913 219.195 225.633 223.248 C 220.558 227.166 215.448 231.117 210.373 235.034 C 194.057 247.603 177.774 260.207 161.492 272.81 C 161.118 273.117 160.641 273.321 160.47 273.798 C 160.096 273.968 159.721 274.104 159.346 274.275 C 159.346 274.275 159.346 274.275 159.346 274.275 Z " fill="rgb(114,180,221)"/><path d=" M 171.779 331.432 C 171.779 340.152 171.779 348.873 171.779 357.593 C 171.779 358.07 171.779 358.581 171.779 359.057 C 171.813 359.705 171.916 359.807 172.563 359.807 C 175.015 359.705 177.434 359.432 179.852 358.921 C 195.453 355.685 207.92 343.933 212.008 328.571 C 212.723 325.88 213.166 323.155 213.098 320.328 C 212.996 316.683 213.064 313.038 213.064 309.36 C 213.064 308.917 213.064 308.474 213.132 308.065 C 213.166 307.759 213.37 307.588 213.677 307.554 C 213.983 307.52 214.324 307.759 214.358 308.099 C 214.392 308.576 214.426 309.087 214.426 309.564 C 214.426 313.277 214.426 316.99 214.426 320.668 C 214.426 321.111 214.426 321.554 214.46 321.963 C 214.46 322.269 214.665 322.474 214.971 322.474 C 215.414 322.508 215.857 322.508 216.266 322.508 C 219.638 322.508 223.01 322.508 226.416 322.508 C 226.859 322.508 227.302 322.508 227.711 322.542 C 228.222 322.576 228.528 322.917 228.426 323.428 C 228.324 323.973 228.188 324.484 228.051 325.029 C 227.268 328.128 226.45 331.262 225.667 334.362 C 225.497 335.111 225.224 335.826 225.292 336.61 C 225.599 340.016 229.21 341.924 232.207 340.255 C 232.684 339.982 233.127 339.676 233.57 339.369 C 242.017 333.578 250.499 327.822 258.912 322.031 C 259.832 321.384 260.786 320.941 261.876 320.771 C 262.83 320.6 263.783 320.362 264.737 320.123 C 280.202 316.274 293.452 308.576 304.455 297.063 C 313.004 288.104 319.204 277.681 323.053 265.895 C 325.88 257.209 327.106 248.285 327.106 239.19 C 327.106 223.214 327.106 207.239 327.106 191.297 C 327.106 190.037 327.072 188.777 326.936 187.551 C 326.289 180.908 323.291 175.526 317.943 171.507 C 314.265 168.748 310.109 167.317 305.476 167.181 C 304.455 167.147 303.399 167.113 302.411 166.84 C 299.039 165.955 296.62 163.127 296.245 159.585 C 295.905 156.417 297.403 153.079 300.674 151.308 C 302.104 150.524 303.637 150.252 305.238 150.252 C 311.948 150.286 318.659 150.252 325.335 150.252 C 326.493 150.252 327.617 150.183 328.741 149.945 C 333.681 148.923 337.359 146.198 339.71 141.702 C 340.187 140.782 340.084 140.612 338.994 140.578 C 338.552 140.578 338.109 140.578 337.7 140.578 C 328.878 140.578 320.055 140.578 311.199 140.578 C 310.654 140.578 310.109 140.578 309.564 140.544 C 305.374 140.339 302.888 136.15 303.91 132.675 C 304.216 131.653 304.693 130.768 305.374 129.984 C 305.51 129.814 305.715 129.678 305.579 129.439 C 305.51 129.337 305.306 129.337 305.136 129.303 C 304.965 129.269 304.795 129.303 304.659 129.303 C 294.202 129.303 283.744 129.303 273.253 129.269 C 272.401 129.269 271.822 129.541 271.311 130.189 C 267.292 135.332 265.112 141.157 265.078 147.697 C 265.044 153.59 265.078 159.483 265.078 165.341 C 265.078 165.989 265.078 166.67 265.18 167.283 C 266.236 174.47 270.085 179.614 276.693 182.645 C 279.044 183.735 281.564 184.212 284.153 184.212 C 286.946 184.212 289.535 184.962 291.817 186.597 C 295.462 189.22 297.335 192.864 297.403 197.327 C 297.472 201.21 297.403 205.059 297.438 208.942 C 297.438 210.1 297.369 211.224 297.165 212.348 C 295.803 219.57 291.749 224.577 284.834 227.166 C 284.187 227.404 283.472 227.54 282.79 227.745 C 282.484 227.847 282.382 228.085 282.586 228.358 C 283.778 229.925 285.005 231.458 286.197 232.99 C 286.537 233.433 286.878 233.842 287.151 234.319 C 288.275 236.261 287.866 238.781 286.163 240.28 C 284.46 241.779 281.939 241.813 280.134 240.382 C 279.827 240.144 279.589 239.871 279.316 239.599 C 270.017 230.538 258.878 226.587 245.968 227.813 C 238.883 228.494 232.445 231.049 226.655 235.205 C 225.803 235.818 224.952 236.397 224.066 236.942 C 199.336 252.032 174.573 267.087 149.843 282.177 C 149.434 282.416 149.025 282.688 148.617 282.961 C 148.412 283.097 148.378 283.301 148.548 283.506 C 148.753 283.778 148.957 284.017 149.162 284.289 C 151.853 287.525 154.884 290.421 158.29 292.941 C 166.704 299.209 176.139 302.785 186.631 303.705 C 191.842 304.182 196.986 303.875 202.061 302.854 C 210.543 301.15 218.173 297.608 225.02 292.328 C 229.72 288.683 234.421 285.073 239.122 281.428 C 239.462 281.155 239.803 280.883 240.178 280.645 C 240.621 280.338 240.961 280.372 241.2 280.645 C 241.472 280.951 241.37 281.36 240.927 281.769 C 240.723 281.939 240.484 282.109 240.28 282.28 C 235.307 286.129 230.402 289.978 225.394 293.759 C 216.334 300.639 206.115 304.455 194.772 305.204 C 187.789 305.647 180.976 304.795 174.3 302.683 C 173.653 302.479 173.04 302.07 172.324 302.274 C 172.052 302.956 172.052 303.671 171.984 304.352 C 171.984 304.557 171.95 304.795 171.95 305 C 171.882 307.554 171.779 310.109 171.779 312.664 C 171.745 318.897 171.779 325.165 171.779 331.432 Z " fill="rgb(255,255,255)"/><path d=" M 298.63 127.906 C 298.63 127.906 298.63 127.94 298.63 127.94 C 308.099 127.94 317.569 127.94 327.072 127.94 C 327.822 127.94 328.571 127.974 329.252 127.464 C 329.593 127.191 330.07 127.191 330.513 127.225 C 331.126 127.225 331.705 127.259 332.318 127.293 C 334.43 127.361 336.576 127.464 338.688 127.532 C 338.96 127.532 339.267 127.634 339.403 127.327 C 339.539 127.055 339.301 126.816 339.165 126.578 C 337.496 123.853 335.179 121.843 332.284 120.515 C 330.274 119.595 328.162 119.152 325.948 119.152 C 322.201 119.152 318.42 119.152 314.673 119.152 C 314.197 119.152 313.652 119.22 313.209 119.084 C 312.493 118.846 311.812 118.88 311.097 118.88 C 294.815 118.88 278.533 118.88 262.251 118.88 C 261.808 118.88 261.365 118.88 260.956 118.88 C 260.445 118.914 260.309 119.118 260.377 119.629 C 260.922 123.614 264.124 126.987 268.109 127.702 C 269.029 127.872 269.949 127.94 270.868 127.94 C 280.134 127.906 289.365 127.906 298.63 127.906 Z " fill="rgb(49,114,163)"/><path d=" M 225.088 340.016 C 224.986 340.084 224.884 340.118 224.815 340.221 C 224.509 340.595 224.202 341.004 223.93 341.379 C 215.755 352.211 207.614 363.043 199.473 373.909 C 198.893 374.658 198.314 375.237 197.327 375.51 C 195.487 376.055 194.397 377.383 194.159 379.291 C 193.92 381.266 194.67 382.867 196.407 383.821 C 197.293 384.298 197.769 384.979 198.144 385.831 C 203.799 398.468 209.453 411.072 215.142 423.709 C 215.312 424.049 215.448 424.39 215.618 424.731 C 215.891 425.242 216.027 425.31 216.504 425.071 C 217.356 424.697 218.173 424.322 219.025 423.913 C 219.468 423.709 219.536 423.573 219.399 423.164 C 219.229 422.755 219.059 422.346 218.888 421.972 C 213.438 409.811 207.954 397.617 202.504 385.456 C 202.3 385.013 202.129 384.571 201.925 384.094 C 201.755 383.753 201.789 383.446 202.027 383.174 C 202.164 383.004 202.3 382.833 202.436 382.663 C 203.56 381.164 203.73 379.597 202.981 377.894 C 202.879 377.69 202.777 377.485 202.674 377.315 C 202.504 376.975 202.538 376.668 202.743 376.395 C 203.083 375.919 203.458 375.442 203.799 374.931 C 211.769 364.337 219.706 353.778 227.677 343.184 C 228.46 342.162 228.46 342.128 227.37 341.583 C 226.689 341.242 226.076 340.766 225.531 340.221 C 225.394 340.152 225.224 340.084 225.088 340.016 Z " fill="rgb(247,173,67)"/><path d=" M 249.477 366.585 C 249.477 360.761 249.477 354.936 249.477 349.111 C 249.477 348.634 249.477 348.123 249.443 347.646 C 249.443 347.34 249.307 347.101 248.966 347.135 C 247.944 347.272 246.888 347.204 245.866 347.101 C 245.526 347.067 245.389 347.34 245.389 347.612 C 245.355 348.157 245.355 348.702 245.355 349.247 C 245.355 360.897 245.355 372.58 245.355 384.23 C 245.355 385.252 245.321 386.172 244.333 386.785 C 244.027 386.955 243.823 387.33 243.618 387.67 C 242.562 389.305 242.528 390.94 243.584 392.575 C 243.857 392.984 244.163 393.393 244.538 393.665 C 245.185 394.142 245.423 394.721 245.355 395.505 C 245.321 395.948 245.355 396.39 245.355 396.799 C 245.355 407.325 245.355 417.816 245.355 428.341 C 245.355 430.76 245.185 430.726 247.672 429.704 C 247.706 429.67 247.774 429.636 247.808 429.636 C 249.852 428.546 249.477 428.818 249.477 426.911 C 249.477 416.726 249.477 406.541 249.477 396.356 C 249.477 395.879 249.477 395.369 249.477 394.892 C 249.477 394.517 249.613 394.278 249.886 394.04 C 250.056 393.904 250.26 393.802 250.431 393.665 C 252.577 391.826 252.611 388.488 250.465 386.614 C 250.294 386.478 250.124 386.376 249.92 386.24 C 249.579 386.001 249.443 385.661 249.477 385.252 C 249.477 384.809 249.477 384.366 249.477 383.957 C 249.477 378.133 249.477 372.342 249.477 366.585 Z " fill="rgb(247,173,67)"/><path d=" M 371.899 130.086 C 371.899 130.086 371.899 130.052 371.899 130.086 C 367.062 129.882 362.225 129.746 357.354 129.575 C 353.165 129.405 348.975 129.235 344.785 129.064 C 340.323 128.894 335.861 128.758 331.398 128.622 C 331.024 128.622 330.649 128.588 330.24 128.622 C 329.491 128.69 329.15 129.439 329.559 130.052 C 329.695 130.291 329.9 130.495 330.07 130.699 C 330.683 131.449 331.33 132.198 331.943 132.948 C 333.34 134.617 332.829 134.378 335.077 134.378 C 361.272 134.378 387.466 134.378 413.66 134.378 C 414.035 134.378 414.41 134.378 414.818 134.378 C 415.84 134.344 416.181 133.867 415.738 132.914 C 415.398 132.164 414.784 131.755 413.967 131.619 C 413.524 131.551 413.081 131.585 412.672 131.551 C 408.312 131.381 403.952 131.244 399.626 131.074 C 395.062 130.904 390.498 130.734 385.899 130.563 C 381.266 130.427 376.566 130.257 371.899 130.086 Z " fill="rgb(235,190,98)"/><path d=" M 322.678 139.181 C 322.678 139.181 322.678 139.181 322.678 139.181 C 327.038 139.181 331.364 139.181 335.724 139.181 C 335.929 139.181 336.201 139.215 336.303 139.011 C 336.44 138.704 336.099 138.67 335.963 138.568 C 334.362 137.682 333.067 136.456 331.943 135.06 C 330.99 133.867 330.002 132.709 329.014 131.551 C 328.605 131.04 328.162 130.529 328.026 129.882 C 327.924 129.439 327.651 129.303 327.209 129.303 C 325.778 129.303 324.381 129.303 322.951 129.303 C 318.829 129.303 314.673 129.303 310.552 129.303 C 309.734 129.303 308.917 129.371 308.167 129.678 C 306.09 130.529 304.795 132.811 305.136 134.923 C 305.51 137.308 307.418 139.045 309.802 139.181 C 310.245 139.215 310.688 139.181 311.097 139.181 C 314.98 139.181 318.829 139.181 322.678 139.181 Z " fill="rgb(114,180,221)"/><path d=" M 247.569 345.841 C 248.421 345.841 249.17 345.637 249.886 345.194 C 250.908 344.581 251.555 343.661 251.964 342.571 C 254.28 336.644 256.596 330.717 258.912 324.756 C 259.049 324.415 259.355 324.075 259.083 323.7 C 258.81 323.87 258.504 323.973 258.231 324.177 C 252.747 327.924 247.263 331.671 241.779 335.418 C 241.608 335.554 241.438 335.69 241.234 335.792 C 240.927 335.997 240.791 336.303 240.927 336.644 C 241.745 338.892 242.494 341.174 243.448 343.354 C 244.231 345.023 245.696 345.807 247.569 345.841 Z " fill="rgb(255,255,255)"/><path d=" M 373.5 135.741 C 366.04 135.741 358.581 135.741 351.121 135.741 C 346.284 135.741 341.413 135.741 336.576 135.741 C 336.099 135.741 335.588 135.775 335.111 135.809 C 335.077 135.809 335.009 135.843 335.009 135.877 C 335.009 135.979 334.975 136.115 335.009 136.15 C 335.179 136.354 335.384 136.524 335.622 136.695 C 337.632 138.091 339.88 138.875 342.367 138.806 C 344.444 138.772 346.488 138.704 348.566 138.602 C 352.551 138.432 356.503 138.261 360.488 138.091 C 364.337 137.921 368.22 137.819 372.069 137.648 C 378.541 137.376 385.013 137.069 391.485 136.831 C 398.025 136.558 404.531 136.32 411.072 136.081 C 411.344 136.081 411.617 136.081 411.889 136.047 C 411.991 136.047 412.093 135.979 412.196 135.945 C 412.093 135.911 411.991 135.843 411.889 135.843 C 410.527 135.809 409.164 135.741 407.801 135.741 C 396.39 135.741 384.945 135.741 373.5 135.741 Z " fill="rgb(216,153,53)"/><path d=" M 378.61 432.429 C 378.201 431.986 377.588 432.02 377.077 431.952 C 374.76 431.543 372.751 430.521 370.911 429.125 C 369.992 428.444 369.106 427.694 368.186 427.047 C 364.712 424.526 360.897 424.152 356.843 425.276 C 355.617 425.616 354.527 426.23 353.505 426.979 C 352.654 427.592 351.836 428.205 351.053 428.852 C 349.077 430.453 346.863 431.577 344.342 431.986 C 343.865 432.054 343.354 432.054 342.98 432.429 C 342.333 432.429 341.685 432.429 341.004 432.429 C 340.459 432.02 339.778 432.02 339.131 431.884 C 337.053 431.509 335.213 430.624 333.51 429.363 C 332.693 428.75 331.875 428.103 331.058 427.456 C 328.912 425.719 326.493 424.765 323.734 424.629 C 323.53 424.629 323.291 424.595 323.087 424.595 C 322.746 424.56 322.474 424.39 322.44 423.981 C 322.406 423.607 322.746 423.3 323.189 423.3 C 323.564 423.266 323.939 423.266 324.347 423.334 C 326.561 423.539 328.605 424.152 330.479 425.378 C 331.262 425.889 331.977 426.468 332.727 427.013 C 333.306 427.422 333.851 427.865 334.396 428.307 C 338.654 431.646 345.33 431.646 349.588 428.239 C 350.61 427.422 351.632 426.604 352.688 425.855 C 356.503 423.13 360.692 422.687 365.121 423.913 C 366.483 424.288 367.743 424.969 368.902 425.821 C 369.787 426.468 370.639 427.115 371.49 427.796 C 373.773 429.636 376.327 430.726 379.257 430.76 C 379.427 430.76 379.597 430.76 379.734 430.794 C 380.142 430.862 380.347 431.203 380.21 431.646 C 380.142 431.884 380.006 432.122 379.87 432.395 C 379.461 432.429 379.052 432.429 378.61 432.429 Z " fill="rgb(0,47,89)"/><path d=" M 141.94 414.784 C 138.806 414.853 136.081 413.933 133.629 412.127 C 132.539 411.31 131.483 410.458 130.393 409.641 C 126.953 407.188 123.206 406.78 119.186 407.87 C 117.926 408.21 116.768 408.857 115.712 409.641 C 114.69 410.39 113.736 411.174 112.714 411.923 C 110.909 413.286 108.933 414.273 106.651 414.58 C 102.972 415.125 99.498 414.614 96.364 412.434 C 95.649 411.923 94.967 411.378 94.286 410.867 C 93.707 410.424 93.162 409.982 92.583 409.573 C 89.177 407.154 85.464 406.746 81.547 407.801 C 80.048 408.21 78.754 408.994 77.527 409.913 C 76.608 410.595 75.722 411.31 74.802 411.991 C 70.102 415.67 62.744 415.636 58.179 412.093 C 57.328 411.412 56.442 410.765 55.591 410.084 C 53.445 408.346 51.026 407.393 48.267 407.256 C 47.995 407.256 47.722 407.222 47.45 407.188 C 47.143 407.154 46.973 406.916 46.973 406.643 C 46.939 406.303 47.211 405.996 47.552 405.962 C 47.995 405.928 48.437 405.928 48.846 405.962 C 51.06 406.166 53.104 406.78 54.978 408.006 C 55.693 408.483 56.374 409.028 57.089 409.539 C 57.975 410.186 58.827 410.867 59.712 411.48 C 63.357 414.001 69.318 414.103 73.167 411.48 C 73.883 411.003 74.564 410.458 75.279 409.947 C 75.994 409.436 76.676 408.891 77.357 408.381 C 81.921 405.076 88.734 405.145 93.162 408.312 C 93.809 408.789 94.457 409.3 95.138 409.777 C 95.751 410.22 96.364 410.697 96.943 411.174 C 101.065 414.239 107.435 414.137 111.352 411.208 C 112.033 410.697 112.748 410.152 113.43 409.641 C 114.009 409.198 114.554 408.789 115.133 408.381 C 119.527 405.179 126.442 405.042 131.074 408.483 C 132.13 409.266 133.152 410.084 134.174 410.867 C 135.911 412.162 137.785 413.081 139.965 413.354 C 143.201 413.762 146.266 413.252 148.991 411.31 C 150.115 410.527 151.171 409.675 152.261 408.857 C 154.237 407.325 156.485 406.371 158.972 406.098 C 159.517 406.03 160.062 406.03 160.607 405.996 C 160.777 405.996 160.947 406.03 161.084 406.098 C 161.322 406.235 161.492 406.473 161.424 406.78 C 161.39 406.984 161.254 407.188 161.016 407.222 C 160.709 407.291 160.368 407.325 160.062 407.325 C 157.371 407.495 154.986 408.415 152.874 410.118 C 152.057 410.765 151.239 411.412 150.422 412.025 C 147.867 413.899 145.04 414.887 141.94 414.784 Z " fill="rgb(0,47,89)"/><path d=" M 312.016 130.154 C 314.197 130.12 316.002 131.824 316.07 134.004 C 316.138 136.115 314.333 138.023 312.187 138.023 C 310.211 138.057 308.236 136.558 308.167 134.14 C 308.133 131.96 309.802 130.189 312.016 130.154 Z " fill="rgb(0,47,89)"/><path d=" M 279.384 250.431 C 281.394 248.966 281.769 246.139 280.236 244.197 C 268.177 228.937 246.343 224.781 229.38 235.239 L 150.728 283.744 L 150.728 283.744 C 174.062 307.418 199.507 305.715 224.066 290.557 L 238.679 279.963 L 279.384 250.431 L 279.384 250.431 Z " fill="rgb(166,225,255)"/><g style="opacity:0.74;"><g opacity="0.74"><path d=" M 281.871 249.068 C 282.927 248.319 283.131 246.82 282.314 245.832 C 276.012 237.861 264.635 235.716 255.779 241.166 L 214.733 266.44 L 214.733 266.44 C 226.893 278.771 240.178 277.885 252.985 270.017 L 260.616 264.499 L 281.871 249.068 L 281.871 249.068 Z " fill="rgb(255,255,255)"/></g></g><g><path d=" M 182.339 355.208 L 182.339 306.328 C 179.614 305.885 176.684 305.17 173.483 304.284 L 173.483 358.24 C 177.025 358.24 180.057 357.082 182.577 355.208 C 182.475 355.208 182.407 355.208 182.339 355.208 L 182.339 355.208 L 182.339 355.208 Z " fill="rgb(114,180,221)"/><path d=" M 188.641 306.941 L 188.811 307.009 L 188.811 343.354 C 188.811 348.191 186.358 352.517 182.782 355.208 C 189.594 355.072 194.942 349.52 194.942 342.673 L 194.942 307.043 L 194.942 306.941 C 192.796 307.043 190.752 307.043 188.641 306.941 Z " fill="rgb(166,225,255)"/><path d=" M 188.811 343.354 L 188.811 307.043 L 188.606 306.975 C 186.563 306.873 184.383 306.669 182.339 306.362 L 182.339 355.208 L 182.373 355.208 C 182.441 355.208 182.68 355.208 182.782 355.208 C 186.324 352.483 188.811 348.191 188.811 343.354 Z " fill="rgb(166,225,255)"/></g></g></g></g></g></g></svg>