<?xml version="1.0" encoding="UTF-8" standalone="no"?>
<svg
   xmlns:dc="http://purl.org/dc/elements/1.1/"
   xmlns:cc="http://creativecommons.org/ns#"
   xmlns:rdf="http://www.w3.org/1999/02/22-rdf-syntax-ns#"
   xmlns:svg="http://www.w3.org/2000/svg"
   xmlns="http://www.w3.org/2000/svg"
   xmlns:sodipodi="http://sodipodi.sourceforge.net/DTD/sodipodi-0.dtd"
   xmlns:inkscape="http://www.inkscape.org/namespaces/inkscape"
   version="1.1"
   id="Layer_1"
   x="0px"
   y="0px"
   width="512"
   height="512"
   viewBox="0 0 512 512"
   enable-background="new 0 0 1400 980"
   xml:space="preserve"
   sodipodi:docname="Bobcat.svg"
   inkscape:version="1.0.2 (e86c870879, 2021-01-15, custom)"><metadata
   id="metadata63864"><rdf:RDF><cc:Work
       rdf:about=""><dc:format>image/svg+xml</dc:format><dc:type
         rdf:resource="http://purl.org/dc/dcmitype/StillImage" /><dc:title></dc:title></cc:Work></rdf:RDF></metadata><defs
   id="defs63862">
	
	
	
	
</defs><sodipodi:namedview
   pagecolor="#ffffff"
   bordercolor="#666666"
   borderopacity="1"
   objecttolerance="10"
   gridtolerance="10"
   guidetolerance="10"
   inkscape:pageopacity="0"
   inkscape:pageshadow="2"
   inkscape:window-width="1366"
   inkscape:window-height="715"
   id="namedview63860"
   showgrid="false"
   inkscape:zoom="0.55918367"
   inkscape:cx="700"
   inkscape:cy="490"
   inkscape:window-x="-8"
   inkscape:window-y="-8"
   inkscape:window-maximized="1"
   inkscape:current-layer="Layer_1" />

<g
   id="g63855"
   transform="matrix(0.96081554,0,0,0.96081554,-650.44923,-399.56348)">
		<path
   fill="#7a3518"
   d="m 1151.573,755.9 c 0,0 -5.045,-54.111 -30.266,-81.625 0,0 11.006,-1.376 21.896,-0.574 -13.068,-22.355 -29.577,-37.488 -42.646,-49.87 0,0 -10.662,-7.91 -4.472,-24.075 0,0 13.757,-23.387 11.006,-49.526 0,0 -7.361,11.558 -10.548,9.86 6.879,-12.381 5.045,-31.184 -0.458,-44.253 0,0 -8.255,-18.572 -2.751,-36.456 0,0 -18.572,22.012 -28.89,25.451 0,0 -21.324,8.254 -36.458,25.45 0,0 -14.444,13.069 -28.201,8.941 0,0 -25.451,-13.757 -45.398,-6.189 l -10.97,0.913 -10.971,-0.913 c -19.947,-7.567 -45.397,6.189 -45.397,6.189 -13.758,4.128 -28.203,-8.941 -28.203,-8.941 -15.132,-17.196 -36.456,-25.45 -36.456,-25.45 -10.318,-3.439 -28.89,-25.451 -28.89,-25.451 5.502,17.884 -2.752,36.456 -2.752,36.456 -5.503,13.069 -7.336,31.872 -0.458,44.253 -3.186,1.697 -10.548,-9.86 -10.548,-9.86 -2.751,26.14 11.006,49.526 11.006,49.526 6.19,16.165 -4.472,24.075 -4.472,24.075 -13.068,12.382 -29.577,27.515 -42.646,49.87 10.892,-0.802 21.897,0.574 21.897,0.574 -25.222,27.514 -30.267,81.625 -30.267,81.625 1.376,-4.127 20.406,-11.006 20.406,-11.006 -8.942,33.936 12.382,77.729 12.382,77.729 6.878,-19.261 25.451,-27.515 25.451,-27.515 19.717,-8.942 22.528,23.096 22.929,35.08 0.917,27.515 11.465,38.062 11.465,38.062 0,-4.127 9.63,-14.215 9.63,-14.215 1.376,14.217 15.592,31.182 15.592,31.182 0.917,-10.09 26.597,-32.558 26.597,-32.558 27.515,-17.885 39.896,9.63 39.896,9.63 4.868,-6.638 22.545,8.074 23.773,9.109 v 0.062 c 0,0 0.02,-0.018 0.036,-0.031 0.016,0.014 0.035,0.031 0.035,0.031 v -0.062 c 1.229,-1.035 18.906,-15.747 23.774,-9.109 0,0 12.38,-27.515 39.895,-9.63 0,0 25.68,22.468 26.598,32.558 0,0 14.215,-16.965 15.591,-31.182 0,0 9.63,10.088 9.63,14.215 0,0 10.548,-10.548 11.466,-38.062 0.399,-11.984 3.211,-44.022 22.929,-35.08 0,0 18.572,8.254 25.451,27.515 0,0 21.323,-43.793 12.382,-77.729 -10e-4,0 19.029,6.879 20.405,11.006 z"
   id="path63819" />
		<path
   fill="#7a3518"
   d="M 870.083,765.071"
   id="path63821" />
		<path
   fill="#f79c74"
   d="m 1129.103,727.009 c -2.293,-27.057 -33.476,-70.619 -33.476,-70.619 3.669,0 20.062,1.834 20.062,1.834 -23.731,-30.267 -47.146,-52.762 -65.92,-64.201 -25.575,-15.581 -16.967,-39.895 -16.967,-39.895 -1.376,8.713 7.795,14.674 7.795,14.674 -7.337,-16.967 19.72,-38.062 19.72,-38.062 7.966,-3.983 12.921,-8.881 16.006,-13.437 5.632,21.025 6.574,38.363 6.464,51.498 -0.173,20.196 -18.343,13.757 -18.343,13.757 13.526,10.089 20.177,5.732 20.177,5.732 16.967,-11.923 -3.21,-85.065 -3.21,-85.065 -6.419,12.84 -22.012,15.592 -22.012,15.592 -17.885,6.878 -27.057,20.178 -27.057,20.178 -11.464,11.464 -21.554,14.215 -21.554,14.215 -21.367,-11.822 -66.598,-7.868 -67.372,-7.799 -0.776,-0.069 -46.005,-4.023 -67.373,7.799 0,0 -10.09,-2.751 -21.554,-14.215 0,0 -9.172,-13.3 -27.056,-20.178 0,0 -15.593,-2.752 -22.012,-15.592 0,0 -20.178,73.143 -3.212,85.065 0,0 6.651,4.356 20.179,-5.732 0,0 -18.17,6.439 -18.343,-13.757 -0.111,-13.135 0.832,-30.473 6.463,-51.498 3.085,4.556 8.04,9.453 16.007,13.437 0,0 27.057,21.095 19.72,38.062 0,0 9.171,-5.961 7.795,-14.674 0,0 8.607,24.313 -16.967,39.895 -18.775,11.439 -42.189,33.935 -65.921,64.201 0,0 16.394,-1.834 20.063,-1.834 0,0 -31.183,43.562 -33.477,70.619 l 11.006,-6.42 c 0,0 -4.585,48.608 3.67,66.034 0,0 34.85,-41.729 75.435,-67.868 0,0 -41.502,21.324 -59.844,32.33 0,0 -2.981,-33.935 14.444,-59.156 l -18.57,8.483 c 0,0 17.424,-44.94 46.772,-55.946 0,0 18.801,-8.255 27.973,-3.21 0,0 14.217,-12.382 32.102,-0.917 0,0 19.719,14.216 26.139,11.465 0,0 -1.833,-17.886 -14.673,-19.719 l 0.916,5.961 c 0,0 -23.845,-20.178 -54.57,-8.713 0,0 21.093,-13.757 32.559,-10.547 l -4.128,-5.044 c 0,0 15.593,0.459 22.93,6.878 v -5.961 c 0,0 24.761,12.84 30.724,27.056 0,0 9.63,17.426 0.917,25.681 0,0 0.573,25.448 11.851,28.977 v 0.027 c 0.012,-0.005 0.024,-0.009 0.036,-0.014 0.012,0.005 0.024,0.009 0.035,0.014 v -0.027 c 11.278,-3.528 11.851,-28.977 11.851,-28.977 -8.713,-8.255 0.918,-25.681 0.918,-25.681 5.961,-14.216 30.723,-27.056 30.723,-27.056 v 5.961 c 7.337,-6.419 22.93,-6.878 22.93,-6.878 l -4.127,5.044 c 11.465,-3.21 32.558,10.547 32.558,10.547 -30.726,-11.465 -54.569,8.713 -54.569,8.713 l 0.916,-5.961 c -12.84,1.833 -14.674,19.719 -14.674,19.719 6.421,2.751 26.139,-11.465 26.139,-11.465 17.885,-11.465 32.102,0.917 32.102,0.917 9.172,-5.045 27.973,3.21 27.973,3.21 29.349,11.006 46.772,55.946 46.772,55.946 l -18.57,-8.483 c 17.427,25.222 14.444,59.156 14.444,59.156 -18.342,-11.006 -59.844,-32.33 -59.844,-32.33 40.585,26.139 75.436,67.868 75.436,67.868 8.254,-17.426 3.669,-66.034 3.669,-66.034 z"
   id="path63823" />
		<path
   fill="#f79c74"
   d="m 824.225,787.542 c 0,0 4.356,12.611 2.292,36.227 -0.584,6.687 0,19.262 3.669,26.598 l 11.924,-15.133 c 0,0 -1.605,19.261 11.464,33.018 0,0 -9.859,-16.278 -5.045,-49.067 l -15.82,17.426 c -10e-4,-0.002 -1.834,-40.356 -8.484,-49.069 z"
   id="path63825" />
		<path
   fill="#f79c74"
   d="m 1026.612,652.721 c 0,0 -12.037,37.832 -51.934,19.947 0,0 -10.662,-3.438 -12.382,5.159 0,0 3.778,29.201 -19.223,33.697 -23.003,-4.496 -19.225,-33.697 -19.225,-33.697 -1.72,-8.598 -12.382,-5.159 -12.382,-5.159 -39.895,17.885 -51.933,-19.947 -51.933,-19.947 0,0 -17.427,4.127 -23.388,26.598 0,0 13.756,-8.255 20.407,-6.879 5.73,13.986 30.725,11.693 30.725,11.693 16.738,-2.063 18.571,5.731 18.571,5.731 -40.814,-4.126 -36.228,43.106 -36.228,43.106 l 11.924,-5.962 c 15.459,22.278 60.751,6.814 61.527,6.547 0.774,0.268 46.067,15.731 61.527,-6.547 l 11.923,5.962 c 0,0 4.586,-47.232 -36.227,-43.106 0,0 1.832,-7.795 18.57,-5.731 0,0 24.994,2.293 30.726,-11.693 6.649,-1.376 20.405,6.879 20.405,6.879 -5.957,-22.471 -23.383,-26.598 -23.383,-26.598 z"
   id="path63827" />
		<path
   fill="#ffffff"
   d="m 837.065,594.023 c 0,0 -39.896,40.812 -46.316,54.112 h 14.675 c 0,0 -30.266,39.438 -38.062,64.658 l 10.088,-3.669 c 0,0 -7.335,19.26 -5.043,77.499 0,0 -9.173,-33.934 -3.67,-66.034 l -11.006,6.42 c 0,0 7.795,-44.021 33.477,-70.619 l -20.063,1.834 c -10e-4,0 18.688,-31.183 65.92,-64.201 z"
   id="path63829" />
		<path
   fill="#ffffff"
   d="m 805.423,503.226 c 0,0 6.878,12.382 19.26,14.674 0,0 18.802,6.421 29.808,21.096 0,0 12.382,12.84 25.222,11.922 l -11.924,7.338 c 0,0 -11.462,-4.128 -18.801,-16.051 0,0 -7.338,-13.757 -27.056,-20.636 0,0 -15.592,-5.961 -16.509,-18.343 z"
   id="path63831" />
		<path
   fill="#ffffff"
   d="m 890.309,652.084 c -1.609,3.851 -2.802,10.267 -2.802,10.267 -3.914,-2.283 -3.42,-8.839 -2.809,-12.446 l -11.637,-4.521 c -5.044,11.464 2.688,21.359 10.777,23.157 16.509,3.669 21.095,-10.775 21.095,-10.775 z"
   id="path63833" />
		<path
   fill="#ffffff"
   d="m 943.225,744.207 v 0 h -0.008 c -0.002,0 -0.009,0 -0.009,0 v 0 c -0.373,10e-4 -18.658,0.049 -28.415,4.814 0,0 2.521,12.152 9.63,20.636 l 2.293,-17.655 2.294,4.586 c 0,0 11.421,-0.912 14.198,-0.459 v 10e-4 c 0,0 0.006,-10e-4 0.009,-10e-4 0,0 0.005,0 0.008,10e-4 v -10e-4 c 2.777,-0.453 14.197,0.459 14.197,0.459 l 2.293,-4.586 2.294,17.655 c 7.108,-8.483 9.63,-20.636 9.63,-20.636 -9.758,-4.766 -28.042,-4.813 -28.414,-4.814 z"
   id="path63835" />
		<path
   fill="#ffffff"
   d="m 960.118,783.874 c -0.229,6.65 -4.585,17.196 -4.585,17.196 l -2.752,-5.045 h -9.556 -0.074 -9.556 l -2.752,5.045 c 0,0 -4.355,-10.546 -4.585,-17.196 0,0 -5.045,14.445 -1.605,22.012 l 18.498,0.227 v 0.002 h 0.037 0.037 v -0.002 l 18.498,-0.227 c 3.44,-7.567 -1.605,-22.012 -1.605,-22.012 z"
   id="path63837" />
		<path
   fill="#f79c74"
   d="m 1003.913,739.85 c 0,0 -24.765,8.255 -29.809,37.146 0,0 0,12.84 0.918,16.967 0,0 0.46,22.928 -14.215,24.762 0,0 -12.323,-3.192 -17.39,-1.386 -5.066,-1.807 -17.39,1.386 -17.39,1.386 -14.675,-1.834 -14.216,-24.762 -14.216,-24.762 0.918,-4.127 0.918,-16.967 0.918,-16.967 -5.044,-28.891 -29.808,-37.146 -29.808,-37.146 -37.146,-2.293 -70.163,41.73 -70.163,41.73 40.354,-35.311 65.576,-32.101 65.576,-32.101 9.63,0.917 13.988,9.859 13.988,9.859 -2.752,3.668 -4.815,12.839 -4.815,12.839 2.294,-0.917 6.648,1.835 6.648,1.835 -4.814,5.503 -5.73,16.509 -5.73,16.509 5.045,-1.375 7.908,1.146 7.908,1.146 -2.75,2.752 -4.471,15.478 -4.471,15.478 7.223,-2.064 10.776,4.242 10.776,4.242 3.668,20.636 12.382,30.724 12.382,30.724 l -0.916,-9.63 c 8.861,18.165 27.989,20.492 29.275,20.629 v 0.007 c 0,0 0.021,-0.003 0.036,-0.004 0.015,10e-4 0.035,0.004 0.035,0.004 v -0.007 c 1.286,-0.137 20.415,-2.464 29.276,-20.629 l -0.916,9.63 c 0,0 8.714,-10.088 12.381,-30.724 0,0 3.555,-6.307 10.776,-4.242 0,0 -1.72,-12.726 -4.471,-15.478 0,0 2.863,-2.521 7.908,-1.146 0,0 -0.916,-11.006 -5.73,-16.509 0,0 4.355,-2.752 6.648,-1.835 0,0 -2.063,-9.171 -4.814,-12.839 0,0 4.357,-8.942 13.988,-9.859 0,0 25.221,-3.21 65.575,32.101 0,10e-4 -33.014,-44.023 -70.158,-41.73 z"
   id="path63839" />
		<path
   fill="#7a3518"
   d="M 1016.752,765.071"
   id="path63841" />
		<path
   fill="#f79c74"
   d="m 1062.609,787.542 c 0,0 -4.355,12.611 -2.291,36.227 0.584,6.687 0,19.262 -3.67,26.598 l -11.923,-15.133 c 0,0 1.604,19.261 -11.464,33.018 0,0 9.859,-16.278 5.045,-49.067 l 15.82,17.426 c 0,-0.002 1.833,-40.356 8.483,-49.069 z"
   id="path63843" />
		<path
   fill="#ffffff"
   d="m 1049.77,594.023 c 0,0 39.895,40.812 46.315,54.112 h -14.674 c 0,0 30.265,39.438 38.062,64.658 l -10.089,-3.669 c 0,0 7.336,19.26 5.044,77.499 0,0 9.172,-33.934 3.669,-66.034 l 11.006,6.42 c 0,0 -7.795,-44.021 -33.476,-70.619 l 20.062,1.834 c 10e-4,0 -18.687,-31.183 -65.919,-64.201 z"
   id="path63845" />
		<path
   fill="#d37d5f"
   d="m 997.492,692.158 c 0,0 12.841,31.183 -27.973,29.349 l -26.066,-0.914 v -0.003 l -0.035,0.002 -0.036,-0.002 v 0.003 l -26.066,0.914 c -40.813,1.834 -27.973,-29.349 -27.973,-29.349 -23.846,9.173 -19.72,40.813 -19.72,40.813 l 11.924,-5.962 c 16.509,22.47 61.794,6.535 61.794,6.535 h 0.154 c 0,0 45.285,15.935 61.794,-6.535 l 11.923,5.962 c -10e-4,0 4.125,-31.64 -19.72,-40.813 z"
   id="path63847" />
		<path
   fill="#ffffff"
   d="m 1081.412,503.226 c 0,0 -6.879,12.382 -19.261,14.674 0,0 -18.802,6.421 -29.808,21.096 0,0 -12.382,12.84 -25.222,11.922 l 11.924,7.338 c 0,0 11.463,-4.128 18.801,-16.051 0,0 7.338,-13.757 27.057,-20.636 0,0 15.591,-5.961 16.509,-18.343 z"
   id="path63849" />
		<path
   fill="#ffffff"
   d="m 996.525,652.084 c 1.609,3.851 2.802,10.267 2.802,10.267 3.914,-2.283 3.42,-8.839 2.809,-12.446 l 11.638,-4.521 c 5.043,11.464 -2.688,21.359 -10.778,23.157 -16.509,3.669 -21.094,-10.775 -21.094,-10.775 z"
   id="path63851" />
		<path
   fill="#d37d5f"
   d="m 943.417,841.424 c -2.841,-0.041 -28.962,-1.61 -42.609,-44.94 0,0 1.604,18.572 4.127,25.45 0,0 7.104,17.886 10.087,20.178 l -0.916,-9.63 c 0,0 9.148,17.839 29.275,20.624 v 0.012 c 0.012,-0.001 0.024,-0.004 0.036,-0.006 0.012,0.002 0.024,0.005 0.035,0.006 v -0.012 c 20.128,-2.785 29.276,-20.624 29.276,-20.624 l -0.916,9.63 c 2.982,-2.292 10.086,-20.178 10.086,-20.178 2.522,-6.878 4.128,-25.45 4.128,-25.45 -13.647,43.33 -39.769,44.899 -42.609,44.94 z"
   id="path63853" />
	</g>
</svg>
