<?xml version="1.0" encoding="UTF-8" standalone="no"?>
<svg
   xmlns:dc="http://purl.org/dc/elements/1.1/"
   xmlns:cc="http://creativecommons.org/ns#"
   xmlns:rdf="http://www.w3.org/1999/02/22-rdf-syntax-ns#"
   xmlns:svg="http://www.w3.org/2000/svg"
   xmlns="http://www.w3.org/2000/svg"
   xmlns:sodipodi="http://sodipodi.sourceforge.net/DTD/sodipodi-0.dtd"
   xmlns:inkscape="http://www.inkscape.org/namespaces/inkscape"
   viewBox="0 0 768 768"
   height="768"
   width="768"
   xml:space="preserve"
   id="svg2"
   version="1.1"
   sodipodi:docname="Cougar.svg"
   inkscape:version="1.0.2 (e86c870879, 2021-01-15, custom)"><sodipodi:namedview
     pagecolor="#ffffff"
     bordercolor="#666666"
     borderopacity="1"
     objecttolerance="10"
     gridtolerance="10"
     guidetolerance="10"
     inkscape:pageopacity="0"
     inkscape:pageshadow="2"
     inkscape:window-width="1366"
     inkscape:window-height="715"
     id="namedview66879"
     showgrid="false"
     inkscape:zoom="0.71354167"
     inkscape:cx="331.84253"
     inkscape:cy="422.16651"
     inkscape:window-x="-8"
     inkscape:window-y="-8"
     inkscape:window-maximized="1"
     inkscape:current-layer="svg2" /><metadata
     id="metadata8"><rdf:RDF><cc:Work
         rdf:about=""><dc:format>image/svg+xml</dc:format><dc:type
           rdf:resource="http://purl.org/dc/dcmitype/StillImage" /></cc:Work></rdf:RDF></metadata><defs
     id="defs6"><clipPath
       id="clipPath18"
       clipPathUnits="userSpaceOnUse"><path
         id="path16"
         d="M 0,576 H 576 V 0 H 0 Z" /></clipPath></defs><path
     id="rect66881"
     style="fill:#d7ac87;fill-opacity:1;stroke-width:1.43854"
     d="M 125.40279,315.552 91.17324,243.82152 86.673143,186.95576 70.557528,147.75575 71.288603,100.62789 78.46106,72.328679 96.534316,49.97536 l 53.045654,2.978102 111.90697,115.094888 122.90883,-8.05839 129.49649,9.10949 84.92887,-100.0292 65.30843,-24.350366 30.27193,37.391588 3.71397,53.747098 -19.16492,57.0438 -2.34739,45.83211 -33.2144,76.81752 -2.97295,161.49651 -10.90079,32.66888 -124.27213,74.65954 -27.16159,44.99603 c 0,0 1.76747,100.22808 -94.30762,101.13797 C 287.69858,731.42082 290.08592,629.3253 290.08592,629.3253 L 254.00476,579.10756 137.3152,507.47434 126.80425,474.92923 Z"
     sodipodi:nodetypes="cccccccccccccccccccccczccccc" /><path
     style="fill:#b3716e;stroke:none;stroke-width:1px;stroke-linecap:butt;stroke-linejoin:miter;stroke-opacity:1;fill-opacity:1"
     d="m 331.73115,548.26066 7.68011,11.64404 14.12149,9.41433 14.86472,27.74749 29.48171,0.99098 11.39629,-16.3512 7.92785,-18.08542 9.66208,-3.46844 8.1756,-7.6801 1.73421,-4.45942 -17.34218,-4.21168 -15.36021,1.73422 -20.06739,8.91884 -12.13952,-5.4504 -13.87375,-4.95491 -14.61698,0.24775 -6.93687,1.73421 z"
     id="path67711" /><path
     style="fill:#c1dd7d;fill-opacity:1;stroke:none;stroke-width:1px;stroke-linecap:butt;stroke-linejoin:miter;stroke-opacity:1"
     d="m 526.7865,357.72263 c 0,0 -50.80291,-10.16059 -61.66423,26.9781 -10.86131,37.13869 53.25548,12.61314 53.25548,12.61314 l 16.46715,-29.78102 z"
     id="path67709" /><path
     style="fill:#c1dd7d;stroke:none;stroke-width:1px;stroke-linecap:butt;stroke-linejoin:miter;stroke-opacity:1;fill-opacity:1"
     d="m 241.75183,357.72263 c 0,0 50.80291,-10.16059 61.66423,26.9781 10.86131,37.13869 -53.25548,12.61314 -53.25548,12.61314 l -16.46715,-29.78102 z"
     id="path67707" /><g
     transform="matrix(1.3333333,0,0,-1.3333333,0,768)"
     id="g10"><g
       id="g12"><g
         clip-path="url(#clipPath18)"
         id="g14"><g
           transform="translate(346.9336,361.0107)"
           id="g20"><path
             id="path22"
             style="fill:#373535;fill-opacity:1;fill-rule:nonzero;stroke:none"
             d="m 0,0 -6.322,-19.869 c 0,0 16.256,-18.512 16.256,-30.704 0,0 15.353,34.317 -9.934,50.573" /></g><g
           transform="translate(325.3701,304.1152)"
           id="g24"><path
             id="path26"
             style="fill:#373535;fill-opacity:1;fill-rule:nonzero;stroke:none"
             d="m 0,0 c -5.418,-12.869 -5.079,-27.771 -5.079,-27.771 3.387,12.192 20.32,36.238 20.32,36.238 z" /></g><g
           transform="translate(377.0801,156.457)"
           id="g28"><path
             id="path30"
             style="fill:#373535;fill-opacity:1;fill-rule:nonzero;stroke:none"
             d="m 0,0 c -11.854,-8.579 -30.481,-14.902 -30.481,-14.902 0,0 36.832,5.418 29.21,-0.903 -7.619,-6.321 -31.328,-13.998 -31.328,-13.998 0,0 27.095,3.612 23.286,-2.259 -3.811,-5.87 -21.168,-12.642 -21.168,-12.642 0,0 16.085,-0.903 11.43,-4.064 -4.64,-3.15 -58.891,-4.951 -67.22,8.001 4.917,4.595 14.802,17.163 17.731,21.805 3.937,6.237 5.991,11.733 10.36,14.258 1.586,0.917 4.635,3.14 6.962,5.738 -0.002,-0.005 -0.01,-0.017 -0.01,-0.017 0.004,0.004 0.007,0.011 0.01,0.017 1.364,1.522 2.472,3.169 2.902,4.769 3.188,5.148 8.151,12.871 10.425,14.855 0,0 -9.191,-4.393 -12.375,-9.806 -1.471,1.033 -3.773,1.882 -7.202,2.428 -2.439,0.389 -4.697,0.559 -6.79,0.559 -14.066,0 -20.655,-7.669 -24.822,-8.097 -4.165,0.428 -10.757,8.097 -24.822,8.097 -2.092,0 -4.349,-0.17 -6.79,-0.559 -3.428,-0.545 -5.731,-1.395 -7.202,-2.428 -3.183,5.411 -12.375,9.806 -12.375,9.806 2.274,-1.984 7.236,-9.707 10.427,-14.855 0.427,-1.6 1.536,-3.249 2.899,-4.769 2.328,-2.598 5.377,-4.821 6.962,-5.738 4.37,-2.525 6.423,-8.021 10.36,-14.258 2.928,-4.642 12.814,-17.21 17.731,-21.805 -8.329,-12.952 -62.579,-11.151 -67.218,-8.001 -4.657,3.161 11.429,4.064 11.429,4.064 0,0 -17.358,6.772 -21.167,12.642 -3.81,5.871 23.284,2.259 23.284,2.259 0,0 -23.708,7.677 -31.328,13.998 -7.621,6.321 29.211,0.903 29.211,0.903 0,0 -18.628,6.323 -30.481,14.902 -11.854,8.579 27.942,-2.259 27.942,-2.259 0,0 -15.241,9.031 -23.286,12.644 -8.045,3.612 11.856,9.031 11.856,9.031 0,0 -7.198,7.677 -12.28,8.129 -1.978,0.176 -5.047,-1.026 -7.982,-3.909 -7.688,22.998 -17.207,35.729 -29.808,42.73 -13.369,7.427 -29.709,38.62 -29.709,38.62 5.448,-30.697 24.757,-40.602 36.64,-51 8.851,-7.745 15.503,-27.297 18.321,-36.77 -0.392,-0.793 -0.762,-1.633 -1.106,-2.526 -7.018,1.542 -26.38,5.278 -56.184,7.165 -17.093,10.552 -25.537,18.037 -29.337,22.849 -6.773,8.579 -6.773,31.607 -8.127,77.667 -1.356,46.058 0,56.444 1.806,60.508 1.808,4.065 19.417,24.836 19.417,24.836 -2.259,10.836 -16.708,37.028 -16.708,37.028 4.517,2.257 30.705,-4.064 30.705,-4.064 -5.87,13.546 -19.867,25.286 -19.867,25.286 3.613,5.869 19.416,10.386 19.416,10.386 -8.579,8.128 -20.771,8.579 -20.771,8.579 1.355,13.094 14.449,22.578 14.449,22.578 -10.837,5.87 -34.317,0.904 -34.317,0.904 0,3.611 8.127,17.158 8.127,17.158 -6.773,2.709 -14.45,0.904 -14.45,0.904 0,19.868 18.965,28.899 18.965,28.899 0,0 -18.513,10.386 -29.802,4.516 -11.289,-5.871 -10.837,-23.03 -7.225,-45.156 3.614,-22.125 21.675,-44.704 27.094,-55.542 5.418,-10.837 -9.483,-21.222 -9.483,-21.222 0,0 12.192,-11.74 18.062,-19.868 5.87,-8.128 -0.451,-26.643 -2.259,-26.643 -1.807,0 -20.771,24.837 -26.189,40.641 -5.419,15.805 8.127,24.836 8.127,24.836 -14.9,8.127 -8.127,23.029 -8.127,23.029 -16.256,16.256 -20.32,38.381 -16.256,67.733 4.064,29.35 23.029,32.964 36.576,30.931 13.546,-2.032 53.509,-35.221 69.765,-60.283 16.256,-25.061 25.061,-56.218 25.061,-56.218 0,0 16.256,23.707 46.059,30.48 27.507,6.251 50.381,-17.485 53.743,-21.181 l 0.234,-0.239 0.21,0.239 c 3.362,3.696 26.236,27.432 53.743,21.181 29.803,-6.773 46.06,-30.48 46.06,-30.48 0,0 8.804,31.157 25.061,56.218 16.256,25.062 56.218,58.251 69.764,60.283 13.547,2.033 32.511,-1.581 36.576,-30.931 4.063,-29.352 0,-51.477 -16.256,-67.733 0,0 6.773,-14.902 -8.128,-23.029 0,0 13.547,-9.031 8.128,-24.836 -5.418,-15.804 -24.382,-40.641 -26.19,-40.641 -1.807,0 -8.128,18.515 -2.258,26.643 5.87,8.128 18.062,19.868 18.062,19.868 0,0 -14.9,10.385 -9.482,21.222 5.418,10.838 23.48,33.417 27.092,55.542 3.614,22.126 4.065,39.285 -7.224,45.156 -11.287,5.87 -29.802,-4.516 -29.802,-4.516 0,0 18.966,-9.031 18.966,-28.899 0,0 -7.678,1.805 -14.45,-0.904 0,0 8.127,-13.547 8.127,-17.158 0,0 -23.48,4.966 -34.318,-0.904 0,0 13.094,-9.484 14.45,-22.578 0,0 -12.192,-0.451 -20.772,-8.579 0,0 15.803,-4.517 19.416,-10.386 0,0 -13.995,-11.74 -19.867,-25.286 0,0 26.189,6.321 30.704,4.064 0,0 -14.448,-26.192 -16.707,-37.028 0,0 17.61,-20.771 19.418,-24.836 1.806,-4.064 3.161,-14.45 1.806,-60.508 C 101.706,76.311 101.706,53.283 94.934,44.704 91.134,39.892 82.689,32.407 65.595,21.855 35.792,19.968 16.431,16.232 9.413,14.69 c -0.345,0.893 -0.716,1.733 -1.108,2.526 2.819,9.473 9.47,29.025 18.322,36.77 11.884,10.398 31.192,20.303 36.639,51 0,0 -16.339,-31.193 -29.708,-38.62 -12.601,-7.001 -22.12,-19.732 -29.807,-42.73 -2.937,2.883 -6.006,4.085 -7.983,3.909 -5.081,-0.452 -12.28,-8.129 -12.28,-8.129 0,0 19.901,-5.419 11.857,-9.031 C -12.7,6.772 -27.941,-2.259 -27.941,-2.259 -27.941,-2.259 11.854,8.579 0,0 m -129.546,-56.147 5.319,-0.411 c 2.277,-5.418 13.663,-14.562 13.663,-14.562 l 0.649,-5.758 3.904,2.71 4.879,-2.71 2.602,3.049 4.883,-3.387 1.625,3.387 2.942,-3.441 2.942,3.441 1.625,-3.387 4.882,3.387 2.603,-3.049 4.879,2.71 3.903,-2.71 0.649,5.758 c 0,0 11.388,9.144 13.665,14.562 l 5.319,0.411 c 1.13,-0.055 2.272,-0.099 3.42,-0.128 -0.349,-3.072 -3.062,-23.794 -13.293,-29.747 0,0 -7.157,2.371 -8.459,5.758 0,0 -0.975,-6.095 -5.204,-5.758 -4.228,0.339 -4.879,2.709 -4.879,2.709 0,0 -5.206,-1.353 -6.182,0.679 0,0 -2.643,-1.176 -4.908,-0.687 0,0 -0.613,0.495 -0.962,0.324 -0.348,0.171 -0.96,-0.324 -0.96,-0.324 -2.267,-0.489 -4.91,0.687 -4.91,0.687 -0.976,-2.032 -6.182,-0.679 -6.182,-0.679 0,0 -0.65,-2.37 -4.879,-2.709 -4.229,-0.337 -5.203,5.758 -5.203,5.758 -1.302,-3.387 -8.459,-5.758 -8.459,-5.758 -10.233,5.953 -12.945,26.675 -13.293,29.747 1.147,0.029 2.289,0.073 3.42,0.128 m 28.099,44.69 c -0.539,3.068 -9.581,14.885 -20.216,13.929 -0.335,-0.031 -0.635,-0.073 -0.904,-0.121 -2.032,1.922 -3.537,3.9 -3.425,4.794 0.007,0.012 0.815,1.308 5.939,2.123 2.116,0.336 4.185,0.507 6.151,0.507 8.351,0 13.764,-3.072 17.718,-5.314 2.396,-1.359 4.466,-2.533 6.69,-2.762 l 0.414,-0.042 0.414,0.042 c 2.226,0.229 4.294,1.403 6.69,2.762 3.953,2.242 9.366,5.314 17.718,5.314 1.966,0 4.036,-0.171 6.152,-0.507 5.07,-0.808 5.915,-2.083 5.925,-2.083 0.119,-0.919 -1.382,-2.907 -3.415,-4.833 -0.263,0.047 -0.564,0.089 -0.901,0.12 -10.634,0.956 -19.677,-10.861 -20.217,-13.929 -0.476,-2.712 0.785,-5.36 3.112,-7.741 -1.208,-1.705 -2.727,-3.72 -4.362,-5.809 -2.36,-0.749 -4.797,-1.089 -5.935,-0.597 -1.734,0.749 -3.48,5.734 -4.609,9.625 -0.369,0.992 -0.794,1.077 -1.144,0 -1.128,-3.891 -2.875,-8.876 -4.609,-9.625 -1.138,-0.492 -3.575,-0.152 -5.935,0.597 -1.636,2.089 -3.155,4.104 -4.362,5.812 2.327,2.378 3.589,5.026 3.111,7.738 m 63.623,-89.465 c -9.248,-14.534 -39.104,-23.264 -51.256,-23.687 -12.152,0.423 -42.008,9.153 -51.256,23.687 -9.277,14.58 -14.011,26.587 -16.749,46.763 3.628,-1.045 8.041,-1.657 12.752,-1.952 0.41,-3.441 3.054,-21.838 13.925,-34.991 10.771,-13.034 36.122,-12.502 41.328,-12.247 5.207,-0.255 30.557,-0.787 41.328,12.247 10.872,13.153 13.515,31.55 13.925,34.991 4.71,0.295 9.124,0.907 12.753,1.952 -2.739,-20.176 -7.472,-32.183 -16.75,-46.763 m -152.223,98.14 c 0.011,-0.279 0.016,-0.55 0.032,-0.831 0.06,-1.101 0.165,-2.193 0.292,-3.278 -4.061,1.935 -7.956,3.826 -11.653,5.655 3.984,-0.455 7.776,-0.969 11.329,-1.546 m -43.926,18.817 c 16.482,-1.781 32.392,-4.096 44.749,-7.08 -0.309,-1.534 -0.547,-3.169 -0.696,-4.918 -5.183,0.699 -14.157,1.712 -26.571,2.423 -6.482,3.401 -12.296,6.594 -17.482,9.575 M 38.331,6.46 C 25.916,5.749 16.943,4.736 11.76,4.037 c -0.149,1.749 -0.388,3.384 -0.697,4.918 12.358,2.984 28.267,5.299 44.75,7.08 -5.187,-2.981 -11,-6.174 -17.482,-9.575 M 11.563,-6.891 c 0.127,1.085 0.232,2.177 0.292,3.278 0.017,0.281 0.02,0.552 0.033,0.831 3.552,0.577 7.344,1.091 11.329,1.546 -3.697,-1.829 -7.593,-3.72 -11.654,-5.655 M 137.427,-48.144 C 69.816,-26.205 22.502,-22.396 7.83,-21.734 c 0.791,2.04 1.486,4.144 2.072,6.296 50.473,4.498 153.018,-9.478 153.018,-9.478 -64.643,14.624 -112.62,16.88 -137.079,16.795 5.562,2.511 11.902,5.459 18.508,8.694 52.03,3.245 118.303,0.002 118.303,0.002 -43.387,5.936 -79.051,7.119 -105.29,6.607 6.588,3.471 13.098,7.123 19.043,10.809 34.954,2.909 66.845,3.684 66.845,3.684 -22.366,1.404 -42.309,1.559 -59.616,1.024 8.909,6.121 15.686,12.171 18.074,17.489 9.934,22.125 5.868,88.052 7.676,114.695 1.806,26.641 -4.517,27.996 -4.517,27.996 0,0 16.257,25.288 24.386,43.35 8.127,18.062 9.483,32.06 5.87,53.283 0,0 26.189,26.642 9.255,81.506 C 127.444,415.881 88.16,386.756 73.936,376.596 59.712,366.436 14.33,321.055 11.622,312.927 8.911,304.799 5.525,299.38 -1.248,298.703 c -6.749,-0.675 -46.451,11.424 -87.61,11.51 v 0.005 c -0.076,0 -0.148,-0.002 -0.222,-0.002 -0.074,0 -0.147,0.002 -0.222,0.002 v -0.005 c -41.158,-0.086 -80.861,-12.185 -87.61,-11.51 -6.773,0.677 -10.16,6.096 -12.87,14.224 -2.709,8.128 -48.09,53.509 -62.314,63.669 -14.223,10.16 -53.509,39.285 -70.442,-15.578 -16.933,-54.864 9.255,-81.506 9.255,-81.506 -3.613,-21.223 -2.257,-35.221 5.871,-53.283 8.128,-18.062 24.384,-43.35 24.384,-43.35 0,0 -6.322,-1.355 -4.515,-27.996 1.807,-26.643 -2.258,-92.57 7.675,-114.695 2.389,-5.318 9.165,-11.368 18.074,-17.489 -17.308,0.535 -37.25,0.38 -59.616,-1.024 0,0 31.89,-0.775 66.846,-3.684 5.944,-3.686 12.454,-7.338 19.042,-10.809 -26.239,0.512 -61.903,-0.671 -105.291,-6.607 0,0 66.274,3.243 118.306,-0.002 6.604,-3.235 12.944,-6.183 18.507,-8.694 -24.459,0.085 -72.437,-2.171 -137.08,-16.795 0,0 102.546,13.976 153.017,9.478 0.587,-2.152 1.282,-4.256 2.074,-6.296 -14.674,-0.662 -61.987,-4.471 -129.599,-26.41 0,0 87.477,20.182 132.205,20.526 1.091,-2.178 2.28,-4.254 3.531,-6.229 -12.427,-2.143 -59.884,-11.821 -126.414,-43.817 0,0 86.567,32.705 130.26,38.337 4.514,-5.818 9.436,-10.237 13.688,-12.675 0.217,-4.581 1.954,-27.016 15.547,-50.275 13.782,-23.583 50.273,-27.501 57.127,-28.034 0,0 0.206,-0.064 0.564,-0.041 0.358,-0.023 0.563,0.041 0.563,0.041 6.855,0.533 43.346,4.451 57.127,28.034 13.593,23.259 15.33,45.694 15.548,50.275 4.252,2.438 9.174,6.857 13.688,12.675 43.694,-5.632 130.26,-38.337 130.26,-38.337 -66.53,31.996 -113.987,41.674 -126.415,43.817 1.252,1.975 2.442,4.051 3.532,6.229 44.729,-0.344 132.204,-20.526 132.204,-20.526" /></g><g
           transform="translate(262.085,381.7817)"
           id="g32"><path
             id="path34"
             style="fill:#373535;fill-opacity:1;fill-rule:nonzero;stroke:none"
             d="m 0,0 25.64,-67.634 0.275,-0.727 0.275,0.727 L 51.829,0 25.915,-9.382 Z" /></g><g
           transform="translate(276.9868,283.3438)"
           id="g36"><path
             id="path38"
             style="fill:#373535;fill-opacity:1;fill-rule:nonzero;stroke:none"
             d="m 0,0 10.738,-28.326 0.275,-0.728 0.276,0.728 L 22.027,0 11.013,-3.986 Z" /></g><g
           transform="translate(235.3892,341.1421)"
           id="g40"><path
             id="path42"
             style="fill:#373535;fill-opacity:1;fill-rule:nonzero;stroke:none"
             d="M 0,0 -6.322,19.869 C -31.609,3.613 -16.256,-30.705 -16.256,-30.705 -16.256,-18.512 0,0 0,0" /></g><g
           transform="translate(235.3892,312.5825)"
           id="g44"><path
             id="path46"
             style="fill:#373535;fill-opacity:1;fill-rule:nonzero;stroke:none"
             d="m 0,0 c 0,0 16.934,-24.046 20.32,-36.239 0,0 0.339,14.903 -5.08,27.772 z" /></g><g
           transform="translate(204.6553,274.4814)"
           id="g48"><path
             id="path50"
             style="fill:#373535;fill-opacity:1;fill-rule:nonzero;stroke:none"
             d="m 0,0 c -12.204,0 -22.098,9.895 -22.098,22.098 0,3.672 0.91,7.125 2.493,10.171 0.775,0.009 1.554,0.018 2.357,0.018 1.47,0 2.925,-0.019 4.327,-0.056 2.64,-0.07 5.164,-0.285 7.576,-0.613 -3.325,-1.872 -5.577,-5.43 -5.577,-9.52 0,-6.031 4.889,-10.921 10.922,-10.921 6.033,0 10.922,4.89 10.922,10.921 0,1.137 -0.174,2.233 -0.496,3.261 -0.597,-2.624 -2.935,-4.587 -5.741,-4.587 -3.259,0 -5.899,2.64 -5.899,5.896 0,1.51 0.582,2.869 1.511,3.912 9.13,-2.183 15.888,-6.399 18.946,-12.098 0.566,-1.051 1.164,-2.117 1.778,-3.182 C 18.153,6.425 9.831,0 0,0 m 21.982,19.827 c -0.017,0.033 -0.036,0.067 -0.053,0.097 -4.968,9.259 -17.837,14.903 -34.77,15.355 -1.518,0.039 -2.988,0.056 -4.407,0.056 -0.143,0 -0.276,-0.002 -0.418,-0.002 -7.017,-0.017 -12.83,-0.433 -17.451,-0.433 -4.72,0 -8.199,0.437 -10.461,2.184 0,0 8.353,-11.965 12.417,-17.61 4.064,-5.645 9.707,-22.579 33.189,-22.579 7.673,0 13.598,-0.247 18.355,-1.188 -7.55,-1.853 -35.369,-7.561 -53.575,3.673 0,0 21.265,-21.232 61.142,-6.3 5.096,-2.847 8.458,-7.738 11.783,-16.053 0.694,-1.734 1.236,-2.481 1.629,-2.481 1.905,0 0.266,17.646 -4.79,25.512 0,0 -7.621,10.535 -12.59,19.769" /></g><g
           transform="translate(352.1016,292.9639)"
           id="g52"><path
             id="path54"
             style="fill:#373535;fill-opacity:1;fill-rule:nonzero;stroke:none"
             d="M 0,0 C 3.059,5.698 9.817,9.915 18.945,12.097 19.876,11.055 20.458,9.695 20.458,8.186 20.458,4.93 17.817,2.29 14.56,2.29 11.752,2.29 9.414,4.252 8.817,6.877 8.496,5.848 8.321,4.752 8.321,3.616 c 0,-6.031 4.89,-10.922 10.922,-10.922 6.033,0 10.923,4.891 10.923,10.922 0,4.089 -2.253,7.648 -5.577,9.519 2.413,0.328 4.936,0.543 7.577,0.614 1.4,0.036 2.855,0.056 4.326,0.056 0.802,0 1.581,-0.009 2.357,-0.018 1.583,-3.047 2.493,-6.5 2.493,-10.171 0,-12.204 -9.895,-22.098 -22.099,-22.098 -9.83,0 -18.152,6.424 -21.02,15.3 C -1.164,-2.118 -0.563,-1.051 0,0 m -6.707,-25.402 c 39.879,-14.932 61.143,6.299 61.143,6.299 -18.207,-11.234 -46.027,-5.525 -53.577,-3.672 4.759,0.941 10.684,1.187 18.357,1.187 23.482,0 29.125,16.934 33.189,22.579 4.064,5.645 12.416,17.611 12.416,17.611 -2.261,-1.748 -5.741,-2.184 -10.461,-2.184 -4.621,0 -10.434,0.415 -17.451,0.432 -0.141,0 -0.274,0.003 -0.417,0.003 -1.42,0 -2.89,-0.017 -4.407,-0.057 C 15.152,16.344 2.281,10.7 -2.686,1.442 -2.703,1.411 -2.72,1.377 -2.737,1.345 c -4.97,-9.235 -12.592,-19.77 -12.592,-19.77 -5.055,-7.865 -6.695,-25.512 -4.789,-25.512 0.391,0 0.934,0.748 1.628,2.482 3.325,8.314 6.687,13.206 11.783,16.053" /></g><g
           transform="translate(455.7314,266.8613)"
           id="g56"><path
             id="path58"
             style="fill:#373535;fill-opacity:1;fill-rule:nonzero;stroke:none"
             d="m 0,0 c 1.086,-38.012 -20.997,-66.377 -20.997,-66.377 49.21,47.639 27.769,102.276 8.805,128.692 -19.992,27.844 -60.959,51.477 -60.959,51.477 C -43.35,90.763 -1.355,47.414 0,0" /></g><g
           transform="translate(192.6274,380.6538)"
           id="g60"><path
             id="path62"
             style="fill:#373535;fill-opacity:1;fill-rule:nonzero;stroke:none"
             d="m 0,0 c 0,0 -40.969,-23.634 -60.959,-51.477 -18.966,-26.416 -40.406,-81.054 8.804,-128.692 0,0 -22.083,28.365 -20.996,66.377 C -71.797,-66.379 -29.803,-23.029 0,0" /></g><g
           transform="translate(223.2168,193.9355)"
           id="g64"><path
             id="path66"
             style="fill:#373535;fill-opacity:1;fill-rule:nonzero;stroke:none"
             d="M 0,0 10.387,8.129 C 10.839,3.612 17.16,-4.516 17.16,-4.516 15.354,2.258 12.192,22.577 12.192,22.577 Z" /></g><g
           transform="translate(338.3623,216.5127)"
           id="g68"><path
             id="path70"
             style="fill:#373535;fill-opacity:1;fill-rule:nonzero;stroke:none"
             d="m 0,0 c 0,0 -3.162,-20.319 -4.968,-27.093 0,0 6.322,8.128 6.774,12.645 l 10.386,-8.129 z" /></g></g></g></g></svg>
