<?xml version="1.0" encoding="UTF-8" standalone="no"?>
<svg
   xmlns:dc="http://purl.org/dc/elements/1.1/"
   xmlns:cc="http://creativecommons.org/ns#"
   xmlns:rdf="http://www.w3.org/1999/02/22-rdf-syntax-ns#"
   xmlns:svg="http://www.w3.org/2000/svg"
   xmlns="http://www.w3.org/2000/svg"
   xmlns:sodipodi="http://sodipodi.sourceforge.net/DTD/sodipodi-0.dtd"
   xmlns:inkscape="http://www.inkscape.org/namespaces/inkscape"
   viewBox="0 0 512 512"
   width="512"
   height="512"
   version="1.1"
   id="svg947"
   sodipodi:docname="Crow.svg"
   inkscape:version="1.0.2 (e86c870879, 2021-01-15, custom)">
  <metadata
     id="metadata953">
    <rdf:RDF>
      <cc:Work
         rdf:about="">
        <dc:format>image/svg+xml</dc:format>
        <dc:type
           rdf:resource="http://purl.org/dc/dcmitype/StillImage" />
        <dc:title></dc:title>
      </cc:Work>
    </rdf:RDF>
  </metadata>
  <defs
     id="defs951" />
  <sodipodi:namedview
     pagecolor="#ffffff"
     bordercolor="#666666"
     borderopacity="1"
     objecttolerance="10"
     gridtolerance="10"
     guidetolerance="10"
     inkscape:pageopacity="0"
     inkscape:pageshadow="2"
     inkscape:window-width="1366"
     inkscape:window-height="715"
     id="namedview949"
     showgrid="false"
     inkscape:zoom="0.27959184"
     inkscape:cx="474.16624"
     inkscape:cy="174.367"
     inkscape:window-x="-8"
     inkscape:window-y="-8"
     inkscape:window-maximized="1"
     inkscape:current-layer="svg947" />
  <style
     id="style900">
		tspan { white-space:pre }
		.shp0 { fill: #f9b506 } 
		.shp1 { fill: #160f06 } 
	</style>
  <path
     id="Path 5"
     class="shp1"
     d="m 136.24306,80.363884 c -2.7552,0.241891 -6.34227,0.890868 -7.96471,1.439549 -1.62245,0.55458 -4.93813,2.053127 -7.37474,3.333382 -2.43072,1.280255 -4.80243,2.649006 -5.25672,3.032493 -0.65487,0.55458 -0.89087,0.513281 -1.09736,-0.182894 -0.18879,-0.643077 -0.44248,-0.495582 -0.93217,0.56048 -0.46018,0.979366 -2.08852,2.053128 -5.10331,3.351082 -2.43072,1.050162 -5.7523,2.224221 -7.37474,2.613607 -1.622446,0.383487 -6.135787,1.616543 -10.029649,2.737503 -3.893862,1.115061 -9.59896,2.831904 -12.684551,3.811264 -3.08559,0.97937 -7.33344,2.59591 -9.439666,3.59297 -2.342217,1.10917 -5.280313,3.21539 -7.539933,5.41011 -2.424814,2.34812 -3.699169,4.04726 -3.687369,4.91453 0.0118,0.79647 -0.336288,1.32745 -0.867269,1.32745 -0.483783,0 -0.884969,0.20059 -0.890869,0.44249 -0.0059,0.24189 3.11509,0.90266 6.932255,1.46314 3.817165,0.56048 9.191874,1.17406 11.952977,1.36876 2.761102,0.19469 6.743461,0.44248 8.849686,0.56048 2.106226,0.11209 5.162318,0.47788 6.78476,0.80827 1.622443,0.32449 4.477942,0.61358 6.342276,0.63128 1.994129,0.0236 4.790632,0.57227 6.784762,1.33335 1.86433,0.71387 3.58707,1.57524 3.82306,1.91743 0.24189,0.34219 0.44249,0.41889 0.44249,0.17699 0.006,-0.24189 0.85547,0.1534 1.88203,0.88497 1.02656,0.73158 2.59001,2.38942 3.46908,3.68737 0.87907,1.29796 1.96463,3.49268 2.40711,4.87913 0.44249,1.38645 0.94397,2.51331 1.10326,2.50151 0.1593,-0.006 0.49559,1.77584 0.74338,3.97056 0.24779,2.19472 0.81417,4.51924 1.26255,5.16822 0.44249,0.64897 1.23896,2.7729 1.75814,4.71983 0.52508,1.94693 1.17996,3.67557 1.45725,3.83486 0.27729,0.1593 0.77877,0.82598 1.11506,1.47495 0.33039,0.64898 0.83187,2.9086 1.10326,5.01482 0.27139,2.10623 0.43658,4.16526 0.35989,4.57234 -0.0708,0.40709 0.13569,0.73748 0.46018,0.73748 0.32449,0 0.58408,1.51624 0.58408,3.39238 -0.006,1.86433 0.38939,4.65493 0.88497,6.19478 0.48968,1.53984 0.69027,2.7906 0.44838,2.7788 -0.24189,-0.0177 -0.0472,0.42478 0.44249,0.97346 0.73747,0.83777 0.89087,3.69917 0.93216,17.28049 0.0295,10.48393 0.30679,17.54598 0.77878,19.8233 0.40118,1.94693 0.59588,3.80537 0.43068,4.12985 -0.16519,0.32449 -0.0767,0.85547 0.18879,1.17996 0.26549,0.32449 0.64308,2.31862 0.83777,4.42484 0.1947,2.10623 0.64308,5.42781 0.99707,7.37474 0.34809,1.94693 1.03836,5.00303 1.52215,6.78476 0.48968,1.78174 2.10032,6.69627 3.58707,10.91462 1.48675,4.21835 3.74637,9.79365 5.02072,12.38956 1.27436,2.59591 3.55168,6.57826 5.06792,8.84968 1.51035,2.27142 4.33635,5.98829 6.27738,8.25971 1.94103,2.27142 4.87323,5.45731 6.52517,7.07975 1.64604,1.62244 7.89392,6.64317 13.88221,11.15651 5.98829,4.51924 11.02081,8.5016 11.1801,8.84968 0.1593,0.35399 0.56048,0.64308 0.88497,0.64308 0.32449,0 1.78174,0.76697 3.24489,1.70504 1.46315,0.93807 5.5753,5.01482 9.14467,9.06208 3.56938,4.04726 7.53994,8.59009 8.83199,10.09454 1.28616,1.50445 3.54578,3.92926 5.02662,5.39241 1.54575,1.52215 3.62248,2.9086 4.87323,3.24489 2.16522,0.58408 2.18292,0.57228 2.17112,-1.17996 0,-0.97347 -0.46018,-2.12393 -1.01476,-2.55461 -0.94987,-0.73748 -0.94397,-0.76697 0.0236,-0.44249 0.56638,0.1888 1.03246,0.0767 1.03246,-0.24779 0,-0.32449 0.59588,-0.21239 1.32746,0.24779 0.73157,0.46019 1.62834,1.45725 1.98823,2.21243 0.36578,0.75517 1.65194,4.69623 2.8555,8.74939 1.20945,4.05905 2.8319,8.50159 3.61657,9.88215 0.77877,1.38055 1.42775,2.97349 1.43365,3.53987 0.0118,0.56638 -0.67848,2.8909 -1.52215,5.16232 -0.84367,2.27142 -2.04133,5.06202 -2.66671,6.19478 -0.61947,1.13276 -2.15932,4.98532 -3.41597,8.5547 -1.26256,3.56937 -3.43958,8.74939 -4.84373,11.50459 -1.40415,2.7552 -2.767,5.07972 -3.0266,5.16232 -0.25369,0.0826 -0.35988,0.34808 -0.23009,0.58997 0.1298,0.2419 -0.20059,1.25666 -0.73747,2.24783 -0.53688,0.99706 -1.63424,2.85549 -2.44251,4.12985 -1.06197,1.67554 -1.51035,2.03543 -1.62245,1.29205 -0.11209,-0.75517 -0.70207,-1.03246 -2.21832,-1.03246 -1.57524,0 -2.13572,0.28319 -2.35992,1.17996 -0.15929,0.64897 -0.56048,1.17996 -0.88496,1.17996 -0.32449,0 -0.71388,0.59588 -0.86137,1.32745 -0.1534,0.73157 0.11209,1.92333 0.58998,2.65491 0.77287,1.19175 0.75517,1.38055 -0.1711,1.85843 -0.56638,0.29499 -2.7552,0.98526 -4.86733,1.53395 -2.11212,0.54868 -4.30094,1.23895 -4.86732,1.53394 -0.67848,0.34809 -2.09443,0.20059 -4.12986,-0.43658 -2.14752,-0.66668 -4.18295,-0.86137 -6.63726,-0.63128 -2.8201,0.27139 -3.81127,0.64898 -4.86733,1.85253 -0.73157,0.83187 -1.32745,2.18293 -1.32745,2.9912 0,1.13276 0.30679,1.47494 1.32745,1.48674 0.73157,0 1.72274,0.2478 2.21242,0.54279 0.61358,0.37168 -0.38938,0.65487 -3.24488,0.92626 -3.33929,0.31859 -4.61954,0.75518 -6.68447,2.25962 -2.02953,1.48675 -2.6903,1.71094 -3.24488,1.11506 -0.37759,-0.40708 -1.62244,-0.73747 -2.7552,-0.73157 -1.13277,0.006 -2.9971,0.25959 -4.12986,0.56048 -1.13276,0.30089 -2.9263,1.49265 -3.98236,2.64901 -1.05606,1.15635 -2.51331,2.24192 -3.24489,2.40711 -0.73157,0.16519 -1.55754,0.49558 -1.83483,0.73747 -0.27729,0.2419 -0.34219,0.76698 -0.1475,1.17406 0.2537,0.51918 2.32452,0.75518 6.99716,0.79647 3.65197,0.0354 7.82902,0.0826 9.29217,0.1003 1.46315,0.0236 5.5753,-0.26549 9.14468,-0.64308 3.56937,-0.37758 8.01781,-0.82007 9.88215,-0.98526 3.03249,-0.27139 3.42188,-0.177 3.68737,0.87907 0.23009,0.92036 0.78467,1.17996 2.50741,1.17996 1.21536,0 4.33634,-0.37759 6.93225,-0.83777 2.59591,-0.46019 5.38651,-1.09147 6.19478,-1.40416 0.81417,-0.31268 3.99416,-0.86726 7.07975,-1.23895 3.08559,-0.36579 7.99422,-0.93807 10.91462,-1.26256 2.92039,-0.32449 5.84079,-0.58408 6.48977,-0.56638 0.64897,0.0177 2.02952,-0.0472 3.06789,-0.13569 1.04426,-0.0885 2.30682,-0.55458 2.8142,-1.04426 0.50738,-0.48969 0.99116,-1.81714 1.07376,-2.9499 0.0826,-1.13276 0.34219,-2.39532 0.57818,-2.8024 0.23599,-0.40709 1.29206,-0.74927 2.34812,-0.75517 1.10916,-0.0118 2.66671,0.54278 3.68737,1.31565 0.97347,0.73747 2.23602,1.94103 2.8024,2.6785 0.56638,0.73158 1.42775,1.33336 1.91743,1.33336 0.48969,0 0.87907,-0.46609 0.87907,-1.03247 -0.006,-0.56638 -0.53688,-2.09442 -1.17406,-3.39238 -0.63717,-1.29795 -2.11802,-3.02069 -3.28028,-3.83486 -1.16816,-0.80827 -2.25962,-2.00593 -2.42481,-2.65491 -0.1711,-0.64897 -0.1475,-1.77583 0.0413,-2.50741 0.2419,-0.89677 0.92627,-1.42185 2.12393,-1.62244 1.23895,-0.20649 2.33632,0.1062 3.64607,1.03246 1.03246,0.73158 2.56051,2.20063 3.39238,3.27439 0.83187,1.06786 1.71684,1.92923 1.95873,1.91743 0.24189,-0.0177 0.44248,-0.82597 0.44248,-1.79944 0,-0.97346 -0.28319,-2.50151 -0.62537,-3.39238 -0.34809,-0.89087 -1.34516,-2.34811 -2.21243,-3.23308 -0.87316,-0.89087 -2.649,-1.91153 -3.94696,-2.27142 -1.88203,-0.53098 -3.02069,-0.47789 -5.6048,0.24779 -1.78763,0.50148 -3.90566,1.59294 -4.71983,2.43661 -1.12686,1.16226 -2.02953,1.51035 -3.83487,1.47495 -1.29795,-0.0295 -3.59297,-0.23599 -5.09742,-0.46018 -1.51034,-0.2242 -2.91449,-0.54278 -3.12099,-0.70208 -0.20649,-0.15929 0.2183,-1.35695 0.94987,-2.6549 0.73157,-1.29796 1.53984,-2.42482 1.79354,-2.50742 0.25369,-0.0826 0.45428,-0.47788 0.44248,-0.88496 -0.0118,-0.40709 2.27732,-4.05316 5.08562,-8.11222 2.8083,-4.05315 6.27738,-8.83788 7.70513,-10.61962 1.42775,-1.78174 4.45434,-5.50451 6.73166,-8.25971 2.27732,-2.7552 4.12986,-5.34521 4.11806,-5.7523 -0.0118,-0.40708 0.24189,-0.73747 0.56638,-0.73747 0.32449,0 0.53098,-0.20059 0.46608,-0.44248 -0.0708,-0.24189 0.0649,-1.30386 0.29499,-2.35992 0.26549,-1.20946 0.85547,-2.02363 1.59884,-2.21242 0.64898,-0.1593 1.61065,-1.15636 2.14163,-2.21242 0.66667,-1.32746 0.86137,-2.73161 0.62538,-4.57234 -0.1829,-1.46315 -0.76698,-4.11806 -1.29206,-5.89979 -0.53098,-1.78174 -1.34515,-4.43665 -1.81123,-5.89979 -0.46609,-1.46315 -0.84957,-3.25079 -0.84367,-3.98236 0,-0.73158 0.26549,-1.32746 0.58997,-1.32746 0.32449,0 1.25666,0.2655 2.06493,0.58998 1.45725,0.58408 1.47495,0.54868 1.47495,-2.35991 0,-1.62245 0.20059,-2.9558 0.44248,-2.9676 0.24189,-0.006 0.77288,0.65488 1.17996,1.47495 0.40709,0.82007 0.73748,1.88793 0.73748,2.37762 0,0.48968 0.46608,1.03836 1.03246,1.23305 0.90267,0.30089 0.97346,0.1003 0.55458,-1.62244 -0.44838,-1.82894 -0.40709,-1.90563 0.53098,-1.08556 0.56048,0.48968 1.70504,0.90857 2.54871,0.94396 0.83777,0.0295 2.25962,0.2301 3.15049,0.44249 1.22126,0.28909 1.62244,0.16519 1.62244,-0.50148 0,-0.48969 0.39529,-0.88497 0.88497,-0.88497 0.48968,0 1.88203,-1.09146 3.09739,-2.41892 1.21536,-1.33335 2.944,-2.7906 3.83486,-3.24488 0.89087,-0.45429 3.15049,-0.96167 5.01483,-1.12686 1.86433,-0.1652 4.18885,-0.46609 5.16231,-0.66078 0.97347,-0.20059 2.8319,-0.89677 4.12986,-1.54574 1.29795,-0.65488 2.56051,-1.55165 2.8024,-1.99413 0.24189,-0.44249 1.03836,-0.80237 1.76994,-0.80237 0.73157,0.006 4.24785,1.19765 7.81722,2.649 3.56937,1.45135 9.41017,3.41008 12.97954,4.35995 3.56937,0.94396 8.08271,2.04722 10.02964,2.44841 1.94694,0.39529 5.7287,1.61654 8.40721,2.708 2.6785,1.09737 4.86732,2.25373 4.86732,2.57821 0,0.32449 0.33039,0.44839 0.73748,0.27729 0.40708,-0.17109 1.79944,0.118 3.09739,0.64308 1.29795,0.53098 3.15639,1.30975 4.12985,1.74044 0.97347,0.42478 2.767,1.06786 3.98236,1.41595 1.21536,0.35399 2.21242,0.84367 2.21242,1.08556 0,0.24189 0.59588,0.47788 1.32746,0.52508 0.73157,0.0472 3.32158,0.48379 5.75229,0.96757 2.43662,0.48378 4.95583,1.09146 5.6048,1.34515 0.64898,0.25959 1.31566,0.63128 1.47495,0.82597 0.1593,0.20059 6.53697,4.48384 14.1595,9.52816 7.62253,5.03843 14.92647,9.83496 16.22443,10.65503 1.29795,0.82007 2.89089,1.65194 3.53987,1.85253 0.64898,0.19469 3.97056,2.36582 7.37474,4.82603 3.41008,2.46021 6.52517,4.46024 6.93225,4.45434 0.40709,-0.0118 0.73748,-0.22419 0.74338,-0.46608 0,-0.24189 -0.39529,-1.03836 -0.88497,-1.76994 -0.48968,-0.73157 -0.82597,-1.47495 -0.74337,-1.64604 0.0826,-0.17699 2.27142,0.90857 4.86732,2.41891 2.59591,1.50445 7.64023,4.79063 11.20961,7.29805 3.56937,2.50741 7.76412,5.33931 9.32757,6.28327 2.33631,1.42185 2.95579,1.58115 3.53987,0.93217 0.56048,-0.63128 0.1121,-1.30975 -2.24782,-3.39828 -1.62244,-1.43365 -2.55461,-2.60771 -2.06493,-2.61361 0.48969,-0.006 2.34222,1.06787 4.12986,2.38352 1.78763,1.30975 3.77586,2.53691 4.42484,2.7139 0.64898,0.177 1.49265,-0.0295 1.88203,-0.46018 0.54279,-0.60768 0.54279,-0.99117 0,-1.69324 -0.38938,-0.50148 -1.70503,-1.69324 -2.92629,-2.65491 -1.22716,-0.96166 -2.09443,-1.88203 -1.92333,-2.04132 0.16519,-0.1593 1.16816,0.0885 2.22422,0.55458 1.05606,0.46608 2.92039,1.46314 4.13575,2.21242 1.21536,0.74927 2.21242,1.22715 2.21242,1.06786 0,-0.15929 -0.26549,-0.82597 -0.58998,-1.47495 -0.47788,-0.96166 -0.37168,-1.23305 0.58998,-1.47495 0.64898,-0.15929 1.17406,-0.62537 1.16816,-1.03246 -0.006,-0.40709 -1.79943,-2.46021 -3.99416,-4.57234 -2.18882,-2.11212 -4.43664,-4.03545 -5.00302,-4.27735 -0.56048,-0.24189 -3.55167,-2.50151 -6.64906,-5.01482 -3.0915,-2.51331 -5.61661,-4.77293 -5.60481,-5.01482 0.0118,-0.24189 -0.17699,-0.38349 -0.41888,-0.30679 -0.24189,0.0767 -2.767,-1.71684 -5.6107,-3.98236 -2.8378,-2.26552 -5.03252,-4.18295 -4.86733,-4.26555 0.16519,-0.0826 1.16226,0.37169 2.21832,0.99707 1.05606,0.63127 2.71391,1.55754 3.68737,2.05902 0.97347,0.50149 4.22425,2.77291 7.22724,5.05022 3.003,2.27142 5.45141,3.80537 5.44551,3.39828 -0.006,-0.40708 -0.53688,-1.86433 -1.17996,-3.24488 -1.16815,-2.50151 -1.16815,-2.50741 0.0118,-2.8024 0.89677,-0.22419 1.17996,-0.78467 1.17996,-2.35992 0,-1.62834 -0.59588,-2.7316 -2.8024,-5.22131 -1.53984,-1.73454 -4.12985,-3.97056 -5.7523,-4.96763 -1.62244,-0.99116 -5.20951,-3.54577 -7.96471,-5.6638 -2.75521,-2.11802 -5.92929,-4.59593 -7.04435,-5.5045 -1.12096,-0.90857 -3.51038,-2.53101 -5.30982,-3.60477 -1.80533,-1.07377 -4.34224,-2.9794 -5.6402,-4.22425 -1.29795,-1.25076 -3.29208,-2.70211 -4.42484,-3.22719 -1.13276,-0.52508 -3.39238,-1.88203 -5.01482,-3.01479 -1.62244,-1.13276 -3.59298,-2.51921 -4.37765,-3.07969 -0.77877,-0.56048 -1.77583,-1.35106 -2.21242,-1.75814 -0.43068,-0.40709 -0.77877,-0.53688 -0.77287,-0.29499 0.006,0.24189 -0.85547,-0.37759 -1.91743,-1.37465 -1.06197,-0.99707 -3.32159,-2.7906 -5.02663,-3.98236 -1.98233,-1.38645 -3.09739,-2.59001 -3.09739,-3.34518 0,-0.64898 -0.26549,-1.04427 -0.58998,-0.88497 -0.32448,0.15929 -1.65194,-0.76698 -2.94989,-2.06493 -1.29796,-1.29795 -2.35402,-2.56051 -2.34812,-2.8024 0.006,-0.24189 -0.46018,-0.98527 -1.03246,-1.64604 -0.57228,-0.66078 -1.57525,-1.81714 -2.22422,-2.57231 -0.86727,-1.00887 -1.25666,-2.51921 -1.47495,-5.7405 -0.15929,-2.40711 -0.59588,-4.57234 -0.96757,-4.80833 -0.36578,-0.23009 -1.52804,-1.88793 -2.57231,-3.66967 -1.05016,-1.78173 -2.93219,-4.43664 -4.17705,-5.89979 -1.24485,-1.46315 -2.27732,-3.18589 -2.29502,-3.83486 -0.0236,-0.76698 -0.18879,-0.93217 -0.47198,-0.46609 -0.29499,0.49559 -1.35695,-0.16519 -3.38058,-2.10622 -1.62244,-1.55165 -8.12401,-6.77296 -14.45449,-11.59899 -6.33047,-4.83193 -11.77008,-9.00898 -12.09457,-9.28627 -0.32449,-0.27729 -2.57821,-1.96463 -5.01482,-3.75817 -2.43072,-1.78764 -4.89093,-3.62837 -5.45731,-4.09445 -0.56638,-0.46609 -1.16816,-0.84367 -1.32745,-0.84367 -0.1593,0 -2.48381,-1.69324 -5.16232,-3.75817 -2.6785,-2.07083 -6.85556,-5.04432 -9.29217,-6.60777 -2.43071,-1.56344 -6.01779,-4.07675 -7.96472,-5.5812 -1.94693,-1.50445 -5.13282,-3.73457 -7.07975,-4.95582 -1.94693,-1.21536 -4.60183,-2.9912 -5.89979,-3.94106 -1.29795,-0.95577 -3.82306,-2.48972 -5.6048,-3.42188 -1.78174,-0.92627 -5.6402,-3.77587 -8.5665,-6.33048 -2.92629,-2.54871 -6.77296,-5.82309 -8.55469,-7.27444 -1.77585,-1.44545 -7.74054,-6.48977 -13.25095,-11.2096 -5.5045,-4.71394 -13.08574,-11.62849 -16.8439,-15.35716 -3.75817,-3.72867 -8.92049,-9.03848 -11.4692,-11.79958 -2.54871,-2.7611 -5.25081,-5.94109 -6.00598,-7.07975 -0.74928,-1.13866 -1.90564,-3.52808 -2.57231,-5.30981 -0.66078,-1.78174 -1.85844,-5.6992 -2.66081,-8.70219 -0.80827,-3.003 -1.99413,-6.51927 -2.64311,-7.81723 -0.64897,-1.29795 -1.04426,-2.62541 -0.88496,-2.94989 0.15929,-0.32449 0.0944,-0.57818 -0.1475,-0.56638 -0.24189,0.0118 -1.28615,-1.91744 -2.32452,-4.27735 -1.03246,-2.36582 -2.06492,-4.96173 -2.28912,-5.7759 -0.22419,-0.80827 -1.71094,-3.86436 -3.29798,-6.78476 -1.59294,-2.92039 -4.21835,-7.03845 -5.83489,-9.14467 -1.62245,-2.10623 -3.97056,-5.29212 -5.22132,-7.079754 -1.25075,-1.787636 -3.03249,-4.005958 -3.97056,-4.938125 -0.93216,-0.926267 -4.08265,-3.268484 -7.00305,-5.191816 -2.9204,-1.929232 -6.90275,-4.283248 -8.84969,-5.239015 -1.94693,-0.955766 -5.6638,-2.283219 -8.25971,-2.955795 -2.6313,-0.684376 -7.07385,-1.292054 -10.02964,-1.380551 -2.9204,-0.0826 -7.56943,0.0472 -10.32464,0.28319 z"
     style="fill:#000000;stroke-width:0.589979;fill-opacity:1"
     sodipodi:nodetypes="cccccccccscccssssccccccssscsccscscsccccccsssccsscscccsssccccccssccccsccscscccscscccsccccscccccssssscccsccssccsscssscccscscccccccscscccccsssscssssccccccscscscsscccccsscssccscscccsscccssccccsccccsccscccscsccccsssccscccsscscscscssccscccssccsscsssssccccsccccscssccsccccccsscccsssccccsscsccc" />
</svg>
