<?xml version="1.0" encoding="UTF-8" standalone="no"?>
<svg
   xmlns:dc="http://purl.org/dc/elements/1.1/"
   xmlns:cc="http://creativecommons.org/ns#"
   xmlns:rdf="http://www.w3.org/1999/02/22-rdf-syntax-ns#"
   xmlns:svg="http://www.w3.org/2000/svg"
   xmlns="http://www.w3.org/2000/svg"
   xmlns:xlink="http://www.w3.org/1999/xlink"
   xmlns:sodipodi="http://sodipodi.sourceforge.net/DTD/sodipodi-0.dtd"
   xmlns:inkscape="http://www.inkscape.org/namespaces/inkscape"
   enable-background="new 0 0 101.95 91.5"
   version="1.1"
   viewBox="0 0 512.00002 512"
   xml:space="preserve"
   id="svg62718"
   sodipodi:docname="Domestic Cat.svg"
   width="512"
   height="512"
   inkscape:version="1.0.2 (e86c870879, 2021-01-15, custom)"><metadata
   id="metadata62724"><rdf:RDF><cc:Work
       rdf:about=""><dc:format>image/svg+xml</dc:format><dc:type
         rdf:resource="http://purl.org/dc/dcmitype/StillImage" /><dc:title></dc:title></cc:Work></rdf:RDF></metadata><defs
   id="defs62722" /><sodipodi:namedview
   pagecolor="#ffffff"
   bordercolor="#666666"
   borderopacity="1"
   objecttolerance="10"
   gridtolerance="10"
   guidetolerance="10"
   inkscape:pageopacity="0"
   inkscape:pageshadow="2"
   inkscape:window-width="1366"
   inkscape:window-height="715"
   id="namedview62720"
   showgrid="false"
   inkscape:zoom="0.74863388"
   inkscape:cx="310.91668"
   inkscape:cy="264.56401"
   inkscape:window-x="-8"
   inkscape:window-y="-8"
   inkscape:window-maximized="1"
   inkscape:current-layer="svg62718" />
<symbol
   viewBox="-7.51 -4.266 8.976 6.466"
   id="symbol62401">
	<g
   clip-rule="evenodd"
   fill-rule="evenodd"
   id="g62399">
			<path
   d="M -3.15,1.05 -2,0.95 C -1.167,1.25 -0.383,0.967 0.35,0.1 1.05,-0.766 1.267,-1.633 1,-2.5 0.867,-3 0.533,-3.35 0,-3.55 c -0.667,-0.4 -1.2,-0.633 -1.6,-0.7 -0.9,-0.067 -1.917,0.066 -3.05,0.4 -1.467,0.434 -2.217,1.1 -2.25,2 0,0.267 0.183,0.483 0.55,0.65 0.434,0.167 0.733,0.3 0.9,0.4 0.6,0.333 1.117,0.717 1.55,1.15 0.133,0.2 0.233,0.35 0.3,0.45 0.133,0.167 0.283,0.25 0.45,0.25 z"
   fill="#84817a"
   id="path62375" />
			<path
   d="M -2.95,0.65 C -3.416,0.283 -4.2,0.1 -5.3,0.1 v 0.15 c 0.033,0.033 0.2,0.133 0.5,0.3 0.2,0.1 0.466,0.284 0.8,0.55 1.2,0.533 1.917,0.783 2.15,0.75 -0.6,-0.666 -0.967,-1.066 -1.1,-1.2 z"
   fill="#84817a"
   id="path62377" />
			<path
   d="m -3.65,-0.149 c -0.167,-0.067 -0.517,-0.1 -1.05,-0.1 -0.467,-0.034 -0.817,-0.117 -1.05,-0.251 l 0.45,0.7 c -0.067,0.634 0.45,1.1 1.55,1.4 0.7,0.167 1.467,0.183 2.3,0.05 0.1,-0.367 -0.167,-0.75 -0.8,-1.15 -0.467,-0.3 -0.933,-0.516 -1.4,-0.649 z"
   fill="#84817a"
   id="path62379" />
			<path
   d="M -1.65,2.2 -1.2,2.1 C -0.367,2.4 0.35,2 0.95,0.9 1.516,-0.133 1.617,-1.05 1.25,-1.85 1.083,-2.25 0.667,-2.566 0,-2.8 c -0.2,-0.066 -1.083,-0.167 -2.65,-0.3 -0.833,-0.133 -1.8,-0.05 -2.9,0.25 -1.4,0.334 -2.05,0.884 -1.95,1.65 0.033,0.233 0.233,0.434 0.6,0.6 0.2,0.1 0.5,0.217 0.9,0.35 0.467,0.2 1.017,0.55 1.65,1.05 0.2,0.167 0.633,0.434 1.3,0.8 0.767,0.4 1.233,0.6 1.4,0.6 z"
   fill="#bbb7ae"
   id="path62381" />
			<path
   d="M -3.15,1.05 -2,0.95 C -1.167,1.25 -0.383,0.967 0.35,0.1 1.05,-0.766 1.267,-1.633 1,-2.5 0.867,-3 0.533,-3.35 0,-3.55 c -0.667,-0.4 -1.2,-0.633 -1.6,-0.7 -0.9,-0.067 -1.917,0.066 -3.05,0.4 -1.467,0.434 -2.217,1.1 -2.25,2 0,0.267 0.183,0.483 0.55,0.65 0.434,0.167 0.733,0.3 0.9,0.4 0.6,0.333 1.117,0.717 1.55,1.15 0.133,0.2 0.233,0.35 0.3,0.45 0.133,0.167 0.283,0.25 0.45,0.25 z"
   fill="#84817a"
   id="path62383" />
			<path
   d="M -2.95,0.65 C -3.416,0.283 -4.2,0.1 -5.3,0.1 v 0.15 c 0.033,0.033 0.2,0.133 0.5,0.3 0.2,0.1 0.466,0.284 0.8,0.55 1.2,0.533 1.917,0.783 2.15,0.75 -0.6,-0.666 -0.967,-1.066 -1.1,-1.2 z"
   fill="#84817a"
   id="path62385" />
			<path
   d="m -3.65,-0.149 c -0.167,-0.067 -0.517,-0.1 -1.05,-0.1 -0.467,-0.034 -0.817,-0.117 -1.05,-0.251 l 0.45,0.7 c -0.067,0.634 0.45,1.1 1.55,1.4 0.7,0.167 1.467,0.183 2.3,0.05 0.1,-0.367 -0.167,-0.75 -0.8,-1.15 -0.467,-0.3 -0.933,-0.516 -1.4,-0.649 z"
   fill="#84817a"
   id="path62387" />
			<path
   d="M -1.65,2.2 -1.2,2.1 C -0.367,2.4 0.35,2 0.95,0.9 1.516,-0.133 1.617,-1.05 1.25,-1.85 1.083,-2.25 0.667,-2.566 0,-2.8 c -0.2,-0.066 -1.083,-0.167 -2.65,-0.3 -0.833,-0.133 -1.8,-0.05 -2.9,0.25 -1.4,0.334 -2.05,0.884 -1.95,1.65 0.033,0.233 0.233,0.434 0.6,0.6 0.2,0.1 0.5,0.217 0.9,0.35 0.467,0.2 1.017,0.55 1.65,1.05 0.2,0.167 0.633,0.434 1.3,0.8 0.767,0.4 1.233,0.6 1.4,0.6 z"
   fill="#bbb7ae"
   id="path62389" />
			<path
   d="M -3.15,1.05 -2,0.95 C -1.167,1.25 -0.383,0.967 0.35,0.1 1.05,-0.766 1.267,-1.633 1,-2.5 0.867,-3 0.533,-3.35 0,-3.55 c -0.667,-0.4 -1.2,-0.633 -1.6,-0.7 -0.9,-0.067 -1.917,0.066 -3.05,0.4 -1.467,0.434 -2.217,1.1 -2.25,2 0,0.267 0.183,0.483 0.55,0.65 0.434,0.167 0.733,0.3 0.9,0.4 0.6,0.333 1.117,0.717 1.55,1.15 0.133,0.2 0.233,0.35 0.3,0.45 0.133,0.167 0.283,0.25 0.45,0.25 z"
   fill="#84817a"
   id="path62391" />
			<path
   d="M -2.95,0.65 C -3.416,0.283 -4.2,0.1 -5.3,0.1 v 0.15 c 0.033,0.033 0.2,0.133 0.5,0.3 0.2,0.1 0.466,0.284 0.8,0.55 1.2,0.533 1.917,0.783 2.15,0.75 -0.6,-0.666 -0.967,-1.066 -1.1,-1.2 z"
   fill="#84817a"
   id="path62393" />
			<path
   d="m -3.65,-0.149 c -0.167,-0.067 -0.517,-0.1 -1.05,-0.1 -0.467,-0.034 -0.817,-0.117 -1.05,-0.251 l 0.45,0.7 c -0.067,0.634 0.45,1.1 1.55,1.4 0.7,0.167 1.467,0.183 2.3,0.05 0.1,-0.367 -0.167,-0.75 -0.8,-1.15 -0.467,-0.3 -0.933,-0.516 -1.4,-0.649 z"
   fill="#84817a"
   id="path62395" />
			<path
   d="M -1.65,2.2 -1.2,2.1 C -0.367,2.4 0.35,2 0.95,0.9 1.516,-0.133 1.617,-1.05 1.25,-1.85 1.083,-2.25 0.667,-2.566 0,-2.8 c -0.2,-0.066 -1.083,-0.167 -2.65,-0.3 -0.833,-0.133 -1.8,-0.05 -2.9,0.25 -1.4,0.334 -2.05,0.884 -1.95,1.65 0.033,0.233 0.233,0.434 0.6,0.6 0.2,0.1 0.5,0.217 0.9,0.35 0.467,0.2 1.017,0.55 1.65,1.05 0.2,0.167 0.633,0.434 1.3,0.8 0.767,0.4 1.233,0.6 1.4,0.6 z"
   fill="#bbb7ae"
   id="path62397" />
	</g>
</symbol>
<symbol
   viewBox="-1.47 -3.561 3.893 5.083"
   id="symbol62423">
	<g
   clip-rule="evenodd"
   fill-rule="evenodd"
   id="g62421">
			<path
   d="M 0.35,0.65 C 0.817,0.717 1.4,-0.083 2.1,-1.75 2.767,-3.316 2.4,-3.867 1,-3.4 c -0.466,0.167 -0.917,0.466 -1.35,0.9 -0.466,0.5 -0.75,0.983 -0.85,1.45 -0.133,0.7 -0.1,1.25 0.1,1.65 0.233,0.466 0.65,0.683 1.25,0.65 z"
   fill="#84817a"
   id="path62403" />
			<path
   d="m 1.45,-0.95 -0.7,0.2 C 0.517,-0.65 0.367,-0.316 0.3,0.25 0.233,0.684 0.217,1.1 0.25,1.5 0.383,1.566 0.517,1.483 0.65,1.25 0.817,0.983 0.966,0.85 1.1,0.85 1.1,1.117 1.133,1.3 1.2,1.4 L 1.35,0.1 c 0.067,-0.233 0.1,-0.583 0.1,-1.05 z"
   fill="#84817a"
   id="path62405" />
			<path
   d="m 0.3,0.75 c 0.467,0.066 0.967,-0.6 1.5,-2 0.533,-1.333 0.117,-1.8 -1.25,-1.4 -0.433,0.133 -0.85,0.383 -1.25,0.75 -0.467,0.4 -0.717,0.8 -0.75,1.2 -0.067,0.6 0.033,1.067 0.3,1.4 0.267,0.4 0.7,0.583 1.3,0.55 z"
   fill="#bbb7ae"
   id="path62407" />
			<path
   d="M 0.35,0.65 C 0.817,0.717 1.4,-0.083 2.1,-1.75 2.767,-3.316 2.4,-3.867 1,-3.4 c -0.466,0.167 -0.917,0.466 -1.35,0.9 -0.466,0.5 -0.75,0.983 -0.85,1.45 -0.133,0.7 -0.1,1.25 0.1,1.65 0.233,0.466 0.65,0.683 1.25,0.65 z"
   fill="#84817a"
   id="path62409" />
			<path
   d="m 1.45,-0.95 -0.7,0.2 C 0.517,-0.65 0.367,-0.316 0.3,0.25 0.233,0.684 0.217,1.1 0.25,1.5 0.383,1.566 0.517,1.483 0.65,1.25 0.817,0.983 0.966,0.85 1.1,0.85 1.1,1.117 1.133,1.3 1.2,1.4 L 1.35,0.1 c 0.067,-0.233 0.1,-0.583 0.1,-1.05 z"
   fill="#84817a"
   id="path62411" />
			<path
   d="m 0.3,0.75 c 0.467,0.066 0.967,-0.6 1.5,-2 0.533,-1.333 0.117,-1.8 -1.25,-1.4 -0.433,0.133 -0.85,0.383 -1.25,0.75 -0.467,0.4 -0.717,0.8 -0.75,1.2 -0.067,0.6 0.033,1.067 0.3,1.4 0.267,0.4 0.7,0.583 1.3,0.55 z"
   fill="#bbb7ae"
   id="path62413" />
			<path
   d="M 0.35,0.65 C 0.817,0.717 1.4,-0.083 2.1,-1.75 2.767,-3.316 2.4,-3.867 1,-3.4 c -0.466,0.167 -0.917,0.466 -1.35,0.9 -0.466,0.5 -0.75,0.983 -0.85,1.45 -0.133,0.7 -0.1,1.25 0.1,1.65 0.233,0.466 0.65,0.683 1.25,0.65 z"
   fill="#84817a"
   id="path62415" />
			<path
   d="m 1.45,-0.95 -0.7,0.2 C 0.517,-0.65 0.367,-0.316 0.3,0.25 0.233,0.684 0.217,1.1 0.25,1.5 0.383,1.566 0.517,1.483 0.65,1.25 0.817,0.983 0.966,0.85 1.1,0.85 1.1,1.117 1.133,1.3 1.2,1.4 L 1.35,0.1 c 0.067,-0.233 0.1,-0.583 0.1,-1.05 z"
   fill="#84817a"
   id="path62417" />
			<path
   d="m 0.3,0.75 c 0.467,0.066 0.967,-0.6 1.5,-2 0.533,-1.333 0.117,-1.8 -1.25,-1.4 -0.433,0.133 -0.85,0.383 -1.25,0.75 -0.467,0.4 -0.717,0.8 -0.75,1.2 -0.067,0.6 0.033,1.067 0.3,1.4 0.267,0.4 0.7,0.583 1.3,0.55 z"
   fill="#bbb7ae"
   id="path62419" />
	</g>
</symbol>
<symbol
   viewBox="-8.4 -8.352 16.75 16.742"
   id="symbol62451">
	<g
   clip-rule="evenodd"
   fill-rule="evenodd"
   id="g62449">
			<path
   d="m 1.5,-5.05 c -1.4,2.1 -2.4,3.566 -3,4.4 -0.4,0.533 -0.8,1.033 -1.2,1.5 h 0.85 c 0.333,0 0.6,0.133 0.8,0.4 -0.133,-0.433 -0.383,-0.733 -0.75,-0.9 0.1,0 0.35,0.017 0.75,0.05 0.333,0.033 0.533,-0.033 0.6,-0.2 -0.4,0 -0.667,-0.05 -0.8,-0.15 0.067,-0.066 0.3,-0.1 0.7,-0.1 0.333,0 0.533,-0.117 0.6,-0.35 -0.6,0.066 -1.033,0.066 -1.3,0 0.133,-0.067 0.433,-0.167 0.9,-0.3 0.367,-0.133 0.567,-0.316 0.6,-0.55 -0.167,-0.033 -0.417,0.017 -0.75,0.15 -0.333,0.1 -0.583,0.15 -0.75,0.15 0.467,-0.133 0.717,-0.217 0.75,-0.25 0.233,-0.1 0.4,-0.267 0.5,-0.5 l -0.35,0.05 C -0.217,-1.75 -0.033,-2 0.2,-2.4 l 0.2,-0.3 c 0.633,0.4 1.333,1.184 2.1,2.35 0.533,0.867 1,2.017 1.4,3.45 L 4.1,3.8 4.35,4.95 C 3.717,5.117 2.3,5.017 0.1,4.65 -1.267,4.45 -2.5,3.967 -3.6,3.2 -3.933,3 -4.2,2.8 -4.4,2.6 c -0.667,0.6 -1.333,1.1 -2,1.5 l -2,0.9 1.85,1 c 1.566,0.733 3.167,1.317 4.8,1.75 1.367,0.333 2.733,0.5 4.1,0.5 L 2.55,8.3 C 4.083,8.4 5,8.417 5.3,8.35 5.267,8.317 5.017,8.25 4.55,8.15 L 6.05,8.1 7.1,7.95 H 6.8 C 6.667,7.983 6.567,7.967 6.5,7.9 7.233,7.733 7.8,7.783 8.2,8.05 8.133,7.883 7.95,7.65 7.65,7.35 L 8,7.8 C 7.167,6.967 6.533,6 6.1,4.9 5.9,4.367 5.567,3.217 5.1,1.45 4.633,-0.317 4.083,-1.65 3.45,-2.55 2.483,-3.883 1.867,-4.683 1.6,-4.95 Z M -3.2,1.4 c -0.032,0.032 -0.065,0.049 -0.1,0.05 h 0.1 z m 0.15,-0.2 1,-0.05 C -2.183,1.05 -2.4,0.95 -2.7,0.85 Z"
   fill="#bbb7ae"
   id="path62425" />
			<path
   d="m 1.5,-5.05 c 0.033,0.033 0.067,0.066 0.1,0.1 0.267,0.267 0.883,1.067 1.85,2.4 0.633,0.9 1.183,2.233 1.65,4 0.467,1.767 0.8,2.917 1,3.45 C 6.533,6 7.167,6.967 8,7.8 L 7.65,7.35 7.3,6.9 V 6.85 C 7.533,6.95 7.883,7.067 8.35,7.2 8.05,6.933 7.783,6.383 7.55,5.55 L 7.5,4.65 C 7.5,4.417 7.483,4.033 7.45,3.5 7.75,3.9 7.933,4.217 8,4.45 8.033,4.15 7.933,3.583 7.7,2.75 7.433,1.883 7.2,1.25 7,0.85 6.3,-0.65 5.833,-1.584 5.6,-1.95 4.633,-3.783 3.633,-5.383 2.6,-6.75 2.533,-6.817 2.483,-6.883 2.45,-6.95 2.417,-7.417 2.25,-7.767 1.95,-8 1.383,-8.433 0.767,-8.467 0.1,-8.1 l -1,0.4 c -0.2,0.1 -0.4,0.267 -0.6,0.5 -0.267,0.333 -0.433,0.533 -0.5,0.6 h 0.1 c -0.067,0.067 -0.133,0.117 -0.2,0.15 1.267,-0.133 2.467,0.333 3.6,1.4 z"
   fill="#a7a39b"
   id="path62427" />
			<path
   d="M -3.45,1.25 H -3.5 c 0.133,0.067 0.233,0.117 0.3,0.15 v 0.05 h -0.1 c -0.1,0.066 -0.233,0.1 -0.4,0.1 h -0.25 c -0.466,0.4 -0.783,0.6 -0.95,0.6 0.133,0.133 0.3,0.283 0.5,0.45 0.2,0.2 0.467,0.4 0.8,0.6 1.1,0.767 2.333,1.25 3.7,1.45 2.2,0.367 3.617,0.467 4.25,0.3 L 4.1,3.8 C 3.367,3.9 2.567,3.867 1.7,3.7 0.467,3.4 -0.833,2.567 -2.2,1.2 Z"
   fill="#907967"
   id="path62429" />
			<path
   d="M -3.05,1.2 -3.45,1.25 -2.2,1.2 c 1.367,1.367 2.667,2.2 3.9,2.5 0.867,0.167 1.667,0.2 2.4,0.1 L 3.9,3.1 C 3.5,1.667 3.033,0.517 2.5,-0.35 1.733,-1.517 1.033,-2.3 0.4,-2.7 l -0.2,0.3 c -0.233,0.4 -0.417,0.65 -0.55,0.75 L 0,-1.7 c -0.1,0.233 -0.267,0.4 -0.5,0.5 -0.033,0.034 -0.283,0.117 -0.75,0.25 0.167,0 0.417,-0.05 0.75,-0.15 0.333,-0.133 0.583,-0.183 0.75,-0.15 -0.033,0.233 -0.233,0.417 -0.6,0.55 -0.467,0.133 -0.767,0.233 -0.9,0.3 0.267,0.066 0.7,0.066 1.3,0 -0.066,0.233 -0.267,0.35 -0.6,0.35 -0.4,0 -0.633,0.033 -0.7,0.1 0.133,0.1 0.4,0.15 0.8,0.15 -0.066,0.167 -0.267,0.233 -0.6,0.2 -0.4,-0.033 -0.65,-0.05 -0.75,-0.05 0.367,0.167 0.617,0.467 0.75,0.9 -0.2,-0.267 -0.467,-0.4 -0.8,-0.4 H -2.7 c 0.3,0.1 0.517,0.2 0.65,0.3 z"
   fill="#ad927b"
   id="path62431" />
			<path
   d="M 7.65,7.35 8,7.8 C 7.167,6.967 6.533,6 6.1,4.9 5.9,4.367 5.567,3.217 5.1,1.45 4.633,-0.317 4.083,-1.65 3.45,-2.55 2.483,-3.883 1.867,-4.683 1.6,-4.95 1.567,-4.983 1.533,-5.016 1.5,-5.05 c -1.4,2.1 -2.4,3.566 -3,4.4 -0.4,0.533 -0.8,1.033 -1.2,1.5 h 0.85 c 0.333,0 0.6,0.133 0.8,0.4 -0.133,-0.433 -0.383,-0.733 -0.75,-0.9 0.1,0 0.35,0.017 0.75,0.05 0.333,0.033 0.533,-0.033 0.6,-0.2 -0.4,0 -0.667,-0.05 -0.8,-0.15 0.067,-0.066 0.3,-0.1 0.7,-0.1 0.333,0 0.533,-0.117 0.6,-0.35 -0.6,0.066 -1.033,0.066 -1.3,0 0.133,-0.067 0.433,-0.167 0.9,-0.3 0.367,-0.133 0.567,-0.316 0.6,-0.55 -0.167,-0.033 -0.417,0.017 -0.75,0.15 -0.333,0.1 -0.583,0.15 -0.75,0.15 0.467,-0.133 0.717,-0.217 0.75,-0.25 0.233,-0.1 0.4,-0.267 0.5,-0.5 l -0.35,0.05 C -0.217,-1.75 -0.033,-2 0.2,-2.4 l 0.2,-0.3 c 0.633,0.4 1.333,1.184 2.1,2.35 0.533,0.867 1,2.017 1.4,3.45 L 4.1,3.8 4.35,4.95 C 3.717,5.117 2.3,5.017 0.1,4.65 -1.267,4.45 -2.5,3.967 -3.6,3.2 -3.933,3 -4.2,2.8 -4.4,2.6 c -0.667,0.6 -1.333,1.1 -2,1.5 l -2,0.9 1.85,1 c 1.566,0.733 3.167,1.317 4.8,1.75 1.367,0.333 2.733,0.5 4.1,0.5 L 2.55,8.3 C 4.083,8.4 5,8.417 5.3,8.35 5.267,8.317 5.017,8.25 4.55,8.15 L 6.05,8.1 7.1,7.95 H 6.8 C 6.667,7.983 6.567,7.967 6.5,7.9 7.233,7.733 7.8,7.783 8.2,8.05 8.133,7.883 7.95,7.65 7.65,7.35 Z M -3.2,1.4 c -0.032,0.032 -0.065,0.049 -0.1,0.05 h 0.1 z m 0.15,-0.2 1,-0.05 C -2.183,1.05 -2.4,0.95 -2.7,0.85 Z"
   fill="#bbb7ae"
   id="path62433" />
			<path
   d="M -3.45,1.25 H -3.5 c 0.133,0.067 0.233,0.117 0.3,0.15 v 0.05 h -0.1 c -0.1,0.066 -0.233,0.1 -0.4,0.1 h -0.25 c -0.466,0.4 -0.783,0.6 -0.95,0.6 0.133,0.133 0.3,0.283 0.5,0.45 0.2,0.2 0.467,0.4 0.8,0.6 1.1,0.767 2.333,1.25 3.7,1.45 2.2,0.367 3.617,0.467 4.25,0.3 L 4.1,3.8 C 3.367,3.9 2.567,3.867 1.7,3.7 0.467,3.4 -0.833,2.567 -2.2,1.2 Z"
   fill="#907967"
   id="path62435" />
			<path
   d="M -3.05,1.2 -3.45,1.25 -2.2,1.2 c 1.367,1.367 2.667,2.2 3.9,2.5 0.867,0.167 1.667,0.2 2.4,0.1 L 3.9,3.1 C 3.5,1.667 3.033,0.517 2.5,-0.35 1.733,-1.517 1.033,-2.3 0.4,-2.7 l -0.2,0.3 c -0.233,0.4 -0.417,0.65 -0.55,0.75 L 0,-1.7 c -0.1,0.233 -0.267,0.4 -0.5,0.5 -0.033,0.034 -0.283,0.117 -0.75,0.25 0.167,0 0.417,-0.05 0.75,-0.15 0.333,-0.133 0.583,-0.183 0.75,-0.15 -0.033,0.233 -0.233,0.417 -0.6,0.55 -0.467,0.133 -0.767,0.233 -0.9,0.3 0.267,0.066 0.7,0.066 1.3,0 -0.066,0.233 -0.267,0.35 -0.6,0.35 -0.4,0 -0.633,0.033 -0.7,0.1 0.133,0.1 0.4,0.15 0.8,0.15 -0.066,0.167 -0.267,0.233 -0.6,0.2 -0.4,-0.033 -0.65,-0.05 -0.75,-0.05 0.367,0.167 0.617,0.467 0.75,0.9 -0.2,-0.267 -0.467,-0.4 -0.8,-0.4 H -2.7 c 0.3,0.1 0.517,0.2 0.65,0.3 z"
   fill="#ad927b"
   id="path62437" />
			<path
   d="M 7.65,7.35 7.3,6.9 V 6.85 C 7.533,6.95 7.883,7.067 8.35,7.2 8.05,6.933 7.783,6.383 7.55,5.55 L 7.5,4.65 C 7.5,4.417 7.483,4.033 7.45,3.5 7.75,3.9 7.933,4.217 8,4.45 8.033,4.15 7.933,3.583 7.7,2.75 7.433,1.883 7.2,1.25 7,0.85 6.3,-0.65 5.833,-1.584 5.6,-1.95 4.633,-3.783 3.633,-5.383 2.6,-6.75 2.533,-6.817 2.483,-6.883 2.45,-6.95 2.417,-7.417 2.25,-7.767 1.95,-8 1.383,-8.433 0.767,-8.467 0.1,-8.1 l -1,0.4 c -0.2,0.1 -0.4,0.267 -0.6,0.5 -0.267,0.333 -0.433,0.533 -0.5,0.6 h 0.1 c -0.067,0.067 -0.133,0.117 -0.2,0.15 1.267,-0.133 2.467,0.333 3.6,1.4 0.033,0.033 0.067,0.066 0.1,0.1 0.267,0.267 0.883,1.067 1.85,2.4 0.633,0.9 1.183,2.233 1.65,4 0.467,1.767 0.8,2.917 1,3.45 C 6.533,6 7.167,6.967 8,7.8 Z"
   fill="#a7a39b"
   id="path62439" />
			<path
   d="M 7.65,7.35 8,7.8 C 7.167,6.967 6.533,6 6.1,4.9 5.9,4.367 5.567,3.217 5.1,1.45 4.633,-0.317 4.083,-1.65 3.45,-2.55 2.483,-3.883 1.867,-4.683 1.6,-4.95 1.567,-4.983 1.533,-5.016 1.5,-5.05 c -1.4,2.1 -2.4,3.566 -3,4.4 -0.4,0.533 -0.8,1.033 -1.2,1.5 h 0.85 c 0.333,0 0.6,0.133 0.8,0.4 -0.133,-0.433 -0.383,-0.733 -0.75,-0.9 0.1,0 0.35,0.017 0.75,0.05 0.333,0.033 0.533,-0.033 0.6,-0.2 -0.4,0 -0.667,-0.05 -0.8,-0.15 0.067,-0.066 0.3,-0.1 0.7,-0.1 0.333,0 0.533,-0.117 0.6,-0.35 -0.6,0.066 -1.033,0.066 -1.3,0 0.133,-0.067 0.433,-0.167 0.9,-0.3 0.367,-0.133 0.567,-0.316 0.6,-0.55 -0.167,-0.033 -0.417,0.017 -0.75,0.15 -0.333,0.1 -0.583,0.15 -0.75,0.15 0.467,-0.133 0.717,-0.217 0.75,-0.25 0.233,-0.1 0.4,-0.267 0.5,-0.5 l -0.35,0.05 C -0.217,-1.75 -0.033,-2 0.2,-2.4 l 0.2,-0.3 c 0.633,0.4 1.333,1.184 2.1,2.35 0.533,0.867 1,2.017 1.4,3.45 L 4.1,3.8 4.35,4.95 C 3.717,5.117 2.3,5.017 0.1,4.65 -1.267,4.45 -2.5,3.967 -3.6,3.2 -3.933,3 -4.2,2.8 -4.4,2.6 c -0.667,0.6 -1.333,1.1 -2,1.5 l -2,0.9 1.85,1 c 1.566,0.733 3.167,1.317 4.8,1.75 1.367,0.333 2.733,0.5 4.1,0.5 L 2.55,8.3 C 4.083,8.4 5,8.417 5.3,8.35 5.267,8.317 5.017,8.25 4.55,8.15 L 6.05,8.1 7.1,7.95 H 6.8 C 6.667,7.983 6.567,7.967 6.5,7.9 7.233,7.733 7.8,7.783 8.2,8.05 8.133,7.883 7.95,7.65 7.65,7.35 Z M -3.2,1.4 c -0.032,0.032 -0.065,0.049 -0.1,0.05 h 0.1 z m 0.15,-0.2 1,-0.05 C -2.183,1.05 -2.4,0.95 -2.7,0.85 Z"
   fill="#bbb7ae"
   id="path62441" />
			<path
   d="M -3.45,1.25 H -3.5 c 0.133,0.067 0.233,0.117 0.3,0.15 v 0.05 h -0.1 c -0.1,0.066 -0.233,0.1 -0.4,0.1 h -0.25 c -0.466,0.4 -0.783,0.6 -0.95,0.6 0.133,0.133 0.3,0.283 0.5,0.45 0.2,0.2 0.467,0.4 0.8,0.6 1.1,0.767 2.333,1.25 3.7,1.45 2.2,0.367 3.617,0.467 4.25,0.3 L 4.1,3.8 C 3.367,3.9 2.567,3.867 1.7,3.7 0.467,3.4 -0.833,2.567 -2.2,1.2 Z"
   fill="#907967"
   id="path62443" />
			<path
   d="M -3.05,1.2 -3.45,1.25 -2.2,1.2 c 1.367,1.367 2.667,2.2 3.9,2.5 0.867,0.167 1.667,0.2 2.4,0.1 L 3.9,3.1 C 3.5,1.667 3.033,0.517 2.5,-0.35 1.733,-1.517 1.033,-2.3 0.4,-2.7 l -0.2,0.3 c -0.233,0.4 -0.417,0.65 -0.55,0.75 L 0,-1.7 c -0.1,0.233 -0.267,0.4 -0.5,0.5 -0.033,0.034 -0.283,0.117 -0.75,0.25 0.167,0 0.417,-0.05 0.75,-0.15 0.333,-0.133 0.583,-0.183 0.75,-0.15 -0.033,0.233 -0.233,0.417 -0.6,0.55 -0.467,0.133 -0.767,0.233 -0.9,0.3 0.267,0.066 0.7,0.066 1.3,0 -0.066,0.233 -0.267,0.35 -0.6,0.35 -0.4,0 -0.633,0.033 -0.7,0.1 0.133,0.1 0.4,0.15 0.8,0.15 -0.066,0.167 -0.267,0.233 -0.6,0.2 -0.4,-0.033 -0.65,-0.05 -0.75,-0.05 0.367,0.167 0.617,0.467 0.75,0.9 -0.2,-0.267 -0.467,-0.4 -0.8,-0.4 H -2.7 c 0.3,0.1 0.517,0.2 0.65,0.3 z"
   fill="#ad927b"
   id="path62445" />
			<path
   d="M 7.65,7.35 7.3,6.9 V 6.85 C 7.533,6.95 7.883,7.067 8.35,7.2 8.05,6.933 7.783,6.383 7.55,5.55 L 7.5,4.65 C 7.5,4.417 7.483,4.033 7.45,3.5 7.75,3.9 7.933,4.217 8,4.45 8.033,4.15 7.933,3.583 7.7,2.75 7.433,1.883 7.2,1.25 7,0.85 6.3,-0.65 5.833,-1.584 5.6,-1.95 4.633,-3.783 3.633,-5.383 2.6,-6.75 2.533,-6.817 2.483,-6.883 2.45,-6.95 2.417,-7.417 2.25,-7.767 1.95,-8 1.383,-8.433 0.767,-8.467 0.1,-8.1 l -1,0.4 c -0.2,0.1 -0.4,0.267 -0.6,0.5 -0.267,0.333 -0.433,0.533 -0.5,0.6 h 0.1 c -0.067,0.067 -0.133,0.117 -0.2,0.15 1.267,-0.133 2.467,0.333 3.6,1.4 0.033,0.033 0.067,0.066 0.1,0.1 0.267,0.267 0.883,1.067 1.85,2.4 0.633,0.9 1.183,2.233 1.65,4 0.467,1.767 0.8,2.917 1,3.45 C 6.533,6 7.167,6.967 8,7.8 Z"
   fill="#a7a39b"
   id="path62447" />
	</g>
</symbol>
<symbol
   viewBox="-5.95 -7.5 11.85 15"
   id="symbol62479">
	<g
   clip-rule="evenodd"
   fill-rule="evenodd"
   id="g62477">
			<path
   d="m -5.75,-2.85 c -0.067,0.567 -0.117,1.15 -0.15,1.75 0.233,-0.233 0.5,-0.2 0.8,0.1 0.133,0.2 0.267,0.4 0.4,0.6 v -0.2 c 0,-0.133 0.017,-0.25 0.05,-0.35 0.066,-0.267 0.133,-0.517 0.2,-0.75 0.233,-0.7 0.534,-1.066 0.9,-1.1 l 3.1,2.7 -1.15,1.7 -0.2,0.2 -0.025,0.025 C -1.842,1.853 -1.85,1.877 -1.85,1.9 c 0.434,0.267 0.767,0.633 1,1.1 0.4,0.767 0.283,1.567 -0.35,2.4 -0.466,0.633 -1.133,1.15 -2,1.55 L -3.4,7 -3.7,7.3 -3.6,7.5 -1.7,7.2 C -0.233,6.833 1.05,6.217 2.15,5.35 3.683,4.183 4.933,2.916 5.9,1.55 5.567,1.584 5.084,1.484 4.45,1.25 3.217,0.717 1.833,-0.317 0.3,-1.85 -0.533,-2.683 -2.183,-4.567 -4.65,-7.5 l -0.85,3.05 z"
   fill="#84817a"
   id="path62453" />
			<path
   d="m -4.7,-0.1 v -0.3 c -0.133,-0.2 -0.267,-0.4 -0.4,-0.6 -0.3,-0.3 -0.566,-0.333 -0.8,-0.1 0.033,-0.6 0.083,-1.183 0.15,-1.75 -0.133,0.967 -0.2,1.917 -0.2,2.85 0,1.4 0.4,3.067 1.2,5 L -3.7,7.3 -3.4,7 -3.2,6.95 C -2.333,6.55 -1.666,6.033 -1.2,5.4 -0.567,4.567 -0.45,3.767 -0.85,3 -1.083,2.533 -1.416,2.167 -1.85,1.9 -1.983,2.067 -2.1,2.2 -2.2,2.3 l -0.55,0.55 c -0.033,0.033 -0.067,0.066 -0.1,0.1 L -3.8,3.85 -4.3,2.3 C -4.334,2.234 -4.35,2.167 -4.35,2.1 L -4.65,0.75 V 0.5 C -4.683,0.433 -4.7,0.35 -4.7,0.25 Z"
   fill="#a7a39b"
   id="path62455" />
			<path
   d="M -1.825,1.825 C -1.98,2.016 -2.105,2.174 -2.2,2.3 c 0.1,-0.1 0.217,-0.233 0.35,-0.4 0,-0.023 0.008,-0.047 0.025,-0.075 z M -4.7,-0.6 l 0.1,0.2 -0.1,0.3 v 0.35 c 0,0.1 0.017,0.183 0.05,0.25 0.066,0.533 0.217,0.967 0.45,1.3 0.233,0.267 0.534,0.4 0.9,0.4 0.4,0 0.7,-0.15 0.9,-0.45 0.233,-0.433 0.1,-0.967 -0.4,-1.6 h 0.55 c 0.367,0 0.55,-0.183 0.55,-0.55 0,-0.367 -0.183,-0.533 -0.55,-0.5 -0.5,0.033 -1.133,-0.2 -1.9,-0.7 l -0.3,-0.1 c -0.066,0.233 -0.133,0.483 -0.2,0.75 -0.033,0.1 -0.05,0.217 -0.05,0.35 z"
   fill="#ad927b"
   id="path62457" />
			<path
   d="M -2.2,2.3 C -2.105,2.174 -1.98,2.016 -1.825,1.825 L -1.8,1.8 l 0.2,-0.2 1.15,-1.7 -3.1,-2.7 c -0.367,0.033 -0.667,0.4 -0.9,1.1 l 0.3,0.1 c 0.767,0.5 1.4,0.733 1.9,0.7 0.367,-0.033 0.55,0.133 0.55,0.5 0,0.367 -0.183,0.55 -0.55,0.55 H -2.8 c 0.5,0.633 0.633,1.167 0.4,1.6 C -2.6,2.05 -2.9,2.2 -3.3,2.2 -3.667,2.2 -3.967,2.067 -4.2,1.8 -4.433,1.467 -4.583,1.033 -4.65,0.5 v 0.25 l 0.3,1.35 c 0,0.066 0.017,0.133 0.05,0.2 l 0.5,1.55 0.95,-0.9 c 0.033,-0.034 0.067,-0.067 0.1,-0.1 z m -2.5,-2.7 v 0.3 l 0.1,-0.3 -0.1,-0.2 z"
   fill="#907967"
   id="path62459" />
			<path
   d="m -5.75,-2.85 c -0.067,0.567 -0.117,1.15 -0.15,1.75 0.233,-0.233 0.5,-0.2 0.8,0.1 0.133,0.2 0.267,0.4 0.4,0.6 v -0.2 c 0,-0.133 0.017,-0.25 0.05,-0.35 0.066,-0.267 0.133,-0.517 0.2,-0.75 0.233,-0.7 0.534,-1.066 0.9,-1.1 l 3.1,2.7 -1.15,1.7 -0.2,0.2 -0.025,0.025 C -1.842,1.853 -1.85,1.877 -1.85,1.9 c 0.434,0.267 0.767,0.633 1,1.1 0.4,0.767 0.283,1.567 -0.35,2.4 -0.466,0.633 -1.133,1.15 -2,1.55 L -3.4,7 -3.7,7.3 -3.6,7.5 -1.7,7.2 C -0.233,6.833 1.05,6.217 2.15,5.35 3.683,4.183 4.933,2.916 5.9,1.55 5.567,1.584 5.084,1.484 4.45,1.25 3.217,0.717 1.833,-0.317 0.3,-1.85 -0.533,-2.683 -2.183,-4.567 -4.65,-7.5 l -0.85,3.05 z"
   fill="#84817a"
   id="path62461" />
			<path
   d="m -4.7,-0.1 v -0.3 c -0.133,-0.2 -0.267,-0.4 -0.4,-0.6 -0.3,-0.3 -0.566,-0.333 -0.8,-0.1 0.033,-0.6 0.083,-1.183 0.15,-1.75 -0.133,0.967 -0.2,1.917 -0.2,2.85 0,1.4 0.4,3.067 1.2,5 L -3.7,7.3 -3.4,7 -3.2,6.95 C -2.333,6.55 -1.666,6.033 -1.2,5.4 -0.567,4.567 -0.45,3.767 -0.85,3 -1.083,2.533 -1.416,2.167 -1.85,1.9 -1.983,2.067 -2.1,2.2 -2.2,2.3 l -0.55,0.55 c -0.033,0.033 -0.067,0.066 -0.1,0.1 L -3.8,3.85 -4.3,2.3 C -4.334,2.234 -4.35,2.167 -4.35,2.1 L -4.65,0.75 V 0.5 C -4.683,0.433 -4.7,0.35 -4.7,0.25 Z"
   fill="#a7a39b"
   id="path62463" />
			<path
   d="m -2.2,2.3 c 0.1,-0.1 0.217,-0.233 0.35,-0.4 0,-0.022 0.008,-0.047 0.025,-0.075 C -1.98,2.016 -2.105,2.174 -2.2,2.3 Z m -2.5,-2.9 0.1,0.2 -0.1,0.3 v 0.35 c 0,0.1 0.017,0.183 0.05,0.25 0.066,0.533 0.217,0.967 0.45,1.3 0.233,0.267 0.534,0.4 0.9,0.4 0.4,0 0.7,-0.15 0.9,-0.45 0.233,-0.433 0.1,-0.967 -0.4,-1.6 h 0.55 c 0.367,0 0.55,-0.183 0.55,-0.55 0,-0.367 -0.183,-0.533 -0.55,-0.5 -0.5,0.033 -1.133,-0.2 -1.9,-0.7 l -0.3,-0.1 c -0.066,0.233 -0.133,0.483 -0.2,0.75 -0.033,0.1 -0.05,0.217 -0.05,0.35 z"
   fill="#ad927b"
   id="path62465" />
			<path
   d="M -2.2,2.3 C -2.105,2.174 -1.98,2.016 -1.825,1.825 L -1.8,1.8 l 0.2,-0.2 1.15,-1.7 -3.1,-2.7 c -0.367,0.033 -0.667,0.4 -0.9,1.1 l 0.3,0.1 c 0.767,0.5 1.4,0.733 1.9,0.7 0.367,-0.033 0.55,0.133 0.55,0.5 0,0.367 -0.183,0.55 -0.55,0.55 H -2.8 c 0.5,0.633 0.633,1.167 0.4,1.6 C -2.6,2.05 -2.9,2.2 -3.3,2.2 -3.667,2.2 -3.967,2.067 -4.2,1.8 -4.433,1.467 -4.583,1.033 -4.65,0.5 v 0.25 l 0.3,1.35 c 0,0.066 0.017,0.133 0.05,0.2 l 0.5,1.55 0.95,-0.9 c 0.033,-0.034 0.067,-0.067 0.1,-0.1 z m -2.5,-2.7 v 0.3 l 0.1,-0.3 -0.1,-0.2 z"
   fill="#907967"
   id="path62467" />
			<path
   d="m -5.75,-2.85 c -0.067,0.567 -0.117,1.15 -0.15,1.75 0.233,-0.233 0.5,-0.2 0.8,0.1 0.133,0.2 0.267,0.4 0.4,0.6 v -0.2 c 0,-0.133 0.017,-0.25 0.05,-0.35 0.066,-0.267 0.133,-0.517 0.2,-0.75 0.233,-0.7 0.534,-1.066 0.9,-1.1 l 3.1,2.7 -1.15,1.7 -0.2,0.2 -0.025,0.025 C -1.842,1.853 -1.85,1.877 -1.85,1.9 c 0.434,0.267 0.767,0.633 1,1.1 0.4,0.767 0.283,1.567 -0.35,2.4 -0.466,0.633 -1.133,1.15 -2,1.55 L -3.4,7 -3.7,7.3 -3.6,7.5 -1.7,7.2 C -0.233,6.833 1.05,6.217 2.15,5.35 3.683,4.183 4.933,2.916 5.9,1.55 5.567,1.584 5.084,1.484 4.45,1.25 3.217,0.717 1.833,-0.317 0.3,-1.85 -0.533,-2.683 -2.183,-4.567 -4.65,-7.5 l -0.85,3.05 z"
   fill="#84817a"
   id="path62469" />
			<path
   d="m -4.7,-0.1 v -0.3 c -0.133,-0.2 -0.267,-0.4 -0.4,-0.6 -0.3,-0.3 -0.566,-0.333 -0.8,-0.1 0.033,-0.6 0.083,-1.183 0.15,-1.75 -0.133,0.967 -0.2,1.917 -0.2,2.85 0,1.4 0.4,3.067 1.2,5 L -3.7,7.3 -3.4,7 -3.2,6.95 C -2.333,6.55 -1.666,6.033 -1.2,5.4 -0.567,4.567 -0.45,3.767 -0.85,3 -1.083,2.533 -1.416,2.167 -1.85,1.9 -1.983,2.067 -2.1,2.2 -2.2,2.3 l -0.55,0.55 c -0.033,0.033 -0.067,0.066 -0.1,0.1 L -3.8,3.85 -4.3,2.3 C -4.334,2.234 -4.35,2.167 -4.35,2.1 L -4.65,0.75 V 0.5 C -4.683,0.433 -4.7,0.35 -4.7,0.25 Z"
   fill="#a7a39b"
   id="path62471" />
			<path
   d="m -2.2,2.3 c 0.1,-0.1 0.217,-0.233 0.35,-0.4 0,-0.022 0.008,-0.047 0.025,-0.075 C -1.98,2.016 -2.105,2.174 -2.2,2.3 Z m -2.5,-2.9 0.1,0.2 -0.1,0.3 v 0.35 c 0,0.1 0.017,0.183 0.05,0.25 0.066,0.533 0.217,0.967 0.45,1.3 0.233,0.267 0.534,0.4 0.9,0.4 0.4,0 0.7,-0.15 0.9,-0.45 0.233,-0.433 0.1,-0.967 -0.4,-1.6 h 0.55 c 0.367,0 0.55,-0.183 0.55,-0.55 0,-0.367 -0.183,-0.533 -0.55,-0.5 -0.5,0.033 -1.133,-0.2 -1.9,-0.7 l -0.3,-0.1 c -0.066,0.233 -0.133,0.483 -0.2,0.75 -0.033,0.1 -0.05,0.217 -0.05,0.35 z"
   fill="#ad927b"
   id="path62473" />
			<path
   d="M -2.2,2.3 C -2.105,2.174 -1.98,2.016 -1.825,1.825 L -1.8,1.8 l 0.2,-0.2 1.15,-1.7 -3.1,-2.7 c -0.367,0.033 -0.667,0.4 -0.9,1.1 l 0.3,0.1 c 0.767,0.5 1.4,0.733 1.9,0.7 0.367,-0.033 0.55,0.133 0.55,0.5 0,0.367 -0.183,0.55 -0.55,0.55 H -2.8 c 0.5,0.633 0.633,1.167 0.4,1.6 C -2.6,2.05 -2.9,2.2 -3.3,2.2 -3.667,2.2 -3.967,2.067 -4.2,1.8 -4.433,1.467 -4.583,1.033 -4.65,0.5 v 0.25 l 0.3,1.35 c 0,0.066 0.017,0.133 0.05,0.2 l 0.5,1.55 0.95,-0.9 c 0.033,-0.034 0.067,-0.067 0.1,-0.1 z m -2.5,-2.7 v 0.3 l 0.1,-0.3 -0.1,-0.2 z"
   fill="#907967"
   id="path62475" />
	</g>
</symbol>
<symbol
   viewBox="-3.763 -3.05 7.526 6.092"
   id="symbol62513">
	<g
   clip-rule="evenodd"
   fill-rule="evenodd"
   id="g62511">
			<path
   d="M 0.4,1.7 C 0.533,1.533 0.483,1.3 0.25,1 0.15,0.9 -0.05,0.8 -0.35,0.7 -0.683,0.6 -0.967,0.567 -1.2,0.6 -1.467,0.633 -1.717,0.767 -1.95,1 L -2.2,1.25 c -0.066,0.067 -0.1,0.133 -0.1,0.2 -0.1,0.4 0.15,0.633 0.75,0.7 0.8,0.067 1.4,-0.033 1.8,-0.3 C 0.317,1.817 0.367,1.767 0.4,1.7 Z"
   fill="#a78579"
   id="path62481" />
			<path
   d="M -2.2,1.25 V 1.2 c -0.033,-0.267 0.05,-0.45 0.25,-0.55 0.2,-0.066 0.3,-0.233 0.3,-0.5 0,-0.2 -0.017,-0.5 -0.05,-0.9 0.067,-0.267 0.2,-0.5 0.4,-0.7 v 0.3 c -0.133,0.833 0.15,1.317 0.85,1.45 0.6,0.167 0.934,0.4 1,0.7 L 0.5,1.65 C 0.467,1.683 0.433,1.7 0.4,1.7 0.367,1.767 0.317,1.817 0.25,1.85 c -0.4,0.267 -1,0.367 -1.8,0.3 -0.6,-0.066 -0.85,-0.3 -0.75,-0.7 0,-0.067 0.033,-0.133 0.1,-0.2 z M 1.9,0.4 C 1.967,0.6 1.883,0.733 1.65,0.8 1.55,0.833 1.467,0.75 1.4,0.55 1.333,0.35 1.383,0.233 1.55,0.2 1.75,0.133 1.867,0.2 1.9,0.4 Z M 2.1,0.05 C 2.033,-0.117 2.067,-0.217 2.2,-0.25 2.3,-0.283 2.383,-0.233 2.45,-0.1 2.483,0.033 2.467,0.133 2.4,0.2 2.267,0.3 2.167,0.25 2.1,0.05 Z M -3.2,-0.4 c -0.433,0.5 -0.617,1.05 -0.55,1.65 0.2,1.467 1.433,2.033 3.7,1.7 C 0.717,2.817 1.367,2.6 1.9,2.3 2.3,2.067 2.584,1.8 2.75,1.5 2.817,1.333 2.85,1.15 2.85,0.95 c 0,-1.467 -0.9,-2.3 -2.7,-2.5 -1.1,-0.1 -2.05,0.133 -2.85,0.7 -0.2,0.133 -0.367,0.283 -0.5,0.45 z m 4.3,-0.45 c 0.233,0 0.35,0.067 0.35,0.2 0,0.167 -0.1,0.25 -0.3,0.25 -0.167,0 -0.267,-0.083 -0.3,-0.25 -0.033,-0.167 0.05,-0.233 0.25,-0.2 z"
   fill="#ede6e6"
   id="path62483" />
			<path
   d="M 0.4,1.7 C 0.433,1.7 0.467,1.683 0.5,1.65 L 0.55,1 C 0.484,0.7 0.15,0.467 -0.45,0.3 -1.15,0.167 -1.433,-0.317 -1.3,-1.15 v -0.3 c -0.2,0.2 -0.333,0.434 -0.4,0.7 0.034,0.4 0.05,0.7 0.05,0.9 0,0.267 -0.1,0.434 -0.3,0.5 -0.2,0.1 -0.283,0.283 -0.25,0.55 V 1.25 L -1.95,1 c 0.233,-0.233 0.483,-0.367 0.75,-0.4 0.233,-0.033 0.517,0 0.85,0.1 0.3,0.1 0.5,0.2 0.6,0.3 0.233,0.3 0.283,0.533 0.15,0.7 z"
   fill="#554c3f"
   id="path62485" />
			<path
   d="M 2.1,0.05 C 2.167,0.25 2.267,0.3 2.4,0.2 2.467,0.133 2.483,0.033 2.45,-0.1 2.383,-0.233 2.3,-0.283 2.2,-0.25 2.067,-0.217 2.033,-0.117 2.1,0.05 Z M 1.9,0.4 C 1.867,0.2 1.75,0.133 1.55,0.2 1.383,0.233 1.333,0.35 1.4,0.55 1.467,0.75 1.55,0.834 1.65,0.8 1.883,0.733 1.967,0.6 1.9,0.4 Z M 1.1,-0.85 c -0.2,-0.033 -0.283,0.033 -0.25,0.2 0.033,0.167 0.133,0.25 0.3,0.25 0.2,0 0.3,-0.083 0.3,-0.25 0,-0.133 -0.117,-0.2 -0.35,-0.2 z"
   fill="#a9a59d"
   id="path62487" />
			<path
   d="M 2.75,1.5 C 2.983,1.3 3.133,1.083 3.2,0.85 L 3.65,-0.2 c 0.1,-0.267 0.133,-0.7 0.1,-1.3 L 3.3,0.1 c 0.067,-0.367 0.067,-0.717 0,-1.05 0,-0.633 -0.1,-1 -0.3,-1.1 0.067,0.533 0.033,0.9 -0.1,1.1 0,-0.033 -0.017,-0.066 -0.05,-0.1 v -0.4 C 2.75,-1.983 2.633,-2.333 2.5,-2.5 c 0.067,0.467 0.05,0.733 -0.05,0.8 l -0.7,-0.85 c -0.067,0.333 -0.133,0.566 -0.2,0.7 L 1.1,-2.3 C 1.033,-2.433 0.883,-2.617 0.65,-2.85 L 0.5,-2.2 C 0.433,-2.267 0.367,-2.417 0.3,-2.65 0.234,-2.883 0.15,-3.017 0.05,-3.05 c -0.066,0.033 -0.133,0.167 -0.2,0.4 -0.067,0.2 -0.15,0.317 -0.25,0.35 -0.2,-0.4 -0.317,-0.6 -0.35,-0.6 -0.033,0.4 -0.067,0.7 -0.1,0.9 -0.066,-0.133 -0.233,-0.333 -0.5,-0.6 l -0.1,0.55 C -1.583,-2.083 -1.667,-2.2 -1.7,-2.4 c 0,-0.233 -0.033,-0.367 -0.1,-0.4 -0.133,0.1 -0.2,0.283 -0.2,0.55 0.033,0.3 0.033,0.517 0,0.65 0,-0.066 -0.1,-0.183 -0.3,-0.35 0.033,0.333 0.017,0.567 -0.05,0.7 -0.2,-0.1 -0.367,-0.283 -0.5,-0.55 -0.066,0.4 -0.033,0.683 0.1,0.85 V -0.9 L -3.1,-1.1 c 0.067,0.133 0.067,0.283 0,0.45 -0.067,0.067 -0.1,0.117 -0.1,0.15 v 0.1 c 0.133,-0.167 0.3,-0.317 0.5,-0.45 0.8,-0.566 1.75,-0.8 2.85,-0.7 1.8,0.2 2.7,1.033 2.7,2.5 0,0.2 -0.033,0.383 -0.1,0.55 z"
   fill="#908d86"
   id="path62489" />
			<path
   d="M 0.4,1.7 C 0.533,1.533 0.483,1.3 0.25,1 0.15,0.9 -0.05,0.8 -0.35,0.7 -0.683,0.6 -0.967,0.567 -1.2,0.6 -1.467,0.633 -1.717,0.767 -1.95,1 L -2.2,1.25 c -0.066,0.067 -0.1,0.133 -0.1,0.2 -0.1,0.4 0.15,0.633 0.75,0.7 0.8,0.067 1.4,-0.033 1.8,-0.3 C 0.317,1.817 0.367,1.767 0.4,1.7 Z"
   fill="#a78579"
   id="path62491" />
			<path
   d="M -2.2,1.25 V 1.2 c -0.033,-0.267 0.05,-0.45 0.25,-0.55 0.2,-0.066 0.3,-0.233 0.3,-0.5 0,-0.2 -0.017,-0.5 -0.05,-0.9 0.067,-0.267 0.2,-0.5 0.4,-0.7 v 0.3 c -0.133,0.833 0.15,1.317 0.85,1.45 0.6,0.167 0.934,0.4 1,0.7 L 0.5,1.65 C 0.467,1.683 0.433,1.7 0.4,1.7 0.367,1.767 0.317,1.817 0.25,1.85 c -0.4,0.267 -1,0.367 -1.8,0.3 -0.6,-0.066 -0.85,-0.3 -0.75,-0.7 0,-0.067 0.033,-0.133 0.1,-0.2 z M 1.65,0.8 C 1.55,0.833 1.467,0.75 1.4,0.55 1.333,0.35 1.383,0.233 1.55,0.2 1.75,0.133 1.867,0.2 1.9,0.4 1.967,0.6 1.883,0.733 1.65,0.8 Z M 2.1,0.05 C 2.033,-0.117 2.067,-0.217 2.2,-0.25 2.3,-0.283 2.383,-0.233 2.45,-0.1 2.483,0.033 2.467,0.133 2.4,0.2 2.267,0.3 2.167,0.25 2.1,0.05 Z M -3.2,-0.4 c -0.433,0.5 -0.617,1.05 -0.55,1.65 0.2,1.467 1.433,2.033 3.7,1.7 C 0.717,2.817 1.367,2.6 1.9,2.3 2.3,2.067 2.584,1.8 2.75,1.5 2.817,1.333 2.85,1.15 2.85,0.95 c 0,-1.467 -0.9,-2.3 -2.7,-2.5 -1.1,-0.1 -2.05,0.133 -2.85,0.7 -0.2,0.133 -0.367,0.283 -0.5,0.45 z m 4.3,-0.45 c 0.233,0 0.35,0.067 0.35,0.2 0,0.167 -0.1,0.25 -0.3,0.25 -0.167,0 -0.267,-0.083 -0.3,-0.25 -0.033,-0.167 0.05,-0.233 0.25,-0.2 z"
   fill="#ede6e6"
   id="path62493" />
			<path
   d="M 0.4,1.7 C 0.433,1.7 0.467,1.683 0.5,1.65 L 0.55,1 C 0.484,0.7 0.15,0.467 -0.45,0.3 -1.15,0.167 -1.433,-0.317 -1.3,-1.15 v -0.3 c -0.2,0.2 -0.333,0.434 -0.4,0.7 0.034,0.4 0.05,0.7 0.05,0.9 0,0.267 -0.1,0.434 -0.3,0.5 -0.2,0.1 -0.283,0.283 -0.25,0.55 V 1.25 L -1.95,1 c 0.233,-0.233 0.483,-0.367 0.75,-0.4 0.233,-0.033 0.517,0 0.85,0.1 0.3,0.1 0.5,0.2 0.6,0.3 0.233,0.3 0.283,0.533 0.15,0.7 z"
   fill="#554c3f"
   id="path62495" />
			<path
   d="M 2.1,0.05 C 2.167,0.25 2.267,0.3 2.4,0.2 2.467,0.133 2.483,0.033 2.45,-0.1 2.383,-0.233 2.3,-0.283 2.2,-0.25 2.067,-0.217 2.033,-0.117 2.1,0.05 Z M 1.65,0.8 C 1.883,0.733 1.967,0.6 1.9,0.4 1.867,0.2 1.75,0.133 1.55,0.2 1.383,0.233 1.333,0.35 1.4,0.55 1.467,0.75 1.55,0.833 1.65,0.8 Z M 1.1,-0.85 c -0.2,-0.033 -0.283,0.033 -0.25,0.2 0.033,0.167 0.133,0.25 0.3,0.25 0.2,0 0.3,-0.083 0.3,-0.25 0,-0.133 -0.117,-0.2 -0.35,-0.2 z"
   fill="#a9a59d"
   id="path62497" />
			<path
   d="M 2.75,1.5 C 2.983,1.3 3.133,1.083 3.2,0.85 L 3.65,-0.2 c 0.1,-0.267 0.133,-0.7 0.1,-1.3 L 3.3,0.1 c 0.067,-0.367 0.067,-0.717 0,-1.05 0,-0.633 -0.1,-1 -0.3,-1.1 0.067,0.533 0.033,0.9 -0.1,1.1 0,-0.033 -0.017,-0.066 -0.05,-0.1 v -0.4 C 2.75,-1.983 2.633,-2.333 2.5,-2.5 c 0.067,0.467 0.05,0.733 -0.05,0.8 l -0.7,-0.85 c -0.067,0.333 -0.133,0.566 -0.2,0.7 L 1.1,-2.3 C 1.033,-2.433 0.883,-2.617 0.65,-2.85 L 0.5,-2.2 C 0.433,-2.267 0.367,-2.417 0.3,-2.65 0.234,-2.883 0.15,-3.017 0.05,-3.05 c -0.066,0.033 -0.133,0.167 -0.2,0.4 -0.067,0.2 -0.15,0.317 -0.25,0.35 -0.2,-0.4 -0.317,-0.6 -0.35,-0.6 -0.033,0.4 -0.067,0.7 -0.1,0.9 -0.066,-0.133 -0.233,-0.333 -0.5,-0.6 l -0.1,0.55 C -1.583,-2.083 -1.667,-2.2 -1.7,-2.4 c 0,-0.233 -0.033,-0.367 -0.1,-0.4 -0.133,0.1 -0.2,0.283 -0.2,0.55 0.033,0.3 0.033,0.517 0,0.65 0,-0.066 -0.1,-0.183 -0.3,-0.35 0.033,0.333 0.017,0.567 -0.05,0.7 -0.2,-0.1 -0.367,-0.283 -0.5,-0.55 -0.066,0.4 -0.033,0.683 0.1,0.85 V -0.9 L -3.1,-1.1 c 0.067,0.133 0.067,0.283 0,0.45 -0.067,0.067 -0.1,0.117 -0.1,0.15 v 0.1 c 0.133,-0.167 0.3,-0.317 0.5,-0.45 0.8,-0.566 1.75,-0.8 2.85,-0.7 1.8,0.2 2.7,1.033 2.7,2.5 0,0.2 -0.033,0.383 -0.1,0.55 z"
   fill="#908d86"
   id="path62499" />
			<path
   d="M 0.4,1.7 C 0.533,1.533 0.483,1.3 0.25,1 0.15,0.9 -0.05,0.8 -0.35,0.7 -0.683,0.6 -0.967,0.567 -1.2,0.6 -1.467,0.633 -1.717,0.767 -1.95,1 L -2.2,1.25 c -0.066,0.067 -0.1,0.133 -0.1,0.2 -0.1,0.4 0.15,0.633 0.75,0.7 0.8,0.067 1.4,-0.033 1.8,-0.3 C 0.317,1.817 0.367,1.767 0.4,1.7 Z"
   fill="#a78579"
   id="path62501" />
			<path
   d="M -2.2,1.25 V 1.2 c -0.033,-0.267 0.05,-0.45 0.25,-0.55 0.2,-0.066 0.3,-0.233 0.3,-0.5 0,-0.2 -0.017,-0.5 -0.05,-0.9 0.067,-0.267 0.2,-0.5 0.4,-0.7 v 0.3 c -0.133,0.833 0.15,1.317 0.85,1.45 0.6,0.167 0.934,0.4 1,0.7 L 0.5,1.65 C 0.467,1.683 0.433,1.7 0.4,1.7 0.367,1.767 0.317,1.817 0.25,1.85 c -0.4,0.267 -1,0.367 -1.8,0.3 -0.6,-0.066 -0.85,-0.3 -0.75,-0.7 0,-0.067 0.033,-0.133 0.1,-0.2 z M 1.65,0.8 C 1.55,0.833 1.467,0.75 1.4,0.55 1.333,0.35 1.383,0.233 1.55,0.2 1.75,0.133 1.867,0.2 1.9,0.4 1.967,0.6 1.883,0.733 1.65,0.8 Z M 2.1,0.05 C 2.033,-0.117 2.067,-0.217 2.2,-0.25 2.3,-0.283 2.383,-0.233 2.45,-0.1 2.483,0.033 2.467,0.133 2.4,0.2 2.267,0.3 2.167,0.25 2.1,0.05 Z M -3.2,-0.4 c -0.433,0.5 -0.617,1.05 -0.55,1.65 0.2,1.467 1.433,2.033 3.7,1.7 C 0.717,2.817 1.367,2.6 1.9,2.3 2.3,2.067 2.584,1.8 2.75,1.5 2.817,1.333 2.85,1.15 2.85,0.95 c 0,-1.467 -0.9,-2.3 -2.7,-2.5 -1.1,-0.1 -2.05,0.133 -2.85,0.7 -0.2,0.133 -0.367,0.283 -0.5,0.45 z m 4.3,-0.45 c 0.233,0 0.35,0.067 0.35,0.2 0,0.167 -0.1,0.25 -0.3,0.25 -0.167,0 -0.267,-0.083 -0.3,-0.25 -0.033,-0.167 0.05,-0.233 0.25,-0.2 z"
   fill="#ede6e6"
   id="path62503" />
			<path
   d="M 0.4,1.7 C 0.433,1.7 0.467,1.683 0.5,1.65 L 0.55,1 C 0.484,0.7 0.15,0.467 -0.45,0.3 -1.15,0.167 -1.433,-0.317 -1.3,-1.15 v -0.3 c -0.2,0.2 -0.333,0.434 -0.4,0.7 0.034,0.4 0.05,0.7 0.05,0.9 0,0.267 -0.1,0.434 -0.3,0.5 -0.2,0.1 -0.283,0.283 -0.25,0.55 V 1.25 L -1.95,1 c 0.233,-0.233 0.483,-0.367 0.75,-0.4 0.233,-0.033 0.517,0 0.85,0.1 0.3,0.1 0.5,0.2 0.6,0.3 0.233,0.3 0.283,0.533 0.15,0.7 z"
   fill="#554c3f"
   id="path62505" />
			<path
   d="M 2.1,0.05 C 2.167,0.25 2.267,0.3 2.4,0.2 2.467,0.133 2.483,0.033 2.45,-0.1 2.383,-0.233 2.3,-0.283 2.2,-0.25 2.067,-0.217 2.033,-0.117 2.1,0.05 Z M 1.65,0.8 C 1.883,0.733 1.967,0.6 1.9,0.4 1.867,0.2 1.75,0.133 1.55,0.2 1.383,0.233 1.333,0.35 1.4,0.55 1.467,0.75 1.55,0.833 1.65,0.8 Z M 1.1,-0.85 c -0.2,-0.033 -0.283,0.033 -0.25,0.2 0.033,0.167 0.133,0.25 0.3,0.25 0.2,0 0.3,-0.083 0.3,-0.25 0,-0.133 -0.117,-0.2 -0.35,-0.2 z"
   fill="#a9a59d"
   id="path62507" />
			<path
   d="M 2.75,1.5 C 2.983,1.3 3.133,1.083 3.2,0.85 L 3.65,-0.2 c 0.1,-0.267 0.133,-0.7 0.1,-1.3 L 3.3,0.1 c 0.067,-0.367 0.067,-0.717 0,-1.05 0,-0.633 -0.1,-1 -0.3,-1.1 0.067,0.533 0.033,0.9 -0.1,1.1 0,-0.033 -0.017,-0.066 -0.05,-0.1 v -0.4 C 2.75,-1.983 2.633,-2.333 2.5,-2.5 c 0.067,0.467 0.05,0.733 -0.05,0.8 l -0.7,-0.85 c -0.067,0.333 -0.133,0.566 -0.2,0.7 L 1.1,-2.3 C 1.033,-2.433 0.883,-2.617 0.65,-2.85 L 0.5,-2.2 C 0.433,-2.267 0.367,-2.417 0.3,-2.65 0.234,-2.883 0.15,-3.017 0.05,-3.05 c -0.066,0.033 -0.133,0.167 -0.2,0.4 -0.067,0.2 -0.15,0.317 -0.25,0.35 -0.2,-0.4 -0.317,-0.6 -0.35,-0.6 -0.033,0.4 -0.067,0.7 -0.1,0.9 -0.066,-0.133 -0.233,-0.333 -0.5,-0.6 l -0.1,0.55 C -1.583,-2.083 -1.667,-2.2 -1.7,-2.4 c 0,-0.233 -0.033,-0.367 -0.1,-0.4 -0.133,0.1 -0.2,0.283 -0.2,0.55 0.033,0.3 0.033,0.517 0,0.65 0,-0.066 -0.1,-0.183 -0.3,-0.35 0.033,0.333 0.017,0.567 -0.05,0.7 -0.2,-0.1 -0.367,-0.283 -0.5,-0.55 -0.066,0.4 -0.033,0.683 0.1,0.85 V -0.9 L -3.1,-1.1 c 0.067,0.133 0.067,0.283 0,0.45 -0.067,0.067 -0.1,0.117 -0.1,0.15 v 0.1 c 0.133,-0.167 0.3,-0.317 0.5,-0.45 0.8,-0.566 1.75,-0.8 2.85,-0.7 1.8,0.2 2.7,1.033 2.7,2.5 0,0.2 -0.033,0.383 -0.1,0.55 z"
   fill="#908d86"
   id="path62509" />
	</g>
</symbol>
<symbol
   id="l"
   viewBox="-17.173 -15.372 28.573 28.272">
		<use
   x="-17.173"
   y="-15.372"
   width="28.573"
   height="28.271999"
   xlink:href="#m"
   id="use62515" />
</symbol>
<symbol
   id="m"
   viewBox="-17.173 -15.372 28.573 28.272">
			<use
   transform="matrix(-0.8789,-0.477,0.477,-0.8789,4.5503,-8)"
   x="-1"
   y="-1.65"
   width="13.66"
   height="5.25"
   xlink:href="#v"
   id="use62518" />
			<use
   transform="translate(-11.8,4.3999)"
   x="-5"
   y="-4.4499998"
   width="9.9499998"
   height="12.95"
   xlink:href="#r"
   id="use62520" />
			<use
   transform="translate(-4.6499,-1.7998)"
   x="-12.523"
   y="-11.1"
   width="24.964001"
   height="22.15"
   xlink:href="#p"
   id="use62522" />
			<use
   transform="translate(-14.9,-1.9502)"
   x="-1.8"
   y="-3.1600001"
   width="3.605"
   height="6.263"
   xlink:href="#t"
   id="use62524" />
			<use
   transform="translate(-4.1499,-3)"
   x="-4.2340002"
   y="-3.836"
   width="8.4379997"
   height="7.6209998"
   xlink:href="#s"
   id="use62526" />
			<use
   transform="translate(-10.95,-5.3501)"
   x="-3.0539999"
   y="-2.4000001"
   width="6.1040001"
   height="4.8119998"
   xlink:href="#u"
   id="use62528" />
			<use
   transform="translate(3.25,3.4502)"
   x="-6.0999999"
   y="-5.6999998"
   width="14.25"
   height="13.429"
   xlink:href="#q"
   id="use62530" />
			<use
   transform="translate(-3.3501,-9.7998)"
   x="-4.4499998"
   y="-1.964"
   width="5.895"
   height="3.8429999"
   xlink:href="#n"
   id="use62532" />
			<use
   transform="translate(-14.45,-8.4502)"
   x="-0.66000003"
   y="-1.8559999"
   width="2.694"
   height="2.7060001"
   xlink:href="#o"
   id="use62534" />
</symbol>
<symbol
   id="n"
   viewBox="-4.45 -1.964 5.895 3.843">
		<g
   clip-rule="evenodd"
   fill-rule="evenodd"
   id="g62541">
			<path
   d="m -1.7,1.1 h 0.75 C -0.417,1.333 0.116,1.217 0.65,0.75 1.184,0.283 1.383,-0.217 1.25,-0.75 1.183,-1.017 0.966,-1.233 0.6,-1.4 c -0.4,-0.3 -0.733,-0.466 -1,-0.5 -0.533,-0.1 -1.2,-0.083 -2,0.05 -1,0.167 -1.533,0.5 -1.6,1 -0.034,0.166 0.066,0.316 0.3,0.45 0.133,0.067 0.333,0.15 0.6,0.25 0.367,0.2 0.684,0.467 0.95,0.8 l 0.2,0.25 C -1.884,1 -1.8,1.066 -1.7,1.1 Z"
   fill="#9b885c"
   id="path62537" />
			<path
   d="M -0.75,1.85 -0.45,1.8 C 0.083,2 0.566,1.816 1,1.25 1.434,0.65 1.55,0.116 1.35,-0.35 1.217,-0.65 0.967,-0.85 0.6,-0.95 0.266,-1.083 -0.317,-1.2 -1.15,-1.3 c -0.566,-0.133 -1.2,-0.15 -1.9,-0.05 -0.934,0.1 -1.4,0.383 -1.4,0.85 0,0.133 0.116,0.267 0.35,0.4 0.134,0.066 0.333,0.15 0.6,0.25 0.467,0.267 0.817,0.517 1.05,0.75 0.1,0.1 0.366,0.267 0.8,0.5 0.466,0.267 0.766,0.416 0.9,0.45 z"
   fill="#cfb784"
   id="path62539" />
		</g>
</symbol>
<symbol
   id="o"
   viewBox="-0.66 -1.856 2.694 2.706">
		<g
   clip-rule="evenodd"
   fill-rule="evenodd"
   id="g62548">
			<path
   d="m 0.45,0.5 c 0.3,0.067 0.733,-0.366 1.3,-1.3 0.534,-0.867 0.317,-1.2 -0.65,-1 -0.3,0.067 -0.6,0.217 -0.9,0.45 -0.367,0.234 -0.583,0.484 -0.65,0.75 -0.133,0.4 -0.133,0.733 0,1 0.133,0.3 0.383,0.45 0.75,0.45 z"
   fill="#9b885c"
   id="path62544" />
			<path
   d="m 0.45,0.55 c 0.267,0.066 0.633,-0.3 1.1,-1.1 0.4,-0.733 0.15,-1.016 -0.75,-0.85 -0.3,0.067 -0.583,0.184 -0.85,0.35 -0.333,0.234 -0.516,0.45 -0.55,0.65 -0.2,0.833 0.1,1.25 0.9,1.25 z"
   fill="#cfb784"
   id="path62546" />
		</g>
</symbol>
<symbol
   id="p"
   viewBox="-12.523 -11.1 24.964 22.15">
		<g
   clip-rule="evenodd"
   fill-rule="evenodd"
   id="g62561">
			<path
   d="M 11.6,3.8 11.55,3.75 11.4,3.5 V 3.4 c -0.367,-0.8 -0.517,-2.05 -0.45,-3.75 -0.1,-0.033 -0.267,-0.033 -0.5,0 -0.2,0.033 -0.35,0 -0.45,-0.1 C 9.933,-0.517 9.9,-0.7 9.9,-1 c 0,-0.167 0.017,-0.383 0.05,-0.65 -0.367,0 -0.633,-0.017 -0.8,-0.05 v -1.45 c -0.2,-0.067 -0.533,-0.083 -1,-0.05 -0.433,0.034 -0.767,0.034 -1,0 -0.1,-0.7 -0.167,-1.083 -0.2,-1.15 -0.467,0.133 -0.733,0.2 -0.8,0.2 -0.267,0 -0.45,-0.1 -0.55,-0.3 C 5.533,-4.583 5.533,-4.933 5.6,-5.5 5.433,-5.467 5.25,-5.383 5.05,-5.25 4.783,-5.117 4.6,-5.033 4.5,-5 4.467,-5.233 4.467,-5.517 4.5,-5.85 4.467,-6.083 4.3,-6.217 4,-6.25 c -0.467,0.2 -0.867,0.267 -1.2,0.2 v -0.8 C 2.567,-6.883 2.033,-6.783 1.2,-6.55 1.133,-6.65 1.1,-6.9 1.1,-7.3 0.8,-7.367 0.45,-7.317 0.05,-7.15 c -0.6,0.167 -0.966,0.267 -1.1,0.3 0.066,-0.1 0.15,-0.233 0.25,-0.4 0.1,-0.167 0.133,-0.317 0.1,-0.45 -0.233,0.034 -0.75,0.2 -1.55,0.5 -0.667,0.267 -1.183,0.35 -1.55,0.25 0,-0.167 0.066,-0.333 0.2,-0.5 0.067,-0.066 0.117,-0.133 0.15,-0.2 -0.533,0.033 -0.9,0.117 -1.1,0.25 l 0.5,0.35 c -0.133,0.033 -0.55,-0.033 -1.25,-0.2 -0.2,-0.033 -0.367,-0.067 -0.5,-0.1 -0.133,0.067 -0.267,0.117 -0.4,0.15 -1.161,0.365 -1.994,0.848 -2.5,1.45 0.166,-0.204 0.216,-0.438 0.15,-0.7 -0.667,0.233 -1.567,1.083 -2.7,2.55 l 0.05,-0.75 -0.9,0.7 c -0.033,0.133 -0.05,0.25 -0.05,0.35 l -0.15,-0.05 c -0.233,0.433 -0.284,1.267 -0.15,2.5 l -0.05,1.4 c 0.033,1.433 0.4,2.817 1.1,4.15 l 0.05,0.65 c 0.167,0.967 0.8,1.934 1.9,2.9 0.534,0.533 1,0.85 1.4,0.95 0.1,0.033 0.35,0.1 0.75,0.2 0.3,0.1 0.533,0.2 0.7,0.3 h -1.25 c 0.1,0.233 0.467,0.467 1.1,0.7 0.333,0.1 0.783,0.233 1.35,0.4 -0.167,0.1 -0.434,0.117 -0.8,0.05 l 0.55,0.15 c 0.467,0 0.833,0.033 1.1,0.1 0.333,0.067 0.8,0.1 1.4,0.1 0.633,0 1.083,0.017 1.35,0.05 l -0.2,0.1 2.35,-0.1 C 1.417,11.017 2.2,11.033 2.7,11 3.3,10.9 3.817,10.633 4.25,10.2 H 4.3 C 5.567,9.733 6.683,9.133 7.65,8.4 L 8.5,7.95 c 0.433,-0.233 1,-0.7 1.7,-1.4 0.233,-0.2 0.433,-0.5 0.6,-0.9 0.1,-0.233 0.217,-0.566 0.35,-1 0,-0.033 0.133,-0.283 0.4,-0.75 0,-0.033 0.017,-0.067 0.05,-0.1 z m 0.8,-6.35 c 0.067,0.533 0,1.267 -0.2,2.2 L 12,0.65 12.15,0 c 0.267,-1.1 0.35,-1.95 0.25,-2.55 z"
   fill="#cfb784"
   id="path62551" />
			<path
   d="m -10.35,-7.2 c -0.533,0.9 -0.95,1.517 -1.25,1.85 -0.233,0.467 -0.4,0.934 -0.5,1.4 l 0.9,-0.7 -0.05,0.75 c 1.133,-1.467 2.033,-2.317 2.7,-2.55 0.065,0.263 0.016,0.496 -0.15,0.7 0.506,-0.602 1.339,-1.085 2.5,-1.45 0.133,-0.033 0.267,-0.083 0.4,-0.15 -0.3,0 -0.483,0.05 -0.55,0.15 -1,-0.033 -1.7,-0.3 -2.1,-0.8 v 0.05 l -0.1,-0.15 v -0.05 c -0.034,0 -0.05,-0.017 -0.05,-0.05 l -0.35,0.15 -0.25,0.1 c -0.5,0.267 -0.883,0.517 -1.15,0.75 z M 12,0.65 l 0.2,-1 h -0.75 c 0,-0.967 -0.05,-1.633 -0.15,-2 -0.167,-0.566 -0.55,-1.083 -1.15,-1.55 l 0.65,0.05 C 10.667,-4.25 10.317,-4.617 9.75,-4.95 9.083,-5.283 8.633,-5.517 8.4,-5.65 8.667,-5.683 9.084,-5.584 9.65,-5.35 9.317,-5.817 8.767,-6.2 8,-6.5 7,-6.933 6.4,-7.217 6.2,-7.35 6.233,-7.383 6.5,-7.45 7,-7.55 7.3,-7.617 7.317,-7.817 7.05,-8.15 6.983,-8.25 6.733,-8.367 6.3,-8.5 5.9,-8.6 5.667,-8.65 5.6,-8.65 4.5,-9.017 3.683,-9.25 3.15,-9.35 H 3.6 c 0.066,-0.167 0.066,-0.316 0,-0.45 -0.033,0 -0.067,-0.017 -0.1,-0.05 L 2.45,-9.2 v -0.05 l -1.5,0.9 c -0.6,0.333 -1.55,0.567 -2.85,0.7 -0.633,-0.033 -1.15,-0.033 -1.55,0 -0.033,0.066 -0.083,0.133 -0.15,0.2 -0.133,0.167 -0.2,0.333 -0.2,0.5 0.367,0.1 0.883,0.017 1.55,-0.25 0.8,-0.3 1.317,-0.466 1.55,-0.5 0.034,0.133 0,0.284 -0.1,0.45 -0.1,0.167 -0.184,0.3 -0.25,0.4 0.133,-0.033 0.5,-0.133 1.1,-0.3 0.4,-0.167 0.75,-0.217 1.05,-0.15 0,0.4 0.033,0.65 0.1,0.75 0.833,-0.233 1.367,-0.333 1.6,-0.3 v 0.8 c 0.333,0.066 0.733,0 1.2,-0.2 0.3,0.033 0.467,0.167 0.5,0.4 -0.033,0.333 -0.033,0.617 0,0.85 0.1,-0.033 0.283,-0.117 0.55,-0.25 0.2,-0.133 0.383,-0.217 0.55,-0.25 -0.067,0.567 -0.067,0.917 0,1.05 0.1,0.2 0.283,0.3 0.55,0.3 0.067,0 0.333,-0.067 0.8,-0.2 0.033,0.067 0.1,0.45 0.2,1.15 0.233,0.034 0.567,0.034 1,0 0.467,-0.033 0.8,-0.017 1,0.05 v 1.45 c 0.167,0.034 0.434,0.05 0.8,0.05 C 9.917,-1.383 9.9,-1.167 9.9,-1 c 0,0.3 0.033,0.483 0.1,0.55 0.1,0.1 0.25,0.133 0.45,0.1 0.233,-0.033 0.4,-0.033 0.5,0 C 10.883,1.35 11.033,2.6 11.4,3.4 11.533,3 11.667,2.567 11.8,2.1 Z M 11.6,3.8 c 0.1,-0.267 0.167,-0.5 0.2,-0.7 l -0.4,0.4 0.15,0.25 z"
   fill="#c2a770"
   id="path62553" />
			<path
   d="M 4.25,-10.3 3.5,-9.85 c 0.033,0.033 0.067,0.05 0.1,0.05 0.066,0.133 0.066,0.283 0,0.45 H 3.15 c 0.533,0.1 1.35,0.333 2.45,0.7 0.066,0 0.3,0.05 0.7,0.15 0.434,0.133 0.684,0.25 0.75,0.35 0.267,0.333 0.25,0.533 -0.05,0.6 -0.5,0.1 -0.767,0.167 -0.8,0.2 0.2,0.133 0.8,0.417 1.8,0.85 0.767,0.3 1.317,0.683 1.65,1.15 -0.567,-0.233 -0.983,-0.333 -1.25,-0.3 0.233,0.133 0.684,0.367 1.35,0.7 0.567,0.333 0.917,0.7 1.05,1.1 L 10.15,-3.9 c 0.6,0.467 0.983,0.983 1.15,1.55 0.1,0.367 0.15,1.033 0.15,2 h 0.75 c 0.2,-0.933 0.267,-1.667 0.2,-2.2 -0.033,-0.333 -0.133,-0.6 -0.3,-0.8 -0.067,0.067 -0.133,0.217 -0.2,0.45 -0.066,0.167 -0.15,0.283 -0.25,0.35 C 11.517,-3.15 11.333,-4 11.1,-5.1 10.867,-6.033 10.483,-6.783 9.95,-7.35 9.516,-8.05 8.416,-8.833 6.65,-9.7 6.45,-9.8 5.817,-9.933 4.75,-10.1 4.583,-10.167 4.417,-10.233 4.25,-10.3 Z m -13,1.85 c -0.1,0.133 -0.167,0.267 -0.2,0.4 L -8.6,-8.2 Z m -2.85,3.1 c 0.3,-0.333 0.717,-0.95 1.25,-1.85 -0.167,0.133 -0.283,0.267 -0.35,0.4 -0.033,0.033 -0.05,0.066 -0.05,0.1 l -0.45,0.65 c -0.167,0.233 -0.3,0.467 -0.4,0.7 z"
   fill="#9b885c"
   id="path62555" />
			<path
   d="m -8.45,-8 c 0.4,0.5 1.1,0.767 2.1,0.8 0.067,-0.1 0.25,-0.15 0.55,-0.15 0.133,0.033 0.3,0.067 0.5,0.1 0.7,0.167 1.117,0.233 1.25,0.2 l -0.5,-0.35 c 0.2,-0.133 0.566,-0.217 1.1,-0.25 0.4,-0.033 0.917,-0.033 1.55,0 1.3,-0.133 2.25,-0.367 2.85,-0.7 l 1.5,-0.9 -0.2,-0.1 C -1.65,-10.183 -5.067,-9.8 -8,-8.2 l -0.15,0.05 c -0.133,0 -0.233,0.05 -0.3,0.15 z"
   fill="#e8e1e1"
   id="path62557" />
			<path
   d="m 3.5,-9.85 0.75,-0.45 c -1.5,-0.534 -3.067,-0.8 -4.7,-0.8 -0.867,0.033 -1.733,0.133 -2.6,0.3 l -0.35,0.05 c -0.833,0.1 -1.5,0.25 -2,0.45 -0.533,0.2 -0.934,0.383 -1.2,0.55 -0.367,0.433 -0.65,0.633 -0.85,0.6 0.034,-0.1 -0.017,-0.233 -0.15,-0.4 -0.566,0.4 -0.95,0.767 -1.15,1.1 l 0.15,0.25 c 0,0.034 0.017,0.05 0.05,0.05 v 0.05 l 0.1,0.15 V -8 c 0.067,-0.1 0.167,-0.15 0.3,-0.15 L -8,-8.2 c 2.933,-1.6 6.35,-1.983 10.25,-1.15 l 0.2,0.1 v 0.05 z"
   fill="#ccc6c6"
   id="path62559" />
		</g>
</symbol>
<symbol
   id="q"
   viewBox="-6.1 -5.7 14.25 13.429">
		<g
   clip-rule="evenodd"
   fill-rule="evenodd"
   id="g62572">
			<path
   d="M 3.75,-5.55 C 3.681,-5.587 3.631,-5.638 3.6,-5.7 c -1.733,2.633 -2.95,4.4 -3.65,5.3 -0.5,0.6 -0.967,1.15 -1.4,1.65 h 0.775 C -0.581,1.247 -0.472,1.23 -0.35,1.2 -0.617,1.1 -0.817,1.016 -0.95,0.95 c 0.167,-0.1 0.434,-0.1 0.8,0 0.233,0 0.467,0.117 0.7,0.35 C 0.417,0.933 0.2,0.667 -0.1,0.5 0,0.5 0.217,0.533 0.55,0.6 0.85,0.6 1.033,0.533 1.1,0.4 L 0.4,0.25 C 0.467,0.217 0.667,0.2 1,0.2 1.3,0.2 1.483,0.1 1.55,-0.1 1.017,-0.033 0.633,-0.05 0.4,-0.15 c 0.133,-0.067 0.4,-0.133 0.8,-0.2 0.333,-0.1 0.517,-0.267 0.55,-0.5 -0.133,-0.033 -0.35,0 -0.65,0.1 -0.3,0.1 -0.533,0.15 -0.7,0.15 0.167,-0.066 0.383,-0.133 0.65,-0.2 0.233,-0.1 0.4,-0.25 0.5,-0.45 L 1.25,-1.2 C 1.383,-1.3 1.533,-1.517 1.7,-1.85 L 1.9,-2.1 C 2.5,-1.667 3.1,-0.967 3.7,0 4.3,1.033 4.733,2.267 5,3.7 5.067,4.033 5.117,4.367 5.15,4.7 4.617,4.833 3.383,4.717 1.45,4.35 0.25,4.117 -0.817,3.65 -1.75,2.95 l -0.8,-0.7 C -3.183,2.817 -3.8,3.283 -4.4,3.65 L -6.1,4.4 -4.55,5.3 C -3.25,6 -1.9,6.567 -0.5,7 0.6,7.3 1.767,7.483 3,7.55 H 3.2 C 4.333,7.717 5.117,7.767 5.55,7.7 5.517,7.667 5.3,7.6 4.9,7.5 H 6.2 C 6.6,7.5 6.883,7.467 7.05,7.4 6.817,7.433 6.65,7.417 6.55,7.35 7.017,7.283 7.4,7.283 7.7,7.35 7.3,6.717 7.05,6.217 6.95,5.85 6.85,5.483 6.733,4.833 6.6,3.9 6.5,3.1 6.383,2.467 6.25,2 6.15,1.667 5.583,0.417 4.55,-1.75 3.883,-3.183 3.567,-4.483 3.6,-5.65 c 0.031,0.031 0.081,0.065 0.15,0.1 z M -1.5,1.3 c -0.067,0.067 -0.133,0.117 -0.2,0.15 h 0.35 z"
   fill="#cfb784"
   id="path62564" />
			<path
   d="M 3.75,-5.55 C 3.681,-5.585 3.631,-5.619 3.6,-5.65 3.567,-4.483 3.883,-3.183 4.55,-1.75 5.583,0.417 6.15,1.667 6.25,2 6.383,2.467 6.5,3.1 6.6,3.9 6.733,4.834 6.85,5.483 6.95,5.85 7.05,6.217 7.3,6.717 7.7,7.35 V 7.4 C 7.833,7.467 7.933,7.5 8,7.5 7.933,7.4 7.783,7.2 7.55,6.9 L 7.3,6.5 V 6.4 C 7.334,6.4 7.617,6.517 8.15,6.75 7.883,6.483 7.683,6 7.55,5.3 L 7.5,3.5 C 7.733,3.867 7.883,4.15 7.95,4.35 7.983,3.983 7.9,3.467 7.7,2.8 7.567,2.133 7.4,1.567 7.2,1.1 6.667,-0.133 6.283,-0.95 6.05,-1.35 5.317,-2.917 4.55,-4.3 3.75,-5.5 Z"
   fill="#9b885c"
   id="path62566" />
			<path
   d="M -1.45,1.25 H -1.6 l 0.1,0.05 0.15,0.15 H -1.7 L -2.05,1.5 C -2.383,1.833 -2.65,2 -2.85,2 l 0.3,0.25 0.8,0.7 c 0.933,0.7 2,1.167 3.2,1.4 C 3.383,4.717 4.617,4.833 5.15,4.7 5.117,4.367 5.067,4.033 5,3.7 4.267,3.767 3.567,3.717 2.9,3.55 1.9,3.283 0.767,2.517 -0.5,1.25 Z"
   fill="#907967"
   id="path62568" />
			<path
   d="M -0.675,1.25 H -0.5 C 0.767,2.517 1.9,3.283 2.9,3.55 3.567,3.717 4.267,3.767 5,3.7 4.733,2.267 4.3,1.033 3.7,0 3.1,-0.967 2.5,-1.667 1.9,-2.1 L 1.7,-1.85 C 1.533,-1.517 1.383,-1.3 1.25,-1.2 l 0.3,-0.05 c -0.1,0.2 -0.267,0.35 -0.5,0.45 -0.267,0.067 -0.483,0.133 -0.65,0.2 0.167,0 0.4,-0.05 0.7,-0.15 0.3,-0.1 0.517,-0.133 0.65,-0.1 -0.033,0.233 -0.217,0.4 -0.55,0.5 -0.4,0.067 -0.667,0.133 -0.8,0.2 0.233,0.1 0.617,0.117 1.15,0.05 C 1.483,0.1 1.3,0.2 1,0.2 0.667,0.2 0.467,0.217 0.4,0.25 L 1.1,0.4 C 1.033,0.533 0.85,0.6 0.55,0.6 0.217,0.533 0,0.5 -0.1,0.5 0.2,0.667 0.417,0.933 0.55,1.3 0.317,1.067 0.084,0.95 -0.15,0.95 c -0.367,-0.1 -0.633,-0.1 -0.8,0 0.133,0.066 0.333,0.15 0.6,0.25 -0.122,0.03 -0.231,0.047 -0.325,0.05 z"
   fill="#ad927b"
   id="path62570" />
		</g>
</symbol>
<symbol
   id="r"
   viewBox="-5 -4.45 9.95 12.95">
		<g
   clip-rule="evenodd"
   fill-rule="evenodd"
   id="g62583">
			<path
   d="m -4.55,-1.9 c -0.067,0.4 -0.133,0.8 -0.2,1.2 0.467,0.167 0.883,0.367 1.25,0.6 0.233,-0.667 0.517,-1.033 0.85,-1.1 L 0.4,1.5 C 0.333,1.633 0.267,1.75 0.2,1.85 l 0.2,0.2 C 0.133,2.45 -0.1,2.8 -0.3,3.1 0.4,4.1 0.633,4.95 0.4,5.65 -0.033,6.917 -0.967,7.833 -2.4,8.4 l 0.75,-0.15 c 0.133,-0.033 0.283,-0.067 0.45,-0.1 0.067,0 0.15,-0.017 0.25,-0.05 L -0.4,7.9 C -0.067,7.767 0.267,7.617 0.6,7.45 1,7.217 1.4,6.95 1.8,6.65 3.067,5.65 4.117,4.55 4.95,3.35 4.683,3.383 4.283,3.3 3.75,3.1 2.683,2.666 1.517,1.767 0.25,0.4 L -3.9,-4.45 c -0.1,0.267 -0.183,0.533 -0.25,0.8 z m 1.2,1.9 v -0.05 h -0.1 C -3.417,-0.017 -3.383,0 -3.35,0 Z"
   fill="#9b885c"
   id="path62575" />
			<path
   d="M -2.4,8.4 C -0.967,7.834 -0.033,6.917 0.4,5.65 0.633,4.95 0.4,4.1 -0.3,3.1 -0.933,4 -1.484,4.666 -1.95,5.1 L -2.9,5.95 -3.45,4.25 C -3.75,3.183 -3.867,2.3 -3.8,1.6 V 1 l 0.1,0.1 C -3.6,0.667 -3.483,0.3 -3.35,0 -3.383,0 -3.416,-0.017 -3.45,-0.05 h -0.1 L -3.5,-0.1 c -0.367,-0.233 -0.783,-0.433 -1.25,-0.6 0.067,-0.4 0.133,-0.8 0.2,-1.2 -0.267,1.3 -0.417,2.617 -0.45,3.95 0,1.2 0.333,2.633 1,4.3 l 0.95,2.15 z m 0.75,-0.15 h 0.2 c 0.067,-0.033 0.15,-0.067 0.25,-0.1 -0.167,0.033 -0.317,0.067 -0.45,0.1 z"
   fill="#b9a376"
   id="path62577" />
			<path
   d="m -3.5,-0.1 -0.05,0.05 h 0.2 L -3.25,0 c 0.667,0.5 1.3,0.733 1.9,0.7 0.133,0 0.233,0.017 0.3,0.05 l 0.1,0.1 c 0.067,0.1 0.1,0.217 0.1,0.35 0,0.333 -0.167,0.517 -0.5,0.55 H -1.9 c 0.5,0.633 0.617,1.167 0.35,1.6 C -1.717,3.65 -2,3.8 -2.4,3.8 -2.767,3.767 -3.067,3.633 -3.3,3.4 -3.567,3.067 -3.734,2.467 -3.8,1.6 c 0.033,0.633 0.167,1.383 0.4,2.25 L -2.9,5.4 -1.95,4.55 C -1.383,3.984 -0.666,3.084 0.2,1.85 0.266,1.75 0.333,1.633 0.4,1.5 l -3.05,-2.7 c -0.333,0.067 -0.617,0.433 -0.85,1.1 z M -3.8,1.5 -3.7,1.2 V 1.1 L -3.8,1 Z"
   fill="#7f6b5b"
   id="path62579" />
			<path
   d="M -3.35,0 C -3.483,0.3 -3.6,0.667 -3.7,1.1 v 0.1 l -0.1,0.3 v 0.1 c -0.067,0.7 0.05,1.583 0.35,2.65 L -2.9,5.95 -1.95,5.1 C -1.483,4.666 -0.933,4 -0.3,3.1 -0.1,2.8 0.133,2.45 0.4,2.05 L 0.2,1.85 c -0.867,1.233 -1.583,2.133 -2.15,2.7 L -2.9,5.4 -3.4,3.85 C -3.633,2.983 -3.767,2.233 -3.8,1.6 c 0.066,0.867 0.233,1.467 0.5,1.8 0.233,0.233 0.533,0.367 0.9,0.4 0.4,0 0.683,-0.15 0.85,-0.45 0.267,-0.434 0.15,-0.967 -0.35,-1.6 h 0.55 c 0.333,-0.033 0.5,-0.217 0.5,-0.55 0,-0.133 -0.033,-0.25 -0.1,-0.35 l -0.1,-0.1 C -1.117,0.717 -1.217,0.7 -1.35,0.7 -1.95,0.733 -2.583,0.5 -3.25,0 l -0.1,-0.05 z"
   fill="#957d6a"
   id="path62581" />
		</g>
</symbol>
<symbol
   id="s"
   viewBox="-4.234 -3.836 8.438 7.621">
		<g
   clip-rule="evenodd"
   fill-rule="evenodd"
   id="g62598">
			<path
   d="m -3.2,2.3 c 0.667,0.833 1.517,1.317 2.55,1.45 C 0.384,3.883 1.317,3.633 2.15,3 2.95,2.333 3.417,1.483 3.55,0.45 3.683,-0.584 3.433,-1.517 2.8,-2.35 2.134,-3.184 1.284,-3.667 0.25,-3.8 c -1.033,-0.134 -1.95,0.116 -2.75,0.75 -0.833,0.667 -1.316,1.517 -1.45,2.55 -0.133,1.066 0.117,2 0.75,2.8 z"
   fill="#554c3f"
   id="path62586" />
			<path
   d="M 1.7,0.5 2.5,0.45 C 3.066,0.483 3.45,0.583 3.65,0.75 3.984,0.983 4.167,1.267 4.2,1.6 4.234,0.867 3.984,0.383 3.45,0.15 3.15,0.017 2.767,0.033 2.3,0.2 Z"
   fill="#554c3f"
   id="path62588" />
				<path
   d="M -3.45,2 C -2.816,2.767 -2,3.217 -1,3.35 0,3.483 0.9,3.233 1.7,2.6 2.467,2 2.917,1.217 3.05,0.25 3.183,-0.75 2.933,-1.65 2.3,-2.45 1.7,-3.217 0.9,-3.667 -0.1,-3.8 c -1,-0.134 -1.9,0.1 -2.7,0.7 -0.8,0.633 -1.267,1.434 -1.4,2.4 -0.133,1 0.117,1.9 0.75,2.7 z"
   fill="#fcf5f5"
   id="path62590" />
				<path
   d="m -2.75,-0.7 c -0.034,0.7 0.2,1.317 0.7,1.85 0.467,0.5 1.067,0.767 1.8,0.8 0.733,0.033 1.367,-0.2 1.9,-0.7 C 2.184,0.783 2.467,0.2 2.5,-0.5 2.533,-1.2 2.3,-1.816 1.8,-2.35 c -0.5,-0.5 -1.117,-0.767 -1.85,-0.8 -0.733,-0.034 -1.35,0.2 -1.85,0.7 -0.533,0.467 -0.816,1.05 -0.85,1.75 z"
   fill="#282727"
   id="path62592" />
				<path
   d="M 0.45,1.95 C 0.851,1.983 1.2,1.867 1.5,1.6 1.767,1.333 1.917,1 1.95,0.6 1.984,0.2 1.867,-0.15 1.6,-0.45 c -0.3,-0.3 -0.634,-0.466 -1,-0.5 -0.4,0 -0.75,0.134 -1.05,0.4 -0.267,0.267 -0.417,0.6 -0.45,1 -0.033,0.4 0.084,0.75 0.35,1.05 0.266,0.3 0.6,0.45 1,0.45 z"
   fill="#fcf5f5"
   id="path62594" />
				<path
   d="M 0.95,-2.25 C 0.384,-2.816 -0.3,-2.9 -1.1,-2.5 c -0.566,0.267 -0.934,0.667 -1.1,1.2 l -0.05,0.7 0.3,-0.5 c 0.267,-0.4 0.667,-0.716 1.2,-0.95 0.634,-0.266 1.2,-0.333 1.7,-0.2 z"
   fill="#825e5a"
   id="path62596" />
		</g>
</symbol>
<symbol
   id="t"
   viewBox="-1.8 -3.16 3.605 6.263">
		<g
   clip-rule="evenodd"
   fill-rule="evenodd"
   id="g62613">
			<path
   d="m -1,2.1 c 0.333,0.6 0.733,0.934 1.2,1 C 0.667,3.134 1.067,2.867 1.4,2.3 1.7,1.733 1.834,1.016 1.8,0.15 c 0,-0.833 -0.167,-1.567 -0.5,-2.2 -0.367,-0.633 -0.783,-0.967 -1.25,-1 -0.466,-0.033 -0.85,0.234 -1.15,0.8 -0.333,0.6 -0.483,1.317 -0.45,2.15 0.034,0.833 0.217,1.567 0.55,2.2 z"
   fill="#554c3f"
   id="path62601" />
			<path
   d="M -1.6,1.35 C -1.8,1.617 -1.85,1.967 -1.75,2.4 l 0.25,0.55 -0.05,-0.3 c -0.033,-0.233 0,-0.467 0.1,-0.7 0.133,-0.4 0.667,-0.783 1.6,-1.15 -0.799,-0.067 -1.383,0.117 -1.75,0.55 z"
   fill="#554c3f"
   id="path62603" />
				<path
   d="M -1,1.7 C -0.667,2.3 -0.284,2.617 0.15,2.65 0.617,2.684 1,2.434 1.3,1.9 1.6,1.366 1.75,0.683 1.75,-0.15 1.716,-0.95 1.533,-1.65 1.2,-2.25 0.867,-2.816 0.484,-3.116 0.05,-3.15 c -0.433,-0.066 -0.816,0.184 -1.15,0.75 -0.3,0.534 -0.45,1.2 -0.45,2 0.034,0.8 0.217,1.5 0.55,2.1 z"
   fill="#fcf5f5"
   id="path62605" />
				<path
   d="M -0.45,0.95 C -0.15,1.317 0.167,1.483 0.5,1.45 0.867,1.384 1.133,1.15 1.3,0.75 1.5,0.35 1.567,-0.116 1.5,-0.65 1.467,-1.183 1.3,-1.633 1,-2 0.7,-2.366 0.384,-2.517 0.05,-2.45 c -0.333,0.033 -0.6,0.25 -0.8,0.65 -0.2,0.4 -0.283,0.883 -0.25,1.45 0.067,0.534 0.25,0.967 0.55,1.3 z"
   fill="#282727"
   id="path62607" />
				<path
   d="m -0.149,0.6 c 0.033,0.233 0.133,0.434 0.3,0.6 C 0.318,1.366 0.5,1.434 0.7,1.4 1.234,1.333 1.467,1 1.4,0.4 1.367,0.167 1.267,-0.034 1.1,-0.2 0.934,-0.333 0.734,-0.383 0.5,-0.35 0,-0.283 -0.216,0.034 -0.149,0.6 Z"
   fill="#fcf5f5"
   id="path62609" />
				<path
   d="m 0.601,-1.95 c -0.333,-0.367 -0.667,-0.367 -1,0 -0.233,0.233 -0.367,0.566 -0.4,1 l 0.05,0.55 0.05,-0.45 c 0.1,-0.333 0.267,-0.6 0.5,-0.8 0.266,-0.267 0.533,-0.367 0.8,-0.3 z"
   fill="#825e5a"
   id="path62611" />
		</g>
</symbol>
<symbol
   id="u"
   viewBox="-3.054 -2.4 6.104 4.812">
		<g
   clip-rule="evenodd"
   fill-rule="evenodd"
   id="g62628">
			<path
   d="M -1.85,0.95 C -1.883,1.017 -1.9,1.067 -1.9,1.1 -2,1.4 -1.817,1.583 -1.35,1.65 -0.783,1.75 -0.3,1.717 0.1,1.55 0.167,1.517 0.217,1.467 0.25,1.4 0.35,1.3 0.317,1.117 0.15,0.85 -0.083,0.517 -0.467,0.383 -1,0.45 c -0.2,0.033 -0.4,0.133 -0.6,0.3 -0.1,0.067 -0.183,0.133 -0.25,0.2 z"
   fill="#a78579"
   id="path62616" />
			<path
   d="M -0.95,-1.15 V -1.2 c -0.033,0 -0.05,0.017 -0.05,0.05 -0.1,0.1 -0.2,0.267 -0.3,0.5 l -0.05,0.7 c 0.067,0.2 0,0.333 -0.2,0.4 -0.2,0.066 -0.3,0.216 -0.3,0.45 v 0.05 c 0.067,-0.067 0.15,-0.133 0.25,-0.2 0.2,-0.167 0.4,-0.267 0.6,-0.3 0.533,-0.067 0.917,0.066 1.15,0.4 0.167,0.267 0.2,0.45 0.1,0.55 0.033,0 0.067,-0.017 0.1,-0.05 L 0.4,0.85 C 0.367,0.617 0.1,0.416 -0.4,0.25 -0.867,0.117 -1.067,-0.283 -1,-0.95 l 0.05,-0.1 z"
   fill="#554c3f"
   id="path62618" />
			<path
   d="M 1.2,0.25 C 1.1,0.283 1.067,0.383 1.1,0.55 1.166,0.717 1.233,0.783 1.3,0.75 1.5,0.717 1.567,0.617 1.5,0.45 1.467,0.283 1.367,0.217 1.2,0.25 Z M 1.9,0.3 C 1.967,0.234 1.983,0.167 1.95,0.1 1.917,0 1.85,-0.05 1.75,-0.05 1.683,-0.017 1.667,0.067 1.7,0.2 1.733,0.367 1.8,0.4 1.9,0.3 Z M 0.95,-0.2 c 0.133,0 0.2,-0.066 0.2,-0.2 0,-0.1 -0.066,-0.167 -0.2,-0.2 -0.167,-0.033 -0.233,0.033 -0.2,0.2 0,0.133 0.067,0.2 0.2,0.2 z"
   fill="#a9a59d"
   id="path62620" />
			<path
   d="M -1.85,0.95 V 0.9 c 0,-0.233 0.1,-0.383 0.3,-0.45 0.2,-0.067 0.267,-0.2 0.2,-0.4 l 0.05,-0.7 c 0.1,-0.233 0.2,-0.4 0.3,-0.5 -0.4,0.066 -0.767,0.2 -1.1,0.4 -0.167,0.1 -0.3,0.2 -0.4,0.3 -0.4,0.367 -0.583,0.8 -0.55,1.3 C -2.95,1.983 -2,2.5 -0.2,2.4 0.967,2.3 1.717,2 2.05,1.5 2.084,1.433 2.117,1.35 2.15,1.25 2.183,1.183 2.2,1.083 2.2,0.95 c 0.133,-1.167 -0.534,-1.867 -2,-2.1 -0.4,-0.067 -0.784,-0.067 -1.15,0 v 0.1 L -1,-0.95 c -0.067,0.667 0.133,1.067 0.6,1.2 0.5,0.167 0.767,0.367 0.8,0.6 L 0.35,1.35 C 0.317,1.383 0.283,1.4 0.25,1.4 0.217,1.467 0.167,1.517 0.1,1.55 -0.3,1.717 -0.783,1.75 -1.35,1.65 -1.817,1.583 -2,1.4 -1.9,1.1 -1.9,1.067 -1.883,1.017 -1.85,0.95 Z M 1.2,0.25 C 1.367,0.217 1.467,0.283 1.5,0.45 1.567,0.617 1.5,0.717 1.3,0.75 1.234,0.783 1.167,0.717 1.1,0.55 1.067,0.383 1.1,0.283 1.2,0.25 Z M 1.9,0.3 C 1.8,0.4 1.733,0.367 1.7,0.2 1.667,0.067 1.683,-0.017 1.75,-0.05 1.85,-0.05 1.917,0 1.95,0.1 1.983,0.167 1.967,0.233 1.9,0.3 Z M 0.95,-0.2 c -0.133,0 -0.2,-0.066 -0.2,-0.2 -0.033,-0.167 0.033,-0.233 0.2,-0.2 0.133,0.033 0.2,0.1 0.2,0.2 0,0.133 -0.067,0.2 -0.2,0.2 z"
   fill="#ede6e6"
   id="path62622" />
			<path
   d="M 2.45,1 C 2.35,1.133 2.25,1.217 2.15,1.25 2.117,1.35 2.084,1.433 2.05,1.5 2.217,1.367 2.35,1.2 2.45,1 Z m -4.55,-1.85 -0.05,0.05 0.05,0.05 z"
   fill="#908d86"
   id="path62624" />
			<path
   d="M -2.1,-0.75 -2.15,-0.8 -2.4,-1 v 0.35 c -0.067,0.033 -0.1,0.083 -0.1,0.15 v 0.05 c 0.1,-0.1 0.233,-0.2 0.4,-0.3 0.333,-0.2 0.7,-0.333 1.1,-0.4 0,-0.033 0.017,-0.05 0.05,-0.05 v 0.05 c 0.367,-0.067 0.75,-0.067 1.15,0 1.466,0.233 2.133,0.933 2,2.1 0,0.133 -0.017,0.233 -0.05,0.3 C 2.25,1.217 2.35,1.133 2.45,1 2.483,0.967 2.516,0.933 2.55,0.9 L 2.9,0.1 3.05,-0.95 2.65,0.3 2.7,-0.55 c 0,-0.5 -0.067,-0.784 -0.2,-0.85 0,0.467 -0.05,0.767 -0.15,0.9 v -0.45 c 0,-0.3 -0.067,-0.583 -0.2,-0.85 0.033,0.367 0,0.583 -0.1,0.65 L 1.55,-1.9 C 1.484,-1.633 1.417,-1.45 1.35,-1.35 1.183,-1.55 1.067,-1.683 1,-1.75 L 0.7,-2.2 0.55,-1.7 C 0.45,-2.067 0.333,-2.3 0.2,-2.4 c -0.1,0.367 -0.233,0.567 -0.4,0.6 -0.1,-0.333 -0.167,-0.5 -0.2,-0.5 -0.067,0.333 -0.117,0.566 -0.15,0.7 l -0.4,-0.5 c 0,0.233 -0.033,0.367 -0.1,0.4 -0.1,-0.033 -0.15,-0.117 -0.15,-0.25 0,-0.2 -0.017,-0.316 -0.05,-0.35 -0.133,0.066 -0.2,0.216 -0.2,0.45 0,0.234 -0.017,0.4 -0.05,0.5 l -0.25,-0.3 c 0,0.3 -0.017,0.483 -0.05,0.55 -0.167,-0.1 -0.284,-0.25 -0.35,-0.45 -0.067,0.333 -0.05,0.567 0.05,0.7 z"
   fill="#9b885c"
   id="path62626" />
		</g>
</symbol>
<symbol
   id="v"
   viewBox="-1 -1.65 13.66 5.25">
		<g
   clip-rule="evenodd"
   fill-rule="evenodd"
   id="g62637">
			<path
   d="m 12.5,0.55 c 0.133,-0.3 0.183,-0.6 0.15,-0.9 0,-0.233 -0.083,-0.467 -0.25,-0.7 -0.066,-0.1 -0.133,-0.184 -0.2,-0.25 -0.233,-0.233 -0.55,-0.35 -0.95,-0.35 H 11.2 c -0.467,0 -0.934,0.233 -1.4,0.7 C 9.267,-0.35 8.817,0.117 8.45,0.45 7.917,0.883 6.883,1 5.35,0.8 3.917,0.633 2.8,0.317 2,-0.15 L 0.2,-1.3 -1,1.25 -0.6,1.2 c 0.333,0.033 0.767,0.133 1.3,0.3 L 2.5,2.4 C 2.467,2.367 2.45,2.333 2.45,2.3 2.35,2.1 2.35,1.95 2.45,1.85 2.55,1.717 2.817,1.65 3.25,1.65 H 4 C 3.767,1.617 3.567,1.5 3.4,1.3 3.6,1.234 3.917,1.25 4.35,1.35 H 6.1 c 0.2,-0.033 0.733,-0.2 1.6,-0.5 0.267,-0.1 0.767,-0.367 1.5,-0.8 0.633,-0.4 1.167,-0.633 1.6,-0.7 0.567,-0.1 1.034,0.033 1.4,0.4 0.1,0.1 0.183,0.283 0.25,0.55 z"
   fill="#9b885c"
   id="path62631" />
			<path
   d="M 2.5,2.4 3.85,3 V 2.95 C 3.783,2.783 3.783,2.633 3.85,2.5 3.916,2.333 4.217,2.25 4.75,2.25 L 5.8,2.2 C 5.7,2.133 5.55,2.1 5.35,2.1 5.117,2.1 4.967,2.083 4.9,2.05 L 8.45,1.85 C 8.416,1.817 8.067,1.75 7.4,1.65 l 0.75,-0.1 c 0.3,0 0.533,-0.066 0.7,-0.2 C 8.883,1.35 8.967,1.233 9.1,1 L 9.95,0.4 c -0.067,0.167 -0.067,0.333 0,0.5 L 10.5,0.4 C 10.533,0.533 10.483,0.733 10.35,1 10.583,0.7 10.833,0.467 11.1,0.3 v 0.45 c 0.2,0.067 0.467,-0.05 0.8,-0.35 0.1,0.333 0,0.817 -0.3,1.45 0.033,0 0.05,-0.017 0.05,-0.05 0.167,-0.167 0.317,-0.35 0.45,-0.55 0.167,-0.233 0.3,-0.467 0.4,-0.7 L 12.45,0.3 C 12.383,0.033 12.3,-0.15 12.2,-0.25 11.833,-0.617 11.367,-0.75 10.8,-0.65 10.367,-0.584 9.834,-0.35 9.2,0.05 8.467,0.484 7.967,0.75 7.7,0.85 6.833,1.15 6.3,1.317 6.1,1.35 H 4.35 C 3.917,1.25 3.6,1.233 3.4,1.3 3.567,1.5 3.767,1.617 4,1.65 H 3.25 c -0.433,0 -0.7,0.067 -0.8,0.2 -0.1,0.1 -0.1,0.25 0,0.45 0,0.033 0.017,0.067 0.05,0.1 z"
   fill="#c2a770"
   id="path62633" />
			<path
   d="m 3.85,2.95 c 1,0.433 1.867,0.65 2.6,0.65 2.267,0 3.983,-0.583 5.15,-1.75 C 11.9,1.217 12,0.733 11.9,0.4 11.567,0.7 11.3,0.817 11.1,0.75 V 0.3 C 10.833,0.467 10.583,0.7 10.35,1 10.483,0.733 10.533,0.533 10.5,0.4 L 9.95,0.9 C 9.883,0.733 9.883,0.567 9.95,0.4 L 9.1,1 C 8.967,1.233 8.883,1.35 8.85,1.35 8.683,1.483 8.45,1.55 8.15,1.55 L 7.4,1.65 c 0.667,0.1 1.017,0.167 1.05,0.2 L 4.9,2.05 C 4.967,2.083 5.117,2.1 5.35,2.1 5.55,2.1 5.7,2.133 5.8,2.2 L 4.75,2.25 c -0.533,0 -0.833,0.083 -0.9,0.25 -0.067,0.133 -0.067,0.283 0,0.45 z"
   fill="#cfb784"
   id="path62635" />
		</g>
</symbol>
<symbol
   viewBox="-6.26 -2.77 8.534 5.47"
   id="symbol62646">
		<g
   clip-rule="evenodd"
   fill-rule="evenodd"
   id="g62644">
			<path
   d="m 1.2,0.899 c 0.667,-0.7 0.884,-1.417 0.65,-2.15 -0.167,-0.466 -0.5,-0.767 -1,-0.9 -0.6,-0.367 -1.083,-0.566 -1.45,-0.6 -0.833,-0.066 -1.8,0.034 -2.9,0.3 -1.4,0.4 -2.117,0.966 -2.15,1.7 0,0.233 0.167,0.434 0.5,0.6 0.2,0.066 0.483,0.167 0.85,0.3 0.567,0.233 1.05,0.567 1.45,1 0.1,0.067 0.2,0.184 0.3,0.35 0.134,0.133 0.284,0.2 0.45,0.2 l 1.05,-0.05 C -0.25,1.883 0.5,1.633 1.2,0.899 Z"
   fill="#746b59"
   id="path62640" />
			<path
   d="M 1.8,1.6 C 2.334,0.733 2.417,-0.033 2.05,-0.7 1.917,-1.033 1.517,-1.317 0.85,-1.55 0.783,-1.584 -0.05,-1.667 -1.65,-1.8 -2.483,-1.9 -3.4,-1.834 -4.4,-1.6 c -1.333,0.267 -1.95,0.733 -1.85,1.4 0.034,0.2 0.217,0.366 0.55,0.5 0.2,0.066 0.5,0.167 0.9,0.3 0.634,0.3 1.15,0.6 1.55,0.9 0.134,0.1 0.55,0.316 1.25,0.649 0.7,0.333 1.15,0.517 1.35,0.55 l 0.4,-0.1 C 0.55,2.833 1.234,2.5 1.8,1.6 Z"
   fill="#b7a98b"
   id="path62642" />
		</g>
</symbol>
<symbol
   viewBox="-0.87 -2.541 3.676 4.046"
   id="symbol62654">
		<g
   clip-rule="evenodd"
   fill-rule="evenodd"
   id="g62652">
			<path
   d="M 0.85,1 C 1.284,1.033 1.833,0.35 2.5,-1.05 3.133,-2.35 2.783,-2.8 1.45,-2.4 1.017,-2.266 0.6,-2.016 0.2,-1.649 c -0.466,0.4 -0.733,0.8 -0.8,1.2 -0.133,0.6 -0.1,1.067 0.1,1.4 0.2,0.4 0.6,0.583 1.2,0.55 z"
   fill="#746b59"
   id="path62648" />
			<path
   d="m 0.8,1.05 c 0.434,0.067 0.917,-0.5 1.45,-1.7 0.5,-1.1 0.1,-1.483 -1.2,-1.15 -0.4,0.1 -0.8,0.317 -1.2,0.65 -0.433,0.333 -0.667,0.667 -0.7,1 -0.067,0.5 0.033,0.9 0.3,1.2 0.266,0.334 0.683,0.484 1.25,0.45 z"
   fill="#b7a98b"
   id="path62650" />
		</g>
</symbol>
<symbol
   viewBox="-15.75 -14.3 31.456 28.55"
   id="symbol62674">
		<g
   clip-rule="evenodd"
   fill-rule="evenodd"
   id="g62672">
			<path
   d="M 3.1,14 C 2.433,13.6 1.983,13.283 1.75,13.05 c -0.4,-0.367 -0.733,-0.7 -1,-1 L 0.5,11.7 4.4,13.45 H 5 c 0.967,0 1.517,-0.034 1.65,-0.1 -0.1,-0.133 -0.316,-0.233 -0.65,-0.3 2.733,-0.8 4.85,-2.333 6.35,-4.6 0.733,-1.067 1.483,-2.767 2.25,-5.1 -0.4,1 -0.783,1 -1.15,0 C 13.217,2.75 13.033,1.916 12.9,0.85 L 10.6,0.2 c 0.167,0 0.5,0.017 1,0.05 0.433,0.067 0.783,0.083 1.05,0.05 -0.2,-0.466 -0.55,-0.867 -1.05,-1.2 L 10.7,-1.25 C 10.2,-1.417 9.933,-1.567 9.9,-1.7 10,-1.733 10.117,-1.766 10.25,-1.8 l -0.5,-0.15 1.6,-0.2 h 0.1 c -0.233,-0.2 -0.434,-0.333 -0.6,-0.4 -0.667,-0.034 -1.1,-0.1 -1.3,-0.2 0.267,-0.067 0.633,-0.1 1.1,-0.1 0.233,0 0.583,0.017 1.05,0.05 C 11.467,-3.133 11.033,-3.533 10.4,-4 9.967,-4.333 9.483,-4.55 8.95,-4.65 8.683,-4.65 8.5,-4.683 8.4,-4.75 8.467,-4.783 8.783,-4.833 9.35,-4.9 9.717,-4.933 10,-5.017 10.2,-5.15 10.067,-5.383 9.617,-5.467 8.85,-5.4 8.05,-5.334 7.55,-5.3 7.35,-5.3 7.416,-5.5 7.583,-5.683 7.85,-5.85 8.15,-6.05 8.333,-6.2 8.4,-6.3 7.4,-6.167 6.683,-6.2 6.25,-6.4 6.35,-6.567 6.6,-6.733 7,-6.9 7.4,-7.067 7.65,-7.233 7.75,-7.4 7.517,-7.467 7.117,-7.467 6.55,-7.4 6.017,-7.334 5.617,-7.35 5.35,-7.45 5.883,-8.083 6.083,-8.533 5.95,-8.8 5.717,-8.833 5.4,-8.733 5,-8.5 4.567,-8.233 4.25,-8.117 4.05,-8.15 4.084,-8.35 4.167,-8.65 4.3,-9.05 4.067,-9.25 3.633,-9.083 3,-8.55 2.4,-7.917 2.017,-7.533 1.85,-7.4 1.75,-7.5 1.717,-7.683 1.75,-7.95 V -8.5 c -0.3,0.067 -0.633,0.3 -1,0.7 -0.4,0.466 -0.7,0.8 -0.9,1 v -1.35 c -0.5,0.6 -0.9,1 -1.2,1.2 -0.033,-0.067 -0.05,-0.15 -0.05,-0.25 -0.133,0.1 -0.317,0.2 -0.55,0.3 -0.067,0.067 -0.117,0.133 -0.15,0.2 v -0.15 c -0.167,0.067 -0.333,0.117 -0.5,0.15 l -0.85,0.3 c 0.4,-0.067 0.667,-0.033 0.8,0.1 -0.267,0.2 -0.7,0.267 -1.3,0.2 -0.667,-0.1 -1.1,-0.1 -1.3,0 0.133,0.067 0.3,0.133 0.5,0.2 -0.1,0.2 -0.417,0.283 -0.95,0.25 -0.467,-0.033 -0.85,-0.117 -1.15,-0.25 0.2,0.2 0.3,0.4 0.3,0.6 -0.533,0.033 -1.05,-0.15 -1.55,-0.55 l 0.1,0.3 C -8.667,-5.717 -9.117,-5.8 -9.35,-5.8 l -1.95,0.15 c -0.034,-0.1 0.033,-0.233 0.2,-0.4 -0.833,-0.1 -1.316,-0.167 -1.45,-0.2 -0.133,-0.067 -0.233,-0.133 -0.3,-0.2 -0.167,-0.1 -0.233,-0.183 -0.2,-0.25 0.066,-0.1 0.3,-0.066 0.7,0.1 0,-0.167 -0.133,-0.35 -0.4,-0.55 l -0.1,-0.15 v 0.05 L -13.1,-7.6 c 0.267,-0.467 0.55,-0.9 0.85,-1.3 -0.7,0.9 -1.267,1.933 -1.7,3.1 -0.333,0.033 -0.6,0.233 -0.8,0.6 -0.233,0.4 -0.317,0.817 -0.25,1.25 l -0.2,-0.3 c 0.2,0.433 0.217,1.167 0.05,2.2 -0.233,-0.167 -0.434,-0.25 -0.6,-0.25 0.333,0.4 0.6,0.95 0.8,1.65 0.034,0.133 0.167,0.733 0.4,1.8 -0.2,-0.333 -0.467,-0.6 -0.8,-0.8 -0.066,0.3 0.067,0.783 0.4,1.45 0.333,0.633 0.45,1.117 0.35,1.45 l -1.05,-0.5 c 0,0.467 0.316,0.883 0.95,1.25 0.833,0.5 1.284,0.8 1.35,0.9 l 0.1,0.25 c -0.567,-0.167 -1.133,-0.167 -1.7,0 0.1,0.233 0.383,0.434 0.85,0.6 0.5,0.2 0.817,0.4 0.95,0.6 -0.333,0.167 -0.567,0.316 -0.7,0.45 h 0.75 c 0.333,0 0.583,0.034 0.75,0.1 1.133,1.833 2.483,3.3 4.05,4.4 l 0.5,1.1 0.05,-0.55 c 0.233,0.167 0.567,0.45 1,0.85 0.2,0.167 0.383,0.3 0.55,0.4 l -0.15,-1.3 v -0.35 l 0.6,1 c 0.533,0.733 1.15,1.233 1.85,1.5 -0.2,-0.1 -0.45,-0.333 -0.75,-0.7 0.467,0.433 1.417,0.733 2.85,0.9 -1.1,-0.6 -1.784,-1.217 -2.05,-1.85 -0.3,-0.633 -0.517,-1.15 -0.65,-1.55 -0.067,-0.233 -0.1,-0.383 -0.1,-0.45 l 1.65,1.65 c 1.3,1.133 2.517,1.883 3.65,2.25 C 0.666,14.133 0.433,13.983 0,13.75 h 0.3 c 0.867,0.2 1.8,0.283 2.8,0.25 z m -5,-21 c 0.2,-0.067 0.367,-0.133 0.5,-0.2 v -0.15 c -0.133,0.1 -0.267,0.184 -0.4,0.25 z m -0.2,0.05 V -7 l -0.05,0.05 z m 14.3,-3.9 c -1.662,-1.63 -4.562,-2.697 -8.7,-3.2 l 1.2,0.2 -0.025,0.025 c 0.905,0.189 1.813,0.414 2.725,0.675 2.233,0.633 3.833,1.4 4.8,2.3 z"
   fill="#b7a98b"
   id="path62656" />
			<path
   d="M 0.7,14.2 C -0.433,13.833 -1.65,13.083 -2.95,11.95 L -4.6,10.3 c 0,0.067 0.033,0.217 0.1,0.45 0.133,0.4 0.35,0.917 0.65,1.55 0.267,0.633 0.95,1.25 2.05,1.85 v 0.05 h 0.45 l 0.1,0.05 C -1.417,14.05 -1.667,13.867 -2,13.7 c 0.7,0.267 1.6,0.433 2.7,0.5 z m -6.9,-1.1 v 0.05 c 0.2,0.1 0.383,0.15 0.55,0.15 C -5.683,13.1 -5.8,12.883 -6,12.65 h 0.1 c 0.7,0.9 1.367,1.333 2,1.3 -0.7,-0.267 -1.317,-0.767 -1.85,-1.5 l -0.6,-1 V 11.8 Z M 13.25,-0.45 C 13.617,-0.183 14,0.133 14.4,0.5 l -0.05,-0.6 c 0.2,-0.066 0.316,-0.183 0.35,-0.35 0.066,-0.167 0.033,-0.316 -0.1,-0.45 L 14.5,-1 v -0.85 l 0.25,0.05 c -0.1,-0.034 -0.217,-0.067 -0.35,-0.1 -0.867,-0.233 -1.85,-0.317 -2.95,-0.25 h -0.1 l -1.6,0.2 0.5,0.15 1.65,0.6 c 0.4,0.167 0.85,0.417 1.35,0.75 z M 3.1,14 3.5,13.95 H 3.85 C 3.783,13.817 3.666,13.733 3.5,13.7 3.333,13.666 3.2,13.633 3.1,13.6 L 4.2,13.45 H 4.4 L 0.5,11.7 0.75,12.05 c 0.267,0.3 0.6,0.633 1,1 C 1.983,13.283 2.433,13.6 3.1,14 Z M 13.95,-8.45 c -0.434,0.034 -0.867,0.117 -1.3,0.25 -0.433,0.167 -0.867,0.383 -1.3,0.65 l -0.95,0.75 0.55,-0.05 c 0.433,0 1.017,0.033 1.75,0.1 l -0.8,-1.1 c 0.7,-0.333 1.383,-0.533 2.05,-0.6 z"
   fill="#665d4e"
   id="path62658" />
			<path
   d="M 14.4,0.5 C 14,0.133 13.617,-0.183 13.25,-0.45 12.95,0.017 12.817,0.433 12.85,0.8 l 0.05,0.05 c 0.133,1.066 0.317,1.9 0.55,2.5 0.367,1 0.75,1 1.15,0 0.033,-0.067 0.066,-0.133 0.1,-0.2 L 15,2.2 C 15.1,1.933 15.183,1.666 15.25,1.4 L 14.4,0.55 Z m -0.05,-8.15 c 0.233,0.533 0.467,1.117 0.7,1.75 -0.367,-0.267 -0.75,-0.483 -1.15,-0.65 0.167,0.433 0.333,0.917 0.5,1.45 -0.233,-0.367 -0.6,-0.55 -1.1,-0.55 -0.033,0.1 0.017,0.267 0.15,0.5 0.1,0.133 0.216,0.316 0.35,0.55 0.067,0.133 0.217,0.65 0.45,1.55 0.1,0.4 0.15,0.783 0.15,1.15 0.133,0.033 0.25,0.066 0.35,0.1 l 0.9,0.35 c 0,0.4 -0.017,0.8 -0.05,1.2 0.2,-1.567 0.117,-3.133 -0.25,-4.7 -0.233,-0.933 -0.567,-1.833 -1,-2.7 z m -2.15,-3.2 c -0.967,-0.9 -2.567,-1.667 -4.8,-2.3 -0.912,-0.261 -1.82,-0.486 -2.725,-0.675 L 4.3,-13.7 c -0.667,0.1 -1.15,0.25 -1.45,0.45 0.094,0.07 0.26,0.104 0.5,0.1 0.057,0.005 0.115,0.005 0.175,0 H 3.6 c 0.034,0.002 0.067,0.002 0.1,0 -0.6,0.1 -0.983,0.25 -1.15,0.45 0.071,0.095 0.229,0.136 0.475,0.125 H 3.15 c 0.078,-0.004 0.161,-0.012 0.25,-0.025 -0.367,0.067 -0.6,0.117 -0.7,0.15 H 2.6 c -0.068,0.002 -0.118,0.019 -0.15,0.05 -0.133,0.066 -0.233,0.117 -0.3,0.15 l 0.2,-0.05 c 1.167,-0.233 2.167,-0.317 3,-0.25 -0.067,0.066 -0.3,0.183 -0.7,0.35 H 6.1 c 0.4,0.034 1.1,0.2 2.1,0.5 0.333,0.1 0.917,0.267 1.75,0.5 0.7,0.233 1.183,0.517 1.45,0.85 -0.1,0.033 -0.433,0.033 -1,0 -0.4,0 -0.683,0.05 -0.85,0.15 0.2,0.133 0.567,0.333 1.1,0.6 0.467,0.233 0.817,0.434 1.05,0.6 0.233,0.167 0.55,0.433 0.95,0.8 0.434,-0.133 0.867,-0.216 1.3,-0.25 -0.4,-0.667 -0.85,-1.316 -1.35,-1.95 -0.067,-0.1 -0.133,-0.184 -0.2,-0.25 z"
   fill="#746b59"
   id="path62660" />
			<path
   d="m -1.95,-6.9 c -0.067,0.033 -0.117,0.05 -0.15,0.05 v 0.15 c 0.033,-0.067 0.083,-0.133 0.15,-0.2 z m 0.55,-0.45 v 0.15 c 0,0.1 0.017,0.184 0.05,0.25 0.3,-0.2 0.7,-0.6 1.2,-1.2 v 1.35 c 0.2,-0.2 0.5,-0.534 0.9,-1 0.367,-0.4 0.7,-0.633 1,-0.7 v 0.55 c -0.033,0.267 0,0.45 0.1,0.55 0.167,-0.133 0.55,-0.517 1.15,-1.15 0.633,-0.534 1.067,-0.7 1.3,-0.5 -0.133,0.4 -0.216,0.7 -0.25,0.9 0.2,0.033 0.517,-0.083 0.95,-0.35 0.4,-0.233 0.717,-0.333 0.95,-0.3 0.133,0.267 -0.067,0.716 -0.6,1.35 0.267,0.1 0.667,0.117 1.2,0.05 0.567,-0.067 0.967,-0.067 1.2,0 -0.1,0.167 -0.35,0.333 -0.75,0.5 -0.4,0.167 -0.65,0.333 -0.75,0.5 0.433,0.2 1.15,0.233 2.15,0.1 -0.067,0.1 -0.25,0.25 -0.55,0.45 -0.267,0.167 -0.433,0.35 -0.5,0.55 0.2,0 0.7,-0.034 1.5,-0.1 0.767,-0.067 1.217,0.017 1.35,0.25 -0.2,0.133 -0.483,0.217 -0.85,0.25 -0.567,0.067 -0.883,0.117 -0.95,0.15 0.1,0.067 0.283,0.1 0.55,0.1 0.533,0.1 1.017,0.317 1.45,0.65 0.633,0.467 1.067,0.867 1.3,1.2 -0.467,-0.034 -0.817,-0.05 -1.05,-0.05 -0.467,0 -0.833,0.033 -1.1,0.1 0.2,0.1 0.633,0.167 1.3,0.2 0.167,0.066 0.367,0.2 0.6,0.4 1.1,-0.067 2.083,0.017 2.95,0.25 0,-0.367 -0.05,-0.75 -0.15,-1.15 -0.233,-0.9 -0.383,-1.417 -0.45,-1.55 -0.133,-0.233 -0.25,-0.417 -0.35,-0.55 -0.133,-0.233 -0.184,-0.4 -0.15,-0.5 0.5,0 0.867,0.183 1.1,0.55 -0.167,-0.533 -0.333,-1.017 -0.5,-1.45 -0.267,-0.067 -0.517,-0.117 -0.75,-0.15 H 12.7 v -0.05 c -0.733,-0.067 -1.317,-0.1 -1.75,-0.1 l -0.55,0.05 0.95,-0.75 c 0.433,-0.267 0.867,-0.483 1.3,-0.65 -0.4,-0.367 -0.717,-0.633 -0.95,-0.8 -0.233,-0.167 -0.583,-0.367 -1.05,-0.6 -0.533,-0.267 -0.9,-0.467 -1.1,-0.6 0.167,-0.1 0.45,-0.15 0.85,-0.15 0.567,0.033 0.9,0.033 1,0 -0.267,-0.333 -0.75,-0.617 -1.45,-0.85 -0.833,-0.233 -1.417,-0.4 -1.75,-0.5 -1,-0.3 -1.7,-0.466 -2.1,-0.5 H 4.65 c 0.4,-0.167 0.633,-0.283 0.7,-0.35 -0.833,-0.067 -1.833,0.017 -3,0.25 l -0.2,0.05 c -0.167,0.1 -0.267,0.167 -0.3,0.2 0.1,0.167 0.017,0.4 -0.25,0.7 -0.3,0.367 -0.45,0.583 -0.45,0.65 0.167,0 0.367,-0.066 0.6,-0.2 0.033,0.233 -0.1,0.5 -0.4,0.8 -0.1,0.1 -0.2,0.184 -0.3,0.25 -0.033,0.033 -0.066,0.067 -0.1,0.1 L 0.7,-9.5 c 0.133,-0.1 0.316,-0.117 0.55,-0.05 -0.4,0.433 -0.833,0.75 -1.3,0.95 l 0.45,0.05 c -0.633,0.4 -1.117,0.716 -1.45,0.95 -0.1,0.1 -0.217,0.183 -0.35,0.25 z m 14.65,6.9 C 12.75,-0.783 12.3,-1.033 11.9,-1.2 l -1.65,-0.6 c -0.133,0.033 -0.25,0.067 -0.35,0.1 0.033,0.133 0.3,0.284 0.8,0.45 l 0.9,0.35 c 0.5,0.333 0.85,0.733 1.05,1.2 C 12.383,0.334 12.033,0.317 11.6,0.25 11.1,0.217 10.767,0.2 10.6,0.2 L 12.9,0.85 12.85,0.8 c -0.033,-0.367 0.1,-0.783 0.4,-1.25 z M -2.1,-7 v 0.05 C -2.033,-6.983 -1.967,-7 -1.9,-7 c 0.033,-0.033 0.066,-0.067 0.1,-0.1 -0.1,0.033 -0.2,0.067 -0.3,0.1 z"
   fill="#998d75"
   id="path62662" />
			<path
   d="m 15.25,1.4 c 0.033,-0.1 0.067,-0.2 0.1,-0.3 V 1 l 0.25,-1.25 c 0.033,-0.4 0.05,-0.8 0.05,-1.2 L 14.75,-1.8 14.5,-1.85 V -1 l 0.1,0.1 c 0.133,0.133 0.167,0.283 0.1,0.45 -0.034,0.167 -0.15,0.284 -0.35,0.35 L 14.4,0.5 V 0.55 Z M 13.9,-6.55 c 0.4,0.167 0.783,0.383 1.15,0.65 -0.233,-0.633 -0.466,-1.217 -0.7,-1.75 -0.133,-0.3 -0.267,-0.567 -0.4,-0.8 -0.667,0.067 -1.35,0.267 -2.05,0.6 l 0.8,1.1 v 0.05 h 0.45 c 0.233,0.033 0.483,0.083 0.75,0.15 z"
   fill="#544e40"
   id="path62664" />
			<path
   d="m -2.475,-12.8 c -0.046,-0.003 -0.088,-0.003 -0.125,0 l 0.4,-0.25 c -0.257,-0.029 -0.524,-0.054 -0.8,-0.075 l -2.575,0.05 c -0.207,0.027 -0.416,0.052 -0.625,0.075 h -0.1 c -0.318,0.013 -0.719,0.08 -1.2,0.2 0.032,-0.016 0.065,-0.033 0.1,-0.05 -0.066,0.017 -0.132,0.033 -0.2,0.05 -0.033,0.033 -0.066,0.05 -0.1,0.05 l -2.55,1.85 c -0.133,0.1 -0.25,0.2 -0.35,0.3 l -0.15,0.15 c -0.067,0.034 -0.133,0.083 -0.2,0.15 l -0.05,0.05 c -0.067,0.067 -0.133,0.117 -0.2,0.15 -0.033,0.033 -0.05,0.067 -0.05,0.1 l -0.95,1 -0.05,0.1 c -0.3,0.4 -0.583,0.833 -0.85,1.3 l 0.25,0.35 V -7.3 c 0.1,-0.067 0.35,-0.267 0.75,-0.6 v 0.4 c 0.467,-0.667 1.083,-1.217 1.85,-1.65 v 0.7 c 0.433,-0.8 1.133,-1.4 2.1,-1.8 0.066,0.167 0.066,0.3 0,0.4 l 0.65,-0.55 c 0,0.3 0.017,0.483 0.05,0.55 0.833,-0.833 1.35,-1.283 1.55,-1.35 0.066,0.3 0.066,0.583 0,0.85 0.333,-0.467 0.816,-0.767 1.45,-0.9 0.1,0.133 0.067,0.5 -0.1,1.1 0.5,-0.434 0.833,-0.717 1,-0.85 0.433,-0.3 0.816,-0.367 1.15,-0.2 0.066,0.167 0,0.367 -0.2,0.6 -0.167,0.233 -0.25,0.417 -0.25,0.55 l 0.7,-0.35 c 0.267,-0.133 0.483,-0.167 0.65,-0.1 l -0.75,0.9 c 1.233,-0.4 2.3,-0.45 3.2,-0.15 0.033,-0.033 0.066,-0.067 0.1,-0.1 0.1,-0.066 0.2,-0.15 0.3,-0.25 0.3,-0.3 0.433,-0.566 0.4,-0.8 -0.233,0.133 -0.433,0.2 -0.6,0.2 0,-0.066 0.15,-0.283 0.45,-0.65 0.267,-0.3 0.35,-0.533 0.25,-0.7 0.033,-0.034 0.133,-0.1 0.3,-0.2 0.067,-0.033 0.167,-0.083 0.3,-0.15 0,-0.031 0.017,-0.048 0.05,-0.05 l -0.875,0.025 c -0.266,0.016 -0.458,0.042 -0.575,0.075 v -0.025 c -0.036,0.008 -0.069,0.016 -0.1,0.025 0,-0.033 0.083,-0.217 0.25,-0.55 -0.226,-0.064 -0.493,-0.106 -0.8,-0.125 h -0.65 c -0.11,0.006 -0.227,0.015 -0.35,0.025 -0.772,0.089 -1.356,0.156 -1.75,0.2 -0.047,-0.004 -0.088,-0.004 -0.125,0 z"
   fill="#ccc6c6"
   id="path62666" />
			<path
   d="m -2.1,-6.85 c 0.033,0 0.083,-0.017 0.15,-0.05 0.233,-0.1 0.417,-0.2 0.55,-0.3 -0.133,0.067 -0.3,0.133 -0.5,0.2 -0.067,0 -0.133,0.017 -0.2,0.05 H -2.15 L -2.1,-7 c 0.1,-0.033 0.2,-0.067 0.3,-0.1 0.133,-0.066 0.267,-0.15 0.4,-0.25 0.133,-0.067 0.25,-0.15 0.35,-0.25 0.333,-0.233 0.816,-0.55 1.45,-0.95 L -0.05,-8.6 C 0.416,-8.8 0.85,-9.117 1.25,-9.55 1.017,-9.617 0.833,-9.6 0.7,-9.5 0.766,-9.567 0.85,-9.65 0.95,-9.75 0.05,-10.05 -1.017,-10 -2.25,-9.6 l 0.75,-0.9 c -0.167,-0.067 -0.383,-0.033 -0.65,0.1 l -0.7,0.35 c 0,-0.133 0.083,-0.317 0.25,-0.55 0.2,-0.233 0.267,-0.433 0.2,-0.6 -0.333,-0.167 -0.717,-0.1 -1.15,0.2 -0.167,0.133 -0.5,0.417 -1,0.85 0.167,-0.6 0.2,-0.967 0.1,-1.1 -0.633,0.133 -1.117,0.433 -1.45,0.9 0.066,-0.267 0.066,-0.55 0,-0.85 -0.2,0.067 -0.717,0.517 -1.55,1.35 -0.033,-0.067 -0.05,-0.25 -0.05,-0.55 l -0.65,0.55 c 0.066,-0.1 0.066,-0.233 0,-0.4 -0.967,0.4 -1.667,1 -2.1,1.8 v -0.7 c -0.767,0.433 -1.383,0.983 -1.85,1.65 v -0.4 c -0.4,0.333 -0.65,0.533 -0.75,0.6 l 0.1,0.15 c 0.267,0.2 0.4,0.383 0.4,0.55 -0.4,-0.167 -0.633,-0.2 -0.7,-0.1 -0.034,0.067 0.033,0.15 0.2,0.25 0.067,0.067 0.167,0.133 0.3,0.2 0.133,0.033 0.617,0.1 1.45,0.2 -0.167,0.167 -0.233,0.3 -0.2,0.4 l 1.95,-0.15 c 0.233,0 0.684,0.083 1.35,0.25 l -0.1,-0.3 c 0.5,0.4 1.017,0.583 1.55,0.55 0,-0.2 -0.1,-0.4 -0.3,-0.6 0.3,0.133 0.684,0.217 1.15,0.25 0.533,0.033 0.85,-0.05 0.95,-0.25 -0.2,-0.067 -0.367,-0.133 -0.5,-0.2 0.2,-0.1 0.633,-0.1 1.3,0 0.6,0.067 1.034,0 1.3,-0.2 -0.133,-0.133 -0.4,-0.167 -0.8,-0.1 l 0.85,-0.3 c 0.167,-0.033 0.333,-0.083 0.5,-0.15 z m 4.55,-5.55 c 0.032,-0.032 0.082,-0.048 0.15,-0.05 H 2.5 c -0.033,0.002 -0.05,0.019 -0.05,0.05 z M -7.6,-12.8 c 0.133,-0.067 0.283,-0.133 0.45,-0.2 l -0.35,0.1 -0.2,0.15 c 0.033,0 0.067,-0.017 0.1,-0.05 z m 3.75,-1.2 c 0.167,-0.033 0.35,-0.067 0.55,-0.1 -0.1,0 -0.217,0.017 -0.35,0.05 h -0.1 z"
   fill="#e8e1e1"
   id="path62668" />
			<path
   d="M 3.5,-14.05 C 3.44,-14.059 3.382,-14.067 3.325,-14.075 L 2.7,-14.15 C 2.513,-14.17 2.33,-14.186 2.15,-14.2 H 2.1 c -0.2,-0.033 -0.383,-0.05 -0.55,-0.05 -0.167,0 -0.316,-0.017 -0.45,-0.05 h -1.65 l -2.3,0.15 -0.35,0.05 c -0.2,0.033 -0.383,0.067 -0.55,0.1 -1.167,0.233 -2.267,0.567 -3.3,1 -0.127,0.051 -0.244,0.101 -0.35,0.15 -0.035,0.018 -0.068,0.034 -0.1,0.05 0.481,-0.121 0.882,-0.188 1.2,-0.2 h 0.1 c 0.209,-0.023 0.418,-0.048 0.625,-0.075 L -3,-13.125 c 0.311,0.018 0.611,0.043 0.9,0.075 l -0.375,0.25 c 0.037,-0.004 0.078,-0.004 0.125,0 0.394,-0.044 0.978,-0.111 1.75,-0.2 0.123,-0.01 0.24,-0.019 0.35,-0.025 H 0.4 c 0.35,0.012 0.65,0.053 0.9,0.125 -0.142,0.285 -0.226,0.46 -0.25,0.525 v 0.025 c 0.117,-0.033 0.309,-0.059 0.575,-0.075 L 2.5,-12.45 h 0.2 c 0.1,-0.033 0.333,-0.083 0.7,-0.15 -0.089,0.013 -0.172,0.021 -0.25,0.025 H 3.025 c -0.246,0.011 -0.404,-0.03 -0.475,-0.125 0.167,-0.2 0.55,-0.35 1.15,-0.45 -0.033,0.002 -0.066,0.002 -0.1,0 H 3.525 c -0.06,0.005 -0.118,0.005 -0.175,0 -0.24,0.003 -0.406,-0.03 -0.5,-0.1 0.3,-0.2 0.783,-0.35 1.45,-0.45 L 4.675,-13.825 4.7,-13.85 Z"
   fill="#aea8a8"
   id="path62670" />
		</g>
</symbol>
<symbol
   viewBox="-6.85 -6.35 15.7 14.729"
   id="symbol62686">
		<g
   clip-rule="evenodd"
   fill-rule="evenodd"
   id="g62684">
			<path
   d="M 8.35,8 C 7.917,7.467 7.633,6.9 7.5,6.3 7.4,5.9 7.283,5.2 7.15,4.2 7.017,3.3 6.867,2.6 6.7,2.1 6.6,1.733 6,0.367 4.9,-2 4.133,-3.6 3.783,-5.05 3.85,-6.35 c -1.934,2.9 -3.283,4.833 -4.05,5.8 -0.533,0.667 -1.05,1.267 -1.55,1.8 0.333,0.033 0.683,0.033 1.05,0 h 0.2 C -0.8,1.117 -1.017,1 -1.15,0.9 H -0.3 C 0,0.933 0.25,1.083 0.45,1.35 0.317,0.95 0.083,0.65 -0.25,0.45 c 0.1,0 0.333,0.033 0.7,0.1 C 0.783,0.584 0.983,0.517 1.05,0.35 0.683,0.35 0.433,0.3 0.3,0.2 0.367,0.133 0.6,0.1 1,0.1 1.3,0.1 1.483,0 1.55,-0.2 1.417,-0.233 1.2,-0.25 0.9,-0.25 0.633,-0.217 0.433,-0.217 0.3,-0.25 0.433,-0.317 0.733,-0.4 1.2,-0.5 1.567,-0.633 1.766,-0.817 1.8,-1.05 1.633,-1.083 1.383,-1.033 1.05,-0.9 c -0.3,0.1 -0.533,0.133 -0.7,0.1 0.167,-0.067 0.4,-0.133 0.7,-0.2 0.233,-0.1 0.4,-0.267 0.5,-0.5 l -0.3,0.05 c 0.1,-0.066 0.267,-0.3 0.5,-0.7 L 1.95,-2.4 C 2.583,-2 3.233,-1.233 3.9,-0.1 4.7,1.3 5.25,3.017 5.55,5.05 4.95,5.217 3.583,5.1 1.45,4.7 0.15,4.433 -1.033,3.917 -2.1,3.15 L -2.95,2.4 c -0.667,0.6 -1.333,1.1 -2,1.5 l -1.9,0.8 1.7,1.05 c 1.433,0.767 2.917,1.367 4.45,1.8 1.367,0.4 2.65,0.6 3.85,0.6 L 3.35,8.2 C 4.617,8.367 5.483,8.416 5.95,8.35 5.916,8.317 5.683,8.25 5.25,8.15 L 6.65,8.1 C 7.217,8.1 7.533,8.083 7.6,8.05 7.333,8.084 7.15,8.05 7.05,7.95 7.617,7.883 8.05,7.9 8.35,8 Z M -1.8,1.3 -2,1.5 c 0.133,0 0.25,-0.017 0.35,-0.05 z"
   fill="#b7a98b"
   id="path62676" />
			<path
   d="M 8.35,8 C 8.483,8.033 8.583,8.083 8.65,8.15 8.584,7.983 8.417,7.75 8.15,7.45 l -0.3,-0.4 v -0.1 c 0.233,0.133 0.566,0.267 1,0.4 C 8.517,7.017 8.283,6.467 8.15,5.7 L 8.1,3.75 C 8.133,3.883 8.217,4.033 8.35,4.2 8.483,4.4 8.567,4.55 8.6,4.65 8.6,4.517 8.517,3.967 8.35,3 8.15,2.2 7.95,1.583 7.75,1.15 7.15,-0.317 6.733,-1.233 6.5,-1.6 5.667,-3.4 4.783,-4.983 3.85,-6.35 3.783,-5.05 4.133,-3.6 4.9,-2 6,0.367 6.6,1.733 6.7,2.1 6.867,2.6 7.016,3.3 7.15,4.2 7.283,5.2 7.4,5.9 7.5,6.3 7.633,6.9 7.917,7.467 8.35,8 Z"
   fill="#998d75"
   id="path62678" />
			<path
   d="m -0.65,1.25 c 1.4,1.433 2.633,2.267 3.7,2.5 0.7,0.2 1.467,0.267 2.3,0.2 l 0.2,1.1 C 5.25,3.017 4.7,1.3 3.9,-0.1 3.233,-1.233 2.583,-2 1.95,-2.4 l -0.2,0.25 c -0.233,0.4 -0.4,0.633 -0.5,0.7 l 0.3,-0.05 c -0.1,0.233 -0.267,0.4 -0.5,0.5 -0.3,0.067 -0.533,0.133 -0.7,0.2 0.167,0.033 0.4,0 0.7,-0.1 0.333,-0.133 0.583,-0.183 0.75,-0.15 -0.033,0.233 -0.233,0.417 -0.6,0.55 -0.467,0.1 -0.767,0.183 -0.9,0.25 0.133,0.033 0.333,0.033 0.6,0 0.3,0 0.517,0.017 0.65,0.05 C 1.483,0 1.3,0.1 1,0.1 0.6,0.1 0.367,0.133 0.3,0.2 0.433,0.3 0.683,0.35 1.05,0.35 0.984,0.517 0.783,0.583 0.45,0.55 0.083,0.484 -0.15,0.45 -0.25,0.45 0.083,0.65 0.317,0.95 0.45,1.35 0.25,1.083 0,0.933 -0.3,0.9 H -1.15 C -1.017,1 -0.8,1.117 -0.5,1.25 Z M -2,1.5 c -0.097,0.032 -0.164,0.049 -0.2,0.05 0.234,0 0.417,-0.033 0.55,-0.1 C -1.75,1.483 -1.867,1.5 -2,1.5 Z"
   fill="#ad927b"
   id="path62680" />
			<path
   d="M -1.75,1.25 H -1.9 l 0.1,0.05 0.15,0.15 c -0.133,0.066 -0.316,0.1 -0.55,0.1 H -2.4 C -2.833,1.917 -3.133,2.1 -3.3,2.1 l 0.35,0.3 0.85,0.75 c 1.067,0.767 2.25,1.283 3.55,1.55 2.133,0.4 3.5,0.517 4.1,0.35 L 5.35,3.95 C 4.517,4.016 3.75,3.95 3.05,3.75 1.984,3.517 0.75,2.683 -0.65,1.25 H -0.7 c -0.367,0.033 -0.717,0.033 -1.05,0 z"
   fill="#907967"
   id="path62682" />
		</g>
</symbol>
<symbol
   viewBox="-5.602 -5.25 11.152 14.55"
   id="symbol62698">
		<g
   clip-rule="evenodd"
   fill-rule="evenodd"
   id="g62696">
			<path
   d="m -4.95,-3.3 c -0.133,0.7 -0.267,1.45 -0.4,2.25 0.5,0.167 0.95,0.383 1.35,0.65 0.3,-0.733 0.633,-1.133 1,-1.2 L 0.45,1.45 C 0.35,1.583 0.267,1.7 0.2,1.8 l 0.25,0.25 c -0.3,0.434 -0.567,0.833 -0.8,1.2 0.8,1.1 1.067,2.05 0.8,2.85 C -0.083,7.5 -1.1,8.517 -2.6,9.15 L -2.65,9.2 C -2.383,9.167 -2.1,9.1 -1.8,9 h 0.05 C -1.715,8.999 -1.665,8.982 -1.6,8.95 -1.533,8.95 -1.467,8.933 -1.4,8.9 -0.1,8.533 1.033,7.967 2,7.2 3.433,6.1 4.617,4.883 5.55,3.55 5.25,3.583 4.8,3.483 4.2,3.25 3,2.75 1.683,1.733 0.25,0.2 L -4.4,-5.25 Z m 1.2,3.1 c 0,-0.033 0.017,-0.066 0.05,-0.1 l -0.25,-0.05 c 0.067,0.067 0.133,0.117 0.2,0.15 z"
   fill="#817762"
   id="path62688" />
			<path
   d="m -4,-0.4 c -0.4,-0.267 -0.85,-0.483 -1.35,-0.65 0.133,-0.8 0.267,-1.55 0.4,-2.25 -0.433,1.733 -0.65,3.517 -0.65,5.35 -0.033,1.367 0.333,2.983 1.1,4.85 l 1.1,2.4 0.8,-0.15 C -1.1,8.517 -0.083,7.5 0.45,6.1 c 0.267,-0.8 0,-1.75 -0.8,-2.85 -0.733,1 -1.35,1.733 -1.85,2.2 l -1.1,1 L -3.95,4.5 C -4.283,3.233 -4.4,2.2 -4.3,1.4 V 0.85 l 0.1,0.1 C -4.067,0.483 -3.917,0.1 -3.75,-0.2 -3.817,-0.233 -3.883,-0.283 -3.95,-0.35 H -4 Z M -1.75,9 h 0.1 C -1.617,9 -1.6,8.983 -1.6,8.95 -1.665,8.982 -1.715,8.999 -1.75,9 Z"
   fill="#998d75"
   id="path62690" />
			<path
   d="M 0.2,1.8 C -0.767,3.234 -1.567,4.25 -2.2,4.85 L -3.3,5.8 -3.85,4.05 c -0.3,-1 -0.45,-1.883 -0.45,-2.65 -0.1,0.8 0.017,1.833 0.35,3.1 l 0.65,1.95 1.1,-1 c 0.5,-0.467 1.117,-1.2 1.85,-2.2 0.233,-0.367 0.5,-0.767 0.8,-1.2 z m -3.95,-2 C -3.917,0.1 -4.067,0.483 -4.2,0.95 l 0.05,0.15 -0.1,0.35 c 0,1 0.183,1.7 0.55,2.1 0.233,0.3 0.567,0.45 1,0.45 0.434,0 0.75,-0.167 0.95,-0.5 0.3,-0.533 0.167,-1.133 -0.4,-1.8 h 0.6 c 0.367,0 0.566,-0.2 0.6,-0.6 0,-0.133 -0.017,-0.25 -0.05,-0.35 l -0.25,-0.2 h -0.3 c -0.567,0.034 -1.267,-0.233 -2.1,-0.8 L -3.7,-0.3 c -0.033,0.033 -0.05,0.067 -0.05,0.1 z"
   fill="#ad927b"
   id="path62692" />
			<path
   d="m -4.3,1.4 c 0,0.767 0.15,1.65 0.45,2.65 L -3.3,5.8 -2.2,4.85 C -1.567,4.25 -0.766,3.233 0.2,1.8 0.266,1.7 0.35,1.584 0.45,1.45 L -3,-1.6 c -0.367,0.067 -0.7,0.467 -1,1.2 v 0.05 h 0.05 l 0.25,0.05 0.05,0.05 c 0.833,0.567 1.533,0.833 2.1,0.8 h 0.3 L -1,0.75 c 0.033,0.1 0.05,0.217 0.05,0.35 -0.033,0.4 -0.233,0.6 -0.6,0.6 h -0.6 c 0.566,0.667 0.7,1.267 0.4,1.8 C -1.95,3.833 -2.267,4 -2.7,4 -3.133,4 -3.467,3.85 -3.7,3.55 -4.067,3.15 -4.25,2.45 -4.25,1.45 L -4.15,1.1 -4.2,0.95 -4.3,0.85 Z"
   fill="#907967"
   id="path62694" />
		</g>
</symbol>
<symbol
   viewBox="-3.614 -2.95 7.214 5.896"
   id="symbol62714">
		<g
   clip-rule="evenodd"
   fill-rule="evenodd"
   id="g62712">
			<path
   d="M 0.4,1.65 C 0.467,1.583 0.483,1.5 0.45,1.4 0.417,1.233 0.35,1.1 0.25,1 0.15,0.867 -0.05,0.75 -0.35,0.65 c -0.3,-0.1 -0.566,-0.133 -0.8,-0.1 -0.233,0.034 -0.467,0.167 -0.7,0.4 -0.133,0.1 -0.233,0.183 -0.3,0.25 -0.067,0.1 -0.1,0.167 -0.1,0.2 0,0.367 0.25,0.583 0.75,0.65 0.633,0.1 1.217,0.017 1.75,-0.25 C 0.317,1.767 0.367,1.717 0.4,1.65 Z"
   fill="#a78579"
   id="path62700" />
			<path
   d="M -2.15,1.2 V 1.15 C -2.183,0.883 -2.083,0.7 -1.85,0.6 -1.617,0.5 -1.533,0.35 -1.6,0.15 c 0.033,-0.2 0.017,-0.483 -0.05,-0.85 0.066,-0.267 0.2,-0.5 0.4,-0.7 v 0.3 c -0.133,0.8 0.133,1.267 0.8,1.4 0.6,0.133 0.917,0.35 0.95,0.65 0.033,0.2 0.033,0.417 0,0.65 C 0.5,1.633 0.467,1.65 0.4,1.65 0.367,1.717 0.317,1.767 0.25,1.8 -0.283,2.067 -0.867,2.15 -1.5,2.05 -2,1.983 -2.25,1.767 -2.25,1.4 c 0,-0.033 0.033,-0.1 0.1,-0.2 z m 4.2,-1.15 c -0.066,-0.167 -0.033,-0.267 0.1,-0.3 0.1,-0.033 0.167,0.017 0.2,0.15 0.066,0.1 0.066,0.184 0,0.25 -0.133,0.133 -0.233,0.1 -0.3,-0.1 z M 1.5,0.15 C 1.7,0.117 1.817,0.2 1.85,0.4 1.917,0.6 1.833,0.717 1.6,0.75 1.5,0.783 1.417,0.7 1.35,0.5 1.283,0.3 1.333,0.183 1.5,0.15 Z M 2.7,1.3 C 2.733,1.2 2.75,1.084 2.75,0.95 c 0,-1.434 -0.867,-2.25 -2.6,-2.45 -1.067,-0.1 -1.983,0.133 -2.75,0.7 -0.2,0.133 -0.367,0.283 -0.5,0.45 -0.4,0.467 -0.567,0.983 -0.5,1.55 0.1,0.733 0.483,1.233 1.15,1.5 0.633,0.267 1.434,0.316 2.4,0.15 C 0.683,2.75 1.317,2.533 1.85,2.2 2.25,1.967 2.517,1.7 2.65,1.4 2.683,1.4 2.7,1.383 2.7,1.35 Z M 0.8,-0.65 c -0.033,-0.167 0.05,-0.233 0.25,-0.2 0.233,0.033 0.35,0.117 0.35,0.25 0,0.133 -0.1,0.2 -0.3,0.2 -0.167,0 -0.267,-0.083 -0.3,-0.25 z"
   fill="#ede6e6"
   id="path62702" />
			<path
   d="M 0.4,1.65 C 0.467,1.65 0.5,1.633 0.5,1.6 0.533,1.367 0.533,1.15 0.5,0.95 0.467,0.65 0.15,0.433 -0.45,0.3 -1.117,0.167 -1.383,-0.3 -1.25,-1.1 v -0.3 c -0.2,0.2 -0.333,0.433 -0.4,0.7 0.066,0.367 0.083,0.65 0.05,0.85 0.067,0.2 -0.017,0.35 -0.25,0.45 -0.233,0.1 -0.333,0.283 -0.3,0.55 V 1.2 c 0.066,-0.067 0.167,-0.15 0.3,-0.25 0.233,-0.233 0.467,-0.367 0.7,-0.4 0.233,-0.033 0.5,0 0.8,0.1 0.3,0.1 0.5,0.217 0.6,0.35 0.1,0.1 0.167,0.233 0.2,0.4 0.033,0.1 0.017,0.183 -0.05,0.25 z"
   fill="#554c3f"
   id="path62704" />
			<path
   d="M 1.5,0.15 C 1.333,0.183 1.283,0.3 1.35,0.5 1.417,0.7 1.5,0.783 1.6,0.75 1.833,0.717 1.917,0.6 1.85,0.4 1.817,0.2 1.7,0.117 1.5,0.15 Z m 0.55,-0.1 c 0.067,0.2 0.167,0.233 0.3,0.1 C 2.417,0.083 2.417,0 2.35,-0.1 2.317,-0.233 2.25,-0.283 2.15,-0.25 2.017,-0.217 1.983,-0.117 2.05,0.05 Z M 0.8,-0.65 c 0.033,0.167 0.133,0.25 0.3,0.25 0.2,0 0.3,-0.067 0.3,-0.2 0,-0.133 -0.117,-0.217 -0.35,-0.25 -0.2,-0.033 -0.283,0.033 -0.25,0.2 z"
   fill="#a9a59d"
   id="path62706" />
			<path
   d="m -3.1,-0.35 c 0.133,-0.167 0.3,-0.316 0.5,-0.45 0.767,-0.567 1.684,-0.8 2.75,-0.7 1.733,0.2 2.6,1.017 2.6,2.45 C 2.75,1.083 2.733,1.2 2.7,1.3 2.8,1.233 2.9,1.15 3,1.05 3.033,0.983 3.083,0.9 3.15,0.8 l 0.4,-1 C 3.583,-0.333 3.6,-0.75 3.6,-1.45 L 3.25,0.1 3.2,-0.95 c 0,-0.6 -0.1,-0.933 -0.3,-1 0.067,0.533 0.033,0.883 -0.1,1.05 L 2.75,-0.85 V -1.4 c 0,-0.4 -0.1,-0.733 -0.3,-1 0.067,0.433 0.05,0.683 -0.05,0.75 L 1.7,-2.45 C 1.633,-2.15 1.567,-1.933 1.5,-1.8 1.367,-1.833 1.233,-1.983 1.1,-2.25 l -0.45,-0.5 -0.15,0.6 c -0.133,-0.467 -0.283,-0.733 -0.45,-0.8 -0.1,0.434 -0.25,0.667 -0.45,0.7 -0.1,-0.333 -0.2,-0.517 -0.3,-0.55 -0.066,0.167 -0.1,0.45 -0.1,0.85 L -1.3,-2.5 c 0,0.267 -0.034,0.433 -0.1,0.5 -0.133,-0.033 -0.217,-0.15 -0.25,-0.35 0,-0.2 -0.033,-0.316 -0.1,-0.35 -0.133,0.067 -0.183,0.233 -0.15,0.5 0.033,0.3 0.033,0.517 0,0.65 L -2.25,-1.9 c 0,0.367 -0.017,0.583 -0.05,0.65 -0.233,-0.2 -0.383,-0.367 -0.45,-0.5 0,0.4 0.033,0.683 0.1,0.85 L -3,-1.1 l 0.05,0.45 -0.15,0.2 z"
   fill="#998d75"
   id="path62708" />
			<path
   d="M 3,1.05 C 2.9,1.15 2.8,1.233 2.7,1.3 V 1.35 C 2.8,1.283 2.9,1.183 3,1.05 Z M 2.8,-0.9 c -0.032,0 -0.049,-0.017 -0.05,-0.05 v 0.1 z"
   fill="#908d86"
   id="path62710" />
		</g>
</symbol>

<use
   transform="matrix(-13.99931,0,0,-13.99931,215.59212,238.69614)"
   x="-17.173"
   y="-15.372"
   width="28.573"
   height="28.271999"
   xlink:href="#l"
   id="use63426" /></svg>
