<?xml version="1.0" encoding="UTF-8" standalone="no"?>
<svg
   xmlns:dc="http://purl.org/dc/elements/1.1/"
   xmlns:cc="http://creativecommons.org/ns#"
   xmlns:rdf="http://www.w3.org/1999/02/22-rdf-syntax-ns#"
   xmlns:svg="http://www.w3.org/2000/svg"
   xmlns="http://www.w3.org/2000/svg"
   xmlns:sodipodi="http://sodipodi.sourceforge.net/DTD/sodipodi-0.dtd"
   xmlns:inkscape="http://www.inkscape.org/namespaces/inkscape"
   viewBox="0 0 512.00001 512.00001"
   height="512"
   width="512"
   xml:space="preserve"
   id="svg2"
   version="1.1"
   sodipodi:docname="Domestic Dog.svg"
   inkscape:version="1.0.2 (e86c870879, 2021-01-15, custom)"><sodipodi:namedview
     pagecolor="#ffffff"
     bordercolor="#666666"
     borderopacity="1"
     objecttolerance="10"
     gridtolerance="10"
     guidetolerance="10"
     inkscape:pageopacity="0"
     inkscape:pageshadow="2"
     inkscape:window-width="1366"
     inkscape:window-height="715"
     id="namedview69949"
     showgrid="false"
     inkscape:zoom="0.19368521"
     inkscape:cx="1414.6666"
     inkscape:cy="1208.146"
     inkscape:window-x="-8"
     inkscape:window-y="-8"
     inkscape:window-maximized="1"
     inkscape:current-layer="svg2" /><metadata
     id="metadata8"><rdf:RDF><cc:Work
         rdf:about=""><dc:format>image/svg+xml</dc:format><dc:type
           rdf:resource="http://purl.org/dc/dcmitype/StillImage" /><dc:title></dc:title></cc:Work></rdf:RDF></metadata><defs
     id="defs6" /><g
     id="g70841"
     transform="matrix(0.31237421,0,0,0.31237421,27.55176,-144.07304)"><path
       id="path14"
       style="fill:#cda179;fill-opacity:1;fill-rule:nonzero;stroke:none;stroke-width:0.133333"
       d="m 501.43199,1388.88 c -74.37467,64.9733 -106.50533,166.5733 -115.85333,264.88 -2.63067,27.72 -3.724,56.12 -11.97467,82.9467 -9.00533,29.2266 -24.74,28.7866 -51.41066,38.9866 -7.73467,2.92 -16.188,6.5734 -19.54267,14.1067 -4.76533,10.6667 3.40667,22.76 12.70933,29.8133 16.83334,12.7467 38.09333,17.9067 58.76,22.1734 31.13067,6.4533 62.536,11.6133 94.07333,15.4666 3.09867,0.3867 6.552,0.68 9.036,-1.2133 2.54667,-1.92 3.17733,-5.4 3.63467,-8.5333 6.07866,-42.0534 11.43333,-84.2 16.10533,-126.4134 3.56667,-32.5466 0.59867,-65.7333 4.984,-97.4933 5.468,-39.8 10.50533,-78.84 10.312,-119.1467 -0.088,-19.96 -1.088,-39.9066 -3.01467,-59.7733 -0.636,-6.5867 -11.016,-53 -7.81866,-55.8" /><path
       id="path16"
       style="fill:#cda179;fill-opacity:1;fill-rule:nonzero;stroke:none;stroke-width:0.133333"
       d="m 938.34931,1388.88 c 74.37469,64.9733 106.50529,166.5733 115.85329,264.88 2.6307,27.72 3.7187,56.12 11.9747,82.9467 9.0107,29.2266 24.7347,28.7866 51.4213,38.9866 7.7187,2.92 16.1614,6.5734 19.5414,14.1067 4.756,10.6667 -3.4,22.76 -12.7227,29.8133 -16.8387,12.7467 -38.0787,17.9067 -58.772,22.1734 -31.1187,6.4533 -62.5093,11.6133 -94.05199,15.4666 -3.104,0.3867 -6.54667,0.68 -9.03067,-1.2133 -2.54666,-1.92 -3.19866,-5.4 -3.64133,-8.5333 -6.07733,-42.0534 -11.43733,-84.2 -16.09333,-126.4134 -3.58267,-32.5466 -0.62,-65.7333 -4.98934,-97.4933 -5.484,-39.8 -10.52133,-78.84 -10.32266,-119.1467 0.0827,-19.96 1.088,-39.9066 3.01066,-59.7733 0.624,-6.5867 11.03067,-53 7.82267,-55.8" /><path
       id="path18"
       style="fill:#feead6;fill-opacity:1;fill-rule:nonzero;stroke:none;stroke-width:0.133333"
       d="m 887.06798,1676.0267 c -5,-53.5467 -12.568,-107.24 -24.24,-159.7734 -5.10933,-22.88 -11.97333,-45.8533 -24.536,-65.8533 -12.56267,-20.0267 -30.87067,-35.1467 -51.33333,-46.6267 -20.86534,-11.72 -43.808,-20.8666 -66.59467,-28.04 -23.46266,-7.3866 -48.33333,-11.2533 -72.692,-6.44 -20.83866,4.12 -40.92666,15.0267 -53.44799,32.4934 -7.136,9.9333 -11.31734,21.48 -14.36934,33.2533 -2.93333,11.2933 -5.276,22.7867 -7.5,34.2533 -1.18266,0.9467 -2.03733,2.1867 -2.21466,3.7067 -1.004,8.1867 -1.932,16.3733 -2.84267,24.56 -0.844,5 -1.64133,10.0133 -2.40133,15.04 -0.18267,1.3333 -0.0733,2.68 0.33333,3.9067 -4.24,40.28 -7.62,80.64 -10.11467,121.0666 -4.12533,66.64 -38.33333,183.1334 8.71867,239.84 19.12,23.0267 50.92666,23.24 78.312,21.9467 41.67733,-2 82.568,1.1333 124.13599,1.8933 36.85467,0.6934 77.92667,-2.4666 106.78133,-28.1333 53.00534,-47.16 19.92667,-133.6 14.00534,-197.0933" /><path
       id="path20"
       style="fill:#f4d6b1;fill-opacity:1;fill-rule:nonzero;stroke:none;stroke-width:0.133333"
       d="m 871.05731,1914.8667 c -18.21333,-15.4534 -22.208,-43.96 -27.01066,-65.76 -6.59334,-29.8667 -14.03067,-59.5734 -22.28134,-89.0534 -10.432,-37.2933 -22.60933,-75.04 -45.93733,-105.9466 -12.65067,-16.72 -30.38533,-31.9734 -51.35866,-32.4667 -29.792,-0.7067 -52.188,29.9733 -68.36534,51.2133 -38.964,51.16 -56.24399,112.9067 -67.82799,175.16 -3.73467,20.0534 -3.292,58.1734 -24.14534,69.9467 -6.60933,3.7333 -14.71866,3.2933 -22.28133,2.52 -49.99467,-5.2 -98.85466,-21.12 -142.28666,-46.4267 -4.19867,-2.44 -8.724,-5.4666 -9.74534,-10.2133 -1.82266,-8.5333 8.40667,-14.32 16.86,-16.5067 15.604,-4.04 44.05734,1.1467 50.23467,-13.1733 6.42133,-14.9467 -3.20933,-44.7467 -6.10933,-59.9867 -2.896,-15.2133 -5.79734,-30.4266 -8.67734,-45.6533 -1.66666,-8.7067 -3.328,-17.4267 -4.79733,-26.16 -1.844,-10.84 -3.416,-21.7467 -4.97333,-32.6267 -0.824,-5.6533 -1.64134,-11.3066 -2.44267,-16.9466 -2.224,-15.4667 -4.45867,-31.04 -3.66667,-46.6267 0.93734,-18.4667 6.172,-36.68 15.176,-52.84 -13.33333,-28.1733 -8.448,-64.0133 11.948,-87.6 -16.12933,-18.4933 -9.85866,-51.5733 11.94267,-62.8667 -8.30133,-8.8533 -9.94267,-22.44 -6.89467,-34.1866 3.04667,-11.76 10.11867,-22.0267 17.61333,-31.5867 9.90667,-12.6667 23.61467,-23.5467 32.18267,-37.0267 7.33867,-11.56 10.71867,-21.6133 22.01067,-30.8533 22.14533,-18.1333 51.24,-22.84 76.78133,-34.32 38.416,-17.2533 80.78133,-21.9333 122.48933,-22.68 35.40133,-0.6133 71.82266,-0.8667 106.28133,8.4667 41.55733,11.2666 59.60933,39.7866 89.64133,67.3333 9.97867,9.16 20.176,18.6 26.12933,30.7467 5.948,12.1333 6.78134,27.7866 -1.52533,38.4533 15.952,-2.92 30.276,13.36 31.38,29.56 1.11467,16.1733 -6.984,31.4533 -15.26133,45.4133 14.41733,20.52 17.496,48.48 7.93866,71.64 -1.172,2.8 -2.52666,5.68 -2.396,8.6934 0.172,3.9733 2.82267,7.2933 4.61467,10.8266 10.312,20.1867 -6.94267,44.7734 -1.76133,66.8267 1.652,7.04 5.53733,13.36 7.95866,20.16 3.34934,9.5067 3.812,19.76 4.016,29.8267 0.828,45.7866 -3.308,91.4933 -7.432,137.1066 -1.58933,17.48 -13.19333,52.2267 5.11467,62.88 14.31733,8.3467 35.46799,3.2934 51.16129,7.2534 7.6867,1.9466 16.8694,6.4666 16.4374,14.36 -0.3227,5.72 -5.7294,9.64 -10.6467,12.56 -43.33332,25.6133 -92.45732,41.4133 -142.59332,45.8133 -9.56267,0.8533 -20.192,0.9467 -27.49467,-5.2533" /><g
       transform="matrix(0.13429066,0,0,-0.13429066,0,2829.3333)"
       id="g22"><path
         id="path24"
         style="fill:#f4d6b1;fill-opacity:1;fill-rule:nonzero;stroke:none"
         d="m 8483.29,13365.8 c -3.41,23.4 -8.76,46.8 -15.97,70.4 7.02,-23 14.18,-46.1 21.36,-69.3 l -5.39,-1.1 m 35.49,830.8 c 19.55,-47.2 39.17,-94.4 58.83,-141.7 -17.25,158 -45.57,314.7 -84.62,468.7 26.22,-40.3 43.87,-85.8 51.93,-133.2 -63.03,376 -210.87,737.1 -426.47,1051.4 -227.66,331.6 -500.75,522.1 -884.39,648.1 -146.57,48.1 -300.28,86.1 -458.55,115.8 -293.67,55 -602.62,81.3 -908.71,90.1 -126.91,3.8 -253.5,4.2 -378.23,2.6 -124.49,1.6 -251,1.2 -378.02,-2.6 -382.54,-10.9 -769.56,-49.4 -1125.83,-137.1 -82.14,-20.1 -162.85,-43.2 -241.43,-68.8 -383.77,-126 -656.66,-316.5 -884.43,-648.1 -215.64,-314.3 -363.37,-675.4 -426.32,-1051.4 7.91,47.4 25.68,92.9 51.78,133.2 -39.06,-154 -67.41,-310.7 -84.63,-468.7 19.55,47.3 39.14,94.5 58.84,141.7 -25.99,-152.1 -42.12,-306.1 -47.98,-460.4 12.84,39 25.52,78 38.32,117 -35.56,-220.7 -40.64,-446.4 -15.64,-668.6 25.68,83.9 51.17,167.7 76.72,251.6 -17.49,-170 -17.72,-341.9 -0.77,-511.9 16.28,24.6 32.54,49.1 48.51,73.7 -0.96,-129.8 6.6,-259.5 22.5,-388.3 6.05,-47.8 2.75,-142.8 28.97,-183.5 29.52,-45.9 62.14,-23.7 101.69,-49.2 79.67,-51.7 130.98,-161.1 176.32,-261.4 l -2.18,-0.6 4.23,-6.5 3.5,-5 c 18.11,-39.9 35.4,-78.2 53.33,-110.2 100.21,-178.4 200.51,-356.6 300.57,-535 12.95,-22.7 31.14,-48.6 57.09,-47.4 7.64,0.4 13.07,4.9 16.72,11 36.3,-100.1 91.92,-192.9 163.05,-272 37.42,-41.3 116.77,-72.7 137.52,-20.8 61.59,-53.4 96.19,-130.8 145.52,-195.8 49.18,-64.7 127.99,-121.1 206.95,-101 26.49,6.5 53.1,21.3 79.32,13.9 26.45,-7.2 41.5,-34.2 55.07,-58 32.69,-56.8 73.11,-109.1 119.99,-154.7 23.51,-23.3 56.67,-46.1 86.84,-33.2 17.61,7.7 28.48,25 43.83,36 49.76,34.8 116.59,-9.7 153.54,-57.7 36.93,-48 76.34,-107.7 136.99,-109.2 71.33,-1.7 119.65,80.4 190.43,89.8 109.69,14.6 175.51,-145.9 286.07,-148.5 44.18,-1.1 82.54,23.7 120.93,48.4 38.09,24.6 76.22,49.1 120.04,48.7 73.54,-0.9 129.07,-72.1 201.75,-83 73.23,-11.2 139.59,40.5 194.85,89.9 21.27,19.2 47.9,39.9 75.63,32.6 20.48,-5.5 33.87,-24.8 48.76,-40 60.15,-61.4 162.85,-62.3 240.54,-25.1 77.68,36.9 136.33,103.8 192.53,168.9 30.05,-66.6 110.37,-101 182.7,-91.9 72.65,9 136.44,54.5 183.34,110.4 35.91,42.8 69.69,96.1 124.61,106.3 26.33,4.7 53.33,-1.7 80.13,-3.4 173.87,-11.4 293.59,162.6 374.77,318.7 -10.08,-33.5 35.76,-73.4 74.15,-63.2 43.02,11.3 68.23,54.8 88.63,94.2 59.76,114.8 119.33,229.6 178.95,344.4 146.87,42.7 200.47,216.3 267.22,353.9 66.08,136 163.7,253.8 244.11,381.9 155.37,247.2 243.72,526.7 311.24,812.5 33.62,87.3 57.48,176.6 58.41,267.8 3.41,16.6 6.78,33.2 10.28,49.8 14.81,-49.3 29.89,-98.6 44.95,-147.9 25.09,222.2 19.85,447.9 -15.44,668.6 12.57,-39 25.36,-78 37.93,-117 -5.77,154.3 -21.64,308.3 -47.78,460.4" /></g><g
       transform="matrix(0.13429066,0,0,-0.13429066,0,2829.3333)"
       id="g26"><path
         id="path28"
         style="fill:#feead6;fill-opacity:1;fill-rule:nonzero;stroke:none"
         d="m 6775.51,16205.7 c -23.66,-72.6 -47.43,-145 -71.25,-217.5 -45.72,-139.3 -85.71,-282.3 -140.55,-418.3 -25.29,-62.3 -56.63,-120.3 -96.34,-174.7 -39.91,-54.2 -82.65,-106.3 -112.98,-166.7 -59.69,-120.1 -77.07,-255.7 -127.63,-379.1 -47.59,-115.6 -120.97,-217.4 -179.81,-327.2 -29.05,-54.1 -53.91,-110.3 -68.1,-170.2 -15.95,-66.7 -15.67,-135.6 -10.24,-203.7 10.51,-136.9 38.7,-272.6 10.24,-409.3 -25.06,-120.1 -82.22,-230.2 -124.11,-345.1 -20.53,-56.7 -38.44,-115.7 -43.21,-176.2 -5.54,-66 8.07,-126.5 25.98,-189.4 16.26,-57.2 28.05,-114.3 23.78,-174 -3.53,-52.2 -16.05,-103.1 -33.2,-152.5 -35.1,-100.6 -87.77,-193.6 -128.65,-291.8 -39.02,-93.6 -67.24,-195.1 -41.96,-296.2 3.26,-12.7 -4.19,-24.9 -16.56,-29 -45.57,-14.8 -92.07,-25.2 -139.67,-31.2 -48.2,-6.2 -96.95,-7.6 -145.35,-3.9 -22.66,1.6 -54.07,1 -75.09,10.1 -14.12,6.2 -26.61,26.6 -33.55,39.8 -38.2,70.5 -15.01,155.7 1.32,229.1 9.31,41.7 18.23,83.5 16.95,126.7 -1.75,51.5 -16.02,101.6 -30.83,150.6 -29.52,98.1 -59.61,196.3 -93.47,292.9 -33.48,95.8 -71.17,190.3 -117.17,280.8 -42.01,82.7 -90.76,162.7 -117.94,251.9 -27.69,91.3 -17.62,179.1 -1.17,271.4 7.95,44.8 16.06,90.2 14.12,136 -1.9,47.2 -18.35,88.2 -45.5,126.6 -25.01,35.4 -54.72,67.7 -74.34,106.8 -15.41,30.6 -25.95,63.8 -33.28,97.2 -15.21,69.7 -17.53,141.5 -31.3,211.4 -13.38,68.3 -39.37,132.1 -102.51,167.9 -37.66,21.1 -78.77,34.7 -111.19,64.5 -26.1,23.7 -44.1,54.8 -55.7,87.8 -25.21,71.9 -18.65,152.8 -3.1,225.9 20.02,95.7 56.83,198.1 27.35,295.4 -24.67,80.2 -93.04,136.8 -142.65,201.1 -47.05,60.5 -71.02,127.8 -84.13,202.6 -12.37,70 -16.4,142.3 -37.23,210.7 -9.54,31 -23.23,61.6 -44.87,86.2 -25.83,29.5 -59.5,44.8 -93.93,61.9 -34.26,16.8 -66.49,38.4 -85.14,72.8 -16.48,30.7 -20.36,65.7 -16.95,100.1 l 0.12,0.8 c 356.27,87.7 743.29,126.2 1125.83,137.1 127.02,3.8 253.53,4.2 378.02,2.6 124.73,1.6 251.32,1.2 378.23,-2.6 306.09,-8.8 615.04,-35.1 908.71,-90.1" /></g><path
       id="path30"
       style="fill:#f0cca1;fill-opacity:1;fill-rule:nonzero;stroke:none;stroke-width:0.133333"
       d="m 457.99466,856.00002 c -19.78134,40.69333 -36.27067,83.22666 -36.29734,127.47999 -0.009,4.02667 0.12,8.08 0.40134,12.13334 0.172,2.42666 0.35466,4.95995 0.35466,7.46665 0.0107,5.5067 -0.83333,10.8933 -4.58933,14.68 -0.14,0.1467 -0.276,0.2667 -0.42667,0.4 -1.536,1.3067 -3.52533,1.88 -5.56266,1.88 h -0.0627 c -0.0667,0 -0.13467,0 -0.208,0 0,0 -0.0413,0 -0.0573,-0.013 -0.088,0 -0.16134,0 -0.24934,0 h -0.0267 c -2.932,-0.16 -5.84934,-1.4667 -7.47867,-3.4134 1.91067,16.32 3.18667,32.7067 3.82267,49.12 0.016,0.32 0.0253,0.64 0.0413,0.96 0.0107,0.1867 0.0107,0.3867 0.0213,0.5867 0.0987,2.6267 0.18667,5.2667 0.244,7.8933 v 0 0 c -6.104,-1.8533 -11.536,-5.88 -15.09333,-11.2 8.172,28.5734 16.33333,57.1734 24.516,85.7334 v 0 0 c -6.10933,-2.4534 -11.53733,-6.5734 -15.552,-11.7734 8.17733,23.56 12.26533,48.4934 12.28133,73.4267 0,11.8267 -0.912,23.64 -2.74533,35.32 8.224,14.64 16.45333,29.2667 24.66133,43.9067 1.704,2.9866 4.07867,6.3733 7.43734,6.3733 0.068,0 0.15733,0 0.22933,0 1.02667,-0.053 1.756,-0.6533 2.24533,-1.4667 4.87467,13.4267 12.344,25.8934 21.896,36.5067 3.14533,3.4933 8.51467,6.4533 12.77067,6.4533 2.52533,0 4.656,-1.0533 5.69733,-3.6533 8.27067,7.1733 12.91733,17.5733 19.54133,26.2933 5.68267,7.48 14.31334,14.12 23.36534,14.12 1.464,0 2.948,-0.16 4.42666,-0.5466 2.88,-0.7067 5.756,-2.1467 8.61467,-2.1467 0.67733,0 1.36533,0.08 2.03733,0.28 3.552,0.96 5.572,4.5867 7.39467,7.7867 4.39067,7.6266 9.81867,14.6533 16.11467,20.7733 2.52133,2.4933 5.86533,4.9467 9.18266,4.9467 0.83334,0 1.66134,-0.1467 2.47867,-0.4934 2.36533,-1.0266 3.824,-3.36 5.88533,-4.8266 1.672,-1.16 3.47467,-1.6667 5.32934,-1.6667 5.572,0 11.56133,4.5733 15.29066,9.4133 4.95867,6.44 10.25067,14.4534 18.396,14.6667 0.0947,0 0.19333,0 0.28667,0 9.42133,0 15.88533,-10.8267 25.28666,-12.0667 0.63467,-0.08 1.27067,-0.12 1.896,-0.12 13.61467,0 22.312,19.7334 36.52,20.0667 0.11467,0.013 0.23467,0.013 0.34934,0.013 5.78133,0 10.828,-3.2666 15.89066,-6.52 5.068,-3.2666 10.15067,-6.5333 15.96934,-6.5333 0,0 0.104,0 0.15066,0 9.87467,0.12 17.33333,9.68 27.09333,11.1467 0.928,0.1333 1.83867,0.2133 2.75067,0.2133 8.744,0 16.692,-6.28 23.416,-12.2933 2.45333,-2.2134 5.44267,-4.5734 8.59467,-4.5734 0.51466,0 1.036,0.067 1.56133,0.2 2.75067,0.7334 4.548,3.3334 6.548,5.3734 4.588,4.6666 11.004,6.7333 17.59867,6.7333 5.04133,0 10.18666,-1.2 14.70266,-3.36 10.432,-4.96 18.308,-13.9467 25.85467,-22.68 3.62,7.9867 12.62,12.5333 21.432,12.5333 1.04666,0 2.07866,-0.067 3.104,-0.2 9.756,-1.2133 18.32266,-7.32 24.62,-14.8266 4.82266,-5.7467 9.35866,-12.9067 16.73466,-14.2667 0.932,-0.16 1.85334,-0.2267 2.78134,-0.2267 2.64533,0 5.312,0.52 7.97866,0.68 0.72934,0.053 1.44267,0.08 2.156,0.08 22.19334,0 37.60934,-22.5733 48.172,-42.88 v 0 0 c -0.12533,0.44 -0.18666,0.8934 -0.18666,1.3334 0.0253,3.64 4.25466,7.3733 8.45733,7.3733 0.56267,0 1.136,-0.08 1.688,-0.2267 5.776,-1.5066 9.16133,-7.3466 11.90133,-12.64 5.94796,-11.44 11.88536,-22.8666 17.81196,-34.28 -9.38,5.5467 -19.13062,10.72 -28.63596,16.1067 -13.71866,7.7867 -27.79066,14.92 -42.5,20.6667 -16.056,6.28 -32.14,10.3466 -47.13466,19.1733 -25.59867,15.1067 -48.79733,32.96 -79.66667,32.96 -0.63066,0 -1.26,0 -1.912,-0.013 -8.00533,-0.1867 -16.03066,-1.1334 -24.04666,-1.1334 -1.74,0 -3.47334,0.053 -5.208,0.16 -9.09334,0.5334 -17.61467,3.68 -26.46934,5.56 -6.70266,1.44 -13.64,1.8934 -20.62933,1.8934 -9.896,0 -19.90666,-0.9067 -29.55733,-1.1867 -33.156,-0.9467 -64.76533,-4.6933 -95.19333,-18.64 -15.588,-7.1467 -30.64,-15.56 -47.40133,-19.7067 -14.28134,-3.5333 -28.38,-4.8933 -42.06134,-10.8266 -23.59466,-10.2667 -41.23466,-28.8 -55.532,-49.7734 -9.37999,-13.7466 -18.65599,-28.1733 -25.41066,-43.4133 -6.688,-15.0933 -9.15733,-29.92 -11.39067,-46.0667 -3.42266,-24.7333 -11.672,-54.56 -2.94266,-78.9333 0.23866,-0.64 0.552,-1.1867 0.91066,-1.6933 -1.864,-15.1067 -4.13066,-30.16 -8.00533,-44.8934 -0.95333,-2.5066 -1.71867,-4.9733 -2.01067,-8.04 -0.33866,-3.4933 2.38134,-5.28 5.204,-5.28 0.76534,0 1.54667,0.1467 2.26534,0.4134 0.54666,-3.6267 0.97333,-7.2667 1.49466,-10.9067 0.828,-5.7867 3.364,-11.9467 3.224,-17.5333 -0.224,-7.7067 -1.78133,-15.44 -1.92133,-23.24 -0.16133,-9.7467 0.27067,-19.50669 0.92133,-29.21335 2.984,-44.76 12.51067,-89 26.16134,-131.89333" /><path
       id="path32"
       style="fill:#f4d6b1;fill-opacity:1;fill-rule:nonzero;stroke:none;stroke-width:0.133333"
       d="m 367.37999,1212.5467 c 0.69867,3.4533 1.45333,6.88 2.32267,10.2666 0.93733,-1.8133 1.87066,-3.6266 2.81333,-5.4533 -1.74,-1.5733 -3.44267,-3.1867 -5.136,-4.8133" /><path
       id="path34"
       style="fill:#5a91d3;fill-opacity:1;fill-rule:nonzero;stroke:none;stroke-width:0.133333"
       d="m 586.52665,1147.2533 c 0,30.8134 -24.98,55.7867 -55.79733,55.7867 -30.81733,0 -55.80267,-24.9733 -55.80267,-55.7867 0,-30.84 24.98534,-55.8 55.80267,-55.8 30.81733,0 55.79733,24.96 55.79733,55.8" /><path
       id="path36"
       style="fill:#a4a5a9;fill-opacity:1;fill-rule:nonzero;stroke:none;stroke-width:0.133333"
       d="m 475.34399,1140.4267 c 0,0.013 0,0.04 -0.005,0.053 0.005,-0.013 0.005,-0.027 0.005,-0.053 m -0.0733,0.6133 c -0.005,0.027 -0.005,0.04 -0.005,0.067 0,-0.013 0,-0.04 0.005,-0.067 m -0.0627,0.6267 c -0.005,0 -0.005,0.013 -0.005,0.027 0,-0.013 0,-0.027 0.005,-0.027 m -0.13467,1.6266 c -0.016,0.08 -0.016,0.1867 -0.0267,0.2667 0.0107,-0.08 0.0107,-0.1867 0.0267,-0.2667 m -0.0427,0.6134 c -0.009,0.12 -0.009,0.2266 -0.0253,0.3333 0.016,-0.1067 0.016,-0.2133 0.0253,-0.3333 m -0.0413,0.6533 c 0,0.12 -0.0107,0.24 -0.0107,0.36 0,-0.12 0.0107,-0.24 0.0107,-0.36 m -0.0253,0.68 c -0.005,0.12 -0.0107,0.2533 -0.0107,0.3867 0,-0.1334 0.005,-0.2667 0.0107,-0.3867 m -0.016,0.6667 c -0.005,0.1333 -0.005,0.28 -0.005,0.44 0,-0.1467 0,-0.3067 0.005,-0.44 m -0.016,0.6666 c -0.005,0.2267 -0.005,0.4534 -0.005,0.68 v 0 c 0,-0.2266 0,-0.4533 0.005,-0.68 m 60.516,56.28 c -0.0573,0 -0.11467,0 -0.17734,0.013 0.0627,-0.013 0.11467,-0.013 0.17734,-0.013 m -0.56267,0.04 c -0.0987,0.013 -0.21867,0.013 -0.328,0.027 0.10933,-0.013 0.22933,-0.013 0.328,-0.027 m -0.792,0.053 c -0.12,0 -0.244,0.013 -0.364,0.027 0.12,-0.013 0.244,-0.027 0.364,-0.027 m -0.63467,0.04 c -0.14666,0 -0.292,0.013 -0.43733,0.013 0.15067,0 0.29067,-0.013 0.43733,-0.013 m -0.61466,0.027 c -0.208,0 -0.412,0.013 -0.62,0.013 0.208,0 0.412,-0.013 0.62,-0.013 m -0.80267,0.013 c -0.16133,0.013 -0.32267,0.013 -0.48933,0.013 0.16666,0 0.31733,0 0.48933,-0.013 m -0.67733,0.013 c -0.208,0 -0.42667,0 -0.63467,0 0.208,0 0.42667,0 0.63467,0" /><path
       id="path38"
       style="fill:#447cc8;fill-opacity:1;fill-rule:nonzero;stroke:none;stroke-width:0.133333"
       d="m 487.51599,1111.9467 c -6.5,7.96 -10.86534,17.7466 -12.172,28.48 0,0.027 0,0.04 -0.005,0.053 -0.0267,0.1867 -0.052,0.3733 -0.068,0.56 -0.005,0.027 -0.005,0.053 -0.005,0.067 -0.0253,0.1866 -0.036,0.3733 -0.0573,0.56 -0.005,0 -0.005,0.013 -0.005,0.027 -0.052,0.52 -0.0987,1.0667 -0.12933,1.6 -0.016,0.08 -0.016,0.1867 -0.0267,0.2667 0,0.12 -0.016,0.2267 -0.016,0.3467 -0.009,0.12 -0.009,0.2266 -0.0253,0.3333 0,0.12 -0.005,0.2133 -0.016,0.32 0,0.12 -0.0107,0.24 -0.0107,0.36 -0.005,0.1067 -0.0147,0.2133 -0.0147,0.32 -0.005,0.12 -0.0107,0.2533 -0.0107,0.3867 0,0.08 -0.005,0.1866 -0.005,0.28 -0.005,0.1333 -0.005,0.2933 -0.005,0.44 0,0.08 -0.0107,0.1466 -0.0107,0.2266 -0.005,0.2267 -0.005,0.4534 -0.005,0.68 0,30.8134 24.98534,55.7867 55.80267,55.7867 v 0 c 0.208,0 0.42667,0 0.63467,0 0.068,0 0.13066,0 0.188,0 0.16666,0 0.328,0 0.48933,-0.013 0.0573,0 0.11467,0 0.18267,0 0.208,0 0.412,-0.013 0.62,-0.013 0.0573,-0.013 0.11466,-0.013 0.17733,-0.013 0.14533,0 0.29067,-0.013 0.43733,-0.013 0.088,-0.013 0.17734,-0.013 0.27067,-0.013 0.12,-0.013 0.244,-0.027 0.364,-0.027 0.15733,-0.013 0.308,-0.027 0.464,-0.027 0.10933,-0.013 0.22933,-0.013 0.328,-0.027 0.13067,-0.013 0.26,-0.013 0.38533,-0.027 0.0627,-0.013 0.12,-0.013 0.17734,-0.013 20.18266,-1.7066 37.26,-14.1866 45.59866,-31.6266 -10.07333,9.72 -23.18666,17.4133 -36.844,19.4933 -2.64533,0.4 -5.30133,0.6 -7.93733,0.6 -13.51467,0 -26.66133,-5.1867 -36.45333,-14.8 -13.15067,-12.8933 -15.74934,-31.0267 -14.58267,-48.6667 0.364,-5.2266 1.09333,-10.6 2.28667,-15.9066" /><path
       id="path40"
       style="fill:#1c2041;fill-opacity:1;fill-rule:nonzero;stroke:none;stroke-width:0.133333"
       d="m 569.23999,1100.6667 c -0.26667,-1.8667 -1.51067,-2.72 -2.928,-2.7867 -9.88534,-4.1067 -20.848,-8.2933 -31.61867,-8.7867 -4.62533,-0.1866 -9.31867,0.027 -13.93333,0.093 -2.14,0.04 -4.4,-0.12 -6.52,0.1333 -3.87067,0.4533 -6.136,5.76 -7.81867,8.88 -2.19733,4.0667 -3.97867,8.4133 -5.28133,12.8533 -4.90534,16.68 -3.83734,38.2534 7.876,52.0267 12.04666,14.16 34.67733,14.6133 47.45733,1.2133 7.14133,-7.4666 10.40133,-17.7333 12.204,-27.68 2.18267,-11.9333 2.276,-23.9466 0.56267,-35.9466" /><path
       id="path42"
       style="fill:#ffffff;fill-opacity:1;fill-rule:nonzero;stroke:none;stroke-width:0.133333"
       d="m 511.54132,1147.4667 c 0.95867,3.4266 -0.56267,10.7466 -4.12,10.7466 -3.54667,0 -19.51467,-8.6266 -19.51467,-12.1733 0,-3.5467 7.56267,-11.1067 11.09334,-11.1067 3.56266,0 11.292,8.0667 12.54133,12.5334" /><path
       id="path44"
       style="fill:#ffffff;fill-opacity:1;fill-rule:nonzero;stroke:none;stroke-width:0.133333"
       d="m 565.59865,1159.6667 c 0.62,2.28 0.224,4.5466 -1.984,5.8 -3.92666,2.1733 -11.05733,-2.4134 -11.80266,-6.4934 -0.51467,-2.84 3.57866,-6.48 6.24533,-6.48 3.088,0 6.55733,3.6267 7.54133,7.1734" /><path
       id="path46"
       style="fill:#1c2041;fill-opacity:1;fill-rule:nonzero;stroke:none;stroke-width:0.133333"
       d="m 587.73465,1141.6533 c 0.66134,-66.1466 -89.12533,-76.72 -111.30266,-17.36 -0.44267,1.1867 -0.468,11.52 2.46933,9.12 18.40133,-14.96 28.40533,-29.7066 54.35333,-31.6266 30.10934,-2.2267 40.69867,19.6 52.03734,42.3466 1.396,2.8134 2.44266,-1.2533 2.44266,-2.48" /><path
       id="path48"
       style="fill:#5a91d3;fill-opacity:1;fill-rule:nonzero;stroke:none;stroke-width:0.133333"
       d="m 986.97331,1147.2533 c 0,30.8134 -24.984,55.7867 -55.80133,55.7867 -30.812,0 -55.79734,-24.9733 -55.79734,-55.7867 0,-30.84 24.98534,-55.8 55.79734,-55.8 30.81733,0 55.80133,24.96 55.80133,55.8" /><path
       id="path50"
       style="fill:#a4a5a9;fill-opacity:1;fill-rule:nonzero;stroke:none;stroke-width:0.133333"
       d="m 875.78664,1140.4267 c -0.005,0.013 -0.016,0.04 -0.016,0.053 0,-0.013 0.0107,-0.027 0.016,-0.053 m -0.0787,0.6133 c 0,0.027 0,0.053 0,0.067 0,-0.013 0,-0.04 0,-0.067 m -0.068,0.6267 c 0,0.013 0,0.027 0,0.053 0,-0.027 0,-0.04 0,-0.053 m -0.124,1.6 c -0.0107,0.1066 -0.0213,0.2 -0.0267,0.3066 0.005,-0.1066 0.016,-0.2 0.0267,-0.3066 m -0.0467,0.64 c -0.005,0.12 -0.0107,0.2266 -0.016,0.3466 0.005,-0.12 0.0107,-0.2266 0.016,-0.3466 m -0.0373,0.6533 c -0.005,0.12 -0.005,0.24 -0.0107,0.36 0.005,-0.12 0.005,-0.24 0.0107,-0.36 m -0.0147,0.68 c -0.016,0.12 -0.016,0.2533 -0.016,0.3867 0,-0.1334 0,-0.2667 0.016,-0.3867 m -0.032,0.6667 c 0,0.1333 0,0.28 -0.0107,0.44 0.0107,-0.1467 0.0107,-0.3067 0.0107,-0.44 m -0.0107,0.6666 c 0,0.2267 0,0.4534 0,0.68 v 0 c 0,-0.2266 0,-0.4533 0,-0.68 m 60.516,56.28 c 0,0 -0.104,0 -0.156,0.013 0.052,-0.013 0.10934,-0.013 0.10934,-0.013 m -0.51067,0.04 c -0.0933,0.013 -0.19733,0.013 -0.29733,0.027 0.1,-0.013 0.204,-0.013 0.29733,-0.027 m -0.79733,0.053 c -0.11867,0 -0.23867,0.013 -0.348,0.027 0.11466,-0.013 0.22933,-0.027 0.348,-0.027 m -0.62934,0.04 c -0.152,0 -0.28133,0.013 -0.428,0.013 0.14134,0 0.276,-0.013 0.428,-0.013 m -0.61466,0.027 c -0.208,0 -0.412,0.013 -0.61467,0.013 0.20267,0 0.40667,-0.013 0.61467,-0.013 m -0.808,0.013 c -0.156,0.013 -0.31734,0.013 -0.47867,0.013 0.172,0 0.32267,0 0.47867,-0.013 m -0.66134,0.013 c -0.21333,0 -0.42666,0 -0.65066,0 0.224,0 0.432,0 0.65066,0" /><path
       id="path52"
       style="fill:#447cc8;fill-opacity:1;fill-rule:nonzero;stroke:none;stroke-width:0.133333"
       d="m 887.97331,1111.9467 c -6.51467,7.96 -10.87467,17.7466 -12.18667,28.48 -0.005,0.027 -0.016,0.04 -0.016,0.053 -0.016,0.1867 -0.036,0.3733 -0.0627,0.56 0,0.027 0,0.053 0,0.067 -0.02,0.1866 -0.0413,0.3733 -0.068,0.56 0,0.013 0,0.027 0,0.053 -0.0467,0.52 -0.0933,1.0267 -0.124,1.5467 -0.0107,0.1066 -0.0213,0.2 -0.0267,0.3066 -0.005,0.1067 -0.0107,0.2134 -0.02,0.3334 -0.005,0.12 -0.0107,0.2266 -0.016,0.3466 -0.0107,0.1067 -0.0213,0.2 -0.0213,0.3067 -0.005,0.12 -0.005,0.24 -0.0107,0.36 -0.004,0.1067 -0.004,0.2133 -0.004,0.32 -0.016,0.12 -0.016,0.2533 -0.016,0.3867 -0.0107,0.08 -0.016,0.1866 -0.016,0.28 0,0.1333 0,0.2933 -0.0107,0.44 0,0.08 0,0.1466 0,0.2266 0,0.2267 0,0.4534 0,0.68 0,30.8134 24.98534,55.7867 55.79734,55.7867 v 0 c 0.224,0 0.43733,0 0.65066,0 0.0573,0 0.12534,0 0.18267,0 0.16133,0 0.32267,0 0.47867,-0.013 0.068,0 0.13066,0 0.19333,0 0.20267,0 0.40667,-0.013 0.61467,-0.013 0.068,-0.013 0.12533,-0.013 0.18666,-0.013 0.14667,0 0.276,-0.013 0.428,-0.013 0.088,-0.013 0.17734,-0.013 0.28134,-0.013 0.10933,-0.013 0.22933,-0.027 0.348,-0.027 0.172,-0.013 0.33866,-0.027 0.5,-0.027 0.1,-0.013 0.204,-0.013 0.29733,-0.027 0.13067,-0.013 0.26533,-0.013 0.40133,-0.027 0.052,-0.013 0.10934,-0.013 0.10934,-0.013 20.22933,-1.6933 37.30666,-14.1733 45.66133,-31.6266 -10.084,9.72 -23.19867,17.4133 -36.86,19.4933 -2.65067,0.4 -5.296,0.6 -7.948,0.6 -13.5,0 -26.624,-5.1867 -36.43733,-14.8 -13.156,-12.8933 -15.75467,-31.0267 -14.572,-48.6667 0.35333,-5.2266 1.104,-10.6 2.28533,-15.9066" /><path
       id="path54"
       style="fill:#1c2041;fill-opacity:1;fill-rule:nonzero;stroke:none;stroke-width:0.133333"
       d="m 969.69731,1100.6667 c -0.26,-1.8667 -1.52,-2.72 -2.92667,-2.7867 -9.88533,-4.1067 -20.864,-8.2933 -31.62,-8.7867 -4.624,-0.1866 -9.31733,0.027 -13.94266,0.093 -2.14,0.04 -4.40134,-0.12 -6.52534,0.1333 -3.87066,0.4533 -6.11466,5.76 -7.81866,8.88 -2.18134,4.0667 -3.97334,8.4133 -5.276,12.8533 -4.90534,16.68 -3.828,38.2534 7.876,52.0267 12.04666,14.16 34.68133,14.6133 47.45733,1.2133 7.136,-7.4666 10.396,-17.7333 12.19867,-27.68 2.192,-11.9333 2.292,-23.9466 0.57733,-35.9466" /><path
       id="path56"
       style="fill:#ffffff;fill-opacity:1;fill-rule:nonzero;stroke:none;stroke-width:0.133333"
       d="m 911.99998,1147.4667 c 0.95866,3.4266 -0.57334,10.7466 -4.12,10.7466 -3.54667,0 -19.52534,-8.6266 -19.52534,-12.1733 0,-3.5467 7.54667,-11.1067 11.104,-11.1067 3.54667,0 11.292,8.0667 12.54134,12.5334" /><path
       id="path58"
       style="fill:#ffffff;fill-opacity:1;fill-rule:nonzero;stroke:none;stroke-width:0.133333"
       d="m 966.04664,1159.6667 c 0.62,2.28 0.21867,4.5466 -1.98933,5.8 -3.92667,2.1733 -11.05733,-2.4134 -11.78667,-6.4934 -0.53066,-2.84 3.56267,-6.48 6.224,-6.48 3.08934,0 6.56267,3.6267 7.552,7.1734" /><path
       id="path60"
       style="fill:#1c2041;fill-opacity:1;fill-rule:nonzero;stroke:none;stroke-width:0.133333"
       d="m 988.19331,1141.6533 c 0.61333,-66.1333 -89.12,-76.7333 -111.31867,-17.36 -0.43733,1.1867 -0.46266,11.52 2.47467,9.12 18.396,-14.9466 28.41067,-29.7066 54.348,-31.6266 30.14133,-2.2267 40.688,19.6 52.05333,42.3466 1.39467,2.8134 2.44267,-1.2533 2.44267,-2.48" /><path
       id="path62"
       style="fill:#1c2041;fill-opacity:1;fill-rule:nonzero;stroke:none;stroke-width:0.133333"
       d="m 651.64532,1253.8533 c 4.532,20.9867 24.50533,38.84 47.16133,33.7467 27.10533,-6.08 36.224,-29.9333 39.42266,-55.1067 0.5,-4.04 -5.81199,-3.9866 -6.31733,0 -2.18266,17.1734 -6.756,33.7867 -21.63066,44.28 -21.552,15.2 -47.71867,-2.2133 -52.552,-24.6 -0.86,-3.9733 -6.93734,-2.2933 -6.084,1.68" /><path
       id="path64"
       style="fill:#1c2041;fill-opacity:1;fill-rule:nonzero;stroke:none;stroke-width:0.133333"
       d="m 806.48398,1252.1733 c -4.61467,21.36 -22.744,33.08 -44.23867,28.2534 -21.224,-4.76 -27.61466,-29.5734 -29.93333,-47.9334 -0.50533,-3.9866 -6.81733,-4.04 -6.312,0 2.96934,23.5334 10.66667,45.36 34.55733,54.0134 23.81734,8.64 47.136,-10.0934 52.01067,-32.6534 0.85867,-3.9733 -5.224,-5.6533 -6.084,-1.68" /><path
       id="path66"
       style="fill:#f1b6a7;fill-opacity:1;fill-rule:nonzero;stroke:none;stroke-width:0.133333"
       d="m 572.70799,1209.04 c -7.568,0 -15.20267,1.8667 -22.50534,3.3733 -4.75466,0.9867 -9.52,1.4267 -14.30133,1.4267 -5.256,0 -10.52667,-0.5333 -15.79733,-1.4667 -6.5,-1.1466 -13.42134,-2.3466 -20.208,-2.3466 -2.568,0 -5.11467,0.1733 -7.59867,0.5866 -8.36533,1.3734 -17.19333,5.2534 -23.136,11.3734 -14.67733,15.12 -8.93733,38.1866 7.50533,49.24 13.94267,9.3733 31.26,12.8533 48.432,12.8533 9.5,0 18.94267,-1.0667 27.756,-2.7733 12.04134,-2.3467 24.124,-6.9334 33.18134,-15.44 8.16133,-7.6667 13.61466,-18.9867 13.40666,-30.28 -0.21866,-12.0534 -7.28133,-23.6934 -19.724,-25.9467 -2.32266,-0.4267 -4.66133,-0.6 -7.01066,-0.6" /><path
       id="path68"
       style="fill:#f1b6a7;fill-opacity:1;fill-rule:nonzero;stroke:none;stroke-width:0.133333"
       d="m 985.70264,1209.04 c -7.56266,0 -15.18666,1.8667 -22.50533,3.3733 -4.75467,0.9867 -9.52533,1.4267 -14.296,1.4267 -5.256,0 -10.532,-0.5333 -15.808,-1.4667 -6.47867,-1.1466 -13.41067,-2.3466 -20.19733,-2.3466 -2.55734,0 -5.10934,0.1733 -7.604,0.5866 -8.35467,1.3734 -17.188,5.2534 -23.12534,11.3734 -14.688,15.12 -8.95333,38.1866 7.5,49.24 13.93734,9.3733 31.25467,12.8533 48.432,12.8533 9.5,0 18.93734,-1.0667 27.75067,-2.7733 12.04667,-2.3467 24.12933,-6.9334 33.18667,-15.44 8.15732,-7.6667 13.60932,-18.9867 13.41202,-30.28 -0.2294,-12.0534 -7.2974,-23.6934 -19.72936,-25.9467 -2.328,-0.4267 -4.66666,-0.6 -7.016,-0.6" /><path
       id="path70"
       style="fill:#1c2041;fill-opacity:1;fill-rule:nonzero;stroke:none;stroke-width:0.133333"
       d="m 782.87998,1188.8533 c -7.224,-10.0933 -18.43733,-16.7066 -30.47867,-19.4 -10.86,-2.4266 -22.03733,-1.8266 -32.85466,0.3867 -4.396,0.52 -8.73467,1.32 -12.97333,2.5867 -10.75067,3.24 -20.276,9.5066 -26.66667,18.84 -6.032,8.8266 -7.90133,20.2933 -3.86,30.3333 4.13067,10.3067 12.66667,18.1467 22.75067,22.56 11.21333,4.9067 23.68133,6.4533 35.83333,7.0267 11.96266,0.56 24.31733,-0.8134 35.00933,-6.5734 9.33867,-5.0533 17.22933,-13.68 19.71467,-24.2 2.54133,-10.7466 -0.0427,-22.6 -6.47467,-31.56" /><g
       transform="matrix(0.13358266,0,0,-0.13358266,0,2829.3333)"
       id="g72"><path
         id="path74"
         style="fill:#cda179;fill-opacity:1;fill-rule:nonzero;stroke:none"
         d="m 3618.53,15143.9 c 90.54,174.2 180.95,348.5 271.6,522.7 86.79,167.1 296.08,434.5 308.45,620 -203.69,13.4 -564.84,-128.1 -750.16,-198.5 -256.01,-97.1 -501.67,-221.2 -731.56,-369.9 -262.05,-169.4 -536.61,-309.4 -787.24,-499.4 -256.35,-194.6 -495.55,-412 -713.11,-649.1 116.54,9.7 230.39,51.6 325.72,119.5 -150.39,-112.9 -256.4,-283.2 -291.48,-467.8 41.63,-0.7 82.06,28.3 94.89,67.9 -79.57,-157.7 -116.23,-337 -104.77,-513.5 -8.14,-6 -12.58,3.1 -12,12.2 0.51,7.5 4.48,14.9 12.67,14.3 18.13,-1.7 25.78,-23.8 29.24,-41.6 13.61,-71 27.34,-142 40.94,-212.9 10.1,-52.3 24.4,-111 70.61,-137.5 46.16,-26.7 122.62,20 98.22,67.2 -10.18,-187.1 43.43,-377.1 150.02,-531.3 15.72,46.7 31.39,93.3 47.14,140 15.33,-140.6 86.87,-274 195.5,-364.6 37.82,36 55.12,92.1 44.14,143.2 17.11,-178.4 84.99,-351.6 193.53,-493.9 23.28,23.2 33.38,59 25.67,91.1 62.26,-199.4 168,-381.8 272.91,-562.4 23.75,-40.7 53.89,-85.9 100.8,-91.2 46.67,-5.3 86.78,67.9 44.52,88.7 66.25,-123.1 148.59,-237.6 244.24,-339.6 46.93,-50.2 126.52,-99 177.47,-52.7 16.38,14.9 24.53,36.5 31.74,57.4 122.15,352.9 121.95,746.8 -0.43,1099.5 30.06,-38.8 70.69,-69.8 116.43,-88.1 -61.26,213.8 -122.36,427.9 -183.53,641.8 26.63,-39.8 67.29,-70 112.99,-83.8 -3.94,160.8 -15.94,321.2 -35.99,480.7 -26.2,-51.9 69.48,-92.2 110.42,-51 40.94,41.3 35.68,107.8 31.7,165.8 -31.58,458.1 186.06,892.3 397.73,1299.6 20.44,39.1 40.63,78.1 60.98,117.2" /></g><path
       id="path76"
       style="fill:#efdfd0;fill-opacity:1;fill-rule:nonzero;stroke:none;stroke-width:0.133333"
       d="m 165.71333,985.57335 c 0,0 -0.0827,0.0133 -0.12533,0.0133 0,0 0.005,0 0.005,0.0133 l 0.256,-0.0133 c 0,0 -0.0947,-0.0133 -0.136,-0.0133 m 18.94267,52.35995 c 1.25066,0.7334 2.656,1.0534 4.08933,1.0534 0.0827,0 0.16133,0 0.24933,-0.013 -0.0827,0 -0.16133,0.013 -0.244,0.013 -1.43333,0 -2.844,-0.32 -4.09466,-1.0534 m 4.604,1.04 h -0.0413 0.0413 m -0.13467,0 h -0.0893 0.0893 m 34.98933,42.2667 c -2.104,6.2267 -4.19733,12.4533 -6.29733,18.6933 l 6.29733,-18.6933 m 27.984,46.6533 c -0.0107,0.013 -0.036,0.04 -0.052,0.053 0.016,-0.013 0.0413,-0.04 0.052,-0.053 m -0.16133,0.2 c -0.0307,0.04 -0.0733,0.08 -0.0987,0.12 0.0253,-0.04 0.068,-0.08 0.0987,-0.12 m -0.17734,0.2134 c -0.052,0.053 -0.104,0.12 -0.156,0.1866 0.052,-0.067 0.104,-0.1333 0.156,-0.1866 m -0.19733,0.2266 c -0.12533,0.16 -0.27067,0.32 -0.41733,0.4667 0.14666,-0.1467 0.292,-0.3067 0.41733,-0.4667 m -0.42667,0.4934 c -0.0627,0.067 -0.14133,0.1333 -0.20933,0.2133 0.068,-0.08 0.14667,-0.1467 0.20933,-0.2133 m -0.224,0.2266 c -0.0573,0.08 -0.13066,0.1467 -0.19866,0.2134 0.068,-0.067 0.14133,-0.1334 0.19866,-0.2134 m -0.224,0.24 c -0.068,0.067 -0.136,0.1334 -0.204,0.2 0.068,-0.067 0.136,-0.1333 0.204,-0.2 m -0.224,0.2267 c -0.0787,0.08 -0.15733,0.1467 -0.23466,0.2267 0.0773,-0.08 0.156,-0.1467 0.23466,-0.2267 m 90.5,120 c 0,0 -0.005,0 -0.016,0 0.0107,0 0.016,0 0.016,0 m -0.13067,0.12 c -0.0267,0.027 -0.052,0.053 -0.0733,0.08 0.0213,-0.027 0.0467,-0.053 0.0733,-0.08 m -0.10933,0.1067 c -1.32267,1.2 -2.98933,2.0133 -4.75067,2.0133 -0.21866,0 -0.42666,-0.013 -0.64533,-0.04 0.21867,0.027 0.44267,0.04 0.66133,0.04 1.75067,0 3.412,-0.8133 4.73467,-2.0133 m 29.86,31.8666 c 0.056,0.067 0.10933,0.1334 0.156,0.1867 -0.0467,-0.067 -0.1,-0.12 -0.156,-0.1867 m 1.056,1.1734 c 0.0787,0.093 0.15733,0.1733 0.23467,0.2666 -0.0773,-0.093 -0.156,-0.1733 -0.23467,-0.2666 m 1.1,1.2133 c 0.0773,0.067 0.14,0.1467 0.20267,0.2133 -0.0627,-0.067 -0.136,-0.1466 -0.20267,-0.2133" /><path
       id="path78"
       style="fill:#e1b587;fill-opacity:1;fill-rule:nonzero;stroke:none;stroke-width:0.133333"
       d="m 417.43732,1018.16 c -1.536,1.3067 -3.536,1.88 -5.568,1.88 -0.02,0 -0.0413,0 -0.0413,0 h 0.0467 c 2.03733,0 4.02666,-0.5733 5.56266,-1.88 m -6.16666,1.8667 h 0.0267 -0.0267 m 0.276,0 c 0.016,0.013 0.0413,0.013 0.0413,0.013 0,0 -0.0253,0 -0.0413,-0.013 m -3.932,45.7066 c 0.016,0.3067 0.0253,0.64 0.0413,0.96 -0.016,-0.32 -0.0253,-0.64 -0.0413,-0.96 m 0.0627,1.5467 c 0.088,2.6267 0.17734,5.2667 0.244,7.8933 v 0 c -0.0573,-2.6266 -0.14533,-5.2666 -0.244,-7.8933" /><g
       transform="matrix(0.13348,0,0,-0.13348,0,2829.3333)"
       id="g80"><path
         id="path82"
         style="fill:#c19068;fill-opacity:1;fill-rule:nonzero;stroke:none"
         d="m 4174.5,16300 c -12.02,0 -24.47,-0.4 -37.42,-1.2 -121.08,-72 -234.78,-157 -340.57,-250 -152.56,-134.1 -290.64,-285.2 -412.23,-447.8 -123.61,-165.4 -231.24,-343.1 -318.4,-530.3 -83.47,-179.1 -147.62,-368.2 -183.24,-562.7 -29.23,-160 -38.08,-325.1 -17.13,-486.5 4.3,-21.9 7.37,-43.9 9.91,-66.2 1.92,-16.8 -12.99,-26.2 -27.54,-26.2 -11.6,0 -22.94,6 -25.33,19 -3.94,23 -7.37,46.1 -10.38,69.3 l -0.19,0.7 c -9.17,46.4 -23.96,91.6 -49.44,131 -22.04,-34.9 -34.03,-75.5 -39.91,-116.5 -14.83,-104.1 1.71,-211 6.86,-315.3 4.73,-98.1 3.75,-204.7 -48.73,-291.2 -5.04,-8.4 -14.6,-13.3 -23.92,-13.3 -6.67,0 -13.3,2.5 -18.23,7.9 l -3,3.5 c -14.2,-95.6 4.76,-195.6 23.49,-288.8 22.82,-113.7 53.42,-228.4 53.96,-345.2 0.12,-12.6 -11.27,-26.9 -24.81,-26.9 -0.66,0 -1.37,0 -2.07,0.1 -7.37,0.7 -14.16,3.3 -21.07,5.5 -19.87,-58.8 -30.87,-126.7 -83.03,-165.3 -20.29,-15 -42.15,-21.2 -64,-21.2 -36.33,0 -72.85,17.1 -103.04,39.7 -51.91,39.2 -93.81,90 -133.02,141.4 -42.07,55 -80.35,112.9 -117.73,171.2 -14.28,22.3 -28.48,44.7 -42.92,67.1 -9.32,14.3 -19.85,27.9 -27.16,43.3 -16.66,35 -29.65,71.9 -43.34,108 -37.74,99.7 -73.87,200.7 -122.48,295.6 -18.51,36 -36.34,70.4 -63.96,94.9 l -0.89,0.6 -0.32,0.2 -3.63,2.5 -3.44,1.9 -0.62,0.4 -2.45,-0.5 -0.9,-0.4 -1.95,-1.9 -2.27,-2.6 -1.28,-1.7 -6.21,-11 c -4.48,-8.7 -13.85,-13.1 -23.25,-13.1 -9.33,0 -18.73,4.4 -23.18,13.1 -62.08,121.4 -72.62,257.4 -70.67,391.6 1.49,112.8 12.1,227.3 -0.07,339.9 -11.36,-20 -19.98,-41.7 -27.47,-63.8 -15.18,-44.6 -27.51,-89.7 -46.4,-132.9 -4.21,-9.7 -11.9,-13.7 -19.98,-13.7 -14.08,0 -29.37,12 -30.08,27.2 -7.37,154.4 32.19,305 44.21,458 -5.16,-4 -11.59,-5.8 -17.83,-5.8 -16.54,0 -32.51,12.6 -25.4,32.3 60.24,168.2 134.42,330.9 211.48,491.8 21.15,44 42.45,87.8 63.76,131.7 -235.52,-183.6 -456.17,-386.4 -658.14,-606.4 116.63,9.7 230.56,51.6 325.97,119.6 v 0 0 c -150.51,-113.1 -256.6,-283.5 -291.71,-468.3 0.43,0 0.86,0 1.32,0 33.6,0 66.07,19.3 83.86,47.8 -69.03,-145 -102.43,-306.7 -96.35,-467.2 0.32,0 0.59,0 0.59,0 0.66,0 1.05,0 1.05,0 h 0.32 c 18.14,-1.6 25.79,-23.7 29.26,-41.6 13.62,-71 27.36,-142.1 40.97,-213 10.11,-52.4 24.42,-111.1 70.67,-137.6 v 0 c 9.37,-5.4 19.93,-7.9 30.67,-7.9 0.62,0 1.21,0.1 1.83,0.1 h 0.31 0.67 c 0.23,0 0.43,0 0.7,0 h 0.31 c 25.75,1.4 51.54,16.2 62.71,35.9 -1.25,-174.4 52.01,-349 151.23,-492.6 v 0 c 15.73,46.7 31.41,93.4 47.18,140.1 v 0 c 15.33,-140.7 86.93,-274.2 195.64,-364.9 v 0 c 0.58,0.5 1.17,1.1 1.76,1.7 0.04,0 0.07,0.1 0.15,0.2 0.51,0.4 1.02,0.9 1.53,1.4 0.07,0.1 0.11,0.2 0.19,0.2 0.51,0.6 1.06,1.1 1.49,1.6 0,0 0.11,0.1 0.11,0.2 0.51,0.5 1.1,1 1.57,1.6 0,0 0.07,0.1 0.07,0.1 1.1,1.2 2.18,2.4 3.12,3.6 0.12,0 0.19,0.2 0.31,0.2 0.39,0.6 0.78,1 1.17,1.5 0.24,0.2 0.35,0.4 0.59,0.7 0.19,0.2 0.51,0.5 0.74,0.9 0.24,0.3 0.51,0.6 0.82,1 0.12,0.2 0.31,0.3 0.39,0.5 22.59,28.8 34.42,65.9 33.13,102.6 20.87,-169.5 87.28,-333.2 190.72,-468.9 18.19,18.1 28.33,43.9 28.22,69.6 0,7.3 -0.79,14.4 -2.54,21.5 v 0 0 c 62.31,-199.5 168.14,-382.1 273.13,-562.8 23.77,-40.8 53.93,-86 100.87,-91.3 v 0 c 1.64,-0.1 3.2,-0.2 4.84,-0.2 13.19,0 25.68,6 35.59,15.1 0.03,0.1 0.16,0.1 0.27,0.2 0.16,0.2 0.35,0.4 0.55,0.6 0.3,0.2 0.58,0.5 0.85,0.8 0.09,0 0.12,0.1 0.12,0.1 11.47,11.3 19.2,26.5 20.09,40.5 56.98,-100.4 124.76,-194.9 201.82,-281 0.42,-0.5 0.82,-0.9 1.17,-1.4 2.25,-2.4 4.53,-4.9 6.74,-7.3 0.59,-0.7 1.18,-1.4 1.76,-2 2.15,-2.4 4.38,-4.8 6.48,-7.1 0.5,-0.6 1.05,-1.1 1.52,-1.7 2.42,-2.6 4.83,-5.1 7.18,-7.7 33.63,-36 84.2,-71.3 128.88,-71.3 17.64,0 34.34,5.5 48.74,18.6 16.39,14.8 24.54,36.5 31.76,57.4 61.1,176.6 91.62,363.4 91.58,550.3 -0.12,186.8 -30.75,373.6 -92.01,550.1 v 0 0 c 30.08,-38.9 70.75,-69.8 116.52,-88.2 -61.31,214 -122.45,428.2 -183.67,642.3 v 0 0 c 26.65,-39.8 67.34,-70 113.07,-83.9 -0.5,19.7 -1.17,39.5 -1.82,59.2 -0.09,1.5 -0.09,2.9 -0.16,4.4 -0.13,2.4 -0.2,4.8 -0.32,7.1 -4.87,123.3 -14.75,246.2 -29.11,368.7 12.1,-14.9 34.19,-25 56.5,-26.2 h 0.2 c 0.66,0 1.21,0 1.87,-0.1 0.12,0 0.31,0 0.31,0 0.67,0 1.18,0 1.68,0 0,0 0.28,0 0.43,0 15.22,0 30.21,4.2 41.71,14 1.13,1 2.15,2 3.2,3 28.14,28.4 34.46,68.7 34.38,110 0,18.8 -1.37,37.7 -2.66,55.9 -2.1,30.4 -3.07,60.8 -3,91 0.32,425 203.22,829 401.04,1209.6 20.45,39.1 40.66,78.2 61.03,117.3 90.61,174.3 181.09,348.8 271.81,523.1 86.86,167.2 296.31,434.8 308.69,620.5 v 0 c -8.82,0.6 -17.95,0.8 -27.32,0.8" /></g><g
       transform="matrix(0.133764,0,0,-0.133764,0,2829.3333)"
       id="g84"><path
         id="path86"
         style="fill:#cda179;fill-opacity:1;fill-rule:nonzero;stroke:none"
         d="m 7320.97,15123.3 c -90.53,174.1 -180.79,348.1 -271.31,522.1 -86.6,166.8 -293.28,449.3 -305.74,634.6 202.13,20 561.79,-143.4 746.85,-213.7 255.58,-97 501,-220.9 730.65,-369.4 261.73,-169.2 535.76,-308.9 786.04,-498.8 256.12,-194.3 494.81,-411.4 712.23,-648.1 -116.46,9.7 -230.19,51.5 -325.28,119.3 150.07,-112.8 256.05,-282.8 291.1,-467.2 -41.67,-0.7 -81.93,28.3 -94.77,67.8 79.54,-157.5 116.02,-336.6 104.7,-512.8 7.97,-6 12.46,3.1 11.87,12.2 -0.55,7.5 -4.4,14.9 -12.46,14.2 -18.26,-1.6 -25.93,-23.6 -29.36,-41.5 -13.74,-70.8 -27.29,-141.7 -40.88,-212.5 -10.2,-52.3 -24.46,-110.9 -70.56,-137.4 -45.98,-26.6 -122.53,19.9 -98,67.1 10.09,-186.8 -43.57,-376.6 -149.82,-530.6 -15.77,46.7 -31.5,93.3 -47.23,139.8 -15.23,-140.3 -86.72,-273.6 -195.19,-364.1 -37.74,36 -55.1,92 -43.97,143 -17.24,-178.1 -84.96,-351 -193.31,-493.2 -23.33,23.2 -33.41,58.9 -25.74,91 -62.07,-199.1 -167.67,-381.3 -272.56,-561.6 -23.51,-40.7 -53.7,-85.8 -100.41,-91.1 -46.8,-5.3 -86.83,67.8 -44.71,88.6 -66.11,-123 -148.38,-237.3 -243.78,-339.2 -46.96,-50.1 -126.46,-98.8 -177.24,-52.6 -16.31,14.8 -24.49,36.4 -31.76,57.3 -121.96,352.5 -121.84,745.8 0.49,1098.1 -30.01,-38.9 -70.62,-69.7 -116.14,-88.1 60.93,213.6 122.18,427.4 183.16,641 -26.52,-39.8 -67.21,-69.9 -113,-83.7 4.09,160.5 16.16,320.7 36.06,480 26.24,-51.7 -69.35,-92 -110.23,-50.8 -40.97,41.2 -35.82,107.6 -31.78,165.5 31.58,457.5 -185.79,891 -397.14,1297.8 -20.21,39 -40.5,78 -60.78,117" /></g><path
       id="path88"
       style="fill:#efdfd0;fill-opacity:1;fill-rule:nonzero;stroke:none;stroke-width:0.133333"
       d="m 1279.588,861.58668 c 0.032,0.0267 0.073,0.0667 0.1,0.10667 -0.027,-0.04 -0.068,-0.08 -0.1,-0.10667 m 2.9066,2.92 c 0.312,0.32 0.6094,0.62667 0.9227,0.93334 -0.3133,-0.30667 -0.6107,-0.61334 -0.9227,-0.93334 m 1.2814,1.30667 c 0.344,0.34667 0.6826,0.69333 1.0306,1.05333 -0.3426,-0.36 -0.6866,-0.70666 -1.0306,-1.05333 m 1.312,1.33333 c 0.3706,0.38667 0.7453,0.77334 1.1146,1.14667 -0.3693,-0.37333 -0.744,-0.76 -1.1146,-1.14667 m 1.3386,1.37334 c 0.4067,0.42666 0.824,0.85333 1.2294,1.26666 -0.416,-0.41333 -0.8227,-0.84 -1.2294,-1.26666 m 1.328,1.37333 c 2.7667,2.86667 5.516,5.76 8.24,8.68 -2.724,-2.92 -5.4733,-5.81333 -8.24,-8.68 m 8.3387,8.77333 c 0.4067,0.45334 0.824,0.89334 1.24,1.33334 -0.416,-0.44 -0.8333,-0.88 -1.24,-1.33334 m 1.3707,1.48 c 0.4266,0.46667 0.8586,0.92 1.2813,1.38667 -0.4227,-0.46667 -0.8547,-0.92 -1.2813,-1.38667 m 1.3386,1.44 c 0.448,0.49334 0.9,0.98667 1.348,1.48 v 0 c -0.448,-0.49333 -0.9,-0.98666 -1.348,-1.48 m -1.8493,103.98667 c 0,0 -0.089,0.0133 -0.1253,0.0133 l 0.24,0.0133 c 0,-0.0133 0,-0.0133 0,-0.0133 -0.032,0 -0.068,-0.0133 -0.1147,-0.0133" /><path
       id="path90"
       style="fill:#e5bd93;fill-opacity:1;fill-rule:nonzero;stroke:none;stroke-width:0.133333"
       d="m 1044.792,1017.76 c 1.5773,1.6 3.7546,2.28 5.9786,2.28 0.021,0 0.047,0 0.047,0 h -0.031 c -2.2293,0 -4.4173,-0.68 -5.9946,-2.28 m 6.5826,2.2667 h -0.015 0.015 m -0.2706,0 c -0.011,0.013 -0.036,0.013 -0.057,0.013 0.021,0 0.047,0 0.057,-0.013" /><path
       id="path92"
       style="fill:#efdfd0;fill-opacity:1;fill-rule:nonzero;stroke:none;stroke-width:0.133333"
       d="m 1277.9946,1037.9333 c -1.24,0.7334 -2.6613,1.0534 -4.088,1.0534 -0.079,0 -0.156,-0.013 -0.2346,-0.013 0.079,0.013 0.1613,0.013 0.2493,0.013 1.428,0 2.8333,-0.32 4.0733,-1.0534 m -4.5933,1.04 c 0,0 0.02,0 0.031,0 -0.011,0 -0.015,0 -0.015,0 m 0.1293,0 c 0.021,0 0.047,0 0.047,0 0,0 -0.025,0 -0.047,0 m -22.9533,51.6934 v 0 0 m -0.5307,0.9466 c 0,0 -0.011,0 -0.011,0 0,0 0.011,0 0.011,0 m -1.6453,2.8 c -0.01,0.013 -0.016,0.027 -0.027,0.04 0.011,-0.013 0.021,-0.027 0.027,-0.04 m -0.5573,0.9067 c -0.016,0.027 -0.032,0.053 -0.048,0.08 0.016,-0.027 0.032,-0.053 0.048,-0.08 m -0.5787,0.92 c -0.021,0.027 -0.041,0.067 -0.068,0.1067 0.027,-0.04 0.047,-0.08 0.068,-0.1067 m -0.584,0.92 c -0.031,0.04 -0.047,0.08 -0.077,0.1067 0.031,-0.027 0.047,-0.067 0.077,-0.1067 m -0.604,0.92 c -0.031,0.04 -0.057,0.08 -0.077,0.1067 0.02,-0.027 0.047,-0.067 0.077,-0.1067 m -0.62,0.92 c -0.02,0.027 -0.025,0.053 -0.047,0.08 0.021,-0.027 0.027,-0.053 0.047,-0.08 m -34.0987,29.8667 c 0.037,0.04 0.068,0.08 0.104,0.12 -0.036,-0.04 -0.067,-0.08 -0.104,-0.12 m 0.1774,0.2 c 0.047,0.053 0.099,0.093 0.1453,0.16 -0.047,-0.067 -0.099,-0.1067 -0.1453,-0.16 m 0.2026,0.2133 c 0.057,0.053 0.1147,0.12 0.172,0.1733 -0.057,-0.053 -0.1146,-0.12 -0.172,-0.1733 m 0.2187,0.2267 c 0.057,0.053 0.1253,0.12 0.1827,0.1866 -0.057,-0.067 -0.1254,-0.1333 -0.1827,-0.1866 m 0.22,0.2133 c 0.072,0.08 0.14,0.1467 0.224,0.2267 -0.084,-0.08 -0.152,-0.1467 -0.224,-0.2267 m -91.0427,119.4267 c 0.021,0.027 0.037,0.04 0.047,0.067 -0.01,-0.027 -0.025,-0.04 -0.047,-0.067 m 0.095,0.1066 c 1.4107,1.5734 3.3427,2.7067 5.4373,2.7067 0.2187,0 0.4427,-0.013 0.6614,-0.04 -0.2187,0.027 -0.4374,0.04 -0.6507,0.04 -2.0893,0 -4.0373,-1.1333 -5.448,-2.7067 m -29.2293,32.6267 c -0.011,0.013 -0.037,0.04 -0.052,0.053 0.02,-0.013 0.041,-0.04 0.052,-0.053 m -1.0267,1.1467 c -0.057,0.067 -0.1147,0.12 -0.1667,0.1733 0.052,-0.053 0.1094,-0.1067 0.1667,-0.1733 m -1.0987,1.1866 c -0.047,0.067 -0.099,0.12 -0.1506,0.1734 0.052,-0.053 0.104,-0.1067 0.1506,-0.1734 m -1.7813,1.9067 c -3.688,3.7467 -8.64,7.2933 -13.4373,8.4533 4.7973,-1.16 9.7493,-4.7066 13.4373,-8.4533 m -23.0627,6.36 c 0.104,0.1067 0.208,0.1867 0.308,0.28 -0.1,-0.093 -0.204,-0.1733 -0.308,-0.28 m 6.2707,2.48 c 0.084,0 0.152,0.013 0.224,0.013 v 0 c -0.072,0 -0.14,-0.013 -0.224,-0.013" /><g
       transform="matrix(0.13354666,0,0,-0.13354666,0,2829.3333)"
       id="g94"><path
         id="path96"
         style="fill:#c19068;fill-opacity:1;fill-rule:nonzero;stroke:none"
         d="m 6755.61,16300 c 16.73,-185.6 219.76,-463.9 305.57,-629.1 90.67,-174.2 181.08,-348.5 271.75,-522.8 20.32,-39.1 40.64,-78.2 60.88,-117.2 197.58,-380.4 400.53,-784.3 400.88,-1209 0,-30.3 -0.97,-60.6 -3.08,-91 -1.25,-18.2 -2.65,-37.1 -2.65,-55.8 -0.08,-41.3 6.24,-81.7 34.48,-110 v 0 c 11.81,-11.9 28.19,-17 44.89,-17 h 0.43 c 0.5,0 0.96,0 1.51,0 0.16,0 0.35,0 0.43,0 0.63,0 1.25,0 1.92,0.1 h 0.11 c 22.31,1.2 44.5,11.3 56.48,26.2 -17.05,-145.8 -27.78,-292.4 -31.48,-439.2 45.86,13.9 86.62,44 113.18,83.9 v 0 0 c -61.08,-214 -122.43,-428.1 -183.46,-642 45.6,18.3 86.27,49.2 116.33,88.1 v 0 0 c -61.26,-176.4 -91.95,-363.1 -91.99,-549.8 -0.12,-186.8 30.41,-373.5 91.5,-550.1 7.28,-20.8 15.47,-42.5 31.82,-57.3 v 0 c 0.77,-0.8 1.55,-1.4 2.3,-2 13.41,-11.3 28.63,-16.3 44.65,-16.6 0.63,0 1.14,0 1.67,0 7.65,0 15.49,1.1 23.45,2.9 35.92,8.7 73,35.3 100.62,63.3 1.64,1.7 3.31,3.4 4.83,5.1 2.43,2.6 4.84,5.2 7.38,7.9 0.39,0.4 0.78,0.8 1.13,1.3 2.33,2.5 4.68,5 6.98,7.6 0.38,0.4 0.81,0.8 1.25,1.3 2.45,2.7 4.87,5.4 7.29,8.2 0.11,0.1 0.31,0.3 0.39,0.4 77.1,86.1 144.96,180.8 202.06,281.4 0.78,-12.3 6.83,-25.7 16.1,-36.3 0.16,-0.2 0.28,-0.4 0.35,-0.5 0.08,-0.1 0.16,-0.2 0.36,-0.3 10.57,-11.8 25.15,-20.3 40.8,-20.3 1.59,0 3.23,0.1 4.87,0.3 v 0 c 46.79,5.2 77.03,50.5 100.58,91.2 105.06,180.6 210.83,363.1 273,562.5 v 0 0 c -1.67,-7 -2.49,-14.2 -2.57,-21.4 -0.08,-25.7 10.06,-51.5 28.35,-69.7 103.38,135.7 169.77,299.3 190.67,468.7 -1.36,-39.9 12.64,-80.2 39.2,-109.8 0.27,-0.4 0.5,-0.7 0.77,-0.9 0.2,-0.2 0.39,-0.4 0.55,-0.6 0.35,-0.4 0.74,-0.8 1.09,-1.2 0.16,-0.2 0.32,-0.3 0.43,-0.5 0.43,-0.4 0.86,-0.9 1.29,-1.3 0.12,-0.1 0.2,-0.2 0.35,-0.3 0.43,-0.5 0.94,-1 1.37,-1.4 0.11,-0.1 0.23,-0.2 0.27,-0.3 0.54,-0.5 1.05,-1.1 1.68,-1.6 v 0 c 108.65,90.6 180.25,224.1 195.51,364.7 15.75,-46.7 31.51,-93.3 47.3,-140 1.44,2.1 2.93,4.2 4.36,6.4 0.16,0.2 0.21,0.4 0.36,0.6 1.32,1.9 2.73,4 4.06,6 0.15,0.3 0.35,0.6 0.58,0.9 1.37,2 2.65,4 3.94,6 0.23,0.3 0.35,0.6 0.58,0.9 1.29,2 2.54,4 3.87,6 0.19,0.4 0.34,0.6 0.5,0.9 1.41,2.1 2.69,4.2 3.98,6.3 0.12,0.1 0.24,0.3 0.36,0.5 1.31,2.2 2.68,4.4 3.97,6.5 0.08,0.2 0.16,0.3 0.2,0.4 4.16,6.9 8.27,13.9 12.24,20.9 0,0 0.08,0 0.08,0 1.29,2.4 2.69,4.8 3.97,7.1 v 0 c 71.38,128.7 109.13,275.9 108,422.9 11.23,-19.7 37.12,-34.4 62.79,-35.8 0,0 0.15,0 0.23,0 l 0.86,-0.1 c 0.16,0 0.35,0 0.35,0 0.32,0 0.47,0 0.47,0 0.71,0 1.29,0 1.88,0 10.68,0 21.32,2.4 30.61,7.8 v 0 c 46.17,26.6 60.45,85.2 70.66,137.6 13.62,70.9 27.19,141.9 40.96,212.9 3.43,17.8 11.11,39.9 29.4,41.6 v 0 c 0.27,0 0.67,0 0.67,0 0.62,0 0.89,0 1.13,0 6,160.4 -27.31,322 -96.3,466.9 17.71,-28.4 50.16,-47.8 83.86,-47.8 0.43,0 0.89,0.1 1.28,0.1 -35.1,184.7 -141.26,355 -291.57,468 v 0 0 c 95.25,-68 209.17,-109.8 325.81,-119.6 -3.35,3.7 -6.74,7.4 -10.09,11.1 -0.2,0.1 -0.32,0.2 -0.43,0.4 -3.17,3.5 -6.4,6.9 -9.6,10.4 -0.32,0.3 -0.71,0.7 -0.98,1 -3.11,3.3 -6.24,6.7 -9.28,10 -0.27,0.3 -0.5,0.5 -0.74,0.8 -20.4,21.8 -40.98,43.4 -61.7,64.9 -0.31,0.3 -0.46,0.5 -0.74,0.8 -3.04,3.2 -6.16,6.3 -9.21,9.5 -0.53,0.5 -1.16,1.1 -1.67,1.7 -2.77,2.8 -5.57,5.7 -8.35,8.6 -0.74,0.7 -1.4,1.4 -2.11,2.1 -2.6,2.7 -5.14,5.3 -7.71,7.9 -0.94,0.9 -1.84,1.9 -2.69,2.8 -2.34,2.3 -4.57,4.6 -6.91,7 -6.98,7 -13.92,14.1 -21.01,21.1 -0.2,0.3 -0.51,0.5 -0.75,0.8 -144.73,145 -297.81,281.8 -458.13,409.5 21.79,-66.9 45.43,-133.5 56.7,-202.9 10.22,-62.1 8.77,-139.4 -50.66,-169.9 46.18,-223.1 194.69,-424.7 168.09,-660.7 -1.87,-16.1 -13.65,-26.3 -26.99,-26.3 -6.24,0 -12.79,2.2 -18.88,7.3 -3.93,3.3 -11.66,6 -18.64,8.4 -2.33,-13.9 -4.6,-27.9 -6.39,-41.9 -25.39,-196.3 -9.24,-440.4 -181.55,-577 -20.62,-16.4 -39.23,-27.4 -65.83,-29.8 -21.06,-1.8 -41.11,0.3 -60.06,-11.1 -39.11,-23.5 -61.51,-74.1 -76.94,-115 -37.44,-99.2 -51.49,-205.5 -72.59,-308.7 -16.26,-79.1 -39.89,-157.1 -62.67,-234.5 -21.88,-74.2 -44.65,-152.4 -83.96,-219.7 -13.5,-23.1 -30.93,-48.1 -56.32,-58.9 -7.61,-3.3 -15.37,-4.8 -22.9,-4.8 -17.98,0 -34.98,8.6 -47.93,22.9 -28.15,30.8 -41.61,74.8 -52.84,114 -9.36,32.3 -16.62,64.5 -21.61,97.8 -10.45,68.9 -16.41,140.4 -39.54,206.7 -4.3,12.6 -8.46,22.3 -16.46,34.7 l -2.69,3.8 -0.32,0.6 -5.46,5.5 -4.52,3.2 c -3,1.2 -5.19,1.8 -7.37,1.8 -2.88,0 -5.58,-1.1 -9.71,-3.1 -15.18,-7 -26.87,-18.7 -38.46,-30.7 -5.22,-5.5 -11.54,-7.9 -17.86,-7.9 -11.46,0 -22.77,8 -26.99,19.8 -23.9,67.5 -25.78,140.8 -21.49,211.5 8,134.5 41.19,269.7 27.19,404.6 -3.04,29.8 -9.75,59.2 -20.17,87.1 -8.14,21.7 -21.68,52.3 -40.55,64.2 h -0.08 0.08 l 0.78,0.3 c -5.66,-1.5 -2.93,-0.5 -6.56,-2.3 -8.62,-4.6 -16.23,-11.2 -23.71,-17.4 -24.5,-20.7 -49.03,-41 -76.48,-57.7 -3.75,-2.4 -8.35,-3.5 -13.06,-3.5 -11.9,0 -24.61,7.1 -26.37,19.6 -5.18,35.8 -6.94,71.8 -5.85,108.1 2.31,78.5 14.75,156.1 20.79,234.3 4.91,65.3 6.71,133.2 2.62,198.7 -1.85,31 -6.06,62.7 -17.91,91.7 -2.8,7 -8.85,24.3 -15.75,28.2 -1.8,1 -3.99,1.4 -6.32,1.4 -6.4,0 -14,-3 -18.76,-4.3 -14.59,-3.8 -30.18,-8.4 -45.36,-8.4 -9.91,0 -19.66,1.9 -28.89,7.3 -24.11,13.9 -34.06,49.5 -39.87,75.1 -14.12,62.1 -5.92,126.9 -19.58,188.9 -17.43,78.7 -38.96,156.8 -65.25,233.1 -23.55,68.2 -52.06,133.5 -81.39,199.3 -23.98,54.1 -49.3,112.2 -92.98,153.6 -15.16,14.3 -36.58,30.7 -56.85,33.7 -4.76,0.7 -9.68,0.9 -14.78,0.9 -4.3,0 -8.67,-0.1 -13.07,-0.3 -4.05,-0.1 -8.08,-0.2 -12.17,-0.2 -4.67,0 -9.35,0.2 -13.81,0.7 -62.98,7.2 -110.64,58.4 -150.89,103 -89.51,99.3 -157.9,216.6 -221.12,333.7 -32.41,59.9 -63.34,120.6 -94.7,180.9 -29.96,57.7 -58.34,117.8 -93.48,172.6 -15.76,24.5 -34.71,47.4 -52.22,70.8 -26.96,36 -53.63,72.2 -79.91,108.9 -26.64,37.5 -53.24,75.3 -78.59,114.2 m 2278.97,-3431.7 v 0 0 m -637.77,-967.9 v 0 0" /></g><path
       id="path98"
       style="fill:#1c2041;fill-opacity:1;fill-rule:nonzero;stroke:none;stroke-width:0.133333"
       d="m 508.91199,1058.1733 0.75466,-0.2666 c 4.84934,-2.16 10.20267,-3.0267 15.24,-4.5867 3.06667,-0.96 6.156,-1.8933 9.23867,-2.84 2.97467,-0.9067 6.448,-1.5333 9.188,-3.04 1.86933,-1.04 2.97333,-2.8133 3.208,-4.9333 0.432,-3.7334 -1.07733,-7.32 -3.52,-10.0534 -3.104,-3.48 -6.912,-2.5866 -10.828,-1.3066 -1.60533,0.52 -3.22,1.08 -4.80267,1.7066 -5.19733,2.0667 -10.05733,5.0934 -13.87466,9.2 -3.328,3.5867 -8.656,10.4 -5.84934,15.44 l 0.5,0.6 0.74534,0.08" /><path
       id="path100"
       style="fill:#1c2041;fill-opacity:1;fill-rule:nonzero;stroke:none;stroke-width:0.133333"
       d="m 965.77598,1058.04 -0.76,-0.2667 c -4.85467,-2.12 -10.20934,-2.9466 -15.276,-4.4666 -3.09467,-0.92 -6.172,-1.8267 -9.26134,-2.7467 -2.98933,-0.8933 -6.448,-1.48 -9.20266,-2.96 -1.896,-1.0267 -3.01067,-2.8 -3.27067,-4.9067 -0.45867,-3.7333 1.036,-7.32 3.45333,-10.0933 3.07734,-3.5067 6.87467,-2.6533 10.796,-1.4 1.63067,0.52 3.23467,1.0667 4.824,1.68 5.224,2.0133 10.10934,5 13.96267,9.0667 3.36533,3.5733 8.72933,10.3333 5.97467,15.4 l -0.48,0.5866 -0.76,0.1067" /><path
       id="path102"
       style="fill:#deb790;fill-opacity:1;fill-rule:nonzero;stroke:none;stroke-width:0.133333"
       d="m 704.91732,1057.7467 c -2.40667,-7.7734 -4.808,-15.5334 -7.21467,-23.3067 -0.9,-2.9067 -5.47867,-1.6533 -4.572,1.2667 2.40533,7.76 4.80667,15.5333 7.21333,23.2933 0.90134,2.9067 5.46267,1.6667 4.57334,-1.2533" /><path
       id="path104"
       style="fill:#deb790;fill-opacity:1;fill-rule:nonzero;stroke:none;stroke-width:0.133333"
       d="m 725.06798,1013.7733 c -0.96933,-8.1066 -1.21333,-16.19995 -0.74533,-24.35995 0.18267,-3.05334 -4.56267,-3.02667 -4.724,0 -0.484,8.16 -0.23467,16.25335 0.73467,24.35995 0.35466,2.9867 5.09333,3.0267 4.73466,0" /><path
       id="path106"
       style="fill:#deb790;fill-opacity:1;fill-rule:nonzero;stroke:none;stroke-width:0.133333"
       d="m 735.39065,1069.52 c -0.156,-5.6533 0.464,-11.16 1.88533,-16.6267 0.76533,-2.96 -3.80267,-4.2133 -4.568,-1.2666 -1.52533,5.8666 -2.224,11.8266 -2.04133,17.8933 0.084,3.04 4.81733,3.0533 4.724,0" /><path
       id="path108"
       style="fill:#deb790;fill-opacity:1;fill-rule:nonzero;stroke:none;stroke-width:0.133333"
       d="m 747.38531,1120.2133 c 0.40667,-5.0666 0.82267,-10.1333 1.21867,-15.2 0.25067,-3.0533 -4.48933,-3.0266 -4.724,0 -0.40133,5.0667 -0.82267,10.1334 -1.21867,15.2 -0.24933,3.04 4.48934,3.0134 4.724,0" /><path
       id="path110"
       style="fill:#deb790;fill-opacity:1;fill-rule:nonzero;stroke:none;stroke-width:0.133333"
       d="m 764.80665,1028.9733 c 0,-2.3866 0,-4.7466 0,-7.12 0,-3.04 -4.728,-3.04 -4.728,0 0,2.3734 0,4.7334 0,7.12 0,3.0534 4.728,3.0534 4.728,0" /><path
       id="path112"
       style="fill:#deb790;fill-opacity:1;fill-rule:nonzero;stroke:none;stroke-width:0.133333"
       d="m 773.97331,989.06668 c 0.688,-2.70667 1.38667,-5.4 2.08934,-8.09333 0.76533,-2.96 -3.808,-4.21334 -4.57334,-1.26667 -0.69733,2.69333 -1.39066,5.4 -2.09333,8.09333 -0.76533,2.96 3.80667,4.21334 4.57733,1.26667" /><path
       id="path114"
       style="fill:#deb790;fill-opacity:1;fill-rule:nonzero;stroke:none;stroke-width:0.133333"
       d="m 680.55732,990.81335 c -0.65067,-3.72 -1.312,-7.45334 -1.964,-11.17334 -0.53067,-3 -5.09334,-1.73333 -4.572,1.26667 0.656,3.72 1.30666,7.44 1.95733,11.17333 0.53733,3 5.09467,1.72 4.57867,-1.26666" /><path
       id="path116"
       style="fill:#deb790;fill-opacity:1;fill-rule:nonzero;stroke:none;stroke-width:0.133333"
       d="m 698.91198,968.46668 c -0.80266,-2.32 -1.6,-4.64 -2.376,-6.97333 -0.97333,-2.88 -5.54666,-1.64 -4.57733,1.25333 0.80133,2.33333 1.588,4.65333 2.38,6.98667 0.98933,2.86666 5.56267,1.62666 4.57333,-1.26667" /><path
       id="path118"
       style="fill:#deb790;fill-opacity:1;fill-rule:nonzero;stroke:none;stroke-width:0.133333"
       d="m 674.30665,917.82668 c -0.70267,-4.4 -1.40533,-8.78667 -2.10933,-13.17333 -0.47867,-3.01334 -5.04134,-1.73334 -4.56667,1.25333 0.69733,4.4 1.4,8.78667 2.104,13.17333 0.47867,3.01334 5.04667,1.73334 4.572,-1.25333" /><path
       id="path120"
       style="fill:#deb790;fill-opacity:1;fill-rule:nonzero;stroke:none;stroke-width:0.133333"
       d="m 716.12532,938.70668 c 0,-5.74667 0,-11.49333 0,-17.24 0,-3.05333 -4.724,-3.05333 -4.724,0 0,5.74667 0,11.49333 0,17.24 0,3.05333 4.724,3.05333 4.724,0" /><path
       id="path122"
       style="fill:#deb790;fill-opacity:1;fill-rule:nonzero;stroke:none;stroke-width:0.133333"
       d="m 746.64531,947.16001 c -0.80666,-3.93333 -0.33866,-7.8 1.39067,-11.42666 1.308,-2.73334 -2.76533,-5.14667 -4.08267,-2.38667 -2.308,4.84 -2.948,9.81333 -1.88533,15.08 0.61467,2.98667 5.17733,1.72 4.57733,-1.26667" /><path
       id="path124"
       style="fill:#deb790;fill-opacity:1;fill-rule:nonzero;stroke:none;stroke-width:0.133333"
       d="m 771.59331,902.76001 c 1,-3.05333 2,-6.09333 3,-9.14666 0.94267,-2.90667 -3.624,-4.13333 -4.572,-1.25333 -1,3.05333 -2.00533,6.09333 -3.00533,9.13333 -0.948,2.92 3.62933,4.14666 4.57733,1.26666" /><path
       id="path126"
       style="fill:#deb790;fill-opacity:1;fill-rule:nonzero;stroke:none;stroke-width:0.133333"
       d="m 780.79198,856.13335 c 0.69733,-2.01333 1.396,-4.04 2.104,-6.05333 1,-2.89334 -3.57867,-4.13334 -4.57867,-1.26667 -0.69733,2.02667 -1.4,4.04 -2.104,6.06667 -1,2.89333 3.57867,4.12 4.57867,1.25333" /><path
       id="path128"
       style="fill:#deb790;fill-opacity:1;fill-rule:nonzero;stroke:none;stroke-width:0.133333"
       d="m 734.17198,877.84002 c 0.39067,-3.70667 0.776,-7.41334 1.156,-11.13334 0.312,-3.04 -4.42666,-3.01333 -4.72933,0 -0.37467,3.72 -0.76533,7.42667 -1.156,11.13334 -0.32267,3.04 4.41733,3 4.72933,0" /><path
       id="path130"
       style="fill:#deb790;fill-opacity:1;fill-rule:nonzero;stroke:none;stroke-width:0.133333"
       d="m 787.10398,942.76001 c 0,-4.72 0,-9.45333 0,-14.18666 0,-3.05334 -4.72933,-3.05334 -4.72933,0 0,4.73333 0,9.46666 0,14.18666 0,3.05334 4.72933,3.05334 4.72933,0" /><path
       id="path132"
       style="fill:#deb790;fill-opacity:1;fill-rule:nonzero;stroke:none;stroke-width:0.133333"
       d="m 632.97332,849.84002 c -2.44267,-8.42667 -4.192,-16.98667 -5.16667,-25.70667 -0.33333,-3 -5.06667,-3.04 -4.73333,0 1.02533,9.14667 2.776,18.12 5.328,26.96 0.84933,2.93333 5.42133,1.69333 4.572,-1.25333" /><path
       id="path134"
       style="fill:#deb790;fill-opacity:1;fill-rule:nonzero;stroke:none;stroke-width:0.133333"
       d="m 668.22398,873.21335 c -0.33866,-1.69333 -0.672,-3.37333 -1.01066,-5.06667 -0.59867,-3 -5.16667,-1.72 -4.57334,1.25334 0.33867,1.69333 0.672,3.38666 1.016,5.08 0.59467,2.98666 5.156,1.72 4.568,-1.26667" /><path
       id="path136"
       style="fill:#deb790;fill-opacity:1;fill-rule:nonzero;stroke:none;stroke-width:0.133333"
       d="m 699.68265,849.49335 c -0.928,-11.16 -1.172,-22.30667 -0.704,-33.48 0.13067,-3.05333 -4.59867,-3.04 -4.73333,0 -0.47467,11.17333 -0.21867,22.32 0.70266,33.48 0.24934,3.02667 4.984,3.05333 4.73467,0" /><path
       id="path138"
       style="fill:#deb790;fill-opacity:1;fill-rule:nonzero;stroke:none;stroke-width:0.133333"
       d="m 659.33332,812.97335 c 0,-3.04 0,-6.09333 0,-9.13333 0,-3.05334 -4.724,-3.05334 -4.724,0 0,3.04 0,6.09333 0,9.13333 0,3.05333 4.724,3.05333 4.724,0" /><path
       id="path140"
       style="fill:#deb790;fill-opacity:1;fill-rule:nonzero;stroke:none;stroke-width:0.133333"
       d="m 611.35465,768.80002 c -1.98533,-7.10667 -3.98,-14.21333 -5.97467,-21.32 -0.828,-2.93333 -5.40133,-1.69333 -4.57333,1.26667 2,7.09333 3.99067,14.19999 5.98,21.31999 0.82267,2.93334 5.39067,1.69334 4.568,-1.26666" /><path
       id="path142"
       style="fill:#deb790;fill-opacity:1;fill-rule:nonzero;stroke:none;stroke-width:0.133333"
       d="m 648.20265,752.13335 c 0.704,-6.76 1.40133,-13.52 2.12,-20.28 0.328,-3.02666 -4.416,-3 -4.73467,0 -0.708,6.76 -1.416,13.52 -2.11466,20.28 -0.312,3.02667 4.41733,3 4.72933,0" /><path
       id="path144"
       style="fill:#deb790;fill-opacity:1;fill-rule:nonzero;stroke:none;stroke-width:0.133333"
       d="m 697.68798,763.88002 c 2.04134,-6.76 4.08267,-13.52 6.11867,-20.28 0.89067,-2.92 -3.68667,-4.17333 -4.56667,-1.25333 -2.04266,6.76 -4.084,13.52 -6.12,20.26666 -0.88533,2.93333 3.68667,4.17333 4.568,1.26667" /><path
       id="path146"
       style="fill:#deb790;fill-opacity:1;fill-rule:nonzero;stroke:none;stroke-width:0.133333"
       d="m 749.61998,815.00002 c -0.36533,-5.92 -0.0787,-11.77334 0.95867,-17.61334 0.52533,-2.98666 -4.032,-4.26666 -4.568,-1.26666 -1.11467,6.26666 -1.52667,12.53333 -1.12,18.88 0.18266,3.02666 4.92133,3.04 4.72933,0" /><path
       id="path148"
       style="fill:#deb790;fill-opacity:1;fill-rule:nonzero;stroke:none;stroke-width:0.133333"
       d="m 748.49998,740.60002 c 0.73467,-3.37333 1.45867,-6.74667 2.19333,-10.12 0.62934,-2.97333 -3.928,-4.24 -4.57866,-1.25333 -0.72934,3.36 -1.45867,6.74666 -2.188,10.10666 -0.63467,2.98667 3.928,4.24 4.57333,1.26667" /><path
       id="path150"
       style="fill:#deb790;fill-opacity:1;fill-rule:nonzero;stroke:none;stroke-width:0.133333"
       d="m 795.08398,784.57335 c 0.556,-7.72 2.036,-15.22667 4.41067,-22.58666 0.93733,-2.92 -3.63067,-4.16 -4.568,-1.26667 -2.50534,7.77333 -3.99467,15.70666 -4.572,23.85333 -0.224,3.04 4.50933,3.02667 4.72933,0" /><path
       id="path152"
       style="fill:#deb790;fill-opacity:1;fill-rule:nonzero;stroke:none;stroke-width:0.133333"
       d="m 816.42131,813.60002 c 1.78667,-8.08 4.72934,-15.62667 8.91734,-22.76 1.56266,-2.62667 -2.532,-5.01334 -4.07867,-2.38667 -4.396,7.46667 -7.536,15.42667 -9.40533,23.89333 -0.652,2.97334 3.91066,4.24 4.56666,1.25334" /><path
       id="path154"
       style="fill:#deb790;fill-opacity:1;fill-rule:nonzero;stroke:none;stroke-width:0.133333"
       d="m 851.59331,725.90669 c 2.032,-4.06667 4.03734,-8.13334 6.04667,-12.2 1.34933,-2.72 -2.728,-5.12 -4.08267,-2.38667 -2.01066,4.06667 -4.02133,8.13333 -6.04133,12.2 -1.36533,2.72 2.724,5.12 4.07733,2.38667" /><path
       id="path156"
       style="fill:#deb790;fill-opacity:1;fill-rule:nonzero;stroke:none;stroke-width:0.133333"
       d="m 809.46931,706.16002 c 1.66667,-4.73333 3.35867,-9.46667 5.04667,-14.2 1.03067,-2.88 -3.54667,-4.12 -4.57333,-1.26667 -1.692,4.73334 -3.36934,9.46667 -5.052,14.2 -1.016,2.89334 3.55733,4.12 4.57866,1.26667" /><path
       id="path158"
       style="fill:#deb790;fill-opacity:1;fill-rule:nonzero;stroke:none;stroke-width:0.133333"
       d="m 721.19332,693.30669 c 0,-7.09334 0,-14.18667 0,-21.28 0,-3.06667 -4.72934,-3.06667 -4.72934,0 0,7.09333 0,14.18666 0,21.28 0,3.05333 4.72934,3.05333 4.72934,0" /><path
       id="path160"
       style="fill:#deb790;fill-opacity:1;fill-rule:nonzero;stroke:none;stroke-width:0.133333"
       d="m 609.36932,706.94669 c -3.22934,-9.72 -5.176,-19.62667 -5.80667,-29.85334 -0.18267,-3.04 -4.92266,-3.06666 -4.72933,0 0.64533,10.64 2.61466,20.98667 5.964,31.12 0.96266,2.88 5.53066,1.64 4.572,-1.26666" /><path
       id="path162"
       style="fill:#deb790;fill-opacity:1;fill-rule:nonzero;stroke:none;stroke-width:0.133333"
       d="m 669.31198,703.85335 c -0.90533,-5.76 -1.82266,-11.52 -2.73866,-17.29333 -0.48,-3 -5.04667,-1.72 -4.568,1.26667 0.92133,5.76 1.828,11.52 2.74,17.28 0.47333,3.01333 5.036,1.73333 4.56666,-1.25334" /><path
       id="path164"
       style="fill:#deb790;fill-opacity:1;fill-rule:nonzero;stroke:none;stroke-width:0.133333"
       d="m 854.88531,748.34669 c 2.33334,-4.06667 4.66134,-8.16 6.98934,-12.24 1.52133,-2.65334 -2.572,-5.04 -4.07734,-2.38667 -2.33333,4.08 -4.66133,8.16 -6.99466,12.24 -1.52134,2.65333 2.56666,5.04 4.08266,2.38667" /><path
       id="path166"
       style="fill:#deb790;fill-opacity:1;fill-rule:nonzero;stroke:none;stroke-width:0.133333"
       d="m 883.67731,693.04002 c 1.344,-3.72 2.68667,-7.44 4.036,-11.16 1.04133,-2.88 -3.536,-4.10667 -4.57333,-1.26667 -1.33734,3.73334 -2.68667,7.45334 -4.04134,11.17334 -1.036,2.88 3.54134,4.10666 4.57867,1.25333" /><path
       id="path168"
       style="fill:#deb790;fill-opacity:1;fill-rule:nonzero;stroke:none;stroke-width:0.133333"
       d="m 768.98398,1072.36 c 0.52667,-1.9733 1.06267,-3.9333 1.604,-5.9067 0.79733,-2.9466 -3.76533,-4.2 -4.572,-1.2666 -0.532,1.9733 -1.07867,3.9333 -1.60933,5.9066 -0.792,2.9467 3.76533,4.2 4.57733,1.2667" /><path
       id="path170"
       style="fill:#deb790;fill-opacity:1;fill-rule:nonzero;stroke:none;stroke-width:0.133333"
       d="m 708.77598,1104.36 c -2.52533,-6.5067 -4.63066,-13.12 -6.35466,-19.8667 -0.76534,-2.96 -5.328,-1.7066 -4.572,1.2534 1.73866,6.7466 3.83333,13.3733 6.35333,19.8666 1.08933,2.8134 5.67733,1.5867 4.57333,-1.2533" /><path
       id="path172"
       style="fill:#deb790;fill-opacity:1;fill-rule:nonzero;stroke:none;stroke-width:0.133333"
       d="m 732.43198,1153.6133 c -0.62533,-2.7466 -0.33866,-5.2 0.64667,-7.8266 1.07733,-2.8667 -3.50533,-4.0934 -4.568,-1.2667 -1.28133,3.4133 -1.448,6.8133 -0.656,10.36 0.676,2.9733 5.23867,1.7067 4.57733,-1.2667" /><path
       id="path174"
       style="fill:#deb790;fill-opacity:1;fill-rule:nonzero;stroke:none;stroke-width:0.133333"
       d="m 761.91198,1143.6 c 0.86933,-6.4933 2.92667,-12.52 6.26,-18.1733 1.56267,-2.6267 -2.532,-5.0134 -4.07867,-2.3867 -3.536,5.9733 -5.81733,12.4267 -6.74933,19.3067 -0.40667,2.9866 4.16133,4.2666 4.568,1.2533" /><path
       id="path500"
       style="fill:#d7ae8d;fill-opacity:1;fill-rule:nonzero;stroke:none;stroke-width:0.133333"
       d="m 933.07331,1500.9733 c -12.74533,15.48 -25.29733,30.5067 -37.48533,44.6934 4.51066,-5.2534 9.068,-10.6134 13.66666,-16.0667 0.0267,-0.04 0.068,-0.08 0.0893,-0.12 0.244,-0.2933 0.49466,-0.5733 0.744,-0.8667 3.428,-4.0933 6.88533,-8.2133 10.36,-12.3866 0.292,-0.3467 0.59333,-0.72 0.89066,-1.08 3.896,-4.6667 7.80134,-9.3867 11.73467,-14.1734 v 0 m -38.00533,45.3067 c -0.156,0.1733 -0.29734,0.3467 -0.448,0.52 0.15066,-0.1733 0.292,-0.3467 0.448,-0.52" /><path
       id="path504"
       style="fill:#d7ae8d;fill-opacity:1;fill-rule:nonzero;stroke:none;stroke-width:0.133333"
       d="m 895.58798,1545.6667 c -0.16667,0.2133 -0.348,0.4133 -0.52,0.6133 0.172,-0.2 0.344,-0.4 0.52,-0.6133 m -0.968,1.1333 c -5.22934,6.0933 -10.40134,12.0133 -15.48,17.7733 v 0 c 0.376,-0.4266 0.74,-0.84 1.11066,-1.2533 4.71867,-5.36 9.51467,-10.8667 14.36934,-16.52" /><path
       id="path506"
       style="fill:#936159;fill-opacity:1;fill-rule:nonzero;stroke:none;stroke-width:0.133333"
       d="m 880.25064,1563.32 c -0.37066,0.4133 -0.73466,0.8267 -1.11066,1.2533 v 0 c 0.37066,-0.4266 0.74,-0.84 1.11066,-1.2533" /><path
       id="path508"
       style="fill:#be8f74;fill-opacity:1;fill-rule:nonzero;stroke:none;stroke-width:0.133333"
       d="m 921.33864,1515.1467 c -0.29733,0.36 -0.59866,0.7333 -0.89066,1.08 0.292,-0.36 0.59333,-0.72 0.89066,-1.08 m -11.25066,13.4666 c -0.24934,0.2934 -0.5,0.5734 -0.744,0.8667 0.244,-0.2933 0.49466,-0.5733 0.744,-0.8667 m -0.83334,0.9867 c -4.59866,5.4533 -9.156,10.8133 -13.66666,16.0667 -0.176,0.2133 -0.348,0.4133 -0.52,0.6133 -0.156,0.1733 -0.29734,0.3467 -0.448,0.52 -4.85467,5.6533 -9.65067,11.16 -14.36934,16.52 9.42667,-10.6933 19.11334,-21.9867 29.004,-33.72" /></g></svg>
