<?xml version="1.0" encoding="UTF-8" standalone="no"?>
<svg
   xmlns:dc="http://purl.org/dc/elements/1.1/"
   xmlns:cc="http://creativecommons.org/ns#"
   xmlns:rdf="http://www.w3.org/1999/02/22-rdf-syntax-ns#"
   xmlns:svg="http://www.w3.org/2000/svg"
   xmlns="http://www.w3.org/2000/svg"
   viewBox="0 0 512 512"
   height="512"
   width="512"
   xml:space="preserve"
   id="svg2"
   version="1.1"><metadata
     id="metadata8"><rdf:RDF><cc:Work
         rdf:about=""><dc:format>image/svg+xml</dc:format><dc:type
           rdf:resource="http://purl.org/dc/dcmitype/StillImage" /><dc:title></dc:title></cc:Work></rdf:RDF></metadata><defs
     id="defs6"><linearGradient
       id="linearGradient18"
       spreadMethod="pad"
       gradientTransform="matrix(666.66665,0,0,666.66665,0,333.33334)"
       gradientUnits="userSpaceOnUse"
       y2="0"
       x2="1"
       y1="0"
       x1="0"><stop
         id="stop14"
         offset="0"
         style="stop-opacity:1;stop-color:#f3f3f2" /><stop
         id="stop16"
         offset="1"
         style="stop-opacity:1;stop-color:#e9e9e7" /></linearGradient></defs><g
     id="g569"
     transform="matrix(1.3365269,0,0,1.3365269,-373.73549,-67.920391)"><path
       id="path68"
       style="fill:#dcddda;fill-opacity:1;fill-rule:nonzero;stroke:none;stroke-width:0.133333"
       d="m 620.81465,370.85201 c 0,3.584 -49.388,6.48933 -110.31066,6.48933 -60.92267,0 -110.31067,-2.90533 -110.31067,-6.48933 0,-3.58267 49.388,-6.488 110.31067,-6.488 60.92266,0 110.31066,2.90533 110.31066,6.488" /><path
       id="path70"
       style="fill:#4c2d1f;fill-opacity:1;fill-rule:nonzero;stroke:none;stroke-width:0.133333"
       d="m 473.41732,367.14268 v 3.96933 h -11.78 c 0,0 3.58534,-4.60933 8.19467,-5.63333 1.664,0.896 3.58533,1.664 3.58533,1.664" /><path
       id="path72"
       style="fill:#4c2d1f;fill-opacity:1;fill-rule:nonzero;stroke:none;stroke-width:0.133333"
       d="m 566.09065,367.14268 v 3.96933 h -11.78 c 0,0 3.58534,-4.60933 8.19467,-5.63333 1.66533,0.896 3.58533,1.664 3.58533,1.664" /><path
       id="path74"
       style="fill:#4c2d1f;fill-opacity:1;fill-rule:nonzero;stroke:none;stroke-width:0.133333"
       d="m 453.17199,367.14268 v 3.96933 h -11.78 c 0,0 3.58533,-4.60933 8.19467,-5.63333 1.664,0.896 3.58533,1.664 3.58533,1.664" /><path
       id="path76"
       style="fill:#4c2d1f;fill-opacity:1;fill-rule:nonzero;stroke:none;stroke-width:0.133333"
       d="m 594.31999,367.14268 v 3.96933 h -11.77867 c 0,0 3.584,-4.60933 8.19333,-5.63333 1.66534,0.896 3.58534,1.664 3.58534,1.664" /><path
       id="path78"
       style="fill:#ab743d;fill-opacity:1;fill-rule:nonzero;stroke:none;stroke-width:0.133333"
       d="m 566.10532,287.87201 c 0.0773,0.78267 0.188,1.56267 0.36,2.33334 3.37867,15.07066 10.39333,21.56666 11.952,26.244 1.56,4.676 -4.676,34.55733 -10.912,51.96666 -2.85867,1.29867 -7.276,-3.37867 -7.276,-3.37867 0,0 15.33067,-34.29733 10.65333,-45.47066 -2.52666,-6.03733 -12.868,-14.80933 -22.49866,-24.54667 2.824,-5.93466 8.956,-9.76133 17.72133,-7.148" /><path
       id="path80"
       style="fill:#653b29;fill-opacity:1;fill-rule:nonzero;stroke:none;stroke-width:0.133333"
       d="m 581.53599,242.13735 c -2.46534,14.79066 -16.848,31.21866 -15.43067,45.73466 -8.76533,-2.61333 -14.89733,1.21334 -17.72133,7.148 -8.18934,-8.28133 -15.864,-17.26266 -17.77467,-25.86 3.064,-7.556 45.69467,-27.94533 50.92667,-27.02266" /><path
       id="path82"
       style="fill:#804a35;fill-opacity:1;fill-rule:nonzero;stroke:none;stroke-width:0.133333"
       d="m 464.11199,263.87201 c 8.704,16.28667 8.424,60.65334 8.424,71.88533 0,11.232 -2.528,26.11467 -4.77467,29.484 1.96667,1.12267 6.74,2.24667 6.74,2.24667 0,0 2.15467,-9.27467 2.52667,-17.69067 1.96533,-44.36666 5.05466,-72.72799 6.74,-81.43199 -1.68534,-3.36934 -19.656,-4.49334 -19.656,-4.49334" /><path
       id="path84"
       style="fill:#ba7d42;fill-opacity:1;fill-rule:nonzero;stroke:none;stroke-width:0.133333"
       d="m 594.33599,287.87201 c 0.076,0.78267 0.18666,1.56267 0.36,2.33334 3.37733,15.07066 10.39333,21.56666 11.95199,26.244 1.55867,4.676 -4.67733,34.55733 -10.91333,51.96666 -2.85866,1.29867 -7.27466,-3.37867 -7.27466,-3.37867 0,0 15.32933,-34.29733 10.652,-45.47066 -2.52667,-6.03733 -12.868,-14.80933 -22.49734,-24.54667 2.82267,-5.93466 8.95467,-9.76133 17.72134,-7.148" /><path
       id="path86"
       style="fill:#804a35;fill-opacity:1;fill-rule:nonzero;stroke:none;stroke-width:0.133333"
       d="m 582.07865,227.31335 c 11.12134,19.67466 3.42134,35.50133 12.25734,60.55866 -8.76667,-2.61333 -14.89867,1.21334 -17.72134,7.148 -8.19066,-8.28133 -15.86533,-17.26266 -17.776,-25.86 3.06534,-7.556 18.008,-42.76933 23.24,-41.84666" /><path
       id="path88"
       style="fill:#804a35;fill-opacity:1;fill-rule:nonzero;stroke:none;stroke-width:0.133333"
       d="m 549.99199,197.56268 c 36.22133,5.62 37.83333,39.77733 26.06266,59.74267 -13.972,23.696 -47.10533,16.11466 -112.81333,14.71066 -43.60666,-0.932 -56.79333,-61.22266 -39.15066,-80.06799 12.24533,-13.08 35.172,-9.45467 53.32799,-1.20267 13.23067,6.01467 49.31734,3.208 72.57334,6.81733" /><path
       id="path90"
       style="fill:#804a35;fill-opacity:1;fill-rule:nonzero;stroke:none;stroke-width:0.133333"
       d="m 443.86532,263.87201 c 8.70534,16.28667 8.424,60.65334 8.424,71.88533 0,11.232 -2.52666,26.11467 -4.77333,29.484 1.96533,1.12267 6.74,2.24667 6.74,2.24667 0,0 2.15333,-9.27467 2.52667,-17.69067 1.96533,-44.36666 5.05466,-72.72799 6.74,-81.43199 -1.68534,-3.36934 -19.65734,-4.49334 -19.65734,-4.49334" /><path
       id="path92"
       style="fill:#804a35;fill-opacity:1;fill-rule:nonzero;stroke:none;stroke-width:0.133333"
       d="m 558.63199,200.17601 c 14.892,2.20667 25.37066,6.34267 29.508,11.85734 -7.44667,1.93066 -21.78667,-0.55067 -29.508,-11.85734" /><path
       id="path94"
       style="fill:#804a35;fill-opacity:1;fill-rule:nonzero;stroke:none;stroke-width:0.133333"
       d="m 448.56799,184.66268 c -9.57067,-2.568 -36.416,-7.46933 -36.416,-7.46933 0,0 -18.908,17.97333 -20.308,25.444 -1.40133,7.46933 19.37467,39.45066 45.28667,58.592 7.236,-19.84134 23.576,-64.19467 11.43733,-76.56667" /><path
       id="path96"
       style="fill:#724330;fill-opacity:1;fill-rule:nonzero;stroke:none;stroke-width:0.133333"
       d="m 415.68799,209.61601 c 8.816,-7.98933 8.40933,-22.72133 7.48933,-30.34799 -6.24266,-1.20134 -11.02533,-2.07467 -11.02533,-2.07467 0,0 -18.908,17.97333 -20.308,25.444 -0.78133,4.16533 5.33867,15.95466 15.39467,28.88666 9.196,0.27734 12.93333,-12.10933 8.44933,-21.908" /><path
       id="path98"
       style="fill:#6e412d;fill-opacity:1;fill-rule:nonzero;stroke:none;stroke-width:0.133333"
       d="m 385.83466,151.53202 c -1.46534,-1.2 -5.99734,-10.796 -7.46267,-15.32667 -1.46667,-4.532 -5.99733,-13.99467 -9.596,-10.796 -2.00133,1.77867 -4.36133,7.07067 -5.036,11.61867 -0.54,3.62933 -0.16267,6.24133 6.368,8.10666 8.62133,2.46267 12.39467,7.72934 12.39467,7.72934 0,0 1.73333,0.26666 3.332,-1.332" /><path
       id="path100"
       style="fill:#804a35;fill-opacity:1;fill-rule:nonzero;stroke:none;stroke-width:0.133333"
       d="m 375.97199,139.27068 c -2.94533,-6.98266 -5.69467,-13.19333 -9.74667,-10.06533 0.81467,-1.668 1.71067,-3.04933 2.55067,-3.796 3.59867,-3.19867 8.12933,6.264 9.596,10.796 1.46533,4.53067 5.99733,14.12667 7.46267,15.32667 -0.41067,0.41066 -0.828,0.69466 -1.22534,0.896 -2.708,-2.47067 -5.46533,-5.64 -8.63733,-13.15734" /><path
       id="path102"
       style="fill:#6e412d;fill-opacity:1;fill-rule:nonzero;stroke:none;stroke-width:0.133333"
       d="m 402.29732,151.53202 c 1.46534,-1.2 5.99734,-10.796 7.46267,-15.32667 1.46667,-4.532 5.99733,-13.99467 9.596,-10.796 2.00133,1.77867 4.36,7.07067 5.036,11.61867 0.54,3.62933 0.16133,6.24133 -6.368,8.10666 -8.62133,2.46267 -12.396,7.72934 -12.396,7.72934 0,0 -1.732,0.26666 -3.33067,-1.332" /><path
       id="path104"
       style="fill:#804a35;fill-opacity:1;fill-rule:nonzero;stroke:none;stroke-width:0.133333"
       d="m 412.15866,139.27068 c 2.94666,-6.98266 5.696,-13.19333 9.748,-10.06533 -0.81467,-1.668 -1.71067,-3.04933 -2.55067,-3.796 -3.59867,-3.19867 -8.12933,6.264 -9.596,10.796 -1.46533,4.53067 -5.99733,14.12667 -7.46267,15.32667 0.40934,0.41066 0.828,0.69466 1.22534,0.896 2.708,-2.47067 5.46533,-5.64 8.636,-13.15734" /><path
       id="path106"
       style="fill:#a4714d;fill-opacity:1;fill-rule:nonzero;stroke:none;stroke-width:0.133333"
       d="m 362.81199,153.78402 c -2.372,-1.50934 -5.176,-8.19467 -2.804,-16.38934 2.37333,-8.19466 4.09867,-11.21466 4.52933,-13.58666 0.432,-2.372 -1.07866,-3.02 -2.156,-0.216 -1.07866,2.804 -5.832,16.61866 -9.376,16.24533 -3.544,-0.372 0.10267,-14.52 0.10267,-18.18533 0,-3.66667 -1.73467,-3.53734 -2.804,-0.432 -7.37067,21.416 -11.1,8.54533 -12.40667,-0.40667 -1.28533,-8.81467 -1.58266,-13.62533 -3.72933,-13.42933 -2.052,0.18666 -1.11733,5.42533 -0.90133,11.032 0.216,5.608 -4.744,8.84266 -8.84133,0.648 3.88133,25.66266 15.31199,38.17066 38.38666,34.72" /><path
       id="path108"
       style="fill:#caa175;fill-opacity:1;fill-rule:nonzero;stroke:none;stroke-width:0.133333"
       d="m 381.63332,158.37335 c -17.50666,-0.22267 -37.884,1.10667 -42.756,-3.76533 -4.87333,-4.87334 -16.16933,-18.60534 -17.27599,-40.75467 -0.44267,-11.07467 1.32933,-3.76533 2.21466,0.444 0.88534,4.208 11.296,35.65867 26.57867,37.652 15.28266,1.99333 31.68266,1.55067 31.68266,1.55067 l -0.444,4.87333" /><path
       id="path110"
       style="fill:#a4714d;fill-opacity:1;fill-rule:nonzero;stroke:none;stroke-width:0.133333"
       d="m 425.31999,153.78402 c 2.372,-1.50934 5.176,-8.19467 2.80267,-16.38934 -2.372,-8.19466 -4.09734,-11.21466 -4.528,-13.58666 -0.432,-2.372 1.07733,-3.02 2.156,-0.216 1.07866,2.804 5.832,16.61866 9.376,16.24533 3.54266,-0.372 -0.10267,-14.52 -0.10267,-18.18533 0,-3.66667 1.73467,-3.53734 2.804,-0.432 7.36933,21.416 11.1,8.54533 12.40533,-0.40667 1.28534,-8.81467 1.58267,-13.62533 3.73067,-13.42933 2.052,0.18666 1.116,5.42533 0.90133,11.032 -0.216,5.608 4.744,8.84266 8.84134,0.648 -3.88134,25.66266 -15.312,38.17066 -38.38667,34.72" /><path
       id="path112"
       style="fill:#caa175;fill-opacity:1;fill-rule:nonzero;stroke:none;stroke-width:0.133333"
       d="m 406.49866,158.37335 c 17.50666,-0.22267 37.88266,1.10667 42.756,-3.76533 4.87333,-4.87334 16.168,-18.60534 17.276,-40.75467 0.44266,-11.07467 -1.32934,-3.76533 -2.21467,0.444 -0.88667,4.208 -11.296,35.65867 -26.57867,37.652 -15.28266,1.99333 -31.68266,1.55067 -31.68266,1.55067 l 0.444,4.87333" /><path
       id="path114"
       style="fill:#804a35;fill-opacity:1;fill-rule:nonzero;stroke:none;stroke-width:0.133333"
       d="m 403.21199,205.81601 c 8.876,-1.44133 14.42267,-15.95866 11.62267,-29.39733 -3.03067,-14.548 -3.79334,-27.22133 -20.86,-27.22133 -17.06667,0 -18.04667,13.36933 -19.75334,30.436 -1.70666,17.068 6.84934,22.61333 11.48267,24.412 6.408,2.48666 17.508,1.77066 17.508,1.77066" /><path
       id="path116"
       style="fill:#ab703e;fill-opacity:1;fill-rule:nonzero;stroke:none;stroke-width:0.133333"
       d="m 392.88799,220.71468 c 4.66267,0 7.32667,4.66267 13.76533,1.11067 6.43867,-3.55334 5.10667,-10.65734 2.22,-17.53867 -2.88666,-6.88266 -7.548,-27.97333 -8.65866,-35.3 -1.10934,-7.32666 -11.1,-9.10266 -12.876,-0.888 -1.776,8.21467 -4.016,28.504 -7.548,36.40933 -4.892,10.948 -1.55467,16.87334 2.664,17.31734 4.21733,0.444 7.104,-1.11067 10.43333,-1.11067" /><path
       id="path118"
       style="fill:#ab703e;fill-opacity:1;fill-rule:nonzero;stroke:none;stroke-width:0.133333"
       d="m 402.24932,205.75068 c -2.02266,-1.248 2.25734,-11.572 6.38134,-8.39333 2.84266,2.192 -2.55067,10.756 -6.38134,8.39333" /><path
       id="path120"
       style="fill:#41251a;fill-opacity:1;fill-rule:nonzero;stroke:none;stroke-width:0.133333"
       d="m 403.35066,204.36668 c -1.36267,-0.84 1.52133,-7.79733 4.3,-5.656 1.916,1.47733 -1.71867,7.24933 -4.3,5.656" /><path
       id="path122"
       style="fill:#ab703e;fill-opacity:1;fill-rule:nonzero;stroke:none;stroke-width:0.133333"
       d="m 385.74532,205.75068 c 2.02267,-1.248 -2.25733,-11.572 -6.38133,-8.39333 -2.84267,2.192 2.55067,10.756 6.38133,8.39333" /><path
       id="path124"
       style="fill:#41251a;fill-opacity:1;fill-rule:nonzero;stroke:none;stroke-width:0.133333"
       d="m 384.64399,204.36668 c 1.36267,-0.84 -1.52133,-7.79733 -4.3,-5.656 -1.916,1.47733 1.71867,7.24933 4.3,5.656" /><path
       id="path126"
       style="fill:#c37d44;fill-opacity:1;fill-rule:nonzero;stroke:none;stroke-width:0.133333"
       d="m 398.79999,205.62268 c -4.02267,1.82933 -6.98533,0.78933 -9.12667,-0.22533 -2.14,-1.01334 -4.76266,1.22266 -3.94266,4.62 0.788,3.268 1.23866,7.324 8.788,7.324 4.844,0 7.66133,-2.704 9.01333,-7.324 0.68133,-2.32934 -0.644,-6.252 -4.732,-4.39467" /><path
       id="path128"
       style="fill:#41251a;fill-opacity:1;fill-rule:nonzero;stroke:none;stroke-width:0.133333"
       d="m 377.16266,171.52002 c 0,1.43733 1.16533,2.60133 2.60266,2.60133 1.43734,0 2.60267,-1.164 2.60267,-2.60133 0,-1.43734 -1.16533,-2.60267 -2.60267,-2.60267 -1.43733,0 -2.60266,1.16533 -2.60266,2.60267" /><path
       id="path130"
       style="fill:#41251a;fill-opacity:1;fill-rule:nonzero;stroke:none;stroke-width:0.133333"
       d="m 405.64266,171.52002 c 0,1.43733 1.164,2.60133 2.60133,2.60133 1.43733,0 2.60267,-1.164 2.60267,-2.60133 0,-1.43734 -1.16534,-2.60267 -2.60267,-2.60267 -1.43733,0 -2.60133,1.16533 -2.60133,2.60267" /></g></svg>
