<?xml version="1.0" encoding="UTF-8" standalone="no"?><!-- Generator: Gravit.io --><svg xmlns="http://www.w3.org/2000/svg" xmlns:xlink="http://www.w3.org/1999/xlink" style="isolation:isolate" viewBox="0 0 512 512" width="512pt" height="512pt"><defs><clipPath id="_clipPath_RQjOv2pMl1d2R5cheDOng6cemPkLFVnj"><rect width="512" height="512"/></clipPath></defs><g clip-path="url(#_clipPath_RQjOv2pMl1d2R5cheDOng6cemPkLFVnj)"><g><path d=" M 405.333 256 C 405.329 269.342 398.207 281.669 386.65 288.336 C 375.093 295.003 360.856 294.999 349.304 288.324 C 337.751 281.649 330.637 269.317 330.642 255.975 C 330.649 235.35 347.375 218.635 368 218.642 C 388.625 218.649 405.34 235.375 405.333 256 L 405.333 256 Z " fill="rgb(79,55,73)"/><path d=" M 368 144 C 305.778 144 256 193.778 256 256 C 256 318.222 305.778 368 368 368 C 430.222 368 480 318.222 480 256 C 480 193.778 430.222 144 368 144 Z  M 368 318.222 C 333.156 318.222 305.778 290.844 305.778 256 C 305.778 221.156 333.156 193.778 368 193.778 C 402.844 193.778 430.222 221.156 430.222 256 C 430.222 290.844 402.844 318.222 368 318.222 Z  M 231.111 293.333 L 144 293.333 L 144 243.556 L 231.111 243.556 L 231.111 293.333 Z  M 254.731 243.556 C 254.731 247.289 256 252.267 256 256 C 256 318.222 206.222 368 144 368 C 81.778 368 32 318.222 32 256 C 32 193.778 81.778 144 144 144 C 192.508 144 233.6 175.111 249.778 218.667 L 193.778 218.667 C 182.603 203.733 165.156 193.778 144 193.778 C 109.156 193.778 81.778 221.156 81.778 256 C 81.778 290.844 109.156 318.222 144 318.222 C 178.844 318.222 206.222 290.844 206.222 256 C 206.222 252.267 206.222 247.289 204.953 243.556 L 254.731 243.556 Z " fill="rgb(117,96,114)"/></g></g></svg>