<?xml version="1.0" encoding="UTF-8" standalone="no"?>
<svg
   xmlns:dc="http://purl.org/dc/elements/1.1/"
   xmlns:cc="http://creativecommons.org/ns#"
   xmlns:rdf="http://www.w3.org/1999/02/22-rdf-syntax-ns#"
   xmlns:svg="http://www.w3.org/2000/svg"
   xmlns="http://www.w3.org/2000/svg"
   xmlns:sodipodi="http://sodipodi.sourceforge.net/DTD/sodipodi-0.dtd"
   xmlns:inkscape="http://www.inkscape.org/namespaces/inkscape"
   viewBox="0 0 512 512"
   version="1.1"
   id="svg53445"
   sodipodi:docname="Goose.svg"
   width="512"
   height="512"
   inkscape:version="1.0.2 (e86c870879, 2021-01-15, custom)">
  <metadata
     id="metadata53451">
    <rdf:RDF>
      <cc:Work
         rdf:about="">
        <dc:format>image/svg+xml</dc:format>
        <dc:type
           rdf:resource="http://purl.org/dc/dcmitype/StillImage" />
        <dc:title />
      </cc:Work>
    </rdf:RDF>
  </metadata>
  <defs
     id="defs53449" />
  <sodipodi:namedview
     pagecolor="#ffffff"
     bordercolor="#666666"
     borderopacity="1"
     objecttolerance="10"
     gridtolerance="10"
     guidetolerance="10"
     inkscape:pageopacity="0"
     inkscape:pageshadow="2"
     inkscape:window-width="1366"
     inkscape:window-height="715"
     id="namedview53447"
     showgrid="false"
     inkscape:zoom="1.4219982"
     inkscape:cx="264.58845"
     inkscape:cy="248.12649"
     inkscape:window-x="-8"
     inkscape:window-y="-8"
     inkscape:window-maximized="1"
     inkscape:current-layer="svg53445"
     inkscape:document-rotation="0" />
  <g
     transform="matrix(1.4624535,0,0,-1.4624535,50.353117,414.87144)"
     id="g53443">
    <g
       transform="scale(0.24)"
       id="g53441">
      <path
         d="m 492.602,415.225 -19.536,10.984 C 424.72901,353.40346 436.23821,325.9506 485.273,186.913 l -12.207,-17.094 -134.3,-124.53 -3.661,-15.871 62.266,26.855 61.047,21.98 c 0,0 81.797,-12.207 111.1,-4.8828 29.303,7.3242 166.04,57.379 210,117.2 0,0 46.398,2.442 90.347,90.348 43.954,87.902 119.65,62.266 119.65,62.266 l 15.872,-8.547 52.5,15.871 -45.18,40.293 -117.2,-50.059 -96.449,-29.301 -47.613,-3.66"
         fill="#ffffff"
         id="path53415"
         sodipodi:nodetypes="ccccccccsccccccccc" />
      <path
         d="m 794.16,313.89 c 0,0 -9.769,-5.496 -3.051,-6.102 6.711,-0.613 69.59,9.153 72.641,-36.019 0,0 56.769,59.82 148.34,62.875 0,0 -4.88,28.691 -15.867,38.461 -10.987,9.77 4.887,7.933 6.717,7.324 1.83,-0.609 18.31,-8.547 22.58,-16.485 0,0 16.48,-9.765 16.48,-15.871 0,0 21.98,3.055 31.14,5.496 9.16,2.441 40.9,4.27 40.9,4.27 0,0 4.27,7.937 -19.54,12.824 -23.8,4.883 -29.91,15.262 -39.07,12.82 0,0 -10.98,20.141 -40.89,19.532 -29.91,-0.609 -37.852,-14.649 -55.556,-23.809 -17.704,-9.16 -22.589,-7.324 -28.082,-9.765 C 925.409,367 868.027,346.245 849.711,330.983 831.398,315.718 809.426,317.554 794.164,313.89"
         id="path53423" />
      <path
         d="m 860.09,263.83 c 0,0 -15.867,-52.5 -80.578,-73.254 0,0 -148.95,-151.39 -302.78,-115.98"
         fill="none"
         stroke="#000000"
         stroke-linecap="round"
         stroke-miterlimit="10"
         stroke-width="4.8833"
         id="path53425" />
      <path
         d="m 765.47,307.78 c 0,0 7.324,4.883 1.832,5.488 -5.496,0.614 -32.356,12.211 -42.735,43.344 -10.379,31.133 -28.574,67.735 -1.218,175.2 3.05,9.766 6.101,29.301 1.832,39.68 -4.269,10.379 -42.735,76.918 -92.18,126.36 -49.445,49.446 -112.61,102.85 -139.18,111.71 -10.988,3.664 -7.933,-3.054 -3.05,-8.547 4.882,-5.496 30.523,-33.574 30.523,-33.574 0,0 -47.004,13.43 -56.16,17.703 -9.156,4.273 -8.551,-8.547 -1.832,-14.039 6.715,-5.496 32.961,-26.25 32.961,-26.25 0,0 -40.899,4.274 -45.782,4.274 -4.883,0 -9.769,-4.883 -1.832,-10.379 7.934,-5.496 38.461,-21.973 38.461,-21.973 0,0 -36.019,1.219 -46.398,3.047 -10.375,1.836 -9.152,-7.324 -5.488,-9.766 3.664,-2.442 23.195,-17.089 23.195,-17.089 0,0 -20.754,1.218 -24.418,3.046 -3.664,1.836 -6.715,-2.441 -2.441,-6.71 4.274,-4.269 17.089,-14.649 17.089,-14.649 0,0 -10.378,-0.613 -14.039,-1.223 -3.661,-0.61 -4.273,-7.324 1.219,-10.988 5.496,-3.664 12.211,-12.211 12.211,-12.211 0,0 -3.051,-1.828 -7.934,-2.441 -4.883,-0.613 -6.105,-1.223 1.829,-7.324 7.937,-6.106 17.089,-14.039 17.089,-14.039 0,0 -4.882,-2.442 -8.543,-3.665 -3.661,-1.223 -3.664,-7.328 3.661,-10.988 7.325,-3.66 15.875,-10.988 15.875,-10.988 0,0 -9.766,-1.832 -12.821,-4.274 -3.055,-2.442 -3.66,-9.156 4.883,-15.875 8.547,-6.71 17.707,-16.476 17.707,-16.476 -13.43,0 -18.312,-9.16 -9.769,-15.871 8.547,-6.719 16.48,-14.043 20.754,-15.875 0,0 -11.598,-7.324 -2.442,-17.094 9.156,-9.77 14.652,-11.594 37.238,-18.312 0,0 -23.195,-24.415 -20.753,-31.133 2.441,-6.715 3.05,-9.157 7.324,-10.989 0,0 -23.809,-17.703 -10.379,-24.414 0,0 -35.403,-36.629 -36.016,-40.293 -0.613,-3.664 2.442,-12.207 18.313,-10.378 0,0 -19.535,-17.7 -7.325,-20.754 0,0 -15.257,-21.368 -1.832,-19.536 0,0 -9.156,-17.089 0.61,-19.531 0,0 -10.375,-21.98 9.16,-17.094 0,0 -18.313,-29.3 -3.055,-30.523 0,0 -6.715,-25.027 10.379,-23.809 0,0 -8.547,-28.078 14.043,-28.691 0,0 1.828,-15.871 22.582,-14.648 0,0 50.668,53.105 104.39,73.863 53.722,20.758 18.926,18.312 132.47,28.695"
         id="path53427" />
      <path
         d="M 292.38,529.98 C 254.528,544.633 29.89,614.223 25,616.664 c -4.8867,2.441 -12.211,1.219 -3.6641,-4.883 8.5469,-6.105 36.625,-29.301 36.625,-29.301 0,0 -32.961,8.543 -34.184,10.989 -1.2187,2.441 -15.875,3.66 -1.2187,-8.547 14.648,-12.211 52.496,-29.301 56.156,-29.301 l -10.984,-4.883 c 0,0 41.512,-20.758 57.382,-21.98 0,0 0,-21.973 32.961,-29.301 0,0 -17.09,-19.531 29.305,-30.52 0,0 -20.758,-8.55 24.418,-30.523 0,0 -8.547,-18.313 56.16,-32.965 0,0 -31.746,-7.937 -7.937,-20.754 0,0 3.664,-14.652 18.312,-15.261 0,0 -4.269,-15.872 10.379,-15.872 0,0 3.051,-17.093 32.965,-7.937 0,0 -14.039,-17.09 12.207,-15.871 0,0 -5.492,-23.809 17.703,-20.145 0,0 -9.766,-20.754 18.312,-17.703 0,0 -1.828,-24.418 25.032,-18.312 0,0 1.832,-15.871 12.207,-13.43 0,0 -3.051,-17.094 21.367,-16.484 0,0 0,-13.43 26.25,-15.258 0,0 -11.602,-15.875 1.223,-20.149 0,0 -15.266,-25.636 31.738,-24.414 L 515.1872,204 c 0,0 -17.09,0 -16.485,10.988 0,0 -22.582,7.938 -13.43,28.082 0,0 -16.476,9.766 -9.765,25.637 0,0 -15.871,8.547 0,28.082 0,0 -14.035,2.441 -6.106,20.758 0,0 -10.379,7.933 -1.218,17.699 0,0 -12.207,9.16 1.218,23.199 0,0 -10.379,4.883 4.887,17.094 -7.934,-0.613 -14.652,8.543 -14.039,13.43 0.609,4.882 20.754,25.027 25.637,32.351 0,0 -61.653,53.11 -193.51,108.66"
         id="path53429" />
      <path
         d="m 496.26,162.5 c 0,0 7.937,15.258 -15.871,17.09 -23.808,1.832 -47.004,-0.609 -47.004,-0.609 0,0 -11.594,-12.817 -9.766,-19.536 0,0 -18.312,-5.492 -20.144,-7.324 -1.832,-1.832 -1.832,-19.535 -1.832,-19.535 0,0 -16.481,-2.441 -17.704,-6.102 -1.223,-3.661 -2.441,-14.652 -1.218,-17.093 1.223,-2.441 -17.094,-2.442 -17.707,-5.496 -0.606,-3.055 -1.219,-12.821 0.613,-15.262 0,0 -20.145,-5.4922 -21.367,-8.5469 -1.222,-3.0547 0,-15.258 0,-15.258 0,0 -15.262,-0.6133 -19.532,-9.1562 0,0 1.829,-10.379 9.153,-10.988 l -3.66,-6.1055 c 0,0 26.859,1.2227 42.117,14.652 0,0 -15.258,21.973 123.92,109.27"
         id="path53435" />
      <path
         d="m 520.07,130.75 c 0,0 11.602,6.715 0,18.316 -11.593,11.598 -29.91,-5.496 -32.355,-11.601 C 485.273,131.363 467.574,89.852 451.699,86.801 435.828,83.7463 407.75,75.813 393.707,61.16 379.672,46.508 347.316,35.519 343.043,35.519 h -8.547 c 0,0 -6.105,-13.43 -11.601,-15.871 0,0 16.484,-3.0507 25.031,3.6641 8.547,6.7148 37.238,25.637 37.238,25.637 0,0 7.324,6.1055 6.715,-7.9336 -0.609,-14.0391 -17.703,-25.027 -17.703,-25.027 0,0 -3.664,-5.4961 4.269,-1.836 0,0 -1.218,-7.9296 6.11,-7.3242 7.324,0.61328 34.793,18.316 38.457,24.422 3.664,6.106 18.922,14.648 28.078,17.699 9.156,3.051 20.109,13.453 32.965,49.445 6.105,17.098 36.015,32.356 36.015,32.356"
         id="path53437" />
    </g>
  </g>
</svg>
