<?xml version="1.0" encoding="UTF-8" standalone="no"?>
<svg
   xmlns:dc="http://purl.org/dc/elements/1.1/"
   xmlns:cc="http://creativecommons.org/ns#"
   xmlns:rdf="http://www.w3.org/1999/02/22-rdf-syntax-ns#"
   xmlns:svg="http://www.w3.org/2000/svg"
   xmlns="http://www.w3.org/2000/svg"
   xmlns:sodipodi="http://sodipodi.sourceforge.net/DTD/sodipodi-0.dtd"
   xmlns:inkscape="http://www.inkscape.org/namespaces/inkscape"
   viewBox="0 0 512 511.99999"
   height="512"
   width="512"
   xml:space="preserve"
   id="svg2"
   version="1.1"
   sodipodi:docname="Gray Wolf.svg"
   inkscape:version="1.0.2 (e86c870879, 2021-01-15, custom)"><sodipodi:namedview
     pagecolor="#ffffff"
     bordercolor="#666666"
     borderopacity="1"
     objecttolerance="10"
     gridtolerance="10"
     guidetolerance="10"
     inkscape:pageopacity="0"
     inkscape:pageshadow="2"
     inkscape:window-width="1366"
     inkscape:window-height="715"
     id="namedview74775"
     showgrid="false"
     inkscape:zoom="0.13815098"
     inkscape:cx="221.00356"
     inkscape:cy="963.37678"
     inkscape:window-x="-8"
     inkscape:window-y="-8"
     inkscape:window-maximized="1"
     inkscape:current-layer="svg2" /><metadata
     id="metadata8"><rdf:RDF><cc:Work
         rdf:about=""><dc:format>image/svg+xml</dc:format><dc:type
           rdf:resource="http://purl.org/dc/dcmitype/StillImage" /><dc:title></dc:title></cc:Work></rdf:RDF></metadata><defs
     id="defs6" /><g
     id="g77734"
     transform="matrix(0.41662692,0,0,0.41662692,-1215.2028,-65.898438)"><g
       transform="matrix(0.24008933,0,0,-0.24008933,0,2666.6667)"
       id="g2360"><path
         id="path2362"
         style="fill:#808080;fill-opacity:1;fill-rule:nonzero;stroke:none"
         d="m 16297.9,8162.25 c 1.2,14.25 1.5,28.63 2.1,42.99 -143.1,160.03 -254.4,375.2 -382.9,553.48 5,-52.63 11.6,-105.06 20.8,-157.12 22.3,-38.48 43.6,-77.84 63.8,-118.16 91.9,-186.25 159.7,-369.97 241.5,-526.95 14.6,26.12 25.6,54.72 34.1,84.3 11.2,39.24 17.5,80.12 20.6,121.46" /></g><g
       transform="matrix(0.24012799,0,0,-0.24012799,0,2666.6667)"
       id="g2364"><path
         id="path2366"
         style="fill:#98a1a8;fill-opacity:1;fill-rule:nonzero;stroke:none"
         d="m 15470.6,9256.46 c -56.2,-47.45 -93.2,-75.47 -100.2,-68.98 -6.6,6.19 18.2,45.73 66.8,102.69 48.6,56.72 121.7,130.97 214.5,199.74 46.6,34.14 93.7,63.13 138.2,86.45 45,22.6 86.9,40.19 123.4,51.08 72.9,22.47 120.5,23.8 122.4,15.52 2.4,-9.71 -40.1,-27.24 -104.7,-59.57 -32.5,-15.83 -70,-36.8 -110.9,-61.03 -40.5,-24.98 -84.1,-53.92 -128.6,-86.51 -88.6,-65.64 -164.5,-132.08 -220.9,-179.39 z m 391.2,131.94 c 36.6,-207.89 32.5,-421.2 52.8,-631.05 128.5,-178.25 239.8,-393.39 382.8,-553.4 0,0 0,0.01 0,0.01 2.6,68.83 -0.3,138.58 -2.3,207.55 -2.7,83.22 -5.2,164.97 -7.7,245.03 -2.4,80.02 -4.4,158.68 -8.8,234.3 -4.4,75.69 -11.7,148.67 -25.2,218.22 -13.5,69.79 -31.9,137.77 -46.3,205.28 -28.8,134.85 -44.8,261.25 -61.7,375.56 -4,26.22 -7.8,51.8 -11.5,76.75 -0.2,4.91 -5.1,8.35 -9.8,7.01 -1,0.49 -18,-5.94 -29.1,-9.66 -48.4,-17.14 -93.3,-36 -134.6,-55.09 -82.7,-38.23 -151.4,-77.1 -207.1,-109.59 -103.7,-61.23 -162.5,-98.93 -172.4,-100.32 -0.1,-0.07 -0.2,-0.14 -0.3,-0.21 -0.7,-0.49 -1.3,-0.98 -2.1,-1.47 -2.2,-4.1 -15.4,-15.43 -37.6,-34.51 -25.6,-22.3 -64.1,-54.46 -107.6,-101.26 -43.5,-46.55 -91.2,-108.74 -130.5,-189.79 -2.5,-5.01 -4.8,-10.22 -7.2,-15.32 69.1,-27.43 140.6,-62.64 212,-107.38 22.8,46.72 51,90.85 79.4,130.01 68.8,94.66 163.7,172.52 274.8,209.33" /></g><g
       transform="matrix(0.24113599,0,0,-0.24113599,0,2666.6667)"
       id="g2368"><path
         id="path2370"
         style="fill:#603813;fill-opacity:1;fill-rule:nonzero;stroke:none"
         d="m 15515.8,9459.27 c 9.8,1.38 68.4,38.93 171.6,99.9 55.5,32.35 123.9,71.06 206.2,109.13 41.2,19.01 85.9,37.79 134.1,54.86 11,3.7 28,10.11 29,9.62 4.7,1.34 9.5,-2.09 9.7,-6.98 3.7,-24.84 7.5,-50.32 11.4,-76.42 16.9,-113.84 32.8,-239.71 61.5,-374 14.3,-67.23 32.7,-134.92 46.1,-204.42 13.4,-69.26 20.7,-141.94 25.1,-217.31 4.4,-75.3 6.3,-153.63 8.8,-233.31 2.5,-79.73 5,-161.14 7.6,-244.01 2,-68.69 4.9,-138.14 2.4,-206.68 0,-0.01 0,-0.01 0,-0.01 -0.6,-14.3 -1,-28.61 -2.1,-42.81 -3.1,-41.16 -9.4,-81.86 -20.5,-120.93 -8.4,-29.45 -19.4,-57.93 -34,-83.93 4.7,-8.9 9.1,-18.06 13.9,-26.78 7.3,-13.73 14.9,-26.91 22.4,-40.19 0.9,1.32 2,2.52 3,3.85 55.4,81.18 74.7,174.64 81.5,262.82 6.5,88.88 1.7,173.84 -1.1,256.62 -3.2,83.03 -6.3,164.6 -9.3,244.48 -3.1,79.92 -5.8,157.88 -11.1,234.83 -5.3,76.81 -13.8,152.41 -29,224.89 -15,72.25 -34.5,139.81 -49.5,205.03 -30.4,130.66 -49,255.47 -68.9,369.33 -2.6,14.24 -5.1,28.32 -7.5,42.22 -1.3,6.95 -2.5,13.86 -3.8,20.72 l -1.8,10.3 c -1,5.61 -2,11.36 -3.8,16.67 -3.3,10.6 -9.4,19.8 -18.5,25.48 -9.2,5.63 -20,7.14 -30.6,5.76 -10.5,-1.15 -22.6,-6.09 -27.1,-7.84 -6.3,-2.4 -12.5,-4.77 -18.6,-7.13 -49.3,-19.19 -94.3,-40.06 -135.6,-61.1 -82.6,-42.15 -149.9,-84.67 -203.7,-120.72 -107.4,-72.72 -162.1,-118.81 -159.9,-122.15 0.2,-0.28 1.4,0.12 2.1,0.21" /></g><g
       transform="matrix(0.22950799,0,0,-0.22950799,0,2666.6667)"
       id="g2372"><path
         id="path2374"
         style="fill:#603813;fill-opacity:1;fill-rule:nonzero;stroke:none"
         d="m 16010.9,9596.16 c 41.1,84.81 91.1,149.88 136.6,198.57 45.4,48.98 85.7,82.63 112.5,105.95 23.3,19.97 37,31.82 39.4,36.11 0.4,0.7 0.6,1.24 0.4,1.54 -1.3,1.82 -18.3,-6.58 -48.3,-26.33 -29.8,-19.92 -73.5,-50.54 -123.5,-98.05 -49.9,-47.15 -105.6,-112.79 -152.1,-199.83 -3.4,-6.33 -6.7,-13.05 -10,-19.64 12.4,-4.51 24.9,-9.33 37.5,-14.34 2.5,5.33 4.9,10.78 7.5,16.02" /></g><g
       transform="matrix(0.23475599,0,0,-0.23475599,0,2666.6667)"
       id="g2376"><path
         id="path2378"
         style="fill:#b3b3b3;fill-opacity:1;fill-rule:nonzero;stroke:none"
         d="m 16103.8,9157.23 c -47.6,38.05 -117.6,61 -196.7,69.31 0,0 0,0 0,-0.01 8.3,-5.63 16.5,-11.41 24.7,-17.29 14.9,-10.48 29.7,-21.19 44.3,-32.62 77.3,-60.93 151.5,-134.18 217.2,-219.28 39.1,-49.78 74,-103.96 106.7,-160.33 -9.4,53.25 -16.1,106.87 -21.3,160.7 -54.1,75.1 -111.3,143.83 -174.9,199.52" /></g><g
       transform="matrix(0.23444933,0,0,-0.23444933,0,2666.6667)"
       id="g2380"><path
         id="path2382"
         style="fill:#eaeaea;fill-opacity:1;fill-rule:nonzero;stroke:none"
         d="m 16124.8,9169.21 c 63.8,-55.76 121,-124.58 175.2,-199.78 -20.8,214.94 -16.5,433.41 -54,646.33 -113.8,-37.7 -211,-117.45 -281.5,-214.39 -29.2,-40.11 -58,-85.32 -81.4,-133.17 15,-9.37 30,-19.44 44.9,-29.59 79.1,-8.32 149.2,-31.3 196.8,-69.4" /></g><g
       transform="matrix(0.198952,0,0,-0.198952,0,2666.6667)"
       id="g2384"><path
         id="path2386"
         style="fill:#808080;fill-opacity:1;fill-rule:nonzero;stroke:none"
         d="m 16274,10604.2 c -129.3,-166.1 -270.4,-415.2 -446.3,-549.1 -0.6,-23.6 -1,-47.2 -1.2,-70.74 -0.1,-15.45 0,-30.88 0.2,-46.28 0.1,-7.21 0.2,-14.42 0.4,-21.61 0.6,-22.24 1.5,-44.45 3.2,-66.5 3.8,-49.88 11.4,-99.22 24.8,-146.57 10.3,-35.69 23.6,-70.21 41.3,-101.73 98.6,189.44 180.5,411.13 291.3,635.93 26.3,52.3 53.9,103.5 83.1,153.2 14,81.5 22.7,163.8 29.2,246.4 -8.9,-10.6 -17.6,-21.5 -26,-33" /></g><g
       transform="matrix(0.20794666,0,0,-0.20794666,0,2666.6667)"
       id="g2388"><path
         id="path2390"
         style="fill:#98a1a8;fill-opacity:1;fill-rule:nonzero;stroke:none"
         d="m 16196.1,10625.4 c -17,-15.7 -171.2,141.5 -387.8,296.1 -108.4,77.3 -212.4,137.8 -289.7,179.2 -77.3,41.6 -126.6,66.9 -123.1,77.4 3.2,9.8 59.4,2.8 145.2,-27.2 85.7,-29.8 199.7,-85.7 312.5,-166.2 113.1,-80.3 203,-168.3 262.3,-236.1 59,-68.2 88.4,-116.2 80.6,-123.2 z m -55.1,184.9 c -50.2,54 -94.7,91.2 -124.2,116.9 -29.8,25.6 -45.5,39.2 -43.9,41.6 -3.4,-5 -73,40.3 -201.4,116.1 -64.3,37.5 -143.7,82.4 -239.1,126.5 -47.7,22.1 -99.5,43.8 -155.5,63.6 -12.8,4.3 -32.5,11.7 -33.6,11.2 -5.4,1.5 -11,-2.4 -11.2,-8.1 -4.3,-28.8 -8.8,-58.4 -13.3,-88.6 -19.6,-132 -38,-278 -71.3,-433.7 -16.6,-78 -37.9,-156.5 -53.4,-237.1 -15.6,-80.3 -24.1,-164.6 -29.1,-252 -5.2,-87.3 -7.4,-178.1 -10.2,-270.51 -2.9,-92.46 -5.9,-186.85 -8.9,-282.96 -0.9,-30.91 -1.9,-61.97 -2.8,-93.04 168.3,128.12 303.3,366.37 427,525.31 8,11 16.3,21.5 24.8,31.5 17.3,221.5 16.7,445.5 55.3,664.3 128.3,-42.5 237.8,-132.4 317.3,-241.7 32.5,-44.7 64.7,-95 90.7,-148.2 81.5,50.8 163.1,90.7 241.8,122 -2.8,5.9 -5.4,11.9 -8.1,17.7 -45.5,93.6 -100.6,165.4 -150.9,219.2" /></g><g
       transform="matrix(0.20379733,0,0,-0.20379733,0,2666.6667)"
       id="g2392"><path
         id="path2394"
         style="fill:#98a1a8;fill-opacity:1;fill-rule:nonzero;stroke:none"
         d="m 16300,11192.1 c -1,0.8 -2.2,1.5 -3.2,2.2 0.5,-0.8 1.5,-1.9 1.2,-2.2 0.3,0.3 1,0.2 2,0" /></g><g
       transform="matrix(0.20486266,0,0,-0.20486266,0,2666.6667)"
       id="g2396"><path
         id="path2398"
         style="fill:#eaeaea;fill-opacity:1;fill-rule:nonzero;stroke:none"
         d="m 15885.8,11004.5 c -39.1,-222.1 -38.5,-449.4 -56,-674.2 91.1,108 209.6,164.1 339.6,187.5 0.1,0 0.2,0.1 0.2,0.1 43.1,33.4 86.7,63.6 130.4,90.9 -26.4,54 -59.1,105 -92.1,150.4 -80.6,110.9 -191.9,202.2 -322.1,245.3" /></g><g
       transform="matrix(0.20322133,0,0,-0.20322133,0,2666.6667)"
       id="g2400"><path
         id="path2402"
         style="fill:#b3b3b3;fill-opacity:1;fill-rule:nonzero;stroke:none"
         d="m 15957.6,10413.7 c -6.4,-80.9 -14.9,-161.4 -28.6,-241.2 36.1,61.4 74.6,120.4 117.4,174.8 75.8,98.3 161.5,182.9 250.8,253.3 0.9,0.8 1.9,1.4 2.8,2.1 -131.1,-23.6 -250.6,-80.1 -342.4,-189" /></g><g
       transform="matrix(0.20377733,0,0,-0.20377733,0,2666.6667)"
       id="g2404"><path
         id="path2406"
         style="fill:#603813;fill-opacity:1;fill-rule:nonzero;stroke:none"
         d="m 15520,9374.35 c -17.2,30.77 -30.2,64.47 -40.2,99.32 -13.2,46.23 -20.6,94.39 -24.3,143.1 -1.7,21.53 -2.5,43.2 -3.1,64.92 -0.2,7.03 -0.3,14.05 -0.5,21.1 -0.1,15.03 -0.2,30.1 -0.1,45.18 0.4,54.7 2.4,109.58 4.1,164.04 3,98.09 6.1,194.39 9,288.79 2.9,94.2 5.2,186.9 10.4,276 5.2,89.2 13.8,175.2 29.7,257.2 15.8,82.2 37.6,162.3 54.5,241.9 34,158.9 52.8,307.8 72.8,442.5 4.6,30.9 9.1,61.1 13.5,90.5 0.2,5.8 6,9.8 11.5,8.2 1.2,0.6 21.2,-7 34.3,-11.3 57.1,-20.2 109.9,-42.5 158.6,-65 97.5,-45 178.4,-90.8 244.1,-129.1 131,-77.4 202,-123.5 205.4,-118.5 0.3,0.3 -0.7,1.5 -1.2,2.3 -6.7,10.5 -70.2,62.6 -187.9,142.3 -63.7,42.6 -143.3,93 -241,142.8 -48.9,24.9 -102.2,49.6 -160.4,72.3 -7.3,2.8 -14.7,5.6 -22.1,8.5 -5.3,2 -19.7,7.9 -32.1,9.3 -12.5,1.6 -25.3,-0.2 -36.1,-6.9 -10.8,-6.7 -18.1,-17.6 -22,-30.1 -2.1,-6.3 -3.2,-13.1 -4.4,-19.7 l -2.2,-12.2 c -1.5,-8.1 -3,-16.3 -4.5,-24.5 -2.9,-16.5 -5.8,-33.2 -8.8,-50 -23.6,-134.7 -45.6,-282.4 -81.5,-437.1 -17.8,-77.1 -40.9,-157.1 -58.7,-242.6 -18,-85.7 -28,-175.2 -34.3,-266.1 -6.3,-91 -9.4,-183.3 -13.1,-277.9 -3.6,-94.5 -7.3,-191 -11,-289.27 -3.4,-97.96 -9,-198.5 -1.4,-303.67 8,-104.34 30.9,-214.94 96.5,-311 1.2,-1.57 2.5,-3 3.6,-4.56 8.9,15.72 17.8,31.32 26.5,47.56 5.6,10.32 11,21.15 16.4,31.69" /></g><g
       transform="matrix(0.20847466,0,0,-0.20847466,0,2666.6667)"
       id="g2408"><path
         id="path2410"
         style="fill:#603813;fill-opacity:1;fill-rule:nonzero;stroke:none"
         d="m 15976.2,10899.5 c 29.5,-25.7 73.9,-62.7 123.9,-116.6 50.1,-53.6 105.1,-125.3 150.5,-218.6 2.7,-5.8 5.3,-11.8 8.1,-17.7 13.9,5.6 27.6,10.9 41.3,15.8 -3.6,7.3 -7.3,14.7 -11,21.7 -51.2,95.8 -112.5,168 -167.5,219.9 -55,52.3 -103.1,86.1 -135.9,108 -28.2,18.5 -45.7,27.8 -51.3,29 -1,0.2 -1.7,0.3 -1.9,0 -1.6,-2.4 14.1,-16 43.8,-41.5" /></g><g
       transform="matrix(0.24093599,0,0,-0.24093599,0,2666.6667)"
       id="g2412"><path
         id="path2414"
         style="fill:#98a1a8;fill-opacity:1;fill-rule:nonzero;stroke:none"
         d="m 14984.7,9117.45 c 105,-19.61 197.3,-48.68 271.4,-80.57 148.8,-63.71 224.5,-131.33 219.8,-137.4 -5.7,-9.09 -89.2,43.13 -236.7,93.19 -73.6,25.19 -163.4,48.41 -264.8,63.99 -101.4,15.59 -214.4,22.6 -333.2,19.38 -118.8,-3.35 -231.9,-15.97 -334.3,-31.61 -51.2,-8.06 -100.1,-15.55 -143.2,-26.34 -43.2,-10.49 -81,-26.08 -115.9,-43.07 -69.1,-34.62 -126,-66.68 -166,-85.37 -40,-19.34 -63.3,-28.15 -65.7,-24.19 -2.3,3.96 16.4,20.32 52.3,46.53 36.5,25.86 87.6,63 157.1,104.79 34.9,20.45 76.6,40.86 123.3,54.76 46.7,14.21 95.9,23.76 147.8,33.68 104,19.34 220,34.25 342.8,37.72 122.7,3.33 240.3,-5.83 345.3,-25.49 z m -451,68.77 c -78.1,-5.66 -191.1,-19.9 -323.6,-62.43 -132.2,-42.28 -283.2,-115.73 -425.5,-230.66 -70.6,-57.82 -138.2,-126.47 -198,-205.38 -60.6,-78.45 -112,-168.67 -159.7,-263.94 -94.5,-191.29 -166.6,-385.76 -260.4,-551.74 -46.5,-82.82 -96.7,-158.82 -151.3,-224.29 -1.8,-2.12 -3.6,-4.02 -5.4,-6.12 28.1,-4.45 56.4,-7.33 84.9,-7.36 66.3,-0.06 134.8,16.45 186,58.57 48.4,39.79 85,103.23 147.1,111.45 21.5,2.85 43.7,-1.77 65.2,2.13 17.5,3.18 33.5,11.88 48.4,21.61 115.5,75.31 177.2,212.73 288.3,294.32 101.8,74.72 235.7,94.5 361.1,80.25 54.6,-6.19 109.8,-18.96 155.1,-49.98 57.3,-39.25 92.4,-103.39 117.4,-168.12 70,-181.02 76.8,-380.3 65.2,-574.06 -11.5,-193.75 -40.6,-386.67 -39.1,-580.77 0.1,-8.4 0.3,-16.88 0.7,-25.35 32.6,2.74 61.2,3.05 84.8,2.26 54,-1.98 83.3,-8.68 83,-13.17 -0.3,4.49 29.2,11.2 83.2,13.17 17.6,0.6 38.1,0.52 60.6,-0.61 0.3,7.92 0.5,15.85 0.6,23.7 1.6,194.1 -27.5,387.02 -39.1,580.77 -11.7,193.76 -4.8,393.04 65.2,574.06 25.1,64.73 60.2,128.87 117.4,168.12 45.3,31.02 100.6,43.79 155.1,49.98 125.5,14.25 259.4,-5.53 361.1,-80.25 111.1,-81.59 172.9,-219.01 288.3,-294.32 14.9,-9.73 30.9,-18.43 48.4,-21.61 21.5,-3.9 43.6,0.72 65.2,-2.13 62.2,-8.22 98.7,-71.66 147.1,-111.45 51.2,-42.12 119.7,-58.63 186,-58.57 34.6,0.03 68.9,4.25 103,10.4 -0.9,1.06 -1.8,2.01 -2.7,3.08 -54.6,65.47 -104.8,141.47 -151.4,224.29 -93.8,165.98 -165.8,360.45 -260.3,551.74 -47.7,95.27 -99.2,185.49 -159.7,263.94 -59.8,78.91 -127.4,147.56 -198.1,205.38 -142.3,114.93 -293.3,188.38 -425.5,230.66 -132.5,42.53 -245.5,56.77 -323.5,62.43 -39.2,3.66 -69.6,3.83 -90.5,4.94 -20.8,1.22 -31.9,2.96 -32.1,5.26 -0.2,-2.3 -11.3,-4.04 -32.1,-5.26 -20.8,-1.11 -51.3,-1.28 -90.4,-4.94" /></g><g
       transform="matrix(0.21663999,0,0,-0.21663999,0,2666.6667)"
       id="g2416"><path
         id="path2418"
         style="fill:#98a1a8;fill-opacity:1;fill-rule:nonzero;stroke:none"
         d="m 16300,10227.9 c -0.1,0 -0.1,0 -0.2,0 0,0 0.1,-0.1 0.1,-0.1 0,0 0.1,0.1 0.1,0.1" /></g><g
       transform="matrix(0.23021466,0,0,-0.23021466,0,2666.6667)"
       id="g2420"><path
         id="path2422"
         style="fill:#eaeaea;fill-opacity:1;fill-rule:nonzero;stroke:none"
         d="m 16280.5,7869.06 c 2.5,2.18 5.5,4.92 8.9,8.06 3.4,4.07 7,9.16 10.6,15.42 -6.3,-7.8 -12.7,-15.63 -19.5,-23.48" /></g><g
       transform="matrix(0.20395599,0,0,-0.20395599,0,2666.6667)"
       id="g2424"><path
         id="path2426"
         style="fill:#eaeaea;fill-opacity:1;fill-rule:nonzero;stroke:none"
         d="m 16278,8908.67 c 4.1,-7.07 8.1,-12.8 11.9,-17.4 3.9,-3.55 7.3,-6.63 10.1,-9.1 -7.7,8.86 -14.9,17.7 -22,26.5" /></g><g
       transform="matrix(0.24454399,0,0,-0.24454399,0,2666.6667)"
       id="g2428"><path
         id="path2430"
         style="fill:#b3b3b3;fill-opacity:1;fill-rule:nonzero;stroke:none"
         d="m 15973.2,7225.5 c -116.8,0 -233.6,0 -350.4,23.36 46.7,-93.45 93.5,-210.25 140.1,-303.7 -93.4,0 -210.2,23.36 -280.3,-23.36 -23.3,-23.36 23.4,-93.45 23.4,-163.53 -46.7,46.72 -140.2,46.72 -186.9,23.36 -156.6,-43.48 -306.6,-138.76 -457.4,-226.79 0.7,-3.19 1.9,-6.25 2.5,-9.5 6.1,-32.98 0.4,-67.51 -11.8,-98.73 -12.4,-31.32 -31.1,-59.44 -52.6,-84.92 -43.6,-50.7 -97.8,-92.25 -156.2,-129.8 -29.2,-18.74 -59.8,-36.23 -91.4,-52.79 -15.8,-8.26 -31.8,-16.33 -48.2,-24.07 l -24.7,-11.44 -12.6,-5.55 -24.3,-10.08 -2.5,-1.03 -24.6,10.27 -13.4,5.94 -24.7,11.48 c -16.3,7.79 -32.3,15.9 -48.1,24.19 -31.5,16.66 -62,34.22 -91.2,53.07 -58.1,37.75 -112.1,79.48 -155.3,130.44 -21.4,25.58 -39.9,53.81 -52,85.17 -3.4,8.8 -6.1,17.91 -8.3,27.11 v 0 c -198.6,112.61 -398.3,243.47 -618.8,353.75 -46.8,23.36 23.3,140.17 23.3,233.62 -93.4,0 -186.9,-70.09 -233.6,0 -46.7,23.36 46.7,163.53 0,186.89 -46.7,46.72 -163.6,23.36 -233.6,23.36 46.7,23.36 46.7,93.45 70,140.17 -110,0 -228.1,-16.06 -344.9,-15.07 -10.1,-8.17 -20.3,-16.41 -30.5,-23.8 -7.4,-5.12 -14.6,-10.19 -21.8,-15.19 l -10.8,-7.44 c -2.1,-1.5 -3.1,-2.09 -3.8,-2.49 l -2.7,-1.55 c -3.7,-2.13 -7.4,-4.24 -11,-6.32 l -5.6,-3.22 -4.3,-2.06 c -3,-1.43 -6,-2.84 -8.9,-4.23 l -4.6,-2.23 c -0.7,-0.63 1.8,-0.9 2.6,-1.38 4.7,-1.74 9.8,-3.36 15.3,-4.94 2.9,-0.78 5.7,-1.54 8.5,-2.29 3.1,-0.83 4.7,-1.24 12.3,-2.69 12.4,-2.33 24.4,-4.35 35.9,-5.98 23,-3.32 44.3,-5.57 63.4,-6.98 76.8,-5.28 120,-1.44 120.6,-6.6 0.1,-0.03 0.1,-0.13 0.2,-0.16 0.5,0.07 1,0.09 1.5,0.16 -0.2,-0.41 -0.4,-0.79 -0.6,-1.2 5.3,-5.9 1.4,-33.8 -18.8,-74.01 -10.9,-21.31 -26.4,-45.91 -47.7,-70.54 -9,-11.13 -28.7,-29.69 -23.6,-25.97 -0.1,-1 0.3,-1.24 0.9,-1.23 1,0.09 1.4,0.32 1.4,0.32 v -0.04 -0.06 l 7,-0.89 c 10.2,-1.14 20.2,-2.26 30.1,-3.36 19.7,-1.89 38.8,-3.62 57,-4.73 36.4,-2.48 69.5,-3.52 97.4,-4.34 55.8,-1.45 91.5,-2.7 93.1,-11.91 0.1,-0.03 0.2,-0.18 0.2,-0.22 0.5,0.08 1,0.13 1.5,0.22 -0.2,-0.43 -0.3,-0.86 -0.4,-1.28 6.5,-6.63 1.7,-41.73 -12,-94.91 -7.3,-28.25 -17,-61.49 -28.8,-98.05 -6.1,-18.34 -12.5,-37.41 -19.1,-57.13 -5.1,-14.3 -2.7,-8.43 -3,-9.79 l 0.1,0.05 c 0,0 0,-0.06 0,-0.17 9.6,-0.4 19.1,-0.8 28.4,-1.18 20.3,-0.69 39.9,-1.07 58.6,-1.11 37.4,-0.25 71.2,0.64 99.8,1.29 57.2,1.39 93.6,1.69 95.6,-7.46 0,-0.01 0.2,-0.24 0.2,-0.28 0.5,0.1 1,0.17 1.5,0.28 -0.1,-0.84 -0.3,-1.66 -0.3,-2.5 2,-7.18 2.6,-31.17 -1.5,-70.47 -2.5,-23.57 -6.8,-52.55 -14.4,-86.08 -3.8,-16.78 -8.5,-34.65 -14.1,-53.55 -2.8,-9.68 -5.9,-19.95 -9.1,-30.77 4.9,1.04 9.6,2.25 14.1,3.04 l 6.7,1.25 3.3,0.52 7.7,0.91 c 21.7,2.14 44.5,3.52 68.2,3.21 47.2,-0.62 98.2,-6.5 150.5,-20.72 105.6,-27.97 210,-92.76 309.1,-173.05 98.8,-81.07 194.2,-178.63 299.3,-272.09 52.7,-46.35 107.7,-92.66 168.7,-130.72 14.7,-10.51 30.7,-18.57 46.4,-27.34 l 23.6,-13.1 c 8.1,-4.02 16.5,-7.22 24.7,-10.89 16.7,-6.65 32.7,-15.61 50.2,-19.86 l 25.9,-7.9 10.7,-3.31 c 1.6,-0.28 -0.4,-0.36 1.4,0.07 16.9,5.14 33.7,10.25 50.4,15.34 16.7,7.13 33.4,14.23 50,21.3 16.7,6.79 32.1,16.86 48.1,25.02 16.1,8.07 31.2,18.11 46.3,27.97 60.7,38.78 116.7,83.85 169.9,130.08 106.5,92.09 203.7,187.77 303.7,267.25 100.1,78.79 204.2,143.1 309.8,171.23 52.4,14.22 103.3,20.1 150.6,20.72 23.6,0.31 46.4,-1.07 68.2,-3.21 l 7.6,-0.91 3.3,-0.52 6.7,-1.25 c 4.6,-0.79 9.3,-2 14.1,-3.04 -3.2,10.82 -6.2,21.09 -9.1,30.77 -5.6,18.9 -10.3,36.77 -14,53.55 -7.6,33.53 -12,62.51 -14.5,86.08 -4.8,47.21 -3.1,72.71 -0.1,72.97 2,9.15 38.5,8.85 95.6,7.46 28.6,-0.65 62.4,-1.54 99.8,-1.29 18.7,0.04 38.3,0.42 58.6,1.11 9.3,0.38 18.8,0.78 28.4,1.18 0.1,0.11 0,0.17 0,0.17 l 0.2,-0.05 c -0.4,1.36 2,-4.51 -3.1,9.79 -6.6,19.72 -12.9,38.79 -19.1,57.13 -11.7,36.56 -21.5,69.8 -28.7,98.05 -14.6,56.5 -19.3,93.03 -10.8,96.19 1.6,9.21 37.3,10.46 93.1,11.91 28,0.82 61,1.86 97.4,4.34 18.3,1.11 37.3,2.84 57.1,4.73 9.8,1.1 19.8,2.22 30,3.36 l 7,0.89 0.1,0.06 v 0.04 c 0,0 0.4,-0.23 1.4,-0.32 0.6,-0.01 1,0.23 0.8,1.23 5.1,-3.72 -14.6,14.84 -23.5,25.97 -21.4,24.63 -36.8,49.23 -47.7,70.54 -21.6,42.99 -24.7,72.25 -17.8,75.21 0.6,5.16 43.9,1.32 120.6,6.6 19.2,1.41 40.4,3.66 63.5,6.98 11.5,1.63 23.5,3.65 35.8,5.98 7.6,1.45 9.2,1.86 12.4,2.69 2.7,0.75 5.6,1.51 8.5,2.29 5.4,1.58 10.5,3.2 15.3,4.94 0.7,0.48 3.2,0.75 2.5,1.38 l -4.6,2.23 c -2.9,1.39 -5.8,2.8 -8.8,4.23 l -4.3,2.06 -5.6,3.22 c -3.6,2.08 -7.4,4.19 -11.1,6.32 l -2.6,1.55 c -0.8,0.4 -1.8,0.99 -3.9,2.49 l -10.7,7.44 c -7.2,5 -14.5,10.07 -21.9,15.19 -7.6,5.54 -15.2,11.87 -22.9,17.85 -106.1,-2.44 -214.6,-4 -323.1,-25.7 46.7,-23.36 70.1,-93.45 93.4,-140.17" /></g><g
       transform="matrix(0.21492399,0,0,-0.21492399,0,2666.6667)"
       id="g2432"><path
         id="path2434"
         style="fill:#eaeaea;fill-opacity:1;fill-rule:nonzero;stroke:none"
         d="m 15258.9,8663.7 c 62,68.86 201.4,418.32 552.6,425.19 -34.5,30.99 -141.2,41.32 -141.2,41.32 0,0 254.7,20.66 495.8,-223.79 -68.9,37.87 -82.7,48.2 -117.1,61.97 68.9,-41.31 106.8,-141.16 106.8,-141.16 0,0 -17.3,18.19 -37.4,36.5 5.8,-8.78 11.2,-17.78 16.3,-26.87 1.5,-2.77 2.9,-5.56 4.4,-8.34 3.5,-6.51 6.8,-13.02 9.9,-19.59 1.4,-3.02 2.8,-6.03 4.2,-9.07 3,-6.77 5.9,-13.51 8.6,-20.27 1,-2.48 2,-4.94 3,-7.42 4.4,-11.68 8.4,-23.21 11.9,-34.59 1.4,-4.35 2.7,-8.66 3.9,-12.95 0.9,-2.97 1.8,-5.91 2.6,-8.84 1.1,-4.24 2.2,-8.39 3.2,-12.53 1.1,-3.99 2,-7.91 2.9,-11.79 0.9,-3.9 1.8,-7.77 2.6,-11.54 0.7,-2.9 1.2,-5.71 1.8,-8.52 0.7,-3.28 1.3,-6.47 1.9,-9.62 0.5,-3.26 1.2,-6.45 1.7,-9.56 0.7,-3.97 1.3,-7.84 2,-11.56 0.3,-2.48 0.6,-4.82 1,-7.19 0.4,-2.61 0.8,-5.13 1.1,-7.58 0.2,-2.04 0.5,-4.09 0.8,-6 0.5,-3.78 0.8,-7.31 1.2,-10.61 0.2,-1.69 0.3,-3.15 0.5,-4.71 0.2,-2.03 0.4,-3.93 0.5,-5.72 0.1,-1.31 0.3,-2.56 0.4,-3.73 0.2,-2.45 0.3,-4.67 0.5,-6.51 0,-0.84 0,-1.34 0.1,-2.05 0.1,-1.25 0.1,-2.29 0.2,-3.11 0,-0.57 0,-0.81 0,-1.16 0,-0.75 0.1,-1.23 0.1,-1.23 0,0 -113.6,-351.18 -392.5,-351.18 -137,0 -255.5,96.32 -340.9,194.35 -3.4,2.5 -8.2,6.69 -13.7,13.3 -20.4,18.88 -55.4,53.74 -94.7,103.93 -62,79.19 -103.3,72.3 -130.8,72.3 -27.6,0 -155,-34.43 -208.3,-12.04 0,0 172.1,-6.89 234.1,61.97 z m -433.5,-229.74 c -26.6,-53.17 -26.6,-132.91 -79.8,-159.49 79.8,0 212.7,26.58 265.9,-26.58 53.1,-26.58 -53.2,-186.07 0,-212.65 53.1,-79.74 159.5,0 265.7,0 0,-106.33 -79.7,-239.23 -26.5,-265.81 250.9,-125.48 478.2,-274.38 704.1,-402.5 -1.7,6.93 -3,13.94 -4,20.99 -0.5,3.56 -0.8,7.11 -1.1,10.69 -0.5,5.29 -0.7,10.56 -0.8,15.85 0,2.98 0,5.94 0.1,8.91 0.3,8.35 1,16.68 2.5,24.93 6.7,37.66 26.8,71.76 51.8,94.55 24.9,23.17 52.5,38.11 79,49.22 53.2,21.83 102.9,29.68 146,34.53 5.4,0.55 10.3,0.86 15.6,1.31 -0.4,9.5 -0.7,19 -0.8,28.42 -1.7,217.59 30.9,433.86 43.9,651.07 13,217.2 5.4,440.61 -73.2,643.53 -28,72.57 -67.3,144.47 -131.5,188.46 -50.8,34.79 -112.8,49.1 -173.9,56.04 -140.6,15.98 -290.8,-6.2 -404.8,-89.97 -124.6,-91.46 -193.8,-245.51 -323.3,-329.94 -16.6,-10.9 -34.6,-20.65 -54.2,-24.22 -24,-4.37 -48.9,0.8 -73.1,-2.4 -69.6,-9.2 -110.6,-80.32 -164.8,-124.93 -57.5,-47.22 -134.2,-65.72 -208.6,-65.66 -31.9,0.04 -63.7,3.27 -95.2,8.26 -13.3,-15.67 -26.7,-30.68 -40.2,-45.25 -7.2,-7.72 -14.4,-14.98 -21.6,-22.39 -5.9,-5.95 -11.7,-11.94 -17.6,-17.68 -9.6,-9.49 -19.3,-18.56 -29.1,-27.46 -2.9,-2.63 -5.8,-5.23 -8.7,-7.81 -11.4,-10.12 -22.8,-19.9 -34.3,-29.17 v 0 c 132.8,-1.13 267.3,17.15 392.5,17.15" /></g><g
       transform="matrix(0.24308799,0,0,-0.24308799,0,2666.6667)"
       id="g2436"><path
         id="path2438"
         style="fill:#eaeaea;fill-opacity:1;fill-rule:nonzero;stroke:none"
         d="m 15626.2,7615.77 c -24.3,0 -60.9,6.09 -115.7,-63.92 -34.7,-44.38 -65.7,-75.2 -83.8,-91.89 -4.7,-5.85 -9,-9.55 -12,-11.76 -75.4,-86.68 -180.3,-171.84 -301.4,-171.84 -246.6,0 -347,310.5 -347,310.5 0,0 1.4,39.62 13.4,92.94 0,0.01 0,0.02 0,0.03 0,0.01 0,0.03 0,0.03 1.3,5.63 2.7,11.38 4.2,17.29 0.2,0.77 0.4,1.53 0.6,2.31 1.4,5.27 2.8,10.59 4.4,16.03 0.5,1.6 1,3.22 1.5,4.83 1.4,4.8 2.9,9.61 4.5,14.49 0.8,2.37 1.7,4.76 2.5,7.15 1.5,4.28 3,8.55 4.7,12.87 1.2,3.07 2.4,6.15 3.7,9.23 1.5,3.76 2.9,7.51 4.6,11.28 1.6,3.65 3.3,7.29 5,10.94 1.6,3.26 3,6.52 4.6,9.76 2.2,4.34 4.6,8.63 6.9,12.93 1.4,2.54 2.7,5.11 4.1,7.63 4,6.81 8.1,13.55 12.5,20.17 -17.8,-16.19 -33.1,-32.27 -33.1,-32.27 0,0 33.5,88.28 94.4,124.81 -30.5,-12.18 -42.6,-21.31 -103.5,-54.79 213.1,216.12 438.3,197.86 438.3,197.86 0,0 -94.4,-9.13 -124.8,-36.53 310.5,-6.09 433.8,-315.05 488.6,-375.94 54.8,-60.88 207,-54.79 207,-54.79 -47.2,-19.79 -159.8,10.65 -184.2,10.65 z m 243.1,9.02 c -48,39.44 -84.2,102.32 -145.8,110.46 -21.4,2.82 -43.4,-1.75 -64.6,2.11 -17.4,3.16 -33.2,11.78 -48,21.42 -114.4,74.65 -175.6,210.85 -285.7,291.71 -100.9,74.07 -233.6,93.67 -357.9,79.55 -54.1,-6.14 -108.9,-18.79 -153.8,-49.54 -56.7,-38.9 -91.5,-102.48 -116.3,-166.63 -69.5,-179.42 -76.2,-376.94 -64.7,-568.98 11.5,-192.04 40.4,-383.25 38.8,-575.63 -0.1,-7.78 -0.3,-15.64 -0.6,-23.5 12.1,-0.6 24.6,-1.43 37.9,-2.82 38.2,-4.31 82.2,-11.27 129.3,-30.68 23.4,-9.88 47.9,-23.16 69.8,-43.76 5.2,-4.73 10,-10.03 14.5,-15.75 3.7,-4.62 6.9,-9.73 10.1,-14.9 0.6,-0.93 1.3,-1.74 1.8,-2.69 7.4,-12.52 13,-26.39 16.6,-41.06 151.7,88.56 302.7,184.41 460.1,228.15 47,23.5 141,23.5 188.1,-23.5 0,70.5 -47.1,141.01 -23.5,164.51 70.5,47 188,23.5 282,23.5 -47,94.01 -94,211.51 -141,305.52 117.5,-23.5 235,-23.5 352.5,-23.5 -23.5,47 -47,117.51 -94,141 109.2,21.84 218.3,23.4 325.1,25.87 -12.1,9.51 -24.1,19.5 -36.1,30.06 -0.9,0.76 -1.7,1.55 -2.6,2.31 -11,9.83 -22,19.91 -32.9,30.6 -3.5,3.51 -7.1,7.27 -10.7,10.88 -8.4,8.51 -16.9,16.93 -25.1,25.92 -12.4,13.37 -24.7,27.2 -36.9,41.62 -33.7,-6.09 -67.7,-10.27 -102,-10.3 -65.8,-0.06 -133.6,16.3 -184.4,58.05" /></g><g
       transform="matrix(0.22223999,0,0,-0.22223999,0,2666.6667)"
       id="g2440"><path
         id="path2442"
         style="fill:#4d4d4d;fill-opacity:1;fill-rule:nonzero;stroke:none"
         d="m 16296.6,7190.58 c -262.1,-154.59 -578.7,-208.95 -811.6,-9.17 v -0.01 c -0.2,-5.52 0,-11.11 0.6,-16.73 0,-0.21 0.1,-0.42 0.1,-0.64 0.6,-5.42 1.5,-10.86 2.8,-16.34 0.1,-0.51 0.2,-1.03 0.4,-1.55 1.2,-5.18 2.7,-10.39 4.5,-15.6 0.3,-0.93 0.7,-1.86 1,-2.8 1.8,-4.83 3.8,-9.67 6,-14.49 0.6,-1.45 1.4,-2.89 2.1,-4.33 2.1,-4.36 4.2,-8.69 6.7,-13 1.2,-2.13 2.6,-4.24 3.8,-6.36 2.3,-3.67 4.5,-7.35 6.9,-10.98 2.1,-3.1 4.4,-6.16 6.6,-9.24 2,-2.65 3.8,-5.33 5.9,-7.94 4.5,-5.75 9.1,-11.43 14.1,-16.99 42,-47.1 97.6,-88.94 158.4,-127.12 30.4,-19.12 62.5,-37.19 95.7,-54.45 16.6,-8.6 33.5,-17.03 50.6,-25.14 l 25.8,-11.92 12.2,-5.36 v -0.02 l 13.5,5.95 25.9,11.9 c 17.2,8.05 34.1,16.46 50.8,25.02 33.2,17.16 65.4,35.16 96,54.19 61,38 116.9,79.68 159.3,126.58 5.1,5.75 10.1,11.61 14.8,17.57 3.2,4.08 6.1,8.25 9,12.42 1.4,1.86 2.9,3.69 4.1,5.58 3.9,5.75 7.5,11.57 10.8,17.43 0.1,0.3 0.3,0.59 0.5,0.88 17.2,30.88 26.1,62.77 22.7,92.66" /></g><g
       transform="matrix(0.22219333,0,0,-0.22219333,0,2666.6667)"
       id="g2444"><path
         id="path2446"
         style="fill:#666666;fill-opacity:1;fill-rule:nonzero;stroke:none"
         d="m 15909.3,7316.4 c 85.9,1.26 167.8,-5.66 224.5,-24.13 57,-17.74 86.4,-42.22 82.4,-50.79 -4.2,-9.67 -38.4,-3.21 -92.1,0.41 -53.9,4.44 -128.4,3.15 -214.3,1.95 -85.7,0 -160.3,0.25 -214.2,-4.82 -53.8,-4.21 -88.1,-10.7 -92.3,-1.07 -4,8.59 25.3,33.03 82,51.34 56.4,19.1 138.1,27.17 224,27.11 z m -103.8,36.16 c -28.4,-3.31 -62.9,-7.75 -102.1,-15.61 -38.9,-8.02 -83.4,-19.03 -126.3,-40.02 -21.1,-10.5 -41.8,-23.77 -58.1,-40.69 -16.4,-16.89 -26.7,-37.68 -30,-61.15 -0.6,-4.01 -0.6,-8.11 -0.7,-12.18 232.9,-199.82 549.5,-145.44 811.7,9.18 -0.1,0.81 0,1.63 -0.1,2.44 -3.3,23.56 -13.5,44.34 -29.8,61.36 -16.2,16.96 -36.9,30.29 -58.1,40.84 -42.9,21.08 -87.3,32.11 -126.3,40.18 -39.3,7.86 -73.9,12.32 -102.2,15.64 -56.9,6.5 -88.9,8.82 -89.2,13.94 -0.2,-5.12 -32.1,-7.44 -88.8,-13.93" /></g><g
       transform="matrix(0.22309466,0,0,-0.22309466,0,2666.6667)"
       id="g2448"><path
         id="path2450"
         style="fill:#603813;fill-opacity:1;fill-rule:nonzero;stroke:none"
         d="m 15493.2,7314.01 c -25.4,-10.71 -52,-25.1 -76.1,-47.43 -24,-21.94 -43.4,-54.8 -49.8,-91.08 -1.5,-7.93 -2.1,-15.97 -2.4,-24.01 -0.2,-2.87 -0.2,-5.72 -0.1,-8.58 0,-5.1 0.4,-10.19 0.8,-15.28 0.3,-3.44 0.5,-6.87 1,-10.3 0.9,-6.79 2.3,-13.54 3.9,-20.22 2.4,-10.1 5.3,-20.07 9.1,-29.72 13.3,-34.38 33.5,-65.32 57,-93.36 47.3,-55.87 106.5,-101.61 170.2,-142.98 32,-20.66 65.4,-39.91 100,-58.18 17.2,-9.09 34.8,-17.97 52.7,-26.51 l 27.1,-12.58 14.7,-6.51 26.9,-11.26 2.8,1.13 26.6,11.05 13.8,6.08 27.1,12.54 c 17.9,8.48 35.5,17.33 52.8,26.38 34.7,18.16 68.2,37.32 100.3,57.87 64,41.16 123.4,86.7 171.1,142.28 23.6,27.92 44.1,58.75 57.6,93.08 13.4,34.22 19.7,72.08 13,108.22 -0.7,3.57 -1.9,6.92 -2.7,10.42 -4,15.98 -10,31.09 -18.1,44.74 -0.6,1.01 -1.3,1.93 -2,2.93 -3.4,5.63 -7,11.2 -11,16.24 -4.9,6.19 -10.2,12.02 -15.7,17.15 -24,22.44 -50.7,36.92 -76.1,47.68 -51.4,21.16 -99.3,28.74 -140.9,33.44 -14.6,1.51 -28.1,2.41 -41.3,3.07 -24.4,1.23 -46.5,1.31 -65.4,0.67 -58.4,-2.13 -90.2,-9.39 -89.9,-14.22 0.3,-5.11 32.1,-7.42 88.7,-13.89 28.2,-3.3 62.7,-7.74 101.8,-15.58 38.9,-8.04 83.2,-19.02 125.8,-40.02 21.2,-10.5 41.7,-23.77 57.9,-40.67 16.2,-16.95 26.5,-37.65 29.7,-61.11 4.2,-30.48 -4.8,-63.13 -22.5,-94.74 -0.2,-0.29 -0.4,-0.58 -0.5,-0.88 -3.3,-5.83 -6.8,-11.63 -10.7,-17.36 -1.3,-1.88 -2.8,-3.71 -4.1,-5.56 -2.9,-4.15 -5.8,-8.31 -9,-12.37 -4.7,-5.93 -9.6,-11.78 -14.8,-17.5 -42.2,-46.73 -97.9,-88.24 -158.7,-126.1 -30.4,-18.95 -62.5,-36.88 -95.6,-53.99 -16.6,-8.52 -33.5,-16.9 -50.5,-24.92 l -25.9,-11.85 -13.5,-5.93 v 0.02 l -12,5.34 -25.8,11.88 c -17,8.08 -33.8,16.48 -50.4,25.04 -33,17.19 -65,35.19 -95.3,54.24 -60.5,38.04 -116,79.71 -157.8,126.63 -4.9,5.54 -9.6,11.2 -14.1,16.93 -2,2.6 -3.9,5.27 -5.8,7.91 -2.2,3.07 -4.5,6.11 -6.6,9.21 -2.4,3.61 -4.6,7.27 -6.8,10.93 -1.3,2.11 -2.7,4.21 -3.9,6.33 -2.4,4.3 -4.6,8.62 -6.7,12.96 -0.7,1.43 -1.4,2.86 -2,4.31 -2.3,4.81 -4.2,9.62 -6,14.44 -0.3,0.93 -0.7,1.86 -1,2.79 -1.8,5.19 -3.3,10.36 -4.5,15.53 -0.1,0.52 -0.3,1.04 -0.4,1.55 -1.3,5.46 -2.2,10.87 -2.8,16.28 0,0.21 -0.1,0.42 -0.1,0.64 -0.5,5.6 -0.7,11.15 -0.5,16.66 v 0.01 c 0.1,4.05 0.1,8.13 0.7,12.12 3.3,23.38 13.5,44.08 29.9,60.91 16.2,16.85 36.8,30.07 57.9,40.52 42.6,20.91 86.9,31.87 125.7,39.87 39,7.82 73.4,12.24 101.7,15.54 56.5,6.46 88.2,8.77 88.5,13.88 0.3,4.83 -31.4,12.08 -89.7,14.22 -25.5,0.85 -56.4,0.51 -91.6,-2.45 -5,-0.43 -9.8,-0.73 -15,-1.26 -41.5,-4.67 -89.4,-12.24 -140.7,-33.26" /></g><g
       transform="matrix(0.24609599,0,0,-0.24609599,0,2666.6667)"
       id="g2452"><path
         id="path2454"
         style="fill:#603813;fill-opacity:1;fill-rule:nonzero;stroke:none"
         d="m 16298.4,7266.73 -13.4,8.59 c -9.2,5.86 -18.5,11.82 -27.9,17.86 -19.8,12.51 -40.2,25.37 -61.1,38.58 l -8.1,5.07 c -2.9,1.78 -5.5,3.43 -6.7,4.49 l -9.8,7.44 c -6.5,4.98 -13.1,10.01 -19.8,15.11 -96.9,76.49 -189.4,191.75 -269.3,332.83 -7.3,13.02 -14.8,25.93 -21.9,39.38 -4.7,8.54 -9.1,17.52 -13.6,26.24 -79.8,153.15 -146,332.38 -235.6,514.09 -19.7,39.33 -40.5,77.74 -62.2,115.27 -31.2,53.77 -64.5,105.45 -101.8,152.94 -62.7,81.18 -133.4,151.05 -207.2,209.18 -13.9,10.89 -28.1,21.03 -42.2,31.11 -7.9,5.62 -15.7,11.13 -23.6,16.5 -14.2,9.67 -28.4,19.27 -42.7,28.2 -69.7,43.66 -139.4,78.01 -206.8,104.78 -11.7,4.67 -23.4,9.17 -35,13.37 -30.9,11.23 -61.3,21.12 -90.6,29.14 -136.4,37.4 -251.4,44.48 -329.6,42.23 -39.2,-0.31 -69.4,-4.29 -89.8,-7.46 -20.1,-3.04 -30.5,-5.7 -30.6,-7.94 0,-0.03 -0.2,-0.07 -0.1,-0.1 0.2,-2.25 11.1,-3.96 31.4,-5.15 20.4,-1.09 50.2,-1.25 88.6,-4.84 76.3,-5.54 187,-19.48 316.7,-61.11 129.4,-41.4 277.3,-113.31 416.6,-225.83 69.2,-56.61 135.4,-123.82 193.9,-201.08 59.3,-76.8 109.6,-165.14 156.3,-258.41 92.6,-187.28 163.1,-377.67 255,-540.17 45.5,-81.08 94.7,-155.49 148.1,-219.58 0.9,-1.05 1.8,-1.98 2.7,-3.02 12,-14.24 24.1,-27.86 36.3,-41.12 8.2,-8.88 16.6,-17.19 24.9,-25.6 3.5,-3.58 7.1,-7.26 10.6,-10.75 10.8,-10.55 21.6,-20.51 32.5,-30.23 0.9,-0.75 1.7,-1.53 2.5,-2.28 11.8,-10.43 23.7,-20.3 35.7,-29.69 7.6,-5.94 15.1,-12.24 22.7,-17.74 7.4,-5.09 14.6,-10.13 21.7,-15.1 l 10.7,-7.39 c 2.1,-1.49 3.1,-2.08 3.8,-2.47 l 2.7,-1.54 c 3.7,-2.12 7.4,-4.22 10.9,-6.28 l 5.6,-3.21 4.3,-2.04 c 3,-1.42 5.9,-2.83 8.8,-4.21 l 4.6,-2.21 c 0.6,-0.63 -1.8,-0.89 -2.6,-1.37 -4.7,-1.73 -9.8,-3.35 -15.2,-4.91 -2.9,-0.77 -5.7,-1.53 -8.5,-2.28 -3,-0.82 -4.7,-1.23 -12.2,-2.67 -12.3,-2.31 -24.2,-4.32 -35.6,-5.94 -23,-3.3 -44,-5.54 -63.1,-6.94 -76.2,-5.24 -119.2,-1.43 -119.8,-6.56 2.7,1.19 6.5,-0.92 11.4,-5.36 17.3,-5.15 53.9,-11.78 109,-13.59 19.7,-0.53 41.6,-0.16 65.7,1.38 12,0.75 24.5,1.92 37.5,3.42 5.1,0.58 16.4,2 26.2,3.86 9.9,1.8 20.6,3.37 30.6,5.71 20.7,4.35 41.3,9.19 64.3,14.76 l 8.7,2.08 4.3,1.05 2.2,0.53 c 0.5,0.21 -0.8,0.66 -1.1,0.98" /></g><g
       transform="matrix(0.24446399,0,0,-0.24446399,0,2666.6667)"
       id="g2456"><path
         id="path2458"
         style="fill:#603813;fill-opacity:1;fill-rule:nonzero;stroke:none"
         d="m 16063.7,7225.09 c 10.9,-21.31 26.4,-45.93 47.7,-70.56 9,-11.14 28.7,-29.71 23.6,-25.98 0.2,-1.01 -0.3,-1.25 -0.9,-1.23 -0.9,0.08 -1.3,0.31 -1.3,0.31 v -0.04 l -0.1,-0.06 -7,-0.89 c -10.2,-1.14 -20.2,-2.25 -30.1,-3.36 -19.7,-1.89 -38.7,-3.62 -57,-4.73 -36.4,-2.48 -69.5,-3.52 -97.4,-4.33 -55.9,-1.46 -91.6,-2.71 -93.2,-11.93 3.7,1.36 9.6,-3.86 17,-14.02 15.2,-6.96 39.8,-14.48 72.6,-20.55 28.7,-5.24 63.5,-9.12 102.2,-9.92 19.5,-0.54 39.8,-0.05 60.9,1.07 10.5,0.7 21.3,1.41 32.1,2.56 l 8.8,0.93 15.8,1.94 c 10.4,1.61 20.8,3.23 31.3,4.87 20.3,2.97 38.6,6.96 57.4,10.4 18.2,3.57 36.2,7.1 53.9,10.56 -32.9,21.62 -72.6,44.76 -99.4,64.5 -14.1,9.36 -28.4,22.4 -31.8,24.82 -5.7,4.88 -11.4,9.61 -16.7,14.49 -21.4,19.17 -38.8,38.24 -53.2,54.59 -18.7,21.33 -32.1,38.09 -41.4,46.39 -5,4.48 -8.8,6.6 -11.5,5.4 -7,-2.96 -3.8,-32.23 17.7,-75.23" /></g><g
       transform="matrix(0.23999333,0,0,-0.23999333,0,2666.6667)"
       id="g2460"><path
         id="path2462"
         style="fill:#603813;fill-opacity:1;fill-rule:nonzero;stroke:none"
         d="m 16143.2,7234.59 c -8.7,-3.22 -3.9,-40.44 11,-98.01 7.4,-28.79 17.3,-62.66 29.2,-99.91 6.3,-18.68 12.8,-38.12 19.5,-58.21 5.2,-14.57 2.8,-8.59 3.2,-9.98 l -0.2,0.05 c 0,0 0,-0.06 0,-0.17 -9.8,-0.41 -19.5,-0.81 -29,-1.21 -20.6,-0.69 -40.6,-1.09 -59.7,-1.12 -38.1,-0.26 -72.5,0.65 -101.7,1.31 -58.2,1.41 -95.3,1.72 -97.3,-7.61 1,0.1 2.1,-2.18 3.5,-6.24 9.6,-9.27 40.5,-22.22 87.8,-33.27 29.5,-6.84 65.3,-12.82 105.3,-16.05 20,-1.7 41.1,-2.65 62.9,-2.83 5.5,0 11,-0.01 16.6,-0.01 6.4,0.14 12.9,0.28 19.4,0.43 21.7,1.28 43.8,2.6 66.1,3.92 l 16.8,1.14 2,0.14 c 0.9,-0.08 1.4,0.1 0.8,0.97 l -1.4,3.9 -2.8,7.77 c -3.8,10.34 -7.5,20.62 -11.1,30.82 -6.6,17.22 -13.1,34.18 -19.4,50.89 -8,19.62 -15.8,38.6 -23.2,56.85 -15.2,36.07 -29.7,68.23 -42.8,94.91 -15,30.47 -28,53.44 -38.1,67.23 -7.7,10.35 -13.7,15.67 -17.4,14.29" /></g><g
       transform="matrix(0.23576666,0,0,-0.23576666,0,2666.6667)"
       id="g2464"><path
         id="path2466"
         style="fill:#603813;fill-opacity:1;fill-rule:nonzero;stroke:none"
         d="m 16203.5,7084.5 c -3.1,-0.26 -5,-26.71 0.1,-75.68 2.6,-24.45 7.1,-54.5 15,-89.28 3.9,-17.42 8.7,-35.95 14.6,-55.55 2.9,-10.04 6.1,-20.69 9.4,-31.92 -5,1.09 -9.9,2.34 -14.6,3.16 l -7,1.3 -3.4,0.53 -7.9,0.94 c -22.6,2.23 -46.2,3.66 -70.8,3.34 -49,-0.65 -101.8,-6.74 -156.1,-21.5 -109.6,-29.18 -217.5,-95.88 -321.4,-177.6 -103.7,-82.44 -204.5,-181.68 -315,-277.2 -55.1,-47.95 -113.2,-94.7 -176.2,-134.92 -15.7,-10.23 -31.3,-20.64 -48.1,-29.01 -16.6,-8.47 -32.6,-18.91 -49.9,-25.95 -17.2,-7.34 -34.5,-14.7 -51.8,-22.09 -17.3,-5.28 -34.7,-10.59 -52.2,-15.92 -1.9,-0.44 0.1,-0.36 -1.5,-0.07 l -11.1,3.44 -26.8,8.19 c -18.3,4.41 -34.9,13.7 -52.2,20.6 -8.5,3.81 -17.2,7.13 -25.5,11.29 l -24.6,13.59 c -16.3,9.1 -32.8,17.46 -48.1,28.36 -63.2,39.47 -120.2,87.5 -175,135.59 -109,96.94 -207.9,198.12 -310.4,282.22 -102.8,83.28 -211.1,150.47 -320.6,179.48 -54.3,14.76 -107.1,20.85 -156.2,21.5 -24.5,0.32 -48.1,-1.11 -70.7,-3.34 l -7.9,-0.94 -3.4,-0.53 -7,-1.3 c -4.7,-0.82 -9.6,-2.07 -14.6,-3.16 3.3,11.23 6.5,21.88 9.4,31.92 5.9,19.6 10.7,38.13 14.6,55.55 7.9,34.78 12.4,64.83 15,89.28 4.2,40.76 3.6,65.65 1.5,73.09 -0.4,1.25 -0.8,2.07 -1.2,2.3 -0.1,0.05 -0.2,0.29 -0.2,0.29 0.4,-1.79 -1.1,-3.99 -3.6,-6.35 -3.3,-10.2 -7.9,-32.65 -15.7,-66.05 -5.6,-23.44 -12.9,-52.14 -23.3,-85.14 -5.1,-16.53 -11.2,-34.07 -18.1,-52.57 -5.1,-13.07 -10.4,-26.54 -15.8,-40.4 -6.5,-15.55 -13.2,-31.54 -20,-47.95 15.4,2.22 31.1,4.5 47.2,6.82 8.3,1.09 16.7,2.19 25.2,3.29 l 12.8,1.12 8.3,0.55 c 21.2,0.98 43.3,1.26 66.1,-0.09 45.7,-2.7 94.4,-10.33 143.8,-25.72 99.1,-30.03 198.5,-95.03 296.1,-177.48 97.6,-83.5 193.8,-185.01 304.7,-285.69 55.7,-49.91 114.6,-100.45 182.4,-143.39 16.2,-11.62 34.3,-21 52,-30.95 l 26.8,-14.86 c 9.1,-4.6 18.8,-8.41 28.2,-12.65 19.2,-7.79 37.5,-17.79 58.1,-23.03 l 30.2,-9.27 17.5,-5.32 c 4,-0.92 8.9,-3.35 13.7,-3.56 l 13.5,4.1 c 20.8,6.35 41.5,12.67 62.2,18.97 19.1,8.2 38.2,16.36 57.2,24.49 19.1,7.95 36.2,19.06 54.3,28.41 18.1,9.28 34.8,20.41 51.5,31.39 67.1,43.32 127,92.5 182.8,142.01 112.1,98.98 210.2,198.61 309.2,280.69 98.9,81.17 198.6,146.03 297.5,176.14 49.5,15.39 98.3,23.02 143.9,25.72 22.8,1.35 44.9,1.07 66.1,0.09 l 8.3,-0.55 12.8,-1.12 c 8.4,-1.1 16.9,-2.2 25.2,-3.29 16.1,-2.32 31.8,-4.6 47.2,-6.82 -6.8,16.41 -13.5,32.4 -20,47.95 -5.4,13.86 -10.7,27.33 -15.8,40.4 -6.9,18.5 -13,36.04 -18.1,52.57 -10.4,33 -17.7,61.7 -23.3,85.14 -7.8,33.4 -12.4,55.85 -15.7,66.05 -1.4,4.12 -2.5,6.45 -3.6,6.35" /></g><g
       transform="matrix(0.19891333,0,0,-0.19891333,0,2666.6667)"
       id="g2468"><path
         id="path2470"
         style="fill:#603813;fill-opacity:1;fill-rule:nonzero;stroke:none"
         d="m 16182,8406.27 c -35.1,-0.8 -76.7,-1.89 -122.6,-1.58 -23,0.04 -47.2,0.52 -72.1,1.36 -11.5,0.47 -23.1,0.95 -34.9,1.45 -0.1,0.14 0,0.21 0,0.21 l -0.2,-0.06 c 0.4,1.67 -2.5,-5.55 3.7,12.03 8.1,24.25 16,47.7 23.5,70.24 14.5,44.95 26.5,85.81 35.4,120.54 16.8,65.39 22.8,108.54 14.7,116.69 -0.4,0.42 -0.7,1.07 -1.2,1.29 -0.1,0.06 -0.2,0.24 -0.3,0.27 0.9,-4.61 -6.8,-10.74 -20.9,-17.23 -12.2,-16.64 -28,-44.36 -46.1,-81.12 -15.8,-32.18 -33.3,-70.99 -51.6,-114.51 -9,-22.01 -18.3,-44.92 -27.9,-68.59 -7.7,-20.16 -15.5,-40.63 -23.4,-61.4 -4.5,-12.31 -9,-24.71 -13.5,-37.19 l -3.4,-9.38 -1.6,-4.69 c -0.8,-1.06 -0.2,-1.28 0.9,-1.18 l 2.5,-0.17 20.2,-1.37 c 26.9,-1.6 53.5,-3.18 79.8,-4.74 7.8,-0.17 15.7,-0.34 23.4,-0.51 6.7,0 13.3,0.01 20,0.01 26.3,0.22 51.8,1.37 75.9,3.42 48.3,3.89 91.4,11.11 127,19.36 57.1,13.33 94.3,28.96 106,40.14 3,2.81 4.7,5.41 4.2,7.54 -2.5,11.24 -47.2,10.88 -117.5,9.17" /></g><g
       transform="matrix(0.195604,0,0,-0.195604,0,2666.6667)"
       id="g2472"><path
         id="path2474"
         style="fill:#603813;fill-opacity:1;fill-rule:nonzero;stroke:none"
         d="m 16299.1,8876.37 c -2,11.52 -46.6,13.08 -116.4,14.9 -34.9,1.01 -76.2,2.31 -121.8,5.42 -22.8,1.39 -46.6,3.55 -71.3,5.91 -12.3,1.38 -24.8,2.78 -37.5,4.2 l -8.8,1.11 -0.1,0.08 v 0.04 c 0,0 -0.5,-0.28 -1.7,-0.39 -0.7,-0.01 -1.3,0.28 -1.1,1.54 -6.3,-4.66 18.3,18.55 29.5,32.47 26.7,30.79 46,61.55 59.6,88.19 25.2,50.27 30.1,85.15 23.5,92.52 -0.3,0.44 -0.6,1.06 -1.1,1.3 -0.1,0.04 -0.2,0.16 -0.2,0.2 0.2,-1.45 -5.1,-3.94 -14.4,-6.75 -11.6,-10.37 -28.4,-31.32 -51.7,-57.98 -18,-20.44 -39.8,-44.27 -66.6,-68.22 -6.6,-6.1 -13.7,-12.01 -20.8,-18.11 -4.2,-3.03 -22.1,-19.32 -39.8,-31.02 -33.4,-24.68 -83.1,-53.59 -124.2,-80.61 22.1,-4.33 44.6,-8.74 67.4,-13.2 23.4,-4.3 46.3,-9.29 71.7,-13 13.1,-2.05 26.2,-4.07 39.2,-6.09 l 19.7,-2.42 11,-1.17 c 13.5,-1.43 27,-2.32 40.1,-3.2 26.4,-1.4 51.8,-2 76.1,-1.33 48.4,1.01 91.9,5.85 127.8,12.4 41,7.59 71.7,16.98 90.6,25.68 14.4,6.6 22.2,12.83 21.3,17.53" /></g><g
       transform="matrix(0.21663999,0,0,-0.21663999,0,2666.6667)"
       id="g2476"><path
         id="path2478"
         style="fill:#603813;fill-opacity:1;fill-rule:nonzero;stroke:none"
         d="m 14493.1,8237.94 c -0.7,5.82 -49.5,1.49 -136.1,7.45 -21.7,1.59 -45.6,4.13 -71.6,7.88 -13,1.84 -26.6,4.12 -40.5,6.75 -8.6,1.63 -10.4,2.1 -14,3.03 -3.1,0.85 -6.3,1.72 -9.6,2.6 -6.1,1.77 -11.9,3.6 -17.3,5.57 -0.8,0.54 -3.6,0.84 -2.8,1.56 l 5.2,2.51 c 3.2,1.57 6.6,3.16 10,4.78 l 4.8,2.32 6.4,3.64 c 4,2.34 8.2,4.73 12.4,7.13 l 3,1.76 c 0.9,0.44 2,1.11 4.4,2.8 l 12.1,8.4 c 8.1,5.65 16.3,11.37 24.6,17.15 11.6,8.34 23,17.63 34.5,26.87 11.4,9.19 22.7,18.9 34,28.94 2.9,2.56 5.7,5.12 8.6,7.74 9.7,8.83 19.4,17.83 28.9,27.25 5.8,5.71 11.6,11.61 17.4,17.54 7.2,7.34 14.4,14.55 21.4,22.21 13.5,14.5 26.8,29.35 40,44.88 1.9,2.34 4,4.45 6,6.81 60.7,72.81 116.5,157.34 168.3,249.44 104.3,184.59 184.4,400.87 289.6,613.62 53,105.95 110.2,206.3 177.6,293.55 66.4,87.75 141.7,164.1 220.2,228.41 158.3,127.77 326.2,209.47 473.2,256.57 147.4,47.3 273.1,63.1 359.9,69.4 43.5,4.1 77.4,4.2 100.5,5.5 23.2,1.3 35.6,3.3 35.8,5.8 0,0.1 -0.2,0.1 -0.2,0.2 -0.2,2.5 -12,5.5 -34.8,9 -23.1,3.6 -57.4,8.1 -102,8.4 -88.9,2.6 -219.4,-5.4 -374.3,-47.9 -33.3,-9.1 -67.8,-20.4 -103,-33.1 -13.2,-4.8 -26.4,-9.9 -39.7,-15.2 -75.6,-30.1 -153.9,-68.4 -232.1,-117.2 -41.3,-25.7 -82.6,-54.34 -123.3,-85.88 -0.9,-0.73 -1.9,-1.36 -2.8,-2.09 -83.8,-66.02 -164.2,-145.4 -235.3,-237.61 -40.2,-51.09 -76.3,-106.42 -110.1,-163.99 -26.8,-45.65 -52.2,-92.63 -76.3,-140.69 -101.8,-206.42 -177,-410.02 -267.6,-583.99 -5.1,-9.91 -10.2,-20.11 -15.5,-29.81 -8.1,-15.28 -16.5,-29.95 -24.9,-44.73 -90.8,-160.26 -195.8,-291.2 -305.9,-378.09 -7.6,-5.79 -15.1,-11.51 -22.5,-17.17 l -11.1,-8.45 c -1.3,-1.2 -4.3,-3.08 -7.6,-5.1 l -9.2,-5.76 c -23.7,-15 -46.9,-29.61 -69.4,-43.82 -10.7,-6.87 -21.3,-13.63 -31.7,-20.29 l -15.2,-9.75 c -0.4,-0.37 -1.8,-0.88 -1.3,-1.12 l 2.5,-0.6 4.9,-1.2 9.8,-2.36 c 26.2,-6.33 49.6,-11.82 73.2,-16.77 11.4,-2.66 23.4,-4.44 34.7,-6.49 11.1,-2.11 24,-3.71 29.8,-4.37 14.7,-1.71 29,-3.04 42.6,-3.89 27.3,-1.75 52.2,-2.17 74.6,-1.56 62.5,2.05 104.2,9.58 123.8,15.43 8.4,2.53 13.2,4.78 13,6.09" /></g><g
       transform="matrix(0.21326799,0,0,-0.21326799,0,2666.6667)"
       id="g2480"><path
         id="path2482"
         style="fill:#ffffff;fill-opacity:1;fill-rule:nonzero;stroke:none"
         d="m 16212.5,8948.04 c 0.9,-1.2 2,-2.4 2.9,-3.59 5,-6.33 9.5,-12.52 13.6,-18.54 0.9,-1.34 1.8,-2.63 2.7,-3.95 3.8,-5.97 7.5,-11.8 10.6,-17.37 0.4,-0.71 0.7,-1.37 1.1,-2.07 2.8,-5.14 5.2,-10.05 7.4,-14.76 0.5,-1.06 1.1,-2.13 1.5,-3.16 2.1,-4.83 3.9,-9.34 5.6,-13.61 0.3,-1.09 0.7,-2.11 1.1,-3.16 1.4,-4.14 2.7,-8.03 3.7,-11.51 0.2,-0.53 0.2,-0.97 0.4,-1.48 1,-3.42 1.7,-6.49 2.3,-9.16 0,-0.25 0,-0.51 0.1,-0.75 0.6,-2.99 1,-5.34 1.3,-7.21 11.3,-7.94 22.4,-16.12 33.2,-24.75 -2.9,9 -6.3,18.13 -9.8,27.3 -0.9,2.49 -2,4.97 -3,7.48 -2.6,6.8 -5.6,13.61 -8.6,20.43 -1.4,3.05 -2.8,6.09 -4.2,9.13 -3.2,6.62 -6.5,13.19 -10,19.75 -1.5,2.8 -2.9,5.61 -4.5,8.4 -5.1,9.15 -10.5,18.23 -16.4,27.08 -17.1,15.61 -36.3,31.32 -49.1,36.09 6.7,-6.99 12.6,-13.84 18.1,-20.59" /></g><g
       transform="matrix(0.21367999,0,0,-0.21367999,0,2666.6667)"
       id="g2484"><path
         id="path2486"
         style="fill:#ffffff;fill-opacity:1;fill-rule:nonzero;stroke:none"
         d="m 16077.7,8670.12 c -0.1,-1.81 -0.3,-3.5 -0.5,-5.07 -0.1,-1.57 -0.3,-3.01 -0.5,-4.32 -0.2,-1.32 -0.5,-2.51 -0.7,-3.58 -1,-4.24 -2.1,-6.43 -3.3,-6.43 0.4,0 0.8,-2.13 1,-6.19 0.1,-1.02 0.2,-2.16 0.2,-3.41 0.1,-1.26 0.1,-2.63 0.1,-4.12 0,-2.98 0,-6.43 -0.3,-10.29 -0.4,-7.75 -1.5,-17.21 -3.6,-28.06 -2.2,-10.84 -5.5,-23.06 -10.7,-36.07 -2.5,-6.54 -5.6,-13.16 -9.1,-19.98 -3.7,-6.7 -7.6,-13.65 -12.5,-20.37 -9.4,-13.56 -21.5,-26.82 -36.4,-38.24 -15,-11.28 -32.9,-20.55 -53,-25.28 -10,-2.38 -20.5,-3.6 -31.2,-3.55 -10.6,0.09 -21.4,1.47 -32,4.14 -10.6,2.77 -20.6,6.76 -30,11.69 -2.3,1.25 -4.7,2.56 -6.9,3.88 -2.2,1.42 -4.5,2.72 -6.6,4.22 -2.2,1.48 -4.3,2.92 -6.4,4.51 l -3,2.33 -3.5,2.81 c -1.9,1.54 -3.6,3.12 -5.4,4.72 -1.8,1.59 -3.6,3.18 -5.4,4.77 l -2.6,2.38 -0.4,0.29 c 0.2,0.05 0.4,0.09 0.5,0.13 l 0.8,0.28 1.6,0.55 c 2.2,0.72 4.4,1.45 6.6,2.17 2.1,0.75 4.9,1.35 6.9,2.22 l 2.3,0.86 c 0.6,0.16 1.1,0.42 1.6,0.64 2,0.92 4,1.81 5.9,2.93 7.8,4.18 14.4,9.95 19.8,16.4 10.7,13.04 16.3,29.4 15.3,44.08 -0.2,1.48 -0.7,2.79 -0.9,4.2 -4.4,6.34 -8.1,12.84 -10.6,19.37 -0.8,0.69 -1.5,1.6 -2.4,2.23 -0.7,0.39 -1.4,0.79 -2.1,1.18 l -1,0.59 -1,0.47 c -0.8,0.31 -1.5,0.62 -2.2,0.93 -0.7,0.27 -1.4,0.47 -2.2,0.71 -6,1.71 -12.2,2.35 -18,1.97 -5.8,-0.5 -11.1,-1.87 -16,-3.64 -9.7,-3.75 -17.5,-8.92 -23.4,-13.55 -5.9,-4.65 -10.2,-8.68 -13.2,-11.44 -3,-2.74 -4.5,-4.16 -4.8,-3.9 -2.1,-0.8 -7.7,6.51 -13.8,21.78 -5.9,15.21 -12.1,38.66 -12.4,68.42 -0.2,14.86 1.2,31.25 4.8,48.55 3.6,17.28 9.5,35.47 18.7,53.43 9.2,17.9 21.4,35.7 37.6,51.19 16.1,15.48 36.1,28.71 59.3,36.4 23.1,7.76 47.7,9.16 70.2,4.97 22.6,-4.13 43,-13.76 59.7,-25.81 8.4,-6.01 15.9,-12.64 22.5,-19.63 6.6,-6.97 12.6,-14.15 17.7,-21.52 5,-7.37 9.6,-14.69 13.3,-22.06 2,-3.6 3.5,-7.32 5.2,-10.86 1.5,-3.63 3.1,-7.15 4.3,-10.67 5.2,-14.03 8.4,-27.15 10.2,-38.73 1.8,-11.59 2.3,-21.66 2.1,-29.85 0,-2.04 0,-3.96 -0.2,-5.77 z m 157.7,150.55 c 0.4,-2.77 0.5,-4.4 0.5,-4.4 0,0 -1.7,2.84 -4.5,7.14 -121.2,83.9 -269,127.01 -410.7,114.13 -108.1,-18.01 -204,-96.75 -296,-187.05 -2.9,-6.66 -5.5,-13.38 -7.8,-20.12 -0.3,-0.84 -0.6,-1.69 -0.8,-2.53 -1.9,-5.83 -3.6,-11.69 -5,-17.56 -0.4,-1.45 -0.8,-2.9 -1.1,-4.35 -1.2,-5.41 -2.1,-10.85 -2.8,-16.3 -0.2,-1.66 -0.5,-3.31 -0.7,-4.97 -0.8,-6.9 -1.3,-13.82 -1.3,-20.77 0,-84.6 16.2,-133.2 32,-160.64 6.8,-8.4 13.7,-16.84 21,-25.3 6,-5.27 9.4,-7.98 9.4,-7.98 0,0 -2,0.94 -5.3,3.28 85.9,-98.6 205.1,-195.48 342.9,-195.48 280.5,0 394.8,353.23 394.8,353.23 0,0 -0.1,0.49 -0.1,1.23 0,0.3 0,0.76 0,1.17 -0.1,0.83 -0.2,1.87 -0.2,3.13 -0.1,0.69 -0.1,1.25 -0.1,2.06 -0.2,1.86 -0.3,4.08 -0.5,6.55 -0.2,1.16 -0.3,2.47 -0.4,3.75 -0.1,1.8 -0.3,3.71 -0.5,5.76 -0.2,1.54 -0.3,3.05 -0.5,4.73 -0.4,3.32 -0.8,6.87 -1.3,10.67 -0.2,1.92 -0.5,4 -0.8,6.04 -0.3,2.47 -0.7,5 -1,7.63 -0.4,2.36 -0.7,4.74 -1.1,7.23 -0.6,3.74 -1.2,7.63 -1.9,11.63 -0.6,3.12 -1.2,6.34 -1.8,9.61 -0.6,3.17 -1.2,6.37 -1.9,9.67 -0.6,2.82 -1.1,5.67 -1.8,8.57 -0.8,3.8 -1.7,7.69 -2.6,11.61 -0.9,3.9 -1.8,7.85 -2.9,11.86 -1,4.16 -2.1,8.34 -3.3,12.6 -0.8,2.95 -1.6,5.92 -2.5,8.9 -1.3,4.31 -2.6,8.64 -3.9,13.02 -0.8,2.52 -1.5,5.01 -2.4,7.55 -10.7,8.61 -21.9,16.78 -33.1,24.7" /></g><g
       transform="matrix(0.21278133,0,0,-0.21278133,0,2666.6667)"
       id="g2488"><path
         id="path2490"
         style="fill:#cccccc;fill-opacity:1;fill-rule:nonzero;stroke:none"
         d="m 15887.5,8975.3 c 142.3,12.94 290.8,-30.35 412.5,-114.61 -0.9,1.48 -2.3,3.52 -3.6,5.43 -1,1.52 -2,3.08 -3.2,4.83 -1,1.54 -2.3,3.29 -3.5,5.01 -1.9,2.62 -3.9,5.45 -6.1,8.43 -1.1,1.54 -2.3,3.11 -3.5,4.73 -2.7,3.64 -5.7,7.51 -8.9,11.51 -1.1,1.38 -2.1,2.73 -3.3,4.15 -3.8,4.73 -7.9,9.69 -12.4,14.78 -0.7,0.92 -1.5,1.8 -2.3,2.73 -16.4,18.63 -36.5,39.02 -60,58.55 -1.1,0.88 -2.3,1.73 -3.4,2.59 -6.5,5.4 -13.4,10.71 -20.6,15.89 -2.2,1.58 -4.5,3.08 -6.7,4.63 -6.3,4.37 -12.7,8.62 -19.3,12.72 -3,1.82 -6.1,3.55 -9.1,5.31 -6.2,3.64 -12.6,7.12 -19.2,10.46 -3.5,1.77 -7,3.48 -10.6,5.16 -6.4,3.02 -13.1,5.82 -19.9,8.49 -3.8,1.53 -7.7,3.08 -11.7,4.48 -6.9,2.44 -13.9,4.51 -21.2,6.52 -4,1.14 -8,2.39 -12.2,3.38 -7.7,1.85 -15.8,3.19 -23.9,4.47 -3.8,0.59 -7.4,1.41 -11.3,1.88 -12,1.44 -24.3,2.3 -36.9,2.3 -84.5,0 -149.9,-48.36 -215.6,-97.37 -7.9,-5.86 -15.6,-11.92 -23.2,-18.05 -1.9,-1.57 -3.9,-3.15 -5.8,-4.74 -6.6,-5.43 -13.1,-10.96 -19.5,-16.59 -0.9,-0.86 -1.9,-1.7 -2.8,-2.56 -7.6,-6.74 -14.9,-13.61 -21.9,-20.61 -0.8,-0.76 -1.6,-1.55 -2.3,-2.32 -6.6,-6.56 -12.9,-13.22 -19,-19.97 -0.6,-0.72 -1.3,-1.42 -2,-2.13 -13.4,-15.09 -25.7,-30.65 -36.5,-46.58 -0.2,-0.33 -0.4,-0.67 -0.7,-1 -10.8,-16.23 -20.2,-32.84 -27.6,-49.74 92.4,90.69 188.7,169.75 297.2,187.84" /></g><g
       transform="matrix(0.21070133,0,0,-0.21070133,0,2666.6667)"
       id="g2492"><path
         id="path2494"
         style="fill:#d13d7f;fill-opacity:1;fill-rule:nonzero;stroke:none"
         d="m 16292.1,8797.19 c -1.8,7.65 -4.1,16.89 -7.5,27.29 -3.4,10.41 -7.8,21.99 -13.9,34.1 -1.5,3.04 -3.2,6.05 -4.8,9.16 -0.2,0.3 -0.4,0.61 -0.6,0.91 -1.4,-17.49 -15.7,-31.38 -33.5,-31.38 -18.9,0 -34.2,15.29 -34.2,34.13 0,18.85 15.3,34.13 34.2,34.13 2.5,0 4.8,-0.93 7.1,-1.46 -2.7,2.93 -5.2,5.98 -8.2,8.78 -5.9,5.6 -12.5,10.8 -19.7,15.43 -14.2,9.28 -30.6,16.29 -48.4,19.12 -17.7,2.88 -36.7,1.59 -54.7,-4.48 -18.2,-6.02 -34.4,-16.36 -48.1,-28.9 -13.7,-12.52 -24.7,-27.3 -33.4,-42.46 -8.6,-15.21 -14.8,-30.93 -19.2,-46.11 -4.2,-15.21 -6.9,-29.88 -8.2,-43.45 -0.4,-4.54 -0.5,-8.73 -0.7,-13 20.7,10.02 49.1,20.64 84.8,26.55 1.3,6.15 2.9,11.38 4.5,15.51 3.3,8.5 6.2,12.62 7.3,12.22 1.1,-0.44 0.3,-5.31 -0.9,-13.87 -0.5,-3.44 -0.9,-7.9 -1.3,-12.51 29.4,4.02 63.2,4.79 101.4,-0.51 -0.6,6.16 -1.3,11.51 -2,15.83 -1.4,8.52 -2.3,13.36 -1.2,13.83 1,0.43 4.1,-3.62 7.6,-12.04 2,-4.91 4,-11.52 5.6,-19.29 29.3,-4.81 60.9,-13.01 94.9,-26.13 0.4,2.69 0.7,4.45 1,4.45 -2.5,-0.01 -4.4,8.86 -7.9,24.15" /></g><g
       transform="matrix(0.21036799,0,0,-0.21036799,0,2666.6667)"
       id="g2496"><path
         id="path2498"
         style="fill:#ffa87f;fill-opacity:1;fill-rule:nonzero;stroke:none"
         d="m 16207,8702.28 c -4.4,-4.73 -9.4,-9.24 -15.4,-12.67 -3.1,-1.75 -6.4,-3.2 -9.9,-4.24 -3.5,-1.09 -7.1,-1.73 -10.9,-1.86 -3.7,-0.18 -7.4,0.14 -11,0.95 -3.6,0.76 -7,1.95 -10.2,3.51 -5.5,2.58 -10.1,6.19 -14.1,10.02 -0.8,-15.08 -6.4,-30.38 -16.6,-43.25 -6.3,-7.63 -13.9,-14.5 -23,-19.53 -2.2,-1.33 -4.6,-2.42 -7,-3.51 -0.5,-0.28 -1.2,-0.57 -1.7,-0.78 l -1.2,-0.42 c 0,-0.05 0,-0.05 -0.1,-0.07 -0.2,-0.04 0.1,-0.16 0.1,-0.2 l 2.4,-1.92 2.9,-2.17 c 2,-1.5 4,-2.84 6,-4.22 2,-1.42 4.2,-2.62 6.3,-3.95 2.1,-1.23 4.2,-2.45 6.4,-3.62 8.9,-4.58 18.3,-8.28 28.1,-10.87 9.9,-2.49 19.9,-3.78 29.8,-3.91 10,-0.08 19.7,1 29,3.15 18.8,4.27 35.8,12.74 50.2,23.22 14.2,10.63 26.2,23.08 35.5,35.96 4.9,6.37 8.9,13.01 12.7,19.41 1.8,3.21 3.1,6.3 4.7,9.44 -31.1,10.29 -60.3,16.62 -87.2,19.91 -1.9,-2.81 -3.5,-5.71 -5.8,-8.38" /></g><g
       transform="matrix(0.20899333,0,0,-0.20899333,0,2666.6667)"
       id="g2500"><path
         id="path2502"
         style="fill:#ffa87f;fill-opacity:1;fill-rule:nonzero;stroke:none"
         d="m 16250.3,8770.18 c 0.4,-0.4 0.6,-0.92 1,-1.32 7,-6.94 15.9,-11.61 25.2,-11.13 8.7,0.29 16.9,5.26 23.5,12.06 -17.5,1.29 -34.2,1.34 -49.7,0.39" /></g><g
       transform="matrix(0.20792399,0,0,-0.20792399,0,2666.6667)"
       id="g2504"><path
         id="path2506"
         style="fill:#ff3d7f;fill-opacity:1;fill-rule:nonzero;stroke:none"
         d="m 16230.9,8826.71 c 5.9,5.47 13.8,11.66 24.5,16.47 5.4,2.29 11.5,4.19 18.2,5.05 6.8,0.76 14,0.36 21.4,-1.48 1,-0.26 1.9,-0.48 2.8,-0.78 0.8,-0.29 1.5,-0.58 2.2,-0.87 -4.6,16.54 -5.6,32.2 -5,45.42 0.4,8.47 1.5,16 2.9,22.51 -36.2,-5.99 -65,-16.75 -85.9,-26.9 -1,-21.58 0.6,-39.76 2.1,-52.89 1.5,-11.71 2.7,-19.67 2.3,-23.38 0.5,0.89 1.1,1.86 2.2,3.24 2.5,3.37 6.4,8.12 12.3,13.61" /></g><g
       transform="matrix(0.20934133,0,0,-0.20934133,0,2666.6667)"
       id="g2508"><path
         id="path2510"
         style="fill:#ff3d7f;fill-opacity:1;fill-rule:nonzero;stroke:none"
         d="m 16196.8,8830.3 c 0.7,-15.18 3.5,-33.4 11.3,-51.34 3.7,-8.38 8.8,-16.56 15.2,-23.34 15.5,0.94 32.1,0.89 49.6,-0.39 0.3,0.34 0.7,0.63 1.1,0.97 6.8,7.37 11.7,16.35 15.5,25.36 3.7,9.04 6.1,18.21 7.7,26.94 1.6,8.73 2.3,17.05 2.5,24.68 0.3,7.53 0,14.31 -0.5,20.34 -38.4,5.33 -72.4,4.55 -102,0.51 -0.6,-6.9 -0.9,-14.6 -0.4,-23.73" /></g><g
       transform="matrix(0.21068799,0,0,-0.21068799,0,2666.6667)"
       id="g2512"><path
         id="path2514"
         style="fill:#ff3d7f;fill-opacity:1;fill-rule:nonzero;stroke:none"
         d="m 16207,8750.17 c -1.1,-9.64 -3.2,-19.91 -7,-30.37 -2.8,-7.52 -6.8,-15.07 -11.8,-22.37 26.9,-3.28 56,-9.6 87.1,-19.87 1.6,3.23 3.4,6.53 4.8,9.71 5.5,12.52 9.3,24.35 12,34.91 2.6,10.57 4.4,19.85 5.5,27.49 0.6,3.81 0.9,7.22 1.3,10.19 0.2,1.48 0.3,2.84 0.5,4.1 0.2,1.24 0.3,2.38 0.3,3.4 0.1,0.78 0.2,1.13 0.3,1.77 -34,13.13 -65.6,21.33 -94.9,26.13 1.1,-5.5 2.1,-11.51 2.5,-18.28 0.5,-8.16 0.5,-17.17 -0.6,-26.81" /></g><g
       transform="matrix(0.20407866,0,0,-0.20407866,0,2666.6667)"
       id="g2516"><path
         id="path2518"
         style="fill:#603813;fill-opacity:1;fill-rule:nonzero;stroke:none"
         d="m 16290.2,8876.83 c -2.8,2.46 -6.2,5.55 -10.1,9.09 5.8,-6.96 10.8,-11.38 14.4,-14.01 3.4,-2.45 5.5,-3.44 5.5,-3.44 0,0 -3.5,2.84 -9.8,8.36" /></g><g
       transform="matrix(0.21315733,0,0,-0.21315733,0,2666.6667)"
       id="g2520"><path
         id="path2522"
         style="fill:#603813;fill-opacity:1;fill-rule:nonzero;stroke:none"
         d="m 15359.3,8685.14 c 27.7,0 69.4,6.95 131.8,-72.9 39.7,-50.61 75,-85.76 95.6,-104.79 -3.6,4.4 -7.5,9.88 -11.4,16.65 -15.8,27.51 -32,76.23 -32,161.04 0,6.96 0.5,13.9 1.2,20.82 0.2,1.66 0.5,3.31 0.7,4.98 0.7,5.46 1.7,10.91 2.9,16.34 0.3,1.45 0.7,2.91 1,4.36 1.5,5.89 3.1,11.76 5,17.6 0.3,0.84 0.6,1.69 0.8,2.54 8.2,23.84 20.3,47.2 35.5,69.82 0.2,0.33 0.4,0.67 0.6,1 10.8,15.9 23,31.43 36.5,46.49 0.6,0.72 1.3,1.42 1.9,2.13 6.1,6.74 12.4,13.39 19,19.94 0.8,0.77 1.5,1.55 2.3,2.32 7.1,6.98 14.3,13.85 21.8,20.57 1,0.86 2,1.69 2.9,2.55 6.4,5.62 12.8,11.14 19.5,16.57 1.9,1.58 3.8,3.16 5.7,4.72 7.6,6.13 15.3,12.17 23.2,18.03 65.6,48.92 130.9,97.19 215.2,97.19 12.6,0 24.9,-0.86 36.9,-2.3 3.8,-0.46 7.5,-1.29 11.2,-1.88 8.1,-1.27 16.2,-2.61 23.9,-4.45 4.1,-0.99 8.1,-2.24 12.2,-3.38 7.2,-2.01 14.3,-4.07 21.2,-6.51 3.9,-1.4 7.8,-2.93 11.6,-4.46 6.8,-2.68 13.4,-5.47 19.9,-8.49 3.5,-1.67 7,-3.37 10.6,-5.14 6.5,-3.34 12.9,-6.82 19.2,-10.45 3,-1.75 6,-3.48 9,-5.29 6.6,-4.1 13,-8.35 19.3,-12.71 2.2,-1.54 4.5,-3.04 6.7,-4.61 7.1,-5.18 14,-10.48 20.6,-15.87 1,-0.86 2.2,-1.7 3.3,-2.58 23.5,-19.5 43.6,-39.86 59.9,-58.45 0.8,-0.94 1.6,-1.8 2.3,-2.73 4.5,-5.07 8.6,-10.03 12.4,-14.75 1.2,-1.43 2.2,-2.75 3.3,-4.14 3.2,-4 6.1,-7.86 8.9,-11.49 1.2,-1.65 2.4,-3.15 3.5,-4.72 2.2,-2.98 4.2,-5.8 6.1,-8.42 1.2,-1.78 2.3,-3.39 3.5,-5 1.2,-1.75 2.2,-3.3 3.2,-4.82 5.1,-7.7 8,-12.58 8,-12.58 0,0 -0.1,1.64 -0.5,4.41 -0.3,1.87 -0.7,4.22 -1.3,7.21 0,0.24 -0.1,0.52 -0.1,0.75 -0.6,2.68 -1.3,5.74 -2.3,9.17 -0.1,0.51 -0.2,0.96 -0.4,1.48 -0.9,3.49 -2.2,7.37 -3.7,11.51 -0.4,1.04 -0.7,2.09 -1.1,3.17 -1.6,4.27 -3.5,8.78 -5.6,13.61 -0.4,1.03 -1,2.11 -1.5,3.16 -2.2,4.72 -4.6,9.63 -7.4,14.77 -0.4,0.71 -0.7,1.37 -1.1,2.08 -3.1,5.56 -6.7,11.4 -10.6,17.38 -0.9,1.3 -1.8,2.61 -2.7,3.94 -4.1,6.03 -8.6,12.22 -13.6,18.55 -0.9,1.19 -2,2.4 -2.9,3.6 -5.5,6.75 -11.4,13.6 -18.1,20.59 12.8,-4.77 32,-20.48 49.1,-36.1 20.3,-18.47 37.7,-36.8 37.7,-36.8 0,0 -38.2,100.68 -107.6,142.33 34.7,-13.89 48.6,-24.3 118,-62.48 -243,246.47 -499.9,225.64 -499.9,225.64 0,0 107.6,-10.42 142.4,-41.66 -354.1,-6.94 -494.7,-359.29 -557.2,-428.72 -62.5,-69.43 -236.1,-62.49 -236.1,-62.49 53.8,-22.57 182.3,12.15 210.1,12.15" /></g><g
       transform="matrix(0.20811333,0,0,-0.20811333,0,2666.6667)"
       id="g2524"><path
         id="path2526"
         style="fill:#603813;fill-opacity:1;fill-rule:nonzero;stroke:none"
         d="m 16293.9,8820.2 c -1.4,1.79 -3.1,3.05 -4.8,4.42 2.6,-6.7 6.4,-13.39 10.9,-19.89 -0.4,2.16 -0.6,4.39 -1.3,6.41 -1.1,3.37 -2.9,6.37 -4.8,9.06" /></g><g
       transform="matrix(0.20949999,0,0,-0.20949999,0,2666.6667)"
       id="g2528"><path
         id="path2530"
         style="fill:#603813;fill-opacity:1;fill-rule:nonzero;stroke:none"
         d="m 16177.4,8778.55 c 0.2,-0.07 0.3,-0.14 0.5,-0.23 l 1.4,-0.55 1.4,-0.7 c 0.9,-0.49 1.8,-0.97 2.7,-1.45 3.4,-2.25 6.8,-4.93 9.5,-8.31 2.7,-3.37 5,-7.17 6.5,-11.31 1.5,-4.14 2.6,-8.49 3,-12.97 0.3,-2.98 0,-5.99 -0.1,-9.01 4.1,-3.84 8.7,-7.47 14.2,-10.06 3.2,-1.56 6.6,-2.76 10.2,-3.53 3.6,-0.81 7.4,-1.13 11.1,-0.95 3.8,0.14 7.5,0.77 11,1.87 3.5,1.05 6.8,2.5 9.8,4.26 6.1,3.44 11.2,7.97 15.5,12.73 2.4,2.68 3.9,5.58 5.9,8.4 5,7.35 9.1,14.93 11.9,22.5 3.8,10.51 5.9,20.84 7,30.54 1.1,9.69 1.1,18.76 0.6,26.96 -0.5,6.81 -1.4,12.86 -2.6,18.39 -1.5,7.82 -3.6,14.47 -5.6,19.4 -3.5,8.47 -6.6,12.55 -7.6,12.12 -1.1,-0.48 -0.2,-5.34 1.2,-13.92 0.7,-4.34 1.4,-9.72 2,-15.92 0.5,-6.02 0.8,-12.8 0.5,-20.32 -0.3,-7.62 -1,-15.94 -2.5,-24.67 -1.6,-8.72 -4.1,-17.88 -7.7,-26.91 -3.8,-9 -8.8,-17.98 -15.6,-25.34 -0.3,-0.35 -0.7,-0.63 -1,-0.97 -6.5,-6.78 -14.8,-11.74 -23.5,-12.04 -9.2,-0.48 -18.1,4.19 -25.1,11.11 -0.3,0.4 -0.6,0.91 -1,1.32 -6.4,6.78 -11.5,14.95 -15.2,23.32 -7.8,17.93 -10.5,36.13 -11.3,51.3 -0.5,9.12 -0.1,16.82 0.4,23.71 0.4,4.64 0.9,9.13 1.4,12.59 1.1,8.61 2,13.5 0.9,13.94 -1.1,0.41 -4.1,-3.74 -7.4,-12.28 -1.6,-4.16 -3.2,-9.41 -4.5,-15.6 -1.4,-6.46 -2.5,-13.93 -2.9,-22.34 -0.6,-13.12 0.4,-28.66 5,-45.08" /></g><g
       transform="matrix(0.21025333,0,0,-0.21025333,0,2666.6667)"
       id="g2532"><path
         id="path2534"
         style="fill:#ffffff;fill-opacity:1;fill-rule:nonzero;stroke:none"
         d="m 16232.1,8890.32 c 0,-18.89 15.4,-34.2 34.3,-34.2 17.9,0 32.1,13.91 33.6,31.44 -1.6,2.75 -3.2,5.6 -5,8.34 -3.9,6.24 -8.4,12.34 -13.3,18.44 -2.4,3.03 -5.4,5.82 -8.1,8.72 -2.4,0.53 -4.7,1.46 -7.2,1.46 -18.9,0 -34.3,-15.31 -34.3,-34.2" /></g><g
       transform="matrix(0.21077199,0,0,-0.21077199,0,2666.6667)"
       id="g2536"><path
         id="path2538"
         style="fill:#603813;fill-opacity:1;fill-rule:nonzero;stroke:none"
         d="m 16287.3,8865.15 c -1.2,3.57 -2.8,7.14 -4.3,10.81 -1.7,3.6 -3.3,7.36 -5.3,11.02 -3.8,7.47 -8.4,14.89 -13.5,22.37 -5.1,7.46 -11.2,14.74 -17.9,21.81 -6.8,7.08 -14.4,13.81 -22.8,19.9 -17,12.21 -37.6,21.97 -60.6,26.16 -22.8,4.25 -47.7,2.84 -71.1,-5.03 -23.5,-7.8 -43.9,-21.21 -60.2,-36.9 -16.4,-15.7 -28.8,-33.75 -38.1,-51.9 -9.3,-18.21 -15.3,-36.65 -19,-54.17 -3.6,-17.54 -5,-34.15 -4.8,-49.22 0.3,-30.17 6.6,-53.94 12.6,-69.37 6.1,-15.48 11.8,-22.88 13.9,-22.07 -0.2,0.14 0.3,1.03 1.1,2.28 0.4,3.66 -0.8,11.52 -2.2,23.07 -1.5,12.95 -3.1,30.88 -2.2,52.17 0.2,4.26 0.4,8.45 0.8,12.99 1.3,13.56 3.9,28.23 8.2,43.44 4.4,15.17 10.5,30.89 19.2,46.09 8.7,15.16 19.6,29.93 33.3,42.45 13.7,12.53 29.9,22.87 48.1,28.89 18,6.06 37,7.35 54.7,4.47 17.8,-2.82 34.2,-9.83 48.4,-19.11 7.2,-4.62 13.7,-9.83 19.7,-15.42 3,-2.81 5.5,-5.85 8.2,-8.78 2.7,-2.89 5.8,-5.67 8.2,-8.69 4.8,-6.09 9.3,-12.17 13.2,-18.4 1.8,-2.73 3.3,-5.58 5,-8.31 0.2,-0.31 0.4,-0.62 0.6,-0.92 1.6,-3.11 3.3,-6.12 4.8,-9.16 6,-12.1 10.5,-23.68 13.8,-34.09 3.4,-10.4 5.8,-19.63 7.6,-27.27 3.5,-15.29 5.4,-24.16 7.9,-24.15 1.2,0 2.2,2.21 3.3,6.52 0.2,1.08 0.5,2.29 0.7,3.62 0.2,1.34 0.4,2.8 0.5,4.38 0.2,1.59 0.4,3.31 0.5,5.14 0.1,1.84 0.1,3.79 0.2,5.86 0.2,8.3 -0.3,18.5 -2.1,30.26 -1.9,11.74 -5.1,25.04 -10.4,39.26" /></g><g
       transform="matrix(0.21071733,0,0,-0.21071733,0,2666.6667)"
       id="g2540"><path
         id="path2542"
         style="fill:#603813;fill-opacity:1;fill-rule:nonzero;stroke:none"
         d="m 16297.5,8766.14 c -0.1,-1.02 -0.2,-2.16 -0.3,-3.41 -0.2,-1.26 -0.4,-2.62 -0.6,-4.1 -0.3,-2.96 -0.7,-6.37 -1.3,-10.18 -1.1,-7.64 -2.8,-16.92 -5.5,-27.49 -2.7,-10.56 -6.5,-22.39 -11.9,-34.9 -1.4,-3.19 -3.3,-6.48 -4.9,-9.71 -1.6,-3.14 -2.9,-6.23 -4.7,-9.43 -3.8,-6.39 -7.8,-13.02 -12.7,-19.37 -9.3,-12.86 -21.2,-25.3 -35.5,-35.91 -14.3,-10.46 -31.3,-18.92 -50,-23.18 -9.3,-2.15 -19.1,-3.23 -29,-3.14 -9.9,0.12 -19.9,1.41 -29.7,3.9 -9.8,2.58 -19.3,6.28 -28.1,10.85 -2.2,1.17 -4.3,2.39 -6.4,3.61 -2.1,1.33 -4.2,2.53 -6.3,3.94 -2,1.38 -4,2.73 -6,4.22 l -2.9,2.17 -2.3,1.92 c -0.1,0.03 -0.4,0.16 -0.2,0.19 0.1,0.02 0.1,0.03 0.2,0.07 l 1.1,0.42 c 0.6,0.21 1.2,0.51 1.8,0.78 2.3,1.09 4.7,2.18 6.9,3.51 9.1,5.02 16.7,11.88 22.9,19.49 10.2,12.86 15.9,28.13 16.6,43.18 0.1,3 0.4,6 0.1,8.96 -0.4,4.45 -1.5,8.78 -3,12.9 -1.5,4.11 -3.8,7.89 -6.4,11.23 -2.8,3.37 -6.1,6.03 -9.5,8.26 -0.9,0.49 -1.8,0.97 -2.7,1.45 l -1.3,0.7 -1.4,0.54 c -0.2,0.09 -0.4,0.16 -0.6,0.23 -0.7,0.29 -1.4,0.57 -2.1,0.86 -0.9,0.3 -1.9,0.52 -2.8,0.78 -7.4,1.8 -14.4,2.2 -21.1,1.46 -6.6,-0.86 -12.6,-2.73 -18,-4.99 -10.5,-4.75 -18.3,-10.86 -24.1,-16.25 -5.9,-5.42 -9.8,-10.1 -12.2,-13.43 -1.1,-1.37 -1.7,-2.32 -2.2,-3.2 -0.8,-1.25 -1.3,-2.14 -1.1,-2.28 0.3,-0.27 1.9,1.17 5,3.95 2.9,2.79 7.3,6.89 13.3,11.6 6,4.7 13.9,9.94 23.7,13.74 5,1.79 10.4,3.19 16.3,3.69 5.8,0.38 12.1,-0.26 18.2,-2 0.8,-0.24 1.5,-0.44 2.2,-0.72 0.8,-0.31 1.5,-0.63 2.3,-0.95 l 1,-0.46 1,-0.61 c 0.7,-0.39 1.4,-0.79 2.1,-1.19 0.9,-0.64 1.6,-1.56 2.4,-2.26 1.7,-1.36 3.4,-2.6 4.7,-4.36 1.9,-2.66 3.7,-5.62 4.8,-8.95 0.7,-2 0.9,-4.2 1.3,-6.33 0.2,-1.44 0.8,-2.77 0.9,-4.26 1.1,-14.89 -4.6,-31.48 -15.5,-44.7 -5.5,-6.55 -12.2,-12.39 -20.1,-16.63 -1.9,-1.14 -4,-2.04 -6,-2.97 -0.5,-0.23 -1,-0.49 -1.6,-0.66 l -2.3,-0.87 c -2,-0.88 -4.8,-1.49 -7,-2.25 -2.3,-0.73 -4.5,-1.47 -6.7,-2.2 l -1.6,-0.56 -0.9,-0.28 c -0.1,-0.04 -0.3,-0.08 -0.4,-0.13 l 0.4,-0.3 2.6,-2.41 c 1.9,-1.61 3.7,-3.22 5.5,-4.84 1.8,-1.62 3.5,-3.22 5.5,-4.79 l 3.5,-2.84 3.1,-2.36 c 2.1,-1.61 4.2,-3.07 6.4,-4.57 2.2,-1.53 4.5,-2.85 6.7,-4.29 2.3,-1.34 4.7,-2.67 7,-3.93 9.5,-5 19.7,-9.04 30.5,-11.85 10.7,-2.72 21.6,-4.11 32.5,-4.21 10.7,-0.05 21.4,1.19 31.5,3.61 20.4,4.79 38.6,14.19 53.7,25.63 15.2,11.58 27.4,25.02 37,38.78 4.9,6.81 8.9,13.86 12.7,20.66 3.5,6.91 6.7,13.63 9.2,20.26 5.2,13.19 8.6,25.58 10.8,36.57 2.2,11.01 3.3,20.6 3.7,28.45 0.3,3.93 0.3,7.42 0.3,10.44 0,1.51 0,2.9 -0.1,4.18 0,1.26 -0.1,2.42 -0.2,3.46 -0.2,4.12 -0.6,6.28 -1,6.28 -0.3,0 -0.6,-1.76 -1,-4.45 0,-0.64 -0.2,-1 -0.2,-1.77" /></g><g
       transform="matrix(0.23045333,0,0,-0.23045333,0,2666.6667)"
       id="g2544"><path
         id="path2546"
         style="fill:#cccccc;fill-opacity:1;fill-rule:nonzero;stroke:none"
         d="m 16131.8,8237.43 c 60.2,-37.62 115.7,-84.47 168.2,-136.9 -2.9,7.95 -6.5,15.83 -10.3,23.65 -0.6,1.21 -1.2,2.42 -1.8,3.64 -7.9,15.38 -17.4,30.48 -28.3,45.2 -0.9,1.26 -1.9,2.52 -2.8,3.78 -11,14.47 -23.3,28.56 -36.6,42.19 -1.4,1.41 -2.8,2.82 -4.1,4.22 -6.7,6.66 -13.5,13.23 -20.5,19.65 0,0 0,0.01 0,0.02 -7.1,6.4 -14.4,12.64 -21.8,18.78 -1.8,1.47 -3.6,2.92 -5.4,4.37 -7.4,6.03 -15,11.96 -22.6,17.71 -60.8,45.25 -121.1,89.9 -199.1,89.9 -195.9,0 -311.5,-199.07 -311.5,-199.07 0,0 3.2,57.79 67.4,125.22 -11.7,-4.41 -29.5,-18.95 -45.4,-33.39 -4.6,-6.98 -9,-14.09 -13.1,-21.28 -1.5,-2.66 -2.9,-5.36 -4.4,-8.05 -2.4,-4.53 -4.9,-9.06 -7.2,-13.64 -1.7,-3.42 -3.2,-6.86 -4.9,-10.3 -1.7,-3.84 -3.6,-7.68 -5.3,-11.53 -1.7,-3.97 -3.3,-7.93 -4.8,-11.9 -1.4,-3.25 -2.7,-6.5 -4,-9.74 -1.7,-4.55 -3.3,-9.07 -4.8,-13.57 -0.9,-2.52 -1.8,-5.04 -2.7,-7.54 -1.7,-5.14 -3.3,-10.23 -4.8,-15.28 -0.5,-1.7 -1,-3.41 -1.6,-5.1 -1.6,-5.72 -3.1,-11.37 -4.6,-16.91 -0.2,-0.82 -0.4,-1.63 -0.6,-2.44 -1.6,-6.2 -3.1,-12.31 -4.4,-18.23 0,-0.01 0,-0.03 0,-0.03 135.3,167.92 331.1,270.63 541.8,136.57" /></g><g
       transform="matrix(0.23063333,0,0,-0.23063333,0,2666.6667)"
       id="g2548"><path
         id="path2550"
         style="fill:#ffffff;fill-opacity:1;fill-rule:nonzero;stroke:none"
         d="m 16058.2,7961.03 c -5.5,-14.02 -10.7,-20.72 -12.6,-19.99 -0.3,-0.24 -1.8,1.06 -4.4,3.58 -2.7,2.53 -6.7,6.24 -12.2,10.5 -5.4,4.25 -12.5,8.99 -21.4,12.43 -4.5,1.63 -9.4,2.89 -14.7,3.34 -5.3,0.35 -11,-0.23 -16.5,-1.8 -0.7,-0.23 -1.4,-0.41 -2.1,-0.65 -0.6,-0.29 -1.2,-0.58 -1.9,-0.87 l -1,-0.42 -0.9,-0.55 c -0.7,-0.35 -1.3,-0.71 -1.9,-1.08 -0.8,-0.57 -1.4,-1.4 -2.2,-2.04 -2.3,-5.99 -5.8,-11.96 -9.7,-17.77 -0.3,-1.3 -0.7,-2.5 -0.8,-3.86 -1,-13.47 4.2,-28.5 13.9,-40.45 5,-5.93 11.1,-11.22 18.2,-15.05 1.8,-1.03 3.6,-1.84 5.5,-2.69 0.4,-0.21 0.9,-0.44 1.4,-0.59 l 2.1,-0.79 c 1.9,-0.8 4.4,-1.35 6.4,-2.03 2,-0.66 4,-1.33 6,-2 l 1.5,-0.5 0.8,-0.25 c 0.1,-0.05 0.2,-0.08 0.3,-0.13 l -0.2,-0.27 -2.5,-2.18 c -1.7,-1.46 -3.3,-2.91 -4.9,-4.38 -1.7,-1.46 -3.2,-2.91 -5,-4.33 l -3.1,-2.58 -2.9,-2.13 c -1.8,-1.46 -3.8,-2.78 -5.8,-4.14 -1.9,-1.38 -4,-2.57 -6,-3.87 -2.1,-1.22 -4.2,-2.42 -6.4,-3.57 -8.6,-4.52 -17.8,-8.18 -27.6,-10.72 -9.7,-2.46 -19.6,-3.72 -29.3,-3.8 -9.8,-0.05 -19.5,1.08 -28.6,3.25 -18.4,4.35 -34.9,12.85 -48.7,23.21 -13.6,10.48 -24.7,22.64 -33.4,35.09 -4.4,6.16 -8,12.55 -11.4,18.69 -3.2,6.26 -6.1,12.34 -8.4,18.34 -4.8,11.93 -7.8,23.16 -9.8,33.1 -1.9,9.96 -2.9,18.64 -3.3,25.74 -0.3,3.55 -0.3,6.71 -0.3,9.45 0,1.36 0,2.62 0,3.78 0.1,1.14 0.2,2.19 0.2,3.13 0.3,3.73 0.6,5.68 0.9,5.68 -1,0 -2,2.01 -2.9,5.91 -0.2,0.97 -0.5,2.06 -0.7,3.27 -0.2,1.21 -0.4,2.53 -0.5,3.97 -0.1,1.43 -0.3,2.99 -0.4,4.65 -0.2,1.66 -0.2,3.42 -0.2,5.31 -0.2,7.51 0.3,16.74 2,27.38 1.6,10.63 4.5,22.67 9.3,35.54 1.2,3.22 2.6,6.46 4,9.79 1.5,3.25 2.9,6.67 4.8,9.98 3.3,6.75 7.5,13.47 12.2,20.23 4.6,6.76 10.1,13.35 16.1,19.75 6.2,6.41 13,12.5 20.7,18.02 15.4,11.06 34,19.88 54.8,23.68 20.7,3.85 43.2,2.57 64.4,-4.56 21.3,-7.06 39.7,-19.2 54.5,-33.4 14.9,-14.21 26.1,-30.55 34.5,-46.98 8.4,-16.48 13.8,-33.18 17.2,-49.03 3.2,-15.88 4.5,-30.92 4.3,-44.55 -0.3,-27.31 -5.9,-48.83 -11.4,-62.79 z m 192.7,-106.28 c 6.7,7.83 13.1,15.65 19.4,23.43 14.7,25.43 29.7,70.46 29.7,148.84 0,5.7 -0.3,11.39 -0.9,17.07 -0.4,4.71 -1.2,9.39 -2,14.06 -0.2,0.92 -0.3,1.86 -0.5,2.77 -2.1,11.19 -5.3,22.3 -9.3,33.29 -52.5,52.38 -108,99.2 -168.1,136.8 -210.5,133.95 -406.2,31.32 -541.4,-136.47 0,-0.02 0,-0.03 0,-0.04 -12.6,-56.2 -14.1,-97.96 -14.1,-97.96 0,0 105.8,-327.26 365.7,-327.26 127.6,0 238.2,89.76 317.6,181.11 -2.9,-2.17 -4.8,-3.05 -4.8,-3.05 0,0 3.2,2.52 8.7,7.41" /></g><g
       transform="matrix(0.23578666,0,0,-0.23578666,0,2666.6667)"
       id="g2552"><path
         id="path2554"
         style="fill:#603813;fill-opacity:1;fill-rule:nonzero;stroke:none"
         d="m 16086.6,7897.11 c -56.5,62.77 -183.6,381.3 -503.7,387.58 31.3,28.24 128.7,37.66 128.7,37.66 0,0 -232.3,18.83 -452,-203.99 62.8,34.52 75.3,43.93 106.7,56.49 -62.7,-37.66 -97.3,-128.67 -97.3,-128.67 0,0 15.8,16.57 34.1,33.26 15.6,14.13 32.9,28.33 44.4,32.65 -62.8,-65.91 -65.9,-122.4 -65.9,-122.4 0,0 112.9,194.57 304.4,194.57 76.2,0 135.2,-43.64 194.6,-87.87 7.5,-5.61 14.9,-11.41 22.1,-17.31 1.8,-1.41 3.5,-2.83 5.3,-4.26 7.2,-6.01 14.3,-12.1 21.3,-18.36 0,-0.01 0,-0.02 0,-0.02 6.9,-6.28 13.5,-12.7 20,-19.21 1.4,-1.36 2.7,-2.74 4.1,-4.12 13,-13.32 25,-27.09 35.7,-41.24 0.9,-1.23 1.9,-2.46 2.8,-3.69 10.6,-14.39 19.9,-29.14 27.6,-44.18 0.6,-1.19 1.2,-2.37 1.8,-3.56 8.9,-18.22 15.6,-36.81 19.2,-55.67 0.2,-0.9 0.3,-1.81 0.4,-2.71 0.9,-4.57 1.6,-9.15 2.1,-13.76 0.5,-5.55 0.8,-11.11 0.8,-16.69 0,-76.67 -14.6,-120.71 -29,-145.59 -3.6,-6.11 -7,-11.08 -10.4,-15.06 18.7,17.22 50.7,48.99 86.5,94.74 56.4,72.18 94.1,65.91 119.2,65.91 25.1,0 141.2,-31.39 189.9,-10.99 0,0 -156.9,-6.27 -213.4,56.49" /></g><g
       transform="matrix(0.23006399,0,0,-0.23006399,0,2666.6667)"
       id="g2556"><path
         id="path2558"
         style="fill:#603813;fill-opacity:1;fill-rule:nonzero;stroke:none"
         d="m 16282.4,7866.76 c 0,0 1.9,0.88 4.8,3.06 3.2,2.33 7.8,6.25 12.8,12.42 -3.4,-3.14 -6.4,-5.87 -8.9,-8.06 -5.5,-4.9 -8.7,-7.42 -8.7,-7.42" /></g><g
       transform="matrix(0.22707599,0,0,-0.22707599,0,2666.6667)"
       id="g2560"><path
         id="path2562"
         style="fill:#d13d7f;fill-opacity:1;fill-rule:nonzero;stroke:none"
         d="m 16110.9,8160.36 c 1.4,7.14 3.3,13.21 5.1,17.73 3.2,7.73 6,11.46 7,11.06 1,-0.43 0.1,-4.88 -1.2,-12.72 -0.5,-3.97 -1.2,-8.88 -1.7,-14.55 35,4.88 66.1,4.17 93.1,0.47 -0.3,4.24 -0.7,8.35 -1.2,11.51 -1.1,7.87 -1.8,12.34 -0.8,12.74 1,0.37 3.7,-3.42 6.7,-11.22 1.5,-3.8 2.9,-8.61 4.2,-14.26 32.7,-5.43 58.9,-15.19 77.9,-24.4 -0.2,3.92 -0.3,7.77 -0.7,11.94 -1.2,12.47 -3.6,25.96 -7.5,39.94 -4,13.95 -9.7,28.4 -17.7,42.38 -7.9,13.92 -18,27.51 -30.6,39.02 -12.6,11.53 -27.5,21.03 -44.2,26.56 -16.6,5.58 -34.1,6.76 -50.4,4.12 -16.2,-2.61 -31.4,-9.05 -44.4,-17.58 -6.6,-4.25 -12.7,-9.03 -18.1,-14.17 -2.8,-2.59 -5.1,-5.38 -7.6,-8.07 2.2,0.48 4.3,1.33 6.6,1.33 17.4,0 31.4,-14.04 31.4,-31.36 0,-17.33 -14,-31.37 -31.4,-31.37 -16.4,0 -29.5,12.77 -30.8,28.84 -0.2,-0.27 -0.4,-0.56 -0.6,-0.83 -1.4,-2.86 -3,-5.64 -4.4,-8.42 -5.6,-11.14 -9.6,-21.78 -12.7,-31.34 -3.1,-9.57 -5.3,-18.06 -6.9,-25.09 -3.3,-14.05 -5,-22.2 -7.3,-22.2 0.3,0 0.6,-1.61 0.9,-4.08 31.3,12.06 60.3,19.6 87.3,24.02" /></g><g
       transform="matrix(0.22628266,0,0,-0.22628266,0,2666.6667)"
       id="g2564"><path
         id="path2566"
         style="fill:#ffa87f;fill-opacity:1;fill-rule:nonzero;stroke:none"
         d="m 16231.8,8074.61 c -3.3,-0.74 -6.8,-1.03 -10.2,-0.87 -3.4,0.12 -6.9,0.71 -10,1.72 -3.3,0.96 -6.3,2.29 -9.1,3.9 -5.6,3.15 -10.2,7.32 -14.2,11.67 -2.1,2.46 -3.6,5.13 -5.4,7.71 -24.8,-3.03 -51.6,-8.85 -80.2,-18.32 1.4,-2.9 2.7,-5.74 4.3,-8.7 3.4,-5.9 7.2,-12.01 11.6,-17.87 8.7,-11.86 19.6,-23.33 32.8,-33.12 13.3,-9.65 28.9,-17.45 46.1,-21.38 8.6,-1.98 17.6,-2.97 26.7,-2.9 9.2,0.12 18.4,1.31 27.5,3.6 9.1,2.38 17.7,5.79 25.8,10.01 2.1,1.07 4.1,2.2 6,3.33 1.9,1.23 3.9,2.34 5.8,3.64 1.9,1.27 3.7,2.51 5.5,3.88 l 2.7,2 2.2,1.77 c 0.1,0.04 0.3,0.16 0.1,0.18 0,0.02 0,0.03 -0.2,0.07 l -1,0.38 c -0.5,0.2 -1.1,0.47 -1.6,0.72 -2.2,1.02 -4.4,2.02 -6.4,3.24 -8.4,4.63 -15.5,10.95 -21.2,17.98 -9.4,11.85 -14.6,25.94 -15.2,39.83 -3.8,-3.53 -8,-6.85 -13.1,-9.23 -2.9,-1.43 -6,-2.54 -9.3,-3.24" /></g><g
       transform="matrix(0.22553599,0,0,-0.22553599,0,2666.6667)"
       id="g2568"><path
         id="path2570"
         style="fill:#ffa87f;fill-opacity:1;fill-rule:nonzero;stroke:none"
         d="m 16254.4,8127.3 c 6.1,-6.24 13.6,-10.81 21.6,-11.08 8.5,-0.44 16.6,3.85 23.1,10.22 0.3,0.37 0.5,0.84 0.9,1.21 -14.2,0.87 -29.5,0.83 -45.6,-0.35" /></g><g
       transform="matrix(0.22465733,0,0,-0.22465733,0,2666.6667)"
       id="g2572"><path
         id="path2574"
         style="fill:#ff3d7f;fill-opacity:1;fill-rule:nonzero;stroke:none"
         d="m 16289.1,8178.11 c -3.6,9.71 -5.5,19.26 -6.5,28.21 -1.1,8.95 -1.1,17.33 -0.6,24.91 0.4,6.29 1.3,11.87 2.3,16.99 -27.3,-4.47 -56.6,-12.08 -88.2,-24.28 0.2,-0.59 0.2,-0.93 0.3,-1.65 0.1,-0.95 0.2,-2 0.3,-3.16 0.2,-1.17 0.3,-2.43 0.5,-3.81 0.3,-2.75 0.7,-5.92 1.2,-9.46 1,-7.1 2.6,-15.72 5.1,-25.54 2.5,-9.8 6.1,-20.8 11.2,-32.42 1.2,-2.96 2.9,-6.02 4.5,-9.02 28.8,9.54 55.8,15.41 80.8,18.46 -4.6,6.78 -8.4,13.79 -10.9,20.77" /></g><g
       transform="matrix(0.22708933,0,0,-0.22708933,0,2666.6667)"
       id="g2576"><path
         id="path2578"
         style="fill:#ff3d7f;fill-opacity:1;fill-rule:nonzero;stroke:none"
         d="m 16223.8,8140.26 c 0.6,-11.98 -0.4,-26.18 -4.5,-41.18 0.6,0.26 1.3,0.52 2,0.78 0.8,0.27 1.7,0.48 2.5,0.71 6.7,1.66 13.3,2.02 19.4,1.35 6.1,-0.79 11.6,-2.51 16.5,-4.59 9.7,-4.36 16.9,-9.97 22.2,-14.93 5.4,-4.98 9,-9.29 11.2,-12.35 1,-1.25 1.6,-2.13 2,-2.93 -0.4,3.36 0.7,10.59 2,21.2 1.4,11.91 2.9,28.39 2,47.96 -19,9.21 -45.1,18.97 -77.9,24.4 1.2,-5.9 2.2,-12.74 2.6,-20.42" /></g><g
       transform="matrix(0.22587866,0,0,-0.22587866,0,2666.6667)"
       id="g2580"><path
         id="path2582"
         style="fill:#ff3d7f;fill-opacity:1;fill-rule:nonzero;stroke:none"
         d="m 16207.4,8163.83 c 1.5,-8.01 3.7,-16.42 7.1,-24.73 3.4,-8.26 8,-16.51 14.2,-23.27 0.3,-0.32 0.6,-0.58 0.9,-0.89 16.2,1.17 31.4,1.22 45.6,0.35 5.9,6.23 10.6,13.74 14,21.43 7.2,16.47 9.7,33.19 10.4,47.13 0.4,8.38 0.1,15.45 -0.4,21.78 -27.2,3.71 -58.5,4.42 -93.6,-0.48 -0.5,-5.51 -0.8,-11.75 -0.6,-18.65 0.3,-7.01 0.9,-14.65 2.4,-22.67" /></g><g
       transform="matrix(0.22591466,0,0,-0.22591466,0,2666.6667)"
       id="g2584"><path
         id="path2586"
         style="fill:#603813;fill-opacity:1;fill-rule:nonzero;stroke:none"
         d="m 16291.3,8117.55 c -0.7,-1.83 -0.9,-3.87 -1.3,-5.84 4.1,5.93 7.6,12.03 10,18.14 -1.5,-1.25 -3.1,-2.4 -4.3,-4.03 -1.8,-2.45 -3.4,-5.19 -4.4,-8.27" /></g><g
       transform="matrix(0.22603466,0,0,-0.22603466,0,2666.6667)"
       id="g2588"><path
         id="path2590"
         style="fill:#603813;fill-opacity:1;fill-rule:nonzero;stroke:none"
         d="m 16296.8,8198.72 c -1.2,5.67 -2.7,10.5 -4.2,14.32 -3,7.83 -5.8,11.65 -6.7,11.27 -1.1,-0.4 -0.3,-4.89 0.8,-12.8 0.4,-3.17 0.9,-7.29 1.2,-11.55 0.5,-6.33 0.8,-13.39 0.4,-21.77 -0.7,-13.92 -3.2,-30.63 -10.4,-47.09 -3.4,-7.69 -8,-15.19 -13.9,-21.42 -0.4,-0.37 -0.6,-0.84 -1,-1.21 -6.4,-6.35 -14.6,-10.64 -23,-10.2 -8,0.28 -15.5,4.83 -21.6,11.06 -0.3,0.31 -0.6,0.57 -0.9,0.89 -6.2,6.75 -10.8,15 -14.2,23.26 -3.4,8.3 -5.6,16.7 -7.1,24.71 -1.5,8.01 -2.1,15.65 -2.4,22.65 -0.2,6.9 0.1,13.13 0.6,18.64 0.4,5.7 1.1,10.63 1.7,14.62 1.3,7.88 2.2,12.35 1.2,12.77 -1,0.41 -3.8,-3.33 -7,-11.1 -1.9,-4.55 -3.7,-10.65 -5.2,-17.82 -1.1,-5.08 -2,-10.63 -2.4,-16.89 -0.4,-7.53 -0.4,-15.85 0.6,-24.75 1,-8.9 3,-18.39 6.5,-28.04 2.5,-6.94 6.3,-13.9 10.9,-20.65 1.7,-2.59 3.2,-5.26 5.4,-7.72 3.9,-4.36 8.5,-8.52 14.1,-11.68 2.9,-1.61 5.9,-2.95 9.1,-3.91 3.2,-1 6.6,-1.59 10.1,-1.72 3.4,-0.16 6.9,0.13 10.2,0.88 3.3,0.7 6.5,1.8 9.3,3.24 5.1,2.38 9.3,5.71 13.1,9.23 -0.1,2.77 -0.4,5.54 -0.1,8.27 0.4,4.11 1.4,8.11 2.7,11.91 1.4,3.8 3.6,7.29 6.1,10.39 2.4,3.1 5.5,5.56 8.6,7.62 0.8,0.44 1.7,0.89 2.5,1.34 l 1.2,0.64 1.3,0.51 c 0.2,0.07 0.4,0.14 0.6,0.21 4.1,15.07 5.1,29.33 4.6,41.38 -0.4,7.71 -1.4,14.58 -2.7,20.51" /></g><g
       transform="matrix(0.22452399,0,0,-0.22452399,0,2666.6667)"
       id="g2592"><path
         id="path2594"
         style="fill:#ffffff;fill-opacity:1;fill-rule:nonzero;stroke:none"
         d="m 16268.2,8292.66 c 17.6,0 31.8,14.2 31.8,31.73 0,17.52 -14.2,31.72 -31.8,31.72 -2.3,0 -4.4,-0.86 -6.6,-1.35 -2.6,-2.7 -5.4,-5.27 -7.6,-8.08 -4.5,-5.66 -8.8,-11.32 -12.3,-17.11 -1.7,-2.54 -3.1,-5.19 -4.6,-7.73 1.3,-16.26 14.6,-29.18 31.1,-29.18" /></g><g
       transform="matrix(0.22737733,0,0,-0.22737733,0,2666.6667)"
       id="g2596"><path
         id="path2598"
         style="fill:#603813;fill-opacity:1;fill-rule:nonzero;stroke:none"
         d="m 16278,8233.68 c -8.6,16.67 -19.9,33.24 -35,47.66 -15,14.4 -33.7,26.72 -55.2,33.87 -21.6,7.23 -44.4,8.53 -65.4,4.63 -21.1,-3.85 -40,-12.8 -55.6,-24.02 -7.8,-5.59 -14.7,-11.77 -20.9,-18.27 -6.2,-6.5 -11.8,-13.19 -16.5,-20.03 -4.7,-6.86 -8.9,-13.68 -12.3,-20.53 -1.9,-3.36 -3.3,-6.82 -4.9,-10.12 -1.4,-3.38 -2.8,-6.66 -4.1,-9.93 -4.8,-13.06 -7.7,-25.27 -9.4,-36.05 -1.7,-10.79 -2.2,-20.16 -2,-27.78 0.1,-1.91 0.1,-3.7 0.2,-5.38 0.1,-1.68 0.3,-3.26 0.5,-4.72 0.1,-1.45 0.3,-2.8 0.4,-4.02 0.3,-1.23 0.5,-2.34 0.7,-3.32 1,-3.96 2,-5.99 3,-5.99 2.3,0 4,8.13 7.3,22.17 1.6,7.02 3.8,15.49 6.9,25.05 3.1,9.54 7.2,20.18 12.7,31.29 1.4,2.79 3,5.56 4.4,8.41 0.2,0.28 0.4,0.57 0.6,0.84 1.5,2.52 2.9,5.13 4.5,7.64 3.6,5.71 7.7,11.3 12.2,16.89 2.2,2.78 5,5.32 7.5,7.98 2.5,2.69 4.8,5.48 7.5,8.06 5.5,5.14 11.5,9.91 18.1,14.15 13,8.53 28.2,14.96 44.4,17.56 16.3,2.64 33.7,1.46 50.3,-4.11 16.7,-5.53 31.6,-15.02 44.1,-26.53 12.6,-11.49 22.7,-25.06 30.6,-38.97 8,-13.96 13.7,-28.39 17.7,-42.32 3.9,-13.97 6.3,-27.43 7.5,-39.89 0.4,-4.17 0.5,-8.01 0.7,-11.92 0.9,-19.54 -0.6,-36.01 -2,-47.9 -1.3,-10.6 -2.4,-17.82 -2,-21.18 0.8,-1.15 1.2,-1.97 1,-2.1 1.9,-0.75 7.1,6.05 12.8,20.27 5.5,14.16 11.2,35.99 11.5,63.7 0.2,13.82 -1.1,29.07 -4.4,45.18 -3.4,16.08 -8.9,33.02 -17.4,49.73" /></g><g
       transform="matrix(0.22703733,0,0,-0.22703733,0,2666.6667)"
       id="g2600"><path
         id="path2602"
         style="fill:#603813;fill-opacity:1;fill-rule:nonzero;stroke:none"
         d="m 16296.8,8071.88 c -2.2,3.07 -5.8,7.37 -11.2,12.36 -5.3,4.95 -12.5,10.57 -22.2,14.93 -4.9,2.08 -10.4,3.8 -16.5,4.59 -6.2,0.67 -12.7,0.31 -19.4,-1.35 -0.8,-0.23 -1.7,-0.44 -2.6,-0.71 -0.7,-0.26 -1.3,-0.52 -1.9,-0.78 -0.2,-0.08 -0.4,-0.14 -0.6,-0.21 l -1.3,-0.51 -1.2,-0.64 c -0.8,-0.44 -1.6,-0.89 -2.5,-1.33 -3.1,-2.05 -6.1,-4.5 -8.6,-7.59 -2.5,-3.08 -4.6,-6.56 -6,-10.34 -1.3,-3.78 -2.3,-7.77 -2.8,-11.85 -0.2,-2.72 0,-5.48 0.2,-8.24 0.6,-13.84 5.8,-27.88 15.2,-39.69 5.7,-7.01 12.7,-13.3 21.1,-17.92 2,-1.22 4.2,-2.22 6.4,-3.23 0.5,-0.25 1,-0.52 1.6,-0.72 l 1,-0.38 c 0.1,-0.04 0.1,-0.05 0.1,-0.06 0.3,-0.03 0,-0.15 0,-0.18 l -2.2,-1.77 -2.7,-1.99 c -1.8,-1.37 -3.7,-2.61 -5.5,-3.87 -1.9,-1.3 -3.9,-2.41 -5.8,-3.63 -1.9,-1.13 -3.9,-2.25 -5.9,-3.32 -8.1,-4.21 -16.8,-7.61 -25.8,-9.97 -9,-2.29 -18.3,-3.47 -27.4,-3.59 -9.1,-0.08 -18,0.91 -26.6,2.88 -17.2,3.93 -32.7,11.7 -46,21.32 -13.1,9.76 -24,21.18 -32.7,33.01 -4.4,5.84 -8.1,11.93 -11.5,17.81 -1.6,2.95 -2.9,5.78 -4.3,8.67 -1.6,2.97 -3.3,5.99 -4.5,8.92 -5,11.5 -8.6,22.38 -11,32.08 -2.5,9.72 -4.1,18.25 -5.1,25.28 -0.5,3.5 -0.9,6.64 -1.2,9.36 -0.1,1.36 -0.3,2.61 -0.4,3.77 -0.2,1.14 -0.3,2.19 -0.4,3.13 0,0.71 -0.1,1.04 -0.2,1.62 -0.3,2.48 -0.7,4.09 -1,4.09 -0.3,0 -0.6,-1.98 -0.9,-5.77 0,-0.95 -0.1,-2.02 -0.2,-3.18 0,-1.17 0,-2.45 0,-3.84 0,-2.78 0,-5.99 0.3,-9.6 0.4,-7.21 1.4,-16.03 3.4,-26.15 2,-10.1 5.1,-21.5 9.9,-33.62 2.3,-6.09 5.3,-12.27 8.5,-18.63 3.5,-6.24 7.1,-12.72 11.6,-18.98 8.9,-12.65 20.1,-25.01 34,-35.66 14,-10.51 30.7,-19.15 49.4,-23.57 9.3,-2.21 19.1,-3.35 29,-3.3 10,0.08 20,1.35 29.9,3.86 9.8,2.58 19.2,6.3 28,10.89 2.2,1.17 4.3,2.39 6.5,3.62 2,1.32 4.1,2.54 6.1,3.93 2,1.39 4,2.73 5.9,4.21 l 2.9,2.17 3.1,2.61 c 1.9,1.45 3.4,2.92 5.2,4.41 1.6,1.49 3.2,2.97 4.9,4.44 l 2.5,2.21 0.3,0.28 c -0.1,0.06 -0.2,0.09 -0.3,0.13 l -0.8,0.26 -1.6,0.51 c -2,0.67 -4,1.35 -6,2.02 -2.1,0.7 -4.7,1.26 -6.6,2.07 l -2.1,0.8 c -0.5,0.16 -1,0.39 -1.4,0.61 -1.9,0.85 -3.8,1.68 -5.6,2.72 -7.2,3.9 -13.4,9.27 -18.5,15.29 -9.9,12.15 -15.1,27.41 -14.1,41.09 0,1.38 0.5,2.6 0.7,3.92 0.5,1.96 0.6,3.99 1.3,5.81 1,3.07 2.6,5.79 4.4,8.24 1.2,1.61 2.7,2.76 4.3,4 0.7,0.65 1.4,1.5 2.1,2.08 0.7,0.37 1.3,0.74 2,1.1 l 0.9,0.55 1,0.44 c 0.7,0.29 1.4,0.58 2,0.87 0.7,0.25 1.4,0.43 2.1,0.66 5.6,1.6 11.4,2.19 16.8,1.83 5.3,-0.45 10.4,-1.74 14.9,-3.39 9.1,-3.49 16.2,-8.3 21.8,-12.62 5.5,-4.34 9.5,-8.1 12.3,-10.67 2.7,-2.56 4.2,-3.88 4.5,-3.64 0.2,0.13 -0.2,0.96 -1,2.11 -0.4,0.81 -1,1.68 -2,2.93" /></g><g
       transform="matrix(0.22110533,0,0,-0.22110533,0,2666.6667)"
       id="g2604"><path
         id="path2606"
         style="fill:#ffffff;fill-opacity:1;fill-rule:nonzero;stroke:none"
         d="m 15680.1,7273.57 c 4.2,-9.68 38.6,-3.16 92.7,1.07 54.2,5.09 129.1,4.85 215.3,4.85 86.3,1.2 161.1,2.49 215.3,-1.96 54,-3.65 88.4,-10.14 92.6,-0.41 4,8.6 -25.5,33.21 -82.8,51.03 -57,18.57 -139.3,25.51 -225.6,24.25 -86.4,0.06 -168.4,-8.05 -225.1,-27.24 -57,-18.4 -86.4,-42.97 -82.4,-51.59" /></g><g
       transform="matrix(0.20672133,0,0,-0.20672133,0,2666.6667)"
       id="g2608"><path
         id="path2610"
         style="fill:#ffffff;fill-opacity:1;fill-rule:nonzero;stroke:none"
         d="m 15947.3,11049.8 c -113.6,81 -228.2,137.3 -314.4,167.2 -86.3,30.2 -142.8,37.3 -146.1,27.4 -3.5,-10.5 46.1,-36 123.8,-77.8 77.8,-41.7 182.4,-102.6 291.4,-180.3 218,-155.6 373,-313.6 390.2,-297.9 7.8,7 -21.7,55.3 -81.1,124 -59.7,68.2 -150.1,156.7 -263.8,237.4" /></g><g
       transform="matrix(0.23626933,0,0,-0.23626933,0,2666.6667)"
       id="g2612"><path
         id="path2614"
         style="fill:#ffffff;fill-opacity:1;fill-rule:nonzero;stroke:none"
         d="m 16078.5,9677.87 c 41.5,24.63 79.6,45.94 112.6,62.03 65.7,32.85 108.9,50.67 106.5,60.54 -2,8.42 -50.4,7.07 -124.5,-15.77 -37,-11.07 -79.6,-28.95 -125.3,-51.92 -45.3,-23.7 -93.1,-53.16 -140.5,-87.86 -94.3,-69.9 -168.6,-145.35 -218,-203.01 -49.4,-57.88 -74.6,-98.07 -67.8,-104.36 7,-6.6 44.6,21.88 101.8,70.1 57.2,48.09 134.4,115.61 224.5,182.33 45.2,33.12 89.5,62.53 130.7,87.92" /></g><g
       transform="matrix(0.22882399,0,0,-0.22882399,0,2666.6667)"
       id="g2616"><path
         id="path2618"
         style="fill:#ffffff;fill-opacity:1;fill-rule:nonzero;stroke:none"
         d="m 14897.8,9551.71 c -49.3,-14.63 -93.2,-36.13 -129.9,-57.66 -73.1,-44 -127,-83.11 -165.4,-110.34 -37.8,-27.59 -57.6,-44.82 -55.1,-48.99 2.6,-4.17 27,5.11 69.2,25.47 42.1,19.68 102,53.45 174.8,89.9 36.7,17.89 76.5,34.3 122,45.34 45.4,11.36 96.9,19.25 150.8,27.74 107.8,16.46 226.9,29.75 352,33.28 125,3.39 244.1,-3.99 350.8,-20.41 106.8,-16.4 201.4,-40.85 278.8,-67.38 155.4,-52.7 243.2,-107.69 249.3,-98.12 4.9,6.4 -74.8,77.6 -231.5,144.68 -78,33.58 -175.2,64.18 -285.7,84.83 -110.6,20.7 -234.4,30.35 -363.6,26.84 -129.3,-3.66 -251.5,-19.35 -361,-39.71 -54.6,-10.45 -106.4,-20.51 -155.5,-35.47" /></g></g></svg>
