<?xml version="1.0" encoding="UTF-8" standalone="no"?>
<svg
   xmlns:dc="http://purl.org/dc/elements/1.1/"
   xmlns:cc="http://creativecommons.org/ns#"
   xmlns:rdf="http://www.w3.org/1999/02/22-rdf-syntax-ns#"
   xmlns:svg="http://www.w3.org/2000/svg"
   xmlns="http://www.w3.org/2000/svg"
   xmlns:xlink="http://www.w3.org/1999/xlink"
   xmlns:sodipodi="http://sodipodi.sourceforge.net/DTD/sodipodi-0.dtd"
   xmlns:inkscape="http://www.inkscape.org/namespaces/inkscape"
   viewBox="0 0 512.00001 512"
   version="1.1"
   id="svg53653"
   sodipodi:docname="Gull.svg"
   width="512"
   height="512"
   inkscape:version="1.0.2 (e86c870879, 2021-01-15, custom)">
  <metadata
     id="metadata53657">
    <rdf:RDF>
      <cc:Work
         rdf:about="">
        <dc:format>image/svg+xml</dc:format>
        <dc:type
           rdf:resource="http://purl.org/dc/dcmitype/StillImage" />
        <dc:title></dc:title>
      </cc:Work>
    </rdf:RDF>
  </metadata>
  <sodipodi:namedview
     pagecolor="#ffffff"
     bordercolor="#666666"
     borderopacity="1"
     objecttolerance="10"
     gridtolerance="10"
     guidetolerance="10"
     inkscape:pageopacity="0"
     inkscape:pageshadow="2"
     inkscape:window-width="1366"
     inkscape:window-height="715"
     id="namedview53655"
     showgrid="false"
     inkscape:zoom="0.73646561"
     inkscape:cx="526.18109"
     inkscape:cy="372.04724"
     inkscape:window-x="-8"
     inkscape:window-y="-8"
     inkscape:window-maximized="1"
     inkscape:current-layer="svg53653" />
  <defs
     id="defs53615">
    <linearGradient
       id="c">
      <stop
         stop-color="#b4a396"
         offset="0"
         id="stop53556" />
      <stop
         stop-color="#060505"
         offset="1"
         id="stop53558" />
    </linearGradient>
    <linearGradient
       id="b">
      <stop
         stop-color="#fffaf4"
         offset="0"
         id="stop53561" />
      <stop
         stop-color="#bcbcbc"
         offset="1"
         id="stop53563" />
    </linearGradient>
    <linearGradient
       id="a">
      <stop
         stop-color="#dcc15e"
         offset="0"
         id="stop53566" />
      <stop
         stop-color="#8c673c"
         offset="1"
         id="stop53568" />
    </linearGradient>
    <linearGradient
       id="d">
      <stop
         stop-color="#0b0703"
         offset="0"
         id="stop53571" />
      <stop
         stop-color="#563e23"
         offset="1"
         id="stop53573" />
    </linearGradient>
    <linearGradient
       id="t"
       x1="240.35001"
       x2="233.10001"
       y1="97.461998"
       y2="101.33"
       gradientUnits="userSpaceOnUse">
      <stop
         stop-color="#5c544e"
         offset="0"
         id="stop53576" />
      <stop
         stop-color="#5c544e"
         stop-opacity="0"
         offset="1"
         id="stop53578" />
    </linearGradient>
    <linearGradient
       id="s"
       x1="254.67999"
       x2="262.76001"
       y1="93.399002"
       y2="87.278"
       gradientTransform="matrix(0.92025,0,0,1.0867,0.83079,-0.94947)"
       gradientUnits="userSpaceOnUse">
      <stop
         stop-color="#fff"
         offset="0"
         id="stop53581" />
      <stop
         stop-color="#5c544e"
         stop-opacity="0"
         offset="1"
         id="stop53583" />
    </linearGradient>
    <linearGradient
       id="r"
       x1="289.73999"
       x2="304.70001"
       y1="384.23001"
       y2="287.09"
       gradientTransform="scale(1.4297,0.69946)"
       gradientUnits="userSpaceOnUse">
      <stop
         stop-color="#5c544e"
         offset="0"
         id="stop53586" />
      <stop
         stop-color="#5f5751"
         offset="1"
         id="stop53588" />
    </linearGradient>
    <linearGradient
       id="q"
       x1="286.07001"
       x2="347.12"
       y1="314.95999"
       y2="434.64001"
       gradientTransform="scale(1.3571,0.73686)"
       gradientUnits="userSpaceOnUse">
      <stop
         stop-color="#534b45"
         offset="0"
         id="stop53591" />
      <stop
         stop-color="#060505"
         offset="1"
         id="stop53593" />
    </linearGradient>
    <linearGradient
       id="w"
       x1="512.39001"
       x2="593.20001"
       y1="281.69"
       y2="241.03999"
       gradientTransform="scale(0.61981,1.6134)"
       gradientUnits="userSpaceOnUse"
       xlink:href="#a" />
    <linearGradient
       id="v"
       x1="342.23001"
       x2="368.98001"
       gradientUnits="userSpaceOnUse"
       xlink:href="#c" />
    <linearGradient
       id="u"
       x1="208.89999"
       x2="187.99001"
       y1="608.96997"
       y2="646.17999"
       gradientTransform="scale(1.5344,0.65172)"
       gradientUnits="userSpaceOnUse"
       xlink:href="#a" />
    <radialGradient
       id="g"
       cx="306.47"
       cy="61.310001"
       r="1.8084"
       gradientTransform="scale(0.78506,1.2738)"
       gradientUnits="userSpaceOnUse">
      <stop
         offset="0"
         id="stop53599" />
      <stop
         stop-color="#4f2b10"
         offset="1"
         id="stop53601" />
    </radialGradient>
    <radialGradient
       id="p"
       cx="262.29001"
       cy="588.34998"
       r="57.946999"
       gradientTransform="scale(1.3927,0.71805)"
       gradientUnits="userSpaceOnUse"
       xlink:href="#a" />
    <radialGradient
       id="o"
       cx="382.01999"
       cy="483.98999"
       r="62.763"
       gradientTransform="scale(1.6109,0.62077)"
       gradientUnits="userSpaceOnUse"
       xlink:href="#c" />
    <radialGradient
       id="n"
       cx="398.34"
       cy="397.5"
       r="86.740997"
       gradientTransform="scale(1.512,0.66137)"
       gradientUnits="userSpaceOnUse"
       xlink:href="#c" />
    <radialGradient
       id="m"
       cx="314.14999"
       cy="463.81"
       r="47.279999"
       gradientTransform="scale(1.5903,0.62883)"
       gradientUnits="userSpaceOnUse"
       xlink:href="#b" />
    <radialGradient
       id="l"
       cx="394.81"
       cy="335.73999"
       r="54.393002"
       gradientTransform="scale(0.84383,1.1851)"
       gradientUnits="userSpaceOnUse"
       xlink:href="#a" />
    <radialGradient
       id="k"
       cx="264.97"
       cy="239.39"
       r="230.99001"
       gradientTransform="scale(0.87633,1.1411)"
       gradientUnits="userSpaceOnUse"
       xlink:href="#b" />
    <radialGradient
       id="j"
       cx="206.35001"
       cy="116.1"
       r="53.716999"
       gradientTransform="scale(1.1704,0.85444)"
       gradientUnits="userSpaceOnUse"
       xlink:href="#b" />
    <radialGradient
       id="i"
       cx="249.17"
       cy="92.109001"
       r="10.13"
       gradientTransform="scale(0.94313,1.0603)"
       gradientUnits="userSpaceOnUse"
       xlink:href="#a" />
    <radialGradient
       id="h"
       cx="249.22"
       cy="93.972"
       r="10.13"
       gradientTransform="scale(0.94313,1.0603)"
       gradientUnits="userSpaceOnUse"
       xlink:href="#a" />
    <radialGradient
       id="f"
       cx="246.89"
       cy="110.65"
       r="3.4865"
       fx="247"
       gradientTransform="scale(1.1131,0.89836)"
       gradientUnits="userSpaceOnUse"
       xlink:href="#d" />
    <radialGradient
       id="e"
       cx="178.14"
       cy="138.66"
       r="25.966999"
       gradientTransform="matrix(1.5826,0,0,0.63185,-23.262,18.871)"
       gradientUnits="userSpaceOnUse"
       xlink:href="#d" />
  </defs>
  <g
     id="g53677"
     transform="matrix(0.5589817,0,0,0.5589817,-28.915408,52.847194)">
    <path
       transform="matrix(1.755,0,0,1.755,-220.01,-96.836)"
       d="m 363.06,423.82 c 3.5892,1.5326 -1.4451,25.258 -33.745,32.244 -9.5888,-11.544 -18.989,-7.7543 -31.43,-12.946 -5.1919,-2.1665 28.299,-3.4221 19.241,-21.302 15.311,3.4579 30.496,2.0969 45.934,2.004 z"
       fill="url(#p)"
       fill-rule="evenodd"
       id="path53617"
       style="fill:url(#p)" />
    <path
       transform="matrix(1.755,0,0,1.755,-220.01,-96.836)"
       d="m 353.35,348.15 5.6152,0.27391 c 13.604,35.061 3.1043,27.117 4.1087,39.854 l -0.23335,37.846 c -0.11929,19.347 -33.485,31.701 -33.457,29.65 30.557,-13.281 31.999,-27.762 31.575,-27.565 -24.221,11.241 -59.159,15.134 -63.304,14.728 0.96691,-1.8619 34.601,-4.9814 54.679,-15.973 -19.485,-1.5061 -18.477,-0.91295 -34.681,-5.1527 15.431,3.0819 28.429,2.7124 36.931,2.182 l 0.82174,-42.426 c -0.27391,-2.7848 -8.0804,-1.8717 -0.82174,-16.983 l -1.2326,-16.435 z"
       fill="url(#w)"
       fill-rule="evenodd"
       id="path53619"
       style="fill:url(#w)" />
    <path
       transform="matrix(1.755,0,0,1.755,-220.01,-96.836)"
       d="m 342.39,332.95 c 23.465,48.62 11.185,4.6565 26.433,3.287 0,0 -8.0804,-15.887 -8.6283,-15.887 -13.696,-0.68478 -17.804,12.6 -17.804,12.6 z"
       fill="url(#v)"
       fill-rule="evenodd"
       id="path53621"
       style="fill:url(#v)" />
    <path
       transform="matrix(1.755,0,0,1.755,-220.01,-96.836)"
       d="m 534.43,289.17 3.9217,-16.757 20.322,11.765 c 120.98,37.672 34.464,15.449 -24.243,4.9913 z"
       fill="url(#o)"
       fill-rule="evenodd"
       id="path53623"
       style="fill:url(#o)" />
    <path
       transform="matrix(1.755,0,0,1.755,-220.01,-96.836)"
       d="m 519.81,293.45 c 113.37,-27.571 108.74,-33.394 3.9218,-34.939 z"
       fill="url(#n)"
       fill-rule="evenodd"
       id="path53625"
       style="fill:url(#n)" />
    <path
       transform="matrix(1.755,0,0,1.755,-220.01,-96.836)"
       d="m 491.29,307 c 21.035,2.7333 131.56,17.945 37.435,-18.896 l -38.504,-5.7044 1.0696,24.6 z"
       fill="url(#m)"
       fill-rule="evenodd"
       id="path53627"
       style="fill:url(#m)" />
    <path
       transform="matrix(1.755,0,0,1.755,-220.01,-96.836)"
       d="m 330.33,394.32 c 4.3226,11.741 -12.208,19.276 -22.255,25.234 -10.573,-7.9442 -25.702,-2.7454 -36.45,-6.4839 14.136,-4.9651 14.603,-12.208 8.2362,-18.05 19.802,2.2197 33.646,-0.46731 50.469,-0.70096 z"
       fill="url(#u)"
       fill-rule="evenodd"
       id="path53629"
       style="fill:url(#u)" />
    <path
       transform="matrix(1.755,0,0,1.755,-220.01,-96.836)"
       d="m 327.38,326.26 11.4,1.2391 c 0.49565,18.835 -8.6739,43.865 -3.7174,69.143 -7.9429,14.166 -19.566,19.921 -27.509,23.048 8.967,-6.1656 19.336,-15.31 15.861,-20.074 -17.193,6.3785 -33.684,9.9531 -51.052,13.878 16.367,-7.6176 33.434,-13.483 48.574,-17.596 -14.467,1.4119 -28.758,0.72101 -42.874,-0.49565 15.488,0.30796 29.924,-0.61076 44.361,-2.2304 2.8913,-9.0044 5.287,-28.17 5.7,-44.113 -6.7739,-3.5522 1.0739,-10.574 -0.24782,-12.391 l -0.49566,-10.409 z"
       fill="url(#l)"
       fill-rule="evenodd"
       id="path53631"
       style="fill:url(#l)" />
    <path
       transform="matrix(1.755,0,0,1.755,-220.01,-96.836)"
       d="m 216.47,184.04 c 12.807,-57.14 7.3164,-66.999 12.353,-91.171 7.3572,-35.308 62.032,-21.996 58.274,7.5958 -8.5127,74.656 23.711,81.605 26.83,81.971 76.249,8.9455 75.624,24.941 92.792,31.872 51.367,12.535 130.2,35.636 125.57,59.793 3.4711,30.32 -73.882,40.038 -116.37,57.68 -24.57,3.6864 -55.088,8.1392 -74.718,4.0097 -38.27,-8.051 -153.43,-23.376 -124.74,-151.75 z"
       fill="url(#k)"
       fill-rule="evenodd"
       id="path53633"
       style="fill:url(#k)" />
    <path
       transform="matrix(1.755,0,0,1.755,-220.01,-96.836)"
       d="m 229.87,89.637 c 8.6837,-10.998 13.664,-11.843 15.197,-11.346 9.7494,3.1575 1.791,15.766 -2.1095,19.064 -2.6749,2.2617 9.1443,-0.65813 7.6295,12.26 4.354,-9.6697 20.052,-29.005 36.153,-10.332 6.765,-16.26 -42.3,-54.746 -56.87,-9.6461 z"
       fill="url(#j)"
       fill-rule="evenodd"
       id="path53635"
       style="fill:url(#j)" />
    <path
       transform="matrix(1.755,0,0,1.755,-220.01,-96.836)"
       d="m 232.98,95.603 c 4.6287,-3.1649 6.2903,-0.98904 9.2574,1.5429 l -5.5782,5.5782 c 3.6396,-9.6134 -1.1473,-6.765 -3.6792,-7.1211 z"
       fill="url(#t)"
       fill-rule="evenodd"
       id="path53637"
       style="fill:url(#t)" />
    <path
       transform="matrix(1.755,0,0,1.755,-220.01,-96.836)"
       d="m 232.86,96.316 c 4.9847,-3.7583 6.8837,-0.03956 7.121,3.0858 -1.4638,1.5429 -1.1473,2.255 -2.611,3.7979 -1.5033,-2.2946 1.5033,-7.2002 -4.51,-6.8837 z"
       fill="url(#s)"
       fill-rule="evenodd"
       id="path53639"
       style="fill:url(#s)" />
    <path
       transform="matrix(1.755,0,0,1.755,-220.01,-96.836)"
       d="m 231.32,114.95 c 2.9276,-11.315 8.3475,-17.644 19.108,-21.482 -1.3451,3.4814 0.27693,7.4376 -0.83079,11.156 -5.499,3.7979 -11.592,7.5958 -18.277,10.326 z"
       fill="url(#i)"
       fill-rule="evenodd"
       stroke="url(#h)"
       stroke-width="0.875"
       id="path53641"
       style="fill:url(#i);stroke:url(#h)" />
    <path
       transform="matrix(1.755,0,0,1.755,-220.01,-96.836)"
       d="m 241.4,74.003 c 2.0539,-0.14671 2.0925,6.467 0,7.4771 -1.3494,0.65142 -1.712,0.73256 -2.7297,0.35605 -1.729,-0.6396 0.90665,-7.7029 2.7297,-7.8332 z"
       fill="url(#g)"
       fill-rule="evenodd"
       id="path53643"
       style="fill:url(#g)" />
    <path
       transform="matrix(1.755,0,0,1.755,-220.01,-96.836)"
       d="m 270.6,99.045 c 0.86269,-1.9542 6.7279,-4.0676 8.7826,-2.611 0.81955,0.58092 0.69951,6.4968 -2.9671,6.8837 -3.3879,0.35743 -6.2117,-3.3752 -5.8155,-4.2726 z"
       fill="url(#f)"
       fill-rule="evenodd"
       id="path53645"
       style="fill:url(#f)" />
    <path
       transform="matrix(1.755,0,0,1.755,-220.01,-96.836)"
       d="m 232.03,115.42 c 23.381,0.67254 19.583,-13.253 30.977,-0.83079 -3.6396,-4.0353 -4.7869,-10.444 -10.8,-11.512 -6.6859,4.3122 -13.49,8.031 -20.176,12.343 z"
       fill="url(#e)"
       fill-rule="evenodd"
       id="path53647"
       style="fill:url(#e)" />
    <path
       transform="matrix(1.755,0,0,1.755,-220.01,-96.836)"
       d="m 333.33,225.87 c -23.772,-4.4022 -3.0841,-27.598 3.6978,-32.752 13.887,-10.554 77.83,29.23 137.88,44.374 18.533,5.7228 31.255,14.615 37.11,21.923 5.855,7.308 -5.1576,29.935 -15.716,25.621 -52.21,-16.904 -110.76,-42.261 -162.97,-59.165 z"
       fill="url(#r)"
       fill-rule="evenodd"
       id="path53649"
       style="fill:url(#r)" />
    <path
       transform="matrix(1.755,0,0,1.755,-220.01,-96.836)"
       d="m 316.89,221.76 c 61.096,4.5878 38.94,-13.316 186.31,63.11 -8.1685,9.735 -49.906,40.283 -93.993,48.339 -16.561,-3.1331 -7.609,-20.365 -49.682,-9.3993 -6.9376,5.1472 -48.116,-25.624 -57.067,-32.898 -5.6508,-20.365 -12.644,-33.345 20.309,-37.933 -35.527,-14.435 -22.044,-25.512 -5.8746,-31.219 z"
       fill="url(#q)"
       fill-rule="evenodd"
       id="path53651"
       style="fill:url(#q)" />
  </g>
</svg>
