<?xml version="1.0" encoding="UTF-8" standalone="no"?>
<svg
   xmlns:dc="http://purl.org/dc/elements/1.1/"
   xmlns:cc="http://creativecommons.org/ns#"
   xmlns:rdf="http://www.w3.org/1999/02/22-rdf-syntax-ns#"
   xmlns:svg="http://www.w3.org/2000/svg"
   xmlns="http://www.w3.org/2000/svg"
   xmlns:sodipodi="http://sodipodi.sourceforge.net/DTD/sodipodi-0.dtd"
   xmlns:inkscape="http://www.inkscape.org/namespaces/inkscape"
   viewBox="0 0 512 511.99999"
   height="512"
   width="512"
   xml:space="preserve"
   id="svg2"
   version="1.1"
   sodipodi:docname="Horse.svg"
   inkscape:version="1.0.2 (e86c870879, 2021-01-15, custom)"><sodipodi:namedview
     pagecolor="#ffffff"
     bordercolor="#666666"
     borderopacity="1"
     objecttolerance="10"
     gridtolerance="10"
     guidetolerance="10"
     inkscape:pageopacity="0"
     inkscape:pageshadow="2"
     inkscape:window-width="1366"
     inkscape:window-height="715"
     id="namedview82269"
     showgrid="false"
     inkscape:zoom="0.20549999"
     inkscape:cx="517.49515"
     inkscape:cy="304.85465"
     inkscape:window-x="-8"
     inkscape:window-y="-8"
     inkscape:window-maximized="1"
     inkscape:current-layer="svg2" /><metadata
     id="metadata8"><rdf:RDF><cc:Work
         rdf:about=""><dc:format>image/svg+xml</dc:format><dc:type
           rdf:resource="http://purl.org/dc/dcmitype/StillImage" /><dc:title></dc:title></cc:Work></rdf:RDF></metadata><defs
     id="defs6" /><g
     id="g83098"
     transform="matrix(0.41050411,0,0,0.41050411,-1361.852,-592.95187)"><g
       transform="matrix(0.26040266,0,0,-0.26040266,0,2666.6667)"
       id="g26"><path
         id="path28"
         style="fill:#d0d6d1;fill-opacity:1;fill-rule:nonzero;stroke:none"
         d="m 16300,768.912 c 0,-38.25 -679.7,-69.278 -1518.1,-69.278 -838.4,0 -1518.1,31.028 -1518.1,69.278 0,38.195 679.7,69.223 1518.1,69.223 838.4,0 1518.1,-31.028 1518.1,-69.223" /></g><g
       transform="matrix(0.22257866,0,0,-0.22257866,0,2666.6667)"
       id="g706"><path
         id="path708"
         style="fill:#eadece;fill-opacity:1;fill-rule:nonzero;stroke:none"
         d="m 15691.9,2644.03 c -4.8,-105.61 20.9,-211.22 11.8,-316.53 -10.8,-125.56 -70.8,-245.9 -62.2,-371.64 7,-102.5 59.3,-197.27 70.4,-299.34 10.6,-95.97 -15.7,-191.81 -22.2,-288.14 -9.6,-143.47 26,-289.69 100.6,-412.615 -4.1,50.615 4,102.135 23.3,149.165 31.8,-62.72 48,-133.351 46.7,-203.678 80,87.879 133.8,199.358 152.6,316.648 20.2,-65.89 27.2,-135.74 20.6,-204.33 32,58.89 58.2,120.95 77.9,185.05 10.9,-33.43 17.6,-68.24 19.9,-103.34 50.1,116.27 101.1,237.04 98.1,363.56 -2.4,103.15 -40.8,202.17 -50.9,304.85 -17.5,177.01 49.3,352.77 44,530.57 -5.7,191.39 -93.8,387.39 -30,567.94 18.1,51.1 47.8,98.18 58.7,151.26 48.8,238.72 -233.5,117.35 -327.5,48.16 -131.9,-97.28 -224.4,-252.25 -231.8,-417.59" /></g><g
       transform="matrix(0.23329866,0,0,-0.23329866,0,2666.6667)"
       id="g710"><path
         id="path712"
         style="fill:#7a513f;fill-opacity:1;fill-rule:nonzero;stroke:none"
         d="m 15589.7,2577.35 c -6.2,-73.67 20.9,-146.53 52.1,-216.72 58.7,-131.84 82.6,-262.78 109.2,-400 26.6,-137.22 -30,-292.67 -76.5,-390.68 198.3,-205.41 231.2,-473.44 257.6,-723.596 78.9,-0.457 136.1,-0.058 211,0 -6.6,203.176 -118.8,682.726 -101.9,722.846 46.3,109.56 239.3,509.56 252,732.74 6.8,118.82 -18.8,243.18 -112.3,340.73 -172.7,180.38 -568.7,201.24 -591.2,-65.32" /></g><g
       transform="matrix(0.25592666,0,0,-0.25592666,0,2666.6667)"
       id="g714"><path
         id="path716"
         style="fill:#7a513f;fill-opacity:1;fill-rule:nonzero;stroke:none"
         d="m 16244.3,1840.48 c -49,-122.43 -108.8,-339.27 -137.4,-465.08 -44.8,-196.94 -109.7,-451.176 -1.8,-591.788 -67.4,2.501 -180.1,-2.552 -247.6,0 -23.6,46.992 -35.6,101.017 -35,151.085 -18.5,-10.994 -37,-21.987 -55.4,-32.926 43.2,97.475 72.7,197.969 93.1,299.249 20.7,102.22 32.1,205.27 43.5,308.27 16.1,145.09 31.7,294.25 -26.5,433.61 -13.9,33.4 -32.2,66.38 -34.9,101.23 -3.5,43.66 17.7,86.59 46.5,125.04 62.9,83.93 166.3,153.43 291.4,182.97 85,20.05 119.8,-372.45 64.1,-511.66" /></g><g
       transform="matrix(0.26237333,0,0,-0.26237333,0,2666.6667)"
       id="g718"><path
         id="path720"
         style="fill:#7a513f;fill-opacity:1;fill-rule:nonzero;stroke:none"
         d="m 16080.7,3693.17 c -1.6,7.41 58.4,164.65 92.9,164.65 13.7,0 126.4,-311.27 126.4,-311.27 l -253.4,23.23 34.1,123.39" /></g><g
       transform="matrix(0.27167733,0,0,-0.27167733,0,2666.6667)"
       id="g722"><path
         id="path724"
         style="fill:#af6c3e;fill-opacity:1;fill-rule:nonzero;stroke:none"
         d="m 15287.5,3379.11 c 0,0 74.2,196.31 175,211.38 85,12.71 837.5,-549.38 837.5,-549.38 0,0 -0.1,-113.91 -91.2,-182.08 -92.4,-69.15 -223.5,29.16 -283,30.33 -100.9,2.02 -121.7,-32.53 -397.8,-42.45 -322.6,-11.58 -259.1,407.59 -259.1,407.59 l 18.6,124.61" /></g><g
       transform="matrix(0.26378133,0,0,-0.26378133,0,2666.6667)"
       id="g726"><path
         id="path728"
         style="fill:#af6c3e;fill-opacity:1;fill-rule:nonzero;stroke:none"
         d="m 15152.8,2694.35 c 13.8,3.28 240.9,60.05 367.3,281.19 126.4,221.14 224.9,504.71 224.9,504.71 0,0 555,-294.38 426.8,-250.61 -17.1,5.81 -395.3,-1423.75 -395.3,-1423.75 l -623.7,888.46" /></g><g
       transform="matrix(0.25689199,0,0,-0.25689199,0,2666.6667)"
       id="g730"><path
         id="path732"
         style="fill:#af6c3e;fill-opacity:1;fill-rule:nonzero;stroke:none"
         d="m 14020,2761 c 0,0 -217.8,-236.36 -231.7,-356.83 -13.9,-120.46 235.8,-574.56 235.8,-574.56 0,0 264.7,50.92 464,13.81 199.2,-37.06 611.7,-176.06 968.5,-208.49 356.8,-32.44 615.3,70.95 615.3,70.95 0,0 126.4,28.65 154.2,241.81 27.8,213.16 73.9,674.26 73.9,674.26 l -368.6,312.97 c 0,0 -168.7,-104.01 -646,-127.16 -615.7,-29.89 -993.2,137.18 -1265.4,-46.76" /></g><g
       transform="matrix(0.25357066,0,0,-0.25357066,0,2666.6667)"
       id="g734"><path
         id="path736"
         style="fill:#8c6246;fill-opacity:1;fill-rule:nonzero;stroke:none"
         d="m 16300,1888.07 c 0,0 -291.1,-145.54 -652.5,-112.68 -361.6,32.87 -779.4,173.68 -981.3,211.28 -201.8,37.54 -544.6,-61.05 -544.6,-61.05 0,0 -115.9,329.59 -153.5,521.25 -5.5,-14.99 -9.3,-29.13 -10.8,-41.91 -14.1,-122.1 164.3,-629.15 164.3,-629.15 0,0 353.6,65.62 555.5,28.08 201.9,-37.54 619.8,-229.84 981.3,-262.7 361.5,-32.87 641.6,197.08 641.6,197.08 v 149.8" /></g><g
       transform="matrix(0.22934666,0,0,-0.22934666,0,2666.6667)"
       id="g738"><path
         id="path740"
         style="fill:#8c6246;fill-opacity:1;fill-rule:nonzero;stroke:none"
         d="m 16252.9,2061.86 c 1.8,-4.77 8.7,0.47 10.2,5.35 36.9,114.87 10.7,243.12 -47.9,348.58 -48,86.28 -123,164.12 -219.4,185.86 61.7,-124.23 54.5,-272.07 22.9,-407.12 -8.5,-36.28 -17.2,-79.01 7.4,-106.97 18.2,-20.64 48.2,-25.18 75.5,-27.39 62.5,-5 125.4,-4.88 187.9,0.35 l -36.6,1.34" /></g><g
       transform="matrix(0.22716133,0,0,-0.22716133,0,2666.6667)"
       id="g742"><path
         id="path744"
         style="fill:#af6c3e;fill-opacity:1;fill-rule:nonzero;stroke:none"
         d="m 15570.5,2659.97 c -6.3,-75.6 21.5,-150.44 53.6,-222.52 60.2,-135.41 84.8,-269.88 112.1,-410.81 27.3,-140.93 -30.8,-300.64 -78.6,-401.24 203.7,-210.95 237.4,-486.24 264.6,-743.205 81,-0.411 139.7,0 216.7,0 -6.7,208.725 -122,701.235 -104.6,742.445 47.5,112.52 245.6,523.32 258.7,752.53 7,122.03 -19.3,249.69 -115.3,349.94 -177.4,185.25 -584.1,206.67 -607.2,-67.14" /></g><g
       transform="matrix(0.24975466,0,0,-0.24975466,0,2666.6667)"
       id="g746"><path
         id="path748"
         style="fill:#8c6246;fill-opacity:1;fill-rule:nonzero;stroke:none"
         d="m 16022.8,1782.34 c -17.3,98.44 -5.3,206.87 86.8,282.57 -1,-57.02 19.8,-114.14 59.7,-163.95 39.7,-49.54 98.2,-92.52 123,-146.54 4.5,-9.77 7.7,-20.66 1.6,-30.01 -5.1,-7.84 -15.9,-13.08 -26.7,-17.45 -42.8,-17.62 -123.7,-41.65 -174.4,-27.44 -51.7,14.46 -64.1,69.82 -70,102.82" /></g><g
       transform="matrix(0.25651866,0,0,-0.25651866,0,2666.6667)"
       id="g750"><path
         id="path752"
         style="fill:#af6c3e;fill-opacity:1;fill-rule:nonzero;stroke:none"
         d="m 16177.3,1765.69 c -48.8,-122.09 -208.1,-268.51 -236.7,-393.99 -44.7,-196.48 -109.5,-450.129 -1.7,-590.47 -67.4,2.548 -179.8,-2.495 -247.1,0 -23.6,46.936 -35.5,100.784 -35,150.736 -18.4,-10.915 -36.8,-21.881 -55.3,-32.85 43.2,97.25 72.6,197.514 93,298.614 20.6,101.98 32,204.79 43.4,307.5 16.1,144.81 31.6,293.63 -26.4,432.61 -14,33.32 -32.2,66.28 -34.9,101.05 -3.5,43.56 17.6,86.39 46.4,124.7 62.7,83.78 166,153.07 290.8,182.54 84.7,20.01 186.2,18.4 240.8,-40.02 45.4,-48.5 8.1,-100.11 -13.3,-150.84 -58.3,-138.26 -8.4,-250.64 -64,-389.58" /></g><g
       transform="matrix(0.26025733,0,0,-0.26025733,0,2666.6667)"
       id="g754"><path
         id="path756"
         style="fill:#8c6246;fill-opacity:1;fill-rule:nonzero;stroke:none"
         d="m 16300,2976.38 c 0,0 -105.4,-5.84 -166.4,60.56 -61.1,66.45 -86.2,181.31 -86.2,181.31 0,0 -41.3,-152.83 21.5,-259.49 62.9,-106.66 171,-199.34 171,-199.34 l 60.1,216.96" /></g><g
       transform="matrix(0.26205866,0,0,-0.26205866,0,2666.6667)"
       id="g758"><path
         id="path760"
         style="fill:#231f20;fill-opacity:1;fill-rule:nonzero;stroke:none"
         d="m 16158,3447.67 142,-58.97 -38.7,-7.02 c 0,0 -44.3,-18.67 -64.4,-6.1 -20.1,12.51 -16.6,34.34 -16.6,34.34 l -24.5,13.58 2.2,24.17" /></g><g
       transform="matrix(0.27031999,0,0,-0.27031999,0,2666.6667)"
       id="g762"><path
         id="path764"
         style="fill:#231f20;fill-opacity:1;fill-rule:nonzero;stroke:none"
         d="m 16276.8,2967.29 c -4,-1.48 -9.2,-1.28 -11.3,2.37 -0.7,1.18 -1,2.61 -1,3.99 -0.8,12.93 10.2,23.09 20.2,31.23 4.7,3.79 9.3,7.64 14.2,11.09 1.1,-14.69 -6.5,-42.71 -22.1,-48.68" /></g><g
       transform="matrix(0.25694533,0,0,-0.25694533,0,2666.6667)"
       id="g766"><path
         id="path768"
         style="fill:#eadece;fill-opacity:1;fill-rule:nonzero;stroke:none"
         d="m 16162.7,3685.71 c -18.4,-51.01 -22.5,-106.53 -43.2,-156.66 -36.1,-87.49 -117.9,-148 -164.2,-230.56 -41.5,-74.15 -53.3,-163.92 -104.7,-231.59 -40.7,-53.5 -101.6,-87.02 -152.9,-130.56 -132.1,-112.34 -194.7,-289.66 -204.8,-462.82 -10,-173.11 26.5,-345.18 62.9,-514.71 -8.1,62.11 -6.7,125.47 4,187.17 28.8,-146.7 63.9,-292.1 105.4,-435.73 31.8,287.79 81.5,573.61 148.9,855.22 0.2,-84.69 16.3,-169.32 47.2,-248.2 -8.1,141.82 13.7,285.25 63.7,418.15 22.9,-75.76 34.6,-154.85 34.7,-233.98 18.8,127.96 42.2,255.3 70,381.66 15.6,-112.09 61,-219.86 130.2,-309.27 -68,210.11 -66.6,442.06 3.9,651.39 4.3,-30.09 8.7,-60.14 13,-90.19 6,80.33 17.9,160.19 35.4,238.76 6.3,-19.46 12.5,-38.92 18.8,-58.33 17.1,123.71 41.2,254.37 57.8,378.19 5.7,42.13 11.2,124.8 11.2,124.8 -40.2,-3.53 -125.7,-100.57 -137.3,-132.74" /></g><g
       transform="matrix(0.26625333,0,0,-0.26625333,0,2666.6667)"
       id="g770"><path
         id="path772"
         style="fill:#eadece;fill-opacity:1;fill-rule:nonzero;stroke:none"
         d="m 15954.3,3329.71 c 10.3,16.67 18.1,34.8 23.2,53.73 41.9,-78.82 43.7,-172.06 44.5,-261.3 34.3,84.18 52.7,178.32 30.4,266.51 43.9,-54.99 59.5,-126.7 73.7,-195.6 10.1,45.02 14.8,91.24 13.7,137.36 3.9,-13.77 9,-27.24 15.1,-40.21 4.1,14.87 8.3,29.74 12.4,44.57 45.7,-42.62 65.7,-105.47 81.8,-165.86 14.1,63.85 16.4,130.3 6.9,194.95 16.4,-23.69 31,-48.72 43.5,-74.71 0.5,29.24 -9.3,57.63 -20.5,84.68 -27.2,65.9 -65.8,130.55 -126.3,168.41 -14.8,9.21 -30.9,16.97 -42.4,30.09 -8.8,10.02 -14.2,22.54 -21.5,33.71 -13.9,21.58 -34.4,37.95 -55.3,52.98 -32.7,23.64 -70.6,45.92 -110.7,41.36 -8.9,-1.05 -18.1,-3.55 -24.8,-9.51 -16.3,-14.27 -35.9,-16.13 -27.6,-29.05 7,-10.96 19.9,-32.1 26.9,-42.46 21.9,-32.3 38.2,-62.15 46.4,-94.8 8,-32 13,-64.8 14.8,-97.75 0.8,-16.43 0.9,-32.95 0.2,-49.43 -0.5,-11.87 1.9,-37.51 -4.4,-47.67" /></g><g
       transform="matrix(0.26004666,0,0,-0.26004666,0,2666.6667)"
       id="g774"><path
         id="path776"
         style="fill:#af6c3e;fill-opacity:1;fill-rule:nonzero;stroke:none"
         d="m 16095.7,3603.3 c 0,0 10.4,292.26 34,299.69 23.5,7.49 170.3,-234.98 170.3,-234.98 l -205,-66.91 0.7,2.2" /></g><g
       transform="matrix(0.25913599,0,0,-0.25913599,0,2666.6667)"
       id="g778"><path
         id="path780"
         style="fill:#8c6246;fill-opacity:1;fill-rule:nonzero;stroke:none"
         d="m 16172.9,3650.19 c 0,0 19.2,200.51 28.5,206.22 9.2,5.66 98.6,-160.48 98.6,-160.48 l -127.1,-45.74" /></g><g
       transform="matrix(0.22510799,0,0,-0.22510799,0,2666.6667)"
       id="g782"><path
         id="path784"
         style="fill:#000000;fill-opacity:1;fill-rule:nonzero;stroke:none"
         d="m 16057.5,980.214 5.3,-103.3 h 237.2 l -26.9,150.986 -215.6,-47.686" /></g><g
       transform="matrix(0.23136133,0,0,-0.23136133,0,2666.6667)"
       id="g786"><path
         id="path788"
         style="fill:#000000;fill-opacity:1;fill-rule:nonzero;stroke:none"
         d="m 16051.7,974.519 c 0.4,-3.458 6,-121.31 6,-121.31 h 242.3 l -37.1,154.101 -211.2,-32.791" /></g><g
       transform="matrix(0.25297333,0,0,-0.25297333,0,2666.6667)"
       id="g790"><path
         id="path792"
         style="fill:#000000;fill-opacity:1;fill-rule:nonzero;stroke:none"
         d="m 15877.9,909.504 20.2,-118.009 401.9,0.525 -63.9,162.02 -358.2,-44.536" /></g></g></svg>
