<?xml version="1.0" encoding="UTF-8" standalone="no"?>
<svg
   xmlns:dc="http://purl.org/dc/elements/1.1/"
   xmlns:cc="http://creativecommons.org/ns#"
   xmlns:rdf="http://www.w3.org/1999/02/22-rdf-syntax-ns#"
   xmlns:svg="http://www.w3.org/2000/svg"
   xmlns="http://www.w3.org/2000/svg"
   xmlns:sodipodi="http://sodipodi.sourceforge.net/DTD/sodipodi-0.dtd"
   xmlns:inkscape="http://www.inkscape.org/namespaces/inkscape"
   viewBox="0 0 161.84 161.84"
   height="161.84"
   width="161.84"
   xml:space="preserve"
   id="svg2"
   version="1.1"
   sodipodi:docname="Mallard Duck.svg"
   inkscape:version="1.0.2 (e86c870879, 2021-01-15, custom)"><sodipodi:namedview
     pagecolor="#ffffff"
     bordercolor="#666666"
     borderopacity="1"
     objecttolerance="10"
     gridtolerance="10"
     guidetolerance="10"
     inkscape:pageopacity="0"
     inkscape:pageshadow="2"
     inkscape:window-width="1366"
     inkscape:window-height="715"
     id="namedview53375"
     showgrid="false"
     inkscape:zoom="3.3860604"
     inkscape:cx="80.919998"
     inkscape:cy="80.919998"
     inkscape:window-x="-8"
     inkscape:window-y="-8"
     inkscape:window-maximized="1"
     inkscape:current-layer="svg2" /><metadata
     id="metadata8"><rdf:RDF><cc:Work
         rdf:about=""><dc:format>image/svg+xml</dc:format><dc:type
           rdf:resource="http://purl.org/dc/dcmitype/StillImage" /></cc:Work></rdf:RDF></metadata><defs
     id="defs6" /><g
     transform="matrix(1.3333333,0,0,-1.3333333,0,161.84)"
     id="g10"><g
       transform="scale(0.1)"
       id="g12"><path
         id="path20"
         style="fill:#9e5029;fill-opacity:1;fill-rule:nonzero;stroke:none"
         d="m 367.832,821.848 c 6.852,-55.336 13.52,-63.696 49.527,-108.106 50.079,-61.762 64.938,-101.316 200.711,-142.226 166.188,-50.078 231.11,-13.703 214.059,47.007 -3.359,12.149 -9.934,25.137 -19.629,38.688 -32.07,44.781 -68.887,81.418 -109.453,109.633 -46.438,32.289 -59.992,30.469 -109.973,43.633 -20.551,5.41 -41.011,7.933 -61.57,12.097 -32.938,6.676 -65.164,0.617 -98.098,-1.191 -14.097,-0.778 -28.246,-1.738 -42.414,-1.762 -3.742,0 -20.812,-1.723 -23.16,2.227" /><path
         id="path22"
         style="fill:#f6821e;fill-opacity:1;fill-rule:nonzero;stroke:none"
         d="m 747.59,396.398 -34.121,-10.293 -4.446,-37.472 c 0,0 -2.277,0.215 -6.503,1.301 -5.411,1.296 -13.86,3.898 -24.368,9.089 -8.886,4.336 -16.902,3.254 -23.074,0.766 -4.336,-1.621 -7.695,-3.898 -9.531,-5.41 -1.082,-0.871 -1.629,-1.418 -1.629,-1.418 0,0 0,0 -35.637,33.477 -35.64,33.464 7.364,30.761 4.551,44.082 -2.816,13.328 -18.305,25.136 -19.719,27.078 -1.402,1.847 7.043,8.781 18.313,24.922 1.406,1.953 2.707,5.089 4.008,8.878 v 0.11 c 8.66,26.648 13.328,89.148 13.328,89.148 14.508,-27.843 46.785,-27.082 46.785,-27.082 0,0 6.609,-2.383 -1.621,-26.972 -0.977,-3.028 -2.168,-6.387 -3.684,-10.172 -13.531,-34.125 -48.094,-53.41 -48.094,-53.41 0,0 -1.738,-17.977 11.485,-25.567 9.094,-5.195 60.008,-22.851 90.558,-33.144 13.747,-4.766 23.399,-7.911 23.399,-7.911" /><path
         id="path24"
         style="fill:#f36919;fill-opacity:1;fill-rule:nonzero;stroke:none"
         d="m 647.703,383.293 c 17.231,-8.02 48.645,-18.738 54.817,-33.359 -5.411,1.296 -13.86,3.898 -24.368,9.089 -8.886,4.336 -16.902,3.254 -23.074,0.766 l -6.824,8.887 -13.106,7.469 10.399,-21.766 c -1.082,-0.871 -1.629,-1.418 -1.629,-1.418 0,0 0,0 -35.637,33.477 -35.64,33.464 7.364,30.761 4.551,44.082 -2.816,13.328 -18.305,25.136 -19.719,27.078 -1.402,1.847 7.043,8.781 18.313,24.922 1.406,1.953 2.707,5.089 4.008,8.878 v 0.11 c 19.379,13.328 38.882,27.293 58.492,35.094 -0.977,-3.028 -2.168,-6.387 -3.684,-10.172 -13.531,-34.125 -48.094,-53.41 -48.094,-53.41 0,0 -1.738,-17.977 11.485,-25.567 9.094,-5.195 60.008,-22.851 90.558,-33.144 -5.312,-8.77 -15.714,-15.918 -34.562,-19.063 -20.789,-3.469 -33.789,-3.469 -41.926,-1.953" /><path
         id="path26"
         style="fill:#f6821e;fill-opacity:1;fill-rule:nonzero;stroke:none"
         d="m 623.777,332.813 -17.769,-5.848 -17.332,-5.633 -1.297,-13.75 -2.176,-22.539 c 0,0 -2.808,0.332 -8.012,1.629 -5.414,1.301 -13.32,3.894 -22.964,8.664 -8.231,4.121 -15.922,3.355 -21.879,1.297 C 524.766,294.035 520,289.27 520,289.27 c 0,0 0,0 -35.531,33.476 -35.641,33.469 7.258,30.762 4.441,44.082 -1.73,8.445 -8.668,16.356 -13.758,21.445 -2.925,2.93 -5.304,4.989 -5.851,5.633 -1.406,1.953 6.933,8.891 18.199,24.914 11.27,16.145 17.336,98.145 17.336,98.145 14.621,-27.735 46.797,-26.973 46.797,-26.973 0,0 8.34,-3.027 -5.203,-37.148 -13.649,-34.129 -48.102,-53.516 -48.102,-53.516 0,0 5.965,-6.719 15.602,-13.32 1.843,-1.414 3.797,-2.715 5.965,-3.906 13.097,-7.579 103.882,-49.289 103.882,-49.289" /><path
         id="path28"
         style="fill:#f36919;fill-opacity:1;fill-rule:nonzero;stroke:none"
         d="m 546.43,452.844 c -13.649,-34.129 -48.102,-53.516 -48.102,-53.516 0,0 5.965,-6.719 15.602,-13.32 -16.571,-1.953 -29.676,0.324 -38.778,2.265 -2.925,2.93 -5.304,4.989 -5.851,5.633 -1.406,1.953 6.933,8.891 18.199,24.914 11.27,16.145 17.336,98.145 17.336,98.145 14.621,-27.735 46.797,-26.973 46.797,-26.973 0,0 8.34,-3.027 -5.203,-37.148" /><path
         id="path30"
         style="fill:#f4743f;fill-opacity:1;fill-rule:nonzero;stroke:none"
         d="m 448.902,571.641 c 0,0 7.481,-111.668 96.832,-123.797 89.344,-12.121 124.532,76.804 124.532,76.804 l -221.364,46.993" /><path
         id="path32"
         style="fill:#9a6850;fill-opacity:1;fill-rule:nonzero;stroke:none"
         d="m 879.52,571.777 v -0.32 c 0.109,-10.734 -0.973,-21.992 -3.575,-33.262 V 537.98 C 866.633,496.164 837.488,453.383 774.453,424.348 742.488,409.621 704.91,404.965 704.91,404.965 c 0,0 -16.582,11.258 -40.625,26.746 -1.519,0.977 -3.035,1.953 -4.551,2.93 -18.308,11.589 -40.402,25.351 -62.832,38.242 -7.797,4.543 -16.136,10.39 -24.691,17.324 -51.02,40.41 -109.516,112.66 -109.516,112.66 0,0 -80.699,64.883 -113.199,118.61 l -0.215,0.109 c -8.883,14.629 -14.187,28.269 -13.218,39.758 v 0.101 c -4.872,13.114 -7.903,25.68 -9.309,37.27 -6.18,47.875 12.129,81.137 16.351,87.957 l 0.547,0.871 0.102,0.207 0.113,0.219 c 0,0 64.668,-41.16 77.449,-41.59 12.895,-0.441 37.59,-25.68 63.914,-30.766 12.137,-2.343 24.911,-1.965 39.653,-1.586 33.668,0.868 77.605,1.735 147.746,-29.832 12.781,-5.742 23.074,-10.722 31.187,-15.054 4.016,-2.168 7.485,-4.114 10.508,-5.957 4.66,-2.707 8.235,-5.2 10.949,-7.258 20.254,-15.707 -7.468,-14.082 1.836,-14.41 9.754,-0.325 18.633,2.601 26.211,9.207 12.356,10.402 21.243,30.441 24.707,62.183 4.657,43.324 16.895,-9 36.067,-68.246 2.168,-6.715 4.441,-13.433 6.824,-20.148 2.488,-7.039 4.988,-13.977 7.695,-20.797 4.004,-10.289 8.235,-20.254 12.782,-29.145 4.328,-8.769 8.878,-16.57 13.644,-22.961 0.867,-1.191 1.848,-2.492 2.598,-3.789 6.394,-9.64 12.031,-21.773 15.926,-35.535 3.578,-12.453 5.851,-26.101 5.957,-40.508" /><path
         id="path34"
         style="fill:#9e5029;fill-opacity:1;fill-rule:nonzero;stroke:none"
         d="m 764.375,715.41 c -1.953,1.301 -21.777,14.192 -44.309,27.731 -14.722,8.882 -30.761,17.875 -43.543,24.047 -33.468,15.929 -127.824,18.96 -165.73,26.652 -37.91,7.578 -50.695,31.844 -50.695,31.844 243.293,6.394 302.656,-106.805 304.277,-110.274" /><path
         id="path36"
         style="fill:#954b26;fill-opacity:1;fill-rule:nonzero;stroke:none"
         d="m 708.586,749.93 c -11.234,6.511 -22.551,12.668 -32.063,17.258 -33.468,15.929 -127.824,18.96 -165.73,26.652 -37.91,7.578 -50.695,31.844 -50.695,31.844 18.843,-11.7 66.945,-29.789 152.191,-37.258 57.524,-5.051 86.516,-22.613 99.274,-33.477 -0.497,-1.183 -1.02,-2.34 -1.563,-3.465 l -0.105,-0.218 v 0 c -0.446,-0.457 -0.879,-0.903 -1.309,-1.336" /><path
         id="path38"
         style="fill:#f9aa21;fill-opacity:1;fill-rule:nonzero;stroke:none"
         d="m 1011.24,659.52 -0.43,-1.735 c -1.51,-2.277 -6.17,-3.902 -12.888,-4.551 -16.469,-1.515 -45.5,2.817 -71.817,18.2 -5.421,3.136 -9.867,6.605 -13.656,10.398 -8.23,8.125 -12.996,17.328 -15.808,25.891 -0.762,2.273 -1.297,4.55 -1.739,6.711 -3.144,13.867 -1.297,24.918 -1.297,24.918 0,0 -7.472,12.457 -6.601,13.648 0.203,0.215 1.07,0.863 2.266,1.734 3.906,2.602 11.375,7.477 12.031,9.422 l 0.105,0.871 c 0.11,5.414 -4.441,30.762 -1.191,28.7 0,0 21.555,-10.289 25.566,-9.532 8.77,-12.777 5.625,-32.277 16.574,-52.535 l 1.407,-2.387 0.535,-0.75 c 4.551,-7.371 11.055,-14.738 20.906,-21.882 14.406,-10.512 24.485,-18.418 31.418,-24.809 l 0.215,-0.219 c 11.374,-10.398 14.194,-16.351 14.404,-22.093" /><path
         id="path40"
         style="fill:#9a6850;fill-opacity:1;fill-rule:nonzero;stroke:none"
         d="m 925.781,784.195 c 0,0 -41.601,-78.422 -98.683,-48.09 -4.227,2.165 -8.563,4.981 -13.004,8.555 l -0.969,0.758 -1.633,1.297 -0.215,0.219 c -0.867,0.757 -1.734,1.621 -2.703,2.492 l -0.437,-0.434 c -5.742,-4.547 -13.321,-16.465 -18.633,-32.281 -2.387,-7.254 -4.328,-15.379 -5.41,-23.941 -0.442,-3.571 -0.656,-7.254 -0.766,-11.051 -0.215,-3.567 -0.105,-7.254 0.11,-10.938 0.761,-14.187 4.445,-28.918 12.46,-43 9.747,-17.336 18.418,-43.875 19.93,-73.015 2.063,-36.93 -7.148,-78.094 -39.754,-109.832 -16.902,-16.575 -40.078,-30.442 -71.164,-39.969 -53.953,-3.481 -82,9.09 -82,9.09 0,0 -42.793,3.035 -97.281,34.453 -54.481,31.512 -126.731,110.703 -126.731,110.703 0,0 -103.562,112.004 -99.23,165.301 -6.176,16.355 -7.363,33.363 -5.629,50.047 l 0.106,1.296 c 1.625,15.274 5.851,30.219 11.265,43.981 13.11,34.234 32.93,60.879 37.695,66.836 l 0.547,0.871 c -1.195,-3.688 -10.726,-33.266 -1.304,-40.734 10.074,-7.911 9.316,-13.321 28.597,-35.532 0,0 31.739,2.602 47.231,-18.847 l 0.324,-0.325 c 6.383,-8.968 6.273,-8.507 10.992,-8.042 6.738,0.66 23.305,1.32 82.598,-25.426 25.238,-11.379 46.363,-19.614 64.023,-25.563 45.918,-15.281 68.36,-15.125 79.84,-14.969 1.707,0.024 3.176,0.043 4.438,0.016 16.574,-0.539 36.281,8.774 47.656,29.57 2.598,4.551 4.766,9.75 6.277,15.493 2.387,8.234 3.574,17.652 3.364,28.273 -2.172,87.633 76.492,135.414 126.843,105.289 88.367,-52.871 81.25,-112.551 81.25,-112.551" /><path
         id="path42"
         style="fill:#927c71;fill-opacity:1;fill-rule:nonzero;stroke:none"
         d="m 879.52,571.777 v -0.32 c -0.215,-1.848 -1.297,-14.523 -3.575,-33.262 V 537.98 C 866.633,496.164 837.488,453.383 774.453,424.348 742.488,409.621 704.91,404.965 704.91,404.965 c -53.953,-3.481 -82,9.09 -82,9.09 0,0 -42.793,3.035 -97.281,34.453 -54.481,31.512 -126.731,110.703 -126.731,110.703 0,0 -103.562,112.004 -99.23,165.301 -6.277,16.789 -7.477,34.23 -5.523,51.343 2.277,-3.14 4.546,-5.742 6.828,-7.796 6.062,-5.414 23.5,-23.079 48.308,-46.473 l 0.215,-0.109 c 86.77,-81.891 263.231,-233.653 358.551,-181.985 122.734,66.516 -21.121,172.238 -21.121,172.238 36.504,1.84 69.004,-11.265 96.402,-30.011 58.82,-40.18 94.465,-106.805 96.192,-109.942" /><path
         id="path44"
         style="fill:#9b6850;fill-opacity:1;fill-rule:nonzero;stroke:none"
         d="m 774.453,424.348 c -31.965,-14.727 -69.543,-19.383 -69.543,-19.383 -53.953,-3.481 -82,9.09 -82,9.09 33.274,-7.864 55.828,-4.473 68.02,2.011 111.961,59.493 -7.344,275.696 -7.344,275.696 0,0 -35.957,108.586 99.852,-20.981 13.664,-13.035 39.648,2.602 57.957,3.789 4.328,-8.769 8.878,-16.57 13.644,-22.961 0.867,-1.191 1.848,-2.492 2.598,-3.789 33.047,-49.289 44.629,-164.547 -83.184,-223.472" /><path
         id="path46"
         style="fill:#897363;fill-opacity:1;fill-rule:nonzero;stroke:none"
         d="m 696.012,432.168 c -12.391,0 -24.61,0.844 -36.278,2.473 -26.648,3.679 -50.371,11.589 -66.621,22.957 -53.074,37.16 -68.347,49.179 -70.402,50.812 2.383,-0.976 22.312,-9.758 49.5,-18.203 27.254,-8.504 61.766,-16.715 93.148,-16.715 15.391,0 30.036,1.977 42.688,6.86 14.125,5.472 24.074,13.265 30.699,22.246 -0.949,-26.903 -8.183,-51.598 -25.641,-69.895 -5.71,-0.359 -11.417,-0.535 -17.093,-0.535" /><path
         id="path48"
         style="fill:#926047;fill-opacity:1;fill-rule:nonzero;stroke:none"
         d="m 713.105,432.703 c 17.458,18.297 24.692,42.992 25.641,69.895 11.797,15.996 13.027,35.75 8.445,52.793 5.168,-1.364 10.391,-2.5 15.629,-3.352 3.938,-27.105 3.938,-30.816 3.938,-30.816 0,0 7.82,12.578 14.363,29.058 1.059,-0.027 2.117,-0.043 3.172,-0.043 9.918,0 19.816,1.223 29.586,3.992 l 1.949,0.536 c 5.949,1.773 11.309,3.793 16.129,6.007 0.16,-7.171 2.164,-15.472 7.469,-24.66 7.14,7.203 11.379,23.024 10.793,35.746 6.254,5.008 10.937,10.426 14.426,15.922 4.691,-23.504 1.582,-53.07 -20.114,-91.402 -13.75,-24.363 -38.777,-41.16 -68.457,-51.445 -19.668,-6.891 -41.32,-10.871 -62.969,-12.231 m 90.215,69.113 c 0,0 -17.922,-16.699 -27.922,-47.39 16.184,4.062 49.133,23.465 27.922,47.39 m 76.2,69.961 c -0.055,5.532 -0.415,10.961 -1.036,16.258 0.633,-5.289 0.996,-10.719 1.036,-16.258 v 0" /><path
         id="path50"
         style="fill:#3e824b;fill-opacity:1;fill-rule:nonzero;stroke:none"
         d="m 925.781,784.195 c 0,0 -48.105,-90.554 -111.687,-39.535 2.168,-6.715 4.441,-13.433 6.824,-20.148 2.488,-7.039 4.988,-13.977 7.695,-20.797 -2.597,-8.664 -14.082,-10.402 -23.613,-11.809 -3.359,-0.543 -21.609,0.535 -26.484,1.516 -23.184,4.871 -53.348,24.594 -61.153,34.125 -3.359,4.113 -6.601,10.937 -9.316,20.144 0.652,1.086 1.301,2.278 1.848,3.575 l 0.105,0.218 c 1.73,3.571 3.254,7.473 4.324,11.7 2.387,8.234 3.574,17.652 3.364,28.273 -2.172,87.633 68.921,139.59 126.843,105.289 88.606,-52.476 81.25,-112.551 81.25,-112.551" /><path
         id="path52"
         style="fill:#f9f2e2;fill-opacity:1;fill-rule:nonzero;stroke:none"
         d="m 788.762,638.801 c -54.602,13.972 -93.821,45.301 -101.836,72.929 -8.235,27.516 -1.516,14.192 22.969,39.536 -0.547,-1.297 -1.196,-2.489 -1.848,-3.575 2.715,-9.207 5.957,-16.031 9.316,-20.144 7.805,-9.531 37.969,-29.254 61.153,-34.125 4.875,-0.981 23.125,-2.059 26.484,-1.516 9.531,1.407 21.016,3.145 23.613,11.809 7.903,-20.363 16.785,-39.106 26.426,-52.106 0.867,-1.191 -25.437,-23.316 -66.277,-12.808" /><path
         id="path54"
         style="fill:#916047;fill-opacity:1;fill-rule:nonzero;stroke:none"
         d="m 592.949,730.734 c -38.461,25.102 -53.582,24.493 -99.707,36.676 -1.191,0.309 -2.383,0.61 -3.578,0.899 -33.848,13.843 -48.734,15.957 -56.199,15.957 -1.641,0 -2.926,-0.102 -3.973,-0.203 -1.043,-0.106 -1.851,-0.208 -2.547,-0.208 -1.632,0 -2.636,0.567 -4.609,3.036 23.797,-1.356 39.766,-2.473 39.766,-2.473 0,0 -3.387,1.305 -9.059,3.391 87.996,-15.649 137.949,-55.493 139.906,-57.075" /><path
         id="path56"
         style="fill:#916047;fill-opacity:1;fill-rule:nonzero;stroke:none"
         d="m 489.664,768.309 c -19.281,4.714 -38.566,7.246 -57.945,11.121 -11.164,2.281 -22.262,3.097 -33.348,3.097 -8.922,0 -17.84,-0.527 -26.773,-1.25 -1.403,-0.109 -3.5,-0.16 -6.137,-0.16 -8.356,0 -22.152,0.477 -36.606,0.949 -11.667,0.383 -23.761,0.766 -33.765,0.899 2.027,12.793 5.75,25.254 10.32,36.871 1.164,-4.707 3.43,-8.961 7.051,-12.59 2.273,-8.777 11.027,-16.031 33.187,-16.789 27.946,-0.957 55.438,-2.359 76.688,-3.566 1.973,-2.469 2.977,-3.036 4.609,-3.036 0.696,0 1.504,0.102 2.547,0.208 1.047,0.101 2.332,0.203 3.973,0.203 7.465,0 22.351,-2.114 56.199,-15.957" /><path
         id="path58"
         style="fill:#926047;fill-opacity:1;fill-rule:nonzero;stroke:none"
         d="m 747.191,555.391 c -3.746,0.992 -7.453,2.097 -11.14,3.312 -0.699,4.106 -1.574,8.137 -2.543,11.992 v 0 c -0.324,1.516 -0.766,3.145 -1.195,4.657 -1.071,3.906 -2.473,7.875 -4.2,11.914 8.395,-6.942 15.504,-18.582 19.078,-31.875 m 117.454,32.39 c -4.528,22.703 -16.332,39.75 -25.696,53.586 10.676,4.289 16.508,9.668 16.09,10.242 0.867,-1.191 1.848,-2.492 2.598,-3.789 10.011,-14.972 18.066,-36.027 20.847,-59.785 -1.011,8.469 -2.718,16.586 -4.921,24.25 -1.067,-7.562 -3.602,-16.125 -8.918,-24.504" /><path
         id="path60"
         style="fill:#816a58;fill-opacity:1;fill-rule:nonzero;stroke:none"
         d="m 658.488,409.496 c -10.07,0 -21.922,1.332 -35.578,4.559 v 0 c 0,0 -35.289,2.504 -82.582,26.492 -4.781,2.426 -9.691,5.074 -14.699,7.961 -8.449,4.887 -17.328,10.926 -26.301,17.633 -48.859,36.543 -100.43,93.07 -100.43,93.07 0,0 -68.031,73.574 -91.507,129.84 3.48,-5.492 7.062,-10.242 10.691,-14.258 l 0.332,-0.438 c 48.09,-69.109 60.762,-91.531 143.09,-129.335 l 0.328,-0.106 c 14.402,-6.719 31.09,-13.867 50.371,-21.777 22.637,-9.317 43.539,-16.789 62.5,-22.532 v 0 c 33.004,-10.074 60.567,-15.101 82.922,-15.968 2.367,-0.094 4.676,-0.137 6.926,-0.137 27.265,0 46.004,6.699 56.711,18.273 10.461,6.004 15.047,17.125 16.215,29.829 1.125,-10.161 1.613,-20.227 1.269,-30.004 -6.625,-8.981 -16.574,-16.774 -30.699,-22.246 -12.652,-4.883 -27.297,-6.86 -42.688,-6.86 -31.382,0 -65.894,8.211 -93.148,16.715 -27.188,8.445 -47.117,17.227 -49.5,18.203 2.055,-1.633 17.328,-13.652 70.402,-50.812 16.25,-11.368 39.973,-19.278 66.621,-22.957 11.668,-1.629 23.887,-2.473 36.278,-2.473 5.676,0 11.383,0.176 17.093,0.535 -6.093,-6.383 -13.429,-11.988 -22.175,-16.637 -7.188,-3.824 -17.977,-6.57 -32.442,-6.57 m 115.965,14.852 c 39.684,18.297 65.93,42.019 82.266,67.515 -16.324,-25.508 -42.578,-49.238 -82.266,-67.515" /><path
         id="path62"
         style="fill:#88583f;fill-opacity:1;fill-rule:nonzero;stroke:none"
         d="m 686.395,404.355 c -41.844,0 -63.485,9.7 -63.485,9.7 v 0 c 13.656,-3.227 25.508,-4.559 35.578,-4.559 14.465,0 25.254,2.746 32.442,6.57 8.746,4.649 16.082,10.254 22.175,16.637 21.649,1.36 43.301,5.34 62.969,12.231 29.68,10.285 54.707,27.082 68.457,51.445 21.696,38.332 24.805,67.898 20.114,91.402 5.316,8.379 7.851,16.942 8.918,24.504 2.203,-7.664 3.91,-15.781 4.921,-24.25 0.621,-5.297 0.981,-10.726 1.036,-16.258 v -0.105 -0.215 0 c 0.007,-0.461 0.007,-0.926 0.007,-1.387 0.004,-10.312 -1.093,-21.09 -3.582,-31.875 v -0.215 c -3.449,-15.488 -9.617,-31.109 -19.226,-46.117 v 0 c -16.336,-25.496 -42.582,-49.218 -82.266,-67.515 v 0 c -31.965,-14.727 -69.543,-19.383 -69.543,-19.383 -6.551,-0.426 -12.726,-0.61 -18.515,-0.61 m 52.351,98.243 c 0.344,9.777 -0.144,19.843 -1.269,30.004 0.214,2.332 0.316,4.714 0.312,7.132 0,6.239 -0.668,12.688 -1.738,18.969 3.687,-1.215 7.394,-2.32 11.14,-3.312 4.582,-17.043 3.352,-36.797 -8.445,-52.793" /><path
         id="path64"
         style="fill:#916047;fill-opacity:1;fill-rule:nonzero;stroke:none"
         d="m 841.34,674.566 c -1.531,3.063 -3.035,6.231 -4.512,9.493 1.488,-3.27 3.008,-6.442 4.567,-9.489 -0.016,0 -0.036,0 -0.055,-0.004" /><path
         id="path66"
         style="fill:#926047;fill-opacity:1;fill-rule:nonzero;stroke:none"
         d="m 847.141,663.766 c -1.973,3.402 -3.907,7.019 -5.801,10.8 0.019,0.004 0.039,0.004 0.055,0.004 v 0 c 1.875,-3.793 3.789,-7.406 5.746,-10.804" /><path
         id="path68"
         style="fill:#916047;fill-opacity:1;fill-rule:nonzero;stroke:none"
         d="m 801.773,691.762 c -1.101,0 -2.39,0.023 -3.789,0.07 v 0 c 1.399,-0.047 2.688,-0.07 3.789,-0.07 v 0 m 0.004,0 c 1.465,0 2.602,0.043 3.223,0.144 9.531,1.407 21.016,3.145 23.613,11.809 v 0 c -2.597,-8.664 -14.082,-10.402 -23.613,-11.809 -0.621,-0.101 -1.758,-0.144 -3.223,-0.144" /><path
         id="path70"
         style="fill:#387743;fill-opacity:1;fill-rule:nonzero;stroke:none"
         d="m 801.773,691.762 c -1.101,0 -2.39,0.023 -3.789,0.07 -5.289,9.836 -7.652,17.969 -8.48,24.879 -1.516,13.004 2.488,21.664 2.488,29.355 0,5.454 2.196,7.325 5.207,7.325 3.27,0 7.5,-2.203 10.938,-4.399 1.187,-0.758 2.273,-1.515 3.14,-2.058 l 0.215,-0.219 1.633,-1.297 0.969,-0.758 c 2.168,-6.715 4.441,-13.433 6.824,-20.148 2.488,-7.039 4.988,-13.977 7.695,-20.797 -2.597,-8.664 -14.082,-10.402 -23.613,-11.809 -0.621,-0.101 -1.758,-0.144 -3.223,-0.144 -0.004,0 -0.004,0 -0.004,0" /><path
         id="path72"
         style="fill:#916047;fill-opacity:1;fill-rule:nonzero;stroke:none"
         d="m 831.828,695.656 c -1.09,2.649 -2.16,5.34 -3.215,8.059 1.055,-2.715 2.129,-5.406 3.215,-8.059" /><path
         id="path74"
         style="fill:#e7dec4;fill-opacity:1;fill-rule:nonzero;stroke:none"
         d="m 838.949,641.367 c -0.015,0.02 -0.027,0.039 -0.043,0.059 -21.285,20.726 -33.773,37.125 -40.922,50.406 1.399,-0.047 2.688,-0.07 3.789,-0.07 v 0 c 0,0 0,0 0.004,0 1.465,0 2.602,0.043 3.223,0.144 9.531,1.407 21.016,3.145 23.613,11.809 v 0 0 c 1.055,-2.719 2.125,-5.41 3.215,-8.059 1.625,-3.965 3.289,-7.843 5,-11.597 1.477,-3.262 2.981,-6.43 4.512,-9.493 1.894,-3.781 3.828,-7.398 5.801,-10.8 2.562,-4.453 5.195,-8.532 7.898,-12.157 v 0 c 0.418,-0.574 -5.414,-5.953 -16.09,-10.242" /><path
         id="path76"
         style="fill:#f9aa21;fill-opacity:1;fill-rule:nonzero;stroke:none"
         d="m 1010.81,657.785 v -0.215 c 0.32,-9.429 -42.138,-34.121 -81.787,-10.941 -39.753,23.289 -77.773,75.176 -77.773,75.176 0,0 -7.473,12.347 -6.602,13.539 0.86,1.191 13.536,8.668 14.407,11.265 0.855,2.493 -4.66,31.629 -1.196,29.465 0,0 3.032,-1.41 7.043,-3.144 6.707,-2.922 16.028,-6.825 18.516,-6.391 2.395,-3.465 4.227,-7.363 5.852,-11.805 4.773,-13.105 7.91,-29.898 20.039,-46.578 5.203,-7.261 12.031,-14.402 21.453,-21.234 30.656,-22.203 62.929,-21.774 75.068,-25.348 3.03,-0.863 4.77,-2.054 4.98,-3.789" /><path
         id="path78"
         style="fill:#f9aa21;fill-opacity:1;fill-rule:nonzero;stroke:none"
         d="m 925.781,784.156 c 0,0 -9.875,-27.035 -42.312,-17.601 -12.364,-32.543 7.508,-52.629 21.148,-58.043 13.653,-5.414 32.832,32.496 32.832,33.398 0,0.903 -11.668,42.246 -11.668,42.246" /><path
         id="path80"
         style="fill:#382927;fill-opacity:1;fill-rule:nonzero;stroke:none"
         d="m 817.266,823.414 c -3.172,-4.168 -1.211,-12.324 4.394,-18.219 5.606,-5.886 12.715,-7.285 15.899,-3.113 3.171,4.176 1.203,12.324 -4.407,18.219 -5.593,5.883 -12.714,7.281 -15.886,3.113" /><path
         id="path82"
         style="fill:#53403b;fill-opacity:1;fill-rule:nonzero;stroke:none"
         d="m 825.52,817.16 c -1.653,-2.164 -0.625,-6.39 2.273,-9.449 2.91,-3.063 6.602,-3.777 8.242,-1.617 1.653,2.16 0.637,6.394 -2.273,9.449 -2.91,3.059 -6.606,3.781 -8.242,1.617" /><path
         id="path84"
         style="fill:#7b3e1f;fill-opacity:1;fill-rule:nonzero;stroke:none"
         d="m 731.23,539.172 v -0.109 C 727.336,530.18 720.398,522.707 710,516.965 l -0.215,-0.11 c -12.89,-7.039 -30.769,-11.265 -53.84,-11.914 -34.121,-0.972 -79.722,5.957 -137.683,23.403 -135.508,40.945 -146.664,87.195 -199.848,146.011 l -0.332,0.438 c -17.223,19.062 -33.359,54.594 -42.785,107.781 8.289,0.93 31.676,0.211 53.558,-0.508 19.016,-0.625 36.899,-1.246 42.743,-0.789 20.039,1.621 39.968,2.27 60.121,-1.847 20.578,-4.117 41.051,-6.715 61.523,-12.02 50.051,-13.219 63.59,-11.379 110.055,-43.656 40.297,-28.16 77.023,-64.563 109.086,-109.086 l 0.32,-0.539 c 9.641,-13.649 16.25,-26.539 19.61,-38.777 0.429,-1.512 0.871,-3.141 1.195,-4.657 2.488,-11.699 1.836,-22.312 -2.278,-31.523" /><path
         id="path86"
         style="fill:#f9f2e2;fill-opacity:1;fill-rule:nonzero;stroke:none"
         d="m 729.492,516.965 c -1.726,-5.313 -4.551,-10.07 -8.23,-14.192 -19.934,-21.55 -67.707,-26.21 -146.559,-2.168 -18.961,5.743 -39.863,13.215 -62.5,22.532 -19.281,7.91 -35.969,15.058 -50.371,21.777 l -0.328,0.106 c -82.328,37.804 -95,60.226 -143.09,129.335 l -0.332,0.438 c -1.516,2.168 -3.141,4.437 -4.762,6.82 40.293,-49.504 84.922,-81.457 123.16,-100.304 46.688,-23.18 83.84,-26.864 91.965,-19.391 9.426,8.562 -9.636,29.684 -5.632,32.391 10.402,7.039 60.23,-54.922 133.132,-66.836 30.981,-4.981 50.481,-2.93 61.953,4.113 6.079,3.687 9.973,8.883 12.036,15.055 0.535,-2.594 0.964,-5.086 1.296,-7.469 v -0.109 c 0.977,-8.016 0.325,-15.489 -1.738,-22.098" /><path
         id="path88"
         style="fill:#436e9c;fill-opacity:1;fill-rule:nonzero;stroke:none"
         d="m 729.492,516.965 c -10.832,-32.824 -60.762,-45.059 -154.789,-16.36 -18.961,5.743 -39.863,13.215 -62.5,22.532 -19.281,7.91 -35.969,15.058 -50.371,21.777 5.629,-1.516 85.789,-23.398 128.25,-27.949 43.981,-4.66 37.914,16.25 37.914,16.25 l 31.848,-16.25 h 69.648" /><path
         id="path90"
         style="fill:#9e5029;fill-opacity:1;fill-rule:nonzero;stroke:none"
         d="m 721.262,502.773 -0.434,-0.214 -9.098,-3.036 c -13.214,-6.062 -33.363,-2.921 -55.785,5.418 -2.593,0.969 -5.203,2.063 -7.91,3.137 h -0.105 c -51.996,21.563 -112.547,66.942 -125.117,86.231 0,0 -1.403,17.761 -31.84,53.511 -43.336,50.801 -80.274,26.75 -119.375,133.457 20.039,1.621 39.968,2.27 60.121,-1.847 20.578,-4.117 41.051,-6.715 61.523,-12.02 50.051,-13.219 63.59,-11.379 110.055,-43.656 40.297,-28.16 77.023,-64.563 109.086,-109.086 l 0.32,-0.539 c 9.641,-13.649 16.25,-26.539 19.61,-38.777 0.429,-1.512 0.871,-3.141 1.195,-4.657 6.172,-24.48 8.34,-56.113 -12.246,-67.922" /><path
         id="path92"
         style="fill:#3e824b;fill-opacity:1;fill-rule:nonzero;stroke:none"
         d="m 827.102,736.105 c -4.231,2.165 -8.567,4.981 -13.008,8.555 0,0 4.871,-2.926 13.008,-8.555" /><path
         id="path94"
         style="fill:#9f6f53;fill-opacity:1;fill-rule:nonzero;stroke:none"
         d="m 446.082,807.141 c -47.301,0 -58.543,17.777 -65.902,56.093 45.699,-19.632 81.922,-55.519 81.922,-55.519 -5.758,-0.383 -11.082,-0.574 -16.02,-0.574" /><path
         id="path96"
         style="fill:#9f6f53;fill-opacity:1;fill-rule:nonzero;stroke:none"
         d="m 386.793,822.012 c -0.809,0 -5.297,0.394 -29.035,5.808 -6.684,9.313 -8.496,13.563 -15.41,18.989 -5.832,4.625 -4.403,17.718 -2.184,27.898 1.582,2.629 2.785,4.211 2.785,4.211 0,0 30.805,-10.156 29.117,-24.039 -1.695,-13.875 14.891,-32.856 14.891,-32.856 0,0 -0.027,-0.011 -0.164,-0.011" /><path
         id="path98"
         style="fill:#9f6f53;fill-opacity:1;fill-rule:nonzero;stroke:none"
         d="m 357.758,827.82 c -2.656,0.61 -5.555,1.278 -8.715,2.016 -25.867,10.934 -14.758,35.109 -8.879,44.871 -2.219,-10.18 -3.648,-23.273 2.184,-27.898 6.914,-5.426 8.726,-9.676 15.41,-18.989" /><path
         id="path100"
         style="fill:#9f6f53;fill-opacity:1;fill-rule:nonzero;stroke:none"
         d="m 453.043,787.809 c -11.035,1.961 -22.66,3.543 -34.867,4.621 v 0 c -3.711,5.136 -8.356,8.894 -13.27,11.64 19.223,-5.847 37.614,-12.394 48.137,-16.261 m -73.82,23.386 c -1.961,0.141 -3.66,0.18 -5.004,0.18 -2.063,0 -3.274,-0.098 -3.274,-0.098 -0.66,0.762 -1.297,1.504 -1.914,2.227 3.285,-0.676 6.699,-1.453 10.192,-2.309" /><path
         id="path102"
         style="fill:#9f6f53;fill-opacity:1;fill-rule:nonzero;stroke:none"
         d="m 418.176,792.43 v 0 c -11.77,1.047 -24.071,1.613 -36.918,1.613 -4.418,0 -8.906,-0.066 -13.453,-0.203 -2.153,-0.067 -4.239,-0.098 -6.266,-0.098 -14.785,0 -26.215,1.727 -34.785,4.973 -6.145,2.168 -10.836,5.062 -14.293,8.531 -3.809,14.684 10.512,33.645 10.512,33.645 0,0 4.957,-23.141 28.097,-24.711 5.2,-0.356 11.317,-1.309 17.961,-2.676 0.617,-0.723 1.254,-1.465 1.914,-2.227 0,0 1.211,0.098 3.274,0.098 1.344,0 3.043,-0.039 5.004,-0.18 8.308,-2.035 17.078,-4.507 25.683,-7.125 4.914,-2.746 9.559,-6.504 13.27,-11.64 v 0" /><path
         id="path104"
         style="fill:#96664c;fill-opacity:1;fill-rule:nonzero;stroke:none"
         d="m 462.102,784.418 c 0,0 -15.969,1.117 -39.766,2.473 -0.977,1.218 -2.191,2.906 -3.836,5.214 l -0.324,0.325 c 12.207,-1.078 23.832,-2.66 34.867,-4.621 5.672,-2.086 9.059,-3.391 9.059,-3.391" /><path
         id="path106"
         style="fill:#96664c;fill-opacity:1;fill-rule:nonzero;stroke:none"
         d="m 422.336,786.891 c -21.25,1.207 -48.742,2.609 -76.688,3.566 -22.16,0.758 -30.914,8.012 -33.187,16.789 3.457,-3.469 8.148,-6.363 14.293,-8.531 8.57,-3.246 20,-4.973 34.785,-4.973 2.027,0 4.113,0.031 6.266,0.098 4.547,0.137 9.035,0.203 13.453,0.203 12.847,0 25.148,-0.566 36.918,-1.613 v 0 l 0.324,-0.325 c 1.645,-2.308 2.859,-3.996 3.836,-5.214" /><path
         id="path108"
         style="fill:#a3582e;fill-opacity:1;fill-rule:nonzero;stroke:none"
         d="m 716.66,569.355 c -46.035,3 -66.347,62.676 -80.566,106.68 60.254,-34.523 80.566,-106.68 80.566,-106.68" /><path
         id="path110"
         style="fill:#74391c;fill-opacity:1;fill-rule:nonzero;stroke:none"
         d="m 436.48,581.309 c -38.238,18.847 -82.867,50.8 -123.16,100.304 1.621,-2.383 3.246,-4.652 4.762,-6.82 -17.223,19.062 -33.359,54.594 -42.785,107.781 5.316,-19.058 11.578,-35.808 19.75,-51.695 -0.582,-0.324 -1.164,-0.668 -1.731,-1.02 0.942,-0.351 1.875,-0.695 2.801,-1.035 4.996,-9.472 10.692,-18.656 17.293,-27.859 -1.094,-0.184 -1.094,-0.184 -1.094,-0.184 0,0 1.512,-2.082 4.832,-4.906 6.551,-8.703 13.95,-17.484 22.356,-26.59 -5.699,-0.91 -5.027,-1.461 -5.027,-1.461 0,0 4.168,-2.152 11.293,-5.191 6.765,-7.051 14.148,-14.332 22.21,-21.953 -6.105,0.754 -9.312,1.726 -10.996,2.547 -1.238,1.062 -1.851,1.668 -1.851,1.668 0,0 -0.051,-0.739 1.851,-1.668 3.594,-3.079 12.446,-9.993 26.735,-17.079 8.14,-7.363 16.883,-15.062 26.301,-23.199 -1.356,-0.179 -2.676,-0.39 -3.961,-0.636 4.015,-2.137 8.015,-4.231 11.988,-6.262 1.008,-0.867 2.027,-1.738 3.051,-2.613 4.988,-4.219 10.078,-8.34 15.382,-12.129" /><path
         id="path112"
         style="fill:#e7dec4;fill-opacity:1;fill-rule:nonzero;stroke:none"
         d="m 664.551,484.5 c -2.25,0 -4.559,0.043 -6.926,0.137 2.355,-0.094 4.656,-0.137 6.895,-0.137 27.238,0 45.953,6.684 56.589,18.199 l 0.153,0.074 C 710.555,491.199 691.816,484.5 664.551,484.5 m -103.879,37.031 c -42.387,7.992 -94.348,22.176 -98.84,23.383 v 0 l -0.328,0.106 c -82.328,37.804 -95,60.226 -143.09,129.335 l -0.332,0.438 v 0 c -1.516,2.168 -3.141,4.437 -4.762,6.82 40.293,-49.504 84.922,-81.457 123.16,-100.304 v 0 c 37.567,-28.051 81.883,-47.887 124.192,-59.778" /><path
         id="path114"
         style="fill:#3e658a;fill-opacity:1;fill-rule:nonzero;stroke:none"
         d="m 664.52,484.5 c -2.239,0 -4.54,0.043 -6.895,0.137 v 0 c -22.355,0.871 -49.91,5.906 -82.922,15.968 v 0 c -18.961,5.743 -39.863,13.215 -62.5,22.532 -19.281,7.91 -35.969,15.058 -50.371,21.777 v 0 c 4.492,-1.207 56.453,-15.391 98.84,-23.383 31.379,-8.816 61.656,-13.265 87.258,-13.453 h 0.105 v 0 c 2.707,-1.074 5.317,-2.168 7.91,-3.137 14.418,-5.363 27.895,-8.574 39.192,-8.574 6.269,0 11.875,0.992 16.593,3.156 l 9.098,3.036 0.281,0.14 C 710.473,491.184 691.758,484.5 664.52,484.5" /><path
         id="path116"
         style="fill:#954b26;fill-opacity:1;fill-rule:nonzero;stroke:none"
         d="m 695.137,496.367 c -11.297,0 -24.774,3.211 -39.192,8.574 -2.593,0.969 -5.203,2.063 -7.91,3.137 0.621,-0.004 1.238,-0.008 1.852,-0.008 25.363,0 45.886,4.336 58.16,12.899 4.226,2.929 7.469,6.504 9.851,10.617 12.895,21.227 4.551,56.109 -5.515,83.082 l 0.32,-0.539 c 9.641,-13.649 16.25,-26.539 19.61,-38.777 0.429,-1.512 0.871,-3.141 1.195,-4.657 2.457,-9.754 4.281,-20.644 4.281,-30.961 0.004,-2.418 -0.098,-4.8 -0.312,-7.132 -1.168,-12.704 -5.754,-23.825 -16.215,-29.829 v 0 l -0.153,-0.074 -0.281,-0.14 -9.098,-3.036 c -4.718,-2.164 -10.324,-3.156 -16.593,-3.156" /><path
         id="path118"
         style="fill:#824624;fill-opacity:1;fill-rule:nonzero;stroke:none"
         d="m 332.43,765.906 c -13.586,0 -31.024,3.461 -52.219,14.391 3,0.34 7.098,0.484 11.891,0.484 26.906,0 75.73,-4.574 75.73,-4.574 0,0 -11.965,-10.301 -35.402,-10.301" /><path
         id="path120"
         style="fill:#824624;fill-opacity:1;fill-rule:nonzero;stroke:none"
         d="m 431.941,642.848 c -34.687,0.004 -69.015,12.468 -86.171,19.785 -2.153,2.242 -4.235,4.457 -6.266,6.652 5.926,0.949 18.742,2.293 46.363,3.82 3.196,0.18 6.328,0.262 9.399,0.262 49.105,0 82.449,-21.222 82.449,-21.222 -14.301,-6.743 -30.07,-9.297 -45.774,-9.297" /><path
         id="path122"
         style="fill:#7b4221;fill-opacity:1;fill-rule:nonzero;stroke:none"
         d="m 345.77,662.633 c -7.125,3.039 -11.293,5.191 -11.293,5.191 0,0 -0.672,0.551 5.027,1.461 2.031,-2.195 4.113,-4.41 6.266,-6.652" /><path
         id="path124"
         style="fill:#824624;fill-opacity:1;fill-rule:nonzero;stroke:none"
         d="m 479.863,605.387 c -43.722,0.004 -75.578,10.562 -96.144,20.761 -5.52,4.993 -10.762,9.829 -15.739,14.532 5.797,-0.715 14.211,-1.231 26.418,-1.231 103.43,0 119.606,-32.015 119.606,-32.015 -12.098,-1.418 -23.465,-2.047 -34.141,-2.047" /><path
         id="path126"
         style="fill:#7b4221;fill-opacity:1;fill-rule:nonzero;stroke:none"
         d="m 383.719,626.148 c -14.289,7.086 -23.141,14 -26.735,17.079 1.684,-0.821 4.891,-1.793 10.996,-2.547 4.977,-4.703 10.219,-9.539 15.739,-14.532 m -26.735,17.079 c -1.902,0.929 -1.851,1.668 -1.851,1.668 0,0 0.613,-0.606 1.851,-1.668" /><path
         id="path128"
         style="fill:#824624;fill-opacity:1;fill-rule:nonzero;stroke:none"
         d="m 495.676,569.355 c -20.481,0.004 -48.25,11.653 -77.629,26.696 -2.731,2.332 -5.406,4.633 -8.027,6.898 4.3,0.578 8.933,0.836 13.785,0.836 41.957,0 100.148,-19.398 98.691,-21.637 -5.902,-9.031 -15.183,-12.793 -26.82,-12.793" /><path
         id="path130"
         style="fill:#7b4221;fill-opacity:1;fill-rule:nonzero;stroke:none"
         d="m 418.047,596.051 c -3.973,2.031 -7.973,4.125 -11.988,6.262 1.285,0.246 2.605,0.457 3.961,0.636 2.621,-2.265 5.296,-4.566 8.027,-6.898" /><path
         id="path132"
         style="fill:#824624;fill-opacity:1;fill-rule:nonzero;stroke:none"
         d="m 365.133,680.613 c -25.891,0.004 -40.969,9.293 -47.985,15.262 -1.277,1.699 -2.519,3.391 -3.738,5.09 2.219,0.359 8.934,1.461 29.227,4.785 3.746,0.613 7.797,0.879 12.019,0.879 29.981,0 68.688,-13.524 68.688,-13.524 -23.614,-9.21 -42.821,-12.492 -58.211,-12.492" /><path
         id="path134"
         style="fill:#7b4221;fill-opacity:1;fill-rule:nonzero;stroke:none"
         d="m 317.148,695.875 c -3.32,2.824 -4.832,4.906 -4.832,4.906 0,0 0,0 1.094,0.184 1.219,-1.699 2.461,-3.391 3.738,-5.09" /><path
         id="path136"
         style="fill:#824624;fill-opacity:1;fill-rule:nonzero;stroke:none"
         d="m 364.918,712.488 c -17.316,0.004 -40.305,5.879 -68.801,16.336 -0.359,0.684 -0.715,1.367 -1.07,2.055 9.297,5.184 20.508,7.098 32,7.098 28.047,0 57.75,-11.407 65.226,-14.473 1.161,-0.477 1.79,-0.754 1.79,-0.754 -6.543,-7.02 -16.278,-10.262 -29.145,-10.262" /><path
         id="path138"
         style="fill:#7b4221;fill-opacity:1;fill-rule:nonzero;stroke:none"
         d="m 296.117,728.824 c -0.926,0.34 -1.859,0.684 -2.801,1.035 0.567,0.352 1.149,0.696 1.731,1.02 0.355,-0.688 0.711,-1.371 1.07,-2.055" /><path
         id="path140"
         style="fill:#824624;fill-opacity:1;fill-rule:nonzero;stroke:none"
         d="m 331.012,747.211 c -11.254,0 -24.957,1.047 -41.324,3.297 12.57,11.633 39.453,14.226 59.242,14.226 13.609,0 23.867,-1.226 23.8,-1.589 -1.753,-9.879 -14.652,-15.934 -41.718,-15.934" /><path
         id="path142"
         style="fill:#a3582e;fill-opacity:1;fill-rule:nonzero;stroke:none"
         d="m 620.328,691.586 c -57.348,0.004 -97.137,28.539 -113.785,55.625 81.008,-10.523 121.57,-55.449 121.57,-55.449 -2.633,-0.117 -5.222,-0.176 -7.785,-0.176" /><path
         id="path144"
         style="fill:#a3582e;fill-opacity:1;fill-rule:nonzero;stroke:none"
         d="m 623.406,553.762 c -43.004,0.004 -56.14,27.039 -56.14,27.039 0,0 0,0 42.425,-0.196 42.426,-0.183 66.688,-16.054 66.688,-16.054 -21.316,-7.84 -38.77,-10.789 -52.973,-10.789" /><path
         id="path146"
         style="fill:#a3582e;fill-opacity:1;fill-rule:nonzero;stroke:none"
         d="m 675.039,528.207 c -9.953,0 -22.949,4.273 -44.59,11.981 24.239,11.082 86.211,18.046 86.211,18.046 -19.027,-20.902 -27.074,-30.031 -41.621,-30.027" /><path
         id="path148"
         style="fill:#a3582e;fill-opacity:1;fill-rule:nonzero;stroke:none"
         d="m 486.711,734.289 c -14.949,0 -70.094,2.57 -99.754,39.059 4.852,0.297 9.473,0.437 13.895,0.437 74.011,0 89.679,-39.43 89.679,-39.43 0,0 -1.367,-0.066 -3.82,-0.066" /><path
         id="path150"
         style="fill:#a3582e;fill-opacity:1;fill-rule:nonzero;stroke:none"
         d="m 512.961,681.598 c -20.211,0.004 -47.219,5.265 -74.215,26.382 10.727,2.934 21.055,4.133 30.801,4.133 44.68,0 76.871,-25.32 76.871,-25.32 0,0 -13.371,-5.195 -33.457,-5.195" /><path
         id="path152"
         style="fill:#a3582e;fill-opacity:1;fill-rule:nonzero;stroke:none"
         d="m 568.383,628.875 c -22.879,0 -41.528,11.137 -63.25,29.238 10.988,1.903 21.828,2.684 32.211,2.684 46.898,0 84.472,-15.902 84.472,-15.902 -21.117,-11.09 -38.211,-16.02 -53.433,-16.02" /><path
         id="path154"
         style="fill:#a3582e;fill-opacity:1;fill-rule:nonzero;stroke:none"
         d="m 592.512,595.691 c -20.051,0 -40.657,4.387 -59.324,9.7 18.953,10.738 41.152,13.957 60.972,13.957 29.738,0 54.121,-7.25 54.121,-7.25 -16.426,-12.071 -35.824,-16.407 -55.769,-16.407" /><path
         id="path156"
         style="fill:#a06e55;fill-opacity:1;fill-rule:nonzero;stroke:none"
         d="m 781.121,550.281 c -6.113,0.16 -12.223,0.77 -18.301,1.758 -0.183,1.262 -0.375,2.574 -0.574,3.938 -7.676,47.843 20.762,56.121 20.762,56.121 12.125,-16.012 6.062,-41.797 -1.887,-61.817" /><path
         id="path158"
         style="fill:#98664c;fill-opacity:1;fill-rule:nonzero;stroke:none"
         d="m 766.758,521.223 c 0,0 0,3.711 -3.938,30.816 6.078,-0.988 12.188,-1.598 18.301,-1.758 -6.543,-16.48 -14.363,-29.058 -14.363,-29.058" /><path
         id="path160"
         style="fill:#a06e55;fill-opacity:1;fill-rule:nonzero;stroke:none"
         d="m 831.957,560.773 c -0.398,17.844 10.633,28.684 10.633,28.684 4.883,-2.508 7.254,-9.41 7.629,-17.598 -5.016,-4.019 -11.039,-7.769 -18.262,-11.086" /><path
         id="path162"
         style="fill:#98664c;fill-opacity:1;fill-rule:nonzero;stroke:none"
         d="m 839.426,536.113 c -5.305,9.188 -7.309,17.489 -7.469,24.66 7.223,3.317 13.246,7.067 18.262,11.086 0.586,-12.722 -3.653,-28.543 -10.793,-35.746" /><path
         id="path164"
         style="fill:#a06e55;fill-opacity:1;fill-rule:nonzero;stroke:none"
         d="m 808.73,593.438 c -15.339,21.218 -8.125,35.437 -8.125,35.437 2.102,1.02 3.922,1.488 5.485,1.488 10.527,0 9.324,-21.203 2.64,-36.925" /><path
         id="path166"
         style="fill:#98664c;fill-opacity:1;fill-rule:nonzero;stroke:none"
         d="m 775.398,454.426 c 10,30.691 27.922,47.39 27.922,47.39 21.211,-23.925 -11.738,-43.328 -27.922,-47.39" /><path
         id="path168"
         style="fill:#9f6e55;fill-opacity:1;fill-rule:nonzero;stroke:none"
         d="m 682.156,696.742 c -4.215,0.477 -8.945,1.801 -14.246,4.117 2.469,4.032 6.848,6.676 11.832,8.395 0.574,-4.766 1.574,-9.27 2.414,-12.512" /><path
         id="path170"
         style="fill:#a06e55;fill-opacity:1;fill-rule:nonzero;stroke:none"
         d="m 685.68,696.539 c -1.133,0 -2.305,0.066 -3.524,0.203 -0.84,3.242 -1.84,7.746 -2.414,12.512 2.363,0.816 4.863,1.426 7.363,1.875 1.344,-4.402 3.477,-8.891 6.329,-13.383 -2.336,-0.785 -4.914,-1.207 -7.754,-1.207" /><path
         id="path172"
         style="fill:#f9f2e4;fill-opacity:1;fill-rule:nonzero;stroke:none"
         d="m 693.434,697.746 c -2.852,4.492 -4.985,8.981 -6.329,13.383 5.372,0.969 10.723,1.203 14.672,1.203 3.774,0 6.27,-0.215 6.27,-0.215 -3.227,-6.887 -7.93,-12.121 -14.613,-14.371" /><path
         id="path174"
         style="fill:#f57d23;fill-opacity:1;fill-rule:nonzero;stroke:none"
         d="m 1011.24,659.52 -0.43,-1.735 v -0.215 c 0.32,-9.429 -42.138,-34.121 -81.787,-10.941 -39.753,23.289 -77.773,75.176 -77.773,75.176 0,0 -7.473,12.347 -6.602,13.539 0.86,1.191 13.536,8.668 14.407,11.265 0.855,2.493 -4.66,31.629 -1.196,29.465 0,0 3.032,-1.41 7.043,-3.144 -4.336,-15.707 -4.121,-29.789 5.196,-38.563 10.722,-10.074 19.609,-19.172 26.543,-26.644 13.972,-15.059 19.929,-24.047 16.347,-24.047 -0.644,0 -0.754,-0.653 -0.539,-1.844 1.848,-8.883 28.711,-46.684 71.821,-35.312 5.742,2.382 10.183,4.55 13.652,6.714 4.338,2.711 6.928,5.414 7.908,8.34 2.17,5.418 -1.42,11.485 -8.994,20.039 11.374,-10.398 14.194,-16.351 14.404,-22.093" /><path
         id="path176"
         style="fill:#f36919;fill-opacity:1;fill-rule:nonzero;stroke:none"
         d="m 577.191,286.672 c -5.414,1.297 -13.32,3.894 -22.961,8.664 -8.234,4.121 -15.925,3.355 -21.882,1.297 -22.098,29.793 -34.989,44.953 -34.989,44.953 0,0 5.414,6.07 40.297,-12.238 24.157,-12.559 32.824,-30.118 39.535,-42.676" /><path
         id="path178"
         style="fill:#f36919;fill-opacity:1;fill-rule:nonzero;stroke:none"
         d="m 606.008,326.965 -17.332,-5.633 -1.297,-13.75 c -21.664,21.012 -47.02,49.82 -39.434,51.883 6.496,1.726 34.883,-16.465 58.063,-32.5" /></g></g></svg>
