<?xml version="1.0" encoding="UTF-8" standalone="no"?>
<svg
   xmlns:dc="http://purl.org/dc/elements/1.1/"
   xmlns:cc="http://creativecommons.org/ns#"
   xmlns:rdf="http://www.w3.org/1999/02/22-rdf-syntax-ns#"
   xmlns:svg="http://www.w3.org/2000/svg"
   xmlns="http://www.w3.org/2000/svg"
   xmlns:sodipodi="http://sodipodi.sourceforge.net/DTD/sodipodi-0.dtd"
   xmlns:inkscape="http://www.inkscape.org/namespaces/inkscape"
   version="1.1"
   id="Capa_1"
   x="0px"
   y="0px"
   viewBox="0 0 512 512"
   enable-background="new 0 0 2800 1555"
   xml:space="preserve"
   sodipodi:docname="Mountain Goat.svg"
   width="512"
   height="512"
   inkscape:version="1.0.2 (e86c870879, 2021-01-15, custom)"><metadata
   id="metadata81085"><rdf:RDF><cc:Work
       rdf:about=""><dc:format>image/svg+xml</dc:format><dc:type
         rdf:resource="http://purl.org/dc/dcmitype/StillImage" /><dc:title></dc:title></cc:Work></rdf:RDF></metadata><defs
   id="defs81083" /><sodipodi:namedview
   pagecolor="#ffffff"
   bordercolor="#666666"
   borderopacity="1"
   objecttolerance="10"
   gridtolerance="10"
   guidetolerance="10"
   inkscape:pageopacity="0"
   inkscape:pageshadow="2"
   inkscape:window-width="1366"
   inkscape:window-height="715"
   id="namedview81081"
   showgrid="false"
   inkscape:zoom="0.99677046"
   inkscape:cx="259.14834"
   inkscape:cy="245.54225"
   inkscape:window-x="-8"
   inkscape:window-y="-8"
   inkscape:window-maximized="1"
   inkscape:current-layer="Capa_1" />






































































<g
   id="g81158"
   transform="matrix(0.22589645,0,0,0.22589645,-26.303197,70.539015)"><path
     fill="#d8cbc0"
     d="m 1818.8,1291.7 c 233.2,0 357.1,-76.1 271,-160.3 L 1841,886.9 c -15.8,-15.4 -43.7,-15.8 -60,-0.8 l -41.2,38 c -16.5,15.3 -45,14.6 -60.6,-1.4 L 1146.7,377.4 c -12.2,-12.5 -34.8,-12.4 -46.8,0.3 l -630.8,666.1 c -10,10.6 -28.8,10.7 -39,0.3 l -13.6,-13.9 c -10.3,-10.5 -29.4,-10.3 -39.3,0.6 l -35,38.4 c -77,84.5 -18.6,220.3 95.7,222.5 z"
     id="path80944" /><path
     fill="#2d3130"
     d="m 143.3,1282.7 c 1.7,0 2.4,-1.4 3.4,-2.4 5.1,-5.5 10.1,-11.1 15.2,-16.7 70.6,-77.5 141.1,-155 211.7,-232.4 1.4,-1.5 2.8,-3.1 4.2,-4.6 11.2,-11.4 30.5,-11.8 42.1,-0.7 4.7,4.6 9.2,9.4 13.8,14 7.3,7.2 16,8.9 25.7,6.1 3.8,-1.1 7,-3 9.7,-5.9 3,-3.1 6,-6.2 8.9,-9.4 42.2,-44.6 84.5,-89.2 126.7,-133.8 0.8,-0.8 2.3,-2.5 2.3,-2.5 l 6.1,-6.5 c 0,0 2.5,-2.5 3.7,-3.8 L 831.6,657.3 c 86.6,-91.4 173.1,-182.8 259.7,-274.2 2.8,-2.9 5.5,-5.8 8.3,-8.7 7.4,-7.9 16.5,-11.2 27.1,-10.9 9.7,0.2 18,3.8 24.8,10.8 15.7,16.2 31.5,32.3 47.3,48.4 l 62.4,63.9 c 21.1,21.6 42.2,43.3 63.4,64.9 20.6,21.1 41.1,42.1 61.7,63.2 l 62.7,64.2 c 1.8,1.8 3.7,3.6 5.3,5.5 1.6,1.9 3.5,2.5 5.9,2.5 9.6,-0.2 19.2,-0.3 28.8,-0.3 21.1,0 42.2,0.5 63.3,1.5 2.6,0.1 5.1,0.2 7.7,0.2 1.2,0 1.8,-0.6 1.9,-1.7 0.1,-1 0.1,-1.9 0.1,-2.9 0.2,-14.4 0.5,-28.8 0.7,-43.2 l 1.5,-76.8 c 0.4,-23.4 0.8,-46.7 1.2,-70.1 0.1,-5.3 1,-10.5 2.6,-15.6 0.4,-1.2 0.8,-2.4 1.1,-3.7 0.2,-0.7 -0.3,-1.3 -1,-1.2 -2.4,0.4 -4.7,0.9 -7.1,1.3 -7.8,1.1 -15.7,1.2 -23.3,-0.8 -12.4,-3.2 -21.7,-10.6 -27.8,-21.9 -4.8,-8.9 -7.9,-18.5 -9.6,-28.5 -1,-6.3 -1.4,-12.7 -0.2,-19.1 0.2,-1.3 0.4,-2.5 1.1,-3.7 0.7,-1.2 2.2,-1.6 3.3,-0.8 1.1,0.9 2.1,1.9 3.2,2.9 l 56.7,56.7 c 1,1 2,2 3.1,3 0.2,0.2 0.6,0.2 0.9,0.1 0.2,-0.1 0.4,-0.5 0.5,-0.7 0.1,-0.3 0,-0.6 0,-1 -1,-15.5 -2,-31 -3,-46.4 -0.3,-4.3 -0.1,-8.6 -1.2,-12.9 -0.5,-1.9 0.1,-4.1 0,-6.2 -0.8,-13.2 -1.6,-26.5 -3,-39.7 -0.2,-1.6 -0.5,-3.2 -0.8,-4.7 -1.6,-7.6 -6.1,-12.9 -13.1,-16.1 -5,-2.3 -10.4,-3.3 -15.8,-3.7 -17.1,-1.3 -34.2,-1.5 -51.3,-0.8 -14.9,0.5 -29.7,1.7 -44.3,4.6 -7.9,1.5 -15.6,3.6 -23,6.6 -11.4,4.6 -19.4,12.6 -24.7,23.6 -3.5,7.3 -5.5,15 -6.3,23 -1.2,11.5 -0.6,23 2.7,34.2 1.4,4.6 3.1,9.1 5.7,13.2 1.5,2.5 3.3,4.7 5.6,6.5 5.6,4.5 12.5,4.4 17.9,-0.4 2.5,-2.1 4.1,-4.8 5.5,-7.8 2.4,-5.1 3.8,-10.5 4.6,-16.1 1.3,-8.4 1.8,-16.8 1.4,-25.3 -0.1,-1.1 -0.1,-2.2 0,-3.4 0.1,-1.5 0.9,-2.4 2.5,-2.4 5.6,-0.1 11.2,0 16.8,0 1.5,0 2.4,0.9 2.7,2.3 0.4,1.9 0.8,3.8 1.1,5.7 2.1,14.2 2.5,28.3 -0.5,42.5 -1.2,5.7 -3,11.1 -5.7,16.2 -5.9,11.4 -14.9,19.1 -27.1,22.9 -11.9,3.7 -23.9,3.9 -36,0.9 -5.5,-1.4 -10.5,-3.9 -15.1,-7 -1.3,-0.9 -2.7,-1.7 -4,-2.6 -0.5,-0.3 -1.1,-0.7 -1.5,-1.1 -5.5,-6.5 -10.9,-12.9 -14.7,-20.6 -4.5,-9.3 -7.7,-18.9 -10,-29 -2.5,-11.1 -4,-22.3 -5,-33.7 -1.1,-14.2 -1.5,-28.4 -1.4,-42.7 0,-7.7 0.2,-15.4 0.6,-23 0.4,-7.9 2,-15.5 4.7,-22.9 3.4,-9.2 8.7,-17 16,-23.6 10.9,-9.7 23.7,-15.5 37.9,-18.5 3.3,-0.7 6.6,-1.2 9.9,-1.7 3.3,-0.5 6.5,-1 9.8,-1.2 12.3,-0.6 24.6,-1.9 36.9,-2.5 13.9,-0.8 27.8,-1.3 41.7,-1.4 15.7,-0.1 31.4,0 47,1.1 17.6,1.2 35.1,3 52.1,7.5 4.2,1.1 8.3,2.5 12.3,4 13.9,5.4 23.5,15.1 29.5,28.6 3.2,7.2 5.1,14.8 6.2,22.6 0,0.3 0,0.7 0.1,1 1.7,5 0.8,10.1 0.8,15.1 v 105.6 c 0,5 -0.3,4.7 4.7,4.7 h 14.9 c 1.9,0 2.3,-0.4 2.3,-2.2 0.1,-1.1 0,-2.2 0,-3.4 v -98.4 c 0,-5.1 0.2,-10.2 -0.5,-15.3 -0.1,-0.5 -0.2,-1 0,-1.4 1.7,-4.5 1.6,-9.4 2.8,-14.1 1.6,-6.2 3.5,-12.3 6.5,-18 5.8,-11 14.3,-19.1 25.8,-24 8.4,-3.6 17.2,-5.9 26.2,-7.5 15.1,-2.8 30.4,-4.2 45.7,-5 19.3,-1.1 38.7,-1 58.1,-0.5 16.9,0.5 33.9,1.5 50.8,2.7 5.1,0.4 10.1,1.3 15.3,0.9 1.9,-0.2 3.6,1 5.6,1.2 6,0.7 12,1.8 17.8,3.6 10,3.1 19.3,7.7 27.5,14.3 10.9,8.8 17.7,20 21,33.5 1.8,7.2 2.7,14.5 2.8,21.9 0.1,13.3 0.3,26.6 -0.1,39.8 -0.5,17 -1.9,33.9 -5.5,50.5 -2.2,10 -5.1,19.8 -9.5,29.1 -3.4,7.1 -7.4,13.8 -13,19.4 -1.6,1.5 -2.4,3.5 -4.5,4.8 -6.1,3.9 -12.1,7.8 -19.2,9.5 -13.3,3.2 -26.4,2.7 -39.1,-2.2 -11.6,-4.5 -19.7,-12.9 -24.8,-24.1 -3.1,-6.9 -4.9,-14.2 -5.8,-21.7 -1.6,-12.2 -0.9,-24.3 1.2,-36.3 1.1,-6.5 0.7,-6.3 7.2,-6.2 4,0 8,-0.1 12,0 3,0.1 3.5,0.7 3.5,3.8 0,1.9 -0.1,3.8 -0.1,5.8 -0.1,9.6 0.6,19.2 3,28.6 0.9,3.7 2.2,7.4 4,10.8 1.5,2.7 3.3,5.1 5.8,7 5.2,3.8 11.3,3.8 16.4,-0.1 2.8,-2.2 4.9,-5 6.7,-8.1 2.9,-5 4.7,-10.5 6,-16.1 3.4,-15 3,-29.8 -1.4,-44.6 -1.7,-5.5 -4.1,-10.8 -7.3,-15.6 -4.3,-6.4 -9.8,-11.3 -16.7,-14.8 -6.9,-3.5 -14.3,-5.7 -21.8,-7.3 -12.4,-2.7 -24.9,-4.1 -37.5,-5 -14.7,-1 -29.4,-1.1 -44.1,-0.8 -8.5,0.2 -16.9,0.5 -25.3,1.8 -3.2,0.5 -6.2,1.4 -9.2,2.6 -7.9,3.3 -12.5,9.2 -13.9,17.6 -0.8,4.9 -1.3,9.8 -1.7,14.8 -0.5,6.1 -0.8,12.1 -1.2,18.2 -0.2,3.2 -0.8,6.4 -0.7,9.6 0.2,5.1 -0.7,10.1 -1,15.2 -1,15.3 -2,30.6 -2.9,46 -0.1,1.9 -0.2,3.8 -0.2,5.8 0,0.3 0.2,0.6 0.4,0.7 0.2,0.1 0.7,0.1 0.9,-0.1 1.1,-1 2.1,-1.9 3.1,-3 l 56.3,-56.3 c 1,-1 2,-2.1 3.1,-3 1.4,-1.2 3.3,-0.7 3.9,1 0.8,2.4 1.2,5 1.3,7.5 0.3,6.4 -0.2,12.8 -1.6,19.1 -1.7,7.5 -4.1,14.8 -7.5,21.7 -6,12.5 -15.6,20.9 -29.2,24.4 -7.5,1.9 -15.2,1.8 -22.9,0.9 -1.4,-0.2 -2.8,-0.4 -4.3,-0.6 -0.8,-0.1 -1.1,0.5 -1,1.2 0.1,0.6 0.3,1.2 0.5,1.8 2.2,6.4 2.9,13.1 2.9,19.8 v 124.8 157 c 0,6.1 0.5,12.2 0.4,18.2 -0.2,13.2 -2.3,26.1 -7.3,38.4 -5.7,14.1 -14.7,25.4 -28.3,32.7 -0.3,0.2 -0.5,0.3 -0.8,0.5 -1.4,0.6 -1.8,1.7 -1.8,3.1 v 2.9 43.7 c 0,0.5 0.1,1 0,1.4 -0.5,2.7 1,4.1 3.1,5.2 4.5,2.5 9.3,4.3 14.4,5 9.4,1.3 18.5,0.1 27,-4.5 3.3,-1.8 6.1,-4 8.9,-6.5 13.2,-12.2 26.4,-24.3 39.5,-36.4 5.4,-5 11.6,-8.6 18.7,-10.3 17.5,-4.2 33.3,-1 46.5,11.9 29.8,29.2 59.7,58.4 89.5,87.6 l 89.1,87.3 c 11.1,10.9 22.2,21.7 33.3,32.5 0.6,0.6 1.8,1.6 1.8,1.6 l 5.7,5.9 c 0,0 8,7.8 12,11.8 16.3,16 32.7,32 49.1,48 20.2,19.8 40.5,39.6 60.7,59.4 19.9,19.5 39.8,39 59.7,58.4 l 43.2,42.3 c 1.9,1.9 3.9,3.8 5.7,5.8 0.9,1 0.8,2.1 0.1,3.1 -0.8,1.1 -2.2,1.3 -3.4,0.4 -0.9,-0.7 -1.7,-1.5 -2.5,-2.2 -29.4,-28.8 -58.7,-57.5 -88.1,-86.3 -30.6,-30 -61.3,-60 -91.9,-90 -37.2,-36.4 -74.3,-72.7 -111.5,-109.1 -23.9,-23.4 -47.8,-46.8 -71.6,-70.2 -28.2,-27.6 -56.6,-55.1 -84.7,-83 -15.4,-15.3 -42.3,-15.7 -57.9,-1.1 -13.2,12.4 -26.6,24.5 -39.8,36.8 -6.1,5.7 -13.2,9.5 -21.4,11.2 -10.5,2.2 -20.7,1.4 -30.5,-2.9 -0.7,-0.3 -1.4,-0.7 -2.2,-1 -1.8,-0.8 -2.3,-0.5 -2.4,1.4 v 4.8 242.9 c 0,1.6 0,3.2 -0.1,4.8 -0.1,1.6 -0.8,2.3 -2.4,2.4 -1.1,0.1 -2.2,0.1 -3.4,0.1 h -17.8 -1.9 c -3.2,-0.1 -3.6,-0.4 -4.1,-3.4 -0.3,-1.6 -0.6,-3.1 -0.8,-4.7 -3.5,-21.9 -7,-43.9 -10.4,-65.8 -3,-19.3 -6,-38.5 -9.1,-57.8 -3.3,-21.2 -6.8,-42.3 -10.1,-63.5 -2.6,-16.3 -5.2,-32.5 -7.7,-48.8 -1,-6.5 -1.5,-13 -2.2,-19.5 -1.3,-12.1 -2.7,-24.2 -4,-36.2 0,-0.3 -0.3,-0.5 -0.4,-0.8 -0.1,0.3 -0.3,0.5 -0.3,0.8 -0.1,2.6 -0.2,5.1 -0.2,7.7 v 162.7 122.9 c 0,6.7 0.1,6.7 -6.5,6.6 h -16.8 -3.4 c -1.9,-0.1 -2.6,-0.6 -2.9,-2.5 -1,-5.3 -1.9,-10.7 -2.8,-16.1 -2.7,-16.2 -5.5,-32.5 -8.2,-48.7 -2.8,-16.4 -5.5,-32.8 -8.3,-49.2 -3,-17.8 -6.1,-35.6 -9.1,-53.4 -2.7,-16.2 -5.5,-32.5 -8.2,-48.7 -1.4,-8 -2.6,-16.1 -4.1,-24.1 -0.8,-4.3 -0.8,-8.6 -1.2,-12.9 -0.9,-10 -1.5,-20.1 -2.3,-30.1 -0.6,-7.3 -1.2,-14.7 -1.8,-22 -0.2,-2.2 -0.5,-2.5 -2.6,-2.5 l -36,-0.9 h -1 c -1.1,0.1 -1.5,0.5 -1.3,1.5 0.2,0.8 0.4,1.6 0.6,2.3 4.1,12.3 6.8,25 7.9,38 1.7,21.1 -1.1,41.5 -11,60.5 -2.8,5.4 -6.1,10.5 -9.9,15.2 -7.4,9.1 -15.7,17.3 -25,24.4 -5.5,4.2 -11.5,7.6 -17.7,10.6 -2,1 -4,1.9 -6,3 -7,3.6 -9.2,11.9 -6.1,18.4 8.8,18.3 17.2,36.8 25.7,55.2 7.7,16.5 15.4,33.1 23,49.6 0.6,1.3 1.2,2.6 1.6,4 0.5,1.5 -0.5,2.9 -2,3.2 -0.9,0.1 -1.9,0.1 -2.9,0.1 -8.2,0 -16.3,-0.1 -24.5,0.1 -3.1,0.1 -5,-0.9 -6.5,-3.6 -7.1,-12.1 -14.5,-24.1 -21.8,-36.2 -15.3,-25.3 -30.6,-50.7 -45.9,-76 -2.2,-3.6 -3.8,-7.4 -4.3,-11.6 -0.5,-3.7 0,-7.3 0.9,-10.9 0.6,-2.4 1.9,-4.4 3.4,-6.3 4.3,-5.2 8.3,-10.6 12.7,-15.6 3.9,-4.5 6.2,-9.6 7.5,-15.3 1.2,-5.3 1.9,-10.7 1.5,-16.2 -0.1,-0.9 -0.2,-1.9 -0.4,-2.8 -0.1,-0.3 -0.4,-0.6 -0.6,-0.7 -0.2,-0.1 -0.6,0.2 -0.7,0.4 -0.6,1.1 -1.1,2.3 -1.6,3.5 -7.2,16.5 -18.3,29.9 -32.3,41.1 -7.7,6.1 -16.4,9.9 -26,11.8 -1.3,0.2 -2.5,0.5 -3.7,0.8 -5.2,1.4 -8.1,4.9 -8.7,10.2 -0.4,3 0.3,5.7 1.4,8.4 5.2,12.6 10.3,25.1 15.5,37.7 8.8,21.3 17.5,42.6 26.3,63.9 0.6,1.5 1.2,3 1.6,4.5 0.3,1.1 -0.6,2.3 -1.7,2.5 -0.9,0.1 -1.9,0.2 -2.9,0.2 -8.5,0 -17,-0.1 -25.4,0.1 -3,0.1 -4.6,-1.1 -6,-3.6 -9.5,-17.4 -19.2,-34.7 -28.8,-52 -10.7,-19.3 -21.4,-38.6 -32.2,-57.8 -2.6,-4.7 -4.2,-9.6 -4,-15.1 0.1,-1.8 0.4,-3.5 0.7,-5.2 0.7,-3.4 2.4,-6.1 5.2,-8.2 5.5,-4.1 10.7,-8.7 16.2,-12.8 2.5,-1.8 3.8,-4.1 4.7,-7 2.3,-7.4 2.2,-14.8 0.6,-22.3 -1.1,-5.5 -2.8,-10.8 -5.5,-15.8 -7,-13.1 -13.7,-26.4 -20.8,-39.5 -5.3,-9.8 -9.3,-20 -12.7,-30.5 -5.2,-16 -9.1,-32.3 -11.1,-49 -0.8,-6.5 -1.4,-13 -1.4,-19.6 v -5.8 c 0,-3.6 0.1,-4.1 -3.6,-2.8 -12.9,4.3 -25.9,3.3 -38.7,-0.4 -3.1,-0.9 -6,-2.1 -9,-3.3 -1.9,-0.8 -2.2,-2.9 -0.8,-4.3 0.9,-0.9 1.9,-1.7 2.9,-2.5 23.8,-19.2 47.6,-38.4 71.3,-57.6 2.2,-1.8 4.4,-3.7 6.4,-5.8 11.1,-11.2 24.4,-19.1 39,-24.7 10,-3.9 20.4,-6.5 30.9,-8.6 14,-2.8 28.1,-4.7 42.2,-6.1 20.1,-2 40.2,-3.2 60.3,-3.8 1.2,0 3,0.5 3.6,-0.6 0.8,-1.6 -1.1,-2.4 -2.1,-3.3 -17.6,-18.1 -35.3,-36.2 -52.9,-54.3 -22.7,-23.2 -45.4,-46.5 -68.1,-69.7 -19,-19.5 -38,-38.9 -57,-58.4 l -62.7,-64.2 c -19.2,-19.7 -38.5,-39.3 -57.7,-59.1 -6.4,-6.6 -14.2,-9.5 -23.3,-9.2 -8.2,0.3 -15.2,3.2 -20.9,9.2 -9.3,9.9 -18.7,19.8 -28,29.6 C 974.7,513.7 874.2,619.9 773.6,726 689.8,814.5 606,903 522.1,991.5 c -15.9,16.8 -31.9,33.7 -47.8,50.6 -4.9,5.2 -10.6,8.7 -17.7,9.8 -9.9,1.5 -18.8,-0.8 -26.1,-7.8 -4.6,-4.5 -8.9,-9.2 -13.5,-13.7 -7.7,-7.6 -16.9,-9.1 -27,-5.8 -3.9,1.3 -7,3.7 -9.8,6.7 -9.6,10.6 -19.2,21.1 -28.8,31.6 -44.4,48.7 -88.8,97.5 -133.2,146.2 -22.1,24.2 -44.2,48.5 -66.3,72.7 -1,1.1 -1.9,2.2 -2.9,3.2 -1.6,1.6 -2,1.6 -4.2,0.6 l -1.8,-0.9 c 0.3,-0.7 0.3,-1.3 0.3,-2 z"
     id="path80946"
     sodipodi:nodetypes="ccccccccccccccccccccccccscscscccccccccccccsccscccccccccccccccccccccccccscccccccccccccccccsccccccsccsssscsscccccccccccccccccccccccccccscccccccccscccccccccccssccsccccccccccscsccccscsccccccccccccccccccscccccccccccccccsscsccccccccccccscsccccsccccccccccccccccccccccccscccccscccccscccccccccccsccccccccccccccsscccsccccsccccccccsccccccccccccccsccc" /><path
     fill="#d3b18f"
     d="m 1608.2,998.8 c 0,-59 0,-118.1 0,-177.1 0,-1.6 0,-3.2 0.1,-4.8 0.1,-1.2 1.2,-2.1 2.2,-2.1 1,0 2.2,0.9 2.3,2 0.1,1.3 0.1,2.6 0.1,3.8 0,15.2 0,30.4 0,45.6 0,1.4 0,2.9 0.1,4.3 0,0.7 0.4,1.2 1.2,1.3 0.8,0.1 1.6,0.1 2.4,0.1 18.4,-0.2 36.8,-0.8 55.1,-2.9 8.7,-1 16.4,-4 23.3,-9.3 8.8,-6.6 14.9,-15.3 19.1,-25.4 5.9,-14.3 7.7,-29.3 7.1,-44.7 -0.1,-3 -0.3,-6.1 -0.3,-9.1 0,-93.6 0,-187.2 0,-280.8 0,-1.8 0,-3.5 0,-5.3 0,-5.3 -1,-10.5 -2.6,-15.5 -7.4,-22.6 -28.3,-37.8 -52.3,-38.1 -13.6,-0.2 -27.2,0 -40.8,0 -4.5,0 -8.9,0.6 -13.3,1.7 -25.4,6.4 -41.6,29.1 -41.8,52.3 -0.1,15.5 -0.5,31 -0.8,46.5 -0.3,17.1 -0.6,34.2 -1,51.3 -0.3,17.8 -0.7,35.5 -1,53.3 -0.2,13.3 -0.4,26.6 -0.6,39.8 0,1.6 0,3.2 -0.2,4.8 -0.2,2.1 -1,2.7 -3.1,2.8 -0.5,0 -1,0 -1.4,0 -4.8,-0.2 -9.6,-0.3 -14.4,-0.5 -17.6,-0.9 -35.2,-1 -52.8,-1.3 -11.8,-0.2 -23.7,0.2 -35.5,0.3 -24.5,0.3 -48.9,1.5 -73.3,4 -15.6,1.5 -31.1,3.6 -46.5,6.9 -11.6,2.5 -23,5.7 -33.8,10.6 -28.9,13.1 -47.2,34.9 -54.3,65.9 -3.9,17 -4,34.3 -2,51.5 1.9,15.9 5.4,31.5 10.3,46.8 3.6,11.3 7.8,22.3 13.5,32.8 7.3,13.5 14.3,27.2 21.4,40.8 1.7,3.1 2.9,6.4 3.8,9.8 1,3.7 1.7,7.5 2.2,11.3 0.9,7.4 0,14.7 -2.6,21.7 -0.8,2.2 -2,3.9 -3.9,5.3 -5.7,4.4 -11.2,9.1 -16.9,13.4 -2.8,2.1 -4.2,4.7 -4.7,8 -0.4,2.4 -0.3,4.8 0.2,7.2 0.6,3.2 2.1,6 3.7,8.8 19.6,35.2 39.2,70.4 58.8,105.7 0.5,1 1.1,2 1.6,2.9 0.5,0.9 1.3,1.4 2.4,1.4 2.2,0 4.5,0 6.7,0 1.3,0 1.8,-0.7 1.2,-1.8 -2.2,-3.9 -4.4,-7.8 -6.6,-11.7 -0.6,-1.1 -1.3,-2.2 -1.7,-3.4 -0.3,-0.9 0.1,-1.9 1.1,-2.4 1,-0.6 1.9,-0.5 2.7,0.2 0.7,0.6 1.2,1.5 1.7,2.3 2.3,4 4.5,8.1 6.9,12.1 3.2,5.5 1.6,4.7 8.5,4.8 0.5,0 1,0 1.4,-0.1 1,-0.1 1.3,-0.7 0.9,-1.7 -0.5,-1.5 -1.1,-3 -1.7,-4.5 -8.7,-21.1 -17.4,-42.3 -26.1,-63.4 -4.5,-10.9 -9,-21.9 -13.5,-32.8 -1.7,-4.1 -2.4,-8.3 -1.1,-12.6 1.7,-5.9 5,-10.3 11.3,-11.9 1.4,-0.3 2.8,-0.7 4.2,-1 10.5,-1.9 19.7,-6.6 27.6,-13.6 2.6,-2.3 5.2,-4.7 7.7,-7.2 18.5,-19 27.8,-41.9 27.9,-68.4 0.1,-15.7 -3,-30.8 -8.3,-45.5 -1.6,-4.5 -3.5,-8.9 -5.6,-13.3 -1.1,-2.3 -0.1,-3.7 2.4,-3.8 0.5,0 1,0 1.4,0 13.9,0.5 27.8,1.1 41.7,1.6 14.2,0.5 28.5,1.1 42.7,1.6 17.7,0.5 35.5,1 53.2,1.4 3,0.1 6.1,0.2 9.1,0.2 1.2,0 1.8,-0.6 1.7,-1.8 -0.2,-4 -0.5,-8 -0.8,-12 -0.8,-10.4 -1.6,-20.7 -2.4,-31.1 -0.1,-1.1 -0.1,-2.2 0,-3.3 0.1,-1.1 1,-1.6 2,-1.7 1,-0.1 1.9,0.5 2.3,1.4 0.2,0.6 0.3,1.2 0.4,1.9 0.3,4.1 0.7,8.3 1,12.4 0.7,9.7 1.5,19.5 2.2,29.2 0.8,10.5 1.7,21 2.5,31.6 0.8,10.2 1.5,20.4 2.3,30.6 0.3,4.1 0.4,8.3 1.1,12.4 2.4,15.2 5,30.3 7.6,45.4 3.4,19.9 6.8,39.7 10.1,59.6 3.4,19.9 6.6,39.7 10,59.6 4,23.6 8.1,47.3 12,70.9 1.1,6.4 0.9,5.3 6.6,5.4 0.3,0 0.6,0 1,-0.1 0.9,-0.1 1.4,-0.6 1.5,-1.5 0,-1.1 0,-2.2 0,-3.4 -0.2,-4.3 -0.4,-8.6 -0.6,-12.9 -0.1,-1.1 -0.2,-2.2 0.4,-3.3 0.5,-0.8 1.1,-1.1 2,-1.1 0.9,0 1.7,0.3 1.9,1.2 0.3,1.2 0.6,2.5 0.7,3.8 0.2,4 0.3,8 0.5,12 0.1,1.3 0.1,2.6 0.3,3.8 0.1,0.7 0.5,1.3 1.1,1.3 1.9,0.2 4,0.8 5.5,-0.4 1.2,-0.9 0.5,-2.7 0.6,-4.1 0.1,-1.3 0,-2.6 0,-3.8 -0.2,-58.5 -0.2,-116.7 -0.2,-174.9 z"
     id="path80948" /><path
     fill="#9b724e"
     d="m 1434.2,873.5 c -6.9,-0.3 -19.5,-0.9 -32.2,-1.4 -3.2,-0.1 -6.4,-0.2 -9.6,-0.3 -1.6,0 -1.9,0.4 -1.3,2.1 0.2,0.6 0.5,1.2 0.7,1.8 2.1,5.2 4,10.5 5.5,15.8 5.6,19.5 7.3,39.3 3.3,59.3 -0.6,2.8 -0.5,5.3 0.2,8 3.1,12.1 2.3,24.1 -2,35.8 -1,2.7 -2.4,5.2 -4.2,7.5 -4.9,5.9 -9.6,12 -14.5,17.9 -2.3,2.7 -3.3,5.8 -3.6,9.2 -0.4,5.1 0.9,9.7 3.6,14.1 22.1,36.5 44.2,73.1 66.2,109.6 0.5,0.8 1,1.6 1.5,2.5 0.6,1.1 1.6,1.5 2.8,1.5 2.2,0 4.5,0 6.7,0 1.3,0 1.7,-0.7 1.2,-1.9 -0.5,-1.2 -1.1,-2.3 -1.6,-3.5 -2.2,-4.6 -4.5,-9.2 -6.8,-13.8 -0.5,-1 -1,-2 -1.3,-3.1 -0.4,-1.2 0.1,-2.3 1.1,-2.9 1,-0.6 2.2,-0.3 2.9,0.8 0.7,1.1 1.2,2.2 1.8,3.4 2.9,5.9 5.9,11.7 8.6,17.7 1.2,2.6 2.8,3.7 5.5,3.3 0.8,-0.1 1.6,0 2.4,-0.1 1.5,-0.1 2,-0.8 1.3,-2.2 -2.2,-5 -4.5,-9.9 -6.8,-14.8 -13.5,-29.1 -26.9,-58.4 -40.7,-87.4 -4.4,-9.3 -1.8,-21 8.7,-26 1.9,-0.9 3.7,-1.9 5.6,-2.7 7.6,-3.5 14.6,-8 21,-13.4 4.8,-4 9.2,-8.4 13.5,-12.9 17.6,-18.3 25.9,-40.4 26.7,-65.5 0.3,-8.7 -0.5,-17.3 -1.9,-25.8 -1.6,-9.6 -4,-19.1 -7.3,-28.3 -0.6,-1.6 -1.4,-2.4 -3.1,-2.4 -1.1,0 -2.2,-0.1 -3.4,-0.2 -14.7,-0.5 -29.7,-1 -50.5,-1.7 z"
     id="path80950" /><path
     fill="#9b724e"
     d="m 1683.1,1026.9 c 0,-49.4 0,-98.9 0,-148.3 0,-1.6 0,-3.2 0,-4.8 -0.1,-1.6 -0.5,-1.9 -2.1,-1.6 -8.6,2 -17.4,2.7 -26.2,3.2 -10.7,0.6 -21.4,1.3 -32.1,1.2 -1,0 -1.9,0 -2.9,0 -1.5,0.1 -2,0.7 -1.9,2.1 0.3,3.7 0.8,7.3 1.2,11 1.2,10.6 2.3,21.3 3.5,31.9 0.8,7 1.4,14 2.4,21 2.3,15.3 4.8,30.6 7.2,46 2.3,14.8 4.7,29.7 7,44.5 2.4,15.2 4.8,30.3 7.2,45.5 2.4,15.2 4.8,30.3 7.2,45.5 2.8,17.5 5.5,35.1 8.3,52.6 1,6.2 0.4,5.3 6.6,5.3 2,0 2.3,-0.3 2.3,-2.2 -0.1,-4.6 -0.3,-9.3 -0.5,-13.9 0,-0.8 -0.1,-1.6 -0.2,-2.4 -0.1,-2.4 0.6,-3.6 2.1,-3.7 1.7,-0.2 2.6,0.9 2.8,3.6 0.1,1.3 0.1,2.6 0.2,3.8 0.1,3 0.2,6.1 0.3,9.1 0.1,1.3 0.2,2.6 0.3,3.8 0.1,1.1 0.6,1.8 1.8,1.8 5.8,0.1 5.4,0.6 5.4,-4.9 0,-1.1 0,-2.2 0,-3.4 0.1,-48.8 0.1,-97.7 0.1,-146.7 z"
     id="path80952" /><path
     fill="#f6bdbe"
     d="m 1482.1,250.8 c -13.9,0.5 -27.8,0.7 -41.7,1.7 -10.4,0.7 -20.7,1.4 -31.1,2.2 -3,0.2 -3.3,0.7 -2.1,3.6 0.3,0.7 0.6,1.5 0.9,2.2 5.8,13.7 11.6,27.4 17.5,41.1 3.6,8.5 7.2,17.1 10.9,25.6 1.1,2.5 1.4,2.6 4,2.3 0.6,-0.1 1.3,-0.2 1.9,-0.3 6.7,-0.8 13.3,-1.8 20,-2.4 14,-1.2 28.1,-1.5 42.2,-1.2 3,0.1 6.1,0 9.1,0.1 1.2,0 2.2,-0.4 2.5,-1.7 0.3,-0.9 0.6,-1.8 0.9,-2.7 5.7,-16.6 11.4,-33.3 17.1,-49.9 1.9,-5.6 3.8,-11.2 5.7,-16.8 0.4,-1.2 0,-1.9 -1.2,-2 -2.4,-0.3 -4.8,-0.6 -7.2,-0.7 -16.4,-0.9 -32.9,-1.5 -49.4,-1.1 z"
     id="path80954" /><path
     fill="#f6b7a9"
     d="m 1848.2,329.5 c 1.8,0.1 2.2,-0.1 3,-1.7 0.3,-0.6 0.5,-1.2 0.8,-1.7 9.5,-22.4 19,-44.7 28.5,-67.1 0.3,-0.7 0.6,-1.5 0.9,-2.2 0.4,-0.9 0,-1.5 -0.9,-1.8 -0.4,-0.2 -0.9,-0.2 -1.4,-0.2 -8.8,-0.7 -17.5,-1.5 -26.3,-2 -11,-0.6 -22,-1.1 -33,-1.5 -21.3,-0.9 -42.5,-0.4 -63.7,0.7 -2.2,0.1 -4.5,0.4 -6.7,0.6 -1.4,0.2 -1.6,0.6 -1.2,1.9 0.3,1.1 0.7,2.1 1,3.2 7.2,21 14.3,42 21.5,63 2,5.8 0.8,5.1 7.4,5 21.3,-0.3 42.5,0 63.6,2.9 2,0.2 4.3,0.6 6.5,0.9 z"
     id="path80956" /><path
     fill="#f0aaa7"
     d="m 1627.8,314.4 c -0.7,-8.4 -2.5,-16.1 -5.6,-23.6 -5.6,-13.8 -15.2,-23.4 -29.4,-28.4 -14.6,-5.2 -29.7,-7.6 -45,-9 -2.1,-0.2 -2.3,0 -3.1,2.2 -0.3,0.7 -0.5,1.5 -0.8,2.3 -7.2,21 -14.4,42 -21.5,63.1 -0.4,1.2 -0.8,2.4 -1.2,3.6 -0.2,0.7 0.2,1.3 0.9,1.3 3,0.3 6,0.6 9.1,0.8 5,0.3 9.8,1.2 14.6,2.7 12,4 18.7,12.4 20.1,24.9 0.8,6.8 1.2,13.7 1.9,20.5 0.1,1.2 -0.5,2.9 1,3.3 1.1,0.3 1.7,-1.2 2.6,-1.9 0.2,-0.2 0.4,-0.5 0.7,-0.7 17.5,-18.6 35.1,-37.3 52.6,-55.9 0.7,-0.7 1.3,-1.4 2,-2.1 0.8,-0.9 1.2,-2.1 1.1,-3.1 z"
     id="path80958" /><path
     fill="#f6bdbe"
     d="m 1738.9,253.4 c -8.3,0.8 -16.5,2 -24.6,3.7 -8,1.6 -15.8,3.7 -23.3,7 -7,3.1 -13,7.5 -17.7,13.6 -8.3,10.7 -11.7,23.3 -13.2,36.5 -0.2,1.4 0.2,2.5 1.2,3.4 0.6,0.5 1.1,1.2 1.7,1.7 15.5,16.4 30.9,32.8 46.4,49.2 2.8,3 5.7,6 8.6,9 0.3,0.3 0.8,0.5 1.2,0.6 0.5,0 0.7,-0.6 0.7,-1 0.2,-2.5 0.5,-5.1 0.7,-7.6 0.5,-6.1 0.9,-12.1 1.9,-18.1 1.7,-9.3 6.7,-16.1 15.2,-20.2 2.2,-1 4.4,-1.9 6.7,-2.5 4.2,-1.2 8.4,-1.9 12.7,-2 2.6,-0.1 5.1,-0.3 7.6,-0.6 1.8,-0.2 2.1,-0.7 1.5,-2.6 -0.2,-0.6 -0.4,-1.2 -0.6,-1.8 -7.3,-21.5 -14.7,-42.9 -22,-64.4 -0.3,-0.9 -0.7,-1.8 -1,-2.7 -0.3,-0.9 -1,-1.2 -1.9,-1.2 -0.5,-0.1 -1.2,0 -1.8,0 z"
     id="path80960" /><path
     fill="#f6bdbe"
     d="m 1955.7,348.3 c -0.1,-10.7 0.2,-21.4 -0.8,-32.1 -0.1,-1.2 0.4,-2.9 -0.8,-3.5 -1.5,-0.8 -2.6,0.8 -3.6,1.6 -16.5,12 -33.1,24.1 -49.6,36.1 -0.5,0.4 -1,0.7 -1.5,1.2 -1.2,1 -1.3,1.4 -0.3,2.8 5,7.2 8.2,15.1 10.2,23.6 1.5,6.6 2.4,13.2 2.3,20 -0.1,13.9 -2.2,27.4 -9.2,39.7 -1,1.8 -1,2 0.9,3.6 6.4,5.6 12.8,11.1 19.2,16.6 4.9,4.2 4,4.8 8.7,-0.7 3.1,-3.5 5.5,-7.4 7.7,-11.5 2.2,-4.1 4,-8.3 5.6,-12.7 5.2,-14.2 7.8,-29 9.3,-43.9 1.3,-13.6 1.9,-27.2 1.9,-40.8 z"
     id="path80962" /><path
     fill="#f6b7a9"
     d="m 1332.2,346.3 c 0.1,15.7 0.5,31.3 2.3,46.9 1.4,11.6 3.4,23.1 6.9,34.2 2.7,8.7 6.3,17.1 11.4,24.7 1.9,2.8 3.9,5.4 6.3,7.8 1.6,1.6 2,1.6 3.6,0.2 3.9,-3.3 7.8,-6.7 11.6,-10 3.6,-3.1 7.2,-6.3 10.9,-9.4 1,-0.9 1.1,-1.7 0.4,-2.9 -2.6,-4.4 -4.5,-9.1 -6,-14.1 -3.5,-12.3 -4.2,-24.9 -2.6,-37.5 1.4,-11.2 4.8,-21.8 11.2,-31.3 0.3,-0.4 0.5,-0.8 0.8,-1.2 0.4,-0.6 0.3,-1.2 -0.2,-1.7 -0.5,-0.4 -1,-0.8 -1.5,-1.2 -17,-12.4 -34.1,-24.9 -51.1,-37.3 -2.5,-1.8 -3,-1.6 -3.4,1.6 -0.3,1.9 -0.4,3.8 -0.4,5.7 0.1,8.6 0,17 -0.2,25.5 z"
     id="path80964" /><path
     fill="#f6bdbe"
     d="m 1628.2,388.4 c 0,-13.4 0,-26.9 0,-40.3 0,-1.5 1,-3.6 -0.9,-4.2 -1.2,-0.4 -2.2,1.5 -3.2,2.5 -16.3,16.5 -32.5,33 -48.8,49.6 -1.9,1.9 -4.7,3.5 -5.3,6 -0.7,2.7 -0.2,5.7 0,8.6 0.9,15 1.9,30 2.9,45 0.1,2.2 0.4,4.5 0.6,6.7 0,0.4 0.1,1.1 0.7,1 0.4,0 0.8,-0.4 1.1,-0.7 0.6,-0.7 1.1,-1.6 1.7,-2.3 9.1,-11.9 20.9,-19.6 35.6,-22.7 3.4,-0.7 7,-1 10.4,-1.4 3.6,-0.4 5.1,-2 5.2,-5.5 0,-1.1 0,-2.2 0,-3.4 0,-13 0,-25.9 0,-38.9 z"
     id="path80966" /><path
     fill="#f6bdbe"
     d="m 1659.8,388.3 c 0,1.8 0,3.5 0,5.3 0,12.5 0,25 0,37.4 0,3 1.6,4.7 4.5,5.1 0.8,0.1 1.6,0 2.4,0.1 17.5,0.6 32.2,7.3 44,20.3 0.9,0.9 1.7,1.9 2.6,2.8 0.2,0.2 0.6,0.2 0.9,0.1 0.2,-0.1 0.5,-0.4 0.5,-0.7 0.4,-4.8 0.8,-9.6 1.1,-14.3 0.8,-12.9 1.5,-25.9 2.4,-38.8 0.2,-2.6 -0.4,-4.5 -2.2,-6.4 -17.3,-17.5 -34.6,-35.1 -51.9,-52.6 -0.9,-0.9 -1.8,-1.8 -2.8,-2.6 -0.5,-0.5 -1.3,-0.1 -1.4,0.6 -0.1,1.3 -0.1,2.6 -0.1,3.8 0,13.3 0,26.6 0,39.9 z"
     id="path80968" /><path
     fill="#f6b7a9"
     d="m 1953,304.5 c 0,0 -0.1,-0.6 -0.2,-1.3 -2.5,-9.6 -6.8,-18.2 -13.8,-25.4 -8,-8.2 -17.5,-13.8 -28.2,-17.5 -5.8,-2 -5.2,-1.8 -7.3,3.2 -9.7,22.6 -19.4,45.2 -29,67.8 -0.4,0.9 -0.8,1.8 -1.1,2.7 -0.3,0.9 -0.1,1.6 0.8,2 1.2,0.5 2.4,1 3.5,1.5 5.3,2.3 10.3,5.2 14.5,9.2 0.5,0.4 0.9,0.9 1.4,1.3 0.7,0.6 1.4,0.7 2.1,0.1 0.8,-0.6 1.6,-1.1 2.3,-1.7 17.2,-12.5 34.3,-25 51.5,-37.6 0.9,-0.7 1.8,-1.3 2.7,-2 0.5,-0.4 0.9,-1 0.8,-2.3 z"
     id="path80970" /><path
     fill="#f0aaa7"
     d="m 1414.7,334.4 c -0.4,-0.9 -0.8,-1.9 -1.2,-3 -9.7,-22.8 -19.4,-45.5 -29.2,-68.3 -0.4,-0.9 -0.7,-1.8 -1.2,-2.6 -0.7,-1.3 -1.3,-1.5 -2.7,-1.2 -0.5,0.1 -0.9,0.2 -1.4,0.4 -9.5,3.1 -18.3,7.6 -25.9,14.2 -9.2,7.8 -15,17.7 -18,29.4 -0.5,2 -0.2,3.2 1.5,4.4 6.8,4.8 13.4,9.8 20.2,14.7 11.4,8.3 22.7,16.6 34.1,24.9 2.3,1.7 2.4,1.7 4.4,-0.2 4.1,-3.9 8.8,-6.8 14,-9.1 1.5,-0.6 2.9,-1.2 4.4,-1.9 0.6,-0.3 0.9,-0.8 1,-1.7 z"
     id="path80972" /><path
     fill="#f6b7a9"
     d="m 1857.7,402 c 0,-2.7 0,-5.4 0,-8.2 0,-1.5 -0.5,-2 -2,-2 -2.9,-0.1 -5.8,0 -8.6,0 -1.4,0 -2,0.7 -2.3,1.9 -0.1,0.6 -0.2,1.3 -0.3,1.9 -1.5,10.6 -2.2,21.3 -1,32 1,8.5 2.9,16.7 6.9,24.3 4.9,9.1 12,15.8 21.8,19.3 12.1,4.3 24.4,4.7 36.8,1.2 4.5,-1.3 8.6,-3.4 12.4,-6.1 1.2,-0.9 1.3,-1.6 0.1,-2.7 -0.7,-0.7 -1.4,-1.3 -2.2,-1.9 -5.9,-5.1 -11.9,-10.2 -17.8,-15.4 -0.7,-0.6 -1.5,-1.2 -2.2,-1.9 -0.7,-0.6 -1.4,-0.6 -2.1,0 -1,0.8 -1.9,1.7 -2.9,2.5 -6.3,4.5 -14.1,4.7 -20.7,0.6 -2.9,-1.8 -5.1,-4.3 -7,-7.1 -2.7,-4.1 -4.3,-8.6 -5.5,-13.2 -2.3,-8.3 -3.3,-16.7 -3.4,-25.2 z"
     id="path80974" /><path
     fill="#f6bdbe"
     d="m 1445.1,414.4 c 0.2,-4.6 -0.3,-10.3 -1.2,-16 -1.2,-7.5 0.3,-6.6 -7.3,-6.7 -1.3,0 -2.6,0 -3.8,0 -2.1,0.1 -2.3,0.3 -2.4,2.6 0,0.5 0,1 0,1.4 -0.1,7.8 -0.5,15.7 -1.7,23.4 -0.9,5.7 -2.3,11.3 -4.8,16.5 -1.7,3.7 -3.8,7 -6.8,9.7 -5.8,5.3 -15.8,7.3 -23.8,1 -0.8,-0.6 -1.5,-1.2 -2.2,-1.9 -1.3,-1 -1.4,-1 -2.9,0.1 -0.3,0.2 -0.5,0.4 -0.7,0.6 -6.8,5.9 -13.6,11.7 -20.3,17.6 -0.4,0.3 -0.7,0.6 -1.1,1 -0.6,0.7 -0.7,1.4 0.2,2 3.2,2.4 6.7,4.3 10.5,5.6 13.2,4.5 26.4,4.1 39.5,-0.6 7.8,-2.8 13.9,-7.8 18.6,-14.6 2.9,-4.1 4.9,-8.6 6.5,-13.3 2.7,-8.7 3.7,-17.8 3.7,-28.4 z"
     id="path80976" /><path
     fill="#d3b18f"
     d="m 1737.1,470.6 c 1.1,0 2.4,0.1 3.6,0 14.2,-1 25.3,-7.2 32.6,-19.6 0.9,-1.5 1.7,-3.1 2.4,-4.7 2.5,-5.4 4.5,-10.9 5.9,-16.7 1.5,-6.2 2.5,-12.5 2.2,-19 0,-0.9 0.4,-2.1 -0.8,-2.5 -0.9,-0.3 -1.4,0.6 -1.9,1.1 -0.7,0.7 -1.4,1.3 -2,2 -17.7,17.7 -35.4,35.4 -53.2,53.2 -0.8,0.8 -1.6,1.6 -2.4,2.4 -1.2,1.3 -0.9,2.2 1,2.5 4.1,0.9 8.2,1.6 12.6,1.3 z"
     id="path80978" /><path
     fill="#d3b18f"
     d="m 1550.6,470.7 c 1.2,0 2,0 2.8,0 3.5,0 7,-0.7 10.4,-1.3 1.2,-0.2 1.5,-1.2 0.8,-2.1 -0.5,-0.6 -1.1,-1.2 -1.6,-1.7 -18.4,-18.4 -36.8,-36.8 -55.2,-55.2 -0.8,-0.8 -1.6,-2.4 -3,-1.8 -1,0.4 -0.7,2 -0.8,3.1 0,0.6 0,1.3 0,1.9 0.5,13.3 4.1,25.8 10.6,37.4 5.3,9.5 13.4,15.7 24.1,18.3 3.9,1 8.1,1.6 11.9,1.4 z"
     id="path80980" /><path
     fill="#9b724e"
     d="m 1222.3,802.5 c 5.5,-0.2 11.2,-0.9 16.6,-2.8 4.8,-1.7 4.9,-1.7 5.3,-6.7 1.4,-13.8 4.9,-27 11.2,-39.4 0.4,-0.7 0.7,-1.4 1,-2.2 0,-0.1 0,-0.4 -0.1,-0.4 -0.3,-0.1 -0.6,-0.2 -0.8,-0.1 -0.9,0.6 -1.8,1.3 -2.7,2 -17.2,13.8 -34.3,27.7 -51.5,41.5 -0.6,0.5 -1.2,1 -1.8,1.5 -1.5,1.3 -1.4,2 0.4,2.6 7.2,2.6 14.5,3.8 22.4,4 z"
     id="path80982" /><path
     fill="#efd2e6"
     d="m 1398.9,255.7 c -1.7,0.2 -4,0.4 -6.2,0.8 -6.4,1.2 -5.7,0.6 -3.4,5.9 9.3,21.8 18.6,43.5 27.9,65.2 3.2,7.5 1.7,6.2 9.2,4.6 1.6,-0.3 3.1,-0.7 4.6,-1.2 0.9,-0.3 1.3,-0.9 0.9,-1.8 -0.3,-0.9 -0.7,-1.8 -1.1,-2.7 -9.5,-22.4 -19,-44.7 -28.5,-67.1 -0.4,-0.9 -0.8,-1.8 -1.2,-2.6 -0.2,-0.7 -0.8,-1.1 -2.2,-1.1 z"
     id="path80984" /><path
     fill="#f0aaa7"
     d="m 1888.6,255.7 c -0.8,-0.2 -1.7,0.4 -2.1,1.6 -0.2,0.4 -0.4,0.9 -0.6,1.3 -9.7,22.9 -19.5,45.8 -29.2,68.8 -0.3,0.7 -0.6,1.5 -0.8,2.2 -0.2,0.7 0.3,1.3 0.9,1.5 2,0.6 4.1,0.9 6,1.5 6,1.7 5.2,1.5 7.5,-3.9 8.8,-20.5 17.6,-41.1 26.3,-61.7 1.3,-3 3.3,-5.8 3.2,-9.3 -3.1,-1.5 -6.6,-1.2 -9.8,-1.9 -0.3,0 -0.6,0 -1.4,-0.1 z"
     id="path80986" /><path
     fill="#f6b7a9"
     d="m 1628.3,330.4 c 0,-2.2 0,-3.5 0,-4.8 0,-0.5 -0.1,-1.1 -0.7,-1.1 -0.4,0 -0.9,0.2 -1.2,0.5 -1,1 -2,2.1 -3,3.1 -17,18 -34,36.1 -51,54.1 -3.9,4.2 -3.9,4.2 -3.5,9.7 0.1,0.7 -0.2,1.8 0.8,2 0.9,0.2 1.4,-0.6 1.9,-1.2 0.5,-0.4 0.9,-0.9 1.4,-1.4 17,-17.3 34,-34.7 51.2,-51.9 2.8,-2.9 5,-5.7 4.1,-9 z"
     id="path80988" /><path
     fill="#f0aaa7"
     d="m 1719.1,389.6 c 0.7,-2.3 -0.1,-4.1 -1.8,-5.6 -0.6,-0.5 -1.1,-1.1 -1.7,-1.7 -17.2,-18.2 -34.4,-36.5 -51.6,-54.7 -1.1,-1.2 -1.8,-3.1 -3.9,-3 -0.8,1.5 -0.1,3.2 -0.3,4.7 -0.6,4.3 1.2,7.4 4.2,10.5 17.1,17 33.9,34.3 50.8,51.4 1,1 1.9,2.9 3.2,2.5 1.7,-0.5 0.6,-2.7 1.1,-4.1 z"
     id="path80990" /><path
     fill="#2d3130"
     d="m 771.1,195.1 c 1.1,0.8 2.4,0.7 3.7,0.8 16.4,1 32.1,5.1 47.4,11 1.2,0.5 2.3,1 3.4,1.7 1.1,0.6 1.4,1.9 0.9,2.9 -0.4,1 -1.7,1.7 -2.8,1.4 -1.1,-0.3 -2.1,-0.7 -3.1,-1.1 -13.6,-5.4 -27.6,-9 -42.2,-10.6 -12.9,-1.4 -25.8,-1.3 -38.7,0.4 -28.9,3.8 -54.7,14.7 -77.8,32.5 -4.4,3.4 -8.6,7.1 -12.7,11 -0.9,0.9 -1.8,1.8 -2.9,2.5 -0.9,0.7 -2.3,0.5 -3.1,-0.3 -0.8,-0.8 -1,-2.1 -0.3,-3.1 0.6,-0.8 1.2,-1.5 1.9,-2.1 22.8,-21.9 49.5,-36.4 80.5,-43.1 7,-1.5 14.1,-2.8 21.3,-3 1.1,0 2.3,0 3.2,-0.8 7.2,-0.1 14.3,-0.1 21.3,-0.1 z"
     id="path80994" /><path
     fill="#d8cbc0"
     d="m 1560.2,1446.9 c 0,-1.3 -1.2,-1.8 -1.9,-2.6 -6.4,-6.4 -12.8,-12.9 -19.3,-19.3 -0.9,-0.9 -1.8,-1.8 -2.5,-2.8 -0.7,-0.9 -0.4,-2.3 0.4,-3.1 0.8,-0.8 2,-1 3,-0.2 0.8,0.6 1.5,1.2 2.1,1.9 6.4,6.4 12.9,12.8 19.3,19.3 0.3,0.3 0.7,0.7 1,1 1.7,1.9 1.8,2.2 0.5,4.6 -0.2,0.4 -0.4,0.8 -0.6,1.2 -0.7,0 -1.3,0 -2,0 z"
     id="path80996" /><path
     fill="#d8cbc0"
     d="m 1756.4,1331.4 c 3.7,-3.4 8.2,-5.4 12.9,-7 1.7,-0.6 3.5,-0.6 5.2,-0.5 4.6,0.3 7.5,4 6.8,8.6 -0.3,1.9 -1,3.7 -2,5.3 -1.5,2.5 -3.3,4.7 -5.4,6.7 -11.6,11.2 -25,19.9 -39.8,26.1 -5.3,2.2 -10.6,2.2 -15.9,0 -0.7,-0.3 -1.5,-0.6 -2.2,-0.9 -12.9,-5.8 -24.7,-13.4 -35.2,-22.9 -2.5,-2.2 -4.8,-4.7 -6.7,-7.5 -1.4,-2 -2.5,-4.1 -3,-6.5 -1,-4.9 2.1,-8.9 7.2,-9.1 1.8,-0.1 3.5,0 5.2,0.6 4.5,1.6 8.9,3.6 12.5,6.8 0,0 0.1,-0.2 0.1,-0.2 l -0.2,0.1 c 0.9,-1 0.6,-2 0.3,-3.1 -0.7,-2.6 -1.4,-5.2 -2.1,-7.8 -0.5,-2 -0.5,-4.1 -0.4,-6.2 0.1,-0.9 0.2,-1.9 0.5,-2.8 1.6,-5.1 6.2,-7 11,-4.7 2.2,1.1 3.9,2.7 5.4,4.6 1.4,1.7 2.6,3.6 4,5.4 0.2,0.2 0.6,0.6 0.7,0.5 0.4,-0.2 0.8,-0.6 0.9,-0.9 0.5,-2.2 0.9,-4.4 1.5,-6.5 0.6,-2.2 1.5,-4.2 2.9,-6 3.4,-4.2 8.9,-4.2 12.3,0 1.2,1.5 2.1,3.2 2.6,5.1 0.6,1.8 0.9,3.7 1.4,5.6 0.1,0.4 0.4,0.9 0.7,1.1 0.8,0.4 1.1,-0.4 1.4,-0.8 1.6,-2.2 3.2,-4.4 5.3,-6.2 1.7,-1.5 3.6,-2.6 6,-2.7 3.6,-0.2 6.1,1.4 7.5,4.7 1.2,2.9 1.1,6 0.5,9 -0.6,3 -1.4,5.9 -2.2,8.8 -0.3,1.1 -0.6,2.2 0.3,3.1 0,0 -0.2,-0.2 -0.2,-0.2 z"
     id="path81000" /><path
     fill="#2d3130"
     d="m 872.9,361.1 c 0.1,61.3 -49.5,112.3 -112.3,112.3 -61.2,0 -112,-49.1 -112.1,-112 -0.2,-62.7 50.3,-112.5 112.1,-112.5 63,0 112.4,51.1 112.3,112.2 z"
     id="path81002" /><path
     fill="#f0aaa7"
     d="m 761.1,253.9 c -60.7,0.3 -107.3,48.8 -107.6,106.8 -0.3,58.1 46,107.3 106.6,107.7 C 819.8,468.8 867.5,421 867.9,362 868.3,303.2 821.6,254.6 761.1,253.9 Z"
     id="path81004" /><path
     fill="#2d3130"
     d="m 1775.7,1186.9 c -10.7,0 -21.4,0 -32.1,0 -5.5,0 -5.7,-0.3 -5,-5.8 0.8,-6.9 2.4,-13.5 5.1,-19.9 1.5,-3.6 3.3,-6.9 5.8,-9.9 3.3,-3.9 7.4,-6.5 12.6,-7 0.6,-0.1 1.3,-0.2 1.9,-0.2 1.3,0 2,-0.8 2.3,-2 0.4,-2 0.9,-4.1 1.3,-6.1 1.2,-5.3 2.6,-10.5 4.8,-15.5 1.5,-3.5 3.3,-6.9 5.9,-9.8 2.2,-2.4 4.9,-4.1 8.2,-4.4 3.9,-0.4 7.2,1.1 9.9,3.8 2.2,2.1 3.8,4.7 5.2,7.4 2.8,5.5 4.5,11.3 5.9,17.2 2.1,9 3.3,18.2 4.2,27.5 0.6,6.4 1,12.7 1.2,19.1 0,1 0.1,1.9 0.1,2.9 -0.1,1.8 -0.9,2.6 -2.7,2.7 -1.3,0.1 -2.6,0.1 -3.8,0.1 -10.3,-0.1 -20.5,-0.1 -30.8,-0.1 z"
     id="path81006" /><path
     fill="#b2acbf"
     d="m 1764,1182 c 0,0.1 0,0.1 0,0 5.3,0 10.6,0 15.8,0 1.1,0 2.2,0 3.4,-0.1 0.9,-0.1 1.5,-0.5 1.4,-1.5 -0.7,-6.5 -2,-13 -4.7,-19 -1.4,-3.1 -3.2,-5.9 -5.6,-8.3 -5.3,-5.4 -14.5,-5.7 -20.2,0.3 -2.2,2.4 -3.9,5.1 -5.2,8 -2.7,5.7 -4.2,11.7 -5.2,17.9 -0.4,2.3 0,2.7 2.5,2.7 5.9,0.1 11.9,0 17.8,0 z"
     id="path81008" /><path
     fill="#2d3130"
     d="m 1062.5,1008.2 c -0.3,-1.6 -0.4,-3.2 0.1,-4.7 1.2,-3.7 4.6,-5 8,-3.2 1.6,0.8 2.3,2.8 4.2,3 0.7,-1.4 1.4,-2.9 2.3,-4.1 2.3,-3.3 6.4,-3.3 8.9,-0.1 0.2,0.3 0.3,0.5 0.5,0.8 0.7,1 0.6,2.8 2.1,2.8 0.9,0 1.7,-1.3 2.6,-2 4,-2.7 8.1,-0.8 8.8,4 0.1,0.6 0,1.3 0.1,1.9 0.2,1.5 -1.2,3 -0.1,4.6 1.5,-0.5 3,-0.9 4.5,-1.4 1.2,-0.4 2.5,-0.6 3.8,-0.3 3.1,0.7 4.7,3.5 4,6.6 -0.4,1.4 -0.9,2.7 -1.9,3.8 -1.1,1.3 -2.2,2.7 -3.5,3.9 -5.7,5.2 -12.1,9.3 -19.1,12.6 -4.3,2 -8.5,2.1 -12.9,0.1 -7,-3.3 -13.4,-7.3 -19.1,-12.6 -1.4,-1.3 -2.7,-2.8 -3.8,-4.3 -0.7,-0.9 -1.2,-1.9 -1.5,-3 -1.5,-4.5 1.7,-8.1 6.4,-7.2 1.4,0.3 2.7,0.9 4.1,1.4 1.8,0.7 2.2,0.3 1.9,-1.7 -0.2,-0.3 -0.3,-0.6 -0.4,-0.9 z"
     id="path81010" /><path
     fill="#f6bdbe"
     d="m 1883.3,633.6 c 0,1.1 0.1,2.2 0,3.3 -0.1,1.2 -1.7,2.3 -2.9,1.9 -1.3,-0.5 -2.5,-1.3 -3.8,-2 -5.8,-2.9 -12.8,-1.8 -17.2,2.9 -3,3.2 -4.3,7.1 -3.9,11.4 0.1,1.3 0.3,2.5 0.3,3.8 -0.1,1 -0.8,1.7 -1.9,1.8 -1,0.1 -2,-0.1 -2.4,-1.1 -0.5,-1.3 -1,-2.7 -1.1,-4.1 -1.1,-14.6 12,-23.5 23.3,-21.1 1.2,0.3 2.7,1 3.7,0.6 1.4,-0.6 0.9,-2.6 1.2,-3.9 2.9,-15.7 12,-25.8 27.4,-30.1 7.9,-2.2 15.8,-1.4 23.5,1.8 1,0.4 2,1 3,1.4 1.8,0.8 1.8,0.8 2.3,-0.9 0.3,-1.2 0.5,-2.5 0.9,-3.7 6.7,-23.9 22.2,-39.1 46.4,-44 32.4,-6.6 62.2,14.5 69.2,44.7 0.9,3.9 1.5,7.8 1.5,11.9 0,0.8 0,1.6 -0.2,2.4 -0.2,1 -1.5,1.9 -2.6,1.7 -1,-0.2 -1.9,-0.7 -2,-1.7 -0.2,-1.3 -0.1,-2.6 -0.3,-3.8 -2.4,-23.3 -14.2,-39.9 -36.3,-48 -31.6,-11.6 -65.8,8.5 -71.8,42.2 -0.3,1.7 -0.3,3.5 -0.6,5.2 -0.4,2.1 -2.2,2.8 -4,1.8 -1.1,-0.6 -2.1,-1.5 -3.2,-2.1 -20.1,-12.5 -45.6,0.3 -48.3,23 -0.2,1.6 -0.3,3.2 -0.5,4.8 0.1,-0.1 0.2,-0.1 0.3,-0.1 z"
     id="path81012" /><path
     fill="#f6bdbe"
     d="m 367,519.1 c 0,1.1 0.1,2.2 0,3.4 -0.1,1.8 -1.7,2.8 -3.4,2 -1,-0.5 -1.9,-1.2 -2.9,-1.7 -8.9,-4.7 -19.6,0.6 -21.4,10.5 -0.3,1.8 -0.2,3.5 0.1,5.2 0.4,2.7 -0.2,3.9 -1.9,4.1 -1.6,0.1 -2.7,-0.8 -3.1,-3 -2.3,-12.3 5.8,-20.8 14.1,-23 3.8,-1 7.6,-0.7 11.4,0.3 1.6,0.4 1.9,0.2 2.1,-1.6 0.6,-6.9 2.9,-13.1 7,-18.6 10.3,-14 28.7,-18.8 44.6,-11.8 1.2,0.5 2.3,1.1 3.5,1.6 0.5,0.2 1,0 1.1,-0.5 0.3,-0.9 0.4,-1.9 0.6,-2.8 5.3,-21.3 18,-36.2 38.7,-43.6 34.3,-12.2 71.6,9.7 78,45.5 0.5,2.7 0.7,5.4 0.9,8.1 0.1,0.9 0.1,1.9 -0.1,2.9 -0.2,1.1 -1.3,2 -2.3,2.1 -1.1,0.1 -2.2,-0.8 -2.4,-1.9 -0.2,-1.3 -0.3,-2.5 -0.4,-3.8 -1,-22.4 -17.6,-45.7 -45.1,-50.3 -31.4,-5.2 -55.5,15.5 -61.8,39.6 -0.8,3.2 -1.2,6.6 -1.8,9.9 -0.5,2.5 -2,3.3 -4.1,2 -0.8,-0.5 -1.6,-1.1 -2.4,-1.6 -10.7,-6.7 -21.7,-7.4 -32.8,-1.4 -10.7,6.1 -15.9,15.9 -16.2,28.4 z"
     id="path81014" /><path
     fill="#f6bdbe"
     d="m 2123.1,483.2 c 30.7,0 56.7,21 63.2,50.6 0.4,1.8 0.1,3.8 1.5,5.3 1.8,-0.4 2.8,-2 4.2,-3 19.1,-14 47.3,-4.4 52.3,20.7 0.4,2 0.3,4.1 0.3,6.2 0,1.2 -1,2.1 -2.1,2.2 -1.3,0.1 -2.5,-0.8 -2.7,-2.2 -0.1,-0.8 -0.1,-1.6 -0.2,-2.4 -1.1,-11.8 -9,-21.5 -20.3,-24.8 -11.3,-3.3 -23.2,0.7 -30.3,10.2 -0.8,1 -1.5,2.1 -2.3,3.1 -0.5,0.6 -1.3,0.9 -2.2,0.7 -1,-0.2 -1.7,-0.9 -1.9,-1.9 -0.2,-1.6 -0.3,-3.2 -0.4,-4.8 -1.4,-24.4 -19.7,-49.1 -49,-54 -32.9,-5.5 -60.6,16.1 -67.4,44.2 -0.9,3.9 -1.5,7.8 -1.7,11.8 0,0.6 -0.1,1.3 -0.1,1.9 0.1,1.7 -1.2,2.8 -2.6,2.8 -1.4,0 -2.3,-1.2 -2.3,-3.1 0,-2.1 0,-4.2 0.3,-6.2 3.3,-28.2 23.7,-50.5 51.5,-56.1 4.3,-0.8 8.4,-1.4 12.2,-1.2 z"
     id="path81016" /><path
     fill="#f6bdbe"
     d="m 634.6,586.1 c 23.9,0.5 43,10.8 56,32 3.9,6.3 6.4,13.2 7.7,20.6 0.2,0.9 0.4,1.9 0.7,2.8 0.2,0.8 0.8,0.9 1.4,0.4 1,-0.8 1.9,-1.7 3,-2.4 10.5,-7.5 21.8,-9 33.6,-3.8 11.8,5.2 18.1,14.8 19.6,27.5 0.1,1.1 0,2.2 -0.1,3.3 -0.2,1.1 -1.5,1.9 -2.5,1.8 -1.1,-0.1 -1.8,-0.7 -2,-1.8 -0.3,-1.4 -0.4,-2.8 -0.6,-4.3 -1.6,-11.4 -9.7,-20.7 -20.5,-23.5 -11.4,-2.9 -22.8,1 -29.8,10.4 -0.8,1 -1.5,2.1 -2.3,3.1 -0.5,0.6 -1.3,0.8 -2.2,0.7 -1,-0.2 -1.7,-0.9 -1.9,-1.9 -0.2,-0.9 -0.1,-1.9 -0.2,-2.9 -1.4,-28.7 -22.6,-52.5 -51.2,-56.2 -33.9,-4.4 -60.5,19 -66,47 -0.6,3.2 -1,6.3 -1.1,9.5 0,0.9 -0.1,1.9 -0.3,2.8 -0.3,1.1 -1.5,1.8 -2.6,1.7 -1.1,-0.2 -1.8,-0.9 -1.9,-1.9 -0.2,-1.1 -0.2,-2.2 -0.2,-3.3 1.1,-29.3 22.7,-55.6 54.3,-60.7 2.7,-0.5 5.6,-0.6 9.1,-0.9 z"
     id="path81018" /><path
     fill="#2d3130"
     d="m 760.3,527.3 c -44.1,-0.7 -82.4,-15.9 -114.6,-46.2 -1,-1 -2,-2 -2.9,-3.2 -0.6,-0.8 -0.4,-1.8 0.4,-2.6 0.7,-0.8 1.7,-1.1 2.6,-0.6 1,0.5 1.8,1.3 2.6,2 5.2,5 10.6,9.7 16.5,14 20.4,15 43.1,24.8 68.1,29.2 50.2,8.8 101.7,-6.9 138.5,-41.9 1,-1 2.1,-2 3.2,-2.9 0.9,-0.8 2.3,-0.7 3.1,0 1,0.8 1.2,2.3 0.3,3.5 -0.7,0.9 -1.5,1.6 -2.3,2.4 -24.1,23 -52.5,37.7 -85.4,43.7 -9.9,1.6 -19.9,2.6 -30.1,2.6 z"
     id="path81020" /><path
     fill="#2d3130"
     d="m 761.4,500.9 c -17.8,-0.1 -34.5,-3 -50.7,-9.2 -1.6,-0.6 -3.2,-1.3 -4.8,-2.2 -1,-0.6 -1.3,-1.9 -0.9,-2.9 0.5,-1 1.7,-1.7 2.8,-1.4 1.2,0.4 2.4,0.9 3.6,1.4 19.7,7.7 40.1,10.7 61.1,8.8 30.8,-2.8 57.6,-14.9 80.3,-36 13,-12.1 23.2,-26.4 30.6,-42.6 0.6,-1.3 1.2,-2.6 2,-3.8 0.6,-0.9 1.6,-1.1 2.6,-0.7 1,0.4 1.5,1.2 1.5,2.3 0,1.5 -0.8,2.8 -1.3,4.1 -5.3,11.7 -12,22.6 -20.4,32.4 -21,24.7 -47.5,40.4 -79.2,47.2 -9.1,1.8 -18.4,2.5 -27.2,2.6 z"
     id="path81022" /><path
     fill="#f6bdbe"
     d="m 339.9,584.1 c 0.2,2.5 -0.5,5.1 -0.9,7.8 0,0.3 -0.2,0.6 -0.3,0.9 -0.7,2.1 -1.9,2.9 -3.4,2.4 -1.3,-0.4 -1.9,-1.6 -1.5,-3.5 0.3,-1.6 0.7,-3.1 0.8,-4.7 0.9,-8.9 -1.7,-16.8 -7.9,-23.3 -7,-7.3 -15.5,-10.4 -25.6,-8.9 -4.1,0.6 -5.2,1 -6.6,-4.2 -4.6,-17 -15.5,-28 -32.7,-32.2 -23.3,-5.6 -47.1,9.3 -52.3,32.6 -0.3,1.4 -0.6,2.8 -1,4.2 -0.3,1.2 -1.5,1.8 -2.6,1.7 -1.1,-0.2 -2.1,-1.1 -2.1,-2.3 0,-0.8 0,-1.6 0.2,-2.4 4.6,-24.4 24.2,-37.3 41.4,-39.7 20.5,-2.9 44.2,8.4 52.6,32 0.6,1.6 0.4,3.9 2.1,4.6 1.3,0.6 3.1,0.2 4.7,0.2 19.3,-0.1 35,15.4 35.1,34.8 z"
     id="path81024" /><path
     fill="#f6bdbe"
     d="m 2351.4,725.1 c 0.8,-18.7 -12.1,-39.7 -36,-43.9 -19.7,-3.5 -35.9,5.9 -44.7,19.7 -0.8,1.2 -1.4,2.5 -2.2,3.7 -0.8,1.2 -2,1.6 -3.3,1 -1,-0.4 -2,-1 -3,-1.5 -18.5,-8.2 -39.5,4.3 -41.4,24.4 -0.1,0.6 0,1.3 -0.1,1.9 -0.2,1.9 -1.1,3 -2.5,3 -1.6,0 -2.6,-1.2 -2.5,-3.4 0.1,-2.2 0.3,-4.5 0.7,-6.7 2.9,-13 14.4,-26.2 33.2,-26.9 4,-0.1 8,0.7 11.8,1.9 0.9,0.3 1.8,0.7 2.7,1 0.7,0.2 1.3,0.1 1.7,-0.5 0.7,-1 1.4,-2.1 2.2,-3.2 9.8,-13.2 23,-20.4 39.4,-20.4 30.7,0 49.3,25.2 49,48.1 0,2.2 -0.1,4.5 -0.3,6.7 -0.1,0.8 -0.3,1.6 -0.7,2.2 -0.5,0.9 -1.5,1.2 -2.5,1 -0.8,-0.2 -1.4,-0.8 -1.6,-1.6 -0.1,-0.6 -0.2,-1.3 -0.1,-1.9 0,-1.4 0.1,-3 0.2,-4.6 z"
     id="path81026" /><path
     fill="#2d3130"
     d="m 926.7,358.5 c 0,23.8 -3.8,44.1 -11.5,63.6 -0.5,1.3 -1.1,2.7 -1.8,3.9 -0.6,1.1 -1.9,1.4 -2.9,1 -1,-0.5 -1.7,-1.6 -1.4,-2.8 0.2,-0.9 0.6,-1.8 0.9,-2.7 5.2,-13 8.7,-26.4 10.5,-40.3 1.4,-11.1 1.7,-22.3 0.7,-33.5 -1.5,-17.4 -5.6,-34 -12.4,-50 -7.6,-17.8 -18.2,-33.7 -31.5,-47.8 -1,-1 -2,-2.1 -2.9,-3.2 -0.7,-0.9 -0.5,-2.2 0.4,-3 0.9,-0.8 2.1,-0.9 3.1,-0.2 1.1,0.9 2.1,1.9 3.1,3 21.1,22.4 35.2,48.5 41.9,78.5 2.6,12 3.9,24.1 3.8,33.5 z"
     id="path81028" /><path
     fill="#2d3130"
     d="m 1061.8,1081.1 c 0,1.7 -1.8,3.1 -3,2.6 -0.6,-0.2 -1.1,-0.6 -1.6,-1 -1,-0.9 -1.8,-1.8 -2.7,-2.7 -46,-46 -92.1,-92.1 -138.1,-138.1 -0.9,-0.9 -1.8,-1.8 -2.7,-2.7 -1.2,-1.4 -1.3,-2.8 -0.2,-3.8 1.1,-1 2.3,-0.9 3.8,0.4 1.1,1 2.1,2 3.1,3 38.3,38.3 76.7,76.7 115,115 7.7,7.7 15.4,15.4 23.1,23.1 0.9,0.9 1.8,1.8 2.6,2.8 0.4,0.5 0.5,1.1 0.7,1.4 z"
     id="path81030" /><path
     fill="#2d3130"
     d="m 900.4,356 c 0,2.2 0.1,3.8 0,5.4 -0.1,1.3 -1.5,2.3 -2.7,2.1 -1.1,-0.1 -2,-1 -2.1,-2.3 -0.2,-2.1 -0.2,-4.1 -0.3,-6.2 -1.5,-30.8 -12.2,-57.9 -32.2,-81.3 -19.3,-22.6 -43.6,-37.1 -72.5,-43.9 -0.8,-0.2 -1.6,-0.3 -2.3,-0.5 -1.8,-0.6 -2.6,-1.8 -2.1,-3.2 0.4,-1.3 1.5,-2 3,-1.7 1.3,0.2 2.5,0.4 3.8,0.7 55.2,13.2 93.5,56.7 104.2,105.4 1.8,8.6 2.7,17.3 3.2,25.5 z"
     id="path81032" /><path
     fill="#2d3130"
     d="m 1145.9,1047.6 c 0.2,0.1 0.9,0.2 1.4,0.5 1,0.8 1.9,1.7 2.8,2.6 28.6,28.6 57.2,57.2 85.8,85.8 1,1 2,2.1 2.9,3.2 0.7,0.9 0.3,2.3 -0.5,3 -0.8,0.7 -1.8,0.8 -2.7,0.3 -0.8,-0.5 -1.5,-1.2 -2.2,-1.8 -29.3,-29.3 -58.6,-58.6 -87.9,-87.9 -0.8,-0.8 -1.7,-1.5 -2,-2.6 -0.5,-1.4 0.6,-3 2.4,-3.1 z"
     id="path81034" /><path
     fill="#2d3130"
     d="m 610.1,295 c 1.4,0.1 2.7,1.7 2.3,3 -0.3,1.2 -0.9,2.4 -1.4,3.6 -5.6,14 -9.2,28.6 -10.6,43.6 -2.3,25.4 0.8,50 10,73.8 0.6,1.6 1.3,3.2 1.9,4.9 0.4,1.3 -0.3,2.6 -1.6,3.1 -1,0.4 -2.3,0 -2.9,-1.1 -0.7,-1.4 -1.4,-2.9 -1.9,-4.4 -6,-15.4 -9.6,-31.4 -10.8,-47.9 -1.9,-25.3 1.8,-49.7 10.9,-73.3 0.6,-1.5 1.3,-2.9 2,-4.3 0.5,-0.6 1.3,-0.9 2.1,-1 z"
     id="path81036" /><path
     fill="#2d3130"
     d="m 1113.8,1133.8 c 0.8,0 1.6,0.2 2.2,0.7 0.8,0.8 1.6,1.5 2.4,2.3 28.7,28.7 57.4,57.4 86.1,86.1 0.9,0.9 1.8,1.8 2.5,2.9 0.7,0.9 0.4,2.4 -0.4,3 -0.8,0.6 -1.8,0.9 -2.7,0.3 -0.8,-0.5 -1.5,-1.1 -2.2,-1.8 -3,-2.9 -5.9,-5.9 -8.8,-8.8 -25.9,-25.9 -51.8,-51.7 -77.6,-77.6 -1.1,-1.1 -2.3,-2.2 -3.2,-3.5 -1.1,-1.5 0,-3.6 1.7,-3.6 z"
     id="path81038" /><path
     fill="#2d3130"
     d="m 989.2,891.1 c -0.1,1.8 -1.8,2.9 -3.2,2.3 -0.6,-0.3 -1.1,-0.6 -1.6,-1 -0.9,-0.9 -1.8,-1.8 -2.7,-2.7 -22.7,-22.7 -45.4,-45.4 -68.1,-68.1 -1,-1 -2.1,-2 -3,-3.1 -0.9,-1.1 -0.8,-2.6 0.1,-3.5 0.9,-0.9 2.3,-0.8 3.5,0.1 0.9,0.7 1.6,1.5 2.4,2.3 23.2,23.2 46.3,46.3 69.5,69.5 0.8,0.8 1.6,1.6 2.3,2.4 0.6,0.5 0.8,1.3 0.8,1.8 z"
     id="path81040" /><path
     fill="#2d3130"
     d="m 1130.7,914 c 0.8,0 1.6,0.3 2.2,0.9 0.8,0.8 1.6,1.6 2.4,2.4 23.1,23.1 46.1,46.1 69.2,69.2 1,1 2,2.1 2.9,3.2 0.7,0.8 0.5,1.8 -0.1,2.7 -0.7,0.9 -2,1.2 -3,0.7 -0.5,-0.3 -1.1,-0.7 -1.5,-1.1 -0.7,-0.6 -1.4,-1.3 -2,-2 -22.9,-22.9 -45.9,-45.9 -68.8,-68.8 -1.1,-1.1 -2.3,-2.3 -3.2,-3.6 -1.1,-1.6 0.2,-3.7 1.9,-3.6 z"
     id="path81042" /><path
     fill="#d8cbc0"
     d="m 1370.8,1322.2 c 0,-4.8 0,-9.6 0,-14.4 0,-1.1 0,-2.2 0.2,-3.3 0.2,-1.1 0.9,-1.7 2,-1.7 1.3,-0.1 2.3,0.6 2.5,1.7 0.2,1.2 0.3,2.5 0.3,3.8 0,9.3 0,18.5 0,27.8 0,1 0.1,1.9 0.2,2.9 0,0.1 0.6,0.3 0.7,0.3 0.4,-0.5 0.8,-1 1,-1.6 2.3,-5.1 4.6,-10.2 6.9,-15.3 0.5,-1 0.9,-2.1 1.5,-3 0.8,-1.4 2,-1.8 3.2,-1.3 1.2,0.6 1.8,1.8 1.3,3.2 -0.2,0.8 -0.6,1.5 -0.9,2.2 -4.4,9.8 -8.8,19.5 -13.2,29.3 -0.5,1 -1,2 -1.7,2.8 -0.8,1 -2.7,0.8 -3.4,-0.1 -0.4,-0.5 -0.7,-1.1 -1,-1.6 -4.7,-10.5 -9.5,-21 -14.2,-31.4 -0.3,-0.6 -0.5,-1.2 -0.5,-1.8 -0.1,-1 0.2,-1.9 1.2,-2.4 1,-0.5 2.4,-0.3 3,0.6 0.6,0.9 1.1,2 1.5,3 2.3,5.1 4.6,10.2 6.9,15.3 0.3,0.7 0.7,1.4 1.1,2.1 0.1,0.2 0.5,0.1 0.8,0.1 0.1,0 0.3,-0.2 0.3,-0.3 0.1,-0.8 0.1,-1.6 0.1,-2.4 0.2,-4.9 0.2,-9.7 0.2,-14.5 z"
     id="path81044" /><path
     fill="#2d3130"
     d="m 732.8,224.3 c 1.2,0 2.3,0.8 2.6,1.9 0.3,1.1 -0.2,2.3 -1.4,2.7 -0.9,0.4 -1.8,0.6 -2.8,0.8 -33.5,7.9 -60.2,25.8 -80.4,53.6 -0.6,0.8 -1.1,1.6 -1.7,2.3 -1.2,1.4 -2.6,1.7 -3.7,0.7 -1.1,-0.9 -1.2,-2 -0.4,-3.4 0.5,-0.8 1,-1.6 1.6,-2.4 20.6,-28.5 48,-47 82.1,-55.4 1.3,-0.4 2.8,-0.6 4.1,-0.8 z"
     id="path81046" /><path
     fill="#2d3130"
     d="m 1912.6,1190.3 c 0,-2.6 0,-5.1 0,-7.7 0,-0.8 0,-1.6 0.1,-2.4 0.2,-1.2 1.1,-2.1 2.2,-2.1 1.1,0 2.2,0.8 2.3,2 0.1,1.3 0.1,2.5 0.1,3.8 0,5.6 0,11.2 0.1,16.8 0,0.3 0.1,0.7 0.3,0.8 0.6,0.3 0.9,-0.2 1.1,-0.6 1.3,-2.7 2.5,-5.5 3.8,-8.2 0.5,-1 1,-2 1.6,-2.9 0.6,-0.8 1.5,-1.1 2.5,-0.6 0.9,0.5 1.4,1.3 1.3,2.3 0,0.6 -0.2,1.3 -0.4,1.8 -3.3,7.4 -6.7,14.8 -10.1,22.2 -0.2,0.4 -0.4,0.9 -0.7,1.2 -0.9,1.1 -2.9,1.1 -3.8,-0.1 -0.5,-0.6 -0.8,-1.4 -1.1,-2.1 -3.1,-6.8 -6.2,-13.7 -9.2,-20.5 -0.4,-0.9 -0.7,-1.8 -0.8,-2.7 -0.1,-1 0.4,-1.9 1.4,-2.3 1,-0.5 2,-0.1 2.5,0.7 0.7,1 1.2,2.2 1.8,3.3 1.4,2.7 2.1,5.7 4.1,8 0,0.1 0.4,0 0.4,-0.1 1,-2.9 0.2,-5.9 0.4,-8.9 0.1,-0.4 0.1,-1.1 0.1,-1.7 z"
     id="path81048" /><path
     fill="#d8cbc0"
     d="m 1331.6,1351 c 0,1.2 -0.4,1.8 -1.1,2.3 -0.7,0.5 -1.5,0.7 -2.2,0.2 -0.9,-0.6 -1.8,-1.3 -2.6,-2.1 -4.2,-4.2 -8.4,-8.4 -12.6,-12.5 -9.6,-9.6 -19.2,-19.2 -28.8,-28.8 -0.9,-0.9 -1.8,-1.8 -2.6,-2.8 -0.7,-0.9 -0.6,-2.3 0.2,-3.1 0.8,-0.8 2.1,-1 3.1,-0.3 0.8,0.5 1.5,1.2 2.2,1.9 14,14 28,28 42,42 1.1,1 2.3,1.8 2.4,3.2 z"
     id="path81050" /><path
     fill="#2d3130"
     d="m 835.5,1175.6 c -0.2,1.9 -2.2,2.9 -3.6,1.9 -0.7,-0.4 -1.2,-1 -1.8,-1.6 -11.5,-11.5 -23,-23 -34.5,-34.5 -0.7,-0.7 -1.3,-1.4 -1.8,-2.2 -0.6,-0.9 -0.4,-1.8 0.3,-2.6 0.7,-0.8 1.7,-1.1 2.6,-0.6 0.8,0.4 1.6,1 2.3,1.7 2.4,2.3 4.8,4.7 7.1,7.1 8.8,8.8 17.6,17.6 26.4,26.4 0.8,0.8 1.6,1.6 2.3,2.4 0.5,0.6 0.8,1.4 0.7,2 z"
     id="path81052" /><path
     fill="#2d3130"
     d="m 634.1,412.1 c 0.9,0 1.6,0.3 2.1,1 0.6,0.9 1.1,2 1.5,3 6.4,14.1 14.8,26.8 25.5,37.9 0.9,0.9 1.7,1.9 2.5,2.9 0.7,0.9 0.5,1.8 -0.1,2.7 -0.7,1 -2,1.3 -3,0.8 -0.8,-0.5 -1.5,-1.1 -2.2,-1.8 -11.6,-11.9 -20.7,-25.4 -27.5,-40.6 -0.4,-1 -0.8,-2.1 -1,-3.2 -0.2,-1.3 0.9,-2.6 2.2,-2.7 z"
     id="path81054" /><path
     fill="#2d3130"
     d="m 1397.1,1243.8 c 0.3,0.1 0.9,0.2 1.4,0.6 0.8,0.6 1.4,1.3 2.1,2 11.2,11.2 22.4,22.4 33.6,33.6 0.7,0.7 1.4,1.4 1.9,2.1 0.7,0.9 0.5,2.4 -0.2,3.1 -0.7,0.7 -2.2,0.9 -3.1,0.3 -0.8,-0.5 -1.5,-1.2 -2.1,-1.9 -11.3,-11.3 -22.6,-22.6 -33.9,-33.9 -0.8,-0.8 -1.6,-1.5 -2,-2.6 -0.5,-1.4 0.6,-3.2 2.3,-3.3 z"
     id="path81056" /><path
     fill="#2d3130"
     d="m 706.6,1112.6 c 0.1,1.6 -2,2.8 -3.5,2 -0.7,-0.4 -1.3,-0.9 -1.9,-1.5 -6.9,-6.9 -13.8,-13.8 -20.7,-20.7 -0.4,-0.4 -0.9,-0.9 -1.2,-1.5 -0.6,-0.9 -0.5,-1.8 0.1,-2.7 0.6,-0.9 2,-1.3 3,-0.7 0.7,0.4 1.3,0.9 1.9,1.4 6.9,6.9 13.8,13.8 20.7,20.7 0.8,0.9 1.5,1.8 1.6,3 z"
     id="path81058" /><path
     fill="#2d3130"
     d="m 628.6,334.1 c -0.6,4.1 -1.1,8.2 -1.7,12.3 -0.6,4.1 -0.7,8.2 -0.8,12.4 0,1 0,1.9 -0.2,2.9 -0.2,1 -1.4,1.9 -2.5,1.9 -1.1,0 -2.1,-0.9 -2.2,-2.1 -0.1,-1.1 -0.1,-2.2 -0.1,-3.3 0.1,-7.7 0.9,-15.2 2.3,-22.8 0.1,-0.8 0.3,-1.6 0.6,-2.3 0.5,-1.5 1.5,-2.1 2.9,-1.8 1.2,0.3 1.9,1.4 1.7,2.8 z"
     id="path81060" /><path
     fill="#efe3d8"
     d="m 1672.3,567.3 -52.7,-3.3 -28.2,-59.6 c -9.5,-23.2 7.6,-48.6 32.6,-48.6 h 46.3 c 25.1,0 42.1,25.4 32.6,48.6 z"
     id="path81062" /><path
     fill="#d3b18f"
     d="m 1576.3,501.3 c 0,0 15.3,-10.7 26,-5.3 10.7,5.3 13.9,17.3 13.9,17.3 l -0.1,51.6 -31.1,-18.3 z"
     id="path81064" /><path
     fill="#d3b18f"
     d="m 1716.2,501.3 c 0,0 -15.3,-10.7 -26,-5.3 -10.7,5.3 -13.9,17.3 -13.9,17.3 l 0.1,51.6 31.1,-18.3 z"
     id="path81066" /><path
     fill="#2d3130"
     d="m 1587.9,519.1 c 0,-5.3 4.1,-9.3 9.5,-9.3 5.3,0.1 9.3,4.2 9.2,9.6 -0.1,5.1 -4.1,9 -9.2,9.1 -5.4,0 -9.5,-4 -9.5,-9.4 z"
     id="path81068" /><path
     fill="#2d3130"
     d="m 1613.1,542.6 c 0,-4.5 0,-9 0,-13.4 0,-1.1 0,-2.2 0.2,-3.3 0.2,-1.1 1.1,-1.6 2.1,-1.6 1,0 2,0.4 2.1,1.5 0.2,1.2 0.3,2.5 0.3,3.8 0,7 0,14.1 0,21.1 0,6.2 4.1,10.9 10.2,11.9 5.6,0.9 11.6,-2.8 13.5,-8.5 0.4,-1.2 0.2,-1.8 -1,-2.3 -1.6,-0.7 -3.3,-1.3 -4.7,-2.4 -2.4,-1.8 -4.2,-3.9 -5.2,-6.7 -0.4,-1 0.1,-1.9 0.9,-2.5 0.8,-0.7 2.4,-0.5 3.1,0.3 0.4,0.5 0.7,1 1.1,1.6 3.9,7 14,7.5 18.5,-0.1 0.3,-0.5 0.7,-1.1 1.1,-1.5 0.8,-0.7 1.7,-0.8 2.7,-0.3 1,0.5 1.2,1.4 1.1,2.4 -0.2,1.5 -1,2.7 -1.9,3.8 -1.9,2.5 -4.3,4.2 -7.3,5.3 -1.9,0.7 -2.1,1.5 -1.3,3.4 3.1,7.6 13.4,11.3 20.5,3.8 2.2,-2.3 3.6,-5.1 3.4,-8.6 -0.2,-6.7 -0.1,-13.4 -0.1,-20.1 0,-1.3 0,-2.6 0.1,-3.8 0.1,-1.1 0.8,-1.7 1.9,-1.8 1.3,-0.1 2.3,0.6 2.5,1.8 0.2,0.9 0.2,1.9 0.2,2.9 0,9.1 0.1,18.2 -0.1,27.3 -0.1,9.2 -3.6,17.1 -10.5,23.4 -17.8,16.1 -46.9,7.8 -52.7,-16.4 -0.6,-2.5 -0.9,-5 -0.9,-7.6 0.2,-4.8 0.2,-9.1 0.2,-13.4 z"
     id="path81070" /><path
     fill="#efe3d8"
     d="m 1645.1,583.1 c 11,-0.5 19.1,-5.5 24.3,-15.2 0.4,-0.7 0.6,-1.5 0.8,-2.2 0.1,-0.2 -0.2,-0.5 -0.4,-0.8 -0.1,-0.1 -0.3,-0.1 -0.4,0 -0.6,0.2 -1.2,0.5 -1.7,0.7 -7.6,3.8 -16,1.4 -20.9,-4.2 -1.9,-2.2 -2.1,-2.2 -4,0.1 -4.1,4.8 -12,8 -20,4.5 -0.6,-0.3 -1.2,-0.5 -1.8,-0.7 -0.2,-0.1 -0.7,0 -0.8,0.1 -0.2,0.2 -0.2,0.6 -0.2,0.8 0.1,0.5 0.3,0.9 0.5,1.3 5.3,10 13.5,15.1 24.6,15.6 z"
     id="path81072" /><path
     fill="#2d3130"
     d="m 1593.1,491.8 c 10.8,0 20,6.1 23.8,15.8 0.4,1 0.7,2.1 0.9,3.2 0.2,1.2 -0.6,2.3 -1.6,2.6 -1,0.3 -2.2,-0.3 -2.8,-1.4 -0.3,-0.7 -0.6,-1.5 -0.8,-2.2 -4.2,-10.7 -15.3,-14.6 -23.1,-12.7 -0.5,0.1 -0.9,0.2 -1.4,0.3 -1.5,0.1 -2.6,-0.6 -2.8,-1.9 -0.2,-1.2 0.4,-2.1 1.6,-2.6 2.1,-1.1 4.3,-1.2 6.2,-1.1 z"
     id="path81074" /><path
     fill="#2d3130"
     d="m 1694.9,509.9 c 5.4,-0.1 9.4,3.9 9.5,9.3 0,5.4 -4.1,9.4 -9.4,9.4 -5.1,0 -9.1,-3.9 -9.2,-9.1 -0.2,-5.4 3.8,-9.6 9.1,-9.6 z"
     id="path81076" /><path
     fill="#2d3130"
     d="m 1699.1,491.8 c 2.1,-0.1 4.3,0.1 6.4,1 1.2,0.5 1.7,1.6 1.4,2.7 -0.3,1.1 -1.3,1.9 -2.5,1.8 -0.8,-0.1 -1.6,-0.3 -2.3,-0.4 -9.2,-1.4 -18,3.2 -22,11.7 -0.6,1.3 -1,2.7 -1.8,3.9 -0.5,0.8 -1.5,1.2 -2.5,0.9 -1,-0.4 -1.5,-1.1 -1.5,-2.2 0,-1.3 0.5,-2.5 0.9,-3.7 4.4,-10.8 15.1,-16.2 23.9,-15.7 z"
     id="path81078" /></g>
</svg>
