<?xml version="1.0" encoding="UTF-8" standalone="no"?>
<svg
   xmlns:dc="http://purl.org/dc/elements/1.1/"
   xmlns:cc="http://creativecommons.org/ns#"
   xmlns:rdf="http://www.w3.org/1999/02/22-rdf-syntax-ns#"
   xmlns:svg="http://www.w3.org/2000/svg"
   xmlns="http://www.w3.org/2000/svg"
   xmlns:sodipodi="http://sodipodi.sourceforge.net/DTD/sodipodi-0.dtd"
   xmlns:inkscape="http://www.inkscape.org/namespaces/inkscape"
   viewBox="0 0 512 512"
   height="512"
   width="512"
   xml:space="preserve"
   id="svg2"
   version="1.1"
   sodipodi:docname="Opossum.svg"
   inkscape:version="1.0.2 (e86c870879, 2021-01-15, custom)"><sodipodi:namedview
     pagecolor="#ffffff"
     bordercolor="#666666"
     borderopacity="1"
     objecttolerance="10"
     gridtolerance="10"
     guidetolerance="10"
     inkscape:pageopacity="0"
     inkscape:pageshadow="2"
     inkscape:window-width="1366"
     inkscape:window-height="715"
     id="namedview51617"
     showgrid="false"
     inkscape:zoom="0.58124176"
     inkscape:cx="518.64464"
     inkscape:cy="313.17697"
     inkscape:window-x="-8"
     inkscape:window-y="-8"
     inkscape:window-maximized="1"
     inkscape:current-layer="svg2" /><metadata
     id="metadata8"><rdf:RDF><cc:Work
         rdf:about=""><dc:format>image/svg+xml</dc:format><dc:type
           rdf:resource="http://purl.org/dc/dcmitype/StillImage" /><dc:title></dc:title></cc:Work></rdf:RDF></metadata><defs
     id="defs6" /><g
     id="g52498"
     transform="matrix(1.2331978,0,0,1.2331978,-275.26642,-70.177264)"><path
       id="path242"
       style="fill:#38386a;fill-opacity:1;fill-rule:nonzero;stroke:none;stroke-width:0.133333"
       d="m 286.33733,204.89068 c 0,0 -6.47467,-7.036 -11.82267,-6.47333 -5.348,0.56267 -11.43467,16.624 5.12,21.96266 16.55467,5.34 6.70267,-15.48933 6.70267,-15.48933" /><path
       id="path244"
       style="fill:none;stroke:#701d46;stroke-width:0.466667;stroke-linecap:butt;stroke-linejoin:miter;stroke-miterlimit:10;stroke-dasharray:none;stroke-opacity:1"
       d="m 286.33733,204.89068 c 0,0 -6.47467,-7.036 -11.82267,-6.47333 -5.348,0.56267 -11.43467,16.624 5.12,21.96266 16.55467,5.34 6.70267,-15.48933 6.70267,-15.48933 z" /><path
       id="path246"
       style="fill:#a56042;fill-opacity:1;fill-rule:nonzero;stroke:none;stroke-width:0.133333"
       d="m 280.98933,305.37735 c 0,0 23.81333,-5.856 26.28933,-6.756 2.47733,-0.89867 63.78133,-20.828 67.72133,-21.67334 3.94133,-0.844 18.59333,-7.036 35.896,-11.54 17.30267,-4.504 63.25333,-17.47066 85.59466,-24.78 22.34267,-7.308 31.068,-13.5 31.068,-13.5 l 1.12667,5.06534 c 0,0 -14.70533,11.84933 -36.204,19.15466 -21.49867,7.304 -33.97333,15.28134 -47.156,34.492 -13.18133,19.21067 -33.16933,26.01067 -43.02133,38.396 -9.852,12.384 -20.548,17.16933 -21.67333,40.532 -1.12667,23.36267 -4.78534,6.192 -4.504,-3.94133 0.28133,-10.13334 5.06666,-15.48 -0.28134,-12.10267 -5.348,3.37733 -17.73333,17.45067 -23.36266,21.11067 -5.62934,3.65866 -8.16267,3.37733 3.94133,-9.57067 12.10267,-12.948 28.71067,-31.24266 41.09467,-46.44266 12.38533,-15.2 27.584,-32.088 16.46666,-34.62134 -11.11866,-2.53333 -21.252,10.41467 -31.10266,10.13334 -9.852,-0.28134 -12.104,-0.28134 -18.01467,1.12533 -5.91067,1.408 -22.43333,5.42 -22.43333,5.42 0,0 -15.00267,8.63333 -25.136,11.88 -10.13333,3.248 -26.45867,1.84 -32.932,3.248 -6.47333,1.40667 -22.91467,-0.72533 -3.37733,-5.62933" /><path
       id="path248"
       style="fill:none;stroke:#701d46;stroke-width:0.466667;stroke-linecap:butt;stroke-linejoin:miter;stroke-miterlimit:10;stroke-dasharray:none;stroke-opacity:1"
       d="m 280.98933,305.37735 c 0,0 23.81333,-5.856 26.28933,-6.756 2.47733,-0.89867 63.78133,-20.828 67.72133,-21.67334 3.94133,-0.844 18.59333,-7.036 35.896,-11.54 17.30267,-4.504 63.25333,-17.47066 85.59466,-24.78 22.34267,-7.308 31.068,-13.5 31.068,-13.5 l 1.12667,5.06534 c 0,0 -14.70533,11.84933 -36.204,19.15466 -21.49867,7.304 -33.97333,15.28134 -47.156,34.492 -13.18133,19.21067 -33.16933,26.01067 -43.02133,38.396 -9.852,12.384 -20.548,17.16933 -21.67333,40.532 -1.12667,23.36267 -4.78534,6.192 -4.504,-3.94133 0.28133,-10.13334 5.06666,-15.48 -0.28134,-12.10267 -5.348,3.37733 -17.73333,17.45067 -23.36266,21.11067 -5.62934,3.65866 -8.16267,3.37733 3.94133,-9.57067 12.10267,-12.948 28.71067,-31.24266 41.09467,-46.44266 12.38533,-15.2 27.584,-32.088 16.46666,-34.62134 -11.11866,-2.53333 -21.252,10.41467 -31.10266,10.13334 -9.852,-0.28134 -12.104,-0.28134 -18.01467,1.12533 -5.91067,1.408 -22.43333,5.42 -22.43333,5.42 0,0 -15.00267,8.63333 -25.136,11.88 -10.13333,3.248 -26.45867,1.84 -32.932,3.248 -6.47333,1.40667 -22.91467,-0.72533 -3.37733,-5.62933 z" /><path
       id="path250"
       style="fill:#f03664;fill-opacity:1;fill-rule:nonzero;stroke:none;stroke-width:0.133333"
       d="m 480.27199,230.14535 c 1.688,4.58133 12.384,9.93066 28.99066,14.71466 16.60667,4.78534 28.71067,4.22267 40.252,5.06667 11.54,0.84533 23.08,3.37867 36.028,10.97733 12.94667,7.6 6.47334,0.28134 -3.94133,-7.03733 -10.41333,-7.31733 -17.16933,-9.56933 -47.56933,-14.35467 -30.39734,-4.78533 -53.76,-27.584 -53.76,-27.584 v 18.21734" /><path
       id="path252"
       style="fill:none;stroke:#701d46;stroke-width:0.466667;stroke-linecap:butt;stroke-linejoin:miter;stroke-miterlimit:10;stroke-dasharray:none;stroke-opacity:1"
       d="m 480.27199,230.14535 c 1.688,4.58133 12.384,9.93066 28.99066,14.71466 16.60667,4.78534 28.71067,4.22267 40.252,5.06667 11.54,0.84533 23.08,3.37867 36.028,10.97733 12.94667,7.6 6.47334,0.28134 -3.94133,-7.03733 -10.41333,-7.31733 -17.16933,-9.56933 -47.56933,-14.35467 -30.39734,-4.78533 -53.76,-27.584 -53.76,-27.584 z" /><path
       id="path254"
       style="fill:#525b98;fill-opacity:1;fill-rule:nonzero;stroke:none;stroke-width:0.133333"
       d="m 410.89599,250.48268 c 0,0 -0.71067,9.296 -4.08933,10.42133 -3.37734,1.12534 -6.6,4.964 -6.6,6.93467 0,1.96933 9.748,-3.04533 10.72533,-1.92 0.97733,1.12667 2.37333,-1.47067 3.628,1.40267 1.25467,2.872 2.38,-1.632 2.38,-3.884 0,-2.252 5.13067,-8.62934 5.13067,-8.62934 l 5.84666,-17.26533 -16.888,-3.09733 -0.13333,16.03733" /><path
       id="path256"
       style="fill:none;stroke:#701d46;stroke-width:0.466667;stroke-linecap:butt;stroke-linejoin:miter;stroke-miterlimit:10;stroke-dasharray:none;stroke-opacity:1"
       d="m 410.89599,250.48268 c 0,0 -0.71067,9.296 -4.08933,10.42133 -3.37734,1.12534 -6.6,4.964 -6.6,6.93467 0,1.96933 9.748,-3.04533 10.72533,-1.92 0.97733,1.12667 2.37333,-1.47067 3.628,1.40267 1.25467,2.872 2.38,-1.632 2.38,-3.884 0,-2.252 5.13067,-8.62934 5.13067,-8.62934 l 5.84666,-17.26533 -16.888,-3.09733 z" /><path
       id="path258"
       style="fill:#525b98;fill-opacity:1;fill-rule:nonzero;stroke:none;stroke-width:0.133333"
       d="m 308.42133,270.80135 c 0,0 4.37466,15.15333 1.84133,18.532 -2.53333,3.37733 -6.47467,6.47333 -6.756,9.288 -0.28133,2.81466 -0.89867,5.06666 3.772,0 l 13.93467,-4.57867 c 0,0 2.84133,-12.872 3.96666,-23.00533 1.12534,-10.13334 -8.72533,-10.13334 -8.72533,-10.13334 l -8.03333,9.89734" /><path
       id="path260"
       style="fill:none;stroke:#701d46;stroke-width:0.466667;stroke-linecap:butt;stroke-linejoin:miter;stroke-miterlimit:10;stroke-dasharray:none;stroke-opacity:1"
       d="m 308.42133,270.80135 c 0,0 4.37466,15.15333 1.84133,18.532 -2.53333,3.37733 -6.47467,6.47333 -6.756,9.288 -0.28133,2.81466 -0.89867,5.06666 3.772,0 l 13.93467,-4.57867 c 0,0 2.84133,-12.872 3.96666,-23.00533 1.12534,-10.13334 -8.72533,-10.13334 -8.72533,-10.13334 z" /><path
       id="path262"
       style="fill:#646da7;fill-opacity:1;fill-rule:nonzero;stroke:none;stroke-width:0.133333"
       d="m 278.73733,229.38001 c 0,0 0.56266,-19.98533 7.6,-24.48933 7.036,-4.50267 11.54,-10.976 20.26533,-11.82133 8.72667,-0.84533 4.78533,2.81467 4.78533,2.81467 0,0 10.13334,-4.78534 16.044,-4.22134 5.91067,0.56134 8.444,1.96934 12.38533,1.12534 3.94,-0.844 14.35467,2.53333 33.776,-14.35467 19.42134,-16.88933 42.50267,-26.45867 42.784,-21.392 0.28134,5.06667 14.91867,-4.78533 19.984,-4.504 5.06667,0.28133 0,6.47333 0,6.47333 0,0 27.02267,1.12667 27.304,5.62934 0,0 6.47333,2.53333 2.81334,5.63066 0,0 23.08133,14.07334 25.61466,28.14667 2.53333,14.07333 -8.16267,5.62933 -8.16267,5.62933 0,0 12.38534,25.05067 4.78534,22.236 -7.6,-2.81467 -3.37867,1.12667 -6.756,8.444 -3.37734,7.31867 -20.54667,30.68133 -27.30267,34.05867 -6.75466,3.37866 -9.00666,20.26666 -12.66533,23.92533 0,0 -5.34933,3.096 -5.63067,4.504 -0.28,1.40667 -1.688,11.82133 -2.81466,10.41467 -1.12534,-1.408 -2.25067,-4.78534 -2.25067,-4.78534 0,0 -3.94133,7.88 -3.94133,3.65867 0,-4.22267 0,-4.22267 0,-4.22267 0,0 -7.03734,2.53334 -4.78534,-0.28133 2.252,-2.81467 6.19334,-6.192 7.6,-9.85067 1.408,-3.66 5.348,-15.2 5.06667,-19.14 -0.28133,-3.94133 -12.384,-11.25866 -14.636,-22.8 0,0 -1.72667,-4.53733 -10.696,0.84534 -2.816,1.688 -3.09733,2.532 -8.444,0.28 0,0 -4.78533,3.37866 -7.88133,1.408 -3.09734,-1.96934 -9.008,1.97066 -12.104,3.65866 -3.096,1.68934 -11.54,10.13334 -15.19867,12.66667 -3.66,2.53333 -12.66667,11.26 -14.91867,13.22933 -2.252,1.97067 -3.94133,2.81467 -4.22133,3.94134 -0.28267,1.12533 -2.816,8.72533 -5.63067,10.41333 0,0 -3.94,4.22267 -6.192,3.09733 0,0 -3.94133,4.784 -3.94133,1.40667 0,-3.37733 0,-9.288 -5.34666,-9.288 -5.348,0 -3.09734,-1.12667 0.844,-3.096 3.94,-1.97067 6.192,-6.756 7.88133,-9.852 1.68933,-3.096 2.25066,-8.444 2.25066,-8.444 0,0 -6.19199,3.096 -11.82133,0.56267 -5.62933,-2.53334 -6.47333,0.28133 -14.636,-3.096 0,0 -6.192,9.288 -11.82266,10.97733 -5.62934,1.68933 -9.56934,-1.97067 -10.41467,-8.72533 -0.844,-6.756 -2.252,-12.66667 -4.784,-18.01467 -2.53333,-5.348 -5.36533,-16.00933 -4.78533,-22.79867" /><path
       id="path264"
       style="fill:none;stroke:#701d46;stroke-width:0.466667;stroke-linecap:butt;stroke-linejoin:miter;stroke-miterlimit:10;stroke-dasharray:none;stroke-opacity:1"
       d="m 278.73733,229.38001 c 0,0 0.56266,-19.98533 7.6,-24.48933 7.036,-4.50267 11.54,-10.976 20.26533,-11.82133 8.72667,-0.84533 4.78533,2.81467 4.78533,2.81467 0,0 10.13334,-4.78534 16.044,-4.22134 5.91067,0.56134 8.444,1.96934 12.38533,1.12534 3.94,-0.844 14.35467,2.53333 33.776,-14.35467 19.42134,-16.88933 42.50267,-26.45867 42.784,-21.392 0.28134,5.06667 14.91867,-4.78533 19.984,-4.504 5.06667,0.28133 0,6.47333 0,6.47333 0,0 27.02267,1.12667 27.304,5.62934 0,0 6.47333,2.53333 2.81334,5.63066 0,0 23.08133,14.07334 25.61466,28.14667 2.53333,14.07333 -8.16267,5.62933 -8.16267,5.62933 0,0 12.38534,25.05067 4.78534,22.236 -7.6,-2.81467 -3.37867,1.12667 -6.756,8.444 -3.37734,7.31867 -20.54667,30.68133 -27.30267,34.05867 -6.75466,3.37866 -9.00666,20.26666 -12.66533,23.92533 0,0 -5.34933,3.096 -5.63067,4.504 -0.28,1.40667 -1.688,11.82133 -2.81466,10.41467 -1.12534,-1.408 -2.25067,-4.78534 -2.25067,-4.78534 0,0 -3.94133,7.88 -3.94133,3.65867 0,-4.22267 0,-4.22267 0,-4.22267 0,0 -7.03734,2.53334 -4.78534,-0.28133 2.252,-2.81467 6.19334,-6.192 7.6,-9.85067 1.408,-3.66 5.348,-15.2 5.06667,-19.14 -0.28133,-3.94133 -12.384,-11.25866 -14.636,-22.8 0,0 -1.72667,-4.53733 -10.696,0.84534 -2.816,1.688 -3.09733,2.532 -8.444,0.28 0,0 -4.78533,3.37866 -7.88133,1.408 -3.09734,-1.96934 -9.008,1.97066 -12.104,3.65866 -3.096,1.68934 -11.54,10.13334 -15.19867,12.66667 -3.66,2.53333 -12.66667,11.26 -14.91867,13.22933 -2.252,1.97067 -3.94133,2.81467 -4.22133,3.94134 -0.28267,1.12533 -2.816,8.72533 -5.63067,10.41333 0,0 -3.94,4.22267 -6.192,3.09733 0,0 -3.94133,4.784 -3.94133,1.40667 0,-3.37733 0,-9.288 -5.34666,-9.288 -5.348,0 -3.09734,-1.12667 0.844,-3.096 3.94,-1.97067 6.192,-6.756 7.88133,-9.852 1.68933,-3.096 2.25066,-8.444 2.25066,-8.444 0,0 -6.19199,3.096 -11.82133,0.56267 -5.62933,-2.53334 -6.47333,0.28133 -14.636,-3.096 0,0 -6.192,9.288 -11.82266,10.97733 -5.62934,1.68933 -9.56934,-1.97067 -10.41467,-8.72533 -0.844,-6.756 -2.252,-12.66667 -4.784,-18.01467 -2.53333,-5.348 -5.36533,-16.00933 -4.78533,-22.79867 z" /><path
       id="path266"
       style="fill:#444e9e;fill-opacity:1;fill-rule:nonzero;stroke:none;stroke-width:0.133333"
       d="m 316.60266,262.54801 c -2.908,2.548 -4.748,4.38934 -5.76667,5.464 2.94267,1.19334 5.29067,1.476 6.892,1.604 4.91067,-5.10533 10.75067,-18.69466 10.75067,-18.69466 -1.82667,2.82133 -7.04667,7.39333 -11.876,11.62666" /><path
       id="path268"
       style="fill:#444e9e;fill-opacity:1;fill-rule:nonzero;stroke:none;stroke-width:0.133333"
       d="m 419.78532,237.88268 c 0,0 -16.24666,3.312 -25.58,7.36 -9.33333,4.048 -17.792,14.97467 -18.41466,15.52133 h 10e-4 c 2.31867,-2.044 4.436,-3.824 5.68267,-4.504 3.096,-1.68933 9.00666,-5.62933 12.104,-3.65866 3.096,1.96933 7.88133,-1.408 7.88133,-1.408 5.34667,2.252 5.628,1.408 8.444,-0.28134 7.296,-4.37866 9.8,-2.192 10.48,-1.224 -1.024,-5.04266 -0.59867,-11.80533 -0.59867,-11.80533" /><path
       id="path270"
       style="fill:#e4f6f6;fill-opacity:1;fill-rule:nonzero;stroke:none;stroke-width:0.133333"
       d="m 314.75999,264.06535 c 3.33734,-3.03734 17,-12.34134 17.88934,-23.2 0.88933,-10.85867 -6,-15.91867 -13.77734,-15.91867 -7.77866,0 -11.66666,-4.77867 -17.44533,-17.556 -5.77733,-12.77733 -14.22133,7 -17.352,13.86533 -2.48933,5.45867 -4.43733,5.20134 -5.13333,4.86667 -0.168,1.97867 -0.204,3.25733 -0.204,3.25733 -0.58,6.78934 2.252,17.45067 4.78533,22.79867 2.532,5.348 3.94,11.25867 4.784,18.01467 0.84533,6.75466 4.78533,10.41466 10.41467,8.72533 5.63066,-1.68933 11.45733,-10.45067 11.45733,-10.45067 0.032,0.012 0.42267,-0.50533 0.45333,-0.49333 0.81467,-0.94 1.62,-1.62667 4.128,-3.90933" /><path
       id="path272"
       style="fill:none;stroke:#701d46;stroke-width:0.466667;stroke-linecap:butt;stroke-linejoin:miter;stroke-miterlimit:10;stroke-dasharray:none;stroke-opacity:1"
       d="m 314.75999,264.06535 c 3.33734,-3.03734 17,-12.34134 17.88934,-23.2 0.88933,-10.85867 -6,-15.91867 -13.77734,-15.91867 -7.77866,0 -11.66666,-4.77867 -17.44533,-17.556 -5.77733,-12.77733 -14.22133,7 -17.352,13.86533 -2.48933,5.45867 -4.43733,5.20134 -5.13333,4.86667 -0.168,1.97867 -0.204,3.25733 -0.204,3.25733 -0.58,6.78934 2.252,17.45067 4.78533,22.79867 2.532,5.348 3.94,11.25867 4.784,18.01467 0.84533,6.75466 4.78533,10.41466 10.41467,8.72533 5.63066,-1.68933 11.45733,-10.45067 11.45733,-10.45067 0.032,0.012 0.42267,-0.50533 0.45333,-0.49333 0.81467,-0.94 1.62,-1.62667 4.128,-3.90933 z" /><path
       id="path274"
       style="fill:#e4f6f6;fill-opacity:1;fill-rule:nonzero;stroke:none;stroke-width:0.133333"
       d="m 278.89599,234.70135 c 0,0 9.31867,-0.536 10.35067,11.28533 0,0 0.35333,7.46667 -4.11067,10.08267 0,0 -3.436,-7.58134 -4.47866,-11.98134 -1.044,-4.39733 -1.76134,-9.38666 -1.76134,-9.38666" /><path
       id="path276"
       style="fill:none;stroke:#701d46;stroke-width:0.466667;stroke-linecap:butt;stroke-linejoin:miter;stroke-miterlimit:10;stroke-dasharray:none;stroke-opacity:1"
       d="m 278.89599,234.70135 c 0,0 9.31867,-0.536 10.35067,11.28533 0,0 0.35333,7.46667 -4.11067,10.08267 0,0 -3.436,-7.58134 -4.47866,-11.98134 -1.044,-4.39733 -1.76134,-9.38666 -1.76134,-9.38666 z" /><path
       id="path278"
       style="fill:#e4f6f6;fill-opacity:1;fill-rule:nonzero;stroke:none;stroke-width:0.133333"
       d="m 309.84266,251.69868 c -1.39467,-0.25867 -2.716,-0.87467 -3.76133,-1.832 -2.052,-1.87733 -4.72,-5.74 -2.808,-12.29333 2.90666,-9.96667 12.25066,-7.89067 14.32666,-7.06 2.076,0.83066 8.30534,6.22933 5.81334,12.87333 -2.30534,6.14933 -6.39067,9.64133 -13.57067,8.312" /><path
       id="path280"
       style="fill:none;stroke:#701d46;stroke-width:0.466667;stroke-linecap:butt;stroke-linejoin:miter;stroke-miterlimit:10;stroke-dasharray:none;stroke-opacity:1"
       d="m 309.84266,251.69868 c -1.39467,-0.25867 -2.716,-0.87467 -3.76133,-1.832 -2.052,-1.87733 -4.72,-5.74 -2.808,-12.29333 2.90666,-9.96667 12.25066,-7.89067 14.32666,-7.06 2.076,0.83066 8.30534,6.22933 5.81334,12.87333 -2.30534,6.14933 -6.39067,9.64133 -13.57067,8.312 z" /><path
       id="path282"
       style="fill:#701d46;fill-opacity:1;fill-rule:nonzero;stroke:none;stroke-width:0.133333"
       d="m 323.41333,243.38668 c 2.492,-6.644 -3.73734,-12.04267 -5.81334,-12.87333 -1.06,-0.424 -4.01466,-1.16934 -7.04,-0.47334 -1.704,1.27334 -3.16933,3.304 -3.54933,6.55067 -0.916,7.82533 1.56667,15.204 11.28133,13.84533 2.288,-1.464 3.94134,-3.90266 5.12134,-7.04933" /><path
       id="path284"
       style="fill:#701d46;fill-opacity:1;fill-rule:nonzero;stroke:none;stroke-width:0.133333"
       d="m 289.24666,245.98668 c -0.784,-8.98667 -5.28933,-9.972 -7.844,-11.11067 -0.944,2.364 -1.98933,13.756 6.508,18.02134 1.34133,-2.17067 1.336,-6.91067 1.336,-6.91067" /><path
       id="path286"
       style="fill:#f03664;fill-opacity:1;fill-rule:nonzero;stroke:none;stroke-width:0.133333"
       d="m 302.61599,270.16801 c -2.80933,0.33334 -6.63333,-4.33333 -9.744,-5.888 -2.604,-1.30266 -4.192,3.68934 -4.64133,5.35334 0.024,0.188 0.0533,0.37066 0.076,0.56 0.84533,6.75466 4.78533,10.41466 10.41467,8.72533 2.63066,-0.78933 5.37466,-3.23467 7.56133,-5.61867 -0.17733,-0.79733 -1.15067,-3.42933 -3.66667,-3.132" /><path
       id="path288"
       style="fill:none;stroke:#701d46;stroke-width:0.466667;stroke-linecap:butt;stroke-linejoin:miter;stroke-miterlimit:10;stroke-dasharray:none;stroke-opacity:1"
       d="m 302.61599,270.16801 c -2.80933,0.33334 -6.63333,-4.33333 -9.744,-5.888 -2.604,-1.30266 -4.192,3.68934 -4.64133,5.35334 0.024,0.188 0.0533,0.37066 0.076,0.56 0.84533,6.75466 4.78533,10.41466 10.41467,8.72533 2.63066,-0.78933 5.37466,-3.23467 7.56133,-5.61867 -0.17733,-0.79733 -1.15067,-3.42933 -3.66667,-3.132 z" /><path
       id="path290"
       style="fill:#38386a;fill-opacity:1;fill-rule:nonzero;stroke:none;stroke-width:0.133333"
       d="m 316.54533,208.70668 c 0,0 1.45333,-17.73733 12.17866,-17.728 10.72667,0.008 12.36533,7.63334 11.29067,11.60133 -1.07467,3.96667 -6.508,11.38267 -9.79333,12.54534 -3.28534,1.16266 -13.88,-1.54 -13.676,-6.41867" /><path
       id="path292"
       style="fill:none;stroke:#701d46;stroke-width:0.466667;stroke-linecap:butt;stroke-linejoin:miter;stroke-miterlimit:10;stroke-dasharray:none;stroke-opacity:1"
       d="m 316.54533,208.70668 c 0,0 1.45333,-17.73733 12.17866,-17.728 10.72667,0.008 12.36533,7.63334 11.29067,11.60133 -1.07467,3.96667 -6.508,11.38267 -9.79333,12.54534 -3.28534,1.16266 -13.88,-1.54 -13.676,-6.41867 z" /><path
       id="path294"
       style="fill:none;stroke:#701d46;stroke-width:0.466667;stroke-linecap:round;stroke-linejoin:miter;stroke-miterlimit:10;stroke-dasharray:none;stroke-opacity:1"
       d="m 295.88799,275.48135 c 0.39734,-0.49734 -0.84133,-2.884 1.368,-3.28134 2.212,-0.39733 0,3.28134 0,3.28134" /><path
       id="path296"
       style="fill:none;stroke:#701d46;stroke-width:0.466667;stroke-linecap:round;stroke-linejoin:miter;stroke-miterlimit:10;stroke-dasharray:none;stroke-opacity:1"
       d="m 334.86666,223.27735 c 0,0 4.89333,4.972 5.42933,7.556 0.536,2.58533 -1.452,2.78533 -1.452,2.78533 0,0 0.59733,8.55067 -4.872,14.02 -5.46933,5.46933 -8.35466,9.248 -8.70133,9.944" /><path
       id="path298"
       style="fill:none;stroke:#e4f6f6;stroke-width:0.466667;stroke-linecap:round;stroke-linejoin:miter;stroke-miterlimit:10;stroke-dasharray:none;stroke-opacity:1"
       d="m 321.49466,213.94668 c 0,0 -2.04133,-12.944 4.42267,-14.63466 6.464,-1.68934 1.19333,8.94933 1.19333,8.94933 0,0 1.96133,-2.54934 2.02533,1.56 0.0627,4.108 -2.12533,5.572 -2.12533,5.572" /><path
       id="path300"
       style="fill:none;stroke:#701d46;stroke-width:0.466667;stroke-linecap:round;stroke-linejoin:miter;stroke-miterlimit:10;stroke-dasharray:none;stroke-opacity:1"
       d="m 337.00132,270.47468 c 0,0 0.252,-15.17867 7.212,-21.24533" /><path
       id="path302"
       style="fill:none;stroke:#701d46;stroke-width:0.466667;stroke-linecap:round;stroke-linejoin:miter;stroke-miterlimit:10;stroke-dasharray:none;stroke-opacity:1"
       d="m 420.59999,250.20801 c 0,0 -1.21333,-1.912 -0.81467,-12.184" /><path
       id="path304"
       style="fill:none;stroke:#701d46;stroke-width:0.466667;stroke-linecap:round;stroke-linejoin:miter;stroke-miterlimit:10;stroke-dasharray:none;stroke-opacity:1"
       d="m 489.81465,237.74535 c 0,0 6.74134,-2.99734 6.192,-13.65467" /><path
       id="path306"
       style="fill:none;stroke:#701d46;stroke-width:0.466667;stroke-linecap:round;stroke-linejoin:miter;stroke-miterlimit:10;stroke-dasharray:none;stroke-opacity:1"
       d="m 498.26932,241.29868 c 0.34933,0.128 5.51333,-1.188 5.17867,-12.73733" /><path
       id="path308"
       style="fill:none;stroke:#701d46;stroke-width:0.466667;stroke-linecap:round;stroke-linejoin:miter;stroke-miterlimit:10;stroke-dasharray:none;stroke-opacity:1"
       d="m 509.26265,244.86001 c 0,0 4.93734,-3.42133 2.576,-12.10533" /><path
       id="path310"
       style="fill:none;stroke:#701d46;stroke-width:0.466667;stroke-linecap:round;stroke-linejoin:miter;stroke-miterlimit:10;stroke-dasharray:none;stroke-opacity:1"
       d="m 518.77999,247.15468 c 0,0 3.51466,-2.668 1.332,-11.13467" /><path
       id="path312"
       style="fill:none;stroke:#701d46;stroke-width:0.466667;stroke-linecap:round;stroke-linejoin:miter;stroke-miterlimit:10;stroke-dasharray:none;stroke-opacity:1"
       d="m 525.48532,248.24401 c 0,0 2.67467,-1.44 1.33733,-10.22" /><path
       id="path314"
       style="fill:none;stroke:#701d46;stroke-width:0.466667;stroke-linecap:round;stroke-linejoin:miter;stroke-miterlimit:10;stroke-dasharray:none;stroke-opacity:1"
       d="m 534.42265,249.10935 c 0,0 3.08534,-4.59734 -0.39066,-9.59734" /><path
       id="path316"
       style="fill:none;stroke:#701d46;stroke-width:0.466667;stroke-linecap:round;stroke-linejoin:miter;stroke-miterlimit:10;stroke-dasharray:none;stroke-opacity:1"
       d="m 544.14265,249.61335 c 0,0 2.524,-2.30934 0.83334,-8.308" /><path
       id="path318"
       style="fill:none;stroke:#701d46;stroke-width:0.466667;stroke-linecap:round;stroke-linejoin:miter;stroke-miterlimit:10;stroke-dasharray:none;stroke-opacity:1"
       d="m 539.80132,249.40935 c 0,0 2.90133,-2.252 0.608,-8.872" /><path
       id="path320"
       style="fill:none;stroke:#701d46;stroke-width:0.466667;stroke-linecap:round;stroke-linejoin:miter;stroke-miterlimit:10;stroke-dasharray:none;stroke-opacity:1"
       d="m 549.51465,249.92668 c 0,0 2.25067,-3.78933 0,-7.812" /><path
       id="path322"
       style="fill:none;stroke:#701d46;stroke-width:0.466667;stroke-linecap:round;stroke-linejoin:miter;stroke-miterlimit:10;stroke-dasharray:none;stroke-opacity:1"
       d="m 556.72665,250.70401 c 0,0 2.86534,-2.26266 1.872,-6.39333" /><path
       id="path324"
       style="fill:none;stroke:#701d46;stroke-width:0.466667;stroke-linecap:round;stroke-linejoin:miter;stroke-miterlimit:10;stroke-dasharray:none;stroke-opacity:1"
       d="m 552.73199,249.92668 c 0,0 3.35066,-2.74667 2.02266,-6.792" /><path
       id="path326"
       style="fill:none;stroke:#701d46;stroke-width:0.466667;stroke-linecap:round;stroke-linejoin:miter;stroke-miterlimit:10;stroke-dasharray:none;stroke-opacity:1"
       d="m 562.92132,251.84668 c 0,0 2.644,-2.6 1.44667,-6.38667" /><path
       id="path328"
       style="fill:none;stroke:#701d46;stroke-width:0.466667;stroke-linecap:round;stroke-linejoin:miter;stroke-miterlimit:10;stroke-dasharray:none;stroke-opacity:1"
       d="m 570.32532,247.50668 c 0,0 2.08,3.16133 -1.492,5.92267" /><path
       id="path330"
       style="fill:none;stroke:#701d46;stroke-width:0.466667;stroke-linecap:round;stroke-linejoin:miter;stroke-miterlimit:10;stroke-dasharray:none;stroke-opacity:1"
       d="m 573.43865,255.03201 c 0,0 3.86534,-0.34133 2.916,-4.56266" /><path
       id="path332"
       style="fill:none;stroke:#701d46;stroke-width:0.466667;stroke-linecap:round;stroke-linejoin:miter;stroke-miterlimit:10;stroke-dasharray:none;stroke-opacity:1"
       d="m 578.16532,257.03468 c 0,0 2.508,-0.20133 2.40933,-3.60533" /><path
       id="path334"
       style="fill:none;stroke:#701d46;stroke-width:0.466667;stroke-linecap:round;stroke-linejoin:miter;stroke-miterlimit:10;stroke-dasharray:none;stroke-opacity:1"
       d="m 582.57999,259.24135 c 0,0 2.528,-0.644 1.75333,-3.388" /><path
       id="path336"
       style="fill:none;stroke:#701d46;stroke-width:0.466667;stroke-linecap:round;stroke-linejoin:miter;stroke-miterlimit:10;stroke-dasharray:none;stroke-opacity:1"
       d="m 585.54265,260.90401 c 0,0 1.804,0.188 1.89734,-2.61066" /><path
       id="path338"
       style="fill:none;stroke:#701d46;stroke-width:0.466667;stroke-linecap:round;stroke-linejoin:miter;stroke-miterlimit:10;stroke-dasharray:none;stroke-opacity:1"
       d="m 588.95465,262.79868 c 0,0 1.96267,0.24 1.464,-1.892" /><path
       id="path340"
       style="fill:none;stroke:#701d46;stroke-width:0.466667;stroke-linecap:round;stroke-linejoin:miter;stroke-miterlimit:10;stroke-dasharray:none;stroke-opacity:1"
       d="m 507.93999,230.91735 c 0,0 1.03866,3.496 -0.55067,5.584" /><path
       id="path342"
       style="fill:none;stroke:#701d46;stroke-width:0.466667;stroke-linecap:round;stroke-linejoin:miter;stroke-miterlimit:10;stroke-dasharray:none;stroke-opacity:1"
       d="m 485.90665,235.61335 c 0,0 2.192,-1.896 2.58934,-4.18267" /><path
       id="path344"
       style="fill:none;stroke:#701d46;stroke-width:0.466667;stroke-linecap:round;stroke-linejoin:miter;stroke-miterlimit:10;stroke-dasharray:none;stroke-opacity:1"
       d="m 514.43199,246.21735 c 0,0 1.948,-3.13734 1.67866,-5.68" /><path
       id="path346"
       style="fill:none;stroke:#701d46;stroke-width:0.466667;stroke-linecap:round;stroke-linejoin:miter;stroke-miterlimit:10;stroke-dasharray:none;stroke-opacity:1"
       d="m 524.40132,237.36801 c 0,0 0.40533,3.00134 0,4.74667" /><path
       id="path348"
       style="fill:none;stroke:#701d46;stroke-width:0.466667;stroke-linecap:round;stroke-linejoin:miter;stroke-miterlimit:10;stroke-dasharray:none;stroke-opacity:1"
       d="m 530.26399,248.77868 c 0,0 1.57733,-2.58667 1.08933,-6.21067" /><path
       id="path350"
       style="fill:none;stroke:#701d46;stroke-width:0.466667;stroke-linecap:round;stroke-linejoin:miter;stroke-miterlimit:10;stroke-dasharray:none;stroke-opacity:1"
       d="m 538.23065,240.18135 c 0,0 0.51334,2.38666 0,3.67866" /><path
       id="path352"
       style="fill:none;stroke:#701d46;stroke-width:0.466667;stroke-linecap:round;stroke-linejoin:miter;stroke-miterlimit:10;stroke-dasharray:none;stroke-opacity:1"
       d="m 559.87199,251.22268 c 0,0 1.51066,-1.67733 1.51066,-2.97867" /><path
       id="path354"
       style="fill:none;stroke:#701d46;stroke-width:0.466667;stroke-linecap:round;stroke-linejoin:miter;stroke-miterlimit:10;stroke-dasharray:none;stroke-opacity:1"
       d="m 568.34265,246.74801 c 0,0 0.59467,1.45867 0,2.86534" /><path
       id="path356"
       style="fill:none;stroke:#701d46;stroke-width:0.466667;stroke-linecap:round;stroke-linejoin:miter;stroke-miterlimit:10;stroke-dasharray:none;stroke-opacity:1"
       d="m 571.95732,254.48001 c 0,0 1.70533,-0.97466 1.48133,-2.26666" /><path
       id="path358"
       style="fill:none;stroke:#701d46;stroke-width:0.466667;stroke-linecap:round;stroke-linejoin:miter;stroke-miterlimit:10;stroke-dasharray:none;stroke-opacity:1"
       d="m 565.86799,252.57201 c 0,0 0.984,-0.792 1.28133,-1.868" /><path
       id="path360"
       style="fill:none;stroke:#701d46;stroke-width:0.466667;stroke-linecap:round;stroke-linejoin:miter;stroke-miterlimit:10;stroke-dasharray:none;stroke-opacity:1"
       d="m 505.90532,243.86001 c 0,0 1.67333,-1.17733 1.92533,-3.32266" /><path
       id="path362"
       style="fill:none;stroke:#701d46;stroke-width:0.466667;stroke-linecap:round;stroke-linejoin:miter;stroke-miterlimit:10;stroke-dasharray:none;stroke-opacity:1"
       d="m 500.02665,226.59601 c 0,0 0.20267,3.904 -0.89066,6.15867" /><path
       id="path364"
       style="fill:none;stroke:#701d46;stroke-width:0.466667;stroke-linecap:round;stroke-linejoin:miter;stroke-miterlimit:10;stroke-dasharray:none;stroke-opacity:1"
       d="m 493.93999,222.71735 c 0,0 0.86933,3.38933 0,4.41066" /><path
       id="path366"
       style="fill:none;stroke:#701d46;stroke-width:0.466667;stroke-linecap:round;stroke-linejoin:miter;stroke-miterlimit:10;stroke-dasharray:none;stroke-opacity:1"
       d="m 579.17199,252.21335 c 0,0 -0.388,1.452 -1.38134,2.26666" /><path
       id="path368"
       style="fill:none;stroke:#701d46;stroke-width:0.466667;stroke-linecap:round;stroke-linejoin:miter;stroke-miterlimit:10;stroke-dasharray:none;stroke-opacity:1"
       d="m 581.16265,258.49735 c 0,0 1.33467,-0.52 1.41734,-1.46267" /></g></svg>
