<?xml version="1.0" encoding="UTF-8" standalone="no"?>
<svg
   xmlns:dc="http://purl.org/dc/elements/1.1/"
   xmlns:cc="http://creativecommons.org/ns#"
   xmlns:rdf="http://www.w3.org/1999/02/22-rdf-syntax-ns#"
   xmlns:svg="http://www.w3.org/2000/svg"
   xmlns="http://www.w3.org/2000/svg"
   xmlns:sodipodi="http://sodipodi.sourceforge.net/DTD/sodipodi-0.dtd"
   xmlns:inkscape="http://www.inkscape.org/namespaces/inkscape"
   viewBox="0 0 511.99999 511.99999"
   height="512"
   width="512"
   xml:space="preserve"
   id="svg2"
   version="1.1"
   sodipodi:docname="Pheasant.svg"
   inkscape:version="1.0.2 (e86c870879, 2021-01-15, custom)"><sodipodi:namedview
     pagecolor="#ffffff"
     bordercolor="#666666"
     borderopacity="1"
     objecttolerance="10"
     gridtolerance="10"
     guidetolerance="10"
     inkscape:pageopacity="0"
     inkscape:pageshadow="2"
     inkscape:window-width="1366"
     inkscape:window-height="715"
     id="namedview52146"
     showgrid="false"
     inkscape:zoom="0.86617489"
     inkscape:cx="290.12754"
     inkscape:cy="234.7191"
     inkscape:window-x="-8"
     inkscape:window-y="-8"
     inkscape:window-maximized="1"
     inkscape:current-layer="svg2" /><metadata
     id="metadata8"><rdf:RDF><cc:Work
         rdf:about=""><dc:format>image/svg+xml</dc:format><dc:type
           rdf:resource="http://purl.org/dc/dcmitype/StillImage" /><dc:title></dc:title></cc:Work></rdf:RDF></metadata><defs
     id="defs6"><clipPath
       id="clipPath20"
       clipPathUnits="userSpaceOnUse"><path
         id="path18"
         d="m 19913.8,6841.5 c 0,0 306.4,6181 -1313.1,6093.5 -1619.6,-87.6 -1550.9,-1356.1 -2426.4,393.9 -875.4,1750 -1615,2373.9 -2454.2,2516.9 -2954.6,503.4 -2932.7,-3217.2 -4289.66,-2801.4 C 8073.55,13460.2 7635.82,14510.8 6497.74,14073 5359.67,13635.3 3915.2,9756.22 4134.06,6804.2 Z" /></clipPath><linearGradient
       id="linearGradient28"
       spreadMethod="pad"
       gradientTransform="matrix(-245.828,-7566.65,7566.65,-245.828,12289.1,15690)"
       gradientUnits="userSpaceOnUse"
       y2="0"
       x2="1"
       y1="0"
       x1="0"><stop
         id="stop24"
         offset="0"
         style="stop-opacity:1;stop-color:#a2e0e7" /><stop
         id="stop26"
         offset="1"
         style="stop-opacity:1;stop-color:#d1f0f3" /></linearGradient></defs><g
     id="g52752"
     transform="matrix(-0.44183265,0,0,0.44183265,1312.4229,-352.19475)"><g
       transform="matrix(0.141504,0,0,-0.141504,0,2530.6667)"
       id="g156"><path
         id="path158"
         style="fill:#595843;fill-opacity:1;fill-rule:nonzero;stroke:none"
         d="m 15603.9,7305.22 c -7.1,-19.13 120.2,-533.98 149,-617.84 29,-83.67 53.8,-287.29 103.6,-311.23 49.8,-23.93 181.3,-101.76 228.6,-113.73 47.3,-11.96 133,-6.03 174,-35.99 40.9,-29.87 0,-41.93 0,-41.93 0,0 -390.8,41.93 -457.6,35.99 -67,-5.93 -391.8,-11.96 -409,-11.96 -17.2,0 -232.9,-24.03 -232.9,-24.03 0,0 46.4,65.96 83.2,83.86 36.7,18 446.6,59.93 472.2,89.8 25.5,29.96 -64.1,294.55 -85.5,386.79 -21.3,92.16 -161,523.24 -180.6,535.21 -19.7,11.96 155,25.06 155,25.06" /></g><g
       transform="matrix(0.1375,0,0,-0.1375,0,2530.6667)"
       id="g160"><path
         id="path162"
         style="fill:#3d3c2c;fill-opacity:1;fill-rule:nonzero;stroke:none"
         d="m 16172.7,6543.35 c 26.3,30.84 -66,303.13 -88,398.06 -21.9,94.84 -165.7,538.48 -185.9,550.79 -20.2,12.32 159.6,25.8 159.6,25.8 -4.8,-13.1 51.6,-252.71 98.8,-436.66 -15.5,-32.87 -27.8,-67.01 -27.2,-90.86 1.6,-61.67 80.3,-357.33 99.4,-425.21 19.2,-67.69 70.6,-86.21 -19.8,-86.21 -90.4,0 -254.3,16.68 -254.3,16.68 105.8,16 205,33.16 217.4,47.61" /></g><g
       transform="matrix(0.14308533,0,0,-0.14308533,0,2530.6667)"
       id="g164"><path
         id="path166"
         style="fill:#6d6d53;fill-opacity:1;fill-rule:nonzero;stroke:none"
         d="m 15688.2,6914.7 c 0,0 33,-189.45 91.5,-301.92 58.4,-112.48 191.6,-136.24 234.5,-159.91 0,0 68.1,-47.34 88.1,0 0,0 -60,23.67 -88.1,47.43 -28,23.67 -126.7,88.71 -126.7,88.71 0,0 193.6,-59.17 267.5,-59.17 73.9,0 133.2,11.84 145,29.63 0,0 -112.3,0 -145,23.67 -32.6,23.77 -254.4,106.61 -267.5,203.24 0,0 100.6,-61.13 241.7,-72.97 0,0 -173.8,100.65 -226.5,177.61 -52.7,76.98 -98.5,35.51 -123,88.81 -24.5,53.3 -91.5,293.16 -91.5,293.16 h -111.1 c 0,0 81.6,-299.12 111.1,-358.29" /></g><g
       transform="matrix(0.14100666,0,0,-0.14100666,0,2530.6667)"
       id="g168"><path
         id="path170"
         style="fill:#595843;fill-opacity:1;fill-rule:nonzero;stroke:none"
         d="m 15815.1,7349.14 37.5,31.02 h 66.8 c 0,0 53.2,-190.54 82.6,-271.86 -7.7,-9.36 -14,-20.52 -16.4,-33.38 -9.1,-48.13 0.8,-72.14 19.9,-156.21 19.1,-84.15 79.8,-178.62 87,-240.36 7.1,-61.56 176,-87.09 207.5,-151.2 -24.5,3.31 -49.8,20.8 -49.8,20.8 -43.5,24.02 -178.7,48.13 -238,162.26 -59.3,114.14 -92.8,306.37 -92.8,306.37 -24.1,48.32 -82.4,253.79 -104.3,332.56" /></g><g
       transform="matrix(0.17531733,0,0,-0.17531733,0,2530.6667)"
       id="g172"><path
         id="path174"
         style="fill:#3d2e2d;fill-opacity:1;fill-rule:nonzero;stroke:none"
         d="m 11569.3,8136.44 c 0,0 9.7,78.22 173.9,10.56 164.3,-67.65 217.6,-50.29 285.2,-88.99 67.6,-38.6 28.9,-96.64 0,-164.25 -29,-67.65 -125.7,0 -125.7,0 0,0 48.3,-67.65 48.3,-173.99 0,-106.26 55.8,-367.21 114.9,-473.51 0,0 262.1,183.6 909.5,-48.31 647.6,-231.99 1034.1,-599.19 1121.1,-657.22 87,-57.95 560.5,-202.91 850.5,-280.25 289.9,-77.35 1179.1,-280.25 1266,-367.26 87,-86.93 -125.6,0 -173.9,0 -48.3,0 -425.2,202.99 -666.9,193.33 -241.6,-9.66 -850.5,135.29 -1082.4,251.27 0,0 135.3,-164.27 58,-144.95 -77.3,19.32 -299.6,77.27 -299.6,77.27 0,0 309.3,-193.25 328.6,-202.99 0,0 -261,19.4 -318.9,48.37 0,0 115.9,-86.93 164.3,-144.95 0,0 -172.7,125.64 -313.4,135.29 l 81.4,-77.27 c 0,0 -270.6,0 -289.9,9.59 -19.4,9.73 164.3,-67.61 115.9,-67.61 -48.3,0 -241.5,0 -309.2,0 -67.6,0 67.7,-58.03 38.6,-67.61 -28.9,-9.74 -289.9,-67.69 -231.9,-48.37 0,0 87,-77.35 58,-67.61 -29,9.65 -164.3,-1.75 -222.2,-0.84 0,0 -415.7,20.15 -473.6,10.49 0,0 158.3,-135.29 79.1,-67.68 l -156.4,48.29 c 0,0 77.3,-57.26 38.6,-67.23 -38.6,-10.04 -135.3,0 -135.3,0 l 77.3,-77.72 -164.3,77.34 19.4,-77.34 c 0,0 -203,135.29 -241.7,164.34 l 38.7,-106.32 -100.4,94.84 -73.6,69.44 29,-115.98 c 0,0 -164.3,183.59 -193.2,212.64 l 48.3,-144.96 c 0,0 -193.3,260.86 -261,309.23 -67.6,48.37 -376.9,309.23 -434.8,444.61 -58,135.29 -58,425.18 57.9,666.78 0,0 96.7,193.3 77.4,309.25 0,0 -116,9.7 -116,67.66 0,58 48.3,154.65 48.3,154.65 0,0 -193.3,9.64 -270.6,-29.01 0,0 48.3,135.26 270.6,231.91 0,0 14.5,237.86 256.1,175.07" /></g><g
       transform="matrix(0.154632,0,0,-0.154632,0,2530.6667)"
       id="g176"><path
         id="path178"
         style="fill:#1e0f0e;fill-opacity:1;fill-rule:nonzero;stroke:none"
         d="m 15346.6,7389.74 c 0,0 226.5,-152.44 358,-240.39 131.4,-87.87 190.3,-20.44 438.5,-174.7 77.1,-47.77 147.5,-91.14 156.9,-95.88 0,0 -295.8,21.99 -361.5,54.84 0,0 131.4,-98.56 186.2,-164.35 0,0 -195.7,142.45 -355.3,153.4 l 92.3,-87.61 c 0,0 -90.5,0 -176.8,1.73 -24.4,15.43 -50,28.45 -76.1,36.47 -122.4,37.6 -313.2,69.58 -408.3,103.3 -94.9,33.63 -186.2,115.37 -199.9,172.8 -13.8,57.42 -67.5,203.4 -63,233.32 l 409,7.07" /></g><g
       transform="matrix(0.14572666,0,0,-0.14572666,0,2530.6667)"
       id="g180"><path
         id="path182"
         style="fill:#c87549;fill-opacity:1;fill-rule:nonzero;stroke:none"
         d="m 14516,8601.39 c -53,61.85 -231.2,116.43 -80,220.89 9.8,6.87 19.3,13.66 28.4,20.44 16.3,-49.44 33.9,-93.05 51.6,-125.04 0,0 315.3,220.87 1094.2,-58.12 154.9,-55.47 297.1,-117.47 426.8,-181.61 -137.2,31.7 -283.7,63.7 -279.6,54.76 7.8,-16.74 542.6,-357.87 449.6,-334.54 -93,23.26 -162.7,36.06 -162.7,36.06 0,0 108.5,-90.31 85.2,-82.54 -23.3,7.78 -23.3,-46.57 -23.3,-46.57 0,0 186.1,-170.46 116.3,-162.77 -69.7,7.78 -178.2,-23.79 -255.7,-0.18 -77.5,23.42 -193.8,23.42 -279.1,31.2 0,0 124.1,-25.99 69.7,-40.08 -54.2,-14.18 -139.5,-40.16 -217,0 -77.5,40.08 -208.5,117.67 -383.3,226.18 -174.7,108.49 -229,124 -306.6,186 -77.5,61.96 -185.9,160.19 -131.7,169.26 54.2,8.97 341.1,-115.03 310.1,-76.26 -31.1,38.73 -224.9,139.5 -286.8,155.01 -62,15.5 -2.1,-123.71 -72.7,-60.77 -70.7,62.85 -100.3,6.83 -153.4,68.68" /></g><g
       transform="matrix(0.137284,0,0,-0.137284,0,2530.6667)"
       id="g184"><path
         id="path186"
         style="fill:#391022;fill-opacity:1;fill-rule:nonzero;stroke:none"
         d="m 16295.8,7310.23 4.2,-3.69 -4.2,3.69" /></g><g
       transform="matrix(0.13736533,0,0,-0.13736533,0,2530.6667)"
       id="g188"><path
         id="path190"
         style="fill:#391022;fill-opacity:1;fill-rule:nonzero;stroke:none"
         d="m 16290.3,7302.19 9.7,-8.25 -9.7,8.25" /></g><g
       transform="matrix(0.13742533,0,0,-0.13742533,0,2530.6667)"
       id="g192"><path
         id="path194"
         style="fill:#391022;fill-opacity:1;fill-rule:nonzero;stroke:none"
         d="m 16292.9,7290.77 7.1,-6.02 -7.1,6.02" /></g><g
       transform="matrix(0.15047466,0,0,-0.15047466,0,2530.6667)"
       id="g196"><path
         id="path198"
         style="fill:#391022;fill-opacity:1;fill-rule:nonzero;stroke:none"
         d="m 13102.2,7643.2 c -67.5,157.64 -67.5,495.39 67.5,776.88 0,0 18.5,37.02 39.1,90.16 244.2,-9.6 692.8,-22.69 692.8,-22.69 l 136.5,-144.41 c 0,0 231.3,-98.42 178.8,-97.06 -52.5,1.35 -88.5,36.1 -85.5,-0.05 2.9,-36.16 39.4,-58.64 9.9,-66.13 -29.5,-7.53 -86.9,0 -103.2,-30.07 -16.3,-30.02 53.9,-100.67 0,-106.61 -53.9,-5.99 -91.4,5.94 -121.4,0 -30.1,-5.99 -45.1,-3.92 -75.1,-68.79 -30.1,-64.78 -71.6,-154.72 -43.3,-173.59 28.3,-18.79 73.4,-48.82 208.5,-161.45 135.1,-112.62 217.6,-240.21 277.6,-382.79 60.2,-142.66 82.7,-202.73 150.2,-240.3 67.5,-37.48 240.2,-127.6 330.3,-135.13 90.1,-7.44 -37.5,67.61 0,67.61 37.5,0 97.6,37.57 180.2,30.04 82.5,-7.54 29.9,14.97 142.6,52.54 112.6,37.48 -120.1,225.07 -180.2,337.78 -60.1,112.62 -85.7,210.18 -69.1,180.14 16.6,-30.13 129.2,-112.62 249.3,-157.64 120.1,-45.1 -112.7,282.93 -60.1,220.28 52.6,-62.64 120.1,-130.25 135.2,-115.19 15,14.98 -15.1,162.87 0,115.19 15,-47.67 82.5,-115.19 120.1,-115.19 37.4,0 -37.6,105.09 0,52.55 37.4,-52.55 127.6,-120.16 150.1,-142.66 22.5,-22.51 -75.1,0 22.5,-22.51 97.6,-22.51 187.6,-82.58 330.3,-112.62 142.7,-29.95 316.3,-52.64 367.8,-105.09 16.8,-17.1 40.9,-34.91 66.6,-53.88 -5.1,0.63 -10.1,1.07 -15.1,1.42 l 94.9,-90.02 c 0,0 -287.7,0 -332.9,9.75 32.9,-13.29 177.7,-77.36 130.2,-77.36 -56.3,0 -281.5,0 -360.3,0 -78.8,0 78.8,-67.61 45,-78.77 -26.1,-8.78 -214.7,-51.4 -266.6,-59.55 17.5,-15.77 94,-85.68 63.9,-75.58 -33.7,11.25 -191.3,-2.04 -258.9,-0.98 0,0 -484.2,23.49 -551.7,12.23 0,0 65.1,-55.64 98.6,-84.27 l -6.4,5.41 -182.3,56.27 c 0,0 90.1,-66.73 45,-78.33 -45,-11.7 -157.6,0 -157.6,0 l 90,-90.56 -191.4,90.11 22.6,-90.11 c 0,0 -236.5,157.63 -281.6,191.48 l 45.1,-123.87 -117,110.49 -85.7,80.9 33.8,-135.13 c 0,0 -191.4,213.9 -225.2,247.75 l 56.3,-168.88 c 0,0 -225.2,303.92 -304,360.28 -78.8,56.35 -439.2,360.28 -506.7,518" /></g><path
       id="path200"
       style="fill:#290d19;fill-opacity:1;fill-rule:nonzero;stroke:none;stroke-width:0.133333"
       d="m 1971.5466,1380.5601 c -9.6933,-22.6134 -10.1333,-69.88 7.48,-110.944 5.8134,-5.52 11.6534,-4.976 28.0933,-3.6907 27.12,2.1067 60.2534,12.8347 60.2534,12.8347 l 26.9066,-11.28 v 24.948 c 0,0 -10.36,27.7733 -22.7733,32.2626 -12.4133,4.4814 -30.5333,11.5227 -38.4133,16.4827 -7.8934,4.9467 -11.28,6.4 -22.5734,6.24 -11.2933,-0.16 -26.9333,-2.64 -24.7599,5.9333 2.16,8.5867 -5.9734,11.9734 -0.2134,22.1467 5.76,10.16 22.7067,21.5733 32.8667,29.4267 10.1733,7.84 21.8533,22.52 26.1733,25.9066 4.3333,3.4 33.6933,15.2534 26.92,5.9334 -6.7733,-9.3067 -35.8533,-37.8934 -24.1333,-28.12 11.7066,9.7733 30.04,35.1866 30.48,28.12 0.44,-7.0534 -6.0934,-27.92 0,-17.48 6.08,10.4266 20.56,19.5333 25.9866,27.5333 5.4267,7.9733 22.12,9.2 26.0534,20.0933 3.9333,10.8934 7.8,25.64 1.2533,29.2267 -3.8133,2.0933 -8.9467,7.8133 -13.72,11.48 l -3.56,-3.36 1.2533,4.9733 c -2.5733,1.5867 -4.9466,2.24 -6.8133,0.9734 -0.7867,-0.5334 -2.0933,-1.08 -3.76,-1.6534 -8.0133,-8.8666 -16.8667,-18.64 -19.48,-21.24 l 5.8533,17.5734 c -1.32,-0.3067 -2.6666,-0.6267 -4.0133,-0.9467 -10.4667,-13.72 -30.5467,-39.3067 -39.12,-45.4267 -11.8533,-8.48 -66.08,-54.2133 -76.24,-77.9466" /><g
       transform="matrix(0.14975333,0,0,-0.14975333,0,2530.6667)"
       id="g202"><path
         id="path204"
         style="fill:#0b121d;fill-opacity:1;fill-rule:nonzero;stroke:none"
         d="m 14201.8,6772.75 -86.1,81.29 33.9,-135.77 c 0,0 -192.3,214.93 -226.2,248.94 l 56.5,-169.7 c 0,0 -226.2,305.39 -305.5,362.01 -5.7,4.1 -12.9,9.53 -21.3,16.03 31.1,-7.48 60.9,-10.42 81.7,-7.57 60.4,8.37 166,-102.74 250.1,-172.9 84.3,-70.07 29,9.88 -63.8,111.29 -92.6,101.41 236.1,-169.34 310,-198.1 73.8,-28.85 -89,111.74 -152.5,179.13 -63.6,67.4 146.5,-82.44 170.4,-56.71 23.8,25.73 -91.8,87.35 -164,153.68 -72.3,66.33 42,-21.1 104.1,-51.56 62.3,-30.54 -16.8,75.77 -50.8,104.8 -33.9,29.2 -101.9,99.18 -153.4,144.68 -51.6,45.59 93.7,-4.54 93.7,-4.54 0,0 -72.2,87.26 -139.6,139.61 -67.4,52.44 59.8,0.44 109.7,-24.84 50,-25.2 -110.3,108.27 -138.7,144.5 -28.5,36.15 28.4,-6.05 74.9,-37.84 46.6,-31.87 -23.9,77.02 -67.4,122.25 -43.4,45.23 -52.7,116.99 -83.9,158.39 -31.1,41.49 0,0 -0.8,81.56 -0.8,81.44 8.9,73.11 8.9,73.11 0,0 24,-9.47 64.8,-25.47 -30,-64.83 -69.6,-152.08 -41.7,-170.6 28.4,-18.88 73.7,-49.06 209.5,-162.22 135.7,-113.17 218.7,-241.38 278.9,-384.64 60.5,-143.34 83.1,-203.71 151,-241.46 67.8,-37.66 241.3,-128.21 331.9,-135.78 90.4,-7.48 -37.8,67.94 0,67.94 37.6,0 98,37.75 181,30.18 82.9,-7.57 30.1,15.05 143.2,52.8 113.2,37.66 -120.6,226.15 -181,339.4 -60.3,113.16 -86.1,211.19 -69.4,181.01 16.6,-30.27 129.8,-113.17 250.4,-158.4 65.6,-24.57 26.7,61.26 -14.3,134.8 158.6,-71.85 401.9,-206.47 477,-266.75 108.1,-86.72 577.4,-235.76 677,-237.19 -89,0.8 -226,2.94 -256,9.44 33.1,-13.35 178.5,-77.73 130.8,-77.73 -56.5,0 -282.8,0 -362,0 -79.2,0 79.2,-67.93 45.2,-79.15 -26.2,-8.81 -215.7,-51.64 -267.9,-59.83 17.6,-15.85 94.5,-86.1 64.3,-75.95 -33.9,11.31 -192.3,-2.05 -260.2,-0.98 0,0 -486.5,23.6 -554.4,12.29 0,0 57.8,-49.41 92.7,-79.24 l -183.1,56.54 c 0,0 90.4,-67.05 45.1,-78.71 -45.1,-11.76 -158.3,0 -158.3,0 l 90.5,-91 -192.4,90.55 22.7,-90.55 c 0,0 -237.7,158.4 -282.9,192.41 l 45.2,-124.47 -117.5,111.02" /></g><g
       transform="matrix(0.137248,0,0,-0.137248,0,2530.6667)"
       id="g206"><path
         id="path208"
         style="fill:#0b121d;fill-opacity:1;fill-rule:nonzero;stroke:none"
         d="m 16300,7312.1 -7,5.93 7,-5.93" /></g><path
       id="path210"
       style="fill:#eaf8fb;fill-opacity:1;fill-rule:nonzero;stroke:none;stroke-width:0.133333"
       d="m 2127.4266,1278.0627 c -3.3867,10.16 -18.64,3.9214 -24.5733,9.1587 -5.92,5.2373 -14.4,10.3267 -18.64,12.8693 -4.2267,2.536 -5.08,0 -11.8534,6.776 -6.7733,6.776 -4.2266,15.2454 -24.9866,18.6374 -20.76,3.392 -38.5467,0 -41.9467,0 -3.3733,0 -8.4666,3.2893 -12.6933,-5.136 -4.24,-8.416 -7.6267,-15.2 -6.7867,-20.2774 0.8534,-5.084 -0.1333,-12.8693 -0.1333,-12.8693 0,0 -3.2533,14.5627 -4.1067,20.4947 -0.84,5.9266 2.5467,19.1013 0,19.2986 -2.04,0.1454 -10.6266,5.3747 -16.5733,3.152 1.16,-21.2453 6.24,-44.9653 16.5733,-66.5066 0,0 3.0134,-6.0427 6.2534,-14.54 28.2133,-0.6254 92.0266,0.98 92.0266,0.98 l 35.3867,10.168 c 0,0 15.44,7.6266 12.0533,17.7946" /><path
       id="path212"
       style="fill:#131e33;fill-opacity:1;fill-rule:nonzero;stroke:none;stroke-width:0.133333"
       d="m 2028.3066,1104.2001 c 0,0 1.6933,-13.7067 30.4933,-1.8534 28.8,11.8667 38.1334,8.8267 49.9867,15.6 11.8533,6.7734 5.08,16.9467 0,28.8 -5.08,11.8667 -22.0267,0 -22.0267,0 0,0 8.4667,11.8667 8.4667,30.5067 0,18.6267 9.7867,64.3787 20.1467,83.0147 0,0 9.9866,22.0293 0,16.9453 -9.9734,-5.084 -23.5334,-28.7987 -16.7467,-16.9453 6.7733,11.8613 -1.8267,7.212 -1.8267,7.212 h -13.4266 l -10.16,10.4946 c 0,0 -13.56,2.4627 -18.6534,0 -5.0666,-2.4533 -15.24,-15.7453 -20.32,-9.9426 -5.0933,5.796 -8.4666,17.9693 -16.9466,11.0413 -8.4667,-6.944 -11.8667,19.5573 -23.72,2.068 -5.28,-7.7853 -10.56,-10.4213 -14.7867,-10.9587 0.9334,-2.1866 1.8934,-4.3733 2.92,-6.5226 0,0 16.9467,-33.888 13.56,-54.2174 0,0 -20.3333,-1.6986 -20.3333,-11.8613 0,-10.168 8.48,-27.1147 8.48,-27.1147 0,0 -1.6933,-26.8666 0,-35.5733 0.2533,-1.3733 0.6533,-3.72 1.1467,-6.7067 2.8133,-11.2933 12.3066,-32.16 43.7466,-23.9866" /><path
       id="path214"
       style="fill:#0b121d;fill-opacity:1;fill-rule:nonzero;stroke:none;stroke-width:0.133333"
       d="m 2006.2799,1153.5201 c 5.1334,-8.1467 -4.2266,-8.4667 -9.3199,-11.8534 -3.3734,-2.24 -8.4934,-2.24 -13.8534,-4.72 0.08,-0.76 0.1734,-1.4533 0.3067,-2.0533 0.2533,-1.3733 0.6533,-3.72 1.1467,-6.7067 2.8133,-11.2933 12.3066,-32.16 43.7466,-23.9866 0,0 0.08,-0.6667 0.52,-1.6 1.5733,1.3466 3.04,2.3733 4.2667,2.64 4.7866,1.04 18.08,8.48 31.64,13.56 13.56,5.08 12.7066,8.4666 20.3333,12.7066 5.92,3.2934 19.8267,4.1334 26.68,8.6267 -0.9467,2.1333 -1.9867,4.3467 -2.96,6.6133 -5.08,11.8667 -22.0267,0 -22.0267,0 0,0 5.2,7.32 7.44,19.4534 -12.8666,7.56 -38.7866,1.7333 -37.3733,10.2 1.4133,8.4666 -2.2667,29.6506 -9.4533,44.808 -7.2,15.1573 -7.2,-0.7547 -14.28,5.172 -7.0934,5.94 0,7.6266 0,7.6266 0,0 1.1466,5.932 0,12.064 -1.1467,6.128 13.8533,-1.8893 18.08,-1.0466 4.24,0.8413 0,0 0.8533,0.9653 0.84,0.9587 22.88,-6.9 27.96,-10.284 5.08,-3.3853 4.2267,5.9267 5.08,9.3627 0.84,3.4266 6.7733,-3.436 7.6267,-8.512 0.84,-5.0854 5.08,6.768 11.0133,8.468 1.6133,0.4573 2.3333,-2.9134 2.56,-8.04 2.8,9.2746 5.9333,17.5613 9.1067,23.284 0,0 9.9866,22.0293 0,16.9453 -9.9734,-5.084 -23.5334,-28.7987 -16.7467,-16.9453 6.7733,11.8613 -1.8267,7.212 -1.8267,7.212 h -13.4266 l -10.16,10.4946 c 0,0 -13.56,2.4627 -18.6534,0 -5.0666,-2.4533 -15.24,-15.7453 -20.32,-9.9426 -5.0933,5.796 -8.4666,17.9693 -16.9466,11.0413 -8.4667,-6.944 -11.8667,19.5573 -23.72,2.068 -5.28,-7.7853 -10.56,-10.4213 -14.7867,-10.9587 0.9334,-2.1866 1.8934,-4.3733 2.92,-6.5226 0,0 10.6267,-21.244 13.36,-40.1787 5.36,-6.1653 10.44,-9.224 9.0933,-9.7827 -0.56,-0.2253 -3.9333,-0.312 -8.5066,-0.588 -0.067,-1.256 -0.1867,-2.4906 -0.3867,-3.668 0,0 -20.3333,-1.6986 -20.3333,-11.8613 0,-6.7413 3.72,-16.4613 6.2267,-22.248 l 0.013,-0.013 c 2.8533,-7.1734 19.9733,-13.6267 25.1066,-21.8" /><path
       id="path216"
       style="fill:#82161e;fill-opacity:1;fill-rule:nonzero;stroke:none;stroke-width:0.133333"
       d="m 2047.3733,1159.4534 c 0,0 2.12,56.7653 -7.2,61 -9.32,4.2347 -47.44,-8.468 -50,-16.0947 -2.5333,-7.6253 11.88,-36.4253 18.6533,-39.812 6.7733,-3.4 13.5467,-5.0933 13.5467,-5.0933 0,0 -26.2667,5.0933 -27.1067,0 -0.84,-5.08 0.84,-9.32 1.6934,-17.7867 0.84,-8.4666 1.6933,-30.4933 10.1599,-30.4933 8.48,0 19.4934,3.3867 27.96,6.7733 8.48,3.3867 18.64,3.3867 22.0267,9.32 3.3867,5.9334 4.24,15.24 8.48,18.6267 4.2267,3.4 14.4,11.0267 9.32,14.4133 -5.0933,3.3867 -27.5333,-0.8533 -27.5333,-0.8533" /><path
       id="path218"
       style="fill:#691219;fill-opacity:1;fill-rule:nonzero;stroke:none;stroke-width:0.133333"
       d="m 2037.6133,1215.6521 c -1.44,1.4533 -3.16,3.4426 -5.0534,5.556 -14.4533,-0.9867 -40.2933,-10.6174 -42.3866,-16.8494 -2.5333,-7.6253 11.88,-36.4253 18.6533,-39.812 6.7733,-3.4 13.5467,-5.0933 13.5467,-5.0933 0,0 -26.2667,5.0933 -27.1067,0 -0.84,-5.08 0.84,-9.32 1.6934,-17.7867 0.84,-8.4666 1.6933,-30.4933 10.1599,-30.4933 2.3734,0 4.96,0.28 7.6134,0.7467 -2.4267,0.8 -5.0534,2.48 -5.3467,6.0266 -0.56,6.7867 -2.8267,12.9867 0,16.9467 2.8267,3.9467 6.7733,-3.3867 14.68,-2.8267 7.9067,0.56 12.4267,-2.7333 18.64,4 6.2133,6.7334 14.12,14.6267 14.12,19.72 0,5.1067 -5.36,0 -9.4533,3.6667 -4.1067,3.68 -5.8,12.7067 -6.36,18.92 -0.5734,6.2133 2.1466,31.76 -3.4,37.2787" /><path
       id="path220"
       style="fill:#eaf8fb;fill-opacity:1;fill-rule:nonzero;stroke:none;stroke-width:0.133333"
       d="m 1983.4133,1134.8934 0.093,-1.0267 c 3.6934,1.7467 7.04,4.6667 6.3867,9.4934 -1.4,10.16 -6.96,18.64 -6.72,22.88 0.067,1.2933 -0.28,2.76 -0.92,4.1866 -6.0133,-0.2266 -34.2133,-0.92 -46.2933,5.1334 0,0 8.48,-23.72 47.4533,-40.6667" /><path
       id="path222"
       style="fill:#c5c49f;fill-opacity:1;fill-rule:nonzero;stroke:none;stroke-width:0.133333"
       d="m 1955.16,1151.8001 c -2.64,5.3333 -4.44,9.8533 -3.0934,10.2 3.3867,0.84 15.4534,-13.4667 26.2534,-14.0667 4.2533,-0.2267 7.9733,-0.7067 10.9066,-1.04 -1.9733,8.5733 -6.2533,15.6 -6.0533,19.3467 0.067,1.2933 -0.28,2.76 -0.92,4.1866 -6.0133,-0.2266 -34.2133,-0.92 -46.2933,5.1334 0,0 4.0133,-11.2267 19.2,-23.76" /><path
       id="path224"
       style="fill:#a2a07a;fill-opacity:1;fill-rule:nonzero;stroke:none;stroke-width:0.133333"
       d="m 1943.3066,1163.6801 c -0.8266,2.9733 -1.1466,5.4533 0.2934,5.0933 3.3733,-0.84 18.2,1.6133 23.7066,-2.5867 4.12,-3.1333 13.3067,-7.2266 18.4534,-8.7466 -1.4667,3.72 -2.6934,6.76 -2.5867,8.8 0.067,1.2933 -0.28,2.76 -0.92,4.1866 -6.0133,-0.2266 -34.2133,-0.92 -46.2933,5.1334 0,0 1.7733,-4.92 7.3466,-11.88" /><g
       transform="matrix(0.14856,0,0,-0.14856,0,2530.6667)"
       id="g226"><path
         id="path228"
         style="fill:#642632;fill-opacity:1;fill-rule:nonzero;stroke:none"
         d="m 14635.8,8217.58 c -7.6,23.57 212.9,-38.86 307.9,-70.68 94.9,-31.89 -95,100.22 -140.6,145.88 -45.6,45.61 68.4,-15.21 132.5,-38.04 64,-22.83 -269.3,220.49 -330.2,237.06 -56.8,15.45 118.8,27.37 177.5,10.22 -22.9,10.51 -58.9,26.3 -86.2,34.03 -53.2,15.19 152,-7.59 228,0 33,3.32 -14,39.4 -77.8,79.34 131.3,-19.35 285.9,-56.57 465.7,-120.95 303.7,-108.88 558.6,-242.82 762.2,-369.11 12.8,-54.7 -180.7,103.01 -214.8,92.25 -37.5,-11.88 311.7,-251.75 375.8,-316.19 64.2,-64.44 -170.6,64.44 -223.7,87.24 -53.3,22.79 144.4,-129.24 211.7,-167.3 67.2,-37.96 -166.1,53.22 -227,68.48 -60.7,15.17 144.5,-121.7 212.9,-159.75 68.5,-37.97 -129.2,45.68 -243.3,98.9 -114,53.22 -7.6,-106.45 -60.8,-121.61 -53.2,-15.26 0,0 91.2,-29.08 84.5,-26.84 -251.6,14.36 -340.9,69.2 23.5,-22.08 57,-49.82 90.1,-63.01 76,-30.42 -190.2,60.85 -266.2,76.47 -76.1,15.71 68.4,-76.47 68.4,-76.47 -304.1,60.85 -766.1,319.42 -766.1,319.42 -112.2,114.02 -138.6,190.04 -146.3,213.7" /></g><g
       transform="matrix(0.144272,0,0,-0.144272,0,2530.6667)"
       id="g230"><path
         id="path232"
         style="fill:#ae5e3d;fill-opacity:1;fill-rule:nonzero;stroke:none"
         d="m 14781.1,8641.08 c 0,0 42.1,84.23 284.8,-40.47 270.2,-138.79 498.2,-390.17 560.8,-421.5 62.6,-31.23 333,-276.6 417,-408.39 84,-131.79 -135.1,16.91 -72.5,-53.51 62.6,-70.43 328.8,-242.7 219.2,-203.6 -109.6,39.19 -297.5,117.46 -211.4,54.8 86.2,-62.66 274.1,-195.74 195.7,-164.41 -78.3,31.33 -227,54.9 -250.6,47.04 -23.3,-7.85 31.5,-86.13 70.6,-117.46 39.1,-31.33 242.7,-101.85 172.2,-117.46 -70.5,-15.63 -195.7,-23.48 -148.8,-62.67 47.1,-39.09 70.5,-86.04 -23.4,-54.8 -93.9,31.42 -446.3,101.84 -407.2,62.66 39.2,-39.09 156.7,-122.18 31.4,-72.83 -125.3,49.35 -258.5,151.85 -246.8,92.79 11.9,-59.05 98,-82.62 11.9,-59.05 -86.1,23.47 -242.2,122.73 -356,214.04 -113.8,91.31 -184.2,169.49 -168.6,130.49 15.7,-39.18 62.6,-164.5 -15.6,-47.04 -78.3,117.46 -323.5,624.75 -254.2,564.22 69.3,-60.54 206.3,-187.62 159.7,-113.68 -46.5,74.03 -326.8,247.03 -277.1,207.94 49.8,-39 -104.5,70.52 -80.6,131.23 23.7,60.82 86.4,-1.84 23.7,60.82 -62.6,62.56 -88.2,163.34 5.7,114.4 93.9,-48.92 51.6,-4.38 72.8,0 21.2,4.39 -98.9,178.12 27.7,115.49 126.5,-62.62 216.9,-168.35 171.7,-115.49 -45.2,52.87 -180.3,290.22 -84.3,215.97 96,-74.3 172.2,40.47 172.2,40.47" /></g><g
       transform="matrix(0.133428,0,0,-0.133428,0,2530.6667)"
       id="g234"><path
         id="path236"
         style="fill:#0b121d;fill-opacity:1;fill-rule:nonzero;stroke:none"
         d="m 16075.7,9038.72 c 0,0 97.3,-21.17 110,0 12.8,21.18 114.3,-177.77 46.5,-148.19 -67.7,29.68 -152.3,110.08 -156.5,148.19" /></g><path
       id="path238"
       style="fill:#0b121d;fill-opacity:1;fill-rule:nonzero;stroke:none;stroke-width:0.133333"
       d="m 2149.4533,1344.8267 c 0,0 -14.6934,0.72 -11.8667,4.68 2.8267,3.9467 14.68,17.5067 15.8133,11.2934 1.1334,-6.2134 -3.9466,-15.9734 -3.9466,-15.9734" /><path
       id="path240"
       style="fill:#0b121d;fill-opacity:1;fill-rule:nonzero;stroke:none;stroke-width:0.133333"
       d="m 2137.2266,1324.4507 c 3.7467,6.9787 9.96,15.456 4.88,13.7494 -5.08,-1.68 -16.5333,-4.24 -14.2,-7.4814 2.3333,-3.24 9.32,-6.268 9.32,-6.268" /><path
       id="path242"
       style="fill:#0b121d;fill-opacity:1;fill-rule:nonzero;stroke:none;stroke-width:0.133333"
       d="m 2127.5999,1338.4267 c 0,0 11.68,19.5467 4.9067,17.8534 -6.7867,-1.6934 -15.2533,-8.8667 -15.2533,-8.8667 l 10.3466,-8.9867" /><path
       id="path244"
       style="fill:#0b121d;fill-opacity:1;fill-rule:nonzero;stroke:none;stroke-width:0.133333"
       d="m 2104.8266,1344.8267 c 0,0 20.8933,19.7467 12.4267,17.5734 -8.4667,-2.16 -16.9334,-3.6534 -17.5067,-6.0134 -0.56,-2.3733 5.08,0.2 5.08,-2.7733 0,-2.9733 0,-8.7867 0,-8.7867" /><path
       id="path246"
       style="fill:#0b121d;fill-opacity:1;fill-rule:nonzero;stroke:none;stroke-width:0.133333"
       d="m 2091.2799,1356.3867 c 1.6934,-0.1066 15.9067,18.32 11.8267,17.9734 -4.0933,-0.36 -20.9067,-3.28 -18.04,-6.2134 2.8667,-2.9333 6.2133,-11.76 6.2133,-11.76" /><path
       id="path248"
       style="fill:#0b121d;fill-opacity:1;fill-rule:nonzero;stroke:none;stroke-width:0.133333"
       d="m 2076.2933,1346.2801 c 0,0 12.3466,16.9333 6.1733,13.7466 -6.1733,-3.1866 -11.8533,-7.7066 -10.84,-9.3866 1.0133,-1.6934 4.6667,-4.36 4.6667,-4.36" /><path
       id="path250"
       style="fill:#0b121d;fill-opacity:1;fill-rule:nonzero;stroke:none;stroke-width:0.133333"
       d="m 2119.8133,1374.3601 c 0,0 21.52,20.6266 14.8133,20.7333 -6.72,0.12 -18.6667,-6.48 -18.6667,-6.48 0,0 -0.2266,-18.3067 3.8534,-14.2533" /><path
       id="path252"
       style="fill:#0b121d;fill-opacity:1;fill-rule:nonzero;stroke:none;stroke-width:0.133333"
       d="m 2125.9333,1399.3334 c 0,0 16.7333,12.2933 13.9066,15.12 -2.8133,2.8267 -12.9866,-5.52 -16.36,-7.56 -3.4,-2.04 0.4134,-10.2533 2.4534,-7.56" /><path
       id="path254"
       style="fill:#0b121d;fill-opacity:1;fill-rule:nonzero;stroke:none;stroke-width:0.133333"
       d="m 2115.9599,1391.2267 c 0,0 8.16,8.2934 3.32,7.56 -4.8533,-0.7066 -11.3333,-5.9333 -9.7866,-7.56 1.56,-1.6266 6.4666,0 6.4666,0" /><path
       id="path256"
       style="fill:#0b121d;fill-opacity:1;fill-rule:nonzero;stroke:none;stroke-width:0.133333"
       d="m 2134.6266,1365.3734 c 0,0 -7.6667,10.0267 -3.48,12.3333 4.1867,2.2934 24.28,22.1734 22.4133,12.8 -1.8533,-9.3733 -4.8666,-11.6533 -8.16,-16.7333 -3.2933,-5.0667 -10.7733,-8.4 -10.7733,-8.4" /><path
       id="path258"
       style="fill:#0b121d;fill-opacity:1;fill-rule:nonzero;stroke:none;stroke-width:0.133333"
       d="m 2150.5733,1369.8401 c 0,0 20.9066,31.1733 20.3333,20.6666 -0.56,-10.5066 -6.76,-19.5466 -10.16,-20.6666 -3.3867,-1.1334 -12.96,-4.04 -10.1733,0" /><g
       transform="matrix(0.13353066,0,0,-0.13353066,0,2530.6667)"
       id="g260"><path
         id="path262"
         style="fill:#0b121d;fill-opacity:1;fill-rule:nonzero;stroke:none"
         d="m 16152.9,8794.05 c 0,0 113.3,-124.72 130.2,-85.18 16.9,39.44 -32.9,91.76 -65.2,107.94 -32,16.08 -101.9,14.88 -65,-22.76" /></g><path
       id="path264"
       style="fill:#0b121d;fill-opacity:1;fill-rule:nonzero;stroke:none;stroke-width:0.133333"
       d="m 2106.5199,1327.4787 c 0,0 15.9067,15.2414 8.52,13.548 -7.3866,-1.68 -16.4933,-6.76 -15.3333,-9.5893 1.1733,-2.8333 6.8133,-3.9587 6.8133,-3.9587" /><g
       transform="matrix(0.13439733,0,0,-0.13439733,0,2530.6667)"
       id="g266"><path
         id="path268"
         style="fill:#0b121d;fill-opacity:1;fill-rule:nonzero;stroke:none"
         d="m 16178.1,9083.5 c 0,0 121.9,-139.42 63.1,-126.84 -58.9,12.6 -155.6,71.07 -138.8,92.31 16.8,21.19 75.7,34.53 75.7,34.53" /></g><path
       id="path270"
       style="fill:#0b121d;fill-opacity:1;fill-rule:nonzero;stroke:none;stroke-width:0.133333"
       d="m 2153.5599,1298.1081 c 0,0 9.1334,18.0773 3.36,15.2506 -5.7733,-2.824 -18.2666,-9.6 -15.1333,-11.292 3.1467,-1.7013 11.7733,-3.9586 11.7733,-3.9586" /><path
       id="path272"
       style="fill:#0b121d;fill-opacity:1;fill-rule:nonzero;stroke:none;stroke-width:0.133333"
       d="m 2129.8933,1303.7587 c 0,0 11.36,10.756 4.7333,9.8987 -6.64,-0.864 -17.8133,-6.2093 -12.5067,-7.7707 5.3067,-1.5613 7.7734,-2.128 7.7734,-2.128" /><g
       transform="matrix(0.1336,0,0,-0.1336,0,2530.6667)"
       id="g274"><path
         id="path276"
         style="fill:#0b121d;fill-opacity:1;fill-rule:nonzero;stroke:none"
         d="m 16206.1,9225.74 c 0,0 93.9,-80.29 89.7,-42.3 -4.2,38.06 -42.6,88.78 -61.5,84.59 -18.8,-4.29 -28.2,-42.29 -28.2,-42.29" /></g><path
       id="path278"
       style="fill:#0b121d;fill-opacity:1;fill-rule:nonzero;stroke:none;stroke-width:0.133333"
       d="m 2155.5066,1287.2214 c 0,0 5.9333,5.1053 3.3333,5.4613 -2.6133,0.348 -10.9866,-3.348 -8.7733,-5.4613 2.2,-2.1 5.44,0 5.44,0" /><g
       transform="matrix(0.135744,0,0,-0.135744,0,2530.6667)"
       id="g280"><path
         id="path282"
         style="fill:#0b121d;fill-opacity:1;fill-rule:nonzero;stroke:none"
         d="m 16188.2,8930.15 c 0,0 111.8,-105.87 60.1,-90.36 -51.8,15.58 -135,26.97 -110,46.17 25,19.32 49.9,44.19 49.9,44.19" /></g><g
       transform="matrix(0.13585866,0,0,-0.13585866,0,2530.6667)"
       id="g284"><path
         id="path286"
         style="fill:#0b121d;fill-opacity:1;fill-rule:nonzero;stroke:none"
         d="m 16184.2,8775.6 c 0,0 115.8,-122.48 73.9,-112.37 -41.9,10.11 -122.9,41.71 -108.5,65.26 14.5,23.65 34.6,47.11 34.6,47.11" /></g><g
       transform="matrix(0.137204,0,0,-0.137204,0,2530.6667)"
       id="g288"><path
         id="path290"
         style="fill:#0b121d;fill-opacity:1;fill-rule:nonzero;stroke:none"
         d="m 16193,8590.32 c 0,0 107,-88.53 102.9,-51.51 -4.2,37.13 -12.2,79.98 -51.4,85.23 -39.2,5.35 -51.5,-33.72 -51.5,-33.72" /></g><g
       transform="matrix(0.136928,0,0,-0.136928,0,2530.6667)"
       id="g292"><path
         id="path294"
         style="fill:#0b121d;fill-opacity:1;fill-rule:nonzero;stroke:none"
         d="m 16200.9,8736.98 c 0,0 99.1,-68.55 76.4,-29.9 -22.8,38.69 -97.1,79 -76.4,29.9" /></g><g
       transform="matrix(0.13876266,0,0,-0.13876266,0,2530.6667)"
       id="g296"><path
         id="path298"
         style="fill:#0b121d;fill-opacity:1;fill-rule:nonzero;stroke:none"
         d="m 16202.3,8433.94 c 0,0 81.5,-27.67 85.5,-84.65 4,-56.99 12.2,-90.04 -20.4,-51.12 -32.5,38.91 -89.6,146.82 -65.1,135.77" /></g><g
       transform="matrix(0.140496,0,0,-0.140496,0,2530.6667)"
       id="g300"><path
         id="path302"
         style="fill:#0b121d;fill-opacity:1;fill-rule:nonzero;stroke:none"
         d="m 16175.4,8234.37 c 0,0 124.6,-108.67 72.3,-92.53 -52.3,16.04 -100.5,18.5 -96.4,45.46 4,26.86 24.1,47.07 24.1,47.07" /></g><g
       transform="matrix(0.14077333,0,0,-0.14077333,0,2530.6667)"
       id="g304"><path
         id="path306"
         style="fill:#0b121d;fill-opacity:1;fill-rule:nonzero;stroke:none"
         d="m 16173.8,8094.17 c 0,0 126.2,-122.09 82.1,-111.48 -44.2,10.7 -116.3,27.94 -120.4,55.41 -4,27.46 38.3,56.07 38.3,56.07" /></g><g
       transform="matrix(0.14146533,0,0,-0.14146533,0,2530.6667)"
       id="g308"><path
         id="path310"
         style="fill:#0b121d;fill-opacity:1;fill-rule:nonzero;stroke:none"
         d="m 16232.1,8016.16 c 0,0 67.9,-87.09 31.9,-72.57 -35.9,14.61 -68.5,43.83 -70.2,55.14 -1.6,11.31 38.3,17.43 38.3,17.43" /></g><g
       transform="matrix(0.14161333,0,0,-0.14161333,0,2530.6667)"
       id="g312"><path
         id="path314"
         style="fill:#0b121d;fill-opacity:1;fill-rule:nonzero;stroke:none"
         d="m 16195.3,7878.09 c 0,0 104.7,-111.58 62.3,-111.58 -42.3,0 -132.6,23.83 -125.4,55.74 7.3,31.92 63.1,55.84 63.1,55.84" /></g><g
       transform="matrix(0.141224,0,0,-0.141224,0,2530.6667)"
       id="g316"><path
         id="path318"
         style="fill:#0b121d;fill-opacity:1;fill-rule:nonzero;stroke:none"
         d="m 16244.5,7735.9 c 0,0 55.5,-35.97 17.5,-80.06 -38,-43.9 -113,-99.88 -113.4,-63.92 -0.6,36.07 95.9,143.98 95.9,143.98" /></g><g
       transform="matrix(0.13980266,0,0,-0.13980266,0,2530.6667)"
       id="g320"><path
         id="path322"
         style="fill:#0b121d;fill-opacity:1;fill-rule:nonzero;stroke:none"
         d="m 16263.7,7790.3 c 0,0 36.3,-56.65 0,-76.77 -36.5,-20.22 -163.7,-116.17 -140.4,-56.08 23.2,60.08 99.9,161.08 140.4,132.85" /></g><g
       transform="matrix(0.13990666,0,0,-0.13990666,0,2530.6667)"
       id="g324"><path
         id="path326"
         style="fill:#0b121d;fill-opacity:1;fill-rule:nonzero;stroke:none"
         d="m 16264.1,7974.17 c 0,0 35.9,-72.53 3.6,-92.73 -32.3,-20.2 -121.3,-48.51 -109.1,0 12.2,48.32 91.6,131.42 105.5,92.73" /></g><g
       transform="matrix(0.13893466,0,0,-0.13893466,0,2530.6667)"
       id="g328"><path
         id="path330"
         style="fill:#0b121d;fill-opacity:1;fill-rule:nonzero;stroke:none"
         d="m 16271.6,8146.83 c 0,0 28.4,-88.67 0,-106.81 -28.3,-18.14 -97.2,-67.08 -95.3,-10.08 1.9,56.91 62.8,131.96 95.3,116.89" /></g><g
       transform="matrix(0.13847466,0,0,-0.13847466,0,2530.6667)"
       id="g332"><path
         id="path334"
         style="fill:#0b121d;fill-opacity:1;fill-rule:nonzero;stroke:none"
         d="m 16271.6,8330.11 c 0,0 28.4,-89.07 0,-107.17 -28.4,-18.2 -97.5,-67.31 -95.6,-10.11 1.8,57.19 62.9,132.39 95.6,117.28" /></g><g
       transform="matrix(0.13699333,0,0,-0.13699333,0,2530.6667)"
       id="g336"><path
         id="path338"
         style="fill:#0b121d;fill-opacity:1;fill-rule:nonzero;stroke:none"
         d="m 16271.2,8361.06 c 0,0 28.8,-89.94 0,-108.33 -28.7,-18.3 -98.6,-68.03 -96.7,-10.22 2,57.81 63.6,133.83 96.7,118.55" /></g><g
       transform="matrix(0.13703866,0,0,-0.13703866,0,2530.6667)"
       id="g340"><path
         id="path342"
         style="fill:#0b121d;fill-opacity:1;fill-rule:nonzero;stroke:none"
         d="m 16271.3,8534.95 c 0,0 28.7,-89.8 0,-108.19 -28.8,-18.29 -98.6,-68.01 -96.6,-10.21 1.9,57.79 63.5,133.77 96.6,118.4" /></g><g
       transform="matrix(0.13542266,0,0,-0.13542266,0,2530.6667)"
       id="g344"><path
         id="path346"
         style="fill:#0b121d;fill-opacity:1;fill-rule:nonzero;stroke:none"
         d="m 16271,8491.89 c 0,0 29,-90.97 0,-109.58 -29.1,-18.61 -99.8,-68.82 -97.8,-10.24 2,58.39 64.3,135.38 97.8,119.82" /></g><g
       transform="matrix(0.134964,0,0,-0.134964,0,2530.6667)"
       id="g348"><path
         id="path350"
         style="fill:#0b121d;fill-opacity:1;fill-rule:nonzero;stroke:none"
         d="m 16270.8,8707.04 c 0,0 29.2,-91.28 0,-109.96 -29.2,-18.57 -100.1,-69.05 -98.1,-10.37 1.9,58.78 64.6,135.94 98.1,120.33" /></g><g
       transform="matrix(0.13401466,0,0,-0.13401466,0,2530.6667)"
       id="g352"><path
         id="path354"
         style="fill:#0b121d;fill-opacity:1;fill-rule:nonzero;stroke:none"
         d="m 16270.6,8445.94 c 0,0 29.4,-91.93 0,-110.74 -29.4,-18.8 -100.8,-69.54 -98.7,-10.44 1.8,59 64.9,136.8 98.7,121.18" /></g><g
       transform="matrix(0.13416133,0,0,-0.13416133,0,2530.6667)"
       id="g356"><path
         id="path358"
         style="fill:#0b121d;fill-opacity:1;fill-rule:nonzero;stroke:none"
         d="m 16270.6,8281.98 c 0,0 29.4,-91.93 0,-110.61 -29.3,-18.79 -100.6,-69.47 -98.6,-10.44 1.9,59.14 64.9,136.66 98.6,121.05" /></g><g
       transform="matrix(0.13584933,0,0,-0.13584933,0,2530.6667)"
       id="g360"><path
         id="path362"
         style="fill:#0b121d;fill-opacity:1;fill-rule:nonzero;stroke:none"
         d="m 16270.9,8284.76 c 0,0 29.1,-90.69 0,-109.24 -28.9,-18.55 -99.4,-68.61 -97.4,-10.31 1.9,58.3 64.1,134.96 97.4,119.55" /></g><g
       transform="matrix(0.13518533,0,0,-0.13518533,0,2530.6667)"
       id="g364"><path
         id="path366"
         style="fill:#0b121d;fill-opacity:1;fill-rule:nonzero;stroke:none"
         d="m 16270.9,8115.08 c 0,0 29.1,-91.13 0,-109.77 -29.2,-18.64 -99.9,-68.94 -97.9,-10.36 1.9,58.59 64.4,135.62 97.9,120.13" /></g><g
       transform="matrix(0.142436,0,0,-0.142436,0,2530.6667)"
       id="g368"><path
         id="path370"
         style="fill:#0b121d;fill-opacity:1;fill-rule:nonzero;stroke:none"
         d="m 16240.5,7592.93 c 0,0 59.5,-66.93 22.5,-60.09 -37,6.83 -116.3,-14.05 -89.3,14.04 27.2,27.98 66.8,46.05 66.8,46.05" /></g><g
       transform="matrix(0.14283466,0,0,-0.14283466,0,2530.6667)"
       id="g372"><path
         id="path374"
         style="fill:#0b121d;fill-opacity:1;fill-rule:nonzero;stroke:none"
         d="m 16203.1,7693.67 c 0,0 96.9,-84.76 62.2,-71.79 -34.8,12.98 -81.6,18.95 -88.9,26.79 -7.3,7.85 9.2,60.77 26.7,45" /></g><g
       transform="matrix(0.141212,0,0,-0.141212,0,2530.6667)"
       id="g376"><path
         id="path378"
         style="fill:#0b121d;fill-opacity:1;fill-rule:nonzero;stroke:none"
         d="m 16245.8,7561.76 c 0,0 54.2,-109.24 30.8,-125.2 -23.3,-15.96 -158.8,-79.97 -153.1,-28.04 5.8,52.02 112.3,174.58 122.3,153.24" /></g><g
       transform="matrix(0.14205466,0,0,-0.14205466,0,2530.6667)"
       id="g380"><path
         id="path382"
         style="fill:#0b121d;fill-opacity:1;fill-rule:nonzero;stroke:none"
         d="m 16284,7368.61 c 0,0 16,-79.4 0,-91.42 -15.9,-12.11 -108.8,-35.76 -98.1,0 10.7,35.76 70.4,119.2 98.1,91.42" /></g><g
       transform="matrix(0.14279733,0,0,-0.14279733,0,2530.6667)"
       id="g384"><path
         id="path386"
         style="fill:#0b121d;fill-opacity:1;fill-rule:nonzero;stroke:none"
         d="m 16277,7322.35 c 0,0 -79.4,-56.02 -30.1,-47.43 49.2,8.49 53.1,9.24 30.1,47.43" /></g><g
       transform="matrix(0.140884,0,0,-0.140884,0,2530.6667)"
       id="g388"><path
         id="path390"
         style="fill:#0b121d;fill-opacity:1;fill-rule:nonzero;stroke:none"
         d="m 16260.6,7377.02 c 0,0 39.4,-85.36 0,-76.84 -39.2,8.61 -92.2,19.3 -87.3,18.36 4.9,-0.95 72.9,98.8 87.3,58.48" /></g><g
       transform="matrix(0.13965866,0,0,-0.13965866,0,2530.6667)"
       id="g392"><path
         id="path394"
         style="fill:#0b121d;fill-opacity:1;fill-rule:nonzero;stroke:none"
         d="m 16248.1,7531.4 c 0,0 51.9,-78.57 15.8,-93.94 -36.1,-15.28 -118.6,-70.46 -117.8,-28.65 0.9,41.72 81.8,160.58 102,122.59" /></g><g
       transform="matrix(0.13923333,0,0,-0.13923333,0,2530.6667)"
       id="g396"><path
         id="path398"
         style="fill:#0b121d;fill-opacity:1;fill-rule:nonzero;stroke:none"
         d="m 16297.6,7643.7 c 0,0 2.4,-66.75 -31.1,-59.66 -33.6,6.99 -78.3,7.57 -45.8,29.5 32.4,22.12 78.2,54.2 76.9,30.16" /></g><g
       transform="matrix(0.137724,0,0,-0.137724,0,2530.6667)"
       id="g400"><path
         id="path402"
         style="fill:#0b121d;fill-opacity:1;fill-rule:nonzero;stroke:none"
         d="m 16283.6,7606.06 c 0,0 16.4,-80.65 0,-94.39 -16.4,-13.85 -73.2,-57.02 -71.4,-12.88 1.7,44.15 42.7,137.67 71.4,107.27" /></g><g
       transform="matrix(0.136812,0,0,-0.136812,0,2530.6667)"
       id="g404"><path
         id="path406"
         style="fill:#0b121d;fill-opacity:1;fill-rule:nonzero;stroke:none"
         d="m 16252.7,7656.72 c 0,0 47.3,-79.82 20.7,-83.62 -34,-4.77 -100.2,-36.45 -96,0 4.1,36.55 35,105.94 75.3,83.62" /></g><g
       transform="matrix(0.13734533,0,0,-0.13734533,0,2530.6667)"
       id="g408"><path
         id="path410"
         style="fill:#0b121d;fill-opacity:1;fill-rule:nonzero;stroke:none"
         d="m 16279.3,7826.92 c 0,0 20.7,-73.01 0,-104.26 -20.7,-31.46 -105.1,-108.44 -89.6,-34.95 15.5,73.39 52.6,172.12 89.6,139.21" /></g><g
       transform="matrix(0.13828933,0,0,-0.13828933,0,2530.6667)"
       id="g412"><path
         id="path414"
         style="fill:#0b121d;fill-opacity:1;fill-rule:nonzero;stroke:none"
         d="m 16270.8,7946.56 c 0,0 29.2,-123.61 0,-125.92 -29.2,-2.31 -117.6,-18.61 -85.7,26.32 32,45.03 61.9,137.78 85.7,99.6" /></g><g
       transform="matrix(0.13576933,0,0,-0.13576933,0,2530.6667)"
       id="g416"><path
         id="path418"
         style="fill:#0b121d;fill-opacity:1;fill-rule:nonzero;stroke:none"
         d="m 16277.9,7901.54 c 0,0 22.1,-90.25 0,-125.41 -22,-35.26 -50.6,-69.33 -83.1,-30.44 -32.5,38.98 76.9,188.75 83.1,155.85" /></g><g
       transform="matrix(0.134592,0,0,-0.134592,0,2530.6667)"
       id="g420"><path
         id="path422"
         style="fill:#0b121d;fill-opacity:1;fill-rule:nonzero;stroke:none"
         d="m 16300,7970.69 c 0,0 -3.4,-146.12 -28,-125.71 -24.8,20.31 -135.8,15.05 -96,58.64 39.6,43.5 124,67.07 124,67.07" /></g><g
       transform="matrix(0.13339866,0,0,-0.13339866,0,2530.6667)"
       id="g424"><path
         id="path426"
         style="fill:#0b121d;fill-opacity:1;fill-rule:nonzero;stroke:none"
         d="m 16300,8065.14 c 0,0 -8.8,-109.44 -47.2,-90.85 -38.3,18.49 -90.8,25.89 -64.5,50.77 26.2,24.89 111.7,40.08 111.7,40.08" /></g><path
       id="path428"
       style="fill:#0b121d;fill-opacity:1;fill-rule:nonzero;stroke:none;stroke-width:0.133333"
       d="m 2166.4799,1436.7601 c 0,0 -3.4,16.9466 -5.9866,15.1066 -2.5734,-1.84 -12.2267,-2.12 -8.6667,-7.48 3.56,-5.36 15.88,-12.9733 14.6533,-7.6266" /><path
       id="path430"
       style="fill:#0b121d;fill-opacity:1;fill-rule:nonzero;stroke:none;stroke-width:0.133333"
       d="m 2145.3999,1440.1601 c 0,0 4.68,13.12 -1.6133,13.2666 -6.2933,0.1734 -12.1333,-3.0933 -9.16,-6.64 2.96,-3.5333 10.7733,-6.6266 10.7733,-6.6266" /><path
       id="path432"
       style="fill:#0b121d;fill-opacity:1;fill-rule:nonzero;stroke:none;stroke-width:0.133333"
       d="m 2153.5599,1418.7467 c 0,0 0.6267,12.5067 -3.8666,13 -4.48,0.4934 -14.5734,7.1734 -9.52,-1.24 5.04,-8.4266 13.5866,-17.5866 13.3866,-11.76" /><path
       id="path434"
       style="fill:#0b121d;fill-opacity:1;fill-rule:nonzero;stroke:none;stroke-width:0.133333"
       d="m 2156.9199,1399.1201 c 0,0 -3.44,9.6266 -5.88,9.52 -2.44,-0.12 -8.8533,-1.7867 -5.64,-4.76 3.2,-2.9867 11.52,-4.76 11.52,-4.76" /><path
       id="path436"
       style="fill:#0b121d;fill-opacity:1;fill-rule:nonzero;stroke:none;stroke-width:0.133333"
       d="m 2133.8266,1418.7467 c 0,0 3.4533,12.1867 -2.68,11.76 -6.1467,-0.4266 -7.5467,-12.8266 -5.2133,-13.6 2.3466,-0.76 7.8933,1.84 7.8933,1.84" /><g
       transform="matrix(0.135628,0,0,-0.135628,0,2530.6667)"
       id="g438"><path
         id="path440"
         style="fill:#0b121d;fill-opacity:1;fill-rule:nonzero;stroke:none"
         d="m 16211.6,7709.39 c 0,0 88.4,-112.57 35.1,-81.7 -53.3,30.67 -118.3,40.11 -99.2,65.08 19.1,24.97 64.1,16.62 64.1,16.62" /></g><g
       transform="matrix(0.13697733,0,0,-0.13697733,0,2530.6667)"
       id="g442"><path
         id="path444"
         style="fill:#0b121d;fill-opacity:1;fill-rule:nonzero;stroke:none"
         d="m 16271.5,8022.68 c 0,0 28.5,-126.83 -9.5,-127.13 -38,-0.19 -72,-49.15 -70.4,0 1.5,49.25 70,193.61 79.9,127.13" /></g><g
       transform="matrix(0.137968,0,0,-0.137968,0,2530.6667)"
       id="g446"><path
         id="path448"
         style="fill:#0b121d;fill-opacity:1;fill-rule:nonzero;stroke:none"
         d="m 16236,8132.51 c 0,0 64,-108.72 26,-124.57 -38,-15.76 -88.6,-15.85 -78.6,20.97 10,36.91 36.6,134.43 52.6,103.6" /></g><g
       transform="matrix(0.14849866,0,0,-0.14849866,0,2530.6667)"
       id="g450"><path
         id="path452"
         style="fill:#a2aeb0;fill-opacity:1;fill-rule:nonzero;stroke:none"
         d="m 15533.5,8054.2 c 0,0 203.6,-16.88 294.9,-54.68 91.3,-37.89 316.6,-244.31 245.8,-175.45 -70.9,68.96 -150.3,30.62 -101.3,8.08 49.1,-22.44 206.9,-166.1 114.8,-113.4 -92,52.8 -152.8,53.79 -69.1,0 83.6,-53.78 281.4,-196.09 182.5,-162.96 -98.9,33.13 -273.8,84.22 -190.1,32.05 83.7,-52.07 235.8,-131.54 121.6,-91.85 -114,39.78 -349.9,141.23 -289,82.87 60.8,-58.36 144.6,-65.99 60.8,-58.36 -83.6,7.63 -86,48.22 -149.5,58.36 -63.4,10.06 55.8,-77.84 0,-56.65 -55.8,21.1 57,-26.04 0,-38.07 -56.9,-12.03 -194.8,145.18 -144.3,71.65 50.5,-73.45 101,-146.89 50.5,-73.45 -50.5,73.45 -260.4,324.13 -217.7,219.17 42.8,-105.05 65.6,-145.1 42.8,-105.05 -22.8,40.05 -182.6,194.12 -182.6,194.12 0,0 155.2,-131.27 123.2,-48.66 -31.9,82.6 -175.4,207.23 -69.4,125.25 105.9,-81.98 229.6,-193.49 201.9,-148.42 -27.5,45.16 -332.2,290.64 -263.6,266.76 68.7,-23.88 212.1,-138.18 182.2,-103.8 -29.8,34.31 -158.4,184.42 -94.1,136.03 64.3,-48.48 200.4,-150.57 200.4,-150.57 0,0 -102.3,153.09 -50.7,100.92 51.5,-52.07 211.2,-135.85 165.6,-86.38 -45.7,49.57 -246.8,108.38 -165.6,136.03" /></g><g
       transform="matrix(0.146624,0,0,-0.146624,0,2530.6667)"
       id="g454"><path
         id="path456"
         style="fill:#8b2e2c;fill-opacity:1;fill-rule:nonzero;stroke:none"
         d="m 15140.9,8254.43 c 96.2,-32.3 -96.2,101.55 -142.4,147.81 -46.3,46.21 69.3,-15.41 134.3,-38.54 64.8,-23.14 -272.9,223.4 -334.6,240.19 -57.6,15.65 120.4,27.73 179.8,10.36 -23.2,10.64 -59.7,26.64 -87.3,34.47 -53.9,15.39 154,-7.69 231.1,0 33.3,3.36 -14.3,39.92 -78.9,80.4 133,-19.62 289.6,-57.32 471.8,-122.56 307.7,-110.31 566,-246.02 772.3,-373.98 13,-55.42 -183.1,104.38 -217.7,93.47 -7.6,-2.43 0.7,-14.26 19.2,-32 -147.5,73.07 -318.2,154.65 -335.3,149.11 -30.5,-10.01 49.9,-65.24 -21.1,-41.47 -71.2,23.77 -199.6,28.28 -251,41.47 -51.3,13.12 -328.2,84.64 -232,37.34 96,-47.35 199,-110.26 109,-78.81 -90,31.46 -251.1,110.5 -189.8,63.31 61.3,-47.26 150,-127.41 97.9,-106.6 -52.1,20.8 -59.8,90.2 -52.1,20.8 7.8,-69.3 54,-84.7 7.8,-69.3 -46.3,15.42 -185.8,59.54 -185.8,59.54 0,0 385.7,-272.55 291.9,-238.17 -93.9,34.37 -136.9,72.44 -93.9,34.37 43.1,-38.01 119.4,-41.65 43.1,-38.01 -44.8,2.09 -140.2,82.07 -219.5,152.75 31.7,-9.31 60.9,-18.47 83.2,-25.95" /></g><g
       transform="matrix(0.17531733,0,0,-0.17531733,0,2530.6667)"
       id="g458"><path
         id="path460"
         style="fill:#8b2e2c;fill-opacity:1;fill-rule:nonzero;stroke:none"
         d="m 14298.1,6327.56 c -143.5,99.32 -333.2,193.63 -427.1,253.48 -128.8,82.21 154.7,-49.97 251.2,-103.81 96.8,-53.92 425.3,-165.26 380.2,-113.7 -45.1,51.49 238.4,-128.83 305.4,-155 67,-26.08 81.2,6.85 10.3,39.17 -70.9,32.4 244.8,-90.27 289.9,-78.86 45.1,11.48 -115.9,46.54 -25.7,39.69 90.1,-6.76 175.2,-26.46 327.2,-64.49 l 2.3,-0.6 6.1,-1.6 c 159.9,-40.54 609.5,-168.08 675.1,-190.59 h 0.1 c 61,-22.29 104,-42.06 119.9,-58.03 87,-86.93 -125.6,0 -173.9,0 -48.3,0 -425.2,202.99 -666.9,193.33 -241.6,-9.66 -850.5,135.29 -1082.4,251.27 0,0 3.2,-3.8 8.3,-10.26" /></g><g
       transform="matrix(0.15462133,0,0,-0.15462133,0,2530.6667)"
       id="g462"><path
         id="path464"
         style="fill:#291c1b;fill-opacity:1;fill-rule:nonzero;stroke:none"
         d="m 15487.4,7456.65 c -72.4,87.96 299.3,-156.51 375.4,-232.31 76.1,-75.88 -25.6,42.17 -76.1,75.8 -50.4,33.63 262.4,-150.47 333.8,-177.72 71.4,-27.25 -108,107.53 -173.7,177.72 -59.1,63.12 274,-190.66 342.2,-242.83 11,-25.87 9.5,-43.11 -20.7,-35.52 -55,13.71 -174,44.58 -255.6,65.7 -226.3,136.08 -480.4,314.49 -525.3,369.16" /></g><path
       id="path466"
       style="fill:#c5c49f;fill-opacity:1;fill-rule:nonzero;stroke:none;stroke-width:0.133333"
       d="m 2033.0933,1136.2934 c 0,4.52 -3.6667,8.1867 -8.1867,8.1867 -4.52,0 -8.1867,-3.6667 -8.1867,-8.1867 0,-4.52 3.6667,-8.1733 8.1867,-8.1733 4.52,0 8.1867,3.6533 8.1867,8.1733" /><path
       id="path468"
       style="fill:#0b121d;fill-opacity:1;fill-rule:nonzero;stroke:none;stroke-width:0.133333"
       d="m 2029.1333,1136.2934 c 0,2.3333 -1.8934,4.2267 -4.2267,4.2267 -2.3333,0 -4.2267,-1.8934 -4.2267,-4.2267 0,-2.3333 1.8934,-4.2267 4.2267,-4.2267 2.3333,0 4.2267,1.8934 4.2267,4.2267" /></g></svg>
