<?xml version="1.0" encoding="UTF-8" standalone="no"?>
<svg
   xmlns:dc="http://purl.org/dc/elements/1.1/"
   xmlns:cc="http://creativecommons.org/ns#"
   xmlns:rdf="http://www.w3.org/1999/02/22-rdf-syntax-ns#"
   xmlns:svg="http://www.w3.org/2000/svg"
   xmlns="http://www.w3.org/2000/svg"
   viewBox="0 0 512 512"
   height="512"
   width="512"
   xml:space="preserve"
   id="svg2"
   version="1.1"><metadata
     id="metadata8"><rdf:RDF><cc:Work
         rdf:about=""><dc:format>image/svg+xml</dc:format><dc:type
           rdf:resource="http://purl.org/dc/dcmitype/StillImage" /><dc:title></dc:title></cc:Work></rdf:RDF></metadata><defs
     id="defs6"><linearGradient
       id="linearGradient18"
       spreadMethod="pad"
       gradientTransform="matrix(666.66665,0,0,666.66665,0,333.33334)"
       gradientUnits="userSpaceOnUse"
       y2="0"
       x2="1"
       y1="0"
       x1="0"><stop
         id="stop14"
         offset="0"
         style="stop-opacity:1;stop-color:#f3f3f2" /><stop
         id="stop16"
         offset="1"
         style="stop-opacity:1;stop-color:#e9e9e7" /></linearGradient></defs><g
     id="g535"
     transform="matrix(1.2845887,0,0,1.2845887,-45.138585,-369.7794)"><path
       id="path132"
       style="fill:#dcddda;fill-opacity:1;fill-rule:nonzero;stroke:none;stroke-width:0.133333"
       d="m 305.23066,562.53174 c 0,3.68027 -50.704,6.66307 -113.24933,6.66307 -62.54587,0 -113.249065,-2.9828 -113.249065,-6.66307 0,-3.67867 50.703195,-6.66093 113.249065,-6.66093 62.54533,0 113.24933,2.98226 113.24933,6.66093" /><path
       id="path134"
       style="fill:#808484;fill-opacity:1;fill-rule:nonzero;stroke:none;stroke-width:0.133333"
       d="m 149.712,496.26934 c 0.608,9.74133 -11.264,49.31453 -24.962,61.49213 -4.262,0.60787 -11.2636,0.3036 -11.2636,5.17454 7.30573,0 17.3516,0 17.3516,0 0,0 29.22333,-26.18027 37.44333,-56.012" /><path
       id="path136"
       style="fill:#808484;fill-opacity:1;fill-rule:nonzero;stroke:none;stroke-width:0.133333"
       d="m 206.02799,520.62267 c -3.348,13.08934 2.43467,25.57054 12.48134,30.74507 -15.82934,0.91347 -23.744,2.13067 -23.744,8.82813 11.26266,0 55.40266,0 55.40266,0 l -7.00133,-19.78653 -24.65733,-17.96 -12.48134,-1.82667" /><path
       id="path138"
       style="fill:#a5a8a6;fill-opacity:1;fill-rule:nonzero;stroke:none;stroke-width:0.133333"
       d="m 279.79999,499.51334 c -4.11866,35.24547 60.88,91.54653 110.316,47.14653 -7.78267,-20.59853 -42.112,-21.05586 -59.964,-20.59853 -17.852,0.45867 -37.53466,-12.816 -46.232,-38.908 l -4.12,12.36" /><path
       id="path140"
       style="fill:#343637;fill-opacity:1;fill-rule:nonzero;stroke:none;stroke-width:0.133333"
       d="m 302.77333,515.85201 c -3.63467,5.53733 -6.76267,12.41466 -9.01334,19.336 2.412,2.84266 5.08267,5.57866 7.97067,8.15466 2.45067,-7.77866 6.036,-15.56 10.21067,-21.51733 -3.16267,-1.56267 -6.24,-3.55067 -9.168,-5.97333" /><path
       id="path142"
       style="fill:#343637;fill-opacity:1;fill-rule:nonzero;stroke:none;stroke-width:0.133333"
       d="m 365.73732,560.67081 c 8.292,-2.4604 16.532,-6.96294 24.37867,-14.01094 -3.49333,-9.24626 -12.34133,-14.42653 -22.64133,-17.29453 -2.57867,9.10133 -3.048,21.02787 -1.73734,31.30547" /><path
       id="path144"
       style="fill:#343637;fill-opacity:1;fill-rule:nonzero;stroke:none;stroke-width:0.133333"
       d="m 283.91999,487.15334 -4.11866,12.36 c -0.85334,7.296 1.26266,15.49333 5.58266,23.51333 2.64534,-5.55866 5.876,-10.928 9.38134,-15.38 -4.412,-5.59066 -8.156,-12.42533 -10.84534,-20.49333" /><path
       id="path146"
       style="fill:#343637;fill-opacity:1;fill-rule:nonzero;stroke:none;stroke-width:0.133333"
       d="m 354.82266,526.93601 c -3.03734,-0.36534 -6.06667,-0.604 -9.00667,-0.752 -3.77867,9.7748 -4.53333,24.43213 -2.764,36.45453 3.23467,0.35467 6.50933,0.4536 9.804,0.26827 -1.89333,-11.57187 -1.4,-25.90267 1.96667,-35.9708" /><path
       id="path148"
       style="fill:#343637;fill-opacity:1;fill-rule:nonzero;stroke:none;stroke-width:0.133333"
       d="m 333.29333,525.99734 c -1.09067,0.0173 -2.14534,0.0387 -3.14134,0.064 -1.528,0.04 -3.072,-0.0587 -4.62,-0.22133 -4.10533,7.9652 -6.85866,18.80693 -7.772,28.72773 3.46934,1.8588 7.08667,3.464 10.81467,4.76147 -0.66267,-11.2 0.91333,-24.21467 4.71867,-33.33187" /><path
       id="path150"
       style="fill:#a5a8a6;fill-opacity:1;fill-rule:nonzero;stroke:none;stroke-width:0.133333"
       d="m 139.99733,461.42134 c -13.8072,27.61467 9.49067,53.25733 71.71333,63.27733 -1.05467,12.6544 11.6,24.78254 27.42,28.4732 -23.72933,0.52814 -32.69333,2.10934 -32.69333,8.9656 19.51066,0 50.62133,0 50.62133,0 0,0 -7.38267,-16.87493 4.74533,-30.58413 12.128,-13.71067 31.11067,-24.256 26.36534,-53.25867 -4.74534,-29.00133 -25.83734,-46.40266 -53.25734,-46.40266 -27.42,0 -46.40266,14.23733 -63.80399,13.71067 -17.40134,-0.528 -27.42,8.436 -31.11067,15.81866" /><path
       id="path152"
       style="fill:#a5a8a6;fill-opacity:1;fill-rule:nonzero;stroke:none;stroke-width:0.133333"
       d="m 172.23866,509.35867 c -0.30533,12.17734 -9.13333,38.35587 -20.396,49.31587 -4.56666,0.30413 -10.65466,0.60827 -10.65466,3.9572 7.61066,0 13.69866,0 16.74266,0 3.044,0 22.83067,-17.96093 31.35467,-45.05307 0.304,-4.87066 -17.04667,-8.22 -17.04667,-8.22" /><path
       id="path154"
       style="fill:#888c8c;fill-opacity:1;fill-rule:nonzero;stroke:none;stroke-width:0.133333"
       d="m 151.37866,422.37601 c 3.58134,-6.088 13.788,-19.33867 29.188,-17.012 2.14934,10.38667 -5.372,20.41467 -11.28133,26.324 -5.372,-0.716 -17.90667,-9.312 -17.90667,-9.312" /><path
       id="path156"
       style="fill:#a5a8a6;fill-opacity:1;fill-rule:nonzero;stroke:none;stroke-width:0.133333"
       d="m 180.59733,405.56401 c -0.0133,-0.0667 -0.0173,-0.13333 -0.0307,-0.2 -15.4,-2.328 -25.60666,10.924 -29.188,17.012 0,0 3.34134,2.288 7.30934,4.60133 2.69466,-7.90533 11.944,-18.84266 21.90933,-21.41333" /><path
       id="path158"
       style="fill:#888c8c;fill-opacity:1;fill-rule:nonzero;stroke:none;stroke-width:0.133333"
       d="m 127.938,422.37601 c -3.5812,-6.088 -13.78854,-19.33867 -29.188002,-17.012 -2.148934,10.38667 5.371862,20.41467 11.281202,26.324 5.37186,-0.716 17.9068,-9.312 17.9068,-9.312" /><path
       id="path160"
       style="fill:#a5a8a6;fill-opacity:1;fill-rule:nonzero;stroke:none;stroke-width:0.133333"
       d="m 98.719731,405.56401 c 0.01307,-0.0667 0.01627,-0.13333 0.03027,-0.2 15.399459,-2.328 25.606799,10.924 29.187999,17.012 0,0 -3.34107,2.288 -7.3088,4.60133 -2.69534,-7.90533 -11.94534,-18.84266 -21.909466,-21.41333" /><path
       id="path162"
       style="fill:#dbdbd8;fill-opacity:1;fill-rule:nonzero;stroke:none;stroke-width:0.133333"
       d="m 92.516131,456.27068 c 0,-6.43334 12.022929,-22.65867 24.890669,-24.336 10.4072,-1.48667 15.54946,1.64933 23.87586,1.64933 8.32534,0 10.10934,-0.75733 23.788,1.324 13.67734,2.08133 22.004,14.22667 24.68,21.36267 0,8.52133 -34.79066,29.18666 -49.65733,29.18666 -14.86827,0 -47.577199,-25.61866 -47.577199,-29.18666" /><path
       id="path164"
       style="fill:#ffffff;fill-opacity:1;fill-rule:nonzero;stroke:none;stroke-width:0.133333"
       d="m 139.80666,454.05201 c -8.1556,0 -28.70093,18.75066 -10.904,27.64933 17.79734,8.89867 33.944,-4.196 29.87467,-12.712 -4.07067,-8.51733 -10.81467,-14.93733 -18.97067,-14.93733" /><path
       id="path166"
       style="fill:#343637;fill-opacity:1;fill-rule:nonzero;stroke:none;stroke-width:0.133333"
       d="m 141.04133,445.36534 c -4.50133,0.23867 -10.45173,-7.37733 -19.46893,-6.55866 -6.4948,0.59066 -12.67187,2.892 -17.53387,7.59866 -3.138,3.03734 -1.9948,8.344 1.9964,10.12 10.60627,4.72 16.58067,4.19867 23.0348,0.51067 7.75293,-4.43067 14.53693,-4.84667 20.35293,-1.108 5.124,3.29467 12.93734,9.92267 27.04134,0.92933 3.45066,-2.20133 3.93733,-7.03333 1,-9.884 -7.22534,-7.012 -12.408,-8.75733 -19.45734,-8.07466 -7.58,0.73333 -10.53066,6.46666 -16.96533,6.46666" /><path
       id="path168"
       style="fill:#ffffff;fill-opacity:1;fill-rule:nonzero;stroke:none;stroke-width:0.133333"
       d="m 128.63693,447.80401 c 0,1.68133 -1.36293,3.044 -3.04427,3.044 -1.6812,0 -3.04426,-1.36267 -3.04426,-3.044 0,-1.68133 1.36306,-3.044 3.04426,-3.044 1.68134,0 3.04427,1.36267 3.04427,3.044" /><path
       id="path170"
       style="fill:none;stroke:#171717;stroke-width:2.57688;stroke-linecap:butt;stroke-linejoin:miter;stroke-miterlimit:10;stroke-dasharray:none;stroke-opacity:1"
       d="m 128.63693,447.80401 c 0,1.68133 -1.36293,3.044 -3.04427,3.044 -1.6812,0 -3.04426,-1.36267 -3.04426,-3.044 0,-1.68133 1.36306,-3.044 3.04426,-3.044 1.68134,0 3.04427,1.36267 3.04427,3.044 z" /><path
       id="path172"
       style="fill:#ffffff;fill-opacity:1;fill-rule:nonzero;stroke:none;stroke-width:0.133333"
       d="m 159.43733,447.80401 c 0,1.68133 -1.364,3.044 -3.04533,3.044 -1.68134,0 -3.044,-1.36267 -3.044,-3.044 0,-1.68133 1.36266,-3.044 3.044,-3.044 1.68133,0 3.04533,1.36267 3.04533,3.044" /><path
       id="path174"
       style="fill:none;stroke:#171717;stroke-width:2.57688;stroke-linecap:butt;stroke-linejoin:miter;stroke-miterlimit:10;stroke-dasharray:none;stroke-opacity:1"
       d="m 159.43733,447.80401 c 0,1.68133 -1.364,3.044 -3.04533,3.044 -1.68134,0 -3.044,-1.36267 -3.044,-3.044 0,-1.68133 1.36266,-3.044 3.044,-3.044 1.68133,0 3.04533,1.36267 3.04533,3.044 z" /><path
       id="path176"
       style="fill:#a5a8a6;fill-opacity:1;fill-rule:nonzero;stroke:none;stroke-width:0.133333"
       d="m 118.9688,434.61068 c 7.35826,-1.052 12.64426,0.38266 15.91653,4.208 6.208,7.25333 3.95333,30.44533 3.95333,30.44533 h 3.86534 c 0,0 -0.80534,-22.38667 4.384,-30.36133 2.65333,-4.076 8.09066,-5.49867 17.97066,-3.99467 6.18,0.94 11.25734,4.608 15.22534,7.61333 -9.916,-15.392 -25.18134,-23.368 -40.02,-23.368 -23.73174,0 -36.23894,11.664 -41.171336,24.45467 4.501066,-5.296 11.208936,-7.93333 19.876136,-8.99733" /><path
       id="path178"
       style="fill:#1d1d1d;fill-opacity:1;fill-rule:nonzero;stroke:none;stroke-width:0.133333"
       d="m 146.54933,469.51067 c 0,1.028 -3.72267,3.284 -5.584,3.284 -1.86133,0 -5.584,-2.256 -5.584,-3.284 0,-1.028 2.5,-1.86133 5.584,-1.86133 3.084,0 5.584,0.83333 5.584,1.86133" /></g></svg>
