<?xml version="1.0" encoding="UTF-8" standalone="no"?>
<svg
   xmlns:dc="http://purl.org/dc/elements/1.1/"
   xmlns:cc="http://creativecommons.org/ns#"
   xmlns:rdf="http://www.w3.org/1999/02/22-rdf-syntax-ns#"
   xmlns:svg="http://www.w3.org/2000/svg"
   xmlns="http://www.w3.org/2000/svg"
   xmlns:sodipodi="http://sodipodi.sourceforge.net/DTD/sodipodi-0.dtd"
   xmlns:inkscape="http://www.inkscape.org/namespaces/inkscape"
   viewBox="0 0 512 512"
   height="512"
   width="512"
   xml:space="preserve"
   id="svg2"
   version="1.1"
   sodipodi:docname="Red Fox.svg"
   inkscape:version="1.0.2 (e86c870879, 2021-01-15, custom)"><sodipodi:namedview
     pagecolor="#ffffff"
     bordercolor="#666666"
     borderopacity="1"
     objecttolerance="10"
     gridtolerance="10"
     guidetolerance="10"
     inkscape:pageopacity="0"
     inkscape:pageshadow="2"
     inkscape:window-width="1366"
     inkscape:window-height="715"
     id="namedview84767"
     showgrid="false"
     inkscape:document-rotation="0"
     inkscape:zoom="0.80849998"
     inkscape:cx="333.33334"
     inkscape:cy="333.33334"
     inkscape:window-x="-8"
     inkscape:window-y="-8"
     inkscape:window-maximized="1"
     inkscape:current-layer="svg2" /><metadata
     id="metadata8"><rdf:RDF><cc:Work
         rdf:about=""><dc:format>image/svg+xml</dc:format><dc:type
           rdf:resource="http://purl.org/dc/dcmitype/StillImage" /><dc:title></dc:title></cc:Work></rdf:RDF></metadata><defs
     id="defs6"><linearGradient
       id="linearGradient18"
       spreadMethod="pad"
       gradientTransform="matrix(666.66665,0,0,666.66665,0,333.33334)"
       gradientUnits="userSpaceOnUse"
       y2="0"
       x2="1"
       y1="0"
       x1="0"><stop
         id="stop14"
         offset="0"
         style="stop-opacity:1;stop-color:#f3f3f2" /><stop
         id="stop16"
         offset="1"
         style="stop-opacity:1;stop-color:#e9e9e7" /></linearGradient></defs><g
     id="g85028"
     transform="matrix(1.215278,0,0,1.215278,-3.0574844,-76.998168)"><path
       id="path32"
       style="fill:#dcddda;fill-opacity:1;fill-rule:nonzero;stroke:none;stroke-width:0.133333"
       d="m 287.11333,370.85201 c 0,3.584 -49.388,6.48933 -110.312,6.48933 -60.92213,0 -110.310132,-2.90533 -110.310132,-6.48933 0,-3.58267 49.388002,-6.488 110.310132,-6.488 60.924,0 110.312,2.90533 110.312,6.488" /><path
       id="path34"
       style="fill:#f36b18;fill-opacity:1;fill-rule:nonzero;stroke:none;stroke-width:0.133333"
       d="m 337.46532,287.67068 c -12.81199,-1.30933 -26.33999,-6.632 -36.90666,-20.08 -26.25733,-33.41733 -43.76133,-27.052 -68.428,-21.48267 23.07467,1.59067 24.66667,16.70934 50.924,57.288 17.45733,26.98 47.21467,27.91067 69.416,12.188 -10.10667,-3.38133 -18.11067,-14.28933 -15.00534,-27.91333" /><path
       id="path36"
       style="fill:#ffffff;fill-opacity:1;fill-rule:nonzero;stroke:none;stroke-width:0.133333"
       d="m 377.73866,280.32135 c -3.804,2.37733 -21.248,9.29333 -40.27334,7.34933 -3.10533,13.624 4.89867,24.532 15.00534,27.91333 11.19066,-7.924 20.468,-20.06266 25.268,-35.26266" /><path
       id="path38"
       style="fill:#ca4a20;fill-opacity:1;fill-rule:nonzero;stroke:none;stroke-width:0.133333"
       d="m 106.31826,289.59335 c 8.06774,12.81333 18.50774,54.57466 7.11867,72.60799 -6.64427,-0.47466 -6.64427,1.89867 -6.64427,4.272 7.1188,0 15.186,2.84667 19.93187,-15.18666 4.74573,-18.03333 7.42213,-41.07067 6.59213,-53.736" /><path
       id="path40"
       style="fill:#ca4a20;fill-opacity:1;fill-rule:nonzero;stroke:none;stroke-width:0.133333"
       d="m 173.98666,299.95601 c -4.9,20.044 7.87334,28.67734 16.276,34.024 7.47734,4.75867 7.988,13.596 7.47734,35.74 -7.12667,0 -8.164,4.62133 -8.164,6.40267 h 8.75866 c 4.36,0 7.868,-3.57334 7.77733,-7.932 -0.22266,-10.68 -0.636,-28.74667 -0.94666,-32.156 -0.44534,-4.89867 -3.56267,-6.23467 -6.236,-9.35333 -2.672,-3.11734 -5.29467,-17.26267 7.56533,-30.12267" /><path
       id="path42"
       style="fill:#f36b18;fill-opacity:1;fill-rule:nonzero;stroke:none;stroke-width:0.133333"
       d="m 132.91666,234.02935 c 14.08334,2.89866 46.32334,4.00933 68.14867,-2.22667 21.82533,-6.236 47.21466,2.672 49.88666,24.94267 2.672,22.27066 -8.01733,48.10533 -57.01333,51.22266 -48.996,3.11867 -77.05693,-5.79066 -85.9652,-28.952 -8.908396,-23.16133 9.79947,-48.104 24.9432,-44.98666" /><path
       id="path44"
       style="fill:#ffffff;fill-opacity:1;fill-rule:nonzero;stroke:none;stroke-width:0.133333"
       d="m 90.237998,229.17068 c -0.987467,21.404 -8.231733,72.444 44.783332,72.444 -2.30467,-4.93867 -24.038,-12.84267 -16.7932,-63.224" /><path
       id="path46"
       style="fill:#f36b18;fill-opacity:1;fill-rule:nonzero;stroke:none;stroke-width:0.133333"
       d="m 194.82933,301.28668 c -4.9,20.044 7.87333,28.67733 16.276,34.024 7.47733,4.75866 7.988,13.596 7.47733,35.74 -7.12667,0 -8.164,4.62 -8.164,6.40266 h 8.75867 c 4.36,0 7.86933,-3.57333 7.77733,-7.932 -0.22267,-10.68133 -0.636,-28.74666 -0.94667,-32.156 -0.44533,-4.89866 -3.56266,-6.23599 -6.23466,-9.35333 -2.67334,-3.11866 -5.296,-17.26266 7.564,-30.12266" /><path
       id="path48"
       style="fill:#f36b18;fill-opacity:1;fill-rule:nonzero;stroke:none;stroke-width:0.133333"
       d="m 128.3016,212.68535 c 8.41973,-15.92133 -6.88907,-41.488 -10.86934,-42.1 -4.3036,-0.66267 -14.23746,16.22667 -13.1656,24.03467" /><path
       id="path50"
       style="fill:#ffffff;fill-opacity:1;fill-rule:nonzero;stroke:none;stroke-width:0.133333"
       d="m 125.77346,210.90535 c 6.98174,-13.20133 -5.71253,-34.40133 -9.01306,-34.90933 -3.56867,-0.54934 -11.80574,13.456 -10.9172,19.93066" /><path
       id="path52"
       style="fill:#f36b18;fill-opacity:1;fill-rule:nonzero;stroke:none;stroke-width:0.133333"
       d="m 62.600532,212.68535 c -8.419867,-15.92133 6.889066,-41.488 10.869199,-42.1 4.304267,-0.66267 14.2376,16.22667 13.166267,24.03467" /><path
       id="path54"
       style="fill:#ffffff;fill-opacity:1;fill-rule:nonzero;stroke:none;stroke-width:0.133333"
       d="m 65.129198,210.90535 c -6.982266,-13.20133 5.712534,-34.40133 9.012933,-34.90933 3.568267,-0.54934 11.805734,13.456 10.9172,19.93066" /><path
       id="path56"
       style="fill:#f36b18;fill-opacity:1;fill-rule:nonzero;stroke:none;stroke-width:0.133333"
       d="m 137.79333,226.00401 c -3.52133,-3.52133 -8.41987,-17.14666 -13.01267,-22.04533 -4.59266,-4.89866 -3.82706,-7.19466 -3.21506,-8.57333 -1.83694,0.76533 -2.60254,2.44933 -2.60254,2.44933 0,0 1.5312,-4.592 -0.612,-8.42 0,3.98134 -1.99066,7.196 -1.99066,7.196 0,0 -1.83694,-3.67466 -0.76507,-5.35866 -2.44947,1.22533 -3.062,4.74533 -3.062,4.74533 0,0 -3.82707,-3.82667 -16.074532,-3.82667 -12.2468,0 -18.3708,2.90934 -18.3708,2.90934 0,0 0.1532,-3.216 -2.602533,-4.13467 0.6124,1.684 -0.306267,4.44 -0.306267,4.44 0,0 -3.5208,-6.124 -2.7552,-8.72533 -1.990133,6.42933 -1.071866,10.56266 -1.071866,10.56266 0,0 -1.683867,-1.99066 -3.062,-2.14266 1.224933,1.37733 1.571333,3.94133 -0.1532,5.81733 -5.204667,5.664 -6.123334,12.09333 -13.0124,24.49333 7.3484,1.37867 21.279599,10.71733 22.350933,17.14667 1.071866,6.42933 1.225066,16.07466 16.993333,16.07466 15.768132,0 16.533862,-5.97066 18.830132,-11.02266 2.2964,-5.052 17.6052,-23.116 17.6052,-23.116 l 6.8892,1.53066" /><path
       id="path58"
       style="fill:#ffffff;fill-opacity:1;fill-rule:nonzero;stroke:none;stroke-width:0.133333"
       d="m 134.408,223.38401 c 2.47466,1.23734 5.03066,3.63334 6.14933,2.79467 -1.67733,1.39733 -4.47333,0.83867 -4.47333,0.83867 0,0 1.39866,3.07466 2.516,2.516 -4.472,3.91333 -20.40467,31.58533 -45.560936,31.58533 -25.156799,0 -37.175999,-29.34933 -40.530265,-31.02667 1.118266,-0.27866 3.354266,-0.83866 3.354266,-0.83866 0,0 -4.471866,-1.11734 -7.2672,-2.51467 3.633867,-0.28 5.869734,-1.95733 9.5036,-5.312 3.633333,-3.35333 8.105733,-8.38533 17.889066,-8.38533 9.7828,0 15.093733,11.46 12.019333,18.448 -3.075066,6.988 -12.019333,25.716 6.988,25.716 19.006796,0 10.901066,-16.492 8.385336,-24.59734 -2.51614,-8.10666 2.236,-18.448 13.13706,-18.448 8.38534,0 11.18067,5.86934 17.88974,9.224" /><path
       id="path60"
       style="fill:#6b2316;fill-opacity:1;fill-rule:nonzero;stroke:none;stroke-width:0.133333"
       d="m 88.651598,249.19468 c 0,1.26133 4.567733,3.35867 6.5828,3.35867 2.015066,0 6.582802,-2.09734 6.582802,-3.35867 0,-1.26133 -2.947469,-2.28267 -6.582802,-2.28267 -3.636,0 -6.5828,1.02134 -6.5828,2.28267" /><path
       id="path62"
       style="fill:#6b2316;fill-opacity:1;fill-rule:nonzero;stroke:none;stroke-width:0.133333"
       d="m 76.251065,227.99335 c 0,1.43733 1.165066,2.60266 2.602533,2.60266 1.4376,0 2.602667,-1.16533 2.602667,-2.60266 0,-1.43734 -1.165067,-2.60267 -2.602667,-2.60267 -1.437467,0 -2.602533,1.16533 -2.602533,2.60267" /><path
       id="path64"
       style="fill:#6b2316;fill-opacity:1;fill-rule:nonzero;stroke:none;stroke-width:0.133333"
       d="m 109.62453,227.99335 c 0,1.43733 1.1656,2.60266 2.60253,2.60266 1.43747,0 2.60267,-1.16533 2.60267,-2.60266 0,-1.43734 -1.1652,-2.60267 -2.60267,-2.60267 -1.43693,0 -2.60253,1.16533 -2.60253,2.60267" /><path
       id="path66"
       style="fill:#f36b18;fill-opacity:1;fill-rule:nonzero;stroke:none;stroke-width:0.133333"
       d="m 121.27866,278.85735 c 8.85254,21.11066 14.344,70.29333 2.95414,88.32666 -6.64374,-0.47333 -6.64374,1.89867 -6.64374,4.272 7.1188,0 15.186,2.84667 19.93227,-15.18667 4.74533,-18.03333 10.12533,-41.25333 9.29467,-53.91866" /></g></svg>
