<?xml version="1.0" encoding="UTF-8" standalone="no"?>
<svg
   xmlns:dc="http://purl.org/dc/elements/1.1/"
   xmlns:cc="http://creativecommons.org/ns#"
   xmlns:rdf="http://www.w3.org/1999/02/22-rdf-syntax-ns#"
   xmlns:svg="http://www.w3.org/2000/svg"
   xmlns="http://www.w3.org/2000/svg"
   xmlns:sodipodi="http://sodipodi.sourceforge.net/DTD/sodipodi-0.dtd"
   xmlns:inkscape="http://www.inkscape.org/namespaces/inkscape"
   viewBox="0 0 511.99998 511.99998"
   height="512"
   width="512"
   xml:space="preserve"
   id="svg2"
   version="1.1"
   sodipodi:docname="Skunk.svg"
   inkscape:version="1.0.2 (e86c870879, 2021-01-15, custom)"><sodipodi:namedview
     pagecolor="#ffffff"
     bordercolor="#666666"
     borderopacity="1"
     objecttolerance="10"
     gridtolerance="10"
     guidetolerance="10"
     inkscape:pageopacity="0"
     inkscape:pageshadow="2"
     inkscape:window-width="1366"
     inkscape:window-height="715"
     id="namedview50241"
     showgrid="false"
     inkscape:zoom="0.51374996"
     inkscape:cx="533.33337"
     inkscape:cy="677.74667"
     inkscape:window-x="-8"
     inkscape:window-y="-8"
     inkscape:window-maximized="1"
     inkscape:current-layer="svg2" /><metadata
     id="metadata8"><rdf:RDF><cc:Work
         rdf:about=""><dc:format>image/svg+xml</dc:format><dc:type
           rdf:resource="http://purl.org/dc/dcmitype/StillImage" /><dc:title></dc:title></cc:Work></rdf:RDF></metadata><defs
     id="defs6"><clipPath
       id="clipPath340"
       clipPathUnits="userSpaceOnUse"><path
         id="path338"
         d="m 6293.54,3775.37 c -75.45,73.55 -96.38,180.38 -85.32,285.16 11.06,104.78 60.05,210.28 42.17,314.11 -26.81,155.61 -171.1,293.72 -325.31,327.67 -154.2,33.95 -321.37,-19.88 -437.94,-126.39 -106.02,-96.88 -173.54,-243.6 -149.18,-385.13 24.36,-141.54 155.66,-265 298.94,-255.33 -54.6,5.91 -86.79,75.7 -64.61,125.94 22.19,50.23 83.81,75.16 137.98,66.15 54.17,-9.02 100.36,-45.89 133.36,-89.78 33.01,-43.89 54.89,-94.91 78.41,-144.54 23.51,-49.62 49.61,-99.28 88.97,-137.58 61.42,-59.77 153.75,-85.88 237.37,-67.13" /></clipPath><clipPath
       id="clipPath402"
       clipPathUnits="userSpaceOnUse"><path
         id="path400"
         d="m 4273.9,6127.34 c -117.8,241.74 -348.88,236.8 -352.25,236.72 -3.38,0.08 -234.46,5.02 -352.26,-236.72 -24.51,-50.28 -43.15,-189.36 -100.69,-198.83 0,0 158.17,-269.75 452.95,-260.38 294.77,-9.37 452.94,260.38 452.94,260.38 -57.53,9.47 -76.18,148.55 -100.69,198.83 z" /></clipPath><clipPath
       id="clipPath424"
       clipPathUnits="userSpaceOnUse"><path
         id="path422"
         d="m 4901.42,5525.39 c 85.32,-4.92 160.72,67.77 183.23,150.21 22.51,82.44 2.85,170.64 -27.15,250.65 -30,80.02 -70.36,156.47 -91.27,239.33 -51.99,206.05 33.2,439.8 205.58,564.07 172.38,124.28 421.07,131.24 600.13,16.8 -92.74,16.26 -206.15,-14.64 -278.35,-75.07 -111.47,-93.29 -134.35,-255.32 -127.84,-400.53 6.5,-145.21 33.95,-294.09 -7.03,-433.55 -60.19,-204.87 -245.26,-337.08 -457.3,-311.91 z" /></clipPath></defs><g
     id="g50789"
     transform="matrix(1.4297608,0,0,1.4297608,-960.65216,-512.72166)"><path
       id="path332"
       style="fill:#3e2735;fill-opacity:1;fill-rule:nonzero;stroke:none;stroke-width:0.133333"
       d="m 839.13865,563.28405 c -10.06,-9.80667 -11.41734,-24.05067 -9.94267,-38.02134 1.47467,-13.97066 6.57333,-28.03733 4.18933,-41.88133 -3.57466,-20.748 -22.81333,-39.16266 -43.37466,-43.68933 -20.56,-4.52667 -42.84934,2.65067 -58.392,16.852 -14.136,12.91733 -23.13867,32.48 -19.89067,51.35066 3.248,18.872 20.75467,35.33334 39.85867,34.044 -7.28,-0.788 -11.572,-10.09333 -8.61467,-16.792 2.95867,-6.69733 11.17467,-10.02133 18.39733,-8.82 7.22267,1.20267 13.38134,6.11867 17.78134,11.97067 4.40133,5.852 7.31866,12.65467 10.45466,19.272 3.13467,6.616 6.61467,13.23733 11.86267,18.344 8.18933,7.96933 20.5,11.45067 31.64933,8.95067" /><g
       id="g334"
       transform="matrix(0.13333333,0,0,-0.13333333,0,1066.6667)"><g
         clip-path="url(#clipPath340)"
         id="g336"><path
           id="path342"
           style="fill:#f2e4cf;fill-opacity:1;fill-rule:nonzero;stroke:none"
           d="m 5628.08,3956.06 c 0,0 -1.91,0 -5.61,0.01 -3.62,-0.08 -9.3,0.04 -16.89,0.89 -7.35,0.9 -16.54,2.1 -27.26,4.52 -10.85,2.16 -23,5.97 -36.3,11.46 -26.6,10.78 -58.56,28.23 -89,57.36 -15.34,14.41 -29.92,31.81 -43.69,51.86 -13.38,20.27 -25.31,43.51 -34.62,69.71 -4.54,13.12 -8.09,27.03 -10.92,41.54 l -1.01,5.47 -0.25,1.38 -0.13,0.69 c -0.07,0.96 -0.01,-1.17 -0.19,2.32 l -0.36,2.15 -1.42,8.9 c -0.35,4.29 -0.71,8.6 -1.07,12.93 -0.19,3.9 -0.39,7.83 -0.59,11.77 -0.76,30.92 2.85,62.07 9.92,92.83 14.94,61.32 43.3,121.4 88.58,175.62 22.45,27.31 50.12,52.42 83.67,74.15 4.18,2.72 8.6,5.27 12.93,7.89 l 13.15,7.11 9.39,5.11 c 3.8,1.92 9.51,4.46 14.28,6.5 l 15.08,6.3 13.66,4.81 13.67,4.64 13.86,3.82 c 74.21,20.49 153.29,18.64 227.55,-1.91 9.27,-2.64 18.38,-5.97 27.54,-9.04 9.08,-3.34 18.01,-7.18 26.97,-10.85 8.84,-4.05 17.57,-8.39 26.29,-12.68 l 12.77,-7.19 6.36,-3.64 3.17,-1.83 1.58,-0.92 4.19,-2.62 9.12,-6.04 4.56,-3.01 c 1.57,-1.07 2.77,-1.75 5.22,-3.63 8.45,-6.39 17.68,-13.21 25.13,-19.58 14.52,-12.37 28.23,-25.43 40.9,-39.22 12.62,-13.82 24.48,-28.13 35.03,-43.16 10.5,-15.08 20.04,-30.61 28.48,-46.52 17,-31.76 30.17,-64.85 38.53,-98.6 4.34,-16.8 7.61,-33.73 9.9,-50.61 1.01,-8.48 2.36,-16.81 2.75,-25.29 l 0.65,-12.62 0.48,-8.73 -0.12,-4.99 -0.25,-9.92 -0.55,-13.57 c -0.32,-9.75 -1.25,-16.98 -2.03,-24.75 -1.73,-15.29 -3.92,-29.5 -6.7,-43.17 -5.55,-27.08 -11.49,-51.57 -17.35,-74.28 -6.08,-22.65 -11.38,-43.59 -15.68,-62.81 -2.25,-9.58 -4.14,-18.74 -5.66,-27.45 -0.66,-4.22 -1.31,-8.38 -1.96,-12.5 -0.45,-5.88 -0.92,-8.57 -1.4,-12.84 -1.8,-16.78 -1.57,-33.04 -0.48,-48.32 2.35,-30.56 9.08,-57.22 18.86,-77.54 9.92,-20.1 21.45,-35.18 31.1,-44.02 9.52,-9 15.66,-13.38 15.66,-13.38 l -3.98,-11.32 c 0,0 -1.79,0.66 -5.26,1.94 -3.46,1.29 -8.56,3.37 -14.94,6.64 -12.71,6.47 -30.78,18.16 -48.25,38.41 -17.53,20.06 -34.05,48.46 -45.08,83.53 -5.57,17.51 -9.84,36.64 -12.27,57.1 -2.47,20.39 -2.45,42.34 -1.12,64.53 2.63,44.59 10.68,91.76 15.46,141.37 2.29,24.97 3.66,49.85 1.7,75.73 -2.15,25.3 -7.28,51.39 -15.42,76.73 -16.22,50.8 -44.61,99.76 -83.59,139.81 -9.73,10.02 -20.16,19.38 -31.07,28.2 -5.43,4.4 -11.08,8.24 -16.6,12.42 -5.84,4.02 -12.19,7.89 -18.26,11.85 -23.49,14.19 -50.2,25.5 -77.28,33.05 -54.32,15.64 -112.82,17.34 -166.92,4.27 l -10.13,-2.45 -9.91,-3.11 -9.88,-3.13 -9.44,-3.7 c -3.15,-1.26 -6.26,-2.34 -9.45,-3.75 l -9.65,-4.58 c -3.01,-1.46 -6.86,-3.17 -9.17,-4.43 -2.95,-1.66 -5.95,-3.19 -8.85,-4.93 -23.33,-13.67 -44.22,-31.16 -62.42,-50.56 -36.42,-38.89 -62.86,-84.86 -78.2,-131.23 -15.7,-46.46 -18.53,-93.43 -9.16,-134.86 9.04,-41.5 27.4,-76.98 47.92,-104.81 20.63,-27.96 43.81,-48.17 64.36,-62.23 20.6,-14.15 38.74,-22.09 51.17,-26.96 6.18,-2.24 10.96,-3.95 14.45,-4.94 3.39,-1.05 5.14,-1.59 5.14,-1.59 l -3.39,-11.51" /></g></g><path
       id="path344"
       style="fill:#f2e4cf;fill-opacity:1;fill-rule:nonzero;stroke:none;stroke-width:0.133333"
       d="m 860.75331,555.98138 c 12.068,1.49067 23.29333,6.77867 34.24267,12.06667 10.94933,5.288 22.07866,10.716 34.10266,12.524 10.15334,1.528 21.20267,0.0613 29.61067,-5.56934 l 1.184,-8.32666 c -9.872,6.60133 -23.364,4.39066 -33.93733,-1.01734 -10.572,-5.408 -19.508,-13.588 -29.95334,-19.24 -20.91733,-11.316 -48.75866,-10.816 -67.08666,4.34 -7.64933,6.32534 -12.96667,15.27867 -15.476,24.892 0.416,-0.596 0.82533,-1.19733 1.27467,-1.76933 10.62,-13.55067 28.95333,-20.012 46.03866,-17.9" /><path
       id="path346"
       style="fill:#3e2735;fill-opacity:1;fill-rule:nonzero;stroke:none;stroke-width:0.133333"
       d="m 929.09864,580.57205 c -12.024,-1.808 -23.15333,-7.236 -34.10266,-12.524 -10.94934,-5.288 -22.17467,-10.576 -34.24267,-12.06667 -17.08533,-2.112 -35.41866,4.34933 -46.03866,17.9 -0.44934,0.572 -0.85867,1.17333 -1.27467,1.76933 -3.50267,13.42534 -1.52133,28.14 7.32667,38.80533 6.47333,7.80534 11.79466,12.764 14.96933,22.39467 9.10133,-0.42133 3.86933,0.42 12.97067,0 0.48133,-7.83733 1.28533,-14.07867 2.228,-20.95733 14.84266,-2.39334 30.00133,-0.39734 44.90266,1.6 5.156,0.69066 10.59867,1.50133 14.644,4.772 2.57867,2.08533 3.31333,5.47733 3.92533,8.912 0.60667,3.412 3.65467,5.85066 7.11867,5.69866 1.78133,-0.0773 3.28133,-0.18933 7.04667,-0.0253 0.38133,-6.604 0.264,-11.54533 3.60266,-16.364 3.33867,-4.81733 16.34,-14.688 21.88134,-12.776 l 4.65333,-32.708 c -8.408,5.63067 -19.45733,7.09734 -29.61067,5.56934" /><path
       id="path348"
       style="fill:#3e2735;fill-opacity:1;fill-rule:nonzero;stroke:none;stroke-width:0.133333"
       d="m 843.27331,629.02938 c -4.91333,0 -8.89733,2.42 -8.89733,5.40533 0,0.91733 0.37867,1.78 1.04267,2.53733 h 15.70933 c 0.664,-0.75733 1.044,-1.62 1.044,-2.53733 0,-2.98533 -3.984,-5.40533 -8.89867,-5.40533" /><path
       id="path350"
       style="fill:#3e2735;fill-opacity:1;fill-rule:nonzero;stroke:none;stroke-width:0.133333"
       d="m 934.49598,634.43471 c 0,-2.98533 -3.98267,-5.40533 -8.89734,-5.40533 -4.91466,0 -8.89733,2.42 -8.89733,5.40533 0,0.91733 0.37867,1.78 1.04267,2.53733 h 15.70933 c 0.664,-0.75733 1.04267,-1.62 1.04267,-2.53733" /><path
       id="path352"
       style="fill:#3e2735;fill-opacity:1;fill-rule:nonzero;stroke:none;stroke-width:0.133333"
       d="m 985.44398,575.11071 c -0.456,-4.34933 -1.172,-7.244 -1.82267,-9.11466 -0.63467,-1.824 0.13867,-3.80134 1.74,-4.88134 4.804,-3.24133 5.924,-6.94533 5.32133,-10.416 -1.22266,-7.03066 -10.76533,-8.38933 -14.01066,-2.03466 l -1.24267,2.436 c -4.13467,-4.13467 -32.57867,-4.13467 -36.71333,0 l -1.784,-2.68667 c -3.596,-5.40933 -11.988,-4.21333 -13.73867,2.04267 -1.02933,3.68133 -0.22133,7.64666 5.16933,10.77866 1.81067,1.052 2.672,3.18134 2.02267,5.17067 -0.61067,1.87467 -1.26,4.66133 -1.684,8.70533 -0.29467,2.80134 -0.34267,6.26934 -0.444,9.62534 -0.28,9.38533 5.09333,18.01866 13.62667,21.93466 0.26666,0.12267 0.53333,0.24267 0.80266,0.36133 1.29867,0.576 2.62667,1.11467 3.968,1.59334 6.404,2.288 14.432,2.288 20.836,0 1.34,-0.47867 2.66934,-1.01734 3.968,-1.59334 0.26934,-0.11866 0.536,-0.23866 0.80267,-0.36133 8.53333,-3.916 13.90667,-12.54933 13.62533,-21.93466 -0.1,-3.356 -0.14933,-6.824 -0.44266,-9.62534" /><path
       id="path354"
       style="fill:#79747a;fill-opacity:1;fill-rule:nonzero;stroke:none;stroke-width:0.133333"
       d="m 971.33998,587.91471 c 0,1.66267 1.348,3.01067 3.01066,3.01067 1.66267,0 3.01067,-1.348 3.01067,-3.01067 0,-1.66266 -1.348,-3.01066 -3.01067,-3.01066 -1.66266,0 -3.01066,1.348 -3.01066,3.01066" /><path
       id="path356"
       style="fill:#79747a;fill-opacity:1;fill-rule:nonzero;stroke:none;stroke-width:0.133333"
       d="m 944.40398,587.91471 c 0,1.66267 -1.348,3.01067 -3.01067,3.01067 -1.66267,0 -3.01067,-1.348 -3.01067,-3.01067 0,-1.66266 1.348,-3.01066 3.01067,-3.01066 1.66267,0 3.01067,1.348 3.01067,3.01066" /><path
       id="path358"
       style="fill:#79747a;fill-opacity:1;fill-rule:nonzero;stroke:none;stroke-width:0.133333"
       d="m 958.04264,607.55071 3.32667,-3.62667 c 0.70933,-0.77333 0.16,-2.02 -0.888,-2.02 h -6.652 c -1.04933,0 -1.59733,1.24667 -0.888,2.02 l 3.32533,3.62667 c 0.47734,0.52133 1.29867,0.52133 1.776,0" /><path
       id="path360"
       style="fill:#f2e4cf;fill-opacity:1;fill-rule:nonzero;stroke:none;stroke-width:0.133333"
       d="m 970.81598,548.65338 c -6.83867,-2.61067 -20.624,-2.612 -27.476,-0.004 l 13.764,45.29467 13.712,-45.29067" /></g></svg>
