<?xml version="1.0" encoding="UTF-8" standalone="no"?>
<svg
   xmlns:dc="http://purl.org/dc/elements/1.1/"
   xmlns:cc="http://creativecommons.org/ns#"
   xmlns:rdf="http://www.w3.org/1999/02/22-rdf-syntax-ns#"
   xmlns:svg="http://www.w3.org/2000/svg"
   xmlns="http://www.w3.org/2000/svg"
   xmlns:sodipodi="http://sodipodi.sourceforge.net/DTD/sodipodi-0.dtd"
   xmlns:inkscape="http://www.inkscape.org/namespaces/inkscape"
   viewBox="0 0 512 512"
   height="512"
   width="512"
   xml:space="preserve"
   id="svg2"
   version="1.1"
   sodipodi:docname="Squirrel.svg"
   inkscape:version="1.0.2 (e86c870879, 2021-01-15, custom)"><sodipodi:namedview
     pagecolor="#ffffff"
     bordercolor="#666666"
     borderopacity="1"
     objecttolerance="10"
     gridtolerance="10"
     guidetolerance="10"
     inkscape:pageopacity="0"
     inkscape:pageshadow="2"
     inkscape:window-width="1366"
     inkscape:window-height="715"
     id="namedview3124"
     showgrid="false"
     inkscape:zoom="0.89833333"
     inkscape:cx="400"
     inkscape:cy="266.87545"
     inkscape:window-x="-8"
     inkscape:window-y="-8"
     inkscape:window-maximized="1"
     inkscape:current-layer="svg2" /><metadata
     id="metadata8"><rdf:RDF><cc:Work
         rdf:about=""><dc:format>image/svg+xml</dc:format><dc:type
           rdf:resource="http://purl.org/dc/dcmitype/StillImage" /><dc:title></dc:title></cc:Work></rdf:RDF></metadata><defs
     id="defs6" /><g
     id="g6346"
     transform="matrix(2.6116688,0,0,2.6116688,-1584.8836,-587.10458)"><path
       id="path1206"
       style="fill:#ff8c37;fill-opacity:1;fill-rule:nonzero;stroke:none;stroke-width:0.133333"
       d="m 708.05732,286.21734 c 2.036,-5.352 6.044,-9.75867 10.568,-13.27333 8.73066,-6.78133 19.89466,-10.64667 30.91066,-9.72267 11.01733,0.92134 21.70667,6.89867 27.47467,16.32933 5.76933,9.43067 6.06933,22.19467 -0.0213,31.42134 -6.09066,9.22533 -18.59066,13.96533 -29.01733,10.28533 0.428,6.388 6.824,10.332 11.56,14.63867 11.49867,10.45333 14.96933,28.75066 8.096,42.688 -6.87333,13.94 -23.5,22.32666 -38.79466,19.56933 6.45599,-7.23333 10.17866,-16.756 10.79333,-26.43067 0.61466,-9.676 -1.81067,-19.45866 -6.472,-27.95866 -5.25067,-9.57334 -13.15067,-17.41734 -19.092,-26.57867 -5.94267,-9.16 -9.88933,-20.76267 -6.00533,-30.968" /><path
       id="path1208"
       style="fill:#ff8038;fill-opacity:1;fill-rule:nonzero;stroke:none;stroke-width:0.133333"
       d="m 757.93065,373.53734 c 0.704,-3.84933 0.80533,-7.912 0.22133,-12.19733 -2.22267,-16.31467 -12.31467,-28.44 -24.04,-39.24667 -7.32666,-6.75333 -16.728,-10.848 -24.40266,-17.20533 -0.34534,0.48933 -0.70667,0.96533 -1.08267,1.43066 1.35333,3.82267 3.25733,7.50934 5.436,10.86667 5.94133,9.16 13.84133,17.00533 19.092,26.57867 4.66133,8.5 7.088,18.28266 6.472,27.95866 -0.61467,9.67467 -4.33734,19.19734 -10.79333,26.43067 5.00533,0.90267 10.15199,0.604 15.05733,-0.68667 7.32533,-6.87866 12.37333,-14.80666 14.04,-23.92933" /><path
       id="path1210"
       style="fill:#ff933e;fill-opacity:1;fill-rule:nonzero;stroke:none;stroke-width:0.133333"
       d="m 668.58665,269.32134 c 1.74933,-6.62933 1.09867,-13.576 1.084,-20.35066 -0.0107,-4.61867 2.91867,-5.252 6.11733,-2.32134 5.50667,5.04667 10.388,14.23334 7.80934,21.80933 -1.46267,4.30267 -5.396,7.66534 -9.87334,8.444 -1.79466,0.312 -3.9,0.116 -5.03066,-1.30933 -1.35334,-1.704 -0.66267,-4.16933 -0.10667,-6.272" /><path
       id="path1212"
       style="fill:#ffa472;fill-opacity:1;fill-rule:nonzero;stroke:none;stroke-width:0.133333"
       d="m 677.05865,275.80134 c 1.424,-3.64533 3.20533,-6.06267 2.07067,-9.80133 -0.276,-1.14533 -1.18667,-3.444 -1.87734,-4.41867 -1.20533,-1.70133 -4.22933,-4.84133 -4.34266,-3.34266 -0.35467,4.708 -0.20534,13.90666 -0.71867,18.60533 -0.024,0.224 0.016,0.42133 0.10133,0.588 1.69067,-0.36934 3.272,-0.92267 4.76667,-1.63067" /><path
       id="path1214"
       style="fill:#ff8737;fill-opacity:1;fill-rule:nonzero;stroke:none;stroke-width:0.133333"
       d="m 671.67465,251.71734 c 0.48667,3.19467 0.68667,6.43867 0.77867,9.66667 0.0947,3.25467 -0.928,6.57866 -0.572,9.76 0.0387,0.356 0.48933,0.52933 0.69866,0.18933 1.47867,-2.42 1.31467,-5.916 1.376,-8.67066 0.0853,-3.82267 -0.47866,-7.488 -1.45733,-11.172 -0.144,-0.54667 -0.90667,-0.304 -0.824,0.22666" /><path
       id="path1216"
       style="fill:#ff7e33;fill-opacity:1;fill-rule:nonzero;stroke:none;stroke-width:0.133333"
       d="m 776.98931,310.97201 c 6.09067,-9.22667 5.79067,-21.99067 0.0213,-31.42134 -2.71067,-4.43333 -6.51867,-8.09066 -10.92667,-10.83066 -2.21733,-0.86267 -4.51733,-1.51334 -6.89333,-1.90534 -12.36667,-2.03733 -24.204,3.064 -28.15467,14.95867 -2.32,6.98667 -0.0453,15.70533 3.37467,22.224 3.41866,6.52 13.60266,17.85333 13.56133,17.26 10.42667,3.68 22.92667,-1.06 29.01733,-10.28533" /><path
       id="path1218"
       style="fill:#af5e43;fill-opacity:1;fill-rule:nonzero;stroke:none;stroke-width:0.133333"
       d="m 639.78798,255.87868 c -0.10933,1.50933 0.13067,2.87733 0.54134,4.32266 0.41466,1.46134 1.33066,2.67467 1.68266,4.136 0.0707,0.296 -0.22133,0.52667 -0.492,0.39467 -3.05333,-1.488 -3.06933,-6.13867 -2.212,-8.90933 0.0787,-0.252 0.50134,-0.232 0.48,0.056" /><path
       id="path1220"
       style="fill:#af5e43;fill-opacity:1;fill-rule:nonzero;stroke:none;stroke-width:0.133333"
       d="m 638.14798,257.40134 c 0.55467,1.06267 0.79467,2.22 1.42134,3.26134 0.70266,1.172 1.58666,2.20133 2.264,3.39333 0.14933,0.26533 -0.08,0.572 -0.37467,0.50933 -2.74933,-0.57466 -4.864,-4.4 -3.84267,-7.08266 0.08,-0.212 0.40267,-0.33067 0.532,-0.0813" /><path
       id="path1222"
       style="fill:#af5e43;fill-opacity:1;fill-rule:nonzero;stroke:none;stroke-width:0.133333"
       d="m 636.30532,258.48534 c 0.0467,0.007 0.092,0.0133 0.13866,0.0187 0.15334,0.0227 0.28534,0.17333 0.32534,0.31467 0.556,1.952 2.016,3.096 2.92933,4.82133 0.16133,0.30267 -0.08,0.66 -0.428,0.58267 -2.3,-0.50934 -3.17333,-3.19734 -3.392,-5.272 -0.016,-0.14 0.088,-0.33334 0.216,-0.39334 0.0587,-0.0267 0.13867,-0.0827 0.21067,-0.072" /><path
       id="path1224"
       style="fill:#af5e43;fill-opacity:1;fill-rule:nonzero;stroke:none;stroke-width:0.133333"
       d="m 642.51732,256.70134 c -0.616,1.98267 -0.15334,3.80134 0.23333,5.75467 0.0733,0.372 -0.34,0.66533 -0.64267,0.39067 -1.85066,-1.67734 -1.41066,-4.56667 -0.004,-6.372 0.15067,-0.19467 0.48134,0.001 0.41334,0.22666" /><path
       id="path1226"
       style="fill:#a84d39;fill-opacity:1;fill-rule:nonzero;stroke:none;stroke-width:0.133333"
       d="m 678.24798,382.82267 c -0.0213,1.24134 -0.208,2.484 -0.67866,3.62 -2.75067,6.62934 -7.65467,7.004 -12.308,7.21334 -2.50134,0.11333 -5.06667,0.212 -7.38267,1.26133 -1.85067,0.836 -3.52667,2.42933 -4.22133,4.416 -0.3,0.86133 0.16,1.816 0.96266,2.104 3.31334,1.18266 6.95734,1.10133 10.48134,0.99733 6.9,-0.20267 13.8,-0.40667 20.7,-0.61067 7.75733,-0.22933 15.644,-0.48133 23.03466,-3.10399 7.39067,-2.62267 14.34934,-8.00134 17.31067,-15.8 -10.99867,5.84266 -22.984,4.604 -33.76667,-1.52667 -2.41866,-1.37467 -4.79466,-3.06133 -7.51333,-3.41067 -2.71733,-0.34666 -6.56933,1.87067 -6.61867,4.84" /><path
       id="path1228"
       style="fill:#964835;fill-opacity:1;fill-rule:nonzero;stroke:none;stroke-width:0.133333"
       d="m 654.23998,400.75067 c 0.99067,-0.816 2.13734,-1.22 3.41867,-1.24133 0.844,-0.016 1.73333,0.44267 2.528,0.0947 0.17333,-0.076 0.212,-0.29734 0.14,-0.45334 -0.488,-1.072 -2.14267,-0.92933 -3.11467,-0.804 -1.33066,0.17067 -2.568,0.89067 -3.49066,1.84 -0.344,0.35333 0.136,0.88133 0.51866,0.564" /><path
       id="path1230"
       style="fill:#964835;fill-opacity:1;fill-rule:nonzero;stroke:none;stroke-width:0.133333"
       d="m 654.39065,398.36134 c 0.41733,-0.0467 0.608,-0.30933 0.972,-0.54133 0.452,-0.28934 0.96667,-0.45467 1.48667,-0.57334 0.88533,-0.20666 2.05466,0.128 2.84533,-0.288 0.128,-0.0667 0.21067,-0.26 0.12133,-0.388 -0.612,-0.90266 -2.168,-0.70933 -3.05066,-0.364 -0.77467,0.304 -2.45867,1.10934 -2.43734,2.10267 0,0.036 0.028,0.056 0.0627,0.052" /><path
       id="path1232"
       style="fill:#ff8737;fill-opacity:1;fill-rule:nonzero;stroke:none;stroke-width:0.133333"
       d="m 668.92398,344.41734 c -8.11066,3.384 -13.61066,11.844 -14.216,20.61067 -0.60533,8.76933 3.36534,17.55733 9.79334,23.54933 6.42933,5.99067 16.55733,8.08267 25.31866,8.76267 -9.816,-3.948 -18.67733,-11.65334 -21.884,-21.736 -3.20666,-10.08267 -2.448,-21.18134 0.988,-31.18667" /><path
       id="path1234"
       style="fill:#f6f3e7;fill-opacity:1;fill-rule:nonzero;stroke:none;stroke-width:0.133333"
       d="m 678.98398,323.47601 c -2.004,1.37066 -3.8,3.04266 -5.31066,4.94133 -4.02134,5.05333 0.488,10.548 -0.66134,16.90133 -1.448,7.99734 -9.268,22.07467 -7.244,29.94534 2.38534,9.27733 6.11067,14.67066 14.09467,19.964 7.98533,5.29466 21.144,5.62533 30.61733,4.21066 -7.21066,-13.39733 -5.86533,-29.58 -4.38266,-44.72266 1.48533,-15.14134 2.70533,-31.36667 -4.69734,-44.65867 -5.02266,7.23733 -15.144,8.44933 -22.416,13.41867" /><path
       id="path1236"
       style="fill:#af5e43;fill-opacity:1;fill-rule:nonzero;stroke:none;stroke-width:0.133333"
       d="m 711.33332,402.268 c -3.076,-2.18666 -5.8,-4.72399 -8.008,-7.64266 -0.828,-0.76933 -1.67867,-1.512 -2.54267,-2.236 -3.20533,3.952 -7.71067,4.176 -12.02667,4.272 -2.78666,0.0627 -5.64933,0.10933 -8.24133,1.13733 -2.052,0.81334 -3.92533,2.392 -4.736,4.39333 -0.36267,0.896 0.11067,1.92 1.02533,2.24 3.676,1.28667 7.73734,1.28134 11.668,1.25067 7.69067,-0.0613 15.388,0.092 23.07467,-0.184 13.16667,-0.47333 13.33867,-1.696 14.59867,-1.71467 -1.39334,-0.98533 -13.53867,-0.384 -14.812,-1.516" /><path
       id="path1238"
       style="fill:#964835;fill-opacity:1;fill-rule:nonzero;stroke:none;stroke-width:0.133333"
       d="m 676.51865,401.26134 c 0.43067,-0.0413 0.62933,-0.308 1.00933,-0.54134 0.46934,-0.28933 1,-0.45066 1.53467,-0.56533 0.91333,-0.19733 2.11067,0.16533 2.93067,-0.24933 0.132,-0.0667 0.21866,-0.26267 0.132,-0.39733 -0.61467,-0.93734 -2.21734,-0.76267 -3.13067,-0.42267 -0.8,0.3 -2.54533,1.10133 -2.54,2.12133 10e-4,0.0373 0.028,0.0587 0.064,0.0547" /><path
       id="path1240"
       style="fill:#964835;fill-opacity:1;fill-rule:nonzero;stroke:none;stroke-width:0.133333"
       d="m 676.47332,403.34667 c 1.03333,-0.82267 2.21866,-1.22 3.536,-1.22267 0.868,-0.001 1.77333,0.484 2.596,0.13867 0.18,-0.0747 0.22266,-0.3 0.15066,-0.46267 -0.484,-1.11066 -2.18666,-0.99066 -3.18666,-0.87866 -1.372,0.15466 -2.65334,0.876 -3.61734,1.83466 -0.36,0.35867 0.124,0.908 0.52134,0.59067" /><path
       id="path1242"
       style="fill:#ff933e;fill-opacity:1;fill-rule:nonzero;stroke:none;stroke-width:0.133333"
       d="m 717.34665,405.024 c -7.05733,-0.088 -14.05733,-2.71466 -18.66933,-8.02533 -4.612,-5.31066 -7.9,-11.784 -9.36134,-18.67066 -1.55866,-7.34 -1.02933,-15.09067 1.39867,-22.184 1.14133,-3.332 2.468,-6.116 4.86533,-8.57867 2.55734,-2.628 5.27867,-5.02 6.78134,-8.476 1.90533,-4.376 0.67333,-9.54133 -1.63867,-13.716 -2.312,-4.17467 -5.61733,-7.708 -8.23067,-11.7 4.04134,-2.03867 7.56934,-5.08533 10.176,-8.78533 7.67334,6.35733 17.076,10.452 24.40267,17.20533 6.91466,6.37467 13.32133,13.92267 15.996,22.93733 2.67466,9.01734 4.144,21.40934 3.70666,30.804 -0.43733,9.416 -4.94266,18.33867 -13.06533,24.23867 -4.604,3.344 -10.50266,5.02133 -16.36133,4.95066" /><path
       id="path1244"
       style="fill:#ff8737;fill-opacity:1;fill-rule:nonzero;stroke:none;stroke-width:0.133333"
       d="m 656.96932,275.62667 c -5.30534,-3.30133 -9.216,-8.31466 -13.44134,-12.81466 -2.88133,-3.068 -5.22,-1.65867 -5.50666,2.284 -0.49467,6.79066 2.00933,15.932 8.45466,19.344 3.66267,1.93733 8.372,1.708 11.82667,-0.57467 1.384,-0.916 2.65867,-2.36133 2.516,-4.01467 -0.168,-1.97466 -2.16667,-3.17733 -3.84933,-4.224" /><path
       id="path1246"
       style="fill:#ff933e;fill-opacity:1;fill-rule:nonzero;stroke:none;stroke-width:0.133333"
       d="m 648.59865,282.48534 c -3.98667,6.46133 -2.95067,14.71333 -4.58667,22.12667 -0.84533,3.82266 -2.43466,7.58266 -2.16,11.488 0.31067,4.42933 3.10267,8.468 6.82667,10.88533 3.724,2.41867 9.49867,4.388 13.93733,4.29067 7.55334,-0.164 14.74267,-3.09067 21.69734,-6.044 6.95466,-2.952 13.03466,-7.32934 17.25466,-13.596 3.50267,-5.204 4.58667,-10.852 3.20267,-16.96934 -1.38533,-6.116 -5.21733,-10.08933 -9.65867,-14.51866 -3.86,-3.848 -9.628,-8.124 -14.956,-9.27734 -7.29866,-1.58 -13.74933,-0.77066 -20.42666,2.572 -4.33067,2.168 -8.58667,4.92134 -11.13067,9.04267" /><path
       id="path1248"
       style="fill:#ffa95b;fill-opacity:1;fill-rule:nonzero;stroke:none;stroke-width:0.133333"
       d="m 651.69198,294.73201 c 1.93467,-0.14534 3.856,0.59733 5.444,1.72 2.604,1.84266 3.37334,4.51866 3.91467,7.67466 0.31067,1.808 0.316,3.85867 -0.81067,5.30134 -1.296,1.656 -4.17466,2.22133 -6.268,2.13866 -2.92,-0.116 -4.33733,-1.12666 -6.32666,-3.28133 -1.98667,-2.15333 -2.93334,-5.31867 -2.17867,-8.15733 0.75333,-2.84 3.312,-5.17867 6.22533,-5.396" /><path
       id="path1250"
       style="fill:#f6f3e7;fill-opacity:1;fill-rule:nonzero;stroke:none;stroke-width:0.133333"
       d="m 702.02798,303.47867 c -3.052,1.372 -6.41466,2.044 -9.75866,1.948 -4.676,-0.13066 -9.588,-0.74533 -14.25867,-1.008 -9.332,-0.52266 -16.23867,2.35734 -21.76133,10.40934 -2.36934,3.45466 -8.07067,6.13866 -11.028,9.104 1.00133,1.17466 2.168,2.216 3.45733,3.05333 3.724,2.41867 9.49867,4.388 13.93733,4.29067 7.55334,-0.164 14.74267,-3.09067 21.69734,-6.044 6.95466,-2.952 13.03466,-7.32934 17.25466,-13.596 1.95067,-2.89734 3.12267,-5.94 3.56534,-9.116 -1.05867,-0.0107 -2.112,0.512 -3.10534,0.95866" /><path
       id="path1252"
       style="fill:#f6f3e7;fill-opacity:1;fill-rule:nonzero;stroke:none;stroke-width:0.133333"
       d="m 676.84398,322.71467 c 1.28267,-3.29066 0.49734,-7.07733 -1.13333,-10.21066 -1.18667,-2.28534 -2.89467,-4.40934 -5.23067,-5.492 -4.94666,-2.29334 -7.64933,3.25866 -12.35333,2.48266 -6.17067,-1.01866 -11.116,-5.08666 -15.86933,1.968 -0.32134,1.532 -0.51467,3.072 -0.40534,4.63734 0.31067,4.42933 3.10267,8.468 6.82667,10.88533 2.74133,1.78133 6.596,3.31333 10.212,3.96 1.57733,-0.009 3.15867,-0.132 4.72,-0.33333 5.35467,-0.69467 11.27333,-2.86667 13.23333,-7.89734" /><path
       id="path1254"
       style="fill:#af5e43;fill-opacity:1;fill-rule:nonzero;stroke:none;stroke-width:0.133333"
       d="m 666.25065,240.61068 c 1.22267,1.12133 2.06133,2.39466 2.824,3.85866 0.768,1.47867 0.94933,3.136 1.76933,4.56934 0.16534,0.288 0.57334,0.25333 0.68934,-0.0573 1.31866,-3.48533 -2.172,-7.21066 -4.94267,-8.77733 -0.25067,-0.14267 -0.57333,0.192 -0.34,0.40667" /><path
       id="path1256"
       style="fill:#af5e43;fill-opacity:1;fill-rule:nonzero;stroke:none;stroke-width:0.133333"
       d="m 668.70665,240.59068 c 0.356,1.268 1.03733,2.372 1.32133,3.67333 0.32,1.46533 0.38934,2.95333 0.74667,4.41467 0.08,0.324 0.492,0.39733 0.68267,0.12533 1.76133,-2.52933 0.57066,-7.17467 -2.26267,-8.54933 -0.22533,-0.108 -0.57067,0.04 -0.488,0.336" /><path
       id="path1258"
       style="fill:#af5e43;fill-opacity:1;fill-rule:nonzero;stroke:none;stroke-width:0.133333"
       d="m 670.99332,240.06934 c -0.0307,0.04 -0.064,0.08 -0.0947,0.12 -0.10667,0.132 -0.0973,0.35334 -0.024,0.496 1.02533,1.976 0.72133,3.988 1.29067,6.05467 0.0987,0.36133 0.56133,0.46533 0.78,0.14267 1.45333,-2.13867 0.12666,-4.94134 -1.26,-6.76267 -0.0933,-0.12267 -0.32134,-0.20133 -0.46934,-0.15067 -0.0667,0.0227 -0.172,0.036 -0.22266,0.1" /><path
       id="path1260"
       style="fill:#af5e43;fill-opacity:1;fill-rule:nonzero;stroke:none;stroke-width:0.133333"
       d="m 665.98265,243.96268 c 1.984,1.12 2.984,2.92 4.14533,4.77066 0.22,0.352 0.772,0.27467 0.80667,-0.172 0.21333,-2.732 -2.31067,-4.708 -4.79467,-5.09066 -0.26666,-0.0413 -0.384,0.364 -0.15733,0.492" /><path
       id="path1262"
       style="fill:#af5e43;fill-opacity:1;fill-rule:nonzero;stroke:none;stroke-width:0.133333"
       d="m 675.78798,246.64934 c -3.19866,-2.93066 -6.128,-2.29733 -6.11733,2.32134 0.007,3.284 0.16,6.608 0.12,9.91866 1.60933,-2.54666 2.296,-5.66666 1.85867,-8.64933 -0.0907,-0.62667 -0.23067,-1.26 -0.13734,-1.88533 0.092,-0.62667 0.48267,-1.26134 1.09734,-1.416 0.49466,-0.12534 1.00933,0.0813 1.46666,0.30933 2.67867,1.32933 4.87067,3.49733 6.62534,5.91867 0.55466,0.764 1.05866,1.56 1.54533,2.36666 -1.604,-3.45333 -3.96267,-6.596 -6.45867,-8.884" /><path
       id="path1264"
       style="fill:#af5e43;fill-opacity:1;fill-rule:nonzero;stroke:none;stroke-width:0.133333"
       d="m 637.69465,264.61201 c 0.288,-3.94267 2.62667,-5.352 5.508,-2.284 2.048,2.18133 4.02533,4.48133 6.12,6.65066 -2.65867,-0.68133 -5.06533,-2.32133 -6.63867,-4.57066 -0.33066,-0.47333 -0.636,-0.98 -1.088,-1.33733 -0.45333,-0.35734 -1.10933,-0.53334 -1.612,-0.25334 -0.40666,0.228 -0.61866,0.68534 -0.78,1.12267 -0.94533,2.556 -1.044,5.364 -0.69333,8.06533 0.11067,0.85333 0.27467,1.696 0.45733,2.536 -1.09733,-3.292 -1.49733,-6.85067 -1.27333,-9.92933" /><path
       id="path1266"
       style="fill:#ffa95b;fill-opacity:1;fill-rule:nonzero;stroke:none;stroke-width:0.133333"
       d="m 680.75198,281.10001 c -2.39333,1.02533 -4.224,3.096 -5.41733,5.41333 -1.96133,3.80267 -1.816,5.50267 -1.172,11.10533 0.28,2.44267 1.70533,4.728 3.94133,5.74267 2.56934,1.16667 7.68,0.62133 10.12267,-0.77333 3.40533,-1.94534 4.70267,-4.09334 5.73733,-7.88534 1.03334,-3.79066 0.20134,-8.13866 -2.45466,-11.04533 -2.65734,-2.90667 -7.15067,-4.10267 -10.75734,-2.55733" /><path
       id="path1268"
       style="fill:#ff7737;fill-opacity:1;fill-rule:nonzero;stroke:none;stroke-width:0.133333"
       d="m 702.17465,298.34401 c 1.084,1.95066 -0.12,4.692 -2.69333,6.12533 -2.572,1.432 -5.53734,1.012 -6.62267,-0.93867 -1.08667,-1.94933 0.11733,-4.692 2.69067,-6.124 2.57333,-1.432 5.53866,-1.012 6.62533,0.93734" /><path
       id="path1270"
       style="fill:#ff8737;fill-opacity:1;fill-rule:nonzero;stroke:none;stroke-width:0.133333"
       d="m 676.91598,281.75334 c 0.02,-0.0427 0.0427,-0.0853 0.0627,-0.12667 0.37067,-0.74666 1.28533,-1.08933 2.06133,-1.096 0.968,-0.008 1.91067,-0.06 2.79334,0.39734 1.00933,0.524 1.11866,2.104 0.28933,2.82666 -0.584,0.508 -1.376,0.776 -2.06267,1.132 -0.696,0.36134 -1.66933,0.41867 -2.33333,-0.0667 -0.0373,-0.0267 -0.076,-0.0547 -0.112,-0.0813 -1.02533,-0.748 -1.25467,-1.864 -0.69867,-2.98533" /><path
       id="path1272"
       style="fill:#ff8737;fill-opacity:1;fill-rule:nonzero;stroke:none;stroke-width:0.133333"
       d="m 650.80532,293.23601 c -0.0373,-0.012 -0.0733,-0.0227 -0.11067,-0.0347 -0.63333,-0.20267 -1.33867,0.132 -1.776,0.57333 -0.544,0.55067 -1.09867,1.06134 -1.328,1.824 -0.26,0.87067 0.58533,1.81334 1.46133,1.74 0.61734,-0.052 1.212,-0.35866 1.79867,-0.55333 0.59467,-0.19867 1.17067,-0.72533 1.26133,-1.376 0.005,-0.0373 0.0107,-0.0733 0.016,-0.11067 0.14134,-1.004 -0.37066,-1.75866 -1.32266,-2.06266" /><path
       id="path1274"
       style="fill:#af5e43;fill-opacity:1;fill-rule:nonzero;stroke:none;stroke-width:0.133333"
       d="m 670.72398,313.07734 c -0.20933,-1.204 -0.416,-2.348 -0.80933,-3.50667 -0.328,-0.96266 -0.54,-1.98133 -1.17067,-2.78533 -0.34933,-0.444 -1.02133,-0.0453 -1.036,0.428 -0.0333,1.08 0.508,2.18267 0.832,3.20267 0.33734,1.06 0.85467,2.01733 1.35334,3.01066 0.24533,0.49334 0.912,0.12534 0.83066,-0.34933" /><path
       id="path1276"
       style="fill:#af5e43;fill-opacity:1;fill-rule:nonzero;stroke:none;stroke-width:0.133333"
       d="m 669.86532,313.08267 c 1.58133,1.184 3.82533,0.87334 5.29733,-0.42266 1.17733,-1.036 2.584,-3.87467 1.22667,-5.25867 -0.14934,-0.152 -0.37467,-0.0627 -0.444,0.11733 -0.212,0.56 -0.084,1.14534 -0.18534,1.74 -0.14533,0.86267 -0.64533,1.628 -1.20133,2.28134 -1.09733,1.29466 -3.06,1.436 -4.636,1.32933 -0.124,-0.008 -0.13867,0.152 -0.0573,0.21333" /><path
       id="path1278"
       style="fill:#af5e43;fill-opacity:1;fill-rule:nonzero;stroke:none;stroke-width:0.133333"
       d="m 663.49732,312.62801 c -0.83734,1.21866 1.75466,2.88 2.744,3 1.564,0.18933 3.916,-0.568 4.06533,-2.4 0.0133,-0.17334 -0.20267,-0.28 -0.34133,-0.196 -1.21334,0.732 -1.984,1.70533 -3.56667,1.432 -0.784,-0.136 -1.48933,-0.56534 -2.044,-1.116 -0.452,-0.45067 -0.27467,-0.62134 -0.81467,-0.73734 -0.016,-0.004 -0.032,0.003 -0.0427,0.0173" /><path
       id="path1280"
       style="fill:#aa372e;fill-opacity:1;fill-rule:nonzero;stroke:none;stroke-width:0.133333"
       d="m 671.10798,303.40001 c -0.748,0.23466 -1.37466,0.74 -2.00533,1.208 -0.65867,0.48666 -1.244,0.812 -1.83867,1.05866 -0.608,0.21067 -1.26266,0.35867 -2.07733,0.43067 -0.78133,0.072 -1.58667,0.10933 -2.30133,0.432 -1.28,0.57867 -1.572,1.16267 -1.31334,1.684 0.56934,1.148 3.81334,2 5.06667,1.848 0.852,-0.104 1.55467,-0.32133 2.14533,-0.63067 0.6,-0.17066 1.21867,-0.44666 1.86934,-0.89866 1.03733,-0.71867 2.89333,-3.50934 2.55466,-4.748 -0.15333,-0.56134 -0.75866,-0.80267 -2.1,-0.384" /><path
       id="path1282"
       style="fill:#ffa95b;fill-opacity:1;fill-rule:nonzero;stroke:none;stroke-width:0.133333"
       d="m 660.34932,273.62934 c -0.112,0.74 -0.816,3.32 0.58533,3.32 1.49733,0 0.25067,-2.72267 0.0333,-3.32 -0.0973,-0.264 -0.568,-0.34533 -0.61866,0" /><path
       id="path1284"
       style="fill:#ffa95b;fill-opacity:1;fill-rule:nonzero;stroke:none;stroke-width:0.133333"
       d="m 665.61998,272.17334 c -0.59066,0.476 -0.84666,1.38267 -0.79066,2.136 0.052,0.716 1.10133,1.164 1.472,0.39867 0.35866,-0.748 0.49333,-1.70667 0.0733,-2.43734 -0.16533,-0.29066 -0.51867,-0.288 -0.75467,-0.0973" /><path
       id="path1286"
       style="fill:#ffa95b;fill-opacity:1;fill-rule:nonzero;stroke:none;stroke-width:0.133333"
       d="m 656.51998,277.17734 c -0.24666,0.556 -0.42533,1.124 -0.484,1.73333 -0.0693,0.728 0.0267,1.188 0.508,1.744 0.408,0.46934 1.07734,0.056 1.11867,-0.46266 0.0787,-0.956 -0.39333,-1.81867 -0.34667,-2.79867 0.0213,-0.408 -0.62133,-0.61067 -0.796,-0.216" /><path
       id="path1288"
       style="fill:#ffa95b;fill-opacity:1;fill-rule:nonzero;stroke:none;stroke-width:0.133333"
       d="m 659.50132,280.99867 c -0.0227,0.49467 -0.044,0.988 -0.0667,1.48267 -0.02,0.45467 0.14533,0.796 0.32267,1.20533 0.16533,0.38134 0.66266,0.19334 0.78133,-0.10266 0.15333,-0.38 0.28133,-0.688 0.25067,-1.10267 -0.0373,-0.49467 -0.0747,-0.988 -0.11067,-1.48267 -0.0573,-0.752 -1.14267,-0.764 -1.17733,0" /><path
       id="path1290"
       style="fill:#ffa95b;fill-opacity:1;fill-rule:nonzero;stroke:none;stroke-width:0.133333"
       d="m 665.10798,279.02801 c -0.10533,0.368 -0.21066,0.736 -0.31733,1.104 -0.12133,0.42133 -0.04,0.96666 -0.0453,1.40133 -0.0147,1.044 1.68266,1.02267 1.604,0 -0.032,-0.40133 -0.06,-0.80267 -0.0973,-1.20267 -0.04,-0.44 -0.27333,-0.88933 -0.42133,-1.30266 -0.12267,-0.34 -0.61467,-0.37467 -0.72267,0" /><path
       id="path1292"
       style="fill:#ffa95b;fill-opacity:1;fill-rule:nonzero;stroke:none;stroke-width:0.133333"
       d="m 663.07198,285.15201 c -0.164,0.532 -0.004,0.89066 0.0613,1.42933 0.0333,0.28 0.0173,0.56267 -0.005,0.84267 -0.0293,0.35333 0.12267,0.60266 0.27467,0.904 0.14933,0.29733 0.61867,0.35733 0.84,0.108 0.56267,-0.636 0.48267,-1.25734 0.252,-2.04 -0.18933,-0.64534 -0.46,-1.24934 -1.16,-1.39334 -0.116,-0.024 -0.22667,0.032 -0.26267,0.14934" /><path
       id="path1294"
       style="fill:#ffa95b;fill-opacity:1;fill-rule:nonzero;stroke:none;stroke-width:0.133333"
       d="m 666.80798,285.80001 c -0.0347,0.49333 -0.0693,0.98666 -0.10533,1.48 -0.0293,0.43066 0.204,0.692 0.44933,1.00533 0.15467,0.19733 0.47334,0.11067 0.58934,-0.0747 0.23333,-0.37866 0.36666,-0.64933 0.28133,-1.108 -0.0907,-0.47733 -0.18,-0.95466 -0.26933,-1.432 -0.10667,-0.56266 -0.90934,-0.38266 -0.94534,0.12934" /><path
       id="path1296"
       style="fill:#ffa95b;fill-opacity:1;fill-rule:nonzero;stroke:none;stroke-width:0.133333"
       d="m 657.91865,287.23867 c 0.136,0.72667 0.12,1.664 0.72,2.172 0.28933,0.24667 0.704,0.0827 0.72933,-0.30266 0.052,-0.788 -0.628,-1.42934 -1.05866,-2.03467 -0.14134,-0.2 -0.43467,-0.0773 -0.39067,0.16533" /><path
       id="path1298"
       style="fill:#ffa95b;fill-opacity:1;fill-rule:nonzero;stroke:none;stroke-width:0.133333"
       d="m 660.95865,291.86401 c 0.24,0.58133 0.48,1.16266 0.72,1.744 0.196,0.476 0.3,1.06666 0.79467,1.304 0.19733,0.0933 0.47866,0.068 0.58533,-0.15467 0.25067,-0.52 0.02,-0.964 -0.13467,-1.49333 -0.17333,-0.59867 -0.34666,-1.19867 -0.52133,-1.79734 -0.27467,-0.94533 -1.80533,-0.476 -1.444,0.39734" /><path
       id="path1300"
       style="fill:#ffa95b;fill-opacity:1;fill-rule:nonzero;stroke:none;stroke-width:0.133333"
       d="m 667.87332,292.18401 c 0.016,0.95866 -0.18934,1.98533 0.728,2.57066 0.172,0.11067 0.412,0.0373 0.512,-0.13333 0.54533,-0.93333 -0.124,-1.77467 -0.54267,-2.62667 -0.16667,-0.34133 -0.704,-0.17066 -0.69733,0.18934" /><path
       id="path1302"
       style="fill:#ffa95b;fill-opacity:1;fill-rule:nonzero;stroke:none;stroke-width:0.133333"
       d="m 665.33998,296.45867 c 0.144,0.608 0.288,1.21467 0.432,1.82134 0.148,0.62533 0.23334,0.94266 0.80134,1.264 0.228,0.12933 0.46133,0 0.55066,-0.224 0.24134,-0.61334 0.0613,-0.944 -0.21066,-1.52 -0.26534,-0.55734 -0.528,-1.11334 -0.792,-1.67067 -0.21467,-0.45467 -0.88934,-0.12533 -0.78134,0.32933" /><path
       id="path1304"
       style="fill:#ffa95b;fill-opacity:1;fill-rule:nonzero;stroke:none;stroke-width:0.133333"
       d="m 660.28532,297.45867 c 0.29333,0.67067 0.584,1.34134 0.876,2.012 0.264,0.60667 0.40266,1.13734 1.08,1.356 0.184,0.0587 0.41866,-0.0693 0.45866,-0.26266 0.148,-0.70134 -0.24133,-1.08267 -0.64,-1.61867 -0.43733,-0.584 -0.87466,-1.17067 -1.312,-1.756 -0.208,-0.27733 -0.60133,-0.048 -0.46266,0.26933" /><path
       id="path1306"
       style="fill:#ffa95b;fill-opacity:1;fill-rule:nonzero;stroke:none;stroke-width:0.133333"
       d="m 664.02798,301.92801 c 0.17334,0.45466 0.34667,0.91066 0.52134,1.36533 0.0867,0.224 0.256,0.48533 0.52133,0.52133 0.0507,0.007 0.10133,0.0133 0.152,0.0213 0.264,0.0347 0.44267,-0.0307 0.604,-0.24667 0.0293,-0.0387 0.0587,-0.0787 0.088,-0.11733 0.16533,-0.22267 0.10533,-0.528 0,-0.75467 -0.20667,-0.44133 -0.41067,-0.88267 -0.616,-1.324 -0.33067,-0.712 -1.552,-0.2 -1.27067,0.53467" /><path
       id="path1308"
       style="fill:#ffa95b;fill-opacity:1;fill-rule:nonzero;stroke:none;stroke-width:0.133333"
       d="m 668.80798,298.96001 c 0.0987,0.696 0.29867,1.38666 0.45734,2.07333 0.10266,0.444 0.81066,0.88267 1.24533,0.628 0.53467,-0.31333 0.45733,-1.044 0.176,-1.47867 -0.36267,-0.56133 -0.70533,-1.14133 -1.11333,-1.668 -0.32,-0.41066 -0.82,0.0587 -0.76534,0.44534" /><path
       id="path1310"
       style="fill:#ffa95b;fill-opacity:1;fill-rule:nonzero;stroke:none;stroke-width:0.133333"
       d="m 653.26132,283.31334 c -0.11734,0.984 -0.0813,2.46 0.95866,2.89867 0.19734,0.0827 0.40667,-0.12267 0.40667,-0.31067 0,-0.424 -0.0987,-0.62267 -0.32,-0.97867 -0.29733,-0.484 -0.44933,-1.04933 -0.50933,-1.60933 -0.0387,-0.34533 -0.49467,-0.34133 -0.536,0" /><path
       id="path1312"
       style="fill:#ffa95b;fill-opacity:1;fill-rule:nonzero;stroke:none;stroke-width:0.133333"
       d="m 651.98932,278.54934 c -0.30534,0.55333 -0.35867,1.13867 -0.15067,1.736 0.0653,0.18667 0.20933,0.304 0.412,0.31333 0.0307,10e-4 0.0627,0.003 0.096,0.004 0.0867,0.004 0.19067,-0.052 0.23067,-0.132 0.0867,-0.17733 0.13733,-0.32666 0.0413,-0.51466 -0.20267,-0.39467 -0.19867,-0.75067 -0.0413,-1.15867 0.13066,-0.34533 -0.41467,-0.56 -0.588,-0.248" /><path
       id="path1314"
       style="fill:#ffa95b;fill-opacity:1;fill-rule:nonzero;stroke:none;stroke-width:0.133333"
       d="m 671.17998,271.94934 c -0.23333,-0.0253 -0.468,-0.0493 -0.70133,-0.0747 -0.268,-0.028 -0.48267,0.20267 -0.56267,0.43067 -0.16533,0.45867 -0.32,0.92133 -0.47866,1.38267 -0.164,0.48 -0.168,0.74666 -0.0307,1.22933 0.0893,0.31867 0.48,0.40667 0.71467,0.18933 0.43733,-0.404 0.53066,-0.72133 0.66,-1.30133 0.0707,-0.316 0.14133,-0.63333 0.212,-0.95067 0.048,-0.216 0.19866,-0.36133 0.33733,-0.54 0.12,-0.152 0.044,-0.344 -0.15067,-0.36533" /><path
       id="path1316"
       style="fill:#ffa95b;fill-opacity:1;fill-rule:nonzero;stroke:none;stroke-width:0.133333"
       d="m 655.41465,290.42134 c -0.52933,0.79467 -0.43467,1.50667 0.0973,2.284 0.14934,0.21867 0.348,0.28267 0.60267,0.24533 0.024,-0.003 0.0493,-0.007 0.0747,-0.009 0.132,-0.02 0.21866,-0.14933 0.26133,-0.26267 0.156,-0.416 -0.16267,-0.67066 -0.30533,-1.04 -0.14667,-0.384 -0.34134,-0.78 -0.43867,-1.17866 -0.0333,-0.14267 -0.22,-0.14934 -0.292,-0.0387" /><path
       id="path1318"
       style="fill:#ffa95b;fill-opacity:1;fill-rule:nonzero;stroke:none;stroke-width:0.133333"
       d="m 669.78932,277.64534 c -0.68,0.99333 -1.364,2.568 -0.66267,3.68667 0.14667,0.23466 0.508,0.196 0.58533,-0.0773 0.14134,-0.48666 0.128,-0.88666 0.13467,-1.39333 0.009,-0.65733 0.208,-1.30533 0.496,-1.89067 0.184,-0.37333 -0.32,-0.66666 -0.55333,-0.32533" /><path
       id="path1320"
       style="fill:#ffa95b;fill-opacity:1;fill-rule:nonzero;stroke:none;stroke-width:0.133333"
       d="m 669.85598,286.33334 c -0.0573,0.628 -0.28533,1.43733 -0.0627,2.03467 0.0947,0.25333 0.43333,0.328 0.58666,0.076 0.352,-0.57867 0.26934,-1.44667 0.332,-2.11067 0.0507,-0.54933 -0.80533,-0.544 -0.856,0" /><path
       id="path1322"
       style="fill:#c56937;fill-opacity:1;fill-rule:nonzero;stroke:none;stroke-width:0.133333"
       d="m 674.52932,334.13867 c -1.66534,-3.24 -3.724,-6.54933 -7.008,-8.124 -2.56934,-1.232 -5.59467,-1.22533 -8.36267,-0.55066 -2.76933,0.67333 -7.22,-3.97867 -9.76267,-2.696 -4.008,2.02266 -8.60133,4.25866 -12.60933,6.28 -2.29333,1.156 -2.22267,8.132 -3.65333,10.264 -1.61467,2.408 -1.70267,5.58666 -0.92534,8.38 0.77734,2.792 2.324,5.29866 3.82267,7.78 2.436,4.02933 4.85733,8.18266 8.424,11.256 5.77733,4.98 14.364,6.44533 21.46533,3.66133 7.104,-2.784 12.408,-9.69467 13.264,-17.27333 0.74,-6.56934 -1.632,-13.09867 -4.65466,-18.97734" /><path
       id="path1324"
       style="fill:#be6237;fill-opacity:1;fill-rule:nonzero;stroke:none;stroke-width:0.133333"
       d="m 675.06132,335.19334 c -0.17467,-0.35467 -0.352,-0.70667 -0.532,-1.05467 -1.66534,-3.24 -3.724,-6.54933 -7.008,-8.124 -2.56934,-1.232 -5.59467,-1.22533 -8.36267,-0.55066 -2.76933,0.67333 -7.22,-3.97867 -9.76267,-2.696 -4.008,2.02266 -8.60133,4.25866 -12.60933,6.28 -2.29333,1.156 -2.22267,8.132 -3.65333,10.264 -1.61467,2.408 -1.70267,5.58666 -0.92534,8.38 0.396,1.42133 0.992,2.768 1.67867,4.07466 3.13067,-3.89866 3.372,-10.17733 4.188,-14.93866 0.65467,4.40533 5.00667,11.052 6.93333,12.61333 l 0.89867,-14.54267 c 1.912,4.624 5.71067,9.09867 10.604,11.712 0.55067,-4.8 -0.428,-9.75333 -2.77067,-14.01866 4.29334,4.39466 10.02,7.456 16.14934,8.632 l -6.58,-9.67334 c 2.66133,3.36934 7.55733,4.696 11.752,3.64267" /><path
       id="path1326"
       style="fill:#aa372e;fill-opacity:1;fill-rule:nonzero;stroke:none;stroke-width:0.133333"
       d="m 678.83198,295.70267 c 1.184,3.284 4.668,3.99467 7.52534,2.32 3.44666,-2.02 3.324,-6.63466 1.13866,-9.508 -0.48533,-0.64 -1.53466,-0.0893 -1.108,0.648 1.37734,2.37467 1.136,5.01467 -0.85466,6.948 -1.71867,1.67067 -4.748,0.93334 -6.16667,-0.72 -0.20533,-0.24 -0.64267,0.0147 -0.53467,0.312" /><path
       id="path1328"
       style="fill:#aa372e;fill-opacity:1;fill-rule:nonzero;stroke:none;stroke-width:0.133333"
       d="m 649.51998,302.17201 c -0.42933,2.28666 1.11867,4.41866 3.504,4.68 1.73334,0.18933 5.668,-1.15067 4.8,-3.54 -0.0733,-0.19734 -0.27866,-0.29334 -0.47066,-0.19067 -0.336,0.17867 -0.63067,0.37333 -0.84534,0.70133 -0.57866,0.88534 -1.332,1.404 -2.352,1.68534 -2.04533,0.564 -3.97333,-1.592 -4.53333,-3.336 -0.016,-0.0467 -0.0933,-0.0547 -0.10267,0" /><path
       id="path1330"
       style="fill:#ff933e;fill-opacity:1;fill-rule:nonzero;stroke:none;stroke-width:0.133333"
       d="m 661.26798,311.76934 c -3.488,-4.05333 -12.78133,-9.01467 -17.236,-3.54133 -0.18666,0.22933 -0.0213,0.64266 0.31334,0.536 3.112,-0.99467 5.21066,-1.736 8.54133,-0.86267 2.932,0.76933 5.71467,2.408 8.18667,4.12 0.15866,0.11067 0.30666,-0.12133 0.19466,-0.252" /><path
       id="path1332"
       style="fill:#ff6c2b;fill-opacity:1;fill-rule:nonzero;stroke:none;stroke-width:0.133333"
       d="m 748.48131,320.87334 c -7.23733,-9.812 -16.25066,-18.096 -17.27066,-30.96533 -1.33867,-16.92534 16.89066,-24.76667 30.11333,-16.55334 11.55867,7.18 15.54933,29.2 -0.584,33.45734 -8.156,2.15466 -14.508,-4.832 -14.53333,-12.41734 -0.0133,-4.39866 3.27466,-7.61866 7.068,-9.12533 3.54533,-1.408 6.69733,0.13067 10.13333,0.76267 1.21467,0.224 1.876,-1.03334 1.144,-1.96667 -4.58133,-5.83733 -14.052,-2.712 -18.55467,1.57867 -5.016,4.78 -4.572,14.31333 -0.29733,19.37333 5.46267,6.46533 14.23733,7.03733 21.31867,2.93333 6.876,-3.98533 8.23733,-12.96666 7.232,-20.08133 -2.56267,-18.12667 -24.93467,-26.648 -38.78934,-15.308 -6.74133,5.516 -7.33866,15.31067 -5.62666,23.15067 2.232,10.22 10.41333,19.14533 18.396,25.356 0.13066,0.10133 0.36933,-0.0347 0.25066,-0.19467" /><path
       id="path1334"
       style="fill:#e8dfe3;fill-opacity:1;fill-rule:nonzero;stroke:none;stroke-width:0.133333"
       d="m 695.97332,317.86134 c -3.70934,1.93733 -7.13067,4.272 -10.952,6.03467 -4.91867,2.26933 -10.01334,3.25066 -15.13334,4.83333 -0.61333,0.18933 -0.528,1.20267 0.156,1.156 8.84534,-0.60533 19.88134,-5.47067 26.124,-11.772 0.132,-0.13333 -0.0333,-0.33467 -0.19466,-0.252" /><path
       id="path1336"
       style="fill:#cf7f41;fill-opacity:1;fill-rule:nonzero;stroke:none;stroke-width:0.133333"
       d="m 637.26265,338.80934 c -1.95467,16.14267 8.408,31.40667 23.988,32.688 0.096,0.007 0.12,-0.16133 0.0267,-0.17733 -15.30667,-2.52 -25.81734,-15.69734 -23.81734,-32.51067 0.016,-0.13333 -0.18,-0.132 -0.19733,0" /><path
       id="path1338"
       style="fill:#cf7f41;fill-opacity:1;fill-rule:nonzero;stroke:none;stroke-width:0.133333"
       d="m 637.27732,334.28134 c 1.48533,15.1 10.54133,29.88267 23.864,37.39867 0.12133,0.0693 0.22,-0.10534 0.10933,-0.18267 -13.028,-9.23467 -21.168,-21.37733 -23.79467,-37.24 -0.0173,-0.10133 -0.18933,-0.0773 -0.17866,0.024" /><path
       id="path1340"
       style="fill:#cf7f41;fill-opacity:1;fill-rule:nonzero;stroke:none;stroke-width:0.133333"
       d="m 642.66265,336.06667 c 4.744,11.9 10.93733,23.38667 18.648,33.63867 0.0813,0.10533 0.26267,0.008 0.184,-0.108 -7.22133,-10.74533 -13.512,-21.70667 -18.74933,-33.56667 -0.02,-0.0467 -0.10267,-0.012 -0.0827,0.036" /><path
       id="path1342"
       style="fill:#cf7f41;fill-opacity:1;fill-rule:nonzero;stroke:none;stroke-width:0.133333"
       d="m 647.26132,330.30267 c 4.308,12.704 10.42133,25.64267 18.10533,36.64667 0.0667,0.0947 0.216,0.012 0.15867,-0.092 -6.64267,-12.05733 -12.808,-23.88933 -18.23334,-36.56667 -0.007,-0.0173 -0.036,-0.005 -0.0307,0.012" /><path
       id="path1344"
       style="fill:#cf7f41;fill-opacity:1;fill-rule:nonzero;stroke:none;stroke-width:0.133333"
       d="m 654.31065,329.62801 c 4.98667,12.61866 12.524,23.964 11.35467,38.08266 -0.008,0.10134 0.16266,0.12534 0.18,0.024 2.324,-13.84533 -6.272,-26.01333 -11.50667,-38.11866 -0.007,-0.016 -0.0333,-0.004 -0.028,0.012" /><path
       id="path1346"
       style="fill:#cf7f41;fill-opacity:1;fill-rule:nonzero;stroke:none;stroke-width:0.133333"
       d="m 660.16265,330.77334 c 9.004,10.65067 11.19467,23.33333 8.81467,36.79467 -0.0187,0.11466 0.14133,0.16266 0.176,0.048 3.89866,-12.85067 -0.332,-26.952 -8.948,-36.88534 -0.0253,-0.0307 -0.0667,0.0133 -0.0427,0.0427" /><path
       id="path1348"
       style="fill:#cf7f41;fill-opacity:1;fill-rule:nonzero;stroke:none;stroke-width:0.133333"
       d="m 667.01065,328.50134 c 6.30267,10.66 7.90267,21.69467 5.832,33.796 -0.0267,0.152 0.192,0.21867 0.23467,0.064 3.10533,-11.56 0.58,-24.024 -6.04134,-33.87467 -0.009,-0.016 -0.036,-0.003 -0.0253,0.0147" /><path
       id="path1350"
       style="fill:#75b353;fill-opacity:1;fill-rule:nonzero;stroke:none;stroke-width:0.133333"
       d="m 633.69865,303.91734 c 0.56533,0.16667 0.95733,0.65467 1.3,1.12 2.59733,3.53333 4.65067,7.44 6.06933,11.55333 -0.50266,0.184 -1.00533,0.368 -1.50933,0.55067 -2.852,-4.27733 -6.236,-8.22133 -10.056,-11.71867 1.00533,-1.56933 2.728,-1.94133 4.196,-1.50533" /><path
       id="path1352"
       style="fill:#ff933e;fill-opacity:1;fill-rule:nonzero;stroke:none;stroke-width:0.133333"
       d="m 705.69332,325.06801 c -2.44134,-3.944 -6.03467,-8.888 -9.38934,-6.43734 -2.76133,10.26534 -14.42533,22.956 -24.56933,26.13067 -4.644,1.45333 -7.032,2.032 -8.61067,2.32267 -4.51466,0.82933 -15.192,4.04 -10.69733,10.74533 1.08,1.61067 2.74133,2.216 7.18667,1.19867 4.44266,-1.01734 5.20933,-1.09867 10.59066,-2.07467 0,0 16.69867,-3.144 25.232,-7.99467 4.14134,-2.35466 8.128,-5.284 10.54267,-9.39866 2.34533,-3.992 2.14933,-10.55334 -0.28533,-14.492" /><path
       id="path1354"
       style="fill:#ff7235;fill-opacity:1;fill-rule:nonzero;stroke:none;stroke-width:0.133333"
       d="m 651.61065,355.86667 c 0.968,-0.85466 1.93333,-1.79466 3.02667,-2.48666 1.15733,-0.73467 2.39333,-0.94267 3.68933,-1.264 0.35867,-0.0893 0.27067,-0.62267 -0.0853,-0.63067 -2.652,-0.0613 -5.82,1.82 -6.72,4.32933 -0.02,0.0547 0.0533,0.0853 0.0893,0.052" /><path
       id="path1356"
       style="fill:#ff7235;fill-opacity:1;fill-rule:nonzero;stroke:none;stroke-width:0.133333"
       d="m 652.06532,356.70534 c 1.44,0.23067 2.904,0.33467 4.316,-0.084 1.32266,-0.392 3.12933,-1.03867 3.85066,-2.26667 0.152,-0.25866 -0.0947,-0.52266 -0.36266,-0.472 -1.15067,0.22134 -2.18,1.05734 -3.296,1.46267 -1.43734,0.52133 -2.96134,0.96533 -4.48,1.14933 -0.108,0.0133 -0.15734,0.19067 -0.028,0.21067" /><path
       id="path1358"
       style="fill:#ff933e;fill-opacity:1;fill-rule:nonzero;stroke:none;stroke-width:0.133333"
       d="m 641.43465,358.24934 c -2.016,1.27067 -4.43733,2.11467 -6.776,1.65733 -2.33733,-0.45866 -4.44933,-2.52666 -4.356,-4.90666 0.0573,-1.47467 0.924,-2.83334 2.06933,-3.764 1.14534,-0.93067 2.54667,-1.488 3.956,-1.92534 1.55334,-0.48133 3.19467,-0.836 4.80134,-0.58 1.60533,0.25467 3.17733,1.228 3.76533,2.744 0.496,1.284 0.21733,2.77734 -0.49067,3.95734 -0.70933,1.18133 -1.804,2.084 -2.96933,2.81733" /><path
       id="path1360"
       style="fill:#75b353;fill-opacity:1;fill-rule:nonzero;stroke:none;stroke-width:0.133333"
       d="m 645.90665,332.33601 -0.89867,14.54133 c -1.92666,-1.56 -6.27866,-8.208 -6.93333,-12.61333 -1.152,6.728 -1.12933,16.51333 -9.78533,18.28133 2.29333,-0.468 2.576,-6.35067 2.46133,-7.9 -0.26533,-3.504 -1.01733,-6.95467 -1.27867,-10.46 -0.736,-9.88267 4.868,-19.22933 15.34667,-21.256 8.69333,-1.68 17.97733,2.21067 23.63333,8.82 3.056,3.56933 5.75467,8.23333 10.47867,9.008 -4.528,3.584 -12.06933,2.72933 -15.62133,-1.77067 l 6.58,9.67334 c -6.12934,-1.176 -11.856,-4.23734 -16.14934,-8.63067 2.34267,4.264 3.32134,9.21867 2.77067,14.01733 -4.89333,-2.61333 -8.692,-7.088 -10.604,-11.71066" /><path
       id="path1362"
       style="fill:#ff7235;fill-opacity:1;fill-rule:nonzero;stroke:none;stroke-width:0.133333"
       d="m 691.13998,355.74267 c 4.98134,-8.00533 11.35334,-13.784 21.03334,-14.984 8.948,-1.11066 17.79333,4.34 23.89733,10.38 0.40666,0.40267 0.98266,-0.10533 0.75466,-0.584 -9.20266,-19.456 -40.92799,-15.81733 -46.27066,4.94 -0.092,0.35734 0.39333,0.55734 0.58533,0.248" /><path
       id="path1364"
       style="fill:#ff7235;fill-opacity:1;fill-rule:nonzero;stroke:none;stroke-width:0.133333"
       d="m 711.69065,321.86534 c -0.956,4.58 -2.57733,9 -4.89467,13.06667 -2.41333,4.232 -6.00133,6.97466 -9.23866,10.448 -0.34267,0.36933 0.0853,0.87733 0.52,0.672 8.56133,-4.06934 13.72666,-15.08934 14.452,-24.07334 0.04,-0.48133 -0.74134,-0.58266 -0.83867,-0.11333" /><path
       id="path1366"
       style="fill:#89b854;fill-opacity:1;fill-rule:nonzero;stroke:none;stroke-width:0.133333"
       d="m 672.98798,329.38401 c -1.57066,-2.25334 -3.624,-2.972 -5.96133,-4.4 -1.86,-1.13334 -3.56267,-2.57334 -5.252,-4.01734 0.42933,0.15067 0.80267,-0.34933 0.57733,-0.69466 -2.304,-3.52267 -5.67733,-5.18267 -9.57066,-6.676 -3.53067,-1.35467 -8.976,-0.75867 -12.28534,0.99466 -0.0507,0.0267 -0.068,0.0987 -0.0373,0.14667 0.0173,0.0293 0.0413,0.052 0.06,0.08 -0.15067,0.044 -0.284,0.092 -0.42267,0.13867 -0.27466,-0.516 -0.56666,-1.01867 -0.84,-1.50267 -1.37733,-2.44667 -3.09733,-4.584 -4.73733,-6.844 -0.448,-0.61867 -1.324,-0.1 -1.016,0.59333 0.94933,2.13867 2.112,3.98134 3.42933,5.904 0.576,0.84134 1.04,1.82267 1.52134,2.78934 -0.0627,0.056 -0.12534,0.1 -0.18934,0.16266 -0.06,0.06 -0.11333,0.13334 -0.15866,0.21334 -0.14134,0.0987 -0.276,0.18133 -0.42134,0.292 -0.23466,0.17866 -0.38133,0.39866 -0.46,0.63066 -2.11466,0.98 -3.88266,4.22667 -4.43866,5.94534 -2.63334,8.144 -0.48134,16.29466 -0.0333,24.59333 0.0213,0.39333 0.48,0.484 0.69867,0.18933 2.696,-3.63733 1.08933,-8.97066 1.17733,-13.18266 0.12267,-5.99067 1.09867,-10.39734 3.732,-15.23734 -0.0373,0.14267 -0.0573,0.28934 -0.092,0.43334 -0.0267,-0.007 -0.06,10e-4 -0.0707,0.0347 -1.57334,4.67467 -3.60934,9.896 -1.668,14.76934 0.12533,0.31466 0.64666,0.304 0.63066,-0.0853 -0.156,-3.57733 0.204,-7.056 0.63734,-10.55466 -0.007,6.54933 3.07466,13.14933 5.57333,19.13866 0.164,0.392 0.69067,0.33467 0.73467,-0.1 0.328,-3.148 -1.52134,-6.084 -2.53067,-9.00666 -1.24667,-3.608 -2.38533,-6.97067 -2.496,-10.512 0.596,2.57866 1.76533,5.09333 3.60667,6.60266 0.34933,0.288 0.94933,0.0293 0.80266,-0.468 -0.472,-1.624 -1.44133,-3.024 -2.14666,-4.556 -0.752,-1.628 -1.43467,-3.424 -1.99734,-5.17866 0.068,-0.376 0.14534,-0.752 0.24134,-1.132 0.99866,2.98266 2.5,5.55466 4.49066,8.10533 3.36134,4.308 6.224,7.97333 8.38534,13.05733 0.17333,0.40934 0.91466,0.31467 0.976,-0.12933 0.47733,-3.44933 -1.74267,-6.61333 -3.788,-9.23467 -3.25067,-4.17066 -6.64,-7.68933 -8.304,-12.712 4.008,0.30134 7.916,7.35067 10.54133,9.77467 3.85467,3.556 8.41867,6.72267 12.88,9.44933 0.48933,0.3 1.244,-0.2 1.02133,-0.784 -1.12133,-2.94533 -3.492,-4.32533 -5.76933,-6.47466 -3.53867,-3.34134 -7.65733,-5.80267 -10.90667,-9.50934 -0.99066,-1.12666 -1.89733,-2.26 -2.81333,-3.21333 4.92267,2.90533 9.16267,7.10933 14.088,10.068 0.236,0.14133 0.49333,-0.13467 0.36533,-0.36667 -1.424,-2.58933 -3.95466,-3.908 -6.368,-5.43733 -2.27066,-1.44 -4.31066,-3.16267 -6.57866,-4.57067 4.79066,1.31334 8.75333,4.37867 12.64266,7.79467 3.17067,2.78533 6.972,6.66133 11.38534,6.69067 0.95466,0.007 1.74666,-1.16267 1.15466,-2.012" /><path
       id="path1368"
       style="fill:#ffa95b;fill-opacity:1;fill-rule:nonzero;stroke:none;stroke-width:0.133333"
       d="m 717.60132,274.65601 c -0.45867,0.62266 -1.78267,2.42133 -1.98667,2.69866 -0.25333,0.34267 -0.24933,0.62667 -0.23333,1.03467 0.012,0.29867 0.30133,0.568 0.60933,0.46533 0.24667,-0.0827 0.53333,-0.13866 0.72267,-0.32933 0.28133,-0.28 0.47866,-0.684 0.69333,-1.01467 0.464,-0.71733 0.92933,-1.43466 1.396,-2.15333 0.496,-0.76667 -0.68267,-1.40667 -1.20133,-0.70133" /><path
       id="path1370"
       style="fill:#ffa95b;fill-opacity:1;fill-rule:nonzero;stroke:none;stroke-width:0.133333"
       d="m 722.53198,275.97734 c -0.74266,0.448 -1.33733,1.01867 -1.85733,1.712 -0.24133,0.32267 -0.42533,0.68267 -0.58933,1.05067 -0.208,0.47333 -0.168,0.78666 0.009,1.26133 0.10933,0.29467 0.472,0.432 0.71467,0.18933 0.212,-0.21066 0.48266,-0.38933 0.57066,-0.68933 0.0987,-0.33067 0.22,-0.63867 0.38,-0.94533 0.32267,-0.61867 0.80534,-1.152 1.36667,-1.56267 0.59867,-0.43733 0.0693,-1.416 -0.59467,-1.016" /><path
       id="path1372"
       style="fill:#ffa95b;fill-opacity:1;fill-rule:nonzero;stroke:none;stroke-width:0.133333"
       d="m 715.59332,282.36267 c -0.35734,1.48534 -1.016,3.12134 -0.85067,4.652 0.032,0.288 0.43867,0.47334 0.59867,0.16134 0.71733,-1.4 0.68533,-3.17867 0.88266,-4.728 0.0467,-0.364 -0.54666,-0.43067 -0.63066,-0.0853" /><path
       id="path1374"
       style="fill:#ffa95b;fill-opacity:1;fill-rule:nonzero;stroke:none;stroke-width:0.133333"
       d="m 710.18665,284.92134 c -0.83067,1.15733 -1.64267,2.99733 -0.85333,4.33867 0.232,0.39333 0.72666,0.24933 0.88,-0.116 0.23466,-0.56 0.24933,-1.06534 0.36133,-1.65867 0.12933,-0.67867 0.42933,-1.292 0.812,-1.86267 0.50533,-0.75333 -0.68667,-1.41866 -1.2,-0.70133" /><path
       id="path1376"
       style="fill:#ffa95b;fill-opacity:1;fill-rule:nonzero;stroke:none;stroke-width:0.133333"
       d="m 721.79865,284.63334 c -1.04933,1.44 -1.62,3.18133 -0.40667,4.68667 0.21467,0.26666 0.62667,0.0893 0.716,-0.188 0.17467,-0.54267 0.45467,-1.21067 0.448,-1.788 -0.0107,-0.78134 0.128,-1.48934 0.416,-2.21467 0.29067,-0.72933 -0.77866,-1.03733 -1.17333,-0.496" /><path
       id="path1378"
       style="fill:#ffa95b;fill-opacity:1;fill-rule:nonzero;stroke:none;stroke-width:0.133333"
       d="m 715.64132,292.84267 c -0.35467,1.08134 -0.964,3.764 0.52,4.24 0.116,0.0373 0.28533,10e-4 0.36533,-0.096 0.40667,-0.50133 0.316,-0.90933 0.204,-1.508 -0.14133,-0.756 -0.04,-1.55866 0.14933,-2.29466 0.208,-0.80534 -0.98,-1.12267 -1.23866,-0.34134" /><path
       id="path1380"
       style="fill:#ffa95b;fill-opacity:1;fill-rule:nonzero;stroke:none;stroke-width:0.133333"
       d="m 709.99598,293.50667 c -0.23866,0.78534 -0.26266,1.55067 -0.13333,2.35734 0.152,0.93466 0.576,1.532 1.34267,2.05333 0.32266,0.22 0.69066,-0.2 0.512,-0.512 -0.65867,-1.15067 -1.292,-2.35733 -1.10267,-3.728 0.0547,-0.39733 -0.496,-0.57733 -0.61867,-0.17067" /><path
       id="path1382"
       style="fill:#ffa95b;fill-opacity:1;fill-rule:nonzero;stroke:none;stroke-width:0.133333"
       d="m 721.35865,296.15067 c 0.0413,1.52134 0.62533,2.90534 1.67867,4.00267 0.19333,0.20133 0.56133,0.32667 0.832,0.22 0.32533,-0.12933 0.48266,-0.26133 0.59866,-0.59733 0.0987,-0.28934 -0.0187,-0.62267 -0.22,-0.83334 -0.73866,-0.76933 -1.14933,-1.724 -1.17733,-2.792 -0.0307,-1.1 -1.74133,-1.104 -1.712,0" /><path
       id="path1384"
       style="fill:#ffa95b;fill-opacity:1;fill-rule:nonzero;stroke:none;stroke-width:0.133333"
       d="m 716.31598,301.99867 c -0.18533,1.22267 -0.124,3.82 1.656,3.70667 0.20134,-0.012 0.34667,-0.12267 0.41334,-0.31333 0.23333,-0.68 10e-4,-1.044 -0.31867,-1.64134 -0.30133,-0.55733 -0.56667,-1.136 -0.71867,-1.752 -0.12133,-0.48533 -0.95066,-0.53733 -1.032,0" /><path
       id="path1386"
       style="fill:#ffa95b;fill-opacity:1;fill-rule:nonzero;stroke:none;stroke-width:0.133333"
       d="m 710.66398,305.13867 c 0.26534,0.50667 0.53067,1.01334 0.79734,1.52 0.30933,0.59067 0.544,0.924 1.128,1.25467 0.27066,0.15333 0.52933,-0.0507 0.56266,-0.324 0.0773,-0.60133 -0.008,-0.93733 -0.264,-1.48133 -0.27866,-0.592 -0.55866,-1.18534 -0.83866,-1.77734 -0.436,-0.92666 -1.868,-0.11333 -1.38534,0.808" /><path
       id="path1388"
       style="fill:#ffa95b;fill-opacity:1;fill-rule:nonzero;stroke:none;stroke-width:0.133333"
       d="m 726.89998,272.77734 c 0.55867,-0.50533 1.05734,-0.876 1.29734,-1.60933 0.13866,-0.42267 -0.30667,-0.84934 -0.724,-0.72267 -0.736,0.224 -1.11867,0.72533 -1.63334,1.272 -0.66533,0.70667 0.344,1.70533 1.06,1.06" /><path
       id="path1390"
       style="fill:#ffa95b;fill-opacity:1;fill-rule:nonzero;stroke:none;stroke-width:0.133333"
       d="m 732.32932,268.80934 c 0.44933,0.272 0.92133,0.42667 1.44266,0.308 0.44133,-0.0987 0.932,-0.58933 1.112,-0.98533 0.13333,-0.296 -0.092,-0.788 -0.48267,-0.62934 -0.26666,0.108 -0.51866,0.25467 -0.80933,0.292 -0.384,0.048 -0.69066,0.26934 -1.07333,0.316 -0.352,0.044 -0.53467,0.48934 -0.18933,0.69867" /><path
       id="path1392"
       style="fill:#ffa95b;fill-opacity:1;fill-rule:nonzero;stroke:none;stroke-width:0.133333"
       d="m 724.54532,307.42801 c 0.40666,0.89066 0.81466,1.78266 1.22,2.67466 0.36,0.788 0.63066,1.74 1.244,2.36267 0.312,0.316 0.80666,-0.009 0.71466,-0.41733 -0.192,-0.848 -0.85333,-1.59467 -1.31866,-2.32 -0.528,-0.82 -1.05467,-1.64134 -1.58267,-2.46267 -0.11467,-0.176 -0.36133,-0.0227 -0.27733,0.16267" /><path
       id="path1394"
       style="fill:#ffa95b;fill-opacity:1;fill-rule:nonzero;stroke:none;stroke-width:0.133333"
       d="m 717.69065,310.69467 c 0.59067,0.62267 1.06933,1.23334 1.88,1.556 0.32933,0.13067 0.58133,-0.24266 0.52533,-0.52666 -0.15733,-0.79734 -0.67466,-1.35867 -1.14533,-2.00267 -0.69333,-0.948 -2.052,0.13733 -1.26,0.97333" /><path
       id="path1396"
       style="fill:#ffa95b;fill-opacity:1;fill-rule:nonzero;stroke:none;stroke-width:0.133333"
       d="m 693.10665,331.73201 c 1.29867,0.29466 2.61467,-1.41734 2.40133,-2.59867 -0.0533,-0.296 -0.43333,-0.336 -0.62533,-0.16533 -0.41467,0.36933 -0.61067,0.848 -0.97067,1.26533 -0.344,0.39733 -0.72133,0.684 -0.93466,1.184 -0.0507,0.11867 -0.0187,0.28 0.12933,0.31467" /><path
       id="path1398"
       style="fill:#ffa95b;fill-opacity:1;fill-rule:nonzero;stroke:none;stroke-width:0.133333"
       d="m 697.58932,325.21067 c 0.408,-0.60266 0.816,-1.20666 1.224,-1.80933 0.38133,-0.56533 0.42266,-1.20933 0.4,-1.87733 -0.008,-0.25734 -0.32134,-0.50267 -0.56267,-0.324 -0.46133,0.34533 -1.02933,0.75733 -1.21067,1.33066 -0.244,0.77067 -0.48666,1.54 -0.73066,2.30934 -0.172,0.54533 0.588,0.804 0.88,0.37066" /><path
       id="path1400"
       style="fill:#ffa95b;fill-opacity:1;fill-rule:nonzero;stroke:none;stroke-width:0.133333"
       d="m 700.32132,317.29067 c 0.65466,-0.61466 1.08533,-1.684 0.55066,-2.496 -0.204,-0.31333 -0.68133,-0.19066 -0.696,0.188 -0.0267,0.644 0.0187,1.2 -0.45866,1.704 -0.38,0.4 0.20133,0.98267 0.604,0.604" /><path
       id="path1402"
       style="fill:#ffa95b;fill-opacity:1;fill-rule:nonzero;stroke:none;stroke-width:0.133333"
       d="m 702.41065,318.39734 c -10e-4,0.60667 -0.088,1.18533 -0.26,1.76667 -0.17867,0.604 -0.464,1.02533 -0.524,1.656 -0.0333,0.34266 0.42133,0.472 0.63867,0.264 0.92666,-0.88534 0.744,-2.58 0.46,-3.72934 -0.0427,-0.17733 -0.31334,-0.13733 -0.31467,0.0427" /><path
       id="path1404"
       style="fill:#ffa95b;fill-opacity:1;fill-rule:nonzero;stroke:none;stroke-width:0.133333"
       d="m 700.08665,325.10267 c -0.124,0.528 -0.248,1.05334 -0.372,1.58 -0.13733,0.58 -0.136,0.876 0.15467,1.40134 0.16,0.28666 0.61466,0.36666 0.84,0.108 0.38933,-0.44667 0.476,-0.71867 0.46266,-1.312 -0.012,-0.54534 -0.024,-1.08934 -0.0347,-1.63467 -0.012,-0.592 -0.908,-0.74267 -1.05067,-0.14267" /><path
       id="path1406"
       style="fill:#ffa95b;fill-opacity:1;fill-rule:nonzero;stroke:none;stroke-width:0.133333"
       d="m 691.16265,337.47201 c 0.55733,-0.048 1.13867,-0.14934 1.63733,-0.41467 0.50534,-0.268 0.86267,-0.76933 1.152,-1.25067 0.352,-0.58266 -0.44533,-1.16933 -0.924,-0.71333 -0.29466,0.28267 -0.644,0.45067 -0.956,0.704 -0.324,0.26133 -0.65866,0.476 -1.05066,0.62267 -0.528,0.19866 -0.50134,1.104 0.14133,1.052" /><path
       id="path1408"
       style="fill:#ffa95b;fill-opacity:1;fill-rule:nonzero;stroke:none;stroke-width:0.133333"
       d="m 687.09998,337.02001 c 0.57467,-0.288 1.34667,-0.47734 1.572,-1.12534 0.0613,-0.17733 -0.0693,-0.43066 -0.26133,-0.46133 -0.692,-0.10533 -1.20533,0.468 -1.74133,0.848 -0.448,0.316 -0.0667,0.988 0.43066,0.73867" /><path
       id="path1410"
       style="fill:#ffa95b;fill-opacity:1;fill-rule:nonzero;stroke:none;stroke-width:0.133333"
       d="m 681.68132,342.15334 c 0.49733,-0.28 0.99333,-0.56133 1.49066,-0.84267 0.43334,-0.244 0.74934,-0.384 0.936,-0.852 0.096,-0.244 -0.14133,-0.45733 -0.36,-0.47466 -0.45333,-0.0347 -0.72133,0.20933 -1.084,0.45866 -0.47066,0.324 -0.94266,0.648 -1.41333,0.97334 -0.44933,0.308 -0.056,1.012 0.43067,0.73733" /><path
       id="path1412"
       style="fill:#ffa95b;fill-opacity:1;fill-rule:nonzero;stroke:none;stroke-width:0.133333"
       d="m 705.81865,346.17467 c 0.99467,-0.87866 2.17067,-1.05333 3.32267,-1.60133 0.49733,-0.23467 0.3,-0.92533 -0.13867,-1.07467 -1.43867,-0.492 -3.19067,0.31334 -4.34933,1.164 -1.128,0.82534 0.124,2.432 1.16533,1.512" /><path
       id="path1414"
       style="fill:#ffa95b;fill-opacity:1;fill-rule:nonzero;stroke:none;stroke-width:0.133333"
       d="m 714.91065,343.89067 c 0.468,0.35467 0.85733,0.29067 1.412,0.37067 0.27067,0.04 0.532,0.124 0.788,0.21333 0.312,0.11067 0.676,0.0973 0.99867,0.17334 0.63466,0.152 1.06266,-0.59734 0.62533,-1.072 -0.58533,-0.63334 -1.13467,-0.872 -1.98133,-0.98134 -0.772,-0.0973 -1.59867,-0.0253 -1.99734,0.71067 -0.12,0.224 -0.036,0.44133 0.15467,0.58533" /><path
       id="path1416"
       style="fill:#ffa95b;fill-opacity:1;fill-rule:nonzero;stroke:none;stroke-width:0.133333"
       d="m 709.97198,347.98667 c 0.79067,-0.0427 1.58134,-0.084 2.37067,-0.12666 0.60533,-0.0333 1.22933,-0.26134 1.41467,-0.892 0.0387,-0.12934 -0.004,-0.27067 -0.096,-0.36534 -0.46934,-0.48133 -1.13467,-0.35866 -1.688,-0.104 -0.712,0.33067 -1.42267,0.66 -2.13467,0.98934 -0.244,0.112 -0.12267,0.512 0.13333,0.49866" /><path
       id="path1418"
       style="fill:#ffa95b;fill-opacity:1;fill-rule:nonzero;stroke:none;stroke-width:0.133333"
       d="m 719.17332,347.24267 c 0.46533,0.23334 0.94133,0.548 1.46,0.62534 0.63466,0.0973 1.14933,0.18 1.78,0.0347 0.48666,-0.112 0.48,-0.728 0.12666,-0.97733 -0.948,-0.668 -2.012,-0.66667 -3.12266,-0.58 -0.44134,0.0333 -0.70534,0.664 -0.244,0.89733" /><path
       id="path1420"
       style="fill:#ffa95b;fill-opacity:1;fill-rule:nonzero;stroke:none;stroke-width:0.133333"
       d="m 701.61598,346.84267 c -0.61733,0.13067 -1.192,0.356 -1.74133,0.66667 -0.62667,0.35333 -0.87067,0.92933 -1.08667,1.59067 -0.128,0.39066 0.35867,0.58 0.62534,0.36533 0.42266,-0.34 0.864,-0.55467 1.22666,-0.964 0.35867,-0.404 0.79467,-0.71467 1.26534,-0.97333 0.38533,-0.21467 0.11333,-0.772 -0.28934,-0.68534" /><path
       id="path1422"
       style="fill:#ffa95b;fill-opacity:1;fill-rule:nonzero;stroke:none;stroke-width:0.133333"
       d="m 704.02398,349.84401 c -0.81866,-0.228 -1.268,0.27466 -1.848,0.78533 -0.672,0.58933 -1.31466,1.128 -1.13333,2.112 0.0373,0.19467 0.24933,0.41867 0.44933,0.44933 1.08934,0.16267 1.61334,-0.60933 2.236,-1.36266 0.284,-0.344 0.69867,-0.73334 0.69867,-1.216 0,-0.26934 -0.10667,-0.68667 -0.40267,-0.768" /><path
       id="path1424"
       style="fill:#ffa95b;fill-opacity:1;fill-rule:nonzero;stroke:none;stroke-width:0.133333"
       d="m 697.21065,352.39601 c -0.272,0.24533 -0.544,0.49333 -0.81467,0.74133 -0.356,0.32267 -0.50666,0.71867 -0.69466,1.15067 -0.40267,0.932 0.86666,1.74666 1.39733,0.81733 0.22267,-0.39067 0.496,-0.78 0.54,-1.23867 0.04,-0.41466 0.08,-0.82933 0.11867,-1.244 0.0293,-0.29866 -0.35867,-0.39733 -0.54667,-0.22666" /><path
       id="path1426"
       style="fill:#ffa95b;fill-opacity:1;fill-rule:nonzero;stroke:none;stroke-width:0.133333"
       d="m 692.85332,354.37734 c -0.20267,1.03467 -0.64667,2.252 -0.5,3.3 0.06,0.43467 0.74933,0.60533 1.016,0.268 0.656,-0.82267 0.888,-2.09733 1.23733,-3.084 0.392,-1.112 -1.528,-1.63467 -1.75333,-0.484" /><path
       id="path1428"
       style="fill:#ffa95b;fill-opacity:1;fill-rule:nonzero;stroke:none;stroke-width:0.133333"
       d="m 697.15198,358.33467 c -0.0187,0.61067 -0.27733,1.728 0.536,1.95067 0.908,0.24933 1.08134,-1.14533 1.24934,-1.708 0.37333,-1.25867 -1.74267,-1.59467 -1.78534,-0.24267" /><path
       id="path1430"
       style="fill:#ffa95b;fill-opacity:1;fill-rule:nonzero;stroke:none;stroke-width:0.133333"
       d="m 693.41998,360.80801 c -0.0613,0.44 -0.124,0.87866 -0.18666,1.31733 -0.0573,0.40267 0.0773,0.75333 0.18666,1.13467 0.088,0.30666 0.53067,0.30666 0.61867,0 0.10933,-0.38134 0.24533,-0.732 0.188,-1.13467 -0.0627,-0.43867 -0.12533,-0.87733 -0.188,-1.31733 -0.044,-0.308 -0.57467,-0.308 -0.61867,0" /><path
       id="path1432"
       style="fill:#ffa95b;fill-opacity:1;fill-rule:nonzero;stroke:none;stroke-width:0.133333"
       d="m 689.91732,364.72801 c -0.0547,0.29066 -0.1,0.57733 -0.136,0.87066 -0.0347,0.28134 0.12666,0.66934 0.18666,0.94267 0.14267,0.64933 0.34134,0.98533 0.86267,1.38667 0.22533,0.17333 0.608,0.0427 0.732,-0.19067 0.54,-1.02267 0.16667,-2.26267 -0.47333,-3.16133 -0.28667,-0.408 -1.06134,-0.44667 -1.172,0.152" /><path
       id="path1434"
       style="fill:#ffa95b;fill-opacity:1;fill-rule:nonzero;stroke:none;stroke-width:0.133333"
       d="m 695.97465,365.17201 c 0.0533,0.96533 0.10533,1.93066 0.156,2.896 0.0173,0.332 0.204,0.552 0.508,0.668 0.0333,0.012 0.0667,0.024 0.10133,0.0373 0.164,0.0613 0.344,-0.0173 0.46667,-0.124 0.036,-0.0307 0.0707,-0.0613 0.10533,-0.092 0.17734,-0.15467 0.24934,-0.45333 0.17867,-0.67333 -0.296,-0.932 -0.58933,-1.86534 -0.88533,-2.79867 -0.10534,-0.33333 -0.64934,-0.288 -0.63067,0.0867" /><path
       id="path1436"
       style="fill:#ffa95b;fill-opacity:1;fill-rule:nonzero;stroke:none;stroke-width:0.133333"
       d="m 693.01465,371.06801 c 0.132,0.71333 0.13467,1.57066 0.67067,2.112 0.18533,0.188 0.544,0.15866 0.672,-0.088 0.352,-0.67734 0.11066,-1.48267 0.0227,-2.20934 -0.11866,-1.004 -1.548,-0.80933 -1.36533,0.18534" /><path
       id="path1438"
       style="fill:#ffa95b;fill-opacity:1;fill-rule:nonzero;stroke:none;stroke-width:0.133333"
       d="m 689.84398,374.37734 c 0.13467,0.43333 0.26934,0.86933 0.40534,1.304 0.16933,0.54667 0.47066,0.76 0.95466,1.02933 0.35067,0.19467 0.67867,-0.0627 0.72534,-0.416 0.0627,-0.47866 0.10133,-0.82933 -0.19334,-1.24 -0.272,-0.37733 -0.544,-0.75333 -0.81733,-1.132 -0.36933,-0.51066 -1.28667,-0.224 -1.07467,0.45467" /></g></svg>
