<?xml version="1.0" encoding="UTF-8" standalone="no"?>
<svg
   xmlns:dc="http://purl.org/dc/elements/1.1/"
   xmlns:cc="http://creativecommons.org/ns#"
   xmlns:rdf="http://www.w3.org/1999/02/22-rdf-syntax-ns#"
   xmlns:svg="http://www.w3.org/2000/svg"
   xmlns="http://www.w3.org/2000/svg"
   xmlns:sodipodi="http://sodipodi.sourceforge.net/DTD/sodipodi-0.dtd"
   xmlns:inkscape="http://www.inkscape.org/namespaces/inkscape"
   viewBox="0 0 512 511.99999"
   height="512"
   width="512"
   xml:space="preserve"
   id="svg2"
   version="1.1"
   sodipodi:docname="Weasel.svg"
   inkscape:version="1.0.2 (e86c870879, 2021-01-15, custom)"><sodipodi:namedview
     pagecolor="#ffffff"
     bordercolor="#666666"
     borderopacity="1"
     objecttolerance="10"
     gridtolerance="10"
     guidetolerance="10"
     inkscape:pageopacity="0"
     inkscape:pageshadow="2"
     inkscape:window-width="1366"
     inkscape:window-height="715"
     id="namedview7878"
     showgrid="false"
     inkscape:zoom="0.14531044"
     inkscape:cx="2606.7656"
     inkscape:cy="1359.1645"
     inkscape:window-x="-8"
     inkscape:window-y="-8"
     inkscape:window-maximized="1"
     inkscape:current-layer="svg2" /><metadata
     id="metadata8"><rdf:RDF><cc:Work
         rdf:about=""><dc:format>image/svg+xml</dc:format><dc:type
           rdf:resource="http://purl.org/dc/dcmitype/StillImage" /><dc:title></dc:title></cc:Work></rdf:RDF></metadata><defs
     id="defs6"><clipPath
       id="clipPath988"
       clipPathUnits="userSpaceOnUse"><path
         id="path986"
         d="m 13701.4,7935 c -54.4,0 -24.4,65.4 27.4,67 4.5,0.1 9.4,0.2 14.4,0.2 49.3,0 117,-7.3 154.3,-33 3.5,-2.3 7.1,-5.3 7.6,-9.5 1.1,-8.6 -10.3,-11.9 -19.5,-11.9 -0.6,0 -1.3,0 -1.9,0 -12.2,0.7 -24.4,1 -36.5,1 -43,0 -86,-4 -128.2,-12 -6.7,-1.3 -12.5,-1.8 -17.6,-1.8" /></clipPath><clipPath
       id="clipPath1132"
       clipPathUnits="userSpaceOnUse"><path
         id="path1130"
         d="m 4776.2,5176.1 c -27.56,0 -36.17,54.6 -3.2,86.2 39.5,37.8 107.62,90.2 162,97.4 1.55,0.2 3.16,0.3 4.75,0.3 3.09,0 6.11,-0.6 8.41,-2.5 7.82,-6.8 -0.72,-19 -8.75,-25.5 -47.17,-38.1 -89.74,-81.9 -126.47,-130.2 -14.05,-18.4 -26.66,-25.7 -36.74,-25.7" /></clipPath></defs><g
     id="g9471"
     transform="matrix(0.31137338,0,0,0.31137338,-445.61644,-345.57634)"><g
       transform="matrix(0.17774533,0,0,-0.17774533,0,2666.6667)"
       id="g930"><path
         id="path932"
         style="fill:#514441;fill-opacity:1;fill-rule:nonzero;stroke:none"
         d="m 14403.8,1636.72 c 216.3,1.73 443.6,3 638.3,97.37 585.9,284.15 578.2,853.73 549,1115.45 -29.2,261.8 -121.1,722.98 -73.8,982.08 47.3,259.1 304.9,375.52 563.7,424.28 47.1,8.85 96.3,10.87 139.5,31.28 43.3,20.47 79.5,67.06 68.2,113.49 -13.7,56.26 -82.6,75.99 -140.2,82.07 -207.9,21.83 -768.1,-108.4 -892.2,-505.67 -141.1,-451.36 0.8,-952.22 -125.8,-1407.85 -47.3,-170.58 -153.4,-525.62 -933.7,-334.11 -124,30.45 -253.1,25.95 -372,72.53 -135.7,53.11 -295.1,41.56 -421.7,-30.53 -93,-52.96 -212,-183.93 -176,-302.38 32.9,-107.87 200.1,-159.78 292.6,-196.01 280,-109.97 585,-144.32 884.1,-142" /></g><g
       transform="matrix(0.15795066,0,0,-0.15795066,0,2666.6667)"
       id="g934"><path
         id="path936"
         style="fill:#514441;fill-opacity:1;fill-rule:nonzero;stroke:none"
         d="m 13951.3,4195.48 c 86,135.99 243.6,209.01 398.6,252.48 356.9,100.03 746.5,78.93 1090.4,-59.09 -21.6,86.28 -42.5,180.57 -5.6,261.61 42.3,92.6 107.8,171.44 209.7,170.26 101.8,-1.19 261.7,-48.2 296.2,-172.21 65.5,-237.71 -12.8,-406.45 43.9,-631.08 34.7,-137.6 99.4,-265.57 152.2,-397.42 76.5,-191.54 128.4,-392.95 153.8,-597.65 5.4,-43.73 9.5,-89.23 -4.9,-130.76 -28.1,-81.04 -116.8,-123.59 -200.2,-143.42 -222.8,-53.18 -458.9,-4.73 -671.2,81.54 -212.2,86.27 -407.2,209.18 -611.2,313.26 -154.8,79.01 -315.5,147.56 -462.3,240.42 -230.6,145.69 -577.4,514.84 -389.4,812.06" /></g><path
       id="path938"
       style="fill:#665651;fill-opacity:1;fill-rule:nonzero;stroke:none;stroke-width:0.133333"
       d="m 1929.8133,1846.8667 c 16.6933,16.8267 38.8,28.08 53.2667,46.8534 12.4666,16.1466 18.2533,37.2933 15.7466,57.5466 -1.0266,8.2 -3.56,16.6134 -9.44,22.4267 -7.32,7.2 -18.7466,9.0533 -28.76,6.7467 -23.2133,-5.36 -37.08,-28.6534 -47.32,-50.1734 -11.1733,-23.4666 -21.32,-47.68 -26.1333,-73.2133 -1.92,-10.1733 -10.68,-56.88 10.4,-55.9733 9.04,0.4 23.92,37.3866 32.24,45.7866" /><g
       transform="matrix(0.158928,0,0,-0.158928,0,2666.6667)"
       id="g940"><path
         id="path942"
         style="fill:#665651;fill-opacity:1;fill-rule:nonzero;stroke:none"
         d="m 10854.2,3299.85 c 404.5,-876.45 1386,-1529.83 2389.5,-1745.61 567.7,-122.06 1184.4,-118.46 1711.3,112.51 107.7,47.23 213.5,105.62 286.6,192.87 106.5,127.1 133.7,303.28 254.7,418.72 169.4,161.75 469.4,155.29 633.5,321.74 170.2,172.74 114,456.22 -28.4,649.52 -208,282.22 -558.6,449.76 -916,533.49 -357.5,83.64 -729.3,94.13 -1096.1,128.52 -361.9,33.98 -724.9,92.46 -1060.8,221.99 -335.9,129.53 -645.3,334.83 -844.1,617.47 -218,309.91 -289.7,697.5 -237.9,1064.38 26.9,190.1 85.2,379.29 66,570.15 -24.9,246.4 -225,487.43 -515,418.13 -87.7,-20.97 -224,-10.4 -363.5,0.09 -223.9,16.95 -456.1,33.81 -508.1,-79.45 -273.4,-595.07 -452.2,-1950.57 228.3,-3424.52" /></g><g
       transform="matrix(0.142684,0,0,-0.142684,0,2666.6667)"
       id="g944"><path
         id="path946"
         style="fill:#937c76;fill-opacity:1;fill-rule:nonzero;stroke:none"
         d="m 12044.3,6352.84 c -12,-895.49 257.4,-1792.57 760.7,-2533.41 319,-469.48 753.7,-890.73 1299.9,-1045.01 175.5,-49.62 358.2,-70.37 540.5,-76.91 535.9,-19.06 1115,107.19 1471.5,507.79 63.3,71.02 119.3,151.47 144.9,243.14 38.2,136.72 4.4,286.04 -65,409.95 -169.5,302.95 -520.5,454.99 -858.5,533.96 -338.2,78.96 -589.7,145.4 -920.7,250.24 -797.2,252.77 -1244.9,1513.08 -1055.7,2148.05 9.8,32.89 -106.6,58.12 -126.4,86.16 -18.5,26.16 -49,40.65 -78.3,54.01 -263.3,120.54 -687.9,348.83 -989.5,263.52 -127.5,-36.07 -104.8,-149.99 -105.5,-262.31 -1.1,-193.24 -15.4,-386.02 -17.9,-579.18" /></g><path
       id="path948"
       style="fill:#514441;fill-opacity:1;fill-rule:nonzero;stroke:none;stroke-width:0.133333"
       d="m 1864.6133,1791.1067 c 11.7067,-2.5866 22.84,-8.48 31.5333,-16.7066 0.4,-7.4934 1.12,-14.9467 2.1734,-22.36 2.1333,-15.1067 5.52,-30.1734 7.9866,-45.2534 -6.48,-12.7866 -16.7333,-24.1733 -28.4,-32.52 -23.2666,-16.68 -51.5066,-24.4933 -78.0533,-35.2266 -18.24,-7.3867 -35.84,-16.2534 -54.1333,-23.5334 -12.9467,-5.16 -37.5334,-16.8266 -52.7067,-13.8933 -1.96,1.68 -3.5067,3.6533 -4.5733,5.9867 -2.2,4.7733 -4.3467,9.88 -6.4534,15.2666 2.5067,21.5467 19.3867,52.68 24.4534,61.1734 11.3466,19.0133 25.4933,36.2666 40.5866,52.3866 15.48,16.5334 32.2134,32.3334 52.0934,43.1734 19.8933,10.84 43.3733,16.4133 65.4933,11.5066" /><path
       id="path950"
       style="fill:#7a6763;fill-opacity:1;fill-rule:nonzero;stroke:none;stroke-width:0.133333"
       d="m 1908.2533,1704.2534 c -2.9333,-5.2667 -9.7333,-8.16 -13.76,-12.7733 -2.64,-1.24 -4.9067,-2.4534 -5.8,-3.72 -2.6533,-3.7467 -7.0133,-5.8134 -11.1867,-7.72 -37.5733,-17.1867 -98.16,-49.7734 -141.1866,-37.6 -18.2,5.1466 -14.96,21.4 -15.0534,37.4266 -0.053,9.12 -0.32,18.24 -0.6533,27.3467 8.2,11.04 17.2133,21.4933 26.6,31.52 15.48,16.5333 32.2,32.32 52.0933,43.16 19.88,10.84 43.3734,16.4133 65.48,11.52 11.7067,-2.6 28.4134,-13.1333 37.0934,-21.3733 0.4,-7.48 3.8,-57.1867 6.3733,-67.7867" /><path
       id="path952"
       style="fill:#665651;fill-opacity:1;fill-rule:nonzero;stroke:none;stroke-width:0.133333"
       d="m 1775.4533,1435.7201 c -26.0933,1.4666 -52.56,9.04 -72.6133,25.7866 -34.4,28.72 -43.44,80.2934 -30.4,123.1734 13.04,42.8666 44.5333,77.9066 79.7333,105.6266 25.4933,20.08 54.88,37.6134 87.2667,39.6267 46.24,2.8667 88.5333,-26.3733 120.36,-60.04 27.72,-29.32 51.8933,-66.96 47.7199,-107.08 -3.56,-34.2667 -27.7199,-63.6667 -56.8133,-82.1333 -48.7733,-30.9467 -117.6,-48.1867 -175.2533,-44.96" /><path
       id="path954"
       style="fill:#665651;fill-opacity:1;fill-rule:nonzero;stroke:none;stroke-width:0.133333"
       d="m 2014.3999,1507.5734 c 16.5467,2.0133 29.1067,6.8533 28.88,23.52 -0.1466,9.76 -5.7066,18.52 -11.08,26.68 -10.6133,16.1067 -21.2133,32.2133 -31.8133,48.32 -0.92,1.3867 -1.88,2.8267 -3.32,3.6533 -2.8533,1.6667 -6.48,0.44 -9.3466,-1.1866 -9.4,-5.36 -15.9867,-14.6 -20.9734,-24.2 -9.9466,-19.12 -22.6666,-53.8 -17.8933,-75.7067 2.8533,-13.1067 11.3867,-18.3333 21.1067,-13.44 12.6933,6.4133 31.5866,10.7867 44.4399,12.36" /><path
       id="path956"
       style="fill:#665651;fill-opacity:1;fill-rule:nonzero;stroke:none;stroke-width:0.133333"
       d="m 1680.3866,1432.0534 c -7.12,-1.0533 -15.0133,0.04 -20.3333,4.9067 -6.3067,5.7733 -7.5067,15.4533 -5.76,23.8266 1.7467,8.3734 5.9333,16 8.96,24 3.1867,8.3734 5.1067,17.2267 5.6933,26.1734 0.48,7.32 0.4134,15.5466 5.64,20.6933 5.1867,5.12 13.6,4.9733 20.64,3.0533 20.2667,-5.5733 35.64,-22.6933 44.9467,-41.5466 6.1467,-12.4534 15.04,-52.7067 -1.24,-50.9467 -24.28,2.6267 -51.4133,-9.1067 -58.5467,-10.16" /><path
       id="path958"
       style="fill:#514441;fill-opacity:1;fill-rule:nonzero;stroke:none;stroke-width:0.133333"
       d="m 1752.2933,1486.9067 c -5.7333,1.0934 -11.4667,3.8667 -14.5867,8.8134 -2.24,3.5466 -2.9333,7.88 -2.8666,12.08 0.16,11.0133 5.2133,21.56 12.3466,29.96 6.12,7.1733 14.1867,13.1866 23.4934,14.64 9.32,1.4533 19.84,-2.6134 23.9733,-11.08 2.2933,-4.7067 2.4667,-10.16 1.8933,-15.36 -2.5066,-22.6667 -19.24,-43.7734 -44.2533,-39.0534" /><path
       id="path960"
       style="fill:#231f20;fill-opacity:1;fill-rule:nonzero;stroke:none;stroke-width:0.133333"
       d="m 1791.8666,1546.1734 c -6.3333,10.8667 -20.2666,14.5333 -31.12,8.2 -10.8666,-6.3333 -14.5333,-20.28 -8.2,-31.1333 6.3334,-10.8534 20.2667,-14.5334 31.1334,-8.1867 10.8533,6.3333 14.5333,20.2667 8.1866,31.12" /><path
       id="path962"
       style="fill:#ffffff;fill-opacity:1;fill-rule:nonzero;stroke:none;stroke-width:0.133333"
       d="m 1773.6666,1531.7067 c -2.08,3.5734 -6.6666,4.7734 -10.24,2.6934 -3.5733,-2.0934 -4.7866,-6.68 -2.6933,-10.2534 2.08,-3.5733 6.6667,-4.7733 10.24,-2.6933 3.5733,2.08 4.7867,6.6667 2.6933,10.2533" /><path
       id="path964"
       style="fill:#514441;fill-opacity:1;fill-rule:nonzero;stroke:none;stroke-width:0.133333"
       d="m 1979.4266,1547.4134 c 4.4534,3.8 8.04,9.0533 8.2934,14.8933 0.1866,4.1867 -1.36,8.2934 -3.4934,11.9067 -5.6133,9.48 -15.24,16.1333 -25.6,19.88 -8.8666,3.2 -18.8533,4.4133 -27.6533,1.0533 -8.8133,-3.3733 -15.9333,-12.1066 -15.32,-21.52 0.3467,-5.2133 2.9067,-10.0533 5.9867,-14.28 13.4266,-18.4266 38.4266,-28.44 57.7866,-11.9333" /><path
       id="path966"
       style="fill:#231f20;fill-opacity:1;fill-rule:nonzero;stroke:none;stroke-width:0.133333"
       d="m 1915.6533,1579.2267 c 0.12,12.5734 10.4,22.6667 22.96,22.56 12.5733,-0.1066 22.68,-10.3866 22.5733,-22.96 -0.12,-12.5733 -10.4,-22.6666 -22.96,-22.56 -12.5733,0.1067 -22.68,10.3867 -22.5733,22.96" /><path
       id="path968"
       style="fill:#ffffff;fill-opacity:1;fill-rule:nonzero;stroke:none;stroke-width:0.133333"
       d="m 1927.8933,1569.4267 c 0.04,4.1334 3.4267,7.4534 7.56,7.4267 4.1333,-0.04 7.4667,-3.4267 7.4267,-7.56 -0.04,-4.1333 -3.4267,-7.4667 -7.56,-7.4267 -4.1334,0.04 -7.4534,3.4134 -7.4267,7.56" /><path
       id="path970"
       style="fill:#937c76;fill-opacity:1;fill-rule:nonzero;stroke:none;stroke-width:0.133333"
       d="m 1850.36,1606.6401 c -63.5867,-12.32 -113.48,-3.7734 -123.44,22.0133 -9.9734,25.7867 41.4133,91.6133 108.6266,100.52 63.68,8.4533 104.6267,-33.6933 109.9867,-59.3333 5.3733,-25.6534 -17.6133,-48.16 -95.1733,-63.2" /><path
       id="path972"
       style="fill:#231f20;fill-opacity:1;fill-rule:nonzero;stroke:none;stroke-width:0.133333"
       d="m 1824.3866,1595.8934 c -3.52,0.7733 -7.0933,2.0133 -9.6266,4.5733 -2.52,2.5734 -3.68,6.76 -1.88,9.88 3.9333,6.7734 15.5733,2.1734 21.52,7.28 3.08,2.6534 3.6533,7.1067 4.8666,10.9867 1.6934,5.3733 5.2534,10.4267 10.44,12.6267 5.1867,2.2133 12.04,0.8 15.0134,-3.9867 2.8266,-4.5867 7.1866,-8.6933 12.5333,-9.2533 3.3867,-0.36 6.7467,0.7333 10.1333,1.1866 3.3734,0.4534 9.7067,0.053 11.92,-2.5466 2.3867,-2.8 8.2134,-10.3334 -12.2533,-21.0667 -17.7733,-9.3067 -42.2533,-14.16 -62.6667,-9.68" /><path
       id="path974"
       style="fill:#231f20;fill-opacity:1;fill-rule:nonzero;stroke:none;stroke-width:0.133333"
       d="m 1850.4,1631.1334 c -0.32,9.8533 -4.2,19.5733 -10.8667,26.8667 -3.4533,3.7733 -7.4267,6.9866 -12.6667,7.6266 -5.3066,0.64 -10.68,-0.6133 -15.8133,-1.8133 -4.4133,-1.0267 -6.2933,5.7733 -1.8667,6.8 9.4534,2.2 20.12,4.1067 28.6934,-1.7733 7.76,-5.32 13.4133,-13.6534 16.6533,-22.4 1.8,-4.8934 2.7467,-10.1067 2.92,-15.3067 0.1467,-4.5467 -6.9067,-4.5333 -7.0533,0" /><path
       id="path976"
       style="fill:#231f20;fill-opacity:1;fill-rule:nonzero;stroke:none;stroke-width:0.133333"
       d="m 1851.04,1634.2801 c -0.2934,6.1333 -0.9734,12.3866 -0.6134,18.5066 0.3067,5.12 1.72,10.04 4.1734,14.5334 4.6266,8.52 12.8266,15.08 22.2666,17.4266 4.4,1.0934 6.28,-5.7066 1.8667,-6.8 -7.9067,-1.96 -14.4933,-7.4133 -18.28,-14.6 -1.92,-3.6666 -2.9067,-7.6933 -3.0267,-11.8266 -0.1466,-5.7334 0.3867,-11.52 0.6667,-17.24 0.2133,-4.5334 -6.84,-4.52 -7.0533,0" /><path
       id="path978"
       style="fill:#937c76;fill-opacity:1;fill-rule:nonzero;stroke:none;stroke-width:0.133333"
       d="m 1663.9733,1456.4934 c -0.12,-1.4533 -0.16,-2.9867 0.48,-4.3067 1.0267,-2.1066 3.56,-3.1066 5.8933,-3 2.3334,0.12 4.5067,1.1334 6.6,2.16 10.28,5.0134 20.2534,10.64 29.8534,16.8667 -5.96,3.12 -11.5734,6.9467 -16.68,11.3333 -3.04,2.6 -8.64,11.28 -13.0267,9.76 -4.0133,-1.4 -7.1467,-11.6266 -8.64,-15.2666 -2.28,-5.6134 -3.9867,-11.4934 -4.48,-17.5467" /><path
       id="path980"
       style="fill:#937c76;fill-opacity:1;fill-rule:nonzero;stroke:none;stroke-width:0.133333"
       d="m 2022.8666,1525.4401 c 2.3333,0.3733 4.7333,1.12 6.3467,2.84 3.5066,3.7733 1.6133,9.84 -0.64,14.48 -4.8134,9.8933 -10.3867,19.4133 -16.6534,28.4533 1.0667,-9.12 -1.1733,-18.52 -5.7466,-26.48 -4.3467,-7.56 -10.56,-12.4933 -16.9867,-18.04 4.5734,-1.3867 11.5467,-0.1333 16.6267,-0.6933 5.6666,-0.6134 11.3733,-1.48 17.0533,-0.56" /><g
       id="g982"
       transform="matrix(0.13333333,0,0,-0.13333333,0,2666.6667)"><g
         clip-path="url(#clipPath988)"
         id="g984"><path
           id="path990"
           style="fill:#979696;fill-opacity:1;fill-rule:nonzero;stroke:none"
           d="m 13647,7935 h 259.199 v 67.1992 H 13647 Z" /></g></g><path
       id="path992"
       style="fill:#231f20;fill-opacity:1;fill-rule:nonzero;stroke:none;stroke-width:0.133333"
       d="m 1637.4533,1622.0001 c 1.8667,-3.3734 45.0133,-11.8667 68.3867,-14.4267 22.9466,-2.5067 80.3733,-0.4533 77.4533,6.4533 -3.3467,6.3067 -18.4267,-4.0266 -69.4667,-1.6666 -54.5866,2.52 -77.2,13.2666 -76.3733,9.64" /><path
       id="path994"
       style="fill:#231f20;fill-opacity:1;fill-rule:nonzero;stroke:none;stroke-width:0.133333"
       d="m 1641.5066,1662.8534 c 1.28,-3.64 42.4534,-19.0933 65.0934,-25.4533 22.2266,-6.24 79.2,-13.6267 77.4533,-6.3334 -2.2667,6.7734 -18.8267,-0.9466 -68.8,9.7467 -53.4267,11.44 -73.9733,25.7467 -73.7467,22.04" /><path
       id="path996"
       style="fill:#231f20;fill-opacity:1;fill-rule:nonzero;stroke:none;stroke-width:0.133333"
       d="m 1652.12,1705.6801 c 0.5866,-3.8134 38.1866,-26.6267 59.2666,-37.0534 20.68,-10.24 75.3067,-28.04 74.9467,-20.5466 -0.9733,7.0666 -18.6933,2.5466 -65.8133,22.2933 -50.3867,21.1333 -67.9467,38.9867 -68.4,35.3067" /><path
       id="path998"
       style="fill:#231f20;fill-opacity:1;fill-rule:nonzero;stroke:none;stroke-width:0.133333"
       d="m 2046.2133,1718.9467 c -0.2667,-3.8533 -35.7734,-29.8 -55.88,-42 -19.7333,-11.9866 -72.6267,-34.3866 -72.9067,-26.8933 0.36,7.12 18.4,4.1333 63.6534,27.8533 48.3999,25.36 64.3466,44.6667 65.1333,41.04" /><path
       id="path1000"
       style="fill:#231f20;fill-opacity:1;fill-rule:nonzero;stroke:none;stroke-width:0.133333"
       d="m 2025.2666,1754.2401 c 0.3733,-3.84 -30.3866,-35.2534 -48.2266,-50.5867 -17.5067,-15.0533 -66.0134,-45.84 -67.52,-38.4933 -0.8,7.0933 17.48,7.1066 58.2266,37.92 43.5867,32.96 56.16,54.6133 57.52,51.16" /><path
       id="path1002"
       style="fill:#231f20;fill-opacity:1;fill-rule:nonzero;stroke:none;stroke-width:0.133333"
       d="m 1997.5333,1788.5601 c 1.08,-3.6934 -23.3467,-40.2667 -38.0267,-58.64 -14.4266,-18.0267 -56.4,-57.2534 -59.24,-50.3067 -2.1066,6.8267 15.8534,10.2133 50.2134,48.04 36.7333,40.4533 45.08,64.0533 47.0533,60.9067" /><path
       id="path1004"
       style="fill:#514441;fill-opacity:1;fill-rule:nonzero;stroke:none;stroke-width:0.133333"
       d="m 1752.84,1453.0801 c -2.16,8.72 -0.3067,17.88 1.5466,26.6666 -5.3866,-7.3066 -9.3866,-15.6266 -11.7466,-24.4 -0.12,9.5334 0.7866,19.0667 2.6933,28.4 -3.4133,-6.1066 -6.5067,-12.4 -9.2533,-18.8266 0.9466,7.2 2.2266,14.3733 3.8266,21.4533 -3.2666,-4.5867 -6.52,-9.1733 -9.7866,-13.7733 3.56,15.2933 2.1466,31.9733 9.3333,45.9333 0.48,-3.84 2.2,-7.7867 5.5333,-9.7467 6.04,-3.5466 13.88,0.8134 20.6534,-0.9333 0.5466,-0.1333 1.12,-0.3333 1.4533,-0.7867 0.4667,-0.6266 0.3333,-1.48 0.1867,-2.24 -1.84,-9.0266 -4.2134,-18 -8.5867,-26.12 -4.2267,-7.8533 -5.3733,-16.8 -5.8533,-25.6266" /><path
       id="path1006"
       style="fill:#514441;fill-opacity:1;fill-rule:nonzero;stroke:none;stroke-width:0.133333"
       d="m 1971.2533,1534.2667 c -0.8,1.12 -1.1733,2.5467 -1.04,3.92 7.76,-1.8933 15.52,-3.7866 23.28,-5.6666 -2.5867,3.2133 -5.1733,6.4266 -7.76,9.64 8.3333,-1.2534 16.5333,-3.3067 24.4666,-6.1334 2.1467,-0.7733 4.3467,-1.64 5.96,-3.2666 -5.5866,8.9333 -12.2933,17.1466 -19.9333,24.4 2.2534,-0.48 4.48,-1.1467 6.6133,-2.0267 -3.4399,4.0133 -7.2666,7.7067 -11.3999,10.9867 1.9466,-0.3334 3.8133,-1.0534 5.48,-2.1067 -5.7334,5.56 -11.6667,10.92 -17.7867,16.0533 -2.88,2.44 -5.84,4.84 -9.1867,6.6 -0.28,0.16 -0.6133,0.3067 -0.92,0.2 -0.48,-0.16 -0.56,-0.8133 -0.5333,-1.32 0.3467,-5.9066 3.64,-11.5466 2.8933,-17.4266 -0.6,-4.6267 -3.6533,-8.5734 -7.08,-11.7467 -2.96,-2.76 -13.8933,-8.7867 -10.4266,-13.76 1.6666,-2.3867 5.3066,-2.6533 7.8133,-3.5333 3.3733,-1.2 6.6,-2.8134 9.56,-4.8134" /><path
       id="path1008"
       style="fill:#937c76;fill-opacity:1;fill-rule:nonzero;stroke:none;stroke-width:0.133333"
       d="m 1814.28,1447.6134 c 8.76,7.7733 15.1866,17.8533 18.4933,29.0933 0.64,2.1734 4.04,1.2534 3.4,-0.9333 -3.4667,-11.7867 -10.2133,-22.48 -19.4,-30.6533 -1.6933,-1.4934 -4.2,0.9866 -2.4933,2.4933" /><path
       id="path1010"
       style="fill:#937c76;fill-opacity:1;fill-rule:nonzero;stroke:none;stroke-width:0.133333"
       d="m 1838.88,1456.0001 c 3.6,5.9333 5.56,12.6933 5.68,19.64 0.04,2.2666 3.5733,2.28 3.5333,0 -0.1333,-7.5467 -2.2533,-14.9734 -6.1733,-21.4267 -1.1734,-1.9333 -4.2267,-0.1733 -3.04,1.7867" /><path
       id="path1012"
       style="fill:#937c76;fill-opacity:1;fill-rule:nonzero;stroke:none;stroke-width:0.133333"
       d="m 1841.04,1489.0534 c 0.6933,5.08 1.3866,10.16 2.08,15.2267 0.1333,0.9466 1.3333,1.4666 2.1733,1.24 1.0133,-0.28 1.36,-1.2267 1.2267,-2.1734 -0.6934,-5.08 -1.3867,-10.16 -2.08,-15.2266 -0.12,-0.9467 -1.3334,-1.4667 -2.16,-1.24 -1.0267,0.28 -1.3734,1.2266 -1.24,2.1733" /><path
       id="path1014"
       style="fill:#937c76;fill-opacity:1;fill-rule:nonzero;stroke:none;stroke-width:0.133333"
       d="m 1853.1866,1502.9201 c 1.72,7.44 2.7334,15.0133 3.0267,22.64 0.08,2.2666 3.6133,2.28 3.5333,0 -0.3066,-7.9334 -1.36,-15.84 -3.16,-23.5734 -0.52,-2.2133 -3.92,-1.28 -3.4,0.9334" /><path
       id="path1016"
       style="fill:#937c76;fill-opacity:1;fill-rule:nonzero;stroke:none;stroke-width:0.133333"
       d="m 1872.3733,1521.9201 c -0.7067,7.1866 -1.4133,14.3733 -2.12,21.56 -0.093,0.9466 0.88,1.76 1.76,1.76 1.04,0 1.68,-0.8134 1.7733,-1.76 0.7067,-7.1867 1.4,-14.3734 2.1067,-21.56 0.093,-0.9467 -0.8667,-1.76 -1.76,-1.76 -1.0267,0 -1.6667,0.8133 -1.76,1.76" /><path
       id="path1018"
       style="fill:#937c76;fill-opacity:1;fill-rule:nonzero;stroke:none;stroke-width:0.133333"
       d="m 1873.9733,1501.6801 c 0.7733,-7.7334 2.3067,-15.3734 4.52,-22.84 0.64,-2.1734 -2.76,-3.1067 -3.4133,-0.9334 -2.2934,7.76 -3.8267,15.72 -4.64,23.7734 -0.093,0.96 0.88,1.7733 1.7733,1.7733 1.0267,0 1.6667,-0.8133 1.76,-1.7733" /><path
       id="path1020"
       style="fill:#937c76;fill-opacity:1;fill-rule:nonzero;stroke:none;stroke-width:0.133333"
       d="m 1895.2133,1505.1201 c 3.3333,-5.72 6.6667,-11.44 10.0133,-17.16 1.1467,-1.96 -1.9066,-3.7334 -3.0533,-1.7734 -3.3333,5.72 -6.6667,11.44 -10,17.16 -1.1467,1.96 1.8933,3.7334 3.04,1.7734" /><path
       id="path1022"
       style="fill:#937c76;fill-opacity:1;fill-rule:nonzero;stroke:none;stroke-width:0.133333"
       d="m 1922.5066,1502.5334 c 4.5467,-5.0133 9.0934,-10.04 13.6534,-15.0533 0.64,-0.7067 0.6933,-1.8 0,-2.5067 -0.6534,-0.64 -1.8534,-0.7067 -2.4934,0 -4.56,5.0267 -9.1066,10.0533 -13.6533,15.0667 -0.64,0.7066 -0.6933,1.8 0,2.4933 0.6533,0.6533 1.8533,0.7067 2.4933,0" /><path
       id="path1024"
       style="fill:#937c76;fill-opacity:1;fill-rule:nonzero;stroke:none;stroke-width:0.133333"
       d="m 1896.6933,1540.4001 c 1.2133,-6.1867 3.5733,-12.04 7.0133,-17.3334 1.2267,-1.9066 -1.8133,-3.68 -3.0533,-1.7866 -3.5733,5.5333 -6.0933,11.7333 -7.36,18.1866 -0.1867,0.9334 0.2667,1.9067 1.2267,2.16 0.8666,0.24 1.9866,-0.2933 2.1733,-1.2266" /><path
       id="path1026"
       style="fill:#937c76;fill-opacity:1;fill-rule:nonzero;stroke:none;stroke-width:0.133333"
       d="m 1877.0533,1571.9867 c 1.28,-3.4266 2.1867,-6.9733 2.6933,-10.6 0.1334,-0.92 -0.2133,-1.9466 -1.2266,-2.1733 -0.8267,-0.1867 -2.04,0.2533 -2.1734,1.2267 -0.5066,3.6266 -1.4133,7.1866 -2.6933,10.6133 -0.3333,0.8667 0.36,1.9733 1.2267,2.1733 1,0.2267 1.8266,-0.3066 2.1733,-1.24" /><path
       id="path1028"
       style="fill:#937c76;fill-opacity:1;fill-rule:nonzero;stroke:none;stroke-width:0.133333"
       d="m 1856.5466,1564.4134 c 0.6667,-10.8 0.027,-21.6133 -1.8266,-32.28 -0.4,-2.2267 -3.8,-1.28 -3.4134,0.9333 1.8134,10.3467 2.36,20.8667 1.72,31.3467 -0.1333,2.2667 3.3867,2.2533 3.52,0" /><path
       id="path1030"
       style="fill:#937c76;fill-opacity:1;fill-rule:nonzero;stroke:none;stroke-width:0.133333"
       d="m 1844.56,1579.0134 c -1.72,-5.9733 -1.84,-12.28 -0.32,-18.32 0.5466,-2.2 -2.8534,-3.1467 -3.4,-0.9333 -1.6667,6.6266 -1.56,13.6133 0.32,20.2 0.6133,2.1733 4.0266,1.2533 3.4,-0.9467" /><path
       id="path1032"
       style="fill:#937c76;fill-opacity:1;fill-rule:nonzero;stroke:none;stroke-width:0.133333"
       d="m 1858.4133,1587.0801 c 1.0133,-4.0667 2.0267,-8.1334 3.04,-12.2 0.2267,-0.9334 -0.2933,-1.92 -1.24,-2.1734 -0.8933,-0.2533 -1.9333,0.3067 -2.16,1.24 -1.0133,4.0534 -2.0267,8.1334 -3.04,12.2 -0.2267,0.92 0.3067,1.9067 1.24,2.16 0.8933,0.2534 1.9333,-0.3066 2.16,-1.2266" /><path
       id="path1034"
       style="fill:#937c76;fill-opacity:1;fill-rule:nonzero;stroke:none;stroke-width:0.133333"
       d="m 1886.6666,1591.1467 c 2.2934,-5 4.5867,-10 6.88,-15 0.4,-0.8666 0.24,-1.8933 -0.64,-2.4133 -0.76,-0.44 -2.0133,-0.24 -2.4133,0.64 -2.2933,4.9867 -4.5733,9.9867 -6.8667,14.9867 -0.4,0.8666 -0.2533,1.9066 0.6267,2.4133 0.76,0.4533 2.0133,0.24 2.4133,-0.6267" /><path
       id="path1036"
       style="fill:#937c76;fill-opacity:1;fill-rule:nonzero;stroke:none;stroke-width:0.133333"
       d="m 1908.76,1547.0134 c 2.4666,-4.2267 4.9333,-8.4533 7.4,-12.68 0.48,-0.8267 0.1866,-1.9333 -0.6267,-2.4133 -0.8267,-0.48 -1.9333,-0.1867 -2.4133,0.64 -2.4667,4.2266 -4.9334,8.4533 -7.4,12.68 -0.48,0.8133 -0.1867,1.9333 0.64,2.4133 0.8133,0.48 1.92,0.1867 2.4,-0.64" /><path
       id="path1038"
       style="fill:#937c76;fill-opacity:1;fill-rule:nonzero;stroke:none;stroke-width:0.133333"
       d="m 1874.9866,1464.3334 c 1.36,-3.1867 2.04,-6.6133 1.8134,-10.0933 -0.053,-0.92 -0.7734,-1.8 -1.76,-1.76 -0.9067,0.04 -1.8267,0.7733 -1.7734,1.76 0.053,0.7866 0.067,1.5733 0.027,2.36 -0.013,0.3333 -0.04,0.6666 -0.08,1 0,0.067 -0.093,0.7466 -0.04,0.3733 -0.027,0.16 -0.053,0.3333 -0.08,0.4933 -0.12,0.72 -0.28,1.4267 -0.48,2.1334 -0.1067,0.3733 -0.2267,0.7466 -0.36,1.12 -0.053,0.16 -0.12,0.32 -0.1733,0.48 -0.027,0.053 -0.2667,0.6666 -0.1334,0.36 -0.36,0.84 -0.2933,1.92 0.6267,2.4133 0.76,0.4 2.0267,0.2667 2.4133,-0.64" /><path
       id="path1040"
       style="fill:#514441;fill-opacity:1;fill-rule:nonzero;stroke:none;stroke-width:0.133333"
       d="m 1797.5466,1981.3867 c 9.8,-2.1466 18.44,-12.12 17.32,-22.0933 -1.0933,-9.64 -11.2266,-15.4 -20.48,-18.3333 -38.9066,-12.32 -106.4666,-9.7334 -127.64,32.16 l 11.6534,42.1733 c 45.6533,-30.0533 85.1066,-26.4667 119.1466,-33.9067" /><path
       id="path1042"
       style="fill:#514441;fill-opacity:1;fill-rule:nonzero;stroke:none;stroke-width:0.133333"
       d="m 1683.6666,1849.8667 c -14.0533,-38.8533 -26.8133,-86.8666 -26.8133,-86.8666 -7.7067,-0.6667 -6.6,9.9733 -8.3467,17.52 -5.3066,22.9866 -8.0266,46.96 -3.9333,70.2 1.8667,10.5466 5.3333,21.2133 12.6133,29.0666 7.5467,8.1467 84.84,12.1067 72.7334,7.24 -23.16,-9.3066 -40.0134,-19.9333 -46.2534,-37.16" /><path
       id="path1044"
       style="fill:#3f3532;fill-opacity:1;fill-rule:nonzero;stroke:none;stroke-width:0.133333"
       d="m 1791.0933,1962.7334 c 15.3733,1.8267 30.6267,-3.2 45.6133,-7.0933 20.8,-5.3867 42.1334,-8.6667 63.5867,-9.7734 -6.84,-7.7733 -17.5067,-12.0133 -27.8133,-11.04 9.56,-4.0933 20.04,-6.0133 30.4266,-5.6133 -9.3333,-7.0667 -21.1466,-10.7867 -32.8533,-10.36 6.9867,-3.7467 15.12,-5.3467 23.0133,-4.5467 -12.72,-6.8133 -27.8133,-7.5066 -42.2266,-6.6 -14.4,0.92 -28.8134,3.2934 -43.2,2.0134 -14.5867,-1.2934 -60.92,-13.5067 -60.3734,13.8666 0.4,20.2534 26.0267,37.0267 43.8267,39.1467" /><path
       id="path1046"
       style="fill:#3f3532;fill-opacity:1;fill-rule:nonzero;stroke:none;stroke-width:0.133333"
       d="m 1971.96,1975.8667 c -7.0934,13.76 -19.8,23.5734 -31.4134,33.8133 -16.12,14.2134 -30.7866,30.0534 -43.72,47.2134 -2.6133,-10.0267 -0.1466,-21.24 6.44,-29.24 -8.7466,5.64 -16.2133,13.24 -21.6933,22.08 -0.6267,-11.7067 2.9067,-23.5734 9.8267,-33.0267 -7.0267,3.6933 -12.92,9.52 -16.68,16.52 1.4933,-14.36 9.3733,-27.2533 18.2,-38.68 8.8266,-11.4266 18.8666,-22.04 25.8666,-34.6666 7.0934,-12.8134 22.9334,-58.0267 45.2934,-42.24 16.5466,11.6666 16.0933,42.2933 7.88,58.2266" /><g
       transform="matrix(0.15350533,0,0,-0.15350533,0,2666.6667)"
       id="g1048"><path
         id="path1050"
         style="fill:#3f3532;fill-opacity:1;fill-rule:nonzero;stroke:none"
         d="m 16170.9,5206.86 c -66.8,75.57 -162.7,117.26 -252.5,163.38 -124.4,64.02 -242.3,140.63 -351.4,228.27 -0.5,-67.4 33,-134.29 87.3,-174.33 -64.2,21.63 -123.5,57.68 -172.3,104.76 14.8,-74.88 56.1,-144.19 114.9,-192.92 -50.3,12.16 -96.8,39.61 -131.7,77.74 32.3,-88.33 102.7,-157.13 176.7,-215.15 74,-58.02 154.3,-109.09 218.7,-177.63 65.3,-69.57 237.5,-329.89 353.6,-194.47 85.8,100.14 34,292.8 -43.3,380.35" /></g><path
       id="path1052"
       style="fill:#665651;fill-opacity:1;fill-rule:nonzero;stroke:none;stroke-width:0.133333"
       d="m 1616.5066,1858.5601 c -4.24,19.9866 -7.56,40.6266 -4.0533,60.7466 3.52,20.12 14.9733,39.84 33.4667,48.5067 14.3466,6.72 30.9066,6.1067 46.7333,5.3733 31.4,-1.4666 62.8133,-2.9333 94.2133,-4.4133 10.28,-0.48 21.6667,-1.4533 28.6534,-8.9867 5.1333,-5.52 6.7066,-13.6133 5.9333,-21.1066 -2.56,-24.8267 -27.4667,-41.6667 -51.8267,-47.1334 -24.3466,-5.48 -49.9333,-3.2533 -74.3066,-8.6666 -7.7467,-1.72 -15.5734,-4.3467 -21.4667,-9.6667 -9.5467,-8.6 -12.1733,-22.3333 -13.7867,-35.08 -4.2,-33.2267 -2.8,-65.76 -3.4,-99.0267 -9.9866,1.5334 -19.36,43.6534 -22.6133,53.7334 -6.9733,21.5866 -12.84,43.5333 -17.5467,65.72" /><path
       id="path1054"
       style="fill:#665651;fill-opacity:1;fill-rule:nonzero;stroke:none;stroke-width:0.133333"
       d="m 1922.6666,1955.4801 c 0.8267,16.0666 13.6134,29.9333 28.84,35.12 8.3334,2.8266 18,3.2933 25.5067,-1.28 6.6533,-4.04 10.6,-11.2934 13.64,-18.4534 6.3867,-15.0533 10.0533,-32.6266 3.32,-47.5333 -5.1067,-11.3333 -33.5467,-39.3867 -47.3867,-31.5867 -6.4133,3.6134 -9.8933,21.9467 -12.76,28.3067 -5.1333,11.3733 -11.8266,22.4533 -11.16,35.4267" /><g
       transform="matrix(0.146348,0,0,-0.146348,0,2666.6667)"
       id="g1056"><path
         id="path1058"
         style="fill:#665651;fill-opacity:1;fill-rule:nonzero;stroke:none"
         d="m 13336,2312.76 c -52.7,64.14 -100.2,136.11 -115.2,217.74 -24.5,132.93 44.1,270.32 146.7,358.33 102.6,88.01 234.5,134.02 365.8,165.91 369.1,89.74 761.6,81.63 1126.7,-23.23 -155.2,126.91 -314.7,229.31 -281.9,427.01 1.8,11.03 88.3,149.42 93.3,139.49 38.9,-76.53 19.2,4.55 29.2,3.37 70.9,-8.66 141.8,-17.31 212.7,-25.97 22,-2.73 44.8,-5.65 63.7,-17.22 22.3,-13.48 36.3,-36.8 50.7,-58.49 238.8,-358.5 756.4,-416.08 1050.8,-730.59 87.2,-93.2 152,-207.27 187.4,-329.89 23.8,-82.55 34.1,-171.74 8.8,-253.83 -58.7,-190.14 -278.6,-274.5 -474.5,-309.4 -384,-68.51 -775.6,-46.83 -1163.5,-42.18 -331.6,4 -579.3,-37.81 -875.3,130.37 -160.2,91.02 -308,205.9 -425.4,348.58" /></g><g
       transform="matrix(0.14483333,0,0,-0.14483333,0,2666.6667)"
       id="g1060"><path
         id="path1062"
         style="fill:#3f3532;fill-opacity:1;fill-rule:nonzero;stroke:none"
         d="m 14810.7,3272.26 c -203,245.25 -319.5,573.99 -261.6,887.09 9.3,-66.56 39.8,-129.99 85.9,-178.87 -28.4,100.44 -27.8,208.97 1.8,309.13 59.5,-99.79 119,-199.49 178.5,-299.19 -11.3,64.26 -6.8,131.28 12.9,193.42 91.3,-270.2 238.4,-523.18 439.9,-725.06 201.4,-201.8 458.2,-351.03 737.1,-410.68 72.7,-15.56 150.1,-26.52 208.6,-72.27 58.7,-45.75 86.2,-141.4 34,-194.34 -20.9,-21.17 -50.3,-31.57 -79,-39.86 -498.6,-143.8 -1044.7,151.72 -1358.1,530.63" /></g><g
       transform="matrix(0.14495733,0,0,-0.14495733,0,2666.6667)"
       id="g1064"><path
         id="path1066"
         style="fill:#3f3532;fill-opacity:1;fill-rule:nonzero;stroke:none"
         d="m 15455,2587.14 c 139.1,-88.02 309.9,-108.99 474.6,-112.12 66.7,-1.29 137,1.01 194,35.69 58.5,35.59 93,99.61 120.8,162.16 30.9,69.63 55.6,154.62 13.6,217.99 -29.9,45.17 -85.4,65.31 -138,77.91 -99.6,23.92 -203.2,30.63 -305.1,21.06 -77.4,-7.35 -238.1,-20.05 -294.3,-81.03 -43.8,-47.65 -4.3,-108.81 -33.9,-159.5 -19.8,-33.75 -70.5,-30.53 -84.7,-64.2 -17.9,-42.77 20.4,-77.35 53,-97.96" /></g><g
       transform="matrix(0.154312,0,0,-0.154312,0,2666.6667)"
       id="g1068"><path
         id="path1070"
         style="fill:#3f3532;fill-opacity:1;fill-rule:nonzero;stroke:none"
         d="m 15838.9,4807.15 c -9.1,-51.06 -30.6,-101.69 -22.5,-152.93 9.1,-57.37 53.7,-102.74 102.2,-134.62 49.3,-32.49 104.8,-55.47 162.5,-67.4 20.9,-4.32 42.8,-7.17 63.4,-1.56 39.1,10.72 63.9,48.74 81.2,85.46 60.6,128.57 74.3,281.34 24,414.31 -14.8,39.49 -35.1,76.73 -57.2,112.68 -37.1,60.4 -81.6,118.8 -142.6,154.84 -61,36.11 -141.7,45.79 -202.1,8.72 -63.4,-38.79 -74.4,-114.14 -53.9,-180.15 25.9,-83.21 61.2,-148.27 45,-239.35" /></g><path
       id="path1072"
       style="fill:#937c76;fill-opacity:1;fill-rule:nonzero;stroke:none;stroke-width:0.133333"
       d="m 1701.2933,2019.1867 c 7.6533,20.4933 17.6267,40.0667 29.7467,58.2667 1.1866,1.7733 4.0666,0.1066 2.88,-1.68 -11.96,-17.96 -21.8534,-37.2534 -29.4134,-57.4667 -0.7466,-2 -3.96,-1.1333 -3.2133,0.88" /><path
       id="path1074"
       style="fill:#937c76;fill-opacity:1;fill-rule:nonzero;stroke:none;stroke-width:0.133333"
       d="m 1723.48,2088.3067 c 9.0533,13.3733 17.4933,27.16 25.3066,41.2933 1.04,1.88 3.92,0.2 2.88,-1.68 -7.8133,-14.1333 -16.2533,-27.92 -25.3066,-41.2933 -1.2,-1.76 -4.08,-0.093 -2.88,1.68" /><path
       id="path1076"
       style="fill:#937c76;fill-opacity:1;fill-rule:nonzero;stroke:none;stroke-width:0.133333"
       d="m 1752.92,2107.8134 c 3.4666,5.5066 7.4666,10.6666 11.9333,15.4 1.48,1.56 3.84,-0.8 2.36,-2.36 -4.28,-4.5334 -8.0933,-9.4534 -11.4133,-14.72 -1.1467,-1.8134 -4.0267,-0.1467 -2.88,1.68" /><path
       id="path1078"
       style="fill:#937c76;fill-opacity:1;fill-rule:nonzero;stroke:none;stroke-width:0.133333"
       d="m 1771.12,2170.4934 c 12.8666,15.92 26.8533,30.9066 41.8666,44.8 4.32,3.9866 8.7067,7.88 13.1867,11.6933 1.6267,1.3733 3.9867,-0.9733 2.36,-2.36 -15.5867,-13.2667 -30.2,-27.64 -43.7067,-43.0133 -3.8666,-4.4134 -7.6533,-8.9067 -11.3466,-13.4667 -1.3467,-1.68 -3.6934,0.6933 -2.36,2.3467" /><path
       id="path1080"
       style="fill:#937c76;fill-opacity:1;fill-rule:nonzero;stroke:none;stroke-width:0.133333"
       d="m 1850.84,2212.3467 c 11.2266,7.24 21.5466,15.76 30.8,25.3867 1.48,1.56 3.84,-0.8 2.36,-2.3467 -9.44,-9.84 -20.0267,-18.5333 -31.4667,-25.92 -1.8133,-1.1733 -3.48,1.72 -1.6933,2.88" /><path
       id="path1082"
       style="fill:#937c76;fill-opacity:1;fill-rule:nonzero;stroke:none;stroke-width:0.133333"
       d="m 1862.7333,2280.5467 c 9.3333,4.5733 18.6667,9.1467 28,13.7067 1.92,0.9466 3.6133,-1.9334 1.68,-2.8667 -9.3333,-4.5733 -18.6667,-9.1467 -28,-13.72 -1.92,-0.9467 -3.6133,1.9333 -1.68,2.88" /><path
       id="path1084"
       style="fill:#937c76;fill-opacity:1;fill-rule:nonzero;stroke:none;stroke-width:0.133333"
       d="m 1907.8,2313.2267 0.28,0.027 c -0.1467,-0.027 -0.3067,-0.04 -0.4534,-0.067 0.4,0.067 0.7867,0.1733 1.16,0.32 -0.1333,-0.053 -0.2666,-0.1067 -0.4,-0.16 0.3867,0.16 0.76,0.3733 1.0934,0.6267 l -0.3467,-0.2534 c 0.3067,0.2267 0.5733,0.5067 0.8133,0.8 l -0.2533,-0.3333 c 0.093,0.1333 0.1867,0.2667 0.28,0.4 0.2267,0.3733 0.5733,0.6533 0.9867,0.7733 0.4,0.1067 0.9333,0.053 1.2933,-0.1733 0.3467,-0.2267 0.6667,-0.5733 0.76,-0.9867 0.093,-0.44 0.067,-0.9066 -0.16,-1.2933 -0.5467,-0.8667 -1.28,-1.5867 -2.1467,-2.12 -0.88,-0.5467 -1.88,-0.8133 -2.9066,-0.8933 -0.4,-0.04 -0.8934,0.2 -1.1734,0.48 -0.2933,0.2933 -0.5066,0.76 -0.4933,1.1866 0.027,0.4267 0.16,0.8667 0.4933,1.1734 0.3334,0.3066 0.72,0.4533 1.1734,0.4933" /><path
       id="path1086"
       style="fill:#937c76;fill-opacity:1;fill-rule:nonzero;stroke:none;stroke-width:0.133333"
       d="m 1637.8533,1931.7334 c -6.88,-7.8133 -11.0933,-17.8 -11.8933,-28.1867 -0.16,-2.12 -3.4934,-2.1333 -3.3334,0 0.8667,11.3067 5.3734,22.0267 12.8667,30.5467 1.4267,1.6133 3.7733,-0.76 2.36,-2.36" /><path
       id="path1088"
       style="fill:#937c76;fill-opacity:1;fill-rule:nonzero;stroke:none;stroke-width:0.133333"
       d="m 1634.9866,1878.7334 c -2.5066,-10.92 -3.5866,-22.08 -3.28,-33.2933 0.067,-2.1467 -3.2666,-2.1467 -3.3333,0 -0.32,11.4933 0.8267,22.9866 3.4,34.1866 0.48,2.0934 3.6933,1.2 3.2133,-0.8933" /><path
       id="path1090"
       style="fill:#937c76;fill-opacity:1;fill-rule:nonzero;stroke:none;stroke-width:0.133333"
       d="m 1673.1333,1756.3201 c 1.9867,-9.5067 4.8133,-18.8267 8.44,-27.84 0.8133,-1.9867 -2.4133,-2.8534 -3.2133,-0.88 -3.6267,9.0133 -6.4534,18.32 -8.44,27.84 -0.4267,2.0933 2.7866,2.9866 3.2133,0.88" /><path
       id="path1092"
       style="fill:#937c76;fill-opacity:1;fill-rule:nonzero;stroke:none;stroke-width:0.133333"
       d="m 1692.24,1739.0001 c 2.28,-9.6934 4.5466,-19.4 6.8133,-29.0934 0.4933,-2.08 -2.72,-2.9733 -3.2133,-0.88 -2.2667,9.6934 -4.5334,19.3867 -6.8134,29.0934 -0.4933,2.08 2.72,2.9733 3.2134,0.88" /></g></svg>
