<?xml version="1.0" encoding="UTF-8" standalone="no"?>
<svg
   xmlns:dc="http://purl.org/dc/elements/1.1/"
   xmlns:cc="http://creativecommons.org/ns#"
   xmlns:rdf="http://www.w3.org/1999/02/22-rdf-syntax-ns#"
   xmlns:svg="http://www.w3.org/2000/svg"
   xmlns="http://www.w3.org/2000/svg"
   xmlns:sodipodi="http://sodipodi.sourceforge.net/DTD/sodipodi-0.dtd"
   xmlns:inkscape="http://www.inkscape.org/namespaces/inkscape"
   viewBox="0 0 512 511.99999"
   height="512"
   width="512"
   xml:space="preserve"
   id="svg2"
   version="1.1"
   sodipodi:docname="White-Tailed Deer.svg"
   inkscape:version="1.0.2 (e86c870879, 2021-01-15, custom)"><sodipodi:namedview
     pagecolor="#ffffff"
     bordercolor="#666666"
     borderopacity="1"
     objecttolerance="10"
     gridtolerance="10"
     guidetolerance="10"
     inkscape:pageopacity="0"
     inkscape:pageshadow="2"
     inkscape:window-width="1366"
     inkscape:window-height="715"
     id="namedview79187"
     showgrid="false"
     inkscape:zoom="0.14745283"
     inkscape:cx="2119.3499"
     inkscape:cy="790.787"
     inkscape:window-x="-8"
     inkscape:window-y="-8"
     inkscape:window-maximized="1"
     inkscape:current-layer="svg2" /><metadata
     id="metadata8"><rdf:RDF><cc:Work
         rdf:about=""><dc:format>image/svg+xml</dc:format><dc:type
           rdf:resource="http://purl.org/dc/dcmitype/StillImage" /><dc:title></dc:title></cc:Work></rdf:RDF></metadata><defs
     id="defs6" /><g
     id="g80676"
     transform="matrix(0.43626863,0,0,0.43626863,-1712.3012,-416.73534)"><g
       transform="matrix(0.30292133,0,0,-0.30292133,0,2666.6667)"
       id="g588"><path
         id="path590"
         style="fill:#f2f2f2;fill-opacity:1;fill-rule:nonzero;stroke:none"
         d="m 16300,2622.16 c 0,-86.19 -470,-155.99 -1049.6,-155.99 -579.8,0 -1049.7,69.8 -1049.7,155.99 0,86.14 469.9,155.99 1049.7,155.99 579.6,0 1049.6,-69.85 1049.6,-155.99" /></g><g
       transform="matrix(0.25603999,0,0,-0.25603999,0,2666.6667)"
       id="g592"><path
         id="path594"
         style="fill:#e57f61;fill-opacity:1;fill-rule:nonzero;stroke:none"
         d="m 16216,3993.28 c 0,0 -168,34.63 -227.6,90.04 -59.4,55.41 -130.3,208.56 -155.9,253.81 -25.6,45.21 200.5,40.36 292.5,-60.98 91.9,-101.39 98.2,-210.48 136.6,-262.66 38.4,-52.24 -45.6,-20.21 -45.6,-20.21" /></g><g
       transform="matrix(0.30488266,0,0,-0.30488266,0,2666.6667)"
       id="g596"><path
         id="path598"
         style="fill:#e59761;fill-opacity:1;fill-rule:nonzero;stroke:none"
         d="m 16300,4927.26 c 0,-0.07 0,-0.09 0,-0.15 -0.2,-9.14 -8.5,-395.73 -312.5,-248.9 -130.2,62.9 -165.8,96.7 -163.4,114.8 3.3,24.61 17.9,35.1 17.9,35.1 0,0 360.8,-70.93 458,99.15" /></g><g
       transform="matrix(0.30508933,0,0,-0.30508933,0,2666.6667)"
       id="g600"><path
         id="path602"
         style="fill:#efb38f;fill-opacity:1;fill-rule:nonzero;stroke:none"
         d="m 16282.1,4793.01 c -2.9,-55.95 -50.4,-77.85 -50.4,-77.85 19.6,-1.05 50.2,13.56 43.3,9.06 -16.2,-24.47 -58.2,-35.67 -58.2,-35.67 9.8,-9.64 36,-17.31 36,-17.31 -23.7,-14.26 -84.7,-16.54 -84.7,-16.54 10.6,-17.74 37.1,-28.82 37.1,-28.82 -153.2,-24.39 -258.5,46.24 -284.9,77.67 -93.8,111.88 -109.3,68.14 -106.8,86.23 17.4,-10.41 157.3,-90.87 282.9,-75.83 45.9,5.45 90,23.68 125.5,62.93 29.6,32.73 53.3,80.13 67,146.9 0,-3.7 11.1,-83 -22.5,-133.93 9.4,-1.6 14.7,1.67 15.7,3.16" /></g><g
       transform="matrix(0.27654933,0,0,-0.27654933,0,2666.6667)"
       id="g604"><path
         id="path606"
         style="fill:#e57f61;fill-opacity:1;fill-rule:nonzero;stroke:none"
         d="m 15905,3212.11 c -30.5,-89.09 -56.7,-155.63 -78.6,-204.03 -86.1,-190.64 -107.1,-102.7 -73.3,-6.95 1.8,4.92 3.7,10.56 5.7,16.88 34.2,104.77 111.9,396.07 161.8,619.88 33.4,150.04 62,386.81 82.2,600.54 13.8,146.52 23.6,282.24 28.3,371.73 14.5,277.81 268.9,-269.47 224.4,-455.91 -8.6,-36.02 -24.5,-86.16 -45.1,-144.98 -85.9,-246.13 -253.1,-644.46 -305.4,-797.16" /></g><g
       transform="matrix(0.27654933,0,0,-0.27654933,0,2666.6667)"
       id="g608"><path
         id="path610"
         style="fill:#d17055;fill-opacity:1;fill-rule:nonzero;stroke:none"
         d="m 16255.5,4154.25 c -8.6,-36.02 -24.5,-86.16 -45.1,-144.98 -97.2,81.44 -163.6,162.87 -207.6,229.16 13.8,146.52 23.6,282.24 28.3,371.73 14.5,277.81 268.9,-269.47 224.4,-455.91" /></g><g
       transform="matrix(0.26851333,0,0,-0.26851333,0,2666.6667)"
       id="g612"><path
         id="path614"
         style="fill:#703146;fill-opacity:1;fill-rule:nonzero;stroke:none"
         d="m 16300,3098.05 c -88.6,-196.29 -110.2,-105.72 -75.4,-7.1 1.8,5.07 3.7,10.88 5.8,17.38 16.7,-7.45 39.7,-13.01 69.6,-10.28" /></g><g
       transform="matrix(0.29466533,0,0,-0.29466533,0,2666.6667)"
       id="g616"><path
         id="path618"
         style="fill:#e57f61;fill-opacity:1;fill-rule:nonzero;stroke:none"
         d="m 16283.1,3883.22 c 16.9,-198.23 -8.4,-604.25 -60.4,-890.59 -9.1,-50.18 -19.1,-92.53 -29.3,-127.42 -47.9,-164.16 -99.3,-163.44 -76.5,-38.64 1.5,8.51 4,23.21 7.1,42.99 26.5,171.62 92.8,723.93 -91.6,889.91 -44.8,40.31 -88.3,89.77 -127.9,142.98 -142.3,190.96 -236.8,431.23 -178.5,480.64 287.6,243.93 470.8,-127.24 533.8,-372.85 12.7,-49.46 20.5,-93.8 23.3,-127.02" /></g><g
       transform="matrix(0.29393866,0,0,-0.29393866,0,2666.6667)"
       id="g620"><path
         id="path622"
         style="fill:#d17055;fill-opacity:1;fill-rule:nonzero;stroke:none"
         d="m 16300,4020.16 c -128.6,-54.21 -247.3,-88.59 -356.2,-108.05 -142.6,191.42 -237.3,432.29 -178.9,481.82 288.3,244.53 472,-127.55 535.1,-373.77" /></g><g
       transform="matrix(0.29273866,0,0,-0.29273866,0,2666.6667)"
       id="g624"><path
         id="path626"
         style="fill:#703146;fill-opacity:1;fill-rule:nonzero;stroke:none"
         d="m 16300,2884.07 c -48.1,-165.29 -100,-164.51 -77,-38.89 1.5,8.56 4.1,23.36 7.2,43.27 23.6,-4.1 48.8,-4.83 69.8,-4.38" /></g><g
       transform="matrix(0.29930666,0,0,-0.29930666,0,2666.6667)"
       id="g628"><path
         id="path630"
         style="fill:#e59761;fill-opacity:1;fill-rule:nonzero;stroke:none"
         d="m 16204.9,4249.19 c -95,-397.09 -420.8,0 -420.8,0 0,0 -30.4,-15.68 -81.7,-37.82 -111.5,-47.89 -322.2,-125.93 -536,-138.67 -302,-17.96 -434.7,85.66 -516.6,8.55 -2.8,-2.63 -5.6,-5.48 -8.3,-8.55 -133.9,-153.2 -319.8,-472.83 -458.7,-630.79 0,-0.05 0,-0.09 0,-0.09 -78.4,-295.93 -147.3,-411.4 -203,-486.06 -4.3,-5.79 -8.6,-11.36 -12.7,-16.75 -46.4,-59.74 -123.2,-103.22 -137.2,-66.86 -8.1,20.62 -14.3,44.72 -5.1,121.39 4,34.03 8,63.03 12,93.41 8.5,65.08 -3,138.41 6.2,277.49 17.3,258.64 101.9,67.26 333.9,653.19 124.4,314.11 184.8,426.37 337.8,642.58 87.1,123.15 248.4,217.78 583.8,111.45 241.7,-76.65 746.6,118.45 862,139.35 115.5,20.9 339.5,-264.75 244.4,-661.82" /></g><g
       transform="matrix(0.28833333,0,0,-0.28833333,0,2666.6667)"
       id="g632"><path
         id="path634"
         style="fill:#efb38f;fill-opacity:1;fill-rule:nonzero;stroke:none"
         d="m 16300,4371.65 c -115.7,-49.71 -334.5,-130.73 -556.4,-143.95 -313.5,-18.64 -451.2,88.92 -536.3,8.87 -2.9,-2.73 -5.7,-5.68 -8.5,-8.87 -139.1,-159.03 -332.1,-490.83 -476.2,-654.8 5.2,10.26 333.6,665.06 438.4,751.21 105.8,86.8 790.1,-121.66 1056.2,150.1 0,0 45.4,-41.61 82.8,-102.56" /></g><g
       transform="matrix(0.25652799,0,0,-0.25652799,0,2666.6667)"
       id="g636"><path
         id="path638"
         style="fill:#e59761;fill-opacity:1;fill-rule:nonzero;stroke:none"
         d="m 16077.1,4633.66 c 61.6,-25.46 184.1,-142.41 200.7,-260.03 22.2,-156.4 -41,-262.95 -37.9,-337.53 0.7,-19.49 -2.7,-28.02 -8.2,-29.99 -1.3,-0.52 -2.9,-0.58 -4.5,-0.32 -16.4,2.81 -42.9,41.74 -42.9,41.74 0,0 -135.8,144.44 -156.6,236.13 -20.8,91.63 9.6,282.59 14.2,342.05 0.7,9.88 7.1,13.88 17.3,12.94 0.3,0 0.5,-0.05 0.6,-0.1 5,-0.57 10.8,-2.23 17.3,-4.89" /></g><g
       transform="matrix(0.25545333,0,0,-0.25545333,0,2666.6667)"
       id="g640"><path
         id="path642"
         style="fill:#f9dfca;fill-opacity:1;fill-rule:nonzero;stroke:none"
         d="m 16126.8,4658.17 c 79.7,-83.51 112.1,-162.32 123.9,-202.77 17,-58.31 26.8,-321 49.3,-432.44 -1.4,-0.52 -2.9,-0.57 -4.5,-0.31 -24.3,50.89 -93,193.54 -134.6,266.97 -45.5,80.28 -1.4,233.99 -34.1,368.55" /></g><g
       transform="matrix(0.28451466,0,0,-0.28451466,0,2666.6667)"
       id="g644"><path
         id="path646"
         style="fill:#e59761;fill-opacity:1;fill-rule:nonzero;stroke:none"
         d="m 16298.5,2861.81 c 1.5,-152.87 -47.4,-141.67 -59.5,-42.55 -1.2,10.4 -3.5,24.09 -6.7,40.77 -39.7,206.62 -222.2,859.1 -393.7,1157.15 -185.2,322 -267.4,717.07 -237.8,752.65 353,425.74 451.5,-298.73 478.5,-595.65 27,-296.93 143.8,-818.8 185,-1032.03 24.3,-125.31 33.5,-216.93 34.2,-280.34" /></g><g
       transform="matrix(0.28451466,0,0,-0.28451466,0,2666.6667)"
       id="g648"><path
         id="path650"
         style="fill:#703146;fill-opacity:1;fill-rule:nonzero;stroke:none"
         d="m 16298.5,2861.81 c 1.5,-152.87 -47.4,-141.67 -59.5,-42.55 -1.2,10.4 -3.5,24.09 -6.7,40.77 17.8,-2.25 41.6,-3.14 66.2,1.78" /></g><g
       transform="matrix(0.25670266,0,0,-0.25670266,0,2666.6667)"
       id="g652"><path
         id="path654"
         style="fill:#efb38f;fill-opacity:1;fill-rule:nonzero;stroke:none"
         d="m 16300,3446.32 c -5,-6.75 -10,-13.24 -14.9,-19.53 -54,-69.65 -143.5,-120.34 -159.9,-77.96 -9.4,24.05 -16.7,52.15 -6,141.54 4.8,39.68 9.4,73.5 14.1,108.92 40.8,-23.89 118.2,-76.09 166.7,-152.97" /></g><g
       transform="matrix(0.25450266,0,0,-0.25450266,0,2666.6667)"
       id="g656"><path
         id="path658"
         style="fill:#703146;fill-opacity:1;fill-rule:nonzero;stroke:none"
         d="m 16300,3363.22 c 0,0 -28.4,-9.64 -66.5,13.04 0,0 12.9,45.22 19.2,73.14 0,0 31.4,-10.37 47.3,-86.18" /></g><g
       transform="matrix(0.30187466,0,0,-0.30187466,0,2666.6667)"
       id="g660"><path
         id="path662"
         style="fill:#e59761;fill-opacity:1;fill-rule:nonzero;stroke:none"
         d="m 16241.9,2640.44 c -21,20.14 -40.3,46.47 -58.2,77.56 -147.4,256.53 -190.7,832.58 -190.7,832.58 -429.6,41.43 -529.4,871.96 -529.4,871.96 v 290.1 c 0,0 574.2,345.38 663.5,55.27 89.3,-290.1 -48.6,-603.21 -106.3,-808.95 -8.6,-162.63 182.9,-273.18 182.9,-273.18 -94.8,-438.11 -8.6,-778.25 43.1,-949.05 34.1,-112.9 53.2,-151.85 -4.9,-96.29" /></g><g
       transform="matrix(0.30187466,0,0,-0.30187466,0,2666.6667)"
       id="g664"><path
         id="path666"
         style="fill:#703146;fill-opacity:1;fill-rule:nonzero;stroke:none"
         d="m 16241.9,2640.44 c -21,20.14 -40.3,46.47 -58.2,77.56 16.4,3.49 40.3,9.5 63.1,18.73 34.1,-112.9 53.2,-151.85 -4.9,-96.29" /></g><g
       transform="matrix(0.25712799,0,0,-0.25712799,0,2666.6667)"
       id="g668"><path
         id="path670"
         style="fill:#f9dfca;fill-opacity:1;fill-rule:nonzero;stroke:none"
         d="m 16168.9,3663.65 c 11.3,-33.86 70.2,-34.23 100.7,109.77 30.4,144.01 -150.3,39.67 -100.7,-109.77" /></g><g
       transform="matrix(0.25668666,0,0,-0.25668666,0,2666.6667)"
       id="g672"><path
         id="path674"
         style="fill:#703146;fill-opacity:1;fill-rule:nonzero;stroke:none"
         d="m 16219.4,3671.97 c 0,0 -43.4,64.82 31.1,128.4 0,0 49.5,-79.57 -31.1,-128.4" /></g><g
       transform="matrix(0.25574533,0,0,-0.25574533,0,2666.6667)"
       id="g676"><path
         id="path678"
         style="fill:#fcf2e8;fill-opacity:1;fill-rule:nonzero;stroke:none"
         d="m 16289.3,3762.76 c 6.3,-0.88 10.7,-25.49 2.8,-42.65 -1,-2.18 -4.8,-10.27 -9,-9.9 -4.5,0.42 -6.9,9.8 -7.3,11.31 -4.7,18.41 7,42.13 13.5,41.24" /></g><g
       transform="matrix(0.25995466,0,0,-0.25995466,0,2666.6667)"
       id="g680"><path
         id="path682"
         style="fill:#e57f61;fill-opacity:1;fill-rule:nonzero;stroke:none"
         d="m 16282.4,3904.59 c -2.4,24 -8.1,54.47 -21.8,87.24 -33.4,80.53 -93.1,124.43 -121.1,142.23 20.8,-3.23 50.5,-11.38 78.1,-33.39 82.4,-65.55 65.8,-188.96 64.8,-196.08" /></g><g
       transform="matrix(0.27639066,0,0,-0.27639066,0,2666.6667)"
       id="g684"><path
         id="path686"
         style="fill:#f9dfca;fill-opacity:1;fill-rule:nonzero;stroke:none"
         d="m 16297.2,5132.67 c 2.8,-15.26 -27.2,-40.06 -57.7,-42.04 -43.2,-2.81 -83.5,40.56 -77.8,56.47 4.6,12.78 39.7,10.26 63.2,8.57 19.5,-1.39 68.8,-4.94 72.3,-23" /></g><g
       transform="matrix(0.28717733,0,0,-0.28717733,0,2666.6667)"
       id="g688"><path
         id="path690"
         style="fill:#f9dfca;fill-opacity:1;fill-rule:nonzero;stroke:none"
         d="m 16164.5,4919.58 c -3.6,14.5 24,39.98 53.1,43.56 41.4,5.07 82.4,-34.38 77.8,-49.99 -3.8,-12.53 -37.7,-12.04 -60.4,-11.71 -18.7,0.27 -66.3,0.96 -70.5,18.14" /></g><g
       transform="matrix(0.28309333,0,0,-0.28309333,0,2666.6667)"
       id="g692"><path
         id="path694"
         style="fill:#f9dfca;fill-opacity:1;fill-rule:nonzero;stroke:none"
         d="m 16180.1,4912.51 c -10.6,10.64 0.3,47.64 23.7,66.53 33.2,26.8 89,14.8 93,-1.25 3.2,-12.88 -26.4,-30.8 -46.2,-42.78 -16.4,-9.93 -58,-35.1 -70.5,-22.5" /></g><g
       transform="matrix(0.27594133,0,0,-0.27594133,0,2666.6667)"
       id="g696"><path
         id="path698"
         style="fill:#f9dfca;fill-opacity:1;fill-rule:nonzero;stroke:none"
         d="m 16295.3,4986.83 c 4.7,-11.15 -9.4,-30.03 -24.6,-38.54 -26,-14.43 -63.4,-3.38 -66.3,10.89 -2.4,11.47 17.3,25.41 30.1,31.28 22.7,10.45 55.2,9.9 60.8,-3.63" /></g><g
       transform="matrix(0.28477599,0,0,-0.28477599,0,2666.6667)"
       id="g700"><path
         id="path702"
         style="fill:#f9dfca;fill-opacity:1;fill-rule:nonzero;stroke:none"
         d="m 16295.5,4887.78 c 4.5,-10.81 -9.1,-29.1 -23.9,-37.34 -25.2,-13.99 -61.4,-3.28 -64.3,10.55 -2.3,11.11 16.9,24.62 29.2,30.31 22.1,10.12 53.5,9.59 59,-3.52" /></g><g
       transform="matrix(0.27947866,0,0,-0.27947866,0,2666.6667)"
       id="g704"><path
         id="path706"
         style="fill:#f9dfca;fill-opacity:1;fill-rule:nonzero;stroke:none"
         d="m 16296.8,5029.14 c 3.2,-18.1 -18.5,-39.69 -39.5,-47.14 -36.4,-12.78 -82.6,12.07 -83.9,35.61 -0.9,17.03 21.9,32.21 37.5,38.02 34.6,12.95 81.6,-2.67 85.9,-26.49" /></g><g
       transform="matrix(0.28934666,0,0,-0.28934666,0,2666.6667)"
       id="g708"><path
         id="path710"
         style="fill:#f9dfca;fill-opacity:1;fill-rule:nonzero;stroke:none"
         d="m 16297.1,4762.03 c 2.9,-15.94 -16.2,-34.97 -34.8,-41.53 -31.9,-11.27 -72.7,10.63 -73.8,31.37 -0.8,15.01 19.2,28.38 32.9,33.5 30.6,11.41 72,-2.35 75.7,-23.34" /></g><g
       transform="matrix(0.28248933,0,0,-0.28248933,0,2666.6667)"
       id="g712"><path
         id="path714"
         style="fill:#f9dfca;fill-opacity:1;fill-rule:nonzero;stroke:none"
         d="m 16297.3,4761.25 c 2.7,-14.59 -19.2,-31.91 -37,-39.34 -32,-13.4 -79.1,-5.14 -88.1,20.96 -5.4,15.75 4.2,37.56 19.3,46.79 12,7.31 25.2,4.26 51.2,-2.13 29.9,-7.37 52.2,-12.85 54.6,-26.28" /></g><g
       transform="matrix(0.27169466,0,0,-0.27169466,0,2666.6667)"
       id="g716"><path
         id="path718"
         style="fill:#f9dfca;fill-opacity:1;fill-rule:nonzero;stroke:none"
         d="m 16298,5230.28 c 2,-11.13 -14.7,-24.35 -28.3,-30.02 -24.4,-10.21 -60.3,-3.91 -67.2,16 -4.2,12.02 3.2,28.66 14.8,35.71 9.1,5.58 19.1,3.25 39,-1.63 22.8,-5.62 39.8,-9.8 41.7,-20.06" /></g><g
       transform="matrix(0.27848799,0,0,-0.27848799,0,2666.6667)"
       id="g720"><path
         id="path722"
         style="fill:#f9dfca;fill-opacity:1;fill-rule:nonzero;stroke:none"
         d="m 16293.6,4926.04 c 6.4,-8.89 -13.6,-41.36 -41.7,-54.61 -20.2,-9.53 -46.8,-10.18 -50.3,-1.75 -2.8,6.6 9.3,17.63 16.2,24.08 26.8,24.64 68.6,42.22 75.8,32.28" /></g><g
       transform="matrix(0.26922399,0,0,-0.26922399,0,2666.6667)"
       id="g724"><path
         id="path726"
         style="fill:#f9dfca;fill-opacity:1;fill-rule:nonzero;stroke:none"
         d="m 16297.6,5218.6 c 2.4,-9.95 -25.9,-30.42 -54.6,-31.47 -20.6,-0.77 -43.6,8.43 -43.6,16.91 -0.1,6.65 14,11.7 22.2,14.66 31.5,11.28 73.3,11.03 76,-0.1" /></g><g
       transform="matrix(0.29712266,0,0,-0.29712266,0,2666.6667)"
       id="g728"><path
         id="path730"
         style="fill:#f9dfca;fill-opacity:1;fill-rule:nonzero;stroke:none"
         d="m 16297.8,4759.68 c 2.2,-9.01 -23.5,-27.55 -49.4,-28.51 -18.7,-0.7 -39.5,7.63 -39.6,15.32 0,6.03 12.7,10.6 20.2,13.28 28.5,10.23 66.4,10 68.8,-0.09" /></g><g
       transform="matrix(0.29146133,0,0,-0.29146133,0,2666.6667)"
       id="g732"><path
         id="path734"
         style="fill:#f9dfca;fill-opacity:1;fill-rule:nonzero;stroke:none"
         d="m 16142.6,4857.91 c 4.6,15.96 61.2,19.25 102.6,-4.66 29.6,-17.19 54.8,-50.41 48,-62.25 -5.2,-9.29 -29.2,-3.83 -43.2,-0.63 -53.6,12.2 -112.6,49.67 -107.4,67.54" /></g><g
       transform="matrix(0.29264266,0,0,-0.29264266,0,2666.6667)"
       id="g736"><path
         id="path738"
         style="fill:#f9dfca;fill-opacity:1;fill-rule:nonzero;stroke:none"
         d="m 16293.9,4948.24 c 6.1,-8.45 -12.9,-39.36 -39.6,-51.97 -19.3,-9.06 -44.6,-9.68 -48,-1.66 -2.6,6.28 8.8,16.78 15.5,22.92 25.4,23.44 65.2,40.18 72.1,30.71" /></g><g
       transform="matrix(0.28548399,0,0,-0.28548399,0,2666.6667)"
       id="g740"><path
         id="path742"
         style="fill:#f9dfca;fill-opacity:1;fill-rule:nonzero;stroke:none"
         d="m 16226.2,4702.88 c -8.5,6.31 0.8,42.56 23,63.37 16.1,14.97 40.7,23.63 46.4,16.86 4.4,-5.31 -3.5,-19.19 -8.2,-27.31 -17.9,-31 -51.7,-60 -61.2,-52.92" /></g><g
       transform="matrix(0.27903866,0,0,-0.27903866,0,2666.6667)"
       id="g744"><path
         id="path746"
         style="fill:#f9dfca;fill-opacity:1;fill-rule:nonzero;stroke:none"
         d="m 16298.3,4805.05 c 1.7,-8.03 -10.1,-19.64 -22.4,-21.99 -17.1,-3.25 -35.5,11.29 -34.4,20.25 1,7.65 16.2,11.12 18.9,11.76 15.2,3.48 35.9,-0.55 37.9,-10.02" /></g><g
       transform="matrix(0.26875866,0,0,-0.26875866,0,2666.6667)"
       id="g748"><path
         id="path750"
         style="fill:#f9dfca;fill-opacity:1;fill-rule:nonzero;stroke:none"
         d="m 16298.9,5096.08 c 1.1,-5.23 -6.6,-12.82 -14.6,-14.35 -11.2,-2.12 -23.2,7.37 -22.5,13.22 0.6,4.99 10.6,7.26 12.4,7.68 9.9,2.27 23.4,-0.36 24.7,-6.55" /></g><g
       transform="matrix(0.27436133,0,0,-0.27436133,0,2666.6667)"
       id="g752"><path
         id="path754"
         style="fill:#f9dfca;fill-opacity:1;fill-rule:nonzero;stroke:none"
         d="m 16298.9,4847.68 c 1.1,-5.1 -6.4,-12.54 -14.3,-14.04 -10.9,-2.09 -22.7,7.19 -22,12.92 0.6,4.91 10.3,7.15 12.1,7.54 9.7,2.23 22.9,-0.34 24.2,-6.42" /></g><g
       transform="matrix(0.29456799,0,0,-0.29456799,0,2666.6667)"
       id="g756"><path
         id="path758"
         style="fill:#f9dfca;fill-opacity:1;fill-rule:nonzero;stroke:none"
         d="m 16299,4891.13 c 1,-4.78 -6,-11.7 -13.3,-13.1 -10.2,-1.93 -21.2,6.73 -20.5,12.07 0.5,4.55 9.6,6.61 11.3,6.99 9,2.08 21.3,-0.32 22.5,-5.96" /></g><g
       transform="matrix(0.29703066,0,0,-0.29703066,0,2666.6667)"
       id="g760"><path
         id="path762"
         style="fill:#f9dfca;fill-opacity:1;fill-rule:nonzero;stroke:none"
         d="m 16266.1,4931.41 c 0.8,4.77 9.8,8.36 17,6.76 10,-2.23 16.9,-14.46 14.3,-19.09 -2.2,-3.94 -11.3,-2.28 -12.9,-1.98 -9.1,1.66 -19.5,8.68 -18.4,14.31" /></g><g
       transform="matrix(0.28701466,0,0,-0.28701466,0,2666.6667)"
       id="g764"><path
         id="path766"
         style="fill:#f9dfca;fill-opacity:1;fill-rule:nonzero;stroke:none"
         d="m 16298.9,4672.91 c 1.1,-4.91 -6.1,-12.01 -13.6,-13.45 -10.5,-1.99 -21.8,6.9 -21.1,12.38 0.6,4.67 9.9,6.79 11.6,7.18 9.3,2.13 21.9,-0.33 23.1,-6.11" /></g><g
       transform="matrix(0.28067599,0,0,-0.28067599,0,2666.6667)"
       id="g768"><path
         id="path770"
         style="fill:#f9dfca;fill-opacity:1;fill-rule:nonzero;stroke:none"
         d="m 16259.4,4901.8 c -7,3.9 -7.9,20.51 -1.6,31.56 8.7,15.32 31.4,20.15 37.2,13.47 5,-5.7 -2.3,-19.71 -3.6,-22.28 -7.4,-14 -23.7,-27.34 -32,-22.75" /></g><g
       transform="matrix(0.29355999,0,0,-0.29355999,0,2666.6667)"
       id="g772"><path
         id="path774"
         style="fill:#f9dfca;fill-opacity:1;fill-rule:nonzero;stroke:none"
         d="m 16244.1,4723.88 c -0.6,7.79 12,17.13 23.9,17.65 16.5,0.73 32,-15.48 29.8,-23.76 -1.9,-7.06 -16.7,-8.26 -19.4,-8.48 -14.7,-1.2 -33.6,5.4 -34.3,14.59" /></g><g
       transform="matrix(0.27316266,0,0,-0.27316266,0,2666.6667)"
       id="g776"><path
         id="path778"
         style="fill:#f9dfca;fill-opacity:1;fill-rule:nonzero;stroke:none"
         d="m 16258.3,5054.02 c -7.2,4.01 -8.1,21.08 -1.6,32.43 8.9,15.74 32.2,20.7 38.2,13.84 5.1,-5.86 -2.4,-20.25 -3.8,-22.9 -7.5,-14.39 -24.3,-28.09 -32.8,-23.37" /></g><g
       transform="matrix(0.29005599,0,0,-0.29005599,0,2666.6667)"
       id="g780"><path
         id="path782"
         style="fill:#f9dfca;fill-opacity:1;fill-rule:nonzero;stroke:none"
         d="m 16260.7,4927.62 c -6.7,3.77 -7.6,19.84 -1.5,30.53 8.4,14.83 30.3,19.5 36,13.03 4.8,-5.52 -2.3,-19.07 -3.6,-21.56 -7,-13.55 -22.9,-26.45 -30.9,-22" /></g><g
       transform="matrix(0.27141733,0,0,-0.27141733,0,2666.6667)"
       id="g784"><path
         id="path786"
         style="fill:#f9dfca;fill-opacity:1;fill-rule:nonzero;stroke:none"
         d="m 16295.6,5021.22 c 4.4,-7.92 -4.3,-24.23 -16.6,-30.92 -17,-9.27 -41.3,-0.16 -43,9.72 -1.5,8.42 13.5,17.28 16.3,18.91 14.9,8.87 38.1,11.64 43.3,2.29" /></g></g></svg>
