<?xml version="1.0" encoding="UTF-8" standalone="no"?>
<svg
   xmlns:dc="http://purl.org/dc/elements/1.1/"
   xmlns:cc="http://creativecommons.org/ns#"
   xmlns:rdf="http://www.w3.org/1999/02/22-rdf-syntax-ns#"
   xmlns:svg="http://www.w3.org/2000/svg"
   xmlns="http://www.w3.org/2000/svg"
   xmlns:sodipodi="http://sodipodi.sourceforge.net/DTD/sodipodi-0.dtd"
   xmlns:inkscape="http://www.inkscape.org/namespaces/inkscape"
   version="1.1"
   id="Layer_1"
   x="0px"
   y="0px"
   width="980px"
   height="980px"
   viewBox="210 0 980 980"
   enable-background="new 0 0 980 980"
   xml:space="preserve"
   sodipodi:docname="Wild Turkey.svg"
   inkscape:version="1.0.2 (e86c870879, 2021-01-15, custom)"><metadata
   id="metadata770"><rdf:RDF><cc:Work
       rdf:about=""><dc:format>image/svg+xml</dc:format><dc:type
         rdf:resource="http://purl.org/dc/dcmitype/StillImage" /></cc:Work></rdf:RDF></metadata><defs
   id="defs768" /><sodipodi:namedview
   pagecolor="#ffffff"
   bordercolor="#666666"
   borderopacity="1"
   objecttolerance="10"
   gridtolerance="10"
   guidetolerance="10"
   inkscape:pageopacity="0"
   inkscape:pageshadow="2"
   inkscape:window-width="1366"
   inkscape:window-height="715"
   id="namedview766"
   showgrid="false"
   inkscape:zoom="0.55"
   inkscape:cx="490"
   inkscape:cy="490"
   inkscape:window-x="-8"
   inkscape:window-y="-8"
   inkscape:window-maximized="1"
   inkscape:current-layer="Layer_1" />









<g
   id="g959"
   transform="translate(-12,-11.997009)"><g
     id="g399">
	<circle
   fill="#3bcced"
   cx="712"
   cy="501.99701"
   r="357.48599"
   id="circle391" />
	<path
   fill="#81d5ef"
   d="m 712,859.482 c 184.092,0 335.68,-139.157 355.324,-318.016 C 1047.68,349.729 896.092,200.554 712,200.554 527.906,200.554 376.32,349.73 356.674,541.467 376.32,720.325 527.906,859.482 712,859.482 Z"
   id="path393" />
	<path
   fill="#b3e2f4"
   d="m 712,464.991 c -153.188,0 -283.865,67.655 -334.746,162.729 50.881,135.406 181.559,231.762 334.746,231.762 153.187,0 283.865,-96.356 334.746,-231.762 C 995.865,532.646 865.188,464.991 712,464.991 Z"
   id="path395" />
	<path
   fill="#d7f4ff"
   d="M 439.26,733.083 C 504.832,810.4 602.68,859.482 712,859.482 821.32,859.482 919.168,810.4 984.74,733.083 919.166,683.316 821.318,651.727 712,651.727 c -109.318,0 -207.166,31.589 -272.74,81.356 z"
   id="path397" />
</g><path
     fill="#896f5d"
     d="m 662.55,769.745 c 0,0 13.615,-21.033 13.183,-32.321 -0.433,-11.29 -2.522,-65.521 -2.522,-65.521 l 8.319,-0.319 c 0,0 1.643,54.589 2.455,64.217 0.812,9.628 14.564,29.304 14.564,29.304 -4.444,0.873 -8.549,1.669 -13.549,2.338 v 0.013 c -2,0.384 -5,0.758 -8,1.084 v -0.007 c -5,0.535 -9.613,0.935 -14.45,1.212 z"
     id="path401" /><path
     fill="#896f5d"
     d="m 596.133,771.979 c 0,0 19.203,-25.307 20.145,-32.123 0.942,-6.815 9.741,-70.497 9.741,-70.497 l 8.724,1.176 c 0,0 -9.217,65.999 -10.013,72.433 -0.797,6.433 8.132,27.019 8.132,27.019 -3.982,0.488 -7.994,0.883 -12.031,1.196 l -0.002,0.008 c -1.514,0.117 -3.032,0.221 -4.554,0.311 -0.742,0.046 -1.425,0.078 -2.169,0.116 -0.723,0.038 -1.105,0.082 -2.105,0.113 v -0.007 c -1,0.025 -1.172,0.061 -1.729,0.082 -4.718,0.179 -9.473,0.235 -14.139,0.173 z"
     id="path403" /><path
     fill="#6d594b"
     d="m 625.758,735.289 c 2.601,-19.045 8.984,-64.755 8.984,-64.755 l -8.724,-1.176 c 0,0 -6.741,48.786 -9.054,65.526 2.866,0.221 5.8,0.357 8.794,0.405 z"
     id="path405" /><path
     fill="#6d594b"
     d="m 673.21,671.902 c 0,0 1.449,37.612 2.184,56.71 2.745,-0.78 5.432,-1.617 8.054,-2.509 -0.841,-18.732 -1.918,-54.521 -1.918,-54.521 z"
     id="path407" /><g
     id="g415">
	<path
   fill="#ffffff"
   d="m 825.167,309 c 48.842,0 91.32,0 125.498,0 0,-34.969 -28.093,-62.749 -62.749,-62.749 -34.655,0 -62.749,27.78 -62.749,62.749 z"
   id="path409" />
	<path
   fill="#ffffff"
   d="m 795.762,309 c 24.194,0 45.238,0 62.168,0 0,-17.096 -13.916,-31.084 -31.084,-31.084 -17.167,0 -31.084,13.988 -31.084,31.084 z"
   id="path411" />
	<path
   fill="#ffffff"
   d="m 934.033,309 c 16.415,0 30.69,0 42.177,0 0,-11.656 -9.441,-21.089 -21.089,-21.089 -11.646,0 -21.088,9.433 -21.088,21.089 z"
   id="path413" />
</g><g
     id="g421">
	<path
   fill="#ffffff"
   d="m 551.882,548 c -50.244,0 -93.942,0 -129.101,0 0,-35 28.9,-64.55 64.55,-64.55 35.651,0 64.551,29.55 64.551,64.55 z"
   id="path417" />
	<path
   fill="#ffffff"
   d="m 455.629,548 c -28.163,0 -52.66,0 -72.368,0 0,-20 16.201,-36.183 36.185,-36.183 19.984,0 36.183,16.183 36.183,36.183 z"
   id="path419" />
</g><g
     id="g491">
	<path
   fill="#8e7c6b"
   d="m 833.836,774.508 c 8.217,1.553 48.612,8.957 55.079,10.18 2.495,-13.202 -8.964,-28.18 -21.557,-29.801 -15.129,-1.948 -31.025,6.421 -33.522,19.621 z"
   id="path423" />
	<g
   id="g449">
		<g
   id="g431">
			<path
   fill="#addd3a"
   d="m 900.068,791.165 c 0,0 4.867,-25.456 -2.886,-39.566 0,0 12.492,16.364 12.56,41.469 z"
   id="path425" />
			<path
   fill="#addd3a"
   d="m 908.615,791.781 c 0,0 7.68,-30.868 27.43,-35.155 0,0 -20.364,-2.863 -33.197,33.994 z"
   id="path427" />
			<path
   fill="#addd3a"
   d="m 907.046,796.999 c 0,0 12.295,-27.233 34.353,-22.707 0,0 -21.815,-11.897 -40.488,18.991 z"
   id="path429" />
		</g>
		<path
   fill="#8e7c6b"
   d="m 502.316,741.04 c 19.379,-5.577 41.986,13.864 50.342,42.894 -8.494,2.445 -26.502,7.629 -43.176,12.43 -10.266,-7.09 -20.137,-14.707 -29.586,-22.804 2.112,-16.244 10.141,-28.985 22.42,-32.52 z"
   id="path433" />
		<path
   fill="#94d11e"
   d="m 920.104,792.961 c -58.547,41.875 -130.26,66.521 -207.73,66.521 -77.47,0 -149.182,-24.646 -207.73,-66.521 58.549,-19.437 130.26,-30.877 207.73,-30.877 77.47,0 149.183,11.44 207.73,30.877 z"
   id="path435" />
		<path
   fill="#39b54a"
   d="m 689.373,799.482 c 43.738,0 85.297,-11.026 122.819,-30.836 -31.682,-4.268 -65.172,-6.563 -99.819,-6.563 -47.615,0 -93.048,4.328 -134.592,12.172 34.522,16.27 72.171,25.227 111.592,25.227 z"
   id="path437" />
		<path
   fill="#94d11e"
   d="m 522.24,787.477 c 0,0 -1.563,-19.352 10.035,-30.477 0,0 -15.404,7.647 -17.486,32.74 z"
   id="path439" />
		<path
   fill="#94d11e"
   d="m 517.686,788.83 c 0,0 -11.646,-43.163 10.02,-61.83 0,0 -27.346,10.296 -18.006,64.314 z"
   id="path441" />
		<path
   fill="#94d11e"
   d="m 504.643,792.961 c 0,0 -8.604,-26.627 -23.27,-35.961 0,0 20.32,9.009 33.416,32.74 z"
   id="path443" />
		<path
   fill="#776853"
   d="m 522.75,793.795 c 12.699,-2.439 40.854,-7.844 50.844,-9.762 -3.916,-20.397 -18.529,-35.051 -32.57,-32.355 -14.04,2.694 -22.19,21.718 -18.274,42.117 z"
   id="path445" />
		<path
   fill="#776853"
   d="m 869.774,784.925 c 8.086,2.134 26.018,6.871 32.381,8.551 3.429,-12.991 -0.987,-25.628 -9.93,-27.989 -8.939,-2.363 -19.02,6.449 -22.451,19.438 z"
   id="path447" />
	</g>
	<g
   id="g489">
		<polygon
   fill="#39b54a"
   points="599.063,818 607.777,818 603.42,802.579 "
   id="polygon451" />
		<polygon
   fill="#39b54a"
   points="649.063,790 657.777,790 653.42,774.579 "
   id="polygon453" />
		<polygon
   fill="#39b54a"
   points="685.063,818 693.777,818 689.42,802.579 "
   id="polygon455" />
		<polygon
   fill="#39b54a"
   points="676.063,818 684.777,818 680.42,802.579 "
   id="polygon457" />
		<polygon
   fill="#39b54a"
   points="591.063,818 599.777,818 595.42,802.579 "
   id="polygon459" />
		<polygon
   fill="#39b54a"
   points="667.063,818 675.777,818 671.42,802.579 "
   id="polygon461" />
		<polygon
   fill="#39b54a"
   points="739.063,848 747.777,848 743.42,832.579 "
   id="polygon463" />
		<polygon
   fill="#39b54a"
   points="730.063,848 738.777,848 734.42,832.579 "
   id="polygon465" />
		<polygon
   fill="#39b54a"
   points="721.063,848 729.777,848 725.42,832.579 "
   id="polygon467" />
		<polygon
   fill="#39b54a"
   points="617.063,771 625.777,771 621.42,755.579 "
   id="polygon469" />
		<polygon
   fill="#39b54a"
   points="841.063,804 849.777,804 845.42,788.579 "
   id="polygon471" />
		<polygon
   fill="#39b54a"
   points="701.063,766 709.777,766 705.42,750.579 "
   id="polygon473" />
		<polygon
   fill="#39b54a"
   points="750.063,801 758.777,801 754.42,785.579 "
   id="polygon475" />
		<polygon
   fill="#39b54a"
   points="795.063,771 803.777,771 799.42,755.579 "
   id="polygon477" />
		<polygon
   fill="#39b54a"
   points="786.063,771 794.777,771 790.42,755.579 "
   id="polygon479" />
		<polygon
   fill="#39b54a"
   points="658.063,790 666.777,790 662.42,774.579 "
   id="polygon481" />
		<polygon
   fill="#39b54a"
   points="741.063,801 749.777,801 745.42,785.579 "
   id="polygon483" />
		<polygon
   fill="#39b54a"
   points="804.063,829 812.777,829 808.42,813.579 "
   id="polygon485" />
		<polygon
   fill="#39b54a"
   points="795.063,829 803.777,829 799.42,813.579 "
   id="polygon487" />
	</g>
</g><g
     id="g761">
	<g
   id="g619">
		<g
   id="g497">
			<g
   id="g495">
				<path
   fill="#ffddaf"
   d="m 748.641,526.85 80.891,-217.773 c 36.925,13.717 66.59,34.006 92.769,63.469 z"
   id="path493" />
			</g>
		</g>
		<g
   id="g503">
			<g
   id="g501">
				<path
   fill="#ffe3c6"
   d="m 748.624,526.83 -30.82,-230.262 c 39.042,-5.225 74.785,-1.229 111.709,12.487 z"
   id="path499" />
			</g>
		</g>
		<g
   id="g509">
			<g
   id="g507">
				<path
   fill="#ef944c"
   d="m 748.624,526.83 174.322,153.566 c -23.896,27.131 -47.819,44.802 -79.902,58.742 -2.869,1.249 -8.877,3.489 -11.933,-4.212 -3.051,-7.7 -82.487,-208.096 -82.487,-208.096 z"
   id="path505" />
			</g>
		</g>
		<g
   id="g515">
			<g
   id="g513">
				<path
   fill="#f3ae6a"
   d="m 748.624,526.83 226.01,53.752 c -9.111,38.32 -25.65,70.26 -51.688,99.814 z"
   id="path511" />
			</g>
		</g>
		<g
   id="g521">
			<g
   id="g519">
				<path
   fill="#fec387"
   d="m 748.624,526.83 224.788,-58.644 c 9.943,38.115 10.333,74.076 1.222,112.396 z"
   id="path517" />
			</g>
		</g>
		<g
   id="g527">
			<g
   id="g525">
				<path
   fill="#ffcd91"
   d="M 748.641,526.85 922.3,372.545 c 26.181,29.464 41.184,57.55 51.131,95.662 z"
   id="path523" />
			</g>
		</g>
		<path
   fill="#e3e3e3"
   d="m 940.181,476.858 c 0.004,0.006 0.004,0.014 0.006,0.021 l 33.23,-8.667 c -0.004,-0.007 -0.005,-0.015 -0.005,-0.025 z"
   id="path529" />
		<path
   fill="#c9c9c9"
   d="m 748.536,527.125 68.802,-185.247 c -0.01,-0.002 -0.015,-0.006 -0.022,-0.008 L 748.45,527.282 Z"
   id="path531" />
		<polygon
   fill="#c9c9c9"
   points="748.644,526.848 748.641,526.845 748.641,526.85 "
   id="polygon533" />
		<polygon
   fill="#c9c9c9"
   points="748.645,526.836 748.624,526.83 748.641,526.845 "
   id="polygon535" />
		<polygon
   fill="#c9c9c9"
   points="748.641,526.845 748.644,526.848 748.656,526.836 748.645,526.836 "
   id="polygon537" />
		<polygon
   fill="#c9c9c9"
   points="748.645,526.836 748.651,526.822 748.624,526.83 "
   id="polygon539" />
		<polygon
   fill="#c9c9c9"
   points="748.651,526.822 748.645,526.836 748.656,526.836 748.681,526.814 "
   id="polygon541" />
		<polygon
   fill="#c9c9c9"
   points="748.644,526.848 748.641,526.85 748.644,526.849 "
   id="polygon543" />
		<polygon
   fill="#c9c9c9"
   points="748.644,526.849 748.671,526.842 748.656,526.836 748.644,526.848 "
   id="polygon545" />
		<path
   fill="#c9c9c9"
   d="m 748.51,527.258 191.597,-50.169 c -10e-4,-0.008 0.038,-0.121 0.034,-0.129 l -191.561,50.115 -0.084,0.176 z"
   id="path547" />
		<path
   fill="#e3e3e3"
   d="m 956.867,472.505 c 0.002,0.008 0.002,0.015 0.004,0.022 l 16.546,-4.315 c -0.004,-0.007 -0.005,-0.015 -0.005,-0.025 z"
   id="path549" />
		<path
   fill="#969696"
   d="m 748.773,526.51 75.041,-202.026 c -0.007,-0.002 -0.014,-0.005 -0.021,-0.008 L 748.804,526.36 Z"
   id="path551" />
		<path
   fill="#7f6c7d"
   d="M 748.633,526.83 909.326,384.022 v 0 c -23.776,-26.587 -53.14,-46.791 -85.798,-58.896 l -74.922,201.713 z"
   id="path553" />
		<path
   fill="#8e7d8d"
   d="m 761.126,312.055 c -13.858,-0.817 -27.587,-0.308 -41.056,1.452 l 28.554,213.323 74.93,-201.727 c -19.786,-7.333 -40.767,-11.768 -62.428,-13.048 z"
   id="path555" />
		<path
   fill="#4f3749"
   d="M 910.229,669.194 748.824,526.839 749,526.83 v -0.006 l -0.195,-0.004 79.344,200.4 c 22.962,-9.148 44.351,-22.313 63.377,-39.218 6.675,-5.932 12.886,-12.214 18.703,-18.808 z"
   id="path557" />
		<polygon
   fill="#969696"
   points="748.644,526.848 748.641,526.845 748.641,526.85 "
   id="polygon559" />
		<polygon
   fill="#969696"
   points="748.645,526.836 748.624,526.83 748.641,526.845 "
   id="polygon561" />
		<path
   fill="#594054"
   d="m 748.671,526.842 -0.027,0.007 161.586,142.346 c 23.443,-26.573 39.769,-58.215 47.82,-92.555 z"
   id="path563" />
		<path
   fill="#ef944c"
   d="M 748.7,526.759 896.576,395.326 v 0 c -21.931,-24.504 -48.944,-42.973 -78.984,-54.108 l -68.918,185.549 z"
   id="path565" />
		<path
   fill="#f3ae6a"
   d="m 760.111,329.262 c -12.742,-0.752 -25.369,-0.285 -37.754,1.332 l 26.267,196.236 68.924,-185.563 c -18.203,-6.746 -37.51,-10.829 -57.437,-12.005 z"
   id="path567" />
		<path
   fill="#a0663f"
   d="M 897.294,657.801 748.824,526.839 749,526.83 v -0.006 l -0.195,-0.004 72.988,184.368 c 21.117,-8.412 40.785,-20.524 58.282,-36.071 6.15,-5.465 11.865,-11.246 17.219,-17.316 z"
   id="path569" />
		<polygon
   fill="#969696"
   points="748.641,526.845 748.644,526.848 748.656,526.836 748.645,526.836 "
   id="polygon571" />
		<path
   fill="#b57447"
   d="m 748.671,526.842 -0.027,0.007 148.65,130.952 c 21.565,-24.446 36.58,-53.559 43.983,-85.151 z"
   id="path573" />
		<path
   fill="#685364"
   d="m 958.05,576.64 c 2.813,-12.012 4.619,-24.354 5.362,-36.924 1.353,-22.951 -0.909,-45.562 -6.541,-67.188 l -208.2,54.314 z"
   id="path575" />
		<polygon
   fill="#969696"
   points="748.645,526.836 748.651,526.822 748.624,526.83 "
   id="polygon577" />
		<path
   fill="#c47c4b"
   d="m 941.277,572.649 c 2.587,-11.044 4.245,-22.392 4.928,-33.949 1.244,-21.117 -0.834,-41.923 -6.019,-61.821 L 748.67,526.842 Z"
   id="path579" />
		<polygon
   fill="#969696"
   points="748.651,526.822 748.645,526.836 748.656,526.836 748.681,526.814 "
   id="polygon581" />
		<path
   fill="#756072"
   d="m 909.417,383.993 -160.736,142.821 208.187,-54.31 c -8.459,-32.467 -24.522,-62.705 -47.451,-88.511 z"
   id="path583" />
		<path
   fill="#dd884e"
   d="m 896.531,395.442 -147.85,131.372 191.5,-49.956 c -7.781,-29.867 -22.557,-57.68 -43.65,-81.416 z"
   id="path585" />
		<polygon
   fill="#969696"
   points="748.644,526.848 748.641,526.85 748.644,526.849 "
   id="polygon587" />
		<polygon
   fill="#969696"
   points="748.644,526.849 748.671,526.842 748.656,526.836 748.644,526.848 "
   id="polygon589" />
		<path
   fill="#fec387"
   d="m 894.36,624.028 4.948,4.357 c 8.966,-10.163 15.211,-22.267 18.289,-35.4 l -6.415,-1.526 c -2.83,12.084 -8.574,23.217 -16.822,32.569 z"
   id="path591" />
		<path
   fill="#fec387"
   d="m 922.9,544.697 6.413,1.543 c 3.179,-13.177 3.046,-26.795 -0.37,-39.845 l -6.384,1.646 c 3.143,12.007 3.267,24.535 0.341,36.656 z"
   id="path593" />
		<path
   fill="#fec387"
   d="m 833.602,680.015 2.402,6.141 c 12.625,-4.923 23.724,-12.815 32.481,-23.078 l -5.002,-4.297 c -8.055,9.443 -18.262,16.701 -29.881,21.234 z"
   id="path595" />
		<path
   fill="#fec387"
   d="m 910.824,460.713 6.385,-1.654 c -3.385,-13.122 -9.903,-25.078 -19.051,-34.996 l -4.862,4.455 c 8.419,9.121 14.412,20.122 17.528,32.195 z"
   id="path597" />
		<path
   fill="#fec387"
   d="m 860.169,391.795 4.841,-4.478 c -9.197,-9.957 -20.598,-17.4 -33.353,-21.806 l -2.172,6.23 c 11.731,4.047 22.222,10.896 30.684,20.054 z"
   id="path599" />
		<path
   fill="#fec387"
   d="m 786.355,355.805 2.267,-6.19 c -12.723,-4.669 -26.266,-6.099 -39.625,-4.206 l 0.905,6.534 c 12.289,-1.748 24.747,-0.433 36.453,3.862 z"
   id="path601" />
		<path
   fill="#fec387"
   d="M 748.641,526.85 644.182,346.102 c -19.59,28.221 -29.193,68.232 -23.436,115.5 12.859,105.578 127.895,65.248 127.895,65.248 z"
   id="path603" />
		<path
   fill="#ffddaf"
   d="m 717.804,296.568 c -27.098,6.596 -54.96,22.646 -73.622,49.533 L 748.641,526.85 Z"
   id="path605" />
		<path
   fill="#7f6c7d"
   d="m 720.07,313.507 c -25.827,5.25 -50.712,21.276 -67.926,46.375 L 748.64,526.85 Z"
   id="path607" />
		<path
   fill="#756072"
   d="M 748.641,526.85 652.145,359.882 c -18.949,27.628 -28.726,66.251 -22.954,113.635 12.859,105.578 119.45,53.333 119.45,53.333 z"
   id="path609" />
		<path
   fill="#ef944c"
   d="m 722.357,330.594 c -24.927,6.092 -46.759,21.944 -62.031,43.447 L 748.64,526.85 Z"
   id="path611" />
		<path
   fill="#dd884e"
   d="M 748.641,526.85 660.327,374.041 c -18.994,26.741 -28.123,62.224 -23.695,98.568 12.86,105.58 112.009,54.241 112.009,54.241 z"
   id="path613" />
		<path
   fill="#fec387"
   d="m 711.091,359.692 -2.716,-6.009 c -12.695,5.631 -23.7,14.151 -32.214,24.912 l 5.298,4.021 c 7.828,-9.901 17.952,-17.739 29.632,-22.924 z"
   id="path615" />
		<path
   fill="#fec387"
   d="m 665.619,406.238 -5.577,-3.515 c -7.236,11.458 -11.476,24.398 -12.43,37.857 l 6.577,0.488 c 0.873,-12.381 4.775,-24.285 11.43,-34.83 z"
   id="path617" />
	</g>
	<g
   id="g629">
		<path
   fill="#756072"
   d="m 835.785,476.879 c 47.823,82.055 -16.748,176.634 -52.601,186.967 -35.853,10.335 -204.078,-163.784 -218.209,-212.812 100.052,31.313 120.766,-10.741 138.917,-21.074 60.636,-34.518 106.2,2.835 131.893,46.919 z"
   id="path621" />
		<path
   fill="#4f3749"
   d="m 803.25,502.59 c 14.131,49.028 -3.477,97.151 -39.33,107.484 -35.854,10.335 -184.813,-110.013 -198.944,-159.04 100.052,31.313 124.363,-0.118 143.487,-8.516 34.163,-15.001 80.656,11.042 94.787,60.072 z"
   id="path623" />
		<path
   fill="#4f3749"
   d="m 795.545,584.936 c 13.909,27.361 20.087,54.134 20.087,54.134 0,0 -14.085,18.731 -32.447,24.776 -19.371,6.379 -144.381,-125.615 -144.381,-125.615 0,0 139.198,12.195 156.741,46.705 z"
   id="path625" />
		<path
   fill="#3d2c39"
   d="m 697.736,468.187 c -31.44,-24.248 -53.943,18.583 -58.933,70.044 47.91,41.43 105.726,79.937 126.088,74.066 8.774,-2.529 24.165,-15.059 30.653,-27.361 -13.151,-31.804 -47.281,-77.779 -97.808,-116.749 z"
   id="path627" />
	</g>
	<g
   id="g659">
		<path
   fill="#999999"
   d="m 514.26,473.512 c -1.356,-1.896 -31.714,28.737 -35.893,36.148 -15.646,25.975 -27.584,61.652 -15.139,92.315 24.671,60.792 92.622,45.557 138.046,13.045 4.63,-3.315 6.36,-11.05 1.047,-18.476 C 579.64,564.857 521.494,483.619 514.26,473.512 Z"
   id="path631" />
		<g
   id="g657">
			<circle
   fill="#ee4b4f"
   cx="511.47"
   cy="479.297"
   r="14.397"
   id="circle633" />
			<path
   fill="#dd4a55"
   d="m 602.503,390.611 c -13.731,17.829 -50.739,52.138 -16.498,60.061 l -80.269,30.87 c 0,0 1.291,-31.171 20.751,-47.562 19.46,-16.391 76.016,-43.369 76.016,-43.369 z"
   id="path635" />
			<path
   fill="#f26963"
   d="m 526.487,433.98 c 0,0 25.631,-23.281 20.104,-55.489 -5.469,-31.856 37.883,-51.928 57.607,-22.798 21.139,31.216 -22.416,52.251 -35.854,57.316 -13.442,5.07 -37.324,17.45 -41.857,20.971 z"
   id="path637" />
			<circle
   fill="#81d5ef"
   cx="569.74799"
   cy="372.08099"
   r="23.954"
   id="circle639" />
			<circle
   fill="#f26963"
   cx="573.05701"
   cy="363.15601"
   r="7.7670002"
   id="circle641" />
			<circle
   fill="#1a1a1a"
   cx="573.05701"
   cy="363.15701"
   r="5.7389998"
   id="circle643" />
			<circle
   fill="#ffffff"
   cx="575.01703"
   cy="361.302"
   r="2.3699999"
   id="circle645" />
			<path
   fill="#d7f4ff"
   d="m 546.075,364.295 c 0.556,-1.981 1.293,-4.175 2.248,-6.422 3.722,-7.445 10.907,-12.514 19.737,-14.031 11.048,-1.899 21.744,3.537 27.479,12.635 0,0 -3.206,0.551 -6.866,1.179 -3.66,0.63 -6.056,-1.056 -8.133,-2.511 -1.846,-1.293 -4.48,-2.447 -7.793,-1.881 -10.203,1.756 -6.999,8.804 -15.763,13.791 -5.987,3.408 -9.663,4.777 -11.379,5.382 -0.241,-2.742 -0.084,-5.562 0.47,-8.142 z"
   id="path647" />
			<path
   fill="#fdbe9b"
   d="m 541.741,382.109 c -16.563,9.684 -9.008,20.709 -9.008,20.709 0,0 1.896,-11.829 18.992,-14.766 17.1,-2.939 19.065,-3.278 19.065,-3.278 0,0 -12.484,-12.345 -29.049,-2.665 z"
   id="path649" />
			<path
   fill="#f26963"
   d="m 558.765,365.855 c 0,0 0.506,7.353 -16.06,17.033 -16.563,9.683 -9.973,19.914 -9.973,19.914 0,0 6.138,13.508 -3.085,15.092 -8.348,1.436 -9.594,-10.001 -7.56,-19.966 3.502,-17.183 16.225,-21.681 23.498,-25.614 10e-4,0 8.476,-3.7 13.18,-6.459 z"
   id="path651" />
			<path
   fill="#edae8e"
   d="m 551.726,388.053 c 17.1,-2.939 19.065,-3.278 19.065,-3.278 0,0 -5.965,5.073 -15.23,6.664 -9.267,1.595 -22.824,11.399 -22.824,11.399 0.003,-0.022 0.019,0.013 0.022,-0.011 0.167,-0.905 2.57,-11.958 18.967,-14.774 z"
   id="path653" />
			<circle
   fill="#f26963"
   cx="519.86401"
   cy="478.78201"
   r="14.397"
   id="circle655" />
		</g>
	</g>
	<g
   id="g759">
		<path
   fill="#8c8376"
   d="m 541.898,507.487 c 0,0 147.383,207.357 207.388,290.426 0,0 83.674,-99.223 15.065,-222.612 C 696.883,453.963 541.898,507.487 541.898,507.487 Z"
   id="path661" />
		<path
   fill="#a59b8c"
   d="m 541.898,507.487 c 0,0 26.665,37.85 74.63,105.128 56.173,54.643 107.058,109.277 153.856,151.101 C 789.516,724.37 808.587,654.86 764.351,575.301 696.883,453.963 541.898,507.487 541.898,507.487 Z"
   id="path663" />
		<path
   fill="#bfb8ab"
   d="m 541.898,507.487 c 0,0 33.24,46.661 58.641,82.409 78.441,60.777 125.539,96.748 183.195,138.969 11.36,-39.878 13.794,-93.896 -19.383,-153.564 C 696.883,453.963 541.898,507.487 541.898,507.487 Z"
   id="path665" />
		<path
   fill="#d6d2cc"
   d="m 718.653,486.615 -102.125,85.527 c 0,0 52.804,99.905 174.663,111.114 3.261,-46.369 -15.214,-138.807 -72.538,-196.641 z"
   id="path667" />
		<path
   fill="#8e7d8d"
   d="m 750.675,542.864 c 10.116,42.806 -16.386,85.706 -59.191,95.822 -42.805,10.115 -85.706,-16.385 -95.821,-59.191 -10.115,-42.805 -4.155,-128.901 39.765,-131.312 56.008,-3.072 105.132,51.876 115.247,94.681 z"
   id="path669" />
		<g
   id="g723">
			<path
   fill="#7f6c7d"
   d="m 482.259,627.695 c 15.025,20.992 78.695,89.104 188.802,60.391 -8.449,-11.804 -60.683,-85.378 -60.683,-85.378 z"
   id="path671" />
			<path
   fill="#594054"
   d="m 468.65,585.505 c 0,0 -19.771,31.92 -1.521,64.974 18.251,33.053 2.088,29.974 2.088,29.974 0,0 11.138,3.556 13.677,-10.272 2.54,-13.831 -18.911,-32.746 4.65,-41.621 0.001,-10e-4 -12.85,-52.064 -18.894,-43.055 z"
   id="path673" />
			<path
   fill="#8e7d8d"
   d="m 482.259,627.695 c 15.025,20.992 56.984,74.471 136.724,34.853 25.425,-12.631 15.91,-25.59 7.462,-37.394 -8.45,-11.805 -16.066,-22.446 -16.066,-22.446 z"
   id="path675" />
			<path
   fill="#a093a0"
   d="m 522.317,479.676 c -1.356,-1.897 -22.665,12.611 -32.719,29.857 -19.091,32.752 -30.757,67.944 -18.313,98.606 24.672,60.792 92.624,45.557 138.047,13.046 4.632,-3.315 6.36,-11.051 1.046,-18.478 -22.68,-31.686 -80.825,-112.924 -88.061,-123.031 z"
   id="path677" />
			<path
   fill="#b5acb5"
   d="m 481.471,548.17 c 13.543,38.745 66.34,39.964 94.82,19.58 2.904,-2.08 4.047,-6.918 0.715,-11.571 -4.394,-6.139 -17.584,-24.551 -31.363,-44.175 -5.705,-8.125 4.079,-48.823 34.475,-63.82 -32.407,7.631 -64.021,30.425 -70.098,35.786 -14.686,12.952 -35.712,43.704 -28.549,64.2 z"
   id="path679" />
			<g
   id="g687">
				<path
   fill="#756072"
   d="m 594.9,684.169 c 2.908,4.064 7.937,3.532 12.351,0.374 4.413,-3.16 6.539,-7.748 3.631,-11.811 -7.991,5.719 -11.583,8.29 -15.982,11.437 z"
   id="path681" />
				<path
   fill="#756072"
   d="m 642.013,684.169 c 2.908,4.064 7.938,3.532 12.352,0.374 4.411,-3.16 6.539,-7.748 3.63,-11.811 -7.991,5.719 -11.584,8.29 -15.982,11.437 z"
   id="path683" />
				<path
   fill="#756072"
   d="m 620.598,679.887 c 2.909,4.063 7.938,3.531 12.351,0.372 4.413,-3.159 6.54,-7.747 3.631,-11.81 -7.991,5.719 -11.583,8.29 -15.982,11.438 z"
   id="path685" />
			</g>
			<g
   id="g697">
				<path
   fill="#7f6c7d"
   d="m 533.223,662.579 c 2.909,4.063 7.938,3.53 12.351,0.371 4.412,-3.159 6.541,-7.747 3.631,-11.811 -7.992,5.721 -11.584,8.293 -15.982,11.44 z"
   id="path689" />
				<path
   fill="#7f6c7d"
   d="m 567.775,664.183 c 2.908,4.063 7.938,3.531 12.351,0.372 4.411,-3.158 6.539,-7.747 3.631,-11.81 -7.991,5.718 -11.584,8.29 -15.982,11.438 z"
   id="path691" />
				<path
   fill="#7f6c7d"
   d="m 613.869,650.453 c 2.908,4.063 7.937,3.53 12.351,0.371 4.413,-3.158 6.539,-7.747 3.631,-11.811 -7.992,5.72 -11.583,8.292 -15.982,11.44 z"
   id="path693" />
				<path
   fill="#7f6c7d"
   d="m 594.941,641.324 c 2.909,4.063 7.938,3.53 12.351,0.371 4.413,-3.158 6.539,-7.747 3.631,-11.811 -7.99,5.721 -11.583,8.292 -15.982,11.44 z"
   id="path695" />
			</g>
			<g
   id="g713">
				<path
   fill="#8e7d8d"
   d="m 578.368,600.42 c 2.493,3.481 7.938,3.529 12.351,0.371 4.413,-3.158 6.125,-8.328 3.632,-11.81 -7.991,5.719 -11.584,8.29 -15.983,11.439 z"
   id="path699" />
				<path
   fill="#8e7d8d"
   d="m 552.479,595.249 c 2.078,2.901 7.938,3.53 12.351,0.371 4.415,-3.159 5.71,-8.909 3.633,-11.811 -7.993,5.72 -11.586,8.293 -15.984,11.44 z"
   id="path701" />
				<path
   fill="#8e7d8d"
   d="m 544.238,629.796 c 2.908,4.062 7.938,3.53 12.351,0.371 4.413,-3.159 6.54,-7.748 3.632,-11.81 -7.992,5.719 -11.583,8.29 -15.983,11.439 z"
   id="path703" />
				<path
   fill="#8e7d8d"
   d="m 498.625,630.284 c 2.492,3.482 7.937,3.529 12.35,0.371 4.413,-3.159 6.125,-8.328 3.633,-11.812 -7.993,5.721 -11.586,8.293 -15.983,11.441 z"
   id="path705" />
				<path
   fill="#8e7d8d"
   d="m 478.717,615.563 c 2.908,4.063 7.937,3.53 12.35,0.372 4.413,-3.16 6.54,-7.747 3.633,-11.81 -7.993,5.719 -11.586,8.291 -15.983,11.438 z"
   id="path707" />
				<path
   fill="#8e7d8d"
   d="m 486.417,589.862 c 2.493,3.482 7.938,3.529 12.351,0.371 4.414,-3.159 6.124,-8.328 3.631,-11.811 -7.991,5.722 -11.583,8.292 -15.982,11.44 z"
   id="path709" />
				<path
   fill="#8e7d8d"
   d="m 512.137,599.544 c 2.908,4.063 7.937,3.529 12.352,0.371 4.413,-3.159 6.54,-7.747 3.631,-11.81 -7.992,5.719 -11.585,8.29 -15.983,11.439 z"
   id="path711" />
			</g>
			<g
   id="g721">
				<path
   fill="#a093a0"
   d="m 549.894,547.062 c 2.908,4.063 0.783,8.651 -3.631,11.811 -4.415,3.159 -9.442,3.692 -12.351,-0.37 7.991,-5.722 11.584,-8.292 15.982,-11.441 z"
   id="path715" />
				<path
   fill="#a093a0"
   d="m 521.145,544.816 c 2.494,3.482 0.783,8.65 -3.631,11.81 -4.413,3.159 -9.858,3.111 -12.351,-0.371 7.992,-5.72 11.583,-8.29 15.982,-11.439 z"
   id="path717" />
				<path
   fill="#a093a0"
   d="m 509.639,521.449 c 2.908,4.063 0.783,8.651 -3.631,11.81 -4.412,3.159 -9.442,3.692 -12.351,-0.371 7.991,-5.72 11.584,-8.291 15.982,-11.439 z"
   id="path719" />
			</g>
		</g>
		<path
   fill="#a093a0"
   d="m 625.357,623.638 c 0,0 -67.105,-93.77 -79.715,-111.634 -10.259,-14.533 -19.051,-72.699 80.317,-66.815 99.679,5.901 105.527,69.751 49.594,109.784 -55.933,40.035 -50.196,68.665 -50.196,68.665 z"
   id="path725" />
		<g
   id="g739">
			<path
   fill="#7f6c7d"
   d="m 729.213,543.916 c 3.481,-2.493 3.529,-7.938 0.371,-12.351 -3.158,-4.413 -8.328,-6.125 -11.81,-3.632 5.719,7.991 8.29,11.585 11.439,15.983 z"
   id="path727" />
			<path
   fill="#7f6c7d"
   d="m 736.213,588.916 c 3.481,-2.493 3.529,-7.938 0.371,-12.351 -3.158,-4.413 -8.328,-6.125 -11.81,-3.632 5.719,7.991 8.29,11.585 11.439,15.983 z"
   id="path729" />
			<path
   fill="#7f6c7d"
   d="m 701.213,570.916 c 3.481,-2.493 3.529,-7.938 0.371,-12.351 -3.158,-4.413 -8.328,-6.125 -11.81,-3.632 5.719,7.991 8.29,11.585 11.439,15.983 z"
   id="path731" />
			<path
   fill="#7f6c7d"
   d="m 710.213,618.916 c 3.481,-2.493 3.529,-7.938 0.371,-12.351 -3.158,-4.413 -8.328,-6.125 -11.81,-3.632 5.719,7.991 8.29,11.585 11.439,15.983 z"
   id="path733" />
			<path
   fill="#7f6c7d"
   d="m 677.213,597.916 c 3.481,-2.493 3.529,-7.938 0.371,-12.351 -3.158,-4.413 -8.328,-6.125 -11.81,-3.632 5.719,7.991 8.29,11.585 11.439,15.983 z"
   id="path735" />
			<path
   fill="#7f6c7d"
   d="m 663.213,629.916 c 3.481,-2.493 3.529,-7.938 0.371,-12.351 -3.158,-4.413 -8.328,-6.125 -11.81,-3.632 5.719,7.991 8.29,11.585 11.439,15.983 z"
   id="path737" />
		</g>
		<g
   id="g757">
			<path
   fill="#8e7d8d"
   d="m 589.213,510.916 c 3.481,-2.493 3.529,-7.938 0.371,-12.351 -3.158,-4.413 -8.328,-6.125 -11.81,-3.632 5.719,7.991 8.29,11.585 11.439,15.983 z"
   id="path741" />
			<path
   fill="#8e7d8d"
   d="m 635.213,562.916 c 3.481,-2.493 3.529,-7.938 0.371,-12.351 -3.158,-4.413 -8.328,-6.125 -11.81,-3.632 5.719,7.991 8.29,11.585 11.439,15.983 z"
   id="path743" />
			<path
   fill="#8e7d8d"
   d="m 596.213,552.916 c 3.481,-2.493 3.529,-7.938 0.371,-12.351 -3.158,-4.413 -8.328,-6.125 -11.81,-3.632 5.719,7.991 8.29,11.585 11.439,15.983 z"
   id="path745" />
			<path
   fill="#8e7d8d"
   d="m 608.213,485.916 c 3.481,-2.493 3.529,-7.938 0.371,-12.351 -3.158,-4.413 -8.328,-6.125 -11.81,-3.632 5.719,7.991 8.29,11.585 11.439,15.983 z"
   id="path747" />
			<path
   fill="#8e7d8d"
   d="m 688.213,498.916 c 3.481,-2.493 3.529,-7.938 0.371,-12.351 -3.158,-4.413 -8.328,-6.125 -11.81,-3.632 5.719,7.991 8.29,11.585 11.439,15.983 z"
   id="path749" />
			<path
   fill="#8e7d8d"
   d="m 646.213,481.916 c 3.481,-2.493 3.529,-7.938 0.371,-12.351 -3.158,-4.413 -8.328,-6.125 -11.81,-3.632 5.719,7.991 8.29,11.585 11.439,15.983 z"
   id="path751" />
			<path
   fill="#8e7d8d"
   d="m 675.213,529.916 c 3.481,-2.493 3.529,-7.938 0.371,-12.351 -3.158,-4.413 -8.328,-6.125 -11.81,-3.632 5.719,7.991 8.29,11.585 11.439,15.983 z"
   id="path753" />
			<path
   fill="#8e7d8d"
   d="m 632.213,519.916 c 3.481,-2.493 3.529,-7.938 0.371,-12.351 -3.158,-4.413 -8.328,-6.125 -11.81,-3.632 5.719,7.991 8.29,11.585 11.439,15.983 z"
   id="path755" />
		</g>
	</g>
</g><path
     fill="#ffffff"
     d="m 1053.09,605.433 c -22.043,0 -41.231,12.141 -51.226,30.137 -1.866,-0.381 -3.796,-0.583 -5.773,-0.583 -16.024,0 -29.014,13.156 -29.014,29.014 9.719,0 18.889,0 27.446,0 10.522,0 20.712,0 30.579,0 1.896,0 3.777,0 5.649,0 9.486,-18.629 17.387,-38.201 23.526,-58.537 -0.396,-0.009 -0.789,-0.031 -1.187,-0.031 z"
     id="path763" /></g>
</svg>
