<?xml version="1.0" encoding="UTF-8" standalone="no"?>
<svg
   xmlns:dc="http://purl.org/dc/elements/1.1/"
   xmlns:cc="http://creativecommons.org/ns#"
   xmlns:rdf="http://www.w3.org/1999/02/22-rdf-syntax-ns#"
   xmlns:svg="http://www.w3.org/2000/svg"
   xmlns="http://www.w3.org/2000/svg"
   xmlns:sodipodi="http://sodipodi.sourceforge.net/DTD/sodipodi-0.dtd"
   xmlns:inkscape="http://www.inkscape.org/namespaces/inkscape"
   version="1.1"
   id="Layer_1"
   x="0px"
   y="0px"
   viewBox="0 0 512 512"
   xml:space="preserve"
   sodipodi:docname="Gopher.svg"
   width="512"
   height="512"
   inkscape:version="1.0.2 (e86c870879, 2021-01-15, custom)"><metadata
   id="metadata966"><rdf:RDF><cc:Work
       rdf:about=""><dc:format>image/svg+xml</dc:format><dc:type
         rdf:resource="http://purl.org/dc/dcmitype/StillImage" /><dc:title></dc:title></cc:Work></rdf:RDF></metadata><defs
   id="defs964">
	
	
	
	
	
	
	
	
	
	
</defs><sodipodi:namedview
   pagecolor="#ffffff"
   bordercolor="#666666"
   borderopacity="1"
   objecttolerance="10"
   gridtolerance="10"
   guidetolerance="10"
   inkscape:pageopacity="0"
   inkscape:pageshadow="2"
   inkscape:window-width="1366"
   inkscape:window-height="715"
   id="namedview962"
   showgrid="false"
   inkscape:zoom="0.385"
   inkscape:cx="700"
   inkscape:cy="700"
   inkscape:window-x="-8"
   inkscape:window-y="-8"
   inkscape:window-maximized="1"
   inkscape:current-layer="Layer_1" />
<style
   type="text/css"
   id="style489">
	.st0{fill:#A46C3C;}
	.st1{fill:#73441F;}
	.st2{fill:#3C2112;}
	.st3{fill:#CE9B75;}
	.st4{fill:#B18060;}
	.st5{fill:#F3E3D8;}
	.st6{fill:#6C4D39;}
	.st7{fill:#271A13;}
</style>
<g
   id="g773"
   transform="matrix(1.4414322,0,0,1.4414322,-999.16326,-813.68403)">
		<path
   class="st6"
   d="m 854.6,754.7 c -6.2,1.1 -49.1,10.6 -64.6,13.7 -15.5,3.1 -22.6,3.6 -29.8,12.5 -7.2,8.8 -18,9.1 -18.5,16.6 -0.5,7.5 -5.1,10.9 -6.6,14.9 -1.6,4 -8,17.1 4.4,21.5 12.4,4.4 31.1,15.7 40.4,14.9 9.3,-0.8 53.2,0 58.9,4.5 5.7,4.4 54.8,-5.4 68.7,-1.5 13.9,3.9 60.9,-7.3 71.7,-11.7 10.9,-4.4 26,-10.6 24.4,-18.5 -1.6,-7.9 10.6,-13.5 3.9,-20.6 -6.7,-7.1 -1.3,-15.7 -7.5,-18.4 -6.2,-2.7 -25.3,-10.6 -35.7,-13.2 -10.4,-2.8 -83,-19.6 -109.7,-14.7 z"
   id="path735" />
		<path
   class="st7"
   d="m 797.7,790 c 0,0 12.4,-11.4 45.5,-13.6 33.1,-2.2 127.6,9.6 134.4,20.6 6.8,11 -12.4,22.9 -34.5,26.8 -22.1,3.9 -68.3,0.5 -103.4,0 -35.2,-0.5 -72.4,-2.2 -75.2,-11.4 -2.8,-9.2 33.2,-22.4 33.2,-22.4 z"
   id="path737" />
		<path
   class="st0"
   d="m 839.8,823.8 c 32.6,0.5 74.6,3.3 98.2,0.7 -0.2,-5.1 -0.5,-10.5 -1.2,-15.8 -3,-22.4 -16.7,-80.1 -16.7,-80.1 l -25.1,-15.9 -28.3,16.2 -28.3,-16.2 -25.1,15.9 c 0,0 -13.7,57.7 -16.7,80.1 -0.6,4.4 -1,8.9 -1.1,13.2 13,1.2 28.8,1.6 44.3,1.9 z"
   id="path739" />
		<path
   class="st1"
   d="m 920,728.6 -25.1,-15.9 -28.3,16.2 -28.3,-16.2 -25.1,15.9 c 0,0 -0.6,2.4 -1.5,6.3 0.1,0.1 0.3,0.1 0.4,0.2 10.4,4.1 41.6,15.7 54.5,13.3 12.9,2.5 44.1,-9.1 54.5,-13.3 0.1,-0.1 0.3,-0.1 0.4,-0.2 -0.9,-4 -1.5,-6.3 -1.5,-6.3 z"
   id="path741" />
		<path
   class="st3"
   d="m 843.1,802.9 c 1,5 1,5 1,5 l 1.2,-2.8 c 0,0 0.1,8.8 -0.9,18.8 14.1,0.3 29.7,0.9 44.6,1.4 -1.2,-10.4 -1,-20.1 -1,-20.1 l 1.2,2.8 c 0,0 0,0 1,-5 1,-5 -3.3,-29.3 -3.3,-29.3 l 3.3,1.7 c -1.2,-9.7 -11.1,-36.7 -11.1,-36.7 l -12.5,2.2 -12.5,-2.2 c 0,0 -9.9,27.1 -11.1,36.7 l 3.3,-1.7 c 0.1,-0.1 -4.2,24.2 -3.2,29.2 z"
   id="path743" />
		<path
   class="st4"
   d="m 879.1,738.5 -12.5,2.2 -12.5,-2.2 c 0,0 -1.3,3.7 -3.1,8.8 6.1,1.2 11.7,1.7 15.5,1 3.9,0.7 9.4,0.2 15.5,-1 -1.6,-5.1 -2.9,-8.8 -2.9,-8.8 z"
   id="path745" />
		<path
   class="st0"
   d="m 936.5,690.4 c -1.4,-12 -11.5,-47.2 -25.1,-54.7 -13.6,-7.5 -44.8,-5.8 -44.8,-5.8 0,0 -31.2,-1.7 -44.8,5.8 -13.6,7.5 -23.7,42.7 -25.1,54.7 -1.4,12 5,34.8 15.4,39 10.4,4.2 41.6,15.7 54.5,13.3 12.9,2.5 44.1,-9.1 54.5,-13.3 10.4,-4.2 16.8,-27 15.4,-39 z"
   id="path747" />
		<path
   class="st5"
   d="m 866.6,708.4 -4.5,5.9 v 13.6 c 0,0.9 0.7,1.7 1.5,1.7 h 3.1 3.1 c 0.8,0 1.5,-0.8 1.5,-1.7 v -13.6 z"
   id="path749" />
		<path
   class="st0"
   d="m 914.1,658 c 0,0 13.4,-17.4 20.8,-16 7.3,1.5 10,14.7 9.5,18.2 -0.5,3.5 -8.1,13.3 -17.2,10.6 C 918,668.2 914.1,658 914.1,658 Z"
   id="path751" />
		<path
   class="st3"
   d="m 869.6,701.5 5,-3 c 0,0 14.9,4 16.8,14.2 1.9,10.2 -22,18.6 -24.8,-4.3 z"
   id="path753" />
		<path
   class="st3"
   d="m 935.3,650 c -3.3,-0.9 -13.5,10.3 -17.2,14.5 2.1,2.6 5.1,5.2 9.1,6.3 0.3,0.1 0.6,0.1 0.9,0.2 6.1,-3 12.1,-9.3 12.3,-11.8 0.2,-3.3 -2,-5.4 -2,-5.4 l 2,0.1 c 0,0.1 -1,-2.8 -5.1,-3.9 z"
   id="path755" />
		<circle
   class="st2"
   cx="897.5"
   cy="677.29999"
   r="6"
   id="circle757" />
		<circle
   class="st3"
   cx="895.59998"
   cy="675.40002"
   r="1.9"
   id="circle759" />
		<path
   class="st0"
   d="m 819.1,658 c 0,0 -13.4,-17.4 -20.8,-16 -7.3,1.5 -10,14.7 -9.5,18.2 0.5,3.5 8.1,13.3 17.2,10.6 9.2,-2.6 13.1,-12.8 13.1,-12.8 z"
   id="path761" />
		<path
   class="st3"
   d="m 863.6,701.5 -5,-3 c 0,0 -14.9,4 -16.8,14.2 -1.9,10.2 22,18.6 24.8,-4.3 z"
   id="path763" />
		<path
   class="st3"
   d="m 797.9,650 c 3.3,-0.9 13.5,10.3 17.2,14.5 -2.1,2.6 -5.1,5.2 -9.1,6.3 -0.3,0.1 -0.6,0.1 -0.9,0.2 -6.1,-3 -12.1,-9.3 -12.3,-11.8 -0.2,-3.3 2,-5.4 2,-5.4 l -2,0.1 c 0,0.1 1.1,-2.8 5.1,-3.9 z"
   id="path765" />
		<circle
   class="st2"
   cx="835.79999"
   cy="677.29999"
   r="6"
   id="circle767" />
		<circle
   class="st3"
   cx="837.70001"
   cy="675.40002"
   r="1.9"
   id="circle769" />
		<path
   class="st2"
   d="m 874.6,698.5 c -0.5,-1.4 -8,-0.6 -8,-0.6 0,0 -7.5,-0.8 -8,0.6 -0.5,1.4 4.5,9.7 8,9.9 3.5,-0.3 8.5,-8.5 8,-9.9 z"
   id="path771" />
	</g>
</svg>
